<svg id="Слой_1" data-name="Слой 1" xmlns="http://www.w3.org/2000/svg" viewBox="0 0 499.89 669.62"><defs><style>.cls-1{fill:#ccc;}.cls-2{fill:#444;}.cls-3{fill:#bfbfbf;}.cls-4{fill:#f9f9f9;}.cls-5{fill:#99c6d6;}.cls-6{fill:#4fa3e8;}.cls-7{fill:#e8e8e8;}.cls-8{fill:#0084b2;}</style></defs><title>к</title><polygon class="cls-1" points="193.1 236.98 108.92 338.08 107.92 217.89 192.1 168.94 193.1 236.98"/><path class="cls-2" d="M108.93,338.83a.78.78,0,0,1-.26,0,.76.76,0,0,1-.49-.7l-1-120.19a.75.75,0,0,1,.37-.66l84.18-49a.74.74,0,0,1,1.12.63l1,68.05a.67.67,0,0,1-.17.49L109.5,338.56A.76.76,0,0,1,108.93,338.83Zm-.25-120.51,1,117.71,82.69-99.31-1-66.49Z"/><polygon class="cls-1" points="385.35 406.16 191.1 383.94 192.1 169.03 384.35 181.1 385.35 406.16"/><path class="cls-2" d="M385.35,406.91h-.09L191,384.69a.76.76,0,0,1-.66-.75l1-214.92a.75.75,0,0,1,.24-.54.72.72,0,0,1,.56-.2L384.4,180.35a.75.75,0,0,1,.7.75l1,225.05a.75.75,0,0,1-.75.76Zm-193.5-23.64,192.74,22.05-1-223.51-190.75-12Z"/><polygon class="cls-3" points="196.91 170.25 192.39 173.09 192.39 175.52 200.14 170.43 196.91 170.25"/><polygon class="cls-3" points="210.58 171.03 191.39 184.4 191.39 186.84 213.81 171.21 210.58 171.03"/><polygon class="cls-3" points="224.25 171.81 191.39 194.71 191.39 197.15 227.49 172 224.25 171.81"/><polygon class="cls-3" points="237.93 172.6 191.39 205.03 191.39 207.46 241.16 172.78 237.93 172.6"/><polygon class="cls-3" points="251.61 173.38 191.39 215.34 191.39 217.78 254.84 173.56 251.61 173.38"/><polygon class="cls-3" points="265.28 174.16 191.39 225.65 191.39 228.09 268.51 174.35 265.28 174.16"/><polygon class="cls-3" points="278.96 174.95 191.39 235.96 191.39 238.4 282.19 175.13 278.96 174.95"/><polygon class="cls-3" points="292.63 175.73 191.39 246.28 191.39 248.72 295.86 175.92 292.63 175.73"/><polygon class="cls-3" points="306.31 176.51 191.39 256.59 191.39 259.03 309.54 176.7 306.31 176.51"/><polygon class="cls-3" points="319.98 177.3 191.39 266.9 191.39 269.34 323.21 177.48 319.98 177.3"/><polygon class="cls-3" points="333.66 178.08 191.39 277.22 191.39 279.65 336.89 178.27 333.66 178.08"/><polygon class="cls-3" points="347.33 178.87 191.39 287.53 191.39 289.97 350.56 179.05 347.33 178.87"/><polygon class="cls-3" points="361.01 179.65 191.39 297.84 191.39 300.28 364.24 179.84 361.01 179.65"/><polygon class="cls-3" points="374.68 180.43 191.39 308.16 191.39 310.59 377.91 180.62 374.68 180.43"/><polygon class="cls-3" points="384.64 183.81 191.39 318.47 191.39 320.91 384.64 186.24 384.64 183.81"/><polygon class="cls-3" points="384.64 194.12 191.39 328.78 191.39 331.22 384.64 196.56 384.64 194.12"/><polygon class="cls-3" points="384.64 204.43 191.39 339.1 191.39 341.53 384.64 206.87 384.64 204.43"/><polygon class="cls-3" points="384.64 214.74 191.39 349.41 191.39 351.85 384.64 217.18 384.64 214.74"/><polygon class="cls-3" points="384.64 225.06 191.39 359.72 191.39 362.16 384.64 227.49 384.64 225.06"/><polygon class="cls-3" points="384.64 235.37 191.39 370.04 191.39 372.47 384.64 237.81 384.64 235.37"/><polygon class="cls-3" points="384.64 245.69 191.39 380.35 191.39 382.79 384.64 248.12 384.64 245.69"/><polygon class="cls-3" points="384.64 256 199.4 385.08 202.26 385.53 384.64 258.43 384.64 256"/><polygon class="cls-3" points="384.64 266.29 211.48 386.96 214.37 387.4 384.64 268.75 384.64 266.29"/><polygon class="cls-3" points="384.64 276.6 223.59 388.83 226.48 389.28 384.64 279.06 384.64 276.6"/><polygon class="cls-3" points="384.64 286.91 235.7 390.71 238.56 391.15 384.64 289.35 384.64 286.91"/><polygon class="cls-3" points="384.64 297.23 247.81 392.58 250.66 393.03 384.64 299.66 384.64 297.23"/><polygon class="cls-3" points="384.64 307.54 259.91 394.46 262.77 394.9 384.64 309.98 384.64 307.54"/><polygon class="cls-3" points="384.64 317.85 272.02 396.33 274.88 396.78 384.64 320.29 384.64 317.85"/><polygon class="cls-3" points="384.64 328.17 284.13 398.21 286.99 398.65 384.64 330.6 384.64 328.17"/><polygon class="cls-3" points="384.64 338.48 296.24 400.09 299.1 400.53 384.64 340.92 384.64 338.48"/><polygon class="cls-3" points="384.64 348.79 308.35 401.96 311.21 402.4 384.64 351.23 384.64 348.79"/><polygon class="cls-3" points="384.64 359.11 320.45 403.84 323.31 404.28 384.64 361.54 384.64 359.11"/><polygon class="cls-3" points="384.64 369.42 332.56 405.71 335.42 406.16 384.64 371.86 384.64 369.42"/><polygon class="cls-3" points="384.64 379.73 344.67 407.59 347.53 408.03 384.64 382.17 384.64 379.73"/><polygon class="cls-3" points="384.64 390.05 356.78 409.46 359.64 409.91 384.64 392.48 384.64 390.05"/><polygon class="cls-3" points="384.64 400.36 368.89 411.34 371.75 411.78 384.64 402.8 384.64 400.36"/><polygon class="cls-3" points="385.64 406.11 385.64 403.67 381.99 406.22 384.85 406.66 385.64 406.11"/><path class="cls-2" d="M385.34,406.24h-.08L191,384.69a.76.76,0,0,1-.67-.75l1-214.92a.75.75,0,0,1,.24-.54.72.72,0,0,1,.56-.2L384.4,180.35a.75.75,0,0,1,.7.75l1,224.39a.73.73,0,0,1-.75.75Zm-193.49-23,192.74,21.38-1-222.84-190.75-12Z"/><polygon class="cls-1" points="385.7 405.95 307.7 484.74 307.7 235.59 385.7 180.56 385.7 405.95"/><path class="cls-2" d="M307.7,485.49a.69.69,0,0,1-.28-.05.76.76,0,0,1-.47-.7V235.59a.75.75,0,0,1,.32-.61l78-55a.75.75,0,0,1,1.18.62V406a.78.78,0,0,1-.21.53l-78,78.79A.75.75,0,0,1,307.7,485.49ZM308.45,236V482.92L385,405.64V182ZM385.7,406h0Z"/><polygon class="cls-4" points="307.7 484.74 108.45 455.81 108.45 217.55 307.7 236.03 307.7 484.74"/><path class="cls-2" d="M307.7,485.49h-.11L108.34,456.55a.76.76,0,0,1-.64-.74V217.55A.77.77,0,0,1,108,217a.74.74,0,0,1,.57-.19l199.25,18.49a.74.74,0,0,1,.68.75v248.7a.73.73,0,0,1-.26.57A.72.72,0,0,1,307.7,485.49ZM109.2,455.16,307,483.88V236.72L109.2,218.37Z"/><polygon class="cls-5" points="269.44 357.06 269.44 341.68 274.45 341.68 274.45 346.69 285.9 346.69 285.9 352.05 274.45 352.05 274.45 357.06 269.44 357.06"/><polygon class="cls-5" points="269.62 295.35 269.62 295.35 269.62 300 269.62 300 269.62 305.37 286.07 305.37 286.07 300 274.99 300 274.99 295.35 286.07 295.35 286.07 289.99 274.99 289.99 269.62 289.99 269.62 289.99 269.62 295.35"/><polygon class="cls-5" points="276.06 256 269.62 251.35 269.62 257.43 276.06 262.08 276.06 262.8 269.62 262.8 269.62 268.16 286.07 268.16 286.07 262.8 279.99 262.8 279.99 261.37 286.07 258.51 286.07 252.07 277.85 257.07 276.06 256"/><path class="cls-5" d="M269.62,276.39v5l16.45,7.16v-5.73l-2.86-.71V276l2.86-1.07v-5.72Zm9.66,4.3L275,278.9l4.3-1.43Z"/><path class="cls-5" d="M269.62,330.41v5l16.45,7.15v-5.72l-2.86-.72v-6.08l2.86-1.07v-5.72Zm9.66,4.29-4.3-1.79,4.3-1.43Z"/><path class="cls-5" d="M269.62,313.05v8.77h16.45v-5.36h-3.94v-3.41a6.25,6.25,0,0,0-6.26-6.25h0A6.25,6.25,0,0,0,269.62,313.05Zm8.23,1.05v2.36H274V314.1a1.94,1.94,0,0,1,3.88,0Z"/><polyline class="cls-4" points="306.36 483.74 192.5 393.9 192.5 350.85"/><path class="cls-2" d="M306.36,484.49a.74.74,0,0,1-.46-.16l-2.75-2.17a.75.75,0,1,1,.93-1.17l2.75,2.16a.76.76,0,0,1,.12,1.06A.74.74,0,0,1,306.36,484.49Z"/><path class="cls-2" d="M297.91,477.83a.73.73,0,0,1-.46-.17l-5.71-4.5a.75.75,0,0,1,.93-1.17l5.71,4.5a.75.75,0,0,1-.47,1.34Zm-11.41-9a.74.74,0,0,1-.46-.16l-5.7-4.5a.74.74,0,1,1,.92-1.17l5.71,4.5a.75.75,0,0,1,.12,1.05A.73.73,0,0,1,286.5,468.82Zm-11.4-9a.74.74,0,0,1-.47-.16l-5.7-4.5a.75.75,0,1,1,.93-1.17l5.7,4.5a.74.74,0,0,1-.46,1.33Zm-11.41-9a.76.76,0,0,1-.47-.16l-5.7-4.5a.75.75,0,0,1,.93-1.18l5.7,4.5a.76.76,0,0,1,.13,1.06A.74.74,0,0,1,263.69,450.82Zm-11.41-9a.72.72,0,0,1-.46-.16l-5.71-4.5A.75.75,0,0,1,247,436l5.71,4.5a.76.76,0,0,1,.12,1.06A.74.74,0,0,1,252.28,441.82Zm-11.41-9a.74.74,0,0,1-.46-.16l-5.7-4.5a.75.75,0,0,1-.13-1.05.76.76,0,0,1,1.06-.13l5.7,4.5a.76.76,0,0,1,.12,1.06A.74.74,0,0,1,240.87,432.82Zm-11.4-9a.74.74,0,0,1-.47-.16l-5.7-4.5a.75.75,0,0,1-.13-1.05.76.76,0,0,1,1.06-.13l5.7,4.5a.76.76,0,0,1,.13,1.06A.77.77,0,0,1,229.47,423.82Zm-11.41-9a.72.72,0,0,1-.46-.16l-5.71-4.5a.75.75,0,0,1,.93-1.18l5.7,4.5a.75.75,0,0,1,.13,1.06A.77.77,0,0,1,218.06,414.82Zm-11.41-9a.74.74,0,0,1-.46-.16l-5.71-4.5a.75.75,0,0,1,.93-1.18l5.71,4.5a.76.76,0,0,1,.12,1.06A.77.77,0,0,1,206.65,405.82Z"/><path class="cls-2" d="M195.24,396.82a.74.74,0,0,1-.46-.16L192,394.49a.74.74,0,0,1-.28-.59v-3.5a.75.75,0,0,1,1.5,0v3.14l2.46,1.94a.75.75,0,0,1,.12,1A.72.72,0,0,1,195.24,396.82Z"/><path class="cls-2" d="M192.5,383.94a.74.74,0,0,1-.75-.75V376a.75.75,0,0,1,1.5,0v7.21A.75.75,0,0,1,192.5,383.94Zm0-14.42a.75.75,0,0,1-.75-.75v-7.21a.75.75,0,1,1,1.5,0v7.21A.76.76,0,0,1,192.5,369.52Z"/><path class="cls-2" d="M192.5,355.1a.75.75,0,0,1-.75-.75v-3.5a.75.75,0,0,1,1.5,0v3.5A.76.76,0,0,1,192.5,355.1Z"/><path class="cls-2" d="M383.87,405.7h-.05l-3.49-.2a.75.75,0,1,1,.08-1.5l3.5.2a.75.75,0,0,1,0,1.5Z"/><path class="cls-2" d="M116.92,449.38a.77.77,0,0,1-.61-.31.75.75,0,0,1,.17-1.05l5.7-4.13a.75.75,0,1,1,.88,1.22l-5.7,4.12A.73.73,0,0,1,116.92,449.38Zm11.4-8.26a.77.77,0,0,1-.61-.31.75.75,0,0,1,.17-1.05l5.7-4.12a.75.75,0,1,1,.88,1.21l-5.7,4.13A.79.79,0,0,1,128.32,441.12Zm11.4-8.25a.77.77,0,0,1-.61-.31.75.75,0,0,1,.17-1.05l5.7-4.13a.75.75,0,1,1,.88,1.22l-5.7,4.12A.73.73,0,0,1,139.72,432.87Zm11.4-8.26a.75.75,0,0,1-.44-1.36l5.7-4.12a.75.75,0,1,1,.88,1.21l-5.7,4.13A.72.72,0,0,1,151.12,424.61Zm11.4-8.25a.75.75,0,0,1-.44-1.36l5.7-4.13a.75.75,0,1,1,.88,1.22l-5.7,4.12A.73.73,0,0,1,162.52,416.36Zm11.4-8.26a.74.74,0,0,1-.61-.31.75.75,0,0,1,.17-1l5.7-4.13a.75.75,0,1,1,.88,1.21l-5.7,4.13A.72.72,0,0,1,173.92,408.1Zm199.43-3h-.05l-7-.4a.76.76,0,0,1-.71-.8.75.75,0,0,1,.79-.7l7,.4a.77.77,0,0,1,.71.8A.75.75,0,0,1,373.35,405.09Zm-14.05-.81h-.05l-7-.4a.76.76,0,0,1-.71-.8.74.74,0,0,1,.79-.7l7,.4a.75.75,0,0,1,0,1.5Zm-14.06-.81h0l-7-.41a.74.74,0,0,1-.7-.79.75.75,0,0,1,.79-.7l7,.4a.75.75,0,0,1-.05,1.5Zm-14.05-.81h0l-7-.41a.75.75,0,1,1,.09-1.49l7,.4a.75.75,0,0,1,0,1.5Zm-14.05-.81h0l-7-.41a.75.75,0,0,1,.09-1.5l7,.41a.75.75,0,0,1,0,1.5ZM303.09,401h0l-7-.41a.75.75,0,1,1,.09-1.5l7,.41a.75.75,0,0,1,.71.79A.76.76,0,0,1,303.09,401Zm-14-.81H289l-7-.4a.76.76,0,0,1-.71-.79.75.75,0,0,1,.8-.71l7,.41a.75.75,0,0,1,0,1.5Zm-103.72-.38a.75.75,0,0,1-.44-1.36l5.7-4.13a.76.76,0,0,1,1,.17.75.75,0,0,1-.17,1.05l-5.7,4.13A.79.79,0,0,1,185.32,399.85Zm89.67-.44h-.05l-7-.4a.76.76,0,0,1-.71-.79.74.74,0,0,1,.79-.71l7,.41a.75.75,0,0,1,0,1.49Zm-14.05-.81h-.05l-7-.4a.76.76,0,0,1-.71-.8.74.74,0,0,1,.79-.7l7,.4a.75.75,0,0,1,.7.8A.74.74,0,0,1,260.94,398.6Zm-14.06-.81h0l-7-.4a.76.76,0,0,1-.7-.8.74.74,0,0,1,.79-.7l7,.4a.75.75,0,0,1-.05,1.5Zm-14-.81h0l-7-.41a.75.75,0,1,1,.09-1.49l7,.4a.75.75,0,0,1,0,1.5Zm-14.05-.81h0l-7-.41a.75.75,0,1,1,.09-1.49l7,.4a.75.75,0,0,1,0,1.5Zm-14.05-.81h0l-7-.41a.76.76,0,0,1-.71-.79.77.77,0,0,1,.8-.71l7,.41a.75.75,0,0,1,.71.79A.76.76,0,0,1,204.73,395.36Z"/><path class="cls-2" d="M108.38,455.56a.75.75,0,0,1-.44-1.36l2.84-2.06a.76.76,0,0,1,1,.17.75.75,0,0,1-.17,1.05l-.16.11.19,0a.76.76,0,0,1,.88.6.75.75,0,0,1-.61.87l-3.44.63Z"/><path class="cls-2" d="M118.62,453.69a.76.76,0,0,1-.74-.62.75.75,0,0,1,.61-.87l6.79-1.24a.75.75,0,0,1,.27,1.48l-6.79,1.24Zm13.58-2.48a.75.75,0,0,1-.13-1.49l6.79-1.24a.75.75,0,1,1,.27,1.48l-6.79,1.24Zm13.59-2.48a.75.75,0,0,1-.74-.61.77.77,0,0,1,.61-.88l6.79-1.24a.75.75,0,0,1,.27,1.48l-6.79,1.24Zm13.58-2.48a.74.74,0,0,1-.73-.61.75.75,0,0,1,.6-.88l6.79-1.24a.77.77,0,0,1,.88.61.75.75,0,0,1-.61.87l-6.79,1.24ZM173,443.77a.75.75,0,0,1-.13-1.48l6.79-1.24a.75.75,0,1,1,.27,1.47l-6.79,1.24Zm13.58-2.47a.75.75,0,0,1-.73-.62.74.74,0,0,1,.6-.87l6.79-1.24a.75.75,0,1,1,.27,1.47l-6.79,1.24Zm13.59-2.48a.76.76,0,0,1-.74-.62.75.75,0,0,1,.61-.87l6.79-1.24a.75.75,0,0,1,.27,1.48l-6.79,1.23Zm13.58-2.48a.75.75,0,0,1-.13-1.49l6.79-1.24a.75.75,0,1,1,.27,1.48l-6.79,1.24Zm13.59-2.48a.75.75,0,0,1-.74-.62.76.76,0,0,1,.61-.87l6.79-1.24a.75.75,0,0,1,.27,1.48l-6.79,1.24Zm13.58-2.48a.74.74,0,0,1-.73-.61.75.75,0,0,1,.6-.88l6.79-1.24a.77.77,0,0,1,.88.61.76.76,0,0,1-.61.87L241,431.37Zm13.59-2.48a.75.75,0,0,1-.13-1.49l6.79-1.23a.75.75,0,1,1,.27,1.47l-6.79,1.24Zm13.59-2.48a.75.75,0,0,1-.14-1.48l6.79-1.24a.75.75,0,1,1,.27,1.47l-6.79,1.24ZM281.64,424a.77.77,0,0,1-.74-.62.75.75,0,0,1,.61-.87l6.79-1.24a.75.75,0,1,1,.27,1.47l-6.79,1.24Zm13.59-2.48a.75.75,0,0,1-.74-.62.74.74,0,0,1,.6-.87l6.79-1.24a.76.76,0,0,1,.88.6.75.75,0,0,1-.61.87l-6.79,1.24ZM308.81,419a.76.76,0,0,1-.74-.62.75.75,0,0,1,.61-.87l6.79-1.24a.75.75,0,0,1,.27,1.48L309,419Zm13.58-2.48a.75.75,0,0,1-.13-1.49l6.79-1.24a.75.75,0,1,1,.27,1.48l-6.79,1.24ZM336,414a.75.75,0,0,1-.74-.61.77.77,0,0,1,.61-.88l6.79-1.24a.75.75,0,0,1,.87.61.74.74,0,0,1-.6.87L336.12,414Zm13.58-2.48a.74.74,0,0,1-.73-.61.75.75,0,0,1,.6-.88l6.79-1.23a.75.75,0,1,1,.27,1.47l-6.79,1.24Zm13.59-2.48a.75.75,0,0,1-.13-1.48l6.79-1.24a.75.75,0,1,1,.27,1.47l-6.79,1.24Z"/><path class="cls-2" d="M376.73,406.6A.75.75,0,0,1,376,406a.74.74,0,0,1,.6-.87l3.44-.63a.75.75,0,1,1,.27,1.47l-3.44.63Z"/><path class="cls-6" d="M320.6,121.53a6.5,6.5,0,0,1-6.32-5c-2.64-11-13.64-40.47-32.55-44.14-16.44-3.2-37.76,12.85-61.66,46.41a6.5,6.5,0,1,1-10.59-7.54C237,72.68,262.11,55.31,284.24,59.63c31,6.05,42.23,52,42.69,53.9a6.51,6.51,0,0,1-4.82,7.83A7.13,7.13,0,0,1,320.6,121.53Z"/><path class="cls-7" d="M212.52,106.65c1.31-1.07,6-4.86,7.41-5.91a4.89,4.89,0,0,1,1.94-.86,8.6,8.6,0,0,1,5.22.61c1.67.76,3.39,1.24,2.88,3.42a.22.22,0,0,1,0,.08c-.24.93-.42,1.66-.5,2-7.17,30.5,4.95,65.76,26.65,64.29,7.67-.52,16.35-5.46,24.73-13.09A103.86,103.86,0,0,0,290,147.6c10.39-12.22,19.48-27.86,24.39-43.08a8.87,8.87,0,0,1,3.89-4.26,18.31,18.31,0,0,1,1.7-1,15.59,15.59,0,0,1,5.72,2.23c15.65,10.55,56.08,70.75,59.46,79.86l-95.45-5-123.46-6.3S182.48,131.26,212.52,106.65Z"/><path class="cls-2" d="M385.19,182.15h0l-95.45-5-123.46-6.3a.75.75,0,0,1-.6-.35.73.73,0,0,1,0-.69c.16-.39,16.62-39.35,46.45-63.79h0c1.3-1.06,6.05-4.87,7.43-5.92a5.69,5.69,0,0,1,2.23-1,9.36,9.36,0,0,1,5.7.65l.48.22c1.52.66,3.42,1.49,2.82,4.06-.25,1-.43,1.74-.51,2.06-4.76,20.24-.86,43.6,9.27,55.54,4.7,5.54,10.44,8.25,16.6,7.83,7.14-.48,15.53-4.94,24.27-12.89a103.07,103.07,0,0,0,9.13-9.51C300.13,134.56,309,119,313.7,104.29a9.54,9.54,0,0,1,4.2-4.66c.51-.32,1.09-.65,1.77-1a.73.73,0,0,1,.48-.07,16.26,16.26,0,0,1,6,2.35c15.87,10.69,56.15,70.51,59.76,80.22a.78.78,0,0,1-.1.71A.76.76,0,0,1,385.19,182.15ZM167.4,169.46l122.38,6.24L384,180.59c-5.64-12.19-44-68.54-58.72-78.42a14.41,14.41,0,0,0-5.19-2.07,14.47,14.47,0,0,0-1.41.8,8.2,8.2,0,0,0-3.58,3.85c-4.79,14.85-13.73,30.64-24.53,43.34a105.94,105.94,0,0,1-9.26,9.64c-9,8.18-17.7,12.78-25.18,13.28-6.65.45-12.82-2.44-17.84-8.36-10.58-12.47-14.52-35.85-9.59-56.85.08-.33.27-1.06.5-2,.3-1.3-.26-1.67-1.95-2.41l-.5-.22a7.89,7.89,0,0,0-4.75-.56,4.19,4.19,0,0,0-1.64.73c-1.37,1-6.11,4.84-7.4,5.89C186.1,129.27,170.16,163.27,167.4,169.46Z"/><path class="cls-3" d="M227.23,101a8.89,8.89,0,0,0-1-.38l-25.67,17.91q-3,3.17-5.71,6.43l33.57-23.44C228,101.29,227.63,101.13,227.23,101Z"/><path class="cls-3" d="M229.08,108.88l-46.5,32.46q-1.5,2.25-2.87,4.43l48.87-34.1C228.73,110.73,228.89,109.8,229.08,108.88Z"/><path class="cls-3" d="M227.66,120.18,172.07,159c-.73,1.37-1.39,2.65-2,3.82l57.48-40.12C227.59,121.85,227.62,121,227.66,120.18Z"/><path class="cls-3" d="M227.76,130.42l-57.83,40.37,3.25.17L228,132.72C227.88,132,227.82,131.19,227.76,130.42Z"/><path class="cls-3" d="M229,139.85,183.7,171.49l3.25.17L229.49,142C229.32,141.27,229.17,140.57,229,139.85Z"/><path class="cls-3" d="M231.36,148.54,197.47,172.2l3.25.16,31.35-21.88C231.82,149.84,231.59,149.19,231.36,148.54Z"/><path class="cls-3" d="M234.83,156.43,211.24,172.9l3.25.16,21.35-14.9C235.5,157.6,235.16,157,234.83,156.43Z"/><path class="cls-3" d="M326.72,102.61l-15.21,10.61c-.49,1.17-1,2.34-1.51,3.5l18.35-12.82C327.79,103.43,327.24,103,326.72,102.61Z"/><path class="cls-3" d="M239.69,163.35,225,173.6l3.25.17,12.84-9C240.62,164.34,240.15,163.86,239.69,163.35Z"/><path class="cls-3" d="M333.18,108.41l-29.59,20.66c-.84,1.42-1.7,2.84-2.58,4.23l33.58-23.44Z"/><path class="cls-3" d="M238.78,174.3l3.25.17,6.81-4.76a17.86,17.86,0,0,1-2.17-.92Z"/><path class="cls-3" d="M339,114.67l-50.37,35.15a99.39,99.39,0,0,1-7.5,7.67l59.19-41.31Z"/><path class="cls-3" d="M252.54,175l3.26.16,10.37-7.24a31.42,31.42,0,0,1-6.88,2.37Z"/><path class="cls-3" d="M344.5,121.13l-78.19,54.58,3.26.16,76.21-53.19C345.35,122.16,344.93,121.64,344.5,121.13Z"/><path class="cls-3" d="M349.83,127.73l-69.75,48.68,3.26.17,67.73-47.28C350.66,128.77,350.25,128.25,349.83,127.73Z"/><path class="cls-3" d="M355,134.41l-61.12,42.67,3.3.13,59-41.2C355.84,135.47,355.43,134.94,355,134.41Z"/><path class="cls-3" d="M360.11,141.18l-52.25,36.47,3.3.13,50.14-35C360.91,142.25,360.51,141.71,360.11,141.18Z"/><path class="cls-3" d="M365.1,148l-43.28,30.21,3.3.13,41.15-28.72Z"/><path class="cls-3" d="M370,154.91l-34.21,23.88,3.29.14,32.07-22.38Z"/><path class="cls-3" d="M374.79,161.88l-25.06,17.48,3.3.14,22.87-16C375.54,163,375.16,162.44,374.79,161.88Z"/><path class="cls-3" d="M379.45,168.93l-15.76,11,3.3.13,13.54-9.45Z"/><path class="cls-3" d="M383.9,176.14l-6.25,4.37,3.29.13,3.95-2.75C384.6,177.35,384.27,176.77,383.9,176.14Z"/><path class="cls-2" d="M385.19,182.15h0l-95.45-5-123.46-6.3a.75.75,0,0,1-.6-.35.73.73,0,0,1,0-.69c.16-.39,16.62-39.35,46.45-63.79h0c1.3-1.06,6.05-4.87,7.43-5.92a5.69,5.69,0,0,1,2.23-1,9.36,9.36,0,0,1,5.7.65l.48.22c1.52.66,3.42,1.49,2.82,4.06-.25,1-.43,1.74-.51,2.06-4.76,20.24-.86,43.6,9.27,55.54,4.7,5.54,10.44,8.25,16.6,7.83,7.14-.48,15.53-4.94,24.27-12.89a103.07,103.07,0,0,0,9.13-9.51C300.13,134.56,309,119,313.7,104.29a9.54,9.54,0,0,1,4.2-4.66c.51-.32,1.09-.65,1.77-1a.73.73,0,0,1,.48-.07,16.26,16.26,0,0,1,6,2.35c15.87,10.69,56.15,70.51,59.76,80.22a.78.78,0,0,1-.1.71A.76.76,0,0,1,385.19,182.15ZM167.4,169.46l122.38,6.24L384,180.59c-5.64-12.19-44-68.54-58.72-78.42a14.41,14.41,0,0,0-5.19-2.07,14.47,14.47,0,0,0-1.41.8,8.2,8.2,0,0,0-3.58,3.85c-4.79,14.85-13.73,30.64-24.53,43.34a105.94,105.94,0,0,1-9.26,9.64c-9,8.18-17.7,12.78-25.18,13.28-6.65.45-12.82-2.44-17.84-8.36-10.58-12.47-14.52-35.85-9.59-56.85.08-.33.27-1.06.5-2,.3-1.3-.26-1.67-1.95-2.41l-.5-.22a7.89,7.89,0,0,0-4.75-.56,4.19,4.19,0,0,0-1.64.73c-1.37,1-6.11,4.84-7.4,5.89C186.1,129.27,170.16,163.27,167.4,169.46Z"/><path class="cls-6" d="M179.83,133a6.36,6.36,0,0,1-3-.72,6.5,6.5,0,0,1-2.84-8.74c19.47-38.14,37.14-55.43,54-52.85,24.71,3.78,33.18,49.51,34.07,54.71a6.5,6.5,0,0,1-12.82,2.19c-2.32-13.58-11.06-42.19-23.22-44-4.75-.72-18.2,2.31-40.46,45.91A6.51,6.51,0,0,1,179.83,133Z"/><path class="cls-8" d="M340.44,146c4.38-4.91,8.9-9.66,13.42-14.42,1.12-1.19,2.35-2.33,3.53-3.51s2.47-2.22,3.71-3.34,2.59-2.11,3.92-3.12,2.69-2,4.1-2.89A89.94,89.94,0,0,1,387,109.58a91.16,91.16,0,0,1,19.51-5,94,94,0,0,1,10.06-.77c1.68,0,3.36-.07,5,0h4.85a97.14,97.14,0,0,0,19.05-2.16,102.34,102.34,0,0,0,18.41-5.87c6.09-2.44,12.17-4.91,18.34-7.17-5.71,3.27-11.51,6.33-17.31,9.4a99.06,99.06,0,0,1-9,4.23,87.44,87.44,0,0,1-9.49,3.2,89.25,89.25,0,0,1-19.85,3.1c-1.69.07-3.35.08-5,.09s-3.25,0-4.84.09a91.94,91.94,0,0,0-9.52.84A90.17,90.17,0,0,0,388.59,114a98.3,98.3,0,0,0-17.41,8,100.69,100.69,0,0,0-15.64,11.33C350.55,137.65,345.57,141.92,340.44,146Z"/><path class="cls-8" d="M346.07,144.9c3.59-2.4,7.27-4.59,11-6.8a81.18,81.18,0,0,1,11.8-5.6,82.16,82.16,0,0,1,25.69-5.23c1.09,0,2.19,0,3.29-.06l3.16,0c2.08,0,4.16-.13,6.24-.29a111.66,111.66,0,0,0,12.43-1.66c2.05-.38,4.09-.9,6.2-1.35l6.29-1.35c4.21-.83,8.42-1.68,12.69-2.31-4,1.7-8,3.18-12,4.67s-8,2.92-12.25,4.14a79.19,79.19,0,0,1-12.88,2.58c-2.18.26-4.37.42-6.57.51-1.08,0-2.23,0-3.26.07s-2.08,0-3.12.09a107.93,107.93,0,0,0-24.67,3.93,117.82,117.82,0,0,0-11.95,4.1C354.13,141.88,350.15,143.49,346.07,144.9Z"/><path class="cls-1" d="M309.24,231.41,156.58,209.59l26.66-31.47h0c14.3-14.5,39.51-33.92,39.51-54.34l-.19-1L351,132h0c0,20.2.92,43,12.83,59.3l-30.53,21.2Z"/><path class="cls-2" d="M309.24,232.16h-.1L156.47,210.34a.73.73,0,0,1-.59-.48.76.76,0,0,1,.12-.75l26.66-31.48c2.6-2.63,5.49-5.37,8.55-8.26,13.7-13,30.74-29.08,30.79-45.51l-.18-.89a.75.75,0,0,1,.79-.9L351,131.25a.75.75,0,0,1,.69.75c0,20.09,1,42.87,12.69,58.86a.75.75,0,0,1-.18,1l-30.53,21.21-24,18.88A.81.81,0,0,1,309.24,232.16ZM158,209l151,21.58,23.79-18.71,29.94-20.79c-11.42-16.13-12.5-38.52-12.53-58.42l-126.74-9.06a.61.61,0,0,1,0,.14c0,17.1-17.33,33.5-31.26,46.68-3.05,2.88-5.93,5.61-8.47,8.18Z"/><path class="cls-3" d="M222.56,122.82l-.15.9c0,.5,0,1-.06,1.49l2.53-1.77Z"/><path class="cls-3" d="M235.11,124.15l-15,10.52c-.49,1.21-1.06,2.42-1.68,3.62l19.87-13.92Z"/><path class="cls-3" d="M248.51,125.08l-42.14,29.51c-2.45,2.67-5,5.26-7.63,7.78l52.94-37.07Z"/><polygon class="cls-3" points="261.91 126.01 182.88 181.36 182.88 183.8 265.08 126.22 261.91 126.01"/><polygon class="cls-3" points="275.31 126.93 182.88 191.67 182.88 194.11 278.48 127.15 275.31 126.93"/><polygon class="cls-3" points="182.88 201.99 182.88 204.42 291.88 128.08 288.71 127.86 182.88 201.99"/><polygon class="cls-3" points="182.88 214.74 184.35 213.7 182.88 213.49 182.88 214.74"/><polygon class="cls-3" points="302.11 128.79 182.88 212.3 182.88 213.49 184.35 213.7 305.27 129.01 302.11 128.79"/><polygon class="cls-3" points="315.51 129.72 193.69 215.04 196.58 215.45 318.68 129.94 315.51 129.72"/><polygon class="cls-3" points="328.91 130.65 205.92 216.79 208.81 217.2 332.07 130.87 328.91 130.65"/><polygon class="cls-3" points="342.31 131.58 218.15 218.53 221.04 218.95 345.47 131.8 342.31 131.58"/><path class="cls-3" d="M351.51,137.88c0-.81,0-1.62,0-2.43l-.63.44c0,.81,0,1.62,0,2.43Z"/><path class="cls-3" d="M350.87,135.89,230.38,220.28l2.89.41,117.61-82.37C350.88,137.51,350.87,136.7,350.87,135.89Z"/><path class="cls-3" d="M351.71,148.05c0-.79-.06-1.58-.08-2.38l-.61.44c0,.79.05,1.58.08,2.37Z"/><path class="cls-3" d="M351,146.11,242.61,222l2.89.41,105.6-74C351.07,147.69,351,146.9,351,146.11Z"/><path class="cls-3" d="M352.36,157.91c-.07-.76-.14-1.53-.2-2.29l-.59.41c.07.76.14,1.52.22,2.28Z"/><path class="cls-3" d="M351.57,156l-96.73,67.75,2.89.41,94.06-65.88C351.71,157.55,351.64,156.79,351.57,156Z"/><path class="cls-3" d="M353.69,167.3c-.14-.72-.27-1.44-.39-2.17l-.54.38c.12.72.26,1.44.4,2.16Z"/><path class="cls-3" d="M352.76,165.51l-85.69,60,2.89.42,83.2-58.27C353,167,352.88,166.23,352.76,165.51Z"/><path class="cls-3" d="M355.87,176.08c-.21-.67-.41-1.34-.6-2l-.5.35c.2.67.41,1.34.62,2Z"/><path class="cls-3" d="M354.77,174.41,279.3,227.27l2.89.41,73.2-51.26C355.18,175.75,355,175.08,354.77,174.41Z"/><path class="cls-3" d="M359.08,184.15c-.3-.61-.59-1.22-.86-1.84l-.43.3q.42.93.87,1.83Z"/><path class="cls-3" d="M357.79,182.61,291.53,229l2.89.41,64.24-45Q358.21,183.54,357.79,182.61Z"/><path class="cls-3" d="M332.29,212.5l-8.42,6.62,39.56-27.71c-.4-.53-.77-1.08-1.14-1.63l-.36.25c.29.42.58.85.89,1.27Z"/><path class="cls-3" d="M323.87,219.12l8.42-6.62,30.53-21.2c-.31-.42-.6-.85-.89-1.27l-58.17,40.74,2.89.41Z"/><path class="cls-2" d="M308.25,232.16h-.11L155.48,210.34a.75.75,0,0,1-.6-.48.74.74,0,0,1,.13-.75l26.66-31.48c2.74-2.78,5.84-5.68,9.12-8.75C204.54,156,221.66,140,221.66,123.72a.49.49,0,0,1,0-.12l.14-.9a.76.76,0,0,1,.8-.63L351,131.25a.75.75,0,0,1,.69.75v.38c0,19.92,0,42.5,11.69,58.48a.74.74,0,0,1,.14.56.78.78,0,0,1-.31.49l-30.53,21.21-24,18.88A.76.76,0,0,1,308.25,232.16ZM157,209l151,21.58,23.78-18.71,29.95-20.79c-11.48-16.24-11.54-38.6-11.54-58.42l-127-9.08,0,.16c0,16.88-17.39,33.13-31.34,46.19-3.27,3.06-6.36,5.95-9,8.67Z"/><path class="cls-3" d="M222,125.26c0,.82,0,1.65-.06,2.47l.5-.34c0-.83.05-1.65.06-2.48Z"/><path class="cls-3" d="M224.07,136.17c-.14.93-.3,1.85-.47,2.77l.5-.35c.17-.92.34-1.84.48-2.77Z"/><path class="cls-3" d="M221.13,148.55c-.35,1.08-.72,2.15-1.12,3.22l.52-.37c.4-1.06.77-2.13,1.12-3.22Z"/><path class="cls-3" d="M215.45,154.54q-1.29,2.21-2.72,4.34l.57-.4c.94-1.41.84,6.15,1.69,4.68Z"/><path class="cls-2" d="M348,195.16h-.07L187,180.68a.75.75,0,0,1-.66-.58.76.76,0,0,1,.33-.81l17-10.6c13.85-14.06,18.07-24.56,18.07-44.92l.12-1a.74.74,0,0,1,.8-.66L351,131.25a.75.75,0,0,1,.69.75c0,14.24,4.41,19.52,11.7,28.25,2.37,2.84,5.05,6.06,8,10.05a.78.78,0,0,1,.12.61.75.75,0,0,1-.38.5l-14.89,7.76-7.61,15.57A.73.73,0,0,1,348,195.16ZM189.34,179.38l158.19,14.24L355,178.29a.72.72,0,0,1,.33-.34l14.33-7.47c-2.7-3.63-5.19-6.62-7.41-9.27-7.13-8.55-11.88-14.24-12-28.51l-127-9.08,0,.24c0,20.77-4.34,31.52-18.57,45.94a.69.69,0,0,1-.13.11Z"/><path class="cls-1" d="M221.2,165.58c-7.39,12-65.31,29.31-65.31,29.31l-15.46-36.95,82.13-35.12S228.58,153.59,221.2,165.58Z"/><path class="cls-2" d="M155.89,195.64a.76.76,0,0,1-.69-.46l-15.46-37a.75.75,0,0,1,.39-1l82.13-35.12a.74.74,0,0,1,.65,0,.71.71,0,0,1,.38.51c.25,1.27,6,31.2-1.46,43.3h0c-7.44,12.1-63.35,28.92-65.72,29.63A.6.6,0,0,1,155.89,195.64Zm-14.48-37.31L156.32,194c6.37-1.94,57.5-17.84,64.24-28.78h0c6.44-10.47,2.34-36.14,1.43-41.31Z"/><path class="cls-1" d="M385.54,180.47l-78.28,55.35-25.44-4.28,4.7-61.63L351,132l1.29,4.3c5.48,16.74,18.38,32.43,32.28,43.17h0Z"/><path class="cls-2" d="M307.26,236.57h-.12l-25.44-4.29a.74.74,0,0,1-.62-.79l4.69-61.62a.75.75,0,0,1,.37-.59l64.46-37.91a.74.74,0,0,1,1.1.43l1.29,4.29c4.95,15.13,16.92,31.13,32,42.8l1.06,1.07a.72.72,0,0,1,.22.59.76.76,0,0,1-.31.55l-78.29,55.35A.73.73,0,0,1,307.26,236.57Zm-24.64-5.66L307.08,235l77.31-54.66L384,180c-15.25-11.78-27.41-28.05-32.46-43.47l-1-3.4-63.3,37.23Z"/><path class="cls-4" d="M107.93,217.89s32.37-37.16,32.37-57.57v-1.69l144.7,11h1.59c0,20.19,4.58,44.22,16.49,60.49l4,5.46Z"/><path class="cls-2" d="M307.08,236.36H307L107.86,218.64a.76.76,0,0,1-.63-.47.73.73,0,0,1,.13-.77c.32-.37,32.19-37.18,32.19-57.08v-1.69a.75.75,0,0,1,.81-.75l144.7,11h1.53a.74.74,0,0,1,.75.75c0,23.62,6.11,46.07,16.34,60l4,5.47a.74.74,0,0,1,.05.81A.73.73,0,0,1,307.08,236.36ZM109.44,217.27l196.05,17.45-3-4.13c-14.69-20.07-16.55-48.23-16.62-60.18H285l-143.95-11v.88C141.05,179,114.91,210.83,109.44,217.27Z"/><path class="cls-4" d="M263.72,126c-1-1.27-4.52-5.62-5.53-6.79a2.82,2.82,0,0,0-1.52-.92,6.35,6.35,0,0,0-4.63.93c-1.59,1-3.15,1.59-3.21,4.1v.09c0,1.09,0,1.94,0,2.32-.75,40.32-23.62,97.28-44.08,91.18-17.57-5.23-24.39-54.71-19-90.27a6.27,6.27,0,0,0-9-6.37c-41.88,22.95-68.4,97.34-68.4,97.34L307.7,236S290.23,159.65,263.72,126Z"/><path class="cls-2" d="M307.7,236.79h-.07L108.19,218.3a.72.72,0,0,1-.56-.34.75.75,0,0,1-.08-.65c.27-.75,27.1-74.93,68.75-97.75a6.8,6.8,0,0,1,7.18.49,6.87,6.87,0,0,1,3,6.65c-5.45,36.16,2,84.53,18.5,89.44,3.5,1.05,7.23.14,11.1-2.69,15.83-11.57,31.4-54.24,32-87.78,0-.38,0-1.23,0-2.31v-.13c.06-2.67,1.69-3.61,3.13-4.44l.45-.26a7.1,7.1,0,0,1,5.2-1,3.59,3.59,0,0,1,1.9,1.16c1,1.2,4.58,5.58,5.55,6.82h0c26.31,33.44,43.95,109.61,44.12,110.38a.75.75,0,0,1-.16.66A.78.78,0,0,1,307.7,236.79ZM109.3,216.9l197.43,18.29c-2.18-9.14-19.14-77.69-43.6-108.78h0c-1-1.22-4.49-5.58-5.51-6.77a2.26,2.26,0,0,0-1.14-.68,5.68,5.68,0,0,0-4.05.86l-.47.27c-1.41.81-2.34,1.35-2.38,3.2a.41.41,0,0,1,0,.11c0,1,0,1.91,0,2.3-.63,33.92-16.49,77.16-32.64,89-4.26,3.12-8.44,4.1-12.41,2.92-17.65-5.26-25.13-54.14-19.55-91.1a5.39,5.39,0,0,0-2.34-5.2,5.3,5.3,0,0,0-5.6-.4C138.36,142.06,112.51,208.34,109.3,216.9Z"/><path class="cls-7" d="M259.7,116.68c1,0,6.83-.14,18,14.07,4.23,5.4,8.22,11.58,12.22,17.47,10.68,15.76,21.37,29.51,36.7,21.12,20.4-11.17,6.17-44-8.42-68.45.53-.34,1.11-.66,1.7-1a15.43,15.43,0,0,1,5.72,2.24c15.66,10.55,56.67,69,60,78.14a1,1,0,0,1-.46,1.17L307.7,235.59a338.84,338.84,0,0,0-18.08-58.52c-3-7.09-6-13.51-8.91-19.27-13.21-25.92-25-39.69-25-39.69A17,17,0,0,1,259.7,116.68Z"/><path class="cls-2" d="M307.7,236.34a.65.65,0,0,1-.27-.05.72.72,0,0,1-.46-.54,340,340,0,0,0-18.05-58.39c-2.77-6.63-5.75-13.09-8.88-19.22-13-25.53-24.78-39.41-24.9-39.55A.73.73,0,0,1,255,118a.72.72,0,0,1,.41-.52c.52-.25,3.17-1.5,4.31-1.5v.75l0-.75h0c4.68,0,11.26,5.1,18.53,14.36,3.4,4.35,6.69,9.24,9.87,14,.79,1.19,1.59,2.37,2.38,3.54,10.94,16.14,21.17,28.84,35.72,20.88a17.68,17.68,0,0,0,8.91-11.26c4.12-15.13-7.31-38.89-17.62-56.15a.76.76,0,0,1,.24-1c.51-.32,1.09-.64,1.78-1a.71.71,0,0,1,.48-.06,16.06,16.06,0,0,1,6,2.35c15.94,10.73,57,69.49,60.34,78.5a1.69,1.69,0,0,1-.81,2.09l-77.42,54.07A.75.75,0,0,1,307.7,236.34Zm-50.79-118c2.62,3.24,13.09,16.74,24.47,39.07,3.14,6.17,6.14,12.67,8.93,19.33a342,342,0,0,1,17.89,57.55l76.56-53.47c.24-.15.21-.24.19-.29-3.32-8.93-44-67.14-59.77-77.78a14.51,14.51,0,0,0-5.19-2.07l-.79.42c10.36,17.46,21.61,41.22,17.4,56.68A19.2,19.2,0,0,1,327,170c-15.63,8.55-26.74-5.22-37.68-21.36-.8-1.17-1.59-2.35-2.39-3.54-3.16-4.71-6.43-9.58-9.81-13.88-9.75-12.45-15.37-13.79-17.34-13.79h0A11.15,11.15,0,0,0,256.91,118.38Z"/></svg>