<svg id="Слой_1" data-name="Слой 1" xmlns="http://www.w3.org/2000/svg" viewBox="0 0 499.89 669.62"><defs><style>.cls-1{fill:#ccc;}.cls-2{fill:#444;}.cls-3{fill:#0084b2;}.cls-4{fill:#bfbfbf;}.cls-5,.cls-9{opacity:0.5;}.cls-6{fill:#9ac9ef;}.cls-7{fill:#727f89;}.cls-8{fill:#f9f9f9;}.cls-10{fill:#4fa3e8;}.cls-11{fill:#e8e8e8;}.cls-12{fill:#99c6d6;}</style></defs><title>к</title><polygon class="cls-1" points="193.1 236.98 108.92 338.08 107.92 217.89 192.1 168.94 193.1 236.98"/><path class="cls-2" d="M108.93,338.83a.78.78,0,0,1-.26,0,.76.76,0,0,1-.49-.7l-1-120.19a.75.75,0,0,1,.37-.66l84.18-49a.73.73,0,0,1,.74,0,.76.76,0,0,1,.39.64l1,68.05a.72.72,0,0,1-.18.49L109.5,338.56A.76.76,0,0,1,108.93,338.83Zm-.25-120.51,1,117.71,82.69-99.31-1-66.49Z"/><polygon class="cls-1" points="193.97 394.95 108.79 455.73 108.79 375.86 192.97 328.91 193.97 394.95"/><path class="cls-2" d="M108.79,456.48a.71.71,0,0,1-.34-.08.76.76,0,0,1-.41-.67V375.86a.74.74,0,0,1,.39-.65l84.18-47a.75.75,0,0,1,.74,0,.72.72,0,0,1,.37.63l1,66.05a.72.72,0,0,1-.31.62l-85.18,60.78A.7.7,0,0,1,108.79,456.48Zm.75-80.18v78l83.68-59.71-1-64.4Z"/><path class="cls-3" d="M376.65,553.36c-1.57,2.71-3.31,5.27-5,7.84-.88,1.28-1.77,2.54-2.67,3.8l-1.3,1.84c-.39.61-.8,1.22-1.16,1.86A37.55,37.55,0,0,0,361.3,585c-.06.71-.09,1.43-.1,2.15l-.09,2.42c-.07.82-.17,1.64-.26,2.46s-.26,1.63-.43,2.43a34.18,34.18,0,0,1-3.45,9.17,30.57,30.57,0,0,1-13.68,13A42.84,42.84,0,0,0,353.43,602a39.15,39.15,0,0,0,2.33-8.35l.28-2.14c0-.71.11-1.43.14-2.14l.05-2.2c0-.83,0-1.65.09-2.47a34.1,34.1,0,0,1,6.91-18.18,36.12,36.12,0,0,1,3.2-3.61c1.09-1.1,2.19-2.18,3.31-3.26C372,557.49,374.24,555.35,376.65,553.36Z"/><path class="cls-3" d="M221.15,523.82c-1.57,2.71-3.31,5.27-5.05,7.84q-1.32,1.92-2.67,3.8l-1.3,1.84c-.39.62-.8,1.22-1.16,1.86a37.59,37.59,0,0,0-5.17,16.34c-.06.72-.09,1.43-.1,2.15l-.09,2.42c-.07.82-.17,1.64-.26,2.46s-.26,1.63-.43,2.43a34.05,34.05,0,0,1-3.45,9.17,30.57,30.57,0,0,1-13.68,13,42.84,42.84,0,0,0,10.14-14.73,39,39,0,0,0,2.33-8.35l.28-2.13c0-.72.11-1.44.14-2.15l0-2.2c0-.82,0-1.65.09-2.47A34.1,34.1,0,0,1,207.73,537a36.12,36.12,0,0,1,3.2-3.61c1.09-1.09,2.19-2.18,3.31-3.25C216.49,528,218.74,525.82,221.15,523.82Z"/><polygon class="cls-1" points="385.79 572.64 192.54 542.71 192.54 328.79 385.79 339.87 385.79 572.64"/><path class="cls-2" d="M385.79,573.39h-.11L192.43,543.45a.75.75,0,0,1-.64-.74V328.79a.73.73,0,0,1,.24-.54.72.72,0,0,1,.56-.21l193.25,11.08a.75.75,0,0,1,.7.75V572.64a.73.73,0,0,1-.26.57A.72.72,0,0,1,385.79,573.39Zm-192.5-31.33L385,571.77V340.57l-191.75-11Z"/><polygon class="cls-4" points="198.35 330.01 192.84 333.85 192.84 336.29 201.58 330.19 198.35 330.01"/><polygon class="cls-4" points="212.02 330.79 192.84 344.16 192.84 346.6 215.25 330.98 212.02 330.79"/><polygon class="cls-4" points="225.7 331.58 192.84 354.48 192.84 356.91 228.93 331.76 225.7 331.58"/><polygon class="cls-4" points="239.37 332.36 192.84 364.79 192.84 367.23 242.61 332.55 239.37 332.36"/><polygon class="cls-4" points="253.05 333.14 192.84 375.1 192.84 377.54 256.28 333.33 253.05 333.14"/><polygon class="cls-4" points="266.73 333.93 192.84 385.42 192.84 387.85 269.96 334.11 266.73 333.93"/><polygon class="cls-4" points="280.4 334.71 192.84 395.73 192.84 398.17 283.63 334.9 280.4 334.71"/><polygon class="cls-4" points="294.07 335.5 192.84 406.04 192.84 408.48 297.31 335.68 294.07 335.5"/><polygon class="cls-4" points="307.75 336.28 192.84 416.36 192.84 418.79 310.98 336.46 307.75 336.28"/><polygon class="cls-4" points="321.43 337.06 192.84 426.67 192.84 429.11 324.66 337.25 321.43 337.06"/><polygon class="cls-4" points="335.1 337.85 192.84 436.98 192.84 439.42 338.33 338.03 335.1 337.85"/><polygon class="cls-4" points="348.78 338.63 192.84 447.3 192.84 449.73 352.01 338.82 348.78 338.63"/><polygon class="cls-4" points="362.45 339.41 192.84 457.61 192.84 460.05 365.68 339.6 362.45 339.41"/><polygon class="cls-4" points="376.13 340.2 192.84 467.92 192.84 470.36 379.36 340.38 376.13 340.2"/><polygon class="cls-4" points="386.09 343.57 192.84 478.24 192.84 480.67 386.09 346.01 386.09 343.57"/><polygon class="cls-4" points="386.09 353.88 192.84 488.55 192.84 490.99 386.09 356.32 386.09 353.88"/><polygon class="cls-4" points="386.09 364.2 192.84 498.86 192.84 501.3 386.09 366.63 386.09 364.2"/><polygon class="cls-4" points="386.09 374.51 192.84 509.17 192.84 511.61 386.09 376.94 386.09 374.51"/><polygon class="cls-4" points="386.09 384.82 192.84 519.49 192.84 521.92 386.09 387.26 386.09 384.82"/><polygon class="cls-4" points="386.09 395.14 192.84 529.8 192.84 532.24 386.09 397.57 386.09 395.14"/><polygon class="cls-4" points="386.09 405.45 192.84 540.12 192.84 542.55 386.09 407.89 386.09 405.45"/><polygon class="cls-4" points="386.09 415.76 200.84 544.85 203.7 545.29 386.09 418.2 386.09 415.76"/><polygon class="cls-4" points="386.09 426.05 212.92 546.72 215.81 547.17 386.09 428.51 386.09 426.05"/><polygon class="cls-4" points="386.09 436.37 225.03 548.6 227.92 549.04 386.09 438.82 386.09 436.37"/><polygon class="cls-4" points="386.09 446.68 237.14 550.47 240 550.91 386.09 449.12 386.09 446.68"/><polygon class="cls-4" points="386.09 456.99 249.25 552.35 252.11 552.79 386.09 459.43 386.09 456.99"/><polygon class="cls-4" points="386.09 467.31 261.36 554.22 264.22 554.67 386.09 469.74 386.09 467.31"/><polygon class="cls-4" points="386.09 477.62 273.46 556.1 276.33 556.54 386.09 480.06 386.09 477.62"/><polygon class="cls-4" points="386.09 487.93 285.57 557.98 288.43 558.42 386.09 490.37 386.09 487.93"/><polygon class="cls-4" points="386.09 498.24 297.68 559.85 300.54 560.29 386.09 500.68 386.09 498.24"/><polygon class="cls-4" points="386.09 508.56 309.79 561.73 312.65 562.17 386.09 510.99 386.09 508.56"/><polygon class="cls-4" points="386.09 518.87 321.9 563.6 324.76 564.05 386.09 521.31 386.09 518.87"/><polygon class="cls-4" points="386.09 529.18 334 565.48 336.87 565.92 386.09 531.62 386.09 529.18"/><polygon class="cls-4" points="386.09 539.5 346.11 567.35 348.97 567.8 386.09 541.93 386.09 539.5"/><polygon class="cls-4" points="386.09 549.81 358.22 569.23 361.08 569.67 386.09 552.25 386.09 549.81"/><polygon class="cls-4" points="386.09 560.12 370.33 571.11 373.19 571.55 386.09 562.56 386.09 560.12"/><polygon class="cls-4" points="386.09 572.87 386.09 570.44 382.44 572.98 385.3 573.42 386.09 572.87"/><path class="cls-2" d="M385.79,573.39h-.11L192.43,543.45a.75.75,0,0,1-.64-.74V328.79a.73.73,0,0,1,.24-.54.72.72,0,0,1,.56-.21l193.25,11.08a.75.75,0,0,1,.7.75V572.64a.73.73,0,0,1-.26.57A.72.72,0,0,1,385.79,573.39Zm-192.5-31.33L385,571.77V340.57l-191.75-11Z"/><g class="cls-5"><polygon class="cls-6" points="117.86 429.34 128.81 493.65 316.96 523.67 323.93 449.35 117.86 429.34"/><path d="M317,524.42h-.12l-188.15-30a.75.75,0,0,1-.62-.61l-10.95-64.32a.73.73,0,0,1,.19-.63.78.78,0,0,1,.62-.24L324,448.6a.77.77,0,0,1,.68.82l-7,74.32a.76.76,0,0,1-.29.52A.78.78,0,0,1,317,524.42ZM129.46,493l186.83,29.8L323.11,450,118.77,430.18Z"/></g><g class="cls-5"><polygon class="cls-7" points="316.96 523.67 374.7 457.92 381.67 392.18 331.89 415.05 323.12 457.92 316.96 523.67"/><path d="M317,524.42a.8.8,0,0,1-.3-.06.75.75,0,0,1-.45-.76l6.17-65.75,8.78-43a.75.75,0,0,1,.42-.53l49.77-22.86a.72.72,0,0,1,.75.07.74.74,0,0,1,.31.69l-7,65.74a.73.73,0,0,1-.18.42l-57.74,65.74A.73.73,0,0,1,317,524.42Zm15.59-108.85-8.69,42.5-5.94,63.37L374,457.61l6.8-64.2Z"/></g><polygon class="cls-1" points="384.97 406.67 307.15 484.89 307.15 392.18 384.97 339.69 384.97 406.67"/><path class="cls-2" d="M307.15,485.64a.72.72,0,0,1-.29-.06.74.74,0,0,1-.46-.69V392.18a.76.76,0,0,1,.33-.63l77.82-52.48a.75.75,0,0,1,.78,0,.75.75,0,0,1,.39.66v67a.71.71,0,0,1-.22.53l-77.82,78.22A.79.79,0,0,1,307.15,485.64Zm.75-93.06v90.49l76.32-76.71V341.1ZM385,406.67h0Z"/><polygon class="cls-8" points="307.15 484.89 108.79 455.95 108.79 376.1 307.15 392.18 307.15 484.89"/><path class="cls-2" d="M307.15,485.64H307L108.69,456.69A.75.75,0,0,1,108,456V376.1a.76.76,0,0,1,.24-.55.81.81,0,0,1,.57-.2l198.36,16.08a.75.75,0,0,1,.69.75v92.71a.78.78,0,0,1-.26.57A.8.8,0,0,1,307.15,485.64ZM109.54,455.3,306.4,484V392.87L109.54,376.92Z"/><path class="cls-9" d="M331.69,461a.75.75,0,0,1-.74-.71.74.74,0,0,1,.7-.79l43-2.3a.77.77,0,0,1,.79.71.75.75,0,0,1-.71.79l-43,2.3Z"/><path class="cls-9" d="M128.81,494.4a.77.77,0,0,1-.63-.34.75.75,0,0,1,.22-1l43.72-28.41a.74.74,0,0,1,1,.22.75.75,0,0,1-.22,1l-43.71,28.4A.7.7,0,0,1,128.81,494.4Z"/><path class="cls-3" d="M218.79,490.92c-.31.3-.62.6-.92.91a33.82,33.82,0,0,0-10.12,21.78c-.06.82-.08,1.65-.09,2.47l0,2.2c0,.71-.09,1.43-.14,2.15l-.28,2.13a38.42,38.42,0,0,1-2.33,8.35,42.81,42.81,0,0,1-10.13,14.73,30.55,30.55,0,0,0,13.67-13,33.72,33.72,0,0,0,3.45-9.17c.18-.8.29-1.62.44-2.43s.19-1.63.26-2.46l.08-2.42c0-.72.05-1.43.11-2.15a37.44,37.44,0,0,1,5.16-16.34c.37-.63.77-1.24,1.17-1.86l1.29-1.84c.43-.58.84-1.18,1.25-1.77Z"/><path class="cls-3" d="M291.89,482.93c-.3.31-.61.61-.92.91a36.12,36.12,0,0,0-3.2,3.61,34.1,34.1,0,0,0-6.91,18.18c-.07.82-.09,1.64-.09,2.47l0,2.2c0,.71-.1,1.43-.14,2.14l-.28,2.14a39.15,39.15,0,0,1-2.33,8.35,42.84,42.84,0,0,1-10.14,14.73,30.57,30.57,0,0,0,13.68-13,34.18,34.18,0,0,0,3.45-9.17c.17-.8.29-1.62.43-2.43s.19-1.64.26-2.46l.09-2.42c0-.72,0-1.44.1-2.15A37.55,37.55,0,0,1,291,489.66c.36-.64.77-1.25,1.16-1.86l1.3-1.84,1.25-1.78Z"/><path class="cls-3" d="M139.72,460.56l-.93.9a36.12,36.12,0,0,0-3.2,3.61,34.1,34.1,0,0,0-6.91,18.18c-.06.82-.09,1.65-.09,2.47l-.05,2.2c0,.71-.1,1.43-.14,2.15l-.28,2.13a38.42,38.42,0,0,1-2.33,8.35,42.84,42.84,0,0,1-10.14,14.73,30.57,30.57,0,0,0,13.68-13,34.05,34.05,0,0,0,3.45-9.17c.17-.8.29-1.62.43-2.43s.2-1.64.26-2.46l.09-2.42c0-.72,0-1.43.11-2.15a37.44,37.44,0,0,1,5.16-16.34c.36-.64.77-1.24,1.16-1.86l1.3-1.84,1.25-1.77Z"/><path class="cls-3" d="M204.59,490.92l-.92.91a34.91,34.91,0,0,0-3.2,3.6,34.1,34.1,0,0,0-6.91,18.18c-.07.82-.09,1.65-.09,2.47l-.05,2.2c0,.71-.1,1.43-.14,2.15l-.28,2.13a38.45,38.45,0,0,1-2.34,8.35,42.67,42.67,0,0,1-10.13,14.73,30.57,30.57,0,0,0,13.68-13,34.05,34.05,0,0,0,3.45-9.17c.17-.8.29-1.62.43-2.43s.19-1.63.26-2.46l.09-2.42c0-.72,0-1.43.1-2.15a37.59,37.59,0,0,1,5.17-16.34c.36-.63.77-1.24,1.16-1.86l1.3-1.84c.42-.58.83-1.18,1.25-1.77Z"/><polygon class="cls-1" points="385.35 406.88 191.1 383.94 192.1 169.03 384.35 181.1 385.35 406.88"/><path class="cls-2" d="M385.35,407.63h-.09L191,384.69a.76.76,0,0,1-.66-.75l1-214.92a.75.75,0,0,1,.24-.54.72.72,0,0,1,.56-.2L384.4,180.35a.75.75,0,0,1,.7.75l1,225.78a.77.77,0,0,1-.25.56A.78.78,0,0,1,385.35,407.63Zm-193.5-24.36L384.6,406l-1-224.24-190.75-12Z"/><polygon class="cls-4" points="196.91 170.25 192.39 173.09 192.39 175.52 200.14 170.43 196.91 170.25"/><polygon class="cls-4" points="210.58 171.03 191.39 184.4 191.39 186.84 213.81 171.21 210.58 171.03"/><polygon class="cls-4" points="224.25 171.81 191.39 194.71 191.39 197.15 227.49 172 224.25 171.81"/><polygon class="cls-4" points="237.93 172.6 191.39 205.03 191.39 207.46 241.16 172.78 237.93 172.6"/><polygon class="cls-4" points="251.61 173.38 191.39 215.34 191.39 217.78 254.84 173.56 251.61 173.38"/><polygon class="cls-4" points="265.28 174.16 191.39 225.65 191.39 228.09 268.51 174.35 265.28 174.16"/><polygon class="cls-4" points="278.96 174.95 191.39 235.96 191.39 238.4 282.19 175.13 278.96 174.95"/><polygon class="cls-4" points="292.63 175.73 191.39 246.28 191.39 248.72 295.86 175.92 292.63 175.73"/><polygon class="cls-4" points="306.31 176.51 191.39 256.59 191.39 259.03 309.54 176.7 306.31 176.51"/><polygon class="cls-4" points="319.98 177.3 191.39 266.9 191.39 269.34 323.21 177.48 319.98 177.3"/><polygon class="cls-4" points="333.66 178.08 191.39 277.22 191.39 279.65 336.89 178.27 333.66 178.08"/><polygon class="cls-4" points="347.33 178.87 191.39 287.53 191.39 289.97 350.56 179.05 347.33 178.87"/><polygon class="cls-4" points="361.01 179.65 191.39 297.84 191.39 300.28 364.24 179.84 361.01 179.65"/><polygon class="cls-4" points="374.68 180.43 191.39 308.16 191.39 310.59 377.91 180.62 374.68 180.43"/><polygon class="cls-4" points="384.64 183.81 191.39 318.47 191.39 320.91 384.64 186.24 384.64 183.81"/><polygon class="cls-4" points="384.64 194.12 191.39 328.78 191.39 331.22 384.64 196.56 384.64 194.12"/><polygon class="cls-4" points="384.64 204.43 191.39 339.1 191.39 341.53 384.64 206.87 384.64 204.43"/><polygon class="cls-4" points="384.64 214.74 191.39 349.41 191.39 351.85 384.64 217.18 384.64 214.74"/><polygon class="cls-4" points="384.64 225.06 191.39 359.72 191.39 362.16 384.64 227.49 384.64 225.06"/><polygon class="cls-4" points="384.64 235.37 191.39 370.04 191.39 372.47 384.64 237.81 384.64 235.37"/><polygon class="cls-4" points="384.64 245.68 191.39 380.35 191.39 382.79 384.64 248.12 384.64 245.68"/><polygon class="cls-4" points="384.64 256 199.4 385.08 202.26 385.53 384.64 258.43 384.64 256"/><polygon class="cls-4" points="384.64 266.29 211.48 386.96 214.37 387.4 384.64 268.75 384.64 266.29"/><polygon class="cls-4" points="384.64 276.6 223.59 388.83 226.48 389.28 384.64 279.06 384.64 276.6"/><polygon class="cls-4" points="384.64 286.91 235.7 390.71 238.56 391.15 384.64 289.35 384.64 286.91"/><polygon class="cls-4" points="384.64 297.23 247.81 392.58 250.67 393.03 384.64 299.66 384.64 297.23"/><polygon class="cls-4" points="384.64 307.54 259.91 394.46 262.77 394.9 384.64 309.98 384.64 307.54"/><polygon class="cls-4" points="384.64 317.85 272.02 396.33 274.88 396.78 384.64 320.29 384.64 317.85"/><polygon class="cls-4" points="384.64 328.17 284.13 398.21 286.99 398.65 384.64 330.6 384.64 328.17"/><polygon class="cls-4" points="384.64 338.48 296.24 400.09 299.1 400.53 384.64 340.92 384.64 338.48"/><polygon class="cls-4" points="384.64 348.79 308.35 401.96 311.21 402.4 384.64 351.23 384.64 348.79"/><polygon class="cls-4" points="384.64 359.11 320.45 403.84 323.31 404.28 384.64 361.54 384.64 359.11"/><polygon class="cls-4" points="384.64 369.42 332.56 405.71 335.42 406.16 384.64 371.86 384.64 369.42"/><polygon class="cls-4" points="384.64 379.73 344.67 407.59 347.53 408.03 384.64 382.17 384.64 379.73"/><polygon class="cls-4" points="384.64 390.05 356.78 409.46 359.64 409.91 384.64 392.48 384.64 390.05"/><polygon class="cls-4" points="384.64 400.36 368.89 411.34 371.75 411.78 384.64 402.8 384.64 400.36"/><polygon class="cls-4" points="385.64 406.11 385.64 403.67 381.99 406.22 384.85 406.66 385.64 406.11"/><path class="cls-2" d="M385.35,407.63h-.09L191,384.69a.76.76,0,0,1-.66-.75l1-214.92a.75.75,0,0,1,.24-.54.72.72,0,0,1,.56-.2L384.4,180.35a.75.75,0,0,1,.7.75l1,225.78a.77.77,0,0,1-.25.56A.78.78,0,0,1,385.35,407.63Zm-193.5-24.36L384.6,406l-1-224.24-190.75-12Z"/><path class="cls-10" d="M320.6,121.53a6.51,6.51,0,0,1-6.32-5h0c-2.64-11-13.64-40.48-32.55-44.15C265.28,69.18,244,85.24,220.07,118.8a6.5,6.5,0,1,1-10.59-7.54C237,72.68,262.11,55.31,284.24,59.63c31,6.05,42.23,52,42.69,53.9a6.51,6.51,0,0,1-6.33,8Z"/><path class="cls-11" d="M212.52,106.65c1.31-1.07,6-4.86,7.41-5.91a4.89,4.89,0,0,1,1.94-.86,8.6,8.6,0,0,1,5.22.61c1.67.76,3.39,1.24,2.88,3.42a.22.22,0,0,1,0,.08c-.24.93-.42,1.66-.5,2-7.17,30.5,4.95,65.76,26.65,64.29,7.67-.52,16.35-5.46,24.73-13.09A103.86,103.86,0,0,0,290,147.6c10.39-12.22,19.48-27.86,24.39-43.08a8.87,8.87,0,0,1,3.89-4.26,18.31,18.31,0,0,1,1.7-1,15.59,15.59,0,0,1,5.72,2.23c15.65,10.55,56.08,70.75,59.46,79.86l-95.45-5-123.46-6.3S182.48,131.26,212.52,106.65Z"/><path class="cls-2" d="M385.19,182.15h0l-95.45-5-123.46-6.3a.75.75,0,0,1-.6-.35.73.73,0,0,1,0-.69c.16-.39,16.62-39.35,46.45-63.79h0c1.29-1,6-4.86,7.43-5.92a5.69,5.69,0,0,1,2.23-1,9.36,9.36,0,0,1,5.7.65l.48.22c1.52.66,3.42,1.49,2.82,4.06-.25,1-.43,1.74-.5,2.06-4.77,20.24-.87,43.6,9.26,55.54,4.7,5.54,10.46,8.24,16.6,7.83,7.13-.48,15.53-4.94,24.27-12.89a103.07,103.07,0,0,0,9.13-9.51C300.13,134.57,309,119,313.7,104.29a9.54,9.54,0,0,1,4.2-4.66c.51-.32,1.09-.65,1.77-1a.73.73,0,0,1,.48-.07,16.38,16.38,0,0,1,6,2.35c15.86,10.69,56.14,70.51,59.75,80.22a.78.78,0,0,1-.1.71A.76.76,0,0,1,385.19,182.15ZM167.4,169.46l122.38,6.24L384,180.59c-5.64-12.18-44-68.54-58.72-78.42a14.41,14.41,0,0,0-5.19-2.07,15.76,15.76,0,0,0-1.41.8,8.2,8.2,0,0,0-3.58,3.85c-4.79,14.85-13.73,30.64-24.53,43.34a105.94,105.94,0,0,1-9.26,9.64c-9,8.18-17.7,12.78-25.18,13.28-6.66.45-12.82-2.44-17.84-8.36-10.58-12.47-14.52-35.85-9.59-56.85.08-.33.26-1.06.5-2,.3-1.3-.26-1.67-1.95-2.41l-.5-.22a7.89,7.89,0,0,0-4.75-.56,4.3,4.3,0,0,0-1.65.73c-1.38,1.06-6.11,4.84-7.39,5.89C186.09,129.27,170.16,163.27,167.4,169.46Z"/><path class="cls-4" d="M227.23,101a8.89,8.89,0,0,0-1-.38l-25.67,17.91q-3,3.17-5.71,6.43l33.57-23.44C228,101.29,227.63,101.13,227.23,101Z"/><path class="cls-4" d="M229.08,108.88l-46.5,32.46q-1.5,2.25-2.87,4.43l48.87-34.1C228.73,110.73,228.89,109.8,229.08,108.88Z"/><path class="cls-4" d="M227.66,120.18,172.07,159c-.73,1.37-1.39,2.65-2,3.82l57.48-40.12C227.59,121.85,227.62,121,227.66,120.18Z"/><path class="cls-4" d="M227.76,130.42l-57.83,40.37,3.25.17L228,132.72C227.88,132,227.82,131.19,227.76,130.42Z"/><path class="cls-4" d="M229,139.85,183.7,171.49l3.25.17L229.49,142C229.32,141.27,229.17,140.57,229,139.85Z"/><path class="cls-4" d="M231.36,148.54,197.47,172.2l3.25.16,31.35-21.88C231.82,149.84,231.59,149.19,231.36,148.54Z"/><path class="cls-4" d="M234.83,156.43,211.24,172.9l3.25.16,21.35-14.9C235.5,157.6,235.16,157,234.83,156.43Z"/><path class="cls-4" d="M326.72,102.61l-15.21,10.61c-.49,1.17-1,2.34-1.51,3.5l18.35-12.82C327.79,103.43,327.24,103,326.72,102.61Z"/><path class="cls-4" d="M239.69,163.35,225,173.6l3.25.17,12.84-9C240.62,164.34,240.15,163.86,239.69,163.35Z"/><path class="cls-4" d="M333.18,108.41l-29.59,20.66c-.84,1.42-1.7,2.84-2.58,4.23l33.58-23.44Z"/><path class="cls-4" d="M238.78,174.3l3.25.17,6.81-4.76a17.86,17.86,0,0,1-2.17-.92Z"/><path class="cls-4" d="M339,114.67l-50.37,35.15a99.39,99.39,0,0,1-7.5,7.67l59.19-41.31Z"/><path class="cls-4" d="M252.54,175l3.26.16,10.37-7.24a31.42,31.42,0,0,1-6.88,2.37Z"/><path class="cls-4" d="M344.5,121.13l-78.19,54.58,3.26.16,76.21-53.19C345.35,122.16,344.93,121.64,344.5,121.13Z"/><path class="cls-4" d="M349.83,127.73l-69.75,48.68,3.26.17,67.73-47.28C350.66,128.77,350.25,128.25,349.83,127.73Z"/><path class="cls-4" d="M355,134.41l-61.12,42.67,3.3.13,59-41.2C355.84,135.47,355.43,134.94,355,134.41Z"/><path class="cls-4" d="M360.11,141.18l-52.25,36.47,3.3.13,50.14-35C360.91,142.25,360.51,141.71,360.11,141.18Z"/><path class="cls-4" d="M365.1,148l-43.28,30.21,3.3.13,41.15-28.72Z"/><path class="cls-4" d="M370,154.91l-34.21,23.88,3.29.14,32.07-22.38Z"/><path class="cls-4" d="M374.79,161.88l-25.06,17.48,3.3.14,22.87-16C375.54,163,375.16,162.44,374.79,161.88Z"/><path class="cls-4" d="M379.45,168.93l-15.76,11,3.3.13,13.54-9.45Z"/><path class="cls-4" d="M383.9,176.14l-6.25,4.37,3.29.13,3.95-2.75C384.6,177.35,384.27,176.77,383.9,176.14Z"/><path class="cls-2" d="M385.19,182.15h0l-95.45-5-123.46-6.3a.75.75,0,0,1-.6-.35.73.73,0,0,1,0-.69c.16-.39,16.62-39.35,46.45-63.79h0c1.29-1,6-4.86,7.43-5.92a5.69,5.69,0,0,1,2.23-1,9.36,9.36,0,0,1,5.7.65l.48.22c1.52.66,3.42,1.49,2.82,4.06-.25,1-.43,1.74-.5,2.06-4.77,20.24-.87,43.6,9.26,55.54,4.7,5.54,10.46,8.24,16.6,7.83,7.13-.48,15.53-4.94,24.27-12.89a103.07,103.07,0,0,0,9.13-9.51C300.13,134.57,309,119,313.7,104.29a9.54,9.54,0,0,1,4.2-4.66c.51-.32,1.09-.65,1.77-1a.73.73,0,0,1,.48-.07,16.38,16.38,0,0,1,6,2.35c15.86,10.69,56.14,70.51,59.75,80.22a.78.78,0,0,1-.1.71A.76.76,0,0,1,385.19,182.15ZM167.4,169.46l122.38,6.24L384,180.59c-5.64-12.18-44-68.54-58.72-78.42a14.41,14.41,0,0,0-5.19-2.07,15.76,15.76,0,0,0-1.41.8,8.2,8.2,0,0,0-3.58,3.85c-4.79,14.85-13.73,30.64-24.53,43.34a105.94,105.94,0,0,1-9.26,9.64c-9,8.18-17.7,12.78-25.18,13.28-6.66.45-12.82-2.44-17.84-8.36-10.58-12.47-14.52-35.85-9.59-56.85.08-.33.26-1.06.5-2,.3-1.3-.26-1.67-1.95-2.41l-.5-.22a7.89,7.89,0,0,0-4.75-.56,4.3,4.3,0,0,0-1.65.73c-1.38,1.06-6.11,4.84-7.39,5.89C186.09,129.27,170.16,163.27,167.4,169.46Z"/><path class="cls-10" d="M179.83,133a6.36,6.36,0,0,1-3-.72,6.5,6.5,0,0,1-2.84-8.74c19.47-38.14,37.13-55.42,54-52.85,24.71,3.78,33.18,49.51,34.07,54.71a6.5,6.5,0,0,1-12.82,2.19c-2.32-13.58-11.06-42.19-23.22-44-4.76-.72-18.2,2.31-40.46,45.91A6.51,6.51,0,0,1,179.83,133Z"/><polygon class="cls-8" points="108.74 217.24 306.99 236.32 385.6 180.18 192.17 169.18 108.74 217.24"/><path class="cls-2" d="M307,237.07h-.07L108.67,218a.75.75,0,0,1-.3-1.4l83.43-48.06a.72.72,0,0,1,.41-.1l193.43,11a.75.75,0,0,1,.68.54.76.76,0,0,1-.29.82l-78.6,56.14A.77.77,0,0,1,307,237.07ZM111.15,216.72l195.63,18.83,76.65-54.75L192.35,169.94Z"/><path class="cls-3" d="M293.84,161.07c4.41-4.92,9-9.68,13.52-14.44,1.13-1.19,2.37-2.34,3.55-3.51s2.49-2.23,3.74-3.35,2.6-2.11,3.94-3.12,2.71-2,4.13-2.89a90.89,90.89,0,0,1,17.95-9.16,88,88,0,0,1,29.7-5.72c1.69,0,3.37-.07,5,0h4.87a98,98,0,0,0,19.13-2.16,103.24,103.24,0,0,0,18.5-5.87c6.12-2.45,12.23-4.91,18.43-7.17-5.74,3.27-11.57,6.33-17.4,9.4-2.92,1.53-6,3-9.07,4.23a88.11,88.11,0,0,1-9.53,3.2,90,90,0,0,1-19.93,3.1c-1.69.07-3.37.08-5,.09s-3.27,0-4.86.09a93.13,93.13,0,0,0-9.57.83A91.37,91.37,0,0,0,342.28,129a99.9,99.9,0,0,0-17.51,8A101,101,0,0,0,309,148.4C304,152.67,299,157,293.84,161.07Z"/><path class="cls-3" d="M299.5,159.94c3.62-2.4,7.32-4.6,11-6.8a81.43,81.43,0,0,1,11.87-5.6,83,83,0,0,1,25.81-5.23c1.1-.05,2.21-.05,3.31-.06l3.17,0c2.1,0,4.19-.13,6.28-.29a112.22,112.22,0,0,0,12.48-1.66c2.07-.38,4.12-.9,6.24-1.35l6.32-1.35c4.23-.83,8.46-1.68,12.75-2.31-4,1.7-8,3.18-12.09,4.67s-8.05,2.92-12.31,4.14a79.9,79.9,0,0,1-12.94,2.58c-2.19.26-4.39.42-6.59.51-1.09,0-2.24,0-3.28.07s-2.09,0-3.13.09a109.49,109.49,0,0,0-24.8,3.92,121.41,121.41,0,0,0-12,4.1C307.6,156.92,303.6,158.53,299.5,159.94Z"/><path class="cls-8" d="M207.84,201.7c-.51,4.71,10.63,8.87,29.23,10.16,23.79,1.64,50.58-2.05,60-8.21,2.34-1.53,3.39-3.07,3.29-4.55V153.83l-92.53,2.6Z"/><path class="cls-2" d="M248.6,213c-3.89,0-7.78-.12-11.58-.38-14.8-1-25.59-4-28.85-7.86a4.14,4.14,0,0,1-1.08-3.09V156.43a.74.74,0,0,1,.73-.75l92.53-2.6a.7.7,0,0,1,.55.21.77.77,0,0,1,.22.54V199.1c.12,1.77-1.1,3.53-3.63,5.18C289.46,209.52,269,213,248.6,213Zm-40-55.83v44.62a2.58,2.58,0,0,0,.74,2c2.95,3.53,13.6,6.34,27.79,7.32,23.52,1.62,50.23-2,59.55-8.09,1.4-.91,3.06-2.33,2.95-3.87V154.6Zm-.75,44.54h0Z"/><path class="cls-1" d="M297.08,158.38c-9.43,6.15-36.22,9.85-60,8.2-18.6-1.28-29.74-5.44-29.23-10.15.15-1.37,1.28-2.79,3.51-4.2,9.81-6.2,37-9.76,60.53-8,17.51,1.3,28.19,5.18,28.49,9.62C300.47,155.31,299.42,156.85,297.08,158.38Z"/><path class="cls-2" d="M248.6,167.72c-3.89,0-7.78-.13-11.58-.39-14.8-1-25.59-4-28.85-7.85a4.16,4.16,0,0,1-1.08-3.13c.18-1.65,1.48-3.25,3.86-4.75,9.88-6.25,37.23-9.9,61-8.14,17.66,1.31,28.84,5.27,29.18,10.32.12,1.81-1.1,3.57-3.63,5.22h0C289.46,164.25,269,167.72,248.6,167.72Zm10.89-23.2c-19.91,0-39.75,3.3-47.74,8.35-1.95,1.23-3,2.49-3.16,3.64a2.58,2.58,0,0,0,.74,2c2.95,3.53,13.6,6.33,27.79,7.32,23.52,1.62,50.23-2,59.55-8.09h0c1.4-.92,3.06-2.34,2.95-3.87-.22-3.32-9-7.53-27.79-8.92C267.78,144.66,263.63,144.52,259.49,144.52Z"/><path class="cls-4" d="M222.39,148.05l-14,9.78a4.74,4.74,0,0,0,1.13,1.65l18.19-12.67Q224.88,147.38,222.39,148.05Z"/><path class="cls-4" d="M242,144.69l-26.15,18.22c.75.26,1.56.52,2.41.76L246,144.34C244.66,144.44,243.33,144.55,242,144.69Z"/><path class="cls-4" d="M258.05,143.82,227,165.49c.94.15,1.92.28,2.92.41l31.68-22.08Z"/><path class="cls-4" d="M272.23,144.26l-32.32,22.52,3.3.14,32.13-22.4C274.33,144.42,273.29,144.33,272.23,144.26Z"/><path class="cls-4" d="M284.78,145.82l-30.29,21.11c1.24,0,2.48-.08,3.71-.15l29.28-20.4C286.62,146.18,285.72,146,284.78,145.82Z"/><path class="cls-4" d="M295.29,148.81l-24.18,16.85c1.49-.18,2.95-.39,4.38-.61l21.82-15.21A19.92,19.92,0,0,0,295.29,148.81Z"/><path class="cls-4" d="M300.24,155.67l-7,4.85a25,25,0,0,0,4.12-2.1A8.5,8.5,0,0,0,300.24,155.67Z"/><path class="cls-2" d="M248.6,167.72c-3.89,0-7.78-.13-11.58-.39-14.8-1-25.59-4-28.85-7.85a4.16,4.16,0,0,1-1.08-3.13c.18-1.65,1.48-3.25,3.86-4.75,9.88-6.25,37.23-9.9,61-8.14,17.66,1.31,28.84,5.27,29.18,10.32.12,1.81-1.1,3.57-3.63,5.22h0C289.46,164.25,269,167.72,248.6,167.72Zm10.89-23.2c-19.91,0-39.75,3.3-47.74,8.35-1.95,1.23-3,2.49-3.16,3.64a2.58,2.58,0,0,0,.74,2c2.95,3.53,13.6,6.33,27.79,7.32,23.52,1.62,50.23-2,59.55-8.09h0c1.4-.92,3.06-2.34,2.95-3.87-.22-3.32-9-7.53-27.79-8.92C267.78,144.66,263.63,144.52,259.49,144.52Z"/><path class="cls-8" d="M263.72,126c-1-1.27-4.52-5.62-5.53-6.79a2.82,2.82,0,0,0-1.52-.92,6.35,6.35,0,0,0-4.63.93c-1.59,1-3.15,1.59-3.21,4.1v.09c0,1.09,0,1.94,0,2.32-.75,40.32-23.62,97.28-44.08,91.18-17.57-5.23-24.39-54.71-19-90.27a6.27,6.27,0,0,0-9-6.37c-41.88,22.95-68.73,97.33-68.73,97.33L307.7,236S290.23,159.65,263.72,126Z"/><path class="cls-2" d="M307.7,236.79h-.07L107.86,218.29a.75.75,0,0,1-.57-.34.77.77,0,0,1-.07-.66c.27-.74,27.43-74.91,69.08-97.73a6.78,6.78,0,0,1,7.18.49,6.88,6.88,0,0,1,3,6.66c-5.45,36.15,2,84.52,18.5,89.43,3.5,1,7.23.14,11.1-2.69,15.83-11.57,31.4-54.24,32-87.78,0-.38,0-1.23,0-2.31v-.14c.06-2.66,1.69-3.6,3.12-4.43l.46-.26a7.1,7.1,0,0,1,5.2-1,3.59,3.59,0,0,1,1.9,1.16c1,1.21,4.59,5.59,5.55,6.82h0c26.31,33.44,43.95,109.61,44.12,110.38a.75.75,0,0,1-.16.66A.78.78,0,0,1,307.7,236.79ZM109,216.89l197.76,18.3c-2.18-9.14-19.14-77.69-43.6-108.78h0c-1-1.21-4.47-5.56-5.51-6.77a2.26,2.26,0,0,0-1.14-.68,5.68,5.68,0,0,0-4.05.86l-.48.27c-1.35.79-2.33,1.35-2.37,3.2a.53.53,0,0,1,0,.12c0,1,0,1.9,0,2.29-.63,33.93-16.49,77.16-32.64,89-4.26,3.12-8.44,4.1-12.41,2.92-17.65-5.26-25.13-54.14-19.55-91.1a5.39,5.39,0,0,0-2.34-5.2,5.3,5.3,0,0,0-5.6-.4C138.36,142.06,112.22,208.32,109,216.89Z"/><path class="cls-11" d="M259.7,116.68c1,0,6.83-.14,18,14.07,4.23,5.4,8.22,11.58,12.22,17.47,10.68,15.76,21.37,29.51,36.7,21.12,20.4-11.17,6.17-44-8.42-68.45.53-.34,1.11-.66,1.7-1a15.43,15.43,0,0,1,5.72,2.24c15.66,10.55,56.67,69,60,78.14a1,1,0,0,1-.46,1.17L307.7,235.59a338.84,338.84,0,0,0-18.08-58.52c-3-7.09-6-13.51-8.91-19.27-13.21-25.92-25-39.69-25-39.69A17,17,0,0,1,259.7,116.68Z"/><path class="cls-2" d="M307.7,236.34a.65.65,0,0,1-.27-.05.72.72,0,0,1-.46-.54,340,340,0,0,0-18.05-58.39c-2.77-6.63-5.76-13.1-8.88-19.22-13-25.52-24.78-39.41-24.9-39.55A.73.73,0,0,1,255,118a.72.72,0,0,1,.41-.52c.52-.25,3.17-1.5,4.31-1.5v.75l0-.75h0c4.68,0,11.26,5.1,18.53,14.36,3.4,4.34,6.68,9.23,9.86,14,.8,1.19,1.59,2.38,2.39,3.55,10.94,16.14,21.18,28.85,35.72,20.88a17.68,17.68,0,0,0,8.91-11.26c4.12-15.13-7.31-38.89-17.62-56.15a.76.76,0,0,1,.24-1c.51-.32,1.09-.64,1.78-1a.78.78,0,0,1,.48-.06,16.06,16.06,0,0,1,6,2.35c15.94,10.74,57,69.49,60.34,78.5a1.7,1.7,0,0,1-.81,2.09l-77.42,54.07A.75.75,0,0,1,307.7,236.34Zm-50.79-118c2.62,3.24,13.09,16.74,24.47,39.07,3.14,6.16,6.14,12.67,8.93,19.34a341.6,341.6,0,0,1,17.89,57.54l76.56-53.47c.24-.15.21-.24.19-.29-3.32-8.93-44-67.14-59.77-77.78a14.51,14.51,0,0,0-5.19-2.07l-.79.42c10.36,17.46,21.61,41.22,17.4,56.68A19.2,19.2,0,0,1,327,170c-15.63,8.55-26.74-5.22-37.68-21.36-.8-1.17-1.6-2.36-2.4-3.55-3.16-4.71-6.42-9.57-9.79-13.88-9.76-12.44-15.38-13.78-17.35-13.78h0A11,11,0,0,0,256.91,118.38Z"/><polygon class="cls-1" points="385.7 405.95 307.7 484.74 307.7 235.59 385.7 180.56 385.7 405.95"/><path class="cls-2" d="M307.7,485.49a.92.92,0,0,1-.28-.05.76.76,0,0,1-.47-.7V235.59a.75.75,0,0,1,.32-.61l78-55a.75.75,0,0,1,1.18.62V406a.78.78,0,0,1-.21.53l-78,78.79A.75.75,0,0,1,307.7,485.49ZM308.45,236V482.92L385,405.64V182ZM385.7,406h0Z"/><polygon class="cls-8" points="307.7 484.74 108.45 455.81 108.45 217.55 307.7 236.03 307.7 484.74"/><path class="cls-2" d="M307.7,485.49h-.11L108.34,456.55a.76.76,0,0,1-.64-.75V217.55a.75.75,0,0,1,.82-.75l199.25,18.49a.74.74,0,0,1,.68.75v248.7a.73.73,0,0,1-.26.57A.72.72,0,0,1,307.7,485.49ZM109.2,455.16,307,483.88V236.72L109.2,218.37Z"/><polygon class="cls-12" points="269.44 357.06 269.44 341.68 274.45 341.68 274.45 346.69 285.9 346.69 285.9 352.05 274.45 352.05 274.45 357.06 269.44 357.06"/><polygon class="cls-12" points="269.62 295.35 269.62 295.35 269.62 300 269.62 300 269.62 305.37 286.07 305.37 286.07 300 274.99 300 274.99 295.35 286.07 295.35 286.07 289.99 274.99 289.99 269.62 289.99 269.62 289.99 269.62 295.35"/><polygon class="cls-12" points="276.06 256 269.62 251.35 269.62 257.43 276.06 262.08 276.06 262.8 269.62 262.8 269.62 268.16 286.07 268.16 286.07 262.8 279.99 262.8 279.99 261.37 286.07 258.51 286.07 252.07 277.85 257.07 276.06 256"/><path class="cls-12" d="M269.62,276.39v5l16.45,7.16v-5.73l-2.86-.71V276l2.86-1.07v-5.72Zm9.66,4.3L275,278.9l4.3-1.43Z"/><path class="cls-12" d="M269.62,330.41v5l16.45,7.15v-5.72l-2.86-.72v-6.08l2.86-1.07v-5.72Zm9.66,4.29-4.3-1.79,4.3-1.43Z"/><path class="cls-12" d="M269.62,313.05v8.77h16.45v-5.36h-3.94v-3.41a6.25,6.25,0,0,0-6.26-6.25h0A6.25,6.25,0,0,0,269.62,313.05Zm8.23,1.05v2.36H274V314.1a1.94,1.94,0,0,1,3.88,0Z"/></svg>