<svg id="Слой_1" data-name="Слой 1" xmlns="http://www.w3.org/2000/svg" xmlns:xlink="http://www.w3.org/1999/xlink" viewBox="0 0 499.89 669.62"><defs><style>.cls-1,.cls-2{fill:none;}.cls-2{stroke:#444;stroke-linecap:round;stroke-miterlimit:10;stroke-width:1.5px;}.cls-3{fill:#0084b2;}.cls-4{fill:#ccc;}.cls-5{fill:#444;}.cls-6{fill:#f9f9f9;}.cls-7{opacity:0.3;}.cls-8{fill:url(#Новый_узор_1);}.cls-9{fill:#bfbfbf;}.cls-10{fill:#99c6d6;}.cls-11{fill:#00a5eb;}.cls-12{fill:#2cc8ff;}.cls-13{fill:#e8e8e8;}</style><pattern id="Новый_узор_1" data-name="Новый узор 1" width="15" height="14.6" patternTransform="translate(226.79 307.94) scale(1 1.43)" patternUnits="userSpaceOnUse" viewBox="0 0 15 14.6"><rect class="cls-1" width="15" height="14.6"/><line class="cls-2" x1="15.13" y1="18.2" x2="29.87" y2="11"/><line class="cls-2" x1="0.13" y1="18.2" x2="14.87" y2="11"/><line class="cls-2" x1="-14.87" y1="18.2" x2="-0.13" y2="11"/><line class="cls-2" x1="15.13" y1="10.9" x2="29.87" y2="3.7"/><line class="cls-2" x1="0.13" y1="10.9" x2="14.87" y2="3.7"/><line class="cls-2" x1="-14.87" y1="10.9" x2="-0.13" y2="3.7"/><line class="cls-2" x1="15.13" y1="3.6" x2="29.87" y2="-3.6"/><line class="cls-2" x1="0.13" y1="3.6" x2="14.87" y2="-3.6"/><line class="cls-2" x1="-14.87" y1="3.6" x2="-0.13" y2="-3.6"/></pattern></defs><title>к</title><path class="cls-3" d="M287.07,561.71c2.54-4.35,5.26-8.56,8-12.78,1.36-2.09,2.79-4.21,4.32-6.26a69.13,69.13,0,0,1,5-5.85,59.73,59.73,0,0,1,12-9.8,57.91,57.91,0,0,1,6.94-3.63c1.23-.47,2.44-1,3.69-1.39s2.49-.83,3.78-1.11l1.92-.45c.64-.13,1.3-.23,1.95-.34a39.21,39.21,0,0,1,3.92-.48c1.31-.14,2.63-.1,3.94-.15l3.74,0a48.57,48.57,0,0,0,14.12-2,59,59,0,0,0,13.29-5.94c4.37-2.47,8.72-5,13.2-7.25-3.87,3.22-7.86,6.25-11.84,9.3a61.63,61.63,0,0,1-6.38,4.27,49.39,49.39,0,0,1-7,3.32,46.19,46.19,0,0,1-15.33,3.07c-1.3,0-2.53,0-3.77.07s-2.37.06-3.55.22-2.35.22-3.51.46c-.59.11-1.17.2-1.75.32l-1.73.42c-9.25,2.24-17.66,7.39-24.89,13.87A97.28,97.28,0,0,0,297,550.38C293.74,554.19,290.5,558,287.07,561.71Z"/><path class="cls-3" d="M291,560.58c2.23-2.25,4.59-4.32,6.95-6.39a47.13,47.13,0,0,1,7.88-5.55A44.41,44.41,0,0,1,324.51,543c1.61-.13,3.38-.09,4.77-.12s3-.12,4.43-.27a54.32,54.32,0,0,0,8.78-1.66c1.45-.39,2.88-.87,4.4-1.34s3-.92,4.5-1.36c3-.84,6-1.7,9.14-2.35-2.69,1.68-5.46,3.15-8.23,4.63-1.39.72-2.79,1.44-4.19,2.13s-2.83,1.4-4.35,2a43.48,43.48,0,0,1-9.42,2.64,44.69,44.69,0,0,1-4.9.5c-1.72.06-3.08.05-4.58.18a54.78,54.78,0,0,0-17.27,4.18,73,73,0,0,0-8.19,4C296.65,557.7,293.91,559.23,291,560.58Z"/><polygon class="cls-4" points="193.1 236.98 108.92 338.08 107.92 217.89 192.1 168.94 193.1 236.98"/><path class="cls-5" d="M108.92,338.83a.77.77,0,0,1-.25,0,.78.78,0,0,1-.5-.7l-1-120.19a.78.78,0,0,1,.38-.66l84.18-49a.74.74,0,0,1,1.12.63l1,68.05a.67.67,0,0,1-.17.49L109.5,338.56A.76.76,0,0,1,108.92,338.83Zm-.24-120.51,1,117.71,82.69-99.31-1-66.49Z"/><path class="cls-6" d="M201.32,561.93c-.51,4.71,10.64,8.87,29.24,10.15,23.78,1.65,50.58-2.05,60-8.2,2.34-1.53,3.4-3.07,3.3-4.55V465l-92.54,2.6Z"/><path class="cls-5" d="M242.08,573.22c-3.89,0-7.77-.13-11.58-.39-14.8-1-25.58-4-28.84-7.85a4.15,4.15,0,0,1-1.09-3.09V467.6a.76.76,0,0,1,.73-.75l92.53-2.6a.7.7,0,0,1,.55.21.8.8,0,0,1,.23.54v94.33c.12,1.76-1.11,3.52-3.64,5.18C283,569.74,262.51,573.22,242.08,573.22Zm-40-104.89V562a2.67,2.67,0,0,0,.74,2c3,3.53,13.61,6.33,27.8,7.31,23.51,1.63,50.22-2,59.54-8.08,1.41-.92,3.06-2.34,3-3.87V465.77Zm-.75,93.6h0Z"/><path class="cls-6" d="M182.68,473.22c-.73,5.93,15,11.16,41.38,12.78,33.68,2.08,71.62-2.58,85-10.33,3.32-1.92,4.81-3.86,4.67-5.73V410.23l-131,3.28Z"/><path class="cls-5" d="M240.4,487.24c-5.5,0-11-.16-16.38-.49-21.43-1.32-36.73-5.1-40.91-10.13a4.52,4.52,0,0,1-1.19-3.45V413.51a.75.75,0,0,1,.74-.75l131-3.28a.8.8,0,0,1,.54.22.72.72,0,0,1,.23.53v59.71c.17,2.18-1.53,4.34-5,6.38C298.09,482.89,269.26,487.24,240.4,487.24Zm-57-73v59.07a3,3,0,0,0,.84,2.35c3.87,4.65,19.14,8.32,39.85,9.6,33.36,2.05,71.29-2.54,84.54-10.24,2.93-1.7,4.41-3.44,4.29-5V411Zm-.75,59h0Z"/><polygon class="cls-4" points="209.83 484.65 216.5 465.52 222.43 485.9 209.83 484.65"/><path class="cls-5" d="M222.43,486.65h-.08l-12.59-1.24a.76.76,0,0,1-.56-.34.75.75,0,0,1-.07-.65l6.66-19.13a.73.73,0,0,1,.73-.51.76.76,0,0,1,.7.54l5.93,20.38a.76.76,0,0,1-.15.69A.74.74,0,0,1,222.43,486.65ZM210.85,484l10.55,1-5-17.05Z"/><polygon class="cls-4" points="280.47 483.66 282.84 465.52 287.96 482.37 280.47 483.66"/><path class="cls-5" d="M280.47,484.41a.73.73,0,0,1-.52-.21.76.76,0,0,1-.23-.64l2.38-18.13a.74.74,0,0,1,.68-.65.75.75,0,0,1,.78.53l5.12,16.84a.76.76,0,0,1-.59,1l-7.49,1.29Zm2.66-15.34-1.79,13.68,5.65-1Z"/><g class="cls-7"><polygon class="cls-8" points="209.83 484.65 216.5 465.52 222.43 485.9 209.83 484.65"/><path class="cls-5" d="M222.43,486.65h-.08l-12.59-1.24a.76.76,0,0,1-.56-.34.75.75,0,0,1-.07-.65l6.66-19.13a.73.73,0,0,1,.73-.51.76.76,0,0,1,.7.54l5.93,20.38a.76.76,0,0,1-.15.69A.74.74,0,0,1,222.43,486.65ZM210.85,484l10.55,1-5-17.05Z"/></g><g class="cls-7"><polygon class="cls-8" points="280.47 483.66 282.84 465.52 287.96 482.37 280.47 483.66"/><path class="cls-5" d="M280.47,484.41a.73.73,0,0,1-.52-.21.76.76,0,0,1-.23-.64l2.38-18.13a.74.74,0,0,1,.68-.65.75.75,0,0,1,.78.53l5.12,16.84a.76.76,0,0,1-.59,1l-7.49,1.29Zm2.66-15.34-1.79,13.68,5.65-1Z"/></g><path class="cls-3" d="M216.26,470.46c2.07,4.38,3.93,8.83,5.81,13.28.92,2.21,1.8,4.49,2.62,6.82a69.59,69.59,0,0,1,2,7.13A57.36,57.36,0,0,1,228,512.56a47.34,47.34,0,0,1-2.95,14.82c-.49,1.18-.93,2.37-1.52,3.5l-.85,1.72-1,1.65c-.62,1.12-1.4,2.14-2.11,3.19s-1.45,1.95-2.17,2.91a43.7,43.7,0,0,0-6.34,12.08,54.48,54.48,0,0,0-2.65,13.73c-.45,4.81-.88,9.61-1.54,14.41-.45-4.82-.67-9.64-.91-14.46a57.26,57.26,0,0,1,.1-7.4,45.36,45.36,0,0,1,1.26-7.38,41.56,41.56,0,0,1,6.24-13.76c.68-1,1.42-2,2.06-3s1.28-1.86,1.8-2.87l.84-1.48.74-1.53c.53-1,.9-2.08,1.33-3.13,3.24-8.51,3.7-18,2.46-27.23a100.25,100.25,0,0,0-3.09-13.86C218.53,479.86,217.29,475.19,216.26,470.46Z"/><path class="cls-3" d="M216.48,469.61c.48,3.27.72,6.51.94,9.78a44,44,0,0,1-.6,10,40.7,40.7,0,0,1-3,9.75,39.42,39.42,0,0,1-5.39,8.75l-1.94.92,1.94-.92a48.53,48.53,0,0,0-7.66,13.33c-.91,2.48-1.88,5.09-2.91,7.6s-2.09,5-3.3,7.53c.26-2.75.68-5.45,1.12-8.15s.93-5.33,1.53-8.06a39.1,39.1,0,0,1,7.35-15.36l1.93-.92-1.93.92a46.53,46.53,0,0,0,4.88-7.72,51.18,51.18,0,0,0,3.37-8.6,68.2,68.2,0,0,0,2-9.21C215.3,476.07,215.76,472.83,216.48,469.61Z"/><path class="cls-6" d="M182.09,463.62c-.73,5.93,15,11.16,41.38,12.78,33.68,2.08,71.62-2.58,85-10.33,3.32-1.92,4.81-3.86,4.67-5.73V429l-131,3.28Z"/><path class="cls-5" d="M239.81,477.64c-5.5,0-11-.16-16.38-.49-21.43-1.32-36.73-5.1-40.91-10.13a4.48,4.48,0,0,1-1.18-3.45V432.26a.74.74,0,0,1,.73-.75l131-3.28a.77.77,0,0,1,.54.22.72.72,0,0,1,.23.53v31.36c.17,2.18-1.53,4.34-5,6.38C297.5,473.29,268.67,477.64,239.81,477.64Zm-57-44.65v30.63s0,.06,0,.09a3,3,0,0,0,.84,2.35c3.87,4.65,19.14,8.32,39.85,9.6,33.37,2,71.29-2.54,84.54-10.24,2.93-1.7,4.41-3.44,4.29-5V429.75Zm-.75,30.63Z"/><polygon class="cls-6" points="108.39 443.98 307.63 462.05 385.63 405.87 192.81 394.91 108.39 443.98"/><path class="cls-5" d="M307.63,462.8h-.06L108.32,444.72a.75.75,0,0,1-.67-.58.75.75,0,0,1,.36-.81l84.43-49.06a.73.73,0,0,1,.42-.11l192.82,11a.75.75,0,0,1,.67.54.74.74,0,0,1-.28.82l-78,56.18A.74.74,0,0,1,307.63,462.8ZM110.8,443.44l196.62,17.84,76.06-54.78L193,395.68Z"/><path class="cls-4" d="M300.46,430.27c-11.72,7.75-45,12.4-74.63,10.33-23.13-1.62-37-6.86-36.35-12.79.18-1.72,1.59-3.51,4.36-5.28,12.2-7.81,46-12.3,75.29-10.1,21.77,1.63,35.05,6.52,35.43,12.11C304.68,426.4,303.37,428.34,300.46,430.27Z"/><path class="cls-5" d="M240.17,441.84c-4.83,0-9.66-.16-14.39-.49-18.31-1.28-31.66-4.94-35.72-9.79a5.05,5.05,0,0,1-1.33-3.83c.22-2,1.8-4,4.7-5.83,12.27-7.85,46.25-12.43,75.75-10.22,21.87,1.64,35.71,6.55,36.12,12.81.15,2.21-1.34,4.36-4.43,6.4h0C290.92,437.47,265.55,441.84,240.17,441.84Zm13.55-29.22c-24.8,0-49.52,4.17-59.48,10.54-2.47,1.58-3.86,3.22-4,4.73a3.65,3.65,0,0,0,1,2.71c3.74,4.47,17,8,34.67,9.25,29.28,2,62.55-2.53,74.16-10.21h0c1.8-1.18,3.9-3,3.77-5.05-.3-4.41-11.15-9.64-34.74-11.41C264,412.8,258.88,412.62,253.72,412.62Z"/><path class="cls-9" d="M207.83,416.74l-18,12.58a5.66,5.66,0,0,0,1.09,1.68l22.27-15.52C211.29,415.87,209.52,416.3,207.83,416.74Z"/><path class="cls-9" d="M227.85,413.09l-31.08,21.65c.71.3,1.47.59,2.28.88l33-23C230.62,412.77,229.22,412.92,227.85,413.09Z"/><path class="cls-9" d="M244.54,411.77l-37.4,26.06c.89.19,1.81.37,2.75.54l38.35-26.72C247,411.68,245.77,411.72,244.54,411.77Z"/><path class="cls-9" d="M259.5,411.65l-40.26,28.06,3.06.31,40.54-28.25C261.73,411.72,260.62,411.68,259.5,411.65Z"/><path class="cls-9" d="M273.12,412.47l-40.44,28.19c1.12,0,2.24.07,3.37.09l40.1-27.95Z"/><path class="cls-9" d="M285.41,414.22l-38,26.46c1.24,0,2.47-.08,3.7-.14l37-25.75Z"/><path class="cls-9" d="M296.06,417.12l-32.2,22.44c1.43-.16,2.83-.32,4.21-.5l30.17-21C297.56,417.72,296.83,417.42,296.06,417.12Z"/><path class="cls-9" d="M304.56,424a4.31,4.31,0,0,0-.79-1.89L283.2,436.39c2-.46,3.85-.95,5.61-1.47Z"/><polygon class="cls-3" points="282.24 476.04 285.13 475.63 286.06 478.66 281.73 479.59 282.24 476.04"/><path class="cls-5" d="M240.17,441.84c-4.83,0-9.66-.16-14.39-.49-18.31-1.28-31.66-4.94-35.72-9.79a5.05,5.05,0,0,1-1.33-3.83c.22-2,1.8-4,4.7-5.83,12.27-7.85,46.25-12.43,75.75-10.22,21.87,1.64,35.71,6.55,36.12,12.81.15,2.21-1.34,4.36-4.43,6.4h0C290.92,437.47,265.55,441.84,240.17,441.84Zm13.55-29.22c-24.8,0-49.52,4.17-59.48,10.54-2.47,1.58-3.86,3.22-4,4.73a3.65,3.65,0,0,0,1,2.71c3.74,4.47,17,8,34.67,9.25,29.28,2,62.55-2.53,74.16-10.21h0c1.8-1.18,3.9-3,3.77-5.05-.3-4.41-11.15-9.64-34.74-11.41C264,412.8,258.88,412.62,253.72,412.62Z"/><polygon class="cls-4" points="385.23 406.34 191.1 383.94 192.1 169.03 384.35 181.1 385.23 406.34"/><path class="cls-5" d="M385.23,407.09h-.08L191,384.69a.76.76,0,0,1-.66-.75l1-214.92a.75.75,0,0,1,.24-.54.72.72,0,0,1,.56-.2L384.4,180.35a.75.75,0,0,1,.7.75L386,406.34a.75.75,0,0,1-.25.56A.76.76,0,0,1,385.23,407.09ZM191.85,383.27,384.48,405.5l-.88-223.69-190.75-12Z"/><polygon class="cls-9" points="196.91 170.25 192.39 173.09 192.39 175.52 200.14 170.43 196.91 170.25"/><polygon class="cls-9" points="210.58 171.03 191.39 184.4 191.39 186.84 213.81 171.21 210.58 171.03"/><polygon class="cls-9" points="224.25 171.81 191.39 194.71 191.39 197.15 227.49 172 224.25 171.81"/><polygon class="cls-9" points="237.93 172.6 191.39 205.03 191.39 207.46 241.16 172.78 237.93 172.6"/><polygon class="cls-9" points="251.61 173.38 191.39 215.34 191.39 217.78 254.84 173.56 251.61 173.38"/><polygon class="cls-9" points="265.28 174.16 191.39 225.65 191.39 228.09 268.51 174.35 265.28 174.16"/><polygon class="cls-9" points="278.96 174.95 191.39 235.96 191.39 238.4 282.19 175.13 278.96 174.95"/><polygon class="cls-9" points="292.63 175.73 191.39 246.28 191.39 248.72 295.86 175.92 292.63 175.73"/><polygon class="cls-9" points="306.31 176.51 191.39 256.59 191.39 259.03 309.54 176.7 306.31 176.51"/><polygon class="cls-9" points="319.98 177.3 191.39 266.9 191.39 269.34 323.21 177.48 319.98 177.3"/><polygon class="cls-9" points="333.66 178.08 191.39 277.22 191.39 279.65 336.89 178.27 333.66 178.08"/><polygon class="cls-9" points="347.33 178.87 191.39 287.53 191.39 289.97 350.56 179.05 347.33 178.87"/><polygon class="cls-9" points="361.01 179.65 191.39 297.84 191.39 300.28 364.24 179.84 361.01 179.65"/><polygon class="cls-9" points="374.68 180.43 191.39 308.16 191.39 310.59 377.91 180.62 374.68 180.43"/><polygon class="cls-9" points="384.64 183.81 191.39 318.47 191.39 320.91 384.64 186.24 384.64 183.81"/><polygon class="cls-9" points="384.64 194.12 191.39 328.78 191.39 331.22 384.64 196.56 384.64 194.12"/><polygon class="cls-9" points="384.64 204.43 191.39 339.1 191.39 341.53 384.64 206.87 384.64 204.43"/><polygon class="cls-9" points="384.64 214.74 191.39 349.41 191.39 351.85 384.64 217.18 384.64 214.74"/><polygon class="cls-9" points="384.64 225.06 191.39 359.72 191.39 362.16 384.64 227.49 384.64 225.06"/><polygon class="cls-9" points="384.64 235.37 191.39 370.04 191.39 372.47 384.64 237.81 384.64 235.37"/><polygon class="cls-9" points="384.64 245.68 191.39 380.35 191.39 382.79 384.64 248.12 384.64 245.68"/><polygon class="cls-9" points="384.64 256 199.4 385.08 202.26 385.53 384.64 258.43 384.64 256"/><polygon class="cls-9" points="384.64 266.29 211.48 386.96 214.37 387.4 384.64 268.75 384.64 266.29"/><polygon class="cls-9" points="384.64 276.6 223.59 388.83 226.48 389.28 384.64 279.06 384.64 276.6"/><polygon class="cls-9" points="384.64 286.91 235.7 390.71 238.56 391.15 384.64 289.35 384.64 286.91"/><polygon class="cls-9" points="384.64 297.23 247.81 392.58 250.67 393.03 384.64 299.66 384.64 297.23"/><polygon class="cls-9" points="384.64 307.54 259.91 394.46 262.77 394.9 384.64 309.98 384.64 307.54"/><polygon class="cls-9" points="384.64 317.85 272.02 396.33 274.88 396.78 384.64 320.29 384.64 317.85"/><polygon class="cls-9" points="384.64 328.17 284.13 398.21 286.99 398.65 384.64 330.6 384.64 328.17"/><polygon class="cls-9" points="384.64 338.48 296.24 400.09 299.1 400.53 384.64 340.92 384.64 338.48"/><polygon class="cls-9" points="384.64 348.79 308.35 401.96 311.21 402.4 384.64 351.23 384.64 348.79"/><polygon class="cls-9" points="384.64 359.11 320.45 403.84 323.31 404.28 384.64 361.54 384.64 359.11"/><polygon class="cls-9" points="384.64 369.42 332.56 405.71 335.42 406.16 384.64 371.86 384.64 369.42"/><polygon class="cls-9" points="384.64 379.73 344.67 407.59 347.53 408.03 384.64 382.17 384.64 379.73"/><polygon class="cls-9" points="384.64 390.05 356.78 409.46 359.64 409.91 384.64 392.48 384.64 390.05"/><polygon class="cls-9" points="384.64 400.36 368.89 411.34 371.75 411.78 384.64 402.8 384.64 400.36"/><polygon class="cls-9" points="385.64 406.11 385.64 403.67 381.99 406.22 384.85 406.66 385.64 406.11"/><path class="cls-5" d="M385.35,406.91h-.09L191,384.69a.76.76,0,0,1-.66-.75l1-214.92a.75.75,0,0,1,.24-.54.72.72,0,0,1,.56-.2L384.4,180.35a.75.75,0,0,1,.7.75l1,225.05a.75.75,0,0,1-.75.76Zm-193.5-23.64,192.74,22.05-1-223.51-190.75-12Z"/><polygon class="cls-4" points="385.7 405.95 307.7 484.74 307.7 235.59 385.7 180.56 385.7 405.95"/><path class="cls-5" d="M307.7,485.49a.92.92,0,0,1-.28-.05.76.76,0,0,1-.47-.7V235.59a.75.75,0,0,1,.32-.61l78-55a.75.75,0,0,1,1.18.62V406a.74.74,0,0,1-.21.53l-78,78.79A.75.75,0,0,1,307.7,485.49ZM308.45,236V482.92L385,405.64V182ZM385.7,406h0Z"/><polygon class="cls-6" points="307.7 484.74 108.45 455.81 108.45 217.55 307.7 236.03 307.7 484.74"/><path class="cls-5" d="M307.7,485.49h-.11L108.34,456.55a.75.75,0,0,1-.64-.75V217.55A.77.77,0,0,1,108,217a.74.74,0,0,1,.57-.19l199.25,18.49a.74.74,0,0,1,.68.75v248.7a.73.73,0,0,1-.26.57A.72.72,0,0,1,307.7,485.49ZM109.2,455.16,307,483.88V236.72L109.2,218.37Z"/><polygon class="cls-10" points="269.44 357.06 269.44 341.68 274.45 341.68 274.45 346.69 285.9 346.69 285.9 352.05 274.45 352.05 274.45 357.06 269.44 357.06"/><polygon class="cls-10" points="269.62 295.35 269.62 295.35 269.62 300 269.62 300 269.62 305.37 286.07 305.37 286.07 300 274.99 300 274.99 295.35 286.07 295.35 286.07 289.99 274.99 289.99 269.62 289.99 269.62 289.99 269.62 295.35"/><polygon class="cls-10" points="276.06 256 269.62 251.35 269.62 257.43 276.06 262.08 276.06 262.8 269.62 262.8 269.62 268.16 286.07 268.16 286.07 262.8 279.99 262.8 279.99 261.37 286.07 258.51 286.07 252.07 277.85 257.07 276.06 256"/><path class="cls-10" d="M269.62,276.39v5l16.45,7.16v-5.73l-2.86-.71V276l2.86-1.07v-5.72Zm9.66,4.3L275,278.9l4.3-1.43Z"/><path class="cls-10" d="M269.62,330.41v5l16.45,7.15v-5.72l-2.86-.72v-6.08l2.86-1.07v-5.72Zm9.66,4.29-4.3-1.79,4.3-1.43Z"/><path class="cls-10" d="M269.62,313.05v8.77h16.45v-5.36h-3.94v-3.41a6.25,6.25,0,0,0-6.26-6.25h0A6.25,6.25,0,0,0,269.62,313.05Zm8.23,1.05v2.36H274V314.1a1.94,1.94,0,0,1,3.88,0Z"/><path class="cls-4" d="M189.17,133.21l21.1-5s11,52,53.25,28,10,46,10,46-92.43,7-95.44,7-44.21-7-38.18-14,29.14-39,32.15-42S189.17,133.21,189.17,133.21Z"/><path class="cls-5" d="M178.12,210c-2.5,0-36.23-5.54-39.27-12.18a2.72,2.72,0,0,1,.52-3.06c3-3.51,10.31-13.27,17.36-22.7s13.3-17.81,14.83-19.34c3-2.94,16.89-19.78,17-20a.83.83,0,0,1,.41-.25l21.1-5a.77.77,0,0,1,.57.1.74.74,0,0,1,.33.48c.05.24,5.34,24.23,21.71,31.58,8.63,3.87,18.87,2.5,30.44-4.08,9.7-5.52,16.2-6.58,19.87-3.22,9.93,9.11-8,48.51-8.77,50.19a.78.78,0,0,1-.63.43C269.85,203.25,181.13,210,178.12,210Zm11.47-76.08c-1.65,2-14.1,17-17,19.86-1.45,1.45-7.88,10.06-14.69,19.18-7.06,9.45-14.36,19.23-17.42,22.78a1.24,1.24,0,0,0-.3,1.46c2.55,5.56,34.28,11.3,37.91,11.3,2.84,0,88-6.44,94.94-7,1.89-4.22,17.58-40.13,8.94-48.05-3.08-2.82-9.17-1.67-18.11,3.41-12,6.83-22.71,8.23-31.8,4.15-15.6-7-21.34-27.62-22.38-31.89Z"/><path class="cls-9" d="M195.42,131.56l-13.26,9.2c-1.62,1.93-3.36,4-5,5.89l23.58-16.35Z"/><path class="cls-9" d="M210.42,131.47l-48.09,33.36-3.8,5.07,52.52-36.43C210.81,132.74,210.6,132.07,210.42,131.47Z"/><path class="cls-9" d="M213.46,139.68l-67.24,46.64c-1.48,1.94-2.84,3.72-4,5.22l72.12-50C214,140.9,213.73,140.28,213.46,139.68Z"/><path class="cls-9" d="M217.48,147.2l-76,52.72a19.44,19.44,0,0,0,2,1.05l75.13-52.11C218.21,148.31,217.84,147.76,217.48,147.2Z"/><path class="cls-9" d="M222.71,153.89,150.9,203.7l2.47.72,70.81-49.11C223.67,154.85,223.18,154.38,222.71,153.89Z"/><path class="cls-9" d="M229.73,159.34l-68,47.14c.91.21,1.81.4,2.68.58l67.33-46.7C231.06,160.05,230.39,159.7,229.73,159.34Z"/><path class="cls-9" d="M240.1,162.45l-66.69,46.26c1.21.19,2.2.33,2.92.41l67.21-46.61A27.93,27.93,0,0,1,240.1,162.45Z"/><path class="cls-9" d="M267.37,153.85l-78.76,54.63,3.92-.28,81.8-56.74A30.3,30.3,0,0,0,267.37,153.85Z"/><path class="cls-9" d="M282.48,153.66l-77.3,53.61,4-.29,74.36-51.57A7.54,7.54,0,0,0,282.48,153.66Z"/><path class="cls-9" d="M284.56,162.53,221.83,206l4-.29,58.6-40.64C284.48,164.22,284.54,163.36,284.56,162.53Z"/><path class="cls-9" d="M282.81,174.06,238.49,204.8l3.94-.3L282.05,177C282.32,176,282.58,175,282.81,174.06Z"/><path class="cls-9" d="M278.88,187.1l-23.72,16.45,4-.3,18.59-12.9C278.09,189.31,278.49,188.22,278.88,187.1Z"/><path class="cls-9" d="M273.25,201.32l-1.4,1,1-.08S273,201.89,273.25,201.32Z"/><path class="cls-5" d="M178.12,210c-2.5,0-36.23-5.54-39.27-12.18a2.72,2.72,0,0,1,.52-3.06c3-3.51,10.31-13.27,17.36-22.7s13.3-17.81,14.83-19.34c3-2.94,16.89-19.78,17-20a.83.83,0,0,1,.41-.25l21.1-5a.77.77,0,0,1,.57.1.74.74,0,0,1,.33.48c.05.24,5.34,24.23,21.71,31.58,8.63,3.87,18.87,2.5,30.44-4.08,9.7-5.52,16.2-6.58,19.87-3.22,9.93,9.11-8,48.51-8.77,50.19a.78.78,0,0,1-.63.43C269.85,203.25,181.13,210,178.12,210Zm11.47-76.08c-1.65,2-14.1,17-17,19.86-1.45,1.45-7.88,10.06-14.69,19.18-7.06,9.45-14.36,19.23-17.42,22.78a1.24,1.24,0,0,0-.3,1.46c2.55,5.56,34.28,11.3,37.91,11.3,2.84,0,88-6.44,94.94-7,1.89-4.22,17.58-40.13,8.94-48.05-3.08-2.82-9.17-1.67-18.11,3.41-12,6.83-22.71,8.23-31.8,4.15-15.6-7-21.34-27.62-22.38-31.89Z"/><path class="cls-3" d="M209.89,127.78,187.2,132.9s28-32.52,55.93-27.34C243.13,105.56,216,105,209.89,127.78Z"/><path class="cls-5" d="M327.48,187.26a.75.75,0,0,1-.75-.67c-5.05-47-40.47-55.28-40.82-55.35a.75.75,0,0,1,.32-1.47c.37.08,36.83,8.59,42,56.66a.75.75,0,0,1-.66.83Z"/><path class="cls-11" d="M176.35,130.07,188,132.9s53.43-64.22,85.93,3.43c0,0,3.47-5.25,7.35-4S240.27,58.13,176.35,130.07Z"/><path class="cls-12" d="M239.06,100.12s31.41,7.92,41.7,32.26L303.54,125s-13.06-15.47-28.85-24.47a33.6,33.6,0,0,0-20.13-4.14L228.91,99S235.27,99.56,239.06,100.12Z"/><polygon class="cls-6" points="86.47 185.89 285.72 201.97 385.6 180.48 193.35 167.96 86.47 185.89"/><path class="cls-5" d="M285.72,202.72h-.06L86.41,186.64a.75.75,0,0,1-.07-1.49l106.89-17.93h.17l192.25,12.51a.76.76,0,0,1,.7.69.74.74,0,0,1-.59.79L285.88,202.7ZM92.56,185.63l193.11,15.58,94.51-20.33L193.39,168.72Z"/><path class="cls-6" d="M307,236.24c1.44-39.92,6.14-67.8-20.93-102.07-3.91-4.95-12.73-.85-12.58,5.42,0,1.95-6,77.78-62.14,62C188,195,179.91,157.71,188,134.65l.06-.18c2.1-5.94-4.39-9-10.18-4.85-19.89,14.2-48.1,43.37-66,79.84-1.2,2.44-2.49,5.59-3.64,8.1Z"/><path class="cls-5" d="M307,237h-.07L108.19,218.3a.74.74,0,0,1-.58-.37.76.76,0,0,1,0-.69c.45-1,.92-2.06,1.4-3.16.75-1.7,1.51-3.46,2.24-5,18.27-37.29,47.08-66.47,66.2-80.12,3.35-2.39,7.28-2.73,9.78-.84,1.91,1.44,2.49,3.89,1.55,6.55l-.06.17c-5.13,14.65-3.57,34.75,3.79,48.9,4.67,9,11.25,14.87,19,17.06,14.55,4.1,27,2.27,36.89-5.42,21.66-16.8,24.3-55.46,24.29-55.82-.1-4,2.86-6.8,5.83-7.87a7,7,0,0,1,8.09,2c24.36,30.85,23.15,57,21.62,90.21-.18,4-.37,8.11-.53,12.36a.69.69,0,0,1-.25.53A.76.76,0,0,1,307,237ZM109.38,216.91l196.86,18.51c.15-4,.33-7.83.5-11.58,1.58-34.14,2.71-58.8-21.3-89.21-1.46-1.85-3.85-2.4-6.4-1.48-2.38.86-4.92,3.24-4.84,6.42,0,.37-2.65,39.79-24.85,57-10.33,8-23.19,9.93-38.24,5.69-8.19-2.3-15.09-8.46-20-17.81C183.62,170,182,149.4,187.27,134.4l.07-.18c.72-2,.34-3.81-1-4.85-1.6-1.2-4.78-1.44-8,.86-19,13.55-47.58,42.52-65.72,79.56-.72,1.46-1.48,3.2-2.21,4.89Z"/><path class="cls-13" d="M281.48,132l22.06-7.07s40.68,7.41,82.16,55.66l-78.62,55.77S313,154.12,281.48,132Z"/><path class="cls-5" d="M307.08,237.08a.79.79,0,0,1-.37-.1.76.76,0,0,1-.38-.71c.06-.82,5.57-82-25.28-103.68a.73.73,0,0,1-.31-.73.75.75,0,0,1,.51-.6l22.06-7.07a.63.63,0,0,1,.36,0c.41.07,41.43,8,82.6,55.9a.74.74,0,0,1-.13,1.1l-78.63,55.77A.76.76,0,0,1,307.08,237.08Zm-24-104.84C311.34,154,308.6,223.12,307.93,234.8l76.67-54.38c-39.24-45.31-78.05-54.13-81-54.74Z"/><path class="cls-5" d="M285.82,202.69a.74.74,0,0,1-.73-.59.75.75,0,0,1,.57-.89l4.89-1.05a.75.75,0,1,1,.31,1.47L286,202.68Zm-5-.37h-.06l-5-.4a.75.75,0,1,1,.12-1.5l5,.4a.75.75,0,0,1-.06,1.5Zm-10-.8h-.06l-5-.41a.73.73,0,0,1-.68-.8.74.74,0,0,1,.81-.69l5,.4a.75.75,0,0,1-.06,1.5Zm-10-.81h-.06l-5-.4a.75.75,0,0,1-.69-.81.76.76,0,0,1,.81-.69l5,.41a.75.75,0,0,1-.06,1.49Zm34.69-.12a.76.76,0,0,1-.73-.59.74.74,0,0,1,.58-.89l4.88-1.05a.76.76,0,0,1,.9.57.75.75,0,0,1-.58.89l-4.89,1A.41.41,0,0,1,295.59,200.59Zm-44.66-.68h-.06l-5-.4a.76.76,0,0,1-.69-.81A.76.76,0,0,1,246,198l5,.4a.75.75,0,0,1-.06,1.5Zm-10-.8h-.06l-5-.4a.75.75,0,1,1,.12-1.49l5,.4a.74.74,0,0,1,.68.81A.75.75,0,0,1,241,199.11Zm64.4-.62a.75.75,0,0,1-.16-1.48L310.1,196a.75.75,0,0,1,.32,1.47l-4.89,1.05ZM231,198.3h-.06l-5-.4a.75.75,0,0,1-.68-.81.76.76,0,0,1,.81-.69l5,.4a.75.75,0,0,1-.06,1.5Zm-10-.8H221l-5-.4a.75.75,0,1,1,.12-1.49l5,.4a.75.75,0,0,1-.06,1.5Zm-10-.81H211l-5-.4a.76.76,0,0,1-.69-.81.77.77,0,0,1,.81-.69l5,.41a.75.75,0,0,1-.06,1.49Zm104.09-.3a.76.76,0,0,1-.74-.6.77.77,0,0,1,.58-.89l4.89-1.05a.75.75,0,1,1,.31,1.47l-4.88,1.05Zm-114-.5H201l-5-.41a.75.75,0,0,1-.69-.8.76.76,0,0,1,.81-.69l5,.4a.75.75,0,0,1-.06,1.5Zm-10-.81h-.06l-5-.4a.74.74,0,0,1-.68-.81.75.75,0,0,1,.8-.68l5,.4a.75.75,0,0,1-.06,1.49Zm133.79-.8a.75.75,0,0,1-.15-1.48l4.88-1.05a.75.75,0,1,1,.32,1.46l-4.89,1.06Zm-143.76,0h-.06l-5-.4a.75.75,0,1,1,.12-1.5l5,.4a.76.76,0,0,1,.69.81A.75.75,0,0,1,181.16,194.28Zm-10-.8h-.06l-5-.4a.75.75,0,1,1,.12-1.49l5,.4a.75.75,0,0,1-.06,1.5Zm-10-.81h-.07l-5-.4a.75.75,0,1,1,.12-1.5l5,.4a.75.75,0,0,1-.06,1.5Zm173.47-.49a.75.75,0,0,1-.16-1.48l4.89-1.06a.75.75,0,0,1,.32,1.47l-4.89,1Zm-183.44-.31h-.06l-5-.41a.73.73,0,0,1-.68-.8.75.75,0,0,1,.8-.69l5,.4a.76.76,0,0,1,.69.81A.77.77,0,0,1,151.26,191.87Zm-10-.81h-.06l-5-.4a.74.74,0,0,1-.69-.81.76.76,0,0,1,.81-.69l5,.41a.75.75,0,0,1-.06,1.49Zm-10-.8h-.06l-5-.4a.75.75,0,0,1,.12-1.5l5,.4a.75.75,0,0,1-.06,1.5Zm213.16-.18a.75.75,0,0,1-.16-1.49l4.89-1.05a.75.75,0,1,1,.31,1.47l-4.89,1.05Zm-223.12-.62h-.07l-5-.4a.75.75,0,1,1,.12-1.49l5,.4a.74.74,0,0,1,.68.81A.75.75,0,0,1,121.36,189.46Zm-10-.81h-.06l-5-.4a.75.75,0,0,1-.68-.81.76.76,0,0,1,.8-.69l5,.4a.75.75,0,0,1-.06,1.5ZM354.25,188a.75.75,0,0,1-.16-1.48l4.89-1.05a.74.74,0,0,1,.89.57.76.76,0,0,1-.57.9L354.41,188Zm-252.83-.12h-.06l-5-.4a.74.74,0,0,1-.69-.81.75.75,0,0,1,.81-.68l5,.4a.75.75,0,0,1-.06,1.5Zm-10-.81h-.06l-5-.4a.75.75,0,0,1-.69-.81.76.76,0,0,1,.81-.69l5,.41a.75.75,0,0,1-.06,1.49ZM364,185.87a.75.75,0,0,1-.16-1.48l4.89-1a.75.75,0,0,1,.32,1.46l-4.89,1A.47.47,0,0,1,364,185.87Zm9.77-2.1a.75.75,0,0,1-.15-1.49l4.89-1.05a.75.75,0,1,1,.31,1.47L374,183.75Zm9.78-2.11a.75.75,0,0,1-.16-1.48l2-.43a.75.75,0,1,1,.32,1.46l-2,.44Z"/></svg>