<svg id="Слой_1" data-name="Слой 1" xmlns="http://www.w3.org/2000/svg" viewBox="0 0 499.89 669.62"><defs><style>.cls-1{fill:#ccc;}.cls-2{fill:#444;}.cls-3{fill:#0084b2;}.cls-4{fill:#f9f9f9;}.cls-5{fill:#bfbfbf;}.cls-6{fill:#99c6d6;}.cls-7{fill:#2cc8ff;}.cls-8{fill:#00a5eb;}</style></defs><title>к</title><polygon class="cls-1" points="193.1 236.98 108.92 338.08 107.92 217.89 192.1 168.94 193.1 236.98"/><path class="cls-2" d="M108.93,338.83a.78.78,0,0,1-.26,0,.76.76,0,0,1-.49-.7l-1-120.19a.75.75,0,0,1,.37-.66l84.18-49a.74.74,0,0,1,1.12.63l1,68.05a.67.67,0,0,1-.17.49L109.5,338.56A.76.76,0,0,1,108.93,338.83Zm-.25-120.51,1,117.71,82.69-99.31-1-66.49Z"/><path class="cls-3" d="M287.56,534.37c2.54-4.35,5.26-8.56,8-12.78,1.36-2.08,2.79-4.21,4.32-6.25a66.12,66.12,0,0,1,5-5.85,59.73,59.73,0,0,1,12-9.8,56.5,56.5,0,0,1,6.94-3.63c1.23-.48,2.44-1,3.68-1.39s2.5-.84,3.79-1.11l1.92-.46c.64-.13,1.3-.22,1.94-.33,1.3-.25,2.61-.36,3.92-.49s2.64-.09,3.95-.14l3.74,0a48.9,48.9,0,0,0,14.12-2,59,59,0,0,0,13.29-5.95c4.37-2.47,8.72-4.95,13.2-7.24-3.87,3.22-7.86,6.25-11.85,9.29a60.43,60.43,0,0,1-6.37,4.27,49,49,0,0,1-7,3.32,45.89,45.89,0,0,1-15.32,3.08c-1.3.05-2.53,0-3.77.07s-2.37.05-3.55.21-2.35.23-3.51.47c-.59.11-1.17.19-1.75.31l-1.73.43c-9.25,2.24-17.67,7.39-24.9,13.86A98.24,98.24,0,0,0,297.48,523C294.23,526.86,291,530.68,287.56,534.37Z"/><path class="cls-3" d="M291.52,533.24c2.24-2.25,4.6-4.31,7-6.39a47.13,47.13,0,0,1,7.88-5.55A44.51,44.51,0,0,1,325,515.65c1.61-.12,3.38-.09,4.77-.12s3-.12,4.43-.27A54.32,54.32,0,0,0,343,513.6c1.44-.38,2.88-.86,4.4-1.34s3-.92,4.5-1.35c3-.85,6-1.71,9.14-2.35-2.69,1.67-5.46,3.14-8.23,4.62q-2.09,1.1-4.19,2.13c-1.38.69-2.83,1.41-4.35,2a42.9,42.9,0,0,1-9.42,2.63,44.7,44.7,0,0,1-4.9.51c-1.72.06-3.08,0-4.58.17a54.78,54.78,0,0,0-17.27,4.18,72.32,72.32,0,0,0-8.2,4C297.14,530.36,294.4,531.89,291.52,533.24Z"/><path class="cls-4" d="M201.22,534.59c-.51,4.71,10.64,8.87,29.24,10.16,23.78,1.64,50.58-2,60-8.21,2.34-1.53,3.39-3.07,3.3-4.55V437.67l-92.54,2.6Z"/><path class="cls-2" d="M242,545.88c-3.89,0-7.77-.12-11.58-.38-14.8-1-25.58-4-28.84-7.86a4.11,4.11,0,0,1-1.09-3.09V440.27a.75.75,0,0,1,.73-.75l92.53-2.6a.71.71,0,0,1,.55.21.76.76,0,0,1,.23.54V532c.12,1.77-1.11,3.52-3.64,5.18C282.85,542.41,262.41,545.88,242,545.88ZM202,441v93.68a2.66,2.66,0,0,0,.74,2c2.95,3.53,13.61,6.34,27.8,7.32,23.51,1.62,50.22-2,59.54-8.09,1.41-.92,3.06-2.33,3-3.87v-93.6Zm-.75,93.6h0Z"/><polygon class="cls-4" points="108.86 445.15 307.11 463.22 385.11 406.04 192.29 396.08 108.86 445.15"/><path class="cls-2" d="M307.11,464H307L108.79,445.89a.75.75,0,0,1-.31-1.39l83.43-49.06a.69.69,0,0,1,.42-.1l192.82,10a.77.77,0,0,1,.68.54.75.75,0,0,1-.28.82l-78,57.18A.77.77,0,0,1,307.11,464ZM111.25,444.61l195.64,17.84L383,406.68l-190.5-9.83Z"/><path class="cls-1" d="M288.63,430.16c-9.42,6.16-36.22,9.85-60,8.21-18.6-1.29-29.74-5.45-29.23-10.16.15-1.37,1.29-2.78,3.51-4.19,9.81-6.2,37-9.77,60.54-8,17.5,1.3,28.19,5.18,28.48,9.61C292,427.09,291,428.64,288.63,430.16Z"/><path class="cls-2" d="M240.15,439.51c-3.89,0-7.78-.13-11.58-.39-14.8-1-25.59-4-28.84-7.86a4.07,4.07,0,0,1-1.08-3.13c.18-1.64,1.47-3.24,3.85-4.74,9.88-6.25,37.24-9.9,61-8.14,17.66,1.31,28.84,5.26,29.18,10.31.12,1.82-1.1,3.58-3.63,5.23h0C281,436,260.58,439.51,240.15,439.51ZM251,416.3c-19.91,0-39.75,3.3-47.74,8.35-1.94,1.23-3,2.49-3.16,3.64a2.66,2.66,0,0,0,.74,2c3,3.54,13.61,6.34,27.8,7.32,23.51,1.63,50.22-2,59.54-8.08h0c1.4-.92,3.06-2.34,3-3.88-.23-3.31-9-7.52-27.8-8.91C259.34,416.45,255.19,416.3,251,416.3Zm37.59,13.86h0Z"/><path class="cls-5" d="M213.94,419.83l-14,9.79a4.62,4.62,0,0,0,1.13,1.64l18.19-12.67C217.36,419,215.6,419.39,213.94,419.83Z"/><path class="cls-5" d="M233.56,416.47,207.41,434.7c.75.26,1.56.51,2.41.75l27.74-19.33C236.21,416.22,234.88,416.34,233.56,416.47Z"/><path class="cls-5" d="M249.6,415.61l-31.09,21.67c.94.14,1.91.28,2.91.4l31.68-22.07Z"/><path class="cls-5" d="M263.78,416l-32.32,22.52c1.1.06,2.2.11,3.3.14l32.14-22.39Q265.37,416.16,263.78,416Z"/><path class="cls-5" d="M276.33,417.61,246,438.72c1.24,0,2.48-.09,3.71-.15L279,418.16C278.17,418,277.27,417.79,276.33,417.61Z"/><path class="cls-5" d="M286.84,420.6l-24.18,16.85c1.49-.19,2.95-.39,4.38-.62l21.83-15.21A20.17,20.17,0,0,0,286.84,420.6Z"/><path class="cls-5" d="M291.79,427.46l-7,4.85A25,25,0,0,0,289,430.2,8.3,8.3,0,0,0,291.79,427.46Z"/><path class="cls-2" d="M240.15,439.51c-3.89,0-7.78-.13-11.58-.39-14.8-1-25.59-4-28.84-7.86a4.07,4.07,0,0,1-1.08-3.13c.18-1.64,1.47-3.24,3.85-4.74,9.88-6.25,37.24-9.9,61-8.14,17.66,1.31,28.84,5.26,29.18,10.31.12,1.82-1.1,3.58-3.63,5.23h0C281,436,260.58,439.51,240.15,439.51ZM251,416.3c-19.91,0-39.75,3.3-47.74,8.35-1.94,1.23-3,2.49-3.16,3.64a2.66,2.66,0,0,0,.74,2c3,3.54,13.61,6.34,27.8,7.32,23.51,1.63,50.22-2,59.54-8.08h0c1.4-.92,3.06-2.34,3-3.88-.23-3.31-9-7.52-27.8-8.91C259.34,416.45,255.19,416.3,251,416.3Zm37.59,13.86h0Z"/><polygon class="cls-1" points="385.6 406.24 191.1 383.94 192.1 169.03 384.35 181.1 385.6 406.24"/><path class="cls-2" d="M385.6,407h-.08L191,384.69a.76.76,0,0,1-.66-.75l1-214.92a.75.75,0,0,1,.24-.54.76.76,0,0,1,.56-.2L384.4,180.35a.75.75,0,0,1,.7.75l1.25,225.14a.75.75,0,0,1-.25.56A.71.71,0,0,1,385.6,407ZM191.85,383.27l193,22.13L383.6,181.81l-190.75-12Z"/><polygon class="cls-5" points="196.91 170.25 192.39 173.09 192.39 175.52 200.14 170.43 196.91 170.25"/><polygon class="cls-5" points="210.58 171.03 191.39 184.4 191.39 186.84 213.81 171.21 210.58 171.03"/><polygon class="cls-5" points="224.25 171.81 191.39 194.71 191.39 197.15 227.49 172 224.25 171.81"/><polygon class="cls-5" points="237.93 172.6 191.39 205.03 191.39 207.46 241.16 172.78 237.93 172.6"/><polygon class="cls-5" points="251.61 173.38 191.39 215.34 191.39 217.78 254.84 173.56 251.61 173.38"/><polygon class="cls-5" points="265.28 174.16 191.39 225.65 191.39 228.09 268.51 174.35 265.28 174.16"/><polygon class="cls-5" points="278.96 174.95 191.39 235.96 191.39 238.4 282.19 175.13 278.96 174.95"/><polygon class="cls-5" points="292.63 175.73 191.39 246.28 191.39 248.72 295.86 175.92 292.63 175.73"/><polygon class="cls-5" points="306.31 176.51 191.39 256.59 191.39 259.03 309.54 176.7 306.31 176.51"/><polygon class="cls-5" points="319.98 177.3 191.39 266.9 191.39 269.34 323.21 177.48 319.98 177.3"/><polygon class="cls-5" points="333.66 178.08 191.39 277.22 191.39 279.65 336.89 178.27 333.66 178.08"/><polygon class="cls-5" points="347.33 178.87 191.39 287.53 191.39 289.97 350.56 179.05 347.33 178.87"/><polygon class="cls-5" points="361.01 179.65 191.39 297.84 191.39 300.28 364.24 179.84 361.01 179.65"/><polygon class="cls-5" points="374.68 180.43 191.39 308.16 191.39 310.59 377.91 180.62 374.68 180.43"/><polygon class="cls-5" points="384.64 183.81 191.39 318.47 191.39 320.91 384.64 186.24 384.64 183.81"/><polygon class="cls-5" points="384.64 194.12 191.39 328.78 191.39 331.22 384.64 196.56 384.64 194.12"/><polygon class="cls-5" points="384.64 204.43 191.39 339.1 191.39 341.53 384.64 206.87 384.64 204.43"/><polygon class="cls-5" points="384.64 214.74 191.39 349.41 191.39 351.85 384.64 217.18 384.64 214.74"/><polygon class="cls-5" points="384.64 225.06 191.39 359.72 191.39 362.16 384.64 227.49 384.64 225.06"/><polygon class="cls-5" points="384.64 235.37 191.39 370.04 191.39 372.47 384.64 237.81 384.64 235.37"/><polygon class="cls-5" points="384.64 245.68 191.39 380.35 191.39 382.79 384.64 248.12 384.64 245.68"/><polygon class="cls-5" points="384.64 256 199.4 385.08 202.26 385.53 384.64 258.43 384.64 256"/><polygon class="cls-5" points="384.64 266.29 211.48 386.96 214.37 387.4 384.64 268.75 384.64 266.29"/><polygon class="cls-5" points="384.64 276.6 223.59 388.83 226.48 389.28 384.64 279.06 384.64 276.6"/><polygon class="cls-5" points="384.64 286.91 235.7 390.71 238.56 391.15 384.64 289.35 384.64 286.91"/><polygon class="cls-5" points="384.64 297.23 247.81 392.58 250.67 393.03 384.64 299.66 384.64 297.23"/><polygon class="cls-5" points="384.64 307.54 259.91 394.46 262.77 394.9 384.64 309.98 384.64 307.54"/><polygon class="cls-5" points="384.64 317.85 272.02 396.33 274.88 396.78 384.64 320.29 384.64 317.85"/><polygon class="cls-5" points="384.64 328.17 284.13 398.21 286.99 398.65 384.64 330.6 384.64 328.17"/><polygon class="cls-5" points="384.64 338.48 296.24 400.09 299.1 400.53 384.64 340.92 384.64 338.48"/><polygon class="cls-5" points="384.64 348.79 308.35 401.96 311.21 402.4 384.64 351.23 384.64 348.79"/><polygon class="cls-5" points="384.64 359.11 320.45 403.84 323.31 404.28 384.64 361.54 384.64 359.11"/><polygon class="cls-5" points="384.64 369.42 332.56 405.71 335.42 406.16 384.64 371.86 384.64 369.42"/><polygon class="cls-5" points="384.64 379.73 344.67 407.59 347.53 408.03 384.64 382.17 384.64 379.73"/><polygon class="cls-5" points="384.64 390.05 356.78 409.46 359.64 409.91 384.64 392.48 384.64 390.05"/><polygon class="cls-5" points="384.64 400.36 368.89 411.34 371.75 411.78 384.64 402.8 384.64 400.36"/><polygon class="cls-5" points="385.6 406.24 385.64 403.67 381.99 406.22 384.85 406.66 385.6 406.24"/><path class="cls-2" d="M385.6,407h-.08L191,384.69a.76.76,0,0,1-.66-.75l1-214.92a.75.75,0,0,1,.24-.54.76.76,0,0,1,.56-.2L384.4,180.35a.75.75,0,0,1,.7.75l1.25,225.14a.75.75,0,0,1-.25.56A.71.71,0,0,1,385.6,407ZM191.85,383.27l193,22.13L383.6,181.81l-190.75-12Z"/><polygon class="cls-1" points="385.6 406.24 307.7 484.74 307.7 235.59 385.7 180.56 385.6 406.24"/><path class="cls-2" d="M307.7,485.49a.92.92,0,0,1-.28-.05.76.76,0,0,1-.47-.7V235.59a.75.75,0,0,1,.32-.61l78-55a.75.75,0,0,1,1.18.62l-.1,225.68a.75.75,0,0,1-.22.53l-77.9,78.5A.71.71,0,0,1,307.7,485.49ZM308.45,236V482.92l76.4-77L385,182ZM385.6,406.24h0Z"/><polygon class="cls-4" points="307.7 484.74 108.45 455.81 108.26 217.56 307.7 236.03 307.7 484.74"/><path class="cls-2" d="M307.7,485.49h-.11L108.34,456.55a.76.76,0,0,1-.64-.74l-.19-238.25a.77.77,0,0,1,.25-.56.74.74,0,0,1,.57-.19l199.44,18.48a.74.74,0,0,1,.68.75v248.7a.73.73,0,0,1-.26.57A.72.72,0,0,1,307.7,485.49ZM109.2,455.16,307,483.88V236.72L109,218.38Z"/><polygon class="cls-6" points="269.44 357.06 269.44 341.68 274.45 341.68 274.45 346.69 285.9 346.69 285.9 352.05 274.45 352.05 274.45 357.06 269.44 357.06"/><polygon class="cls-6" points="269.62 295.35 269.62 295.35 269.62 300 269.62 300 269.62 305.37 286.07 305.37 286.07 300 274.99 300 274.99 295.35 286.07 295.35 286.07 289.99 274.99 289.99 269.62 289.99 269.62 289.99 269.62 295.35"/><polygon class="cls-6" points="276.06 256 269.62 251.35 269.62 257.43 276.06 262.08 276.06 262.8 269.62 262.8 269.62 268.16 286.07 268.16 286.07 262.8 279.99 262.8 279.99 261.37 286.07 258.51 286.07 252.07 277.85 257.07 276.06 256"/><path class="cls-6" d="M269.62,276.39v5l16.45,7.16v-5.73l-2.86-.71V276l2.86-1.07v-5.72Zm9.66,4.3L275,278.9l4.3-1.43Z"/><path class="cls-6" d="M269.62,330.41v5l16.45,7.15v-5.72l-2.86-.72v-6.08l2.86-1.07v-5.72Zm9.66,4.29-4.3-1.79,4.3-1.43Z"/><path class="cls-6" d="M269.62,313.05v8.77h16.45v-5.36h-3.94v-3.41a6.25,6.25,0,0,0-6.26-6.25h0A6.25,6.25,0,0,0,269.62,313.05Zm8.23,1.05v2.36H274V314.1a1.94,1.94,0,0,1,3.88,0Z"/><path class="cls-7" d="M175.57,121.73A45.43,45.43,0,0,0,171.08,142c0,10.77,8.38,24.54,13.45,30.43l7.38-4.23c-3.6-4.28-18.71-21.43-18.71-33.8A34.17,34.17,0,0,1,175.57,121.73Z"/><path class="cls-3" d="M211.71,142a45.64,45.64,0,0,0-4.49-20.32,34.46,34.46,0,0,1,2.37,12.72c0,12.37-14.08,29.52-17.68,33.8l9.42.62C206.4,163,211.71,152.81,211.71,142Z"/><path class="cls-8" d="M207.22,121.72c-.4-.78-.82-1.52-1.25-2.24-3.7-6.06-8.86-9.84-14.58-9.84a14,14,0,0,0-8,2.59,24.84,24.84,0,0,0-7.86,9.5,34.17,34.17,0,0,0-2.37,12.71c0,12.37,13.62,30.38,17.22,34.66l1.49-.86c-3.28-7.43-11.57-19.7-11.57-26.2,0-5.58,1.62-10.54,4.16-13.77,1.89-2.42,4.28-3.87,6.89-3.87a8.33,8.33,0,0,1,5.84,2.67c3.13,3.12,5.22,8.64,5.22,15,0,6.5-7.27,18.77-10.54,26.2h.34c3.6-4.28,17.34-21.43,17.34-33.8A34.46,34.46,0,0,0,207.22,121.72Z"/><path class="cls-7" d="M290.74,186a45.5,45.5,0,0,0-4.49,20.31c0,10.78,3.3,22.24,8.37,28.13l12.45-1.92c-3.59-4.28-18.71-21.43-18.71-33.8A34.26,34.26,0,0,1,290.74,186Z"/><path class="cls-3" d="M326.87,206.29A45.5,45.5,0,0,0,322.38,186a34.22,34.22,0,0,1,2.38,12.72c0,12.37-14.09,29.52-17.69,33.8l9.1-2.45C321.24,224.16,326.87,217.07,326.87,206.29Z"/><path class="cls-8" d="M322.38,186c-.39-.78-.81-1.52-1.25-2.24-3.69-6.06-8.85-9.85-14.57-9.85a14,14,0,0,0-8,2.6,24.8,24.8,0,0,0-7.86,9.49,34.26,34.26,0,0,0-2.38,12.72c0,12.37,15.12,29.52,18.71,33.8h0c-3.27-7.43-11.57-19.7-11.57-26.21,0-5.57,1.63-10.53,4.16-13.77,1.89-2.41,4.29-3.86,6.9-3.86a8.31,8.31,0,0,1,5.83,2.67c3.13,3.11,5.23,8.64,5.23,15,0,6.51-7.27,18.78-10.55,26.21h.35c3.6-4.28,17.34-21.43,17.34-33.8A34.22,34.22,0,0,0,322.38,186Z"/><polygon class="cls-3" points="316.17 475.14 307.41 483.9 306.02 233.55 316.17 223.32 316.17 475.14"/><polygon class="cls-7" points="307.41 483.9 294.34 482.05 294.34 232.17 307.07 232.5 307.41 483.9"/><path class="cls-3" d="M121.73,163.5c4.83,9.23,8.27,26.71-2,54.37l-9.89-7s9.65-33.75-2.72-47.12l-.7-3.08.61-.46A9.88,9.88,0,0,1,121.73,163.5Z"/><polygon class="cls-7" points="120.34 456.76 107.71 454.97 107.13 216.87 119.73 217.87 120.34 456.76"/><path class="cls-8" d="M114.15,158.27s-23.39,14.5,5.58,59.6l-12.6-1a65,65,0,0,1-12-45c.51-4.37,4.21-11.14,7.66-12.11C110.4,157.62,114.15,158.27,114.15,158.27Z"/><polygon class="cls-3" points="386.36 404.74 376.04 414.65 376.04 187.4 386.49 180.11 386.36 404.74"/><path class="cls-8" d="M373.76,133.52c-4.83,9.24-8,26.21,2.28,53.88l9.61-6.53s-9.65-33.75,2.71-47.12l.71-3.08-.61-.46A9.89,9.89,0,0,0,373.76,133.52Z"/><path class="cls-3" d="M381.34,128.3s23.67,14-5.3,59.1l9.61-6.53s17.75-12.63,14.68-39c-.51-4.36-4.22-11.13-7.66-12.1C385.08,127.64,381.34,128.3,381.34,128.3Z"/></svg>