<svg id="Слой_1" data-name="Слой 1" xmlns="http://www.w3.org/2000/svg" viewBox="0 0 499.89 669.62"><defs><style>.cls-1{fill:#2cc8ff;}.cls-2{fill:#0084b2;}.cls-3{fill:#00a5eb;}.cls-4{fill:#ccc;}.cls-5{fill:#444;}.cls-6{fill:#f9f9f9;}.cls-7{fill:#bfbfbf;}.cls-8{fill:#99c6d6;}</style></defs><title>к</title><path class="cls-1" d="M175.57,121.73A45.43,45.43,0,0,0,171.08,142c0,10.77,8.38,24.54,13.45,30.43l7.38-4.23c-3.6-4.28-18.71-21.43-18.71-33.8A34.17,34.17,0,0,1,175.57,121.73Z"/><path class="cls-2" d="M211.71,142a45.64,45.64,0,0,0-4.49-20.32,34.46,34.46,0,0,1,2.37,12.72c0,12.37-14.08,29.52-17.68,33.8l9.42.62C206.4,163,211.71,152.81,211.71,142Z"/><path class="cls-3" d="M207.22,121.72c-.4-.78-.82-1.52-1.25-2.24-3.7-6.06-8.86-9.84-14.58-9.84a14,14,0,0,0-8,2.59,24.84,24.84,0,0,0-7.86,9.5,34.17,34.17,0,0,0-2.37,12.71c0,12.37,13.62,30.38,17.22,34.66l1.49-.86c-3.28-7.43-11.57-19.7-11.57-26.2,0-5.58,1.62-10.54,4.16-13.77,1.89-2.42,4.28-3.87,6.89-3.87a8.33,8.33,0,0,1,5.84,2.67c3.13,3.12,5.22,8.64,5.22,15,0,6.5-7.27,18.77-10.54,26.2h.34c3.6-4.28,17.34-21.43,17.34-33.8A34.46,34.46,0,0,0,207.22,121.72Z"/><polygon class="cls-4" points="193.1 236.98 108.92 338.08 107.92 217.89 192.1 168.94 193.1 236.98"/><path class="cls-5" d="M108.93,338.83a.78.78,0,0,1-.26,0,.76.76,0,0,1-.49-.7l-1-120.19a.75.75,0,0,1,.37-.66l84.18-49a.74.74,0,0,1,1.12.63l1,68.05a.67.67,0,0,1-.17.49L109.5,338.56A.76.76,0,0,1,108.93,338.83Zm-.25-120.51,1,117.71,82.69-99.31-1-66.49Z"/><path class="cls-2" d="M287.56,534.37c2.54-4.35,5.26-8.56,8-12.78,1.36-2.08,2.79-4.21,4.32-6.25a66.12,66.12,0,0,1,5-5.85,59.73,59.73,0,0,1,12-9.8,56.5,56.5,0,0,1,6.94-3.63c1.23-.48,2.44-1,3.68-1.39s2.5-.84,3.79-1.11l1.92-.46c.64-.13,1.3-.22,1.94-.33,1.3-.25,2.61-.36,3.92-.49s2.64-.09,3.95-.14l3.74,0a48.9,48.9,0,0,0,14.12-2,59,59,0,0,0,13.29-5.95c4.37-2.47,8.72-4.95,13.2-7.24-3.87,3.22-7.86,6.25-11.85,9.29a60.43,60.43,0,0,1-6.37,4.27,49,49,0,0,1-7,3.32,45.89,45.89,0,0,1-15.32,3.08c-1.3.05-2.53,0-3.77.07s-2.37.05-3.55.21-2.35.23-3.52.47c-.58.11-1.16.19-1.74.31l-1.73.43c-9.25,2.24-17.67,7.39-24.9,13.86A98.24,98.24,0,0,0,297.48,523C294.23,526.86,291,530.68,287.56,534.37Z"/><path class="cls-2" d="M291.52,533.24c2.24-2.25,4.6-4.31,7-6.39a47.13,47.13,0,0,1,7.88-5.55A44.51,44.51,0,0,1,325,515.65c1.61-.12,3.38-.09,4.77-.12s3-.12,4.43-.27A54.32,54.32,0,0,0,343,513.6c1.44-.38,2.88-.86,4.4-1.34s3-.92,4.5-1.35c3-.85,6-1.71,9.14-2.35-2.69,1.67-5.46,3.14-8.23,4.62q-2.09,1.1-4.19,2.13c-1.38.69-2.83,1.41-4.35,2a42.9,42.9,0,0,1-9.42,2.63,44.7,44.7,0,0,1-4.9.51c-1.72.06-3.08,0-4.58.17a54.78,54.78,0,0,0-17.27,4.18,71.37,71.37,0,0,0-8.19,4C297.14,530.36,294.4,531.89,291.52,533.24Z"/><path class="cls-6" d="M201.22,534.59c-.51,4.71,10.64,8.87,29.24,10.16,23.78,1.64,50.58-2,60-8.21,2.34-1.53,3.39-3.07,3.3-4.55V437.67l-92.54,2.6Z"/><path class="cls-5" d="M242,545.88c-3.89,0-7.77-.12-11.58-.38-14.8-1-25.58-4-28.84-7.86a4.11,4.11,0,0,1-1.09-3.09V440.27a.75.75,0,0,1,.73-.75l92.53-2.6a.72.72,0,0,1,.55.21.76.76,0,0,1,.23.54V532c.12,1.77-1.11,3.52-3.64,5.18C282.85,542.41,262.41,545.88,242,545.88ZM202,441v93.68a2.66,2.66,0,0,0,.74,2c2.95,3.53,13.61,6.34,27.8,7.32,23.51,1.62,50.22-2,59.54-8.09,1.41-.92,3.06-2.33,3-3.87v-93.6Zm-.75,93.6h0Z"/><polygon class="cls-6" points="108.86 445.15 307.11 463.22 385.11 406.04 192.29 396.08 108.86 445.15"/><path class="cls-5" d="M307.11,464H307L108.79,445.89a.75.75,0,0,1-.31-1.39l83.43-49.06a.68.68,0,0,1,.42-.1l192.82,10a.77.77,0,0,1,.68.54.75.75,0,0,1-.28.82l-78,57.18A.77.77,0,0,1,307.11,464ZM111.25,444.61l195.64,17.84L383,406.68l-190.5-9.83Z"/><path class="cls-4" d="M288.63,430.16c-9.42,6.16-36.22,9.85-60,8.21-18.6-1.29-29.74-5.45-29.23-10.16.15-1.37,1.29-2.78,3.51-4.19,9.81-6.2,37-9.77,60.54-8,17.5,1.3,28.19,5.18,28.48,9.61C292,427.09,291,428.64,288.63,430.16Z"/><path class="cls-5" d="M240.14,439.51c-3.88,0-7.77-.13-11.57-.39-14.8-1-25.59-4-28.84-7.86a4.07,4.07,0,0,1-1.08-3.13c.18-1.64,1.47-3.24,3.85-4.74,9.88-6.25,37.24-9.9,61-8.14,17.66,1.31,28.84,5.26,29.18,10.31.12,1.82-1.1,3.58-3.63,5.23h0C281,436,260.58,439.51,240.14,439.51ZM251,416.3c-19.91,0-39.75,3.3-47.74,8.35-1.94,1.23-3,2.49-3.16,3.64a2.66,2.66,0,0,0,.74,2c3,3.54,13.61,6.34,27.8,7.32,23.51,1.62,50.22-2,59.54-8.08,1.4-.92,3.06-2.34,3-3.88-.23-3.31-9-7.52-27.8-8.91C259.34,416.45,255.19,416.3,251,416.3Zm37.59,13.86h0Z"/><path class="cls-7" d="M213.94,419.83l-14,9.79a4.62,4.62,0,0,0,1.13,1.64l18.19-12.67C217.36,419,215.6,419.39,213.94,419.83Z"/><path class="cls-7" d="M233.56,416.47,207.41,434.7c.75.26,1.56.51,2.41.75l27.74-19.33C236.21,416.22,234.88,416.34,233.56,416.47Z"/><path class="cls-7" d="M249.6,415.61l-31.09,21.67c.94.14,1.91.28,2.91.4l31.68-22.07Z"/><path class="cls-7" d="M263.78,416l-32.32,22.52c1.1.06,2.2.11,3.3.14l32.14-22.39Q265.37,416.16,263.78,416Z"/><path class="cls-7" d="M276.33,417.61,246,438.72c1.24,0,2.48-.09,3.71-.15L279,418.16C278.17,418,277.27,417.79,276.33,417.61Z"/><path class="cls-7" d="M286.84,420.6l-24.18,16.85c1.49-.19,2.95-.39,4.38-.62l21.83-15.21A20.17,20.17,0,0,0,286.84,420.6Z"/><path class="cls-7" d="M291.79,427.46l-7,4.85A25,25,0,0,0,289,430.2,8.3,8.3,0,0,0,291.79,427.46Z"/><path class="cls-5" d="M240.14,439.51c-3.88,0-7.77-.13-11.57-.39-14.8-1-25.59-4-28.84-7.86a4.07,4.07,0,0,1-1.08-3.13c.18-1.64,1.47-3.24,3.85-4.74,9.88-6.25,37.24-9.9,61-8.14,17.66,1.31,28.84,5.26,29.18,10.31.12,1.82-1.1,3.58-3.63,5.23h0C281,436,260.58,439.51,240.14,439.51ZM251,416.3c-19.91,0-39.75,3.3-47.74,8.35-1.94,1.23-3,2.49-3.16,3.64a2.66,2.66,0,0,0,.74,2c3,3.54,13.61,6.34,27.8,7.32,23.51,1.62,50.22-2,59.54-8.08,1.4-.92,3.06-2.34,3-3.88-.23-3.31-9-7.52-27.8-8.91C259.34,416.45,255.19,416.3,251,416.3Zm37.59,13.86h0Z"/><polygon class="cls-4" points="385.6 406.24 191.1 383.94 192.1 169.03 384.35 181.1 385.6 406.24"/><path class="cls-5" d="M385.6,407h-.08L191,384.69a.76.76,0,0,1-.66-.75l1-214.92a.75.75,0,0,1,.24-.54.72.72,0,0,1,.56-.2L384.4,180.35a.75.75,0,0,1,.7.75l1.25,225.14a.75.75,0,0,1-.25.56A.71.71,0,0,1,385.6,407ZM191.85,383.27l193,22.13L383.6,181.81l-190.75-12Z"/><polygon class="cls-7" points="196.91 170.25 192.39 173.09 192.39 175.52 200.14 170.43 196.91 170.25"/><polygon class="cls-7" points="210.58 171.03 191.39 184.4 191.39 186.84 213.81 171.21 210.58 171.03"/><polygon class="cls-7" points="224.25 171.81 191.39 194.71 191.39 197.15 227.49 172 224.25 171.81"/><polygon class="cls-7" points="237.93 172.6 191.39 205.03 191.39 207.46 241.16 172.78 237.93 172.6"/><polygon class="cls-7" points="251.61 173.38 191.39 215.34 191.39 217.78 254.84 173.56 251.61 173.38"/><polygon class="cls-7" points="265.28 174.16 191.39 225.65 191.39 228.09 268.51 174.35 265.28 174.16"/><polygon class="cls-7" points="278.96 174.95 191.39 235.96 191.39 238.4 282.19 175.13 278.96 174.95"/><polygon class="cls-7" points="292.63 175.73 191.39 246.28 191.39 248.72 295.86 175.92 292.63 175.73"/><polygon class="cls-7" points="306.31 176.51 191.39 256.59 191.39 259.03 309.54 176.7 306.31 176.51"/><polygon class="cls-7" points="319.98 177.3 191.39 266.9 191.39 269.34 323.21 177.48 319.98 177.3"/><polygon class="cls-7" points="333.66 178.08 191.39 277.22 191.39 279.65 336.89 178.27 333.66 178.08"/><polygon class="cls-7" points="347.33 178.87 191.39 287.53 191.39 289.97 350.56 179.05 347.33 178.87"/><polygon class="cls-7" points="361.01 179.65 191.39 297.84 191.39 300.28 364.24 179.84 361.01 179.65"/><polygon class="cls-7" points="374.68 180.43 191.39 308.16 191.39 310.59 377.91 180.62 374.68 180.43"/><polygon class="cls-7" points="384.64 183.81 191.39 318.47 191.39 320.91 384.64 186.24 384.64 183.81"/><polygon class="cls-7" points="384.64 194.12 191.39 328.78 191.39 331.22 384.64 196.56 384.64 194.12"/><polygon class="cls-7" points="384.64 204.43 191.39 339.1 191.39 341.53 384.64 206.87 384.64 204.43"/><polygon class="cls-7" points="384.64 214.74 191.39 349.41 191.39 351.85 384.64 217.18 384.64 214.74"/><polygon class="cls-7" points="384.64 225.06 191.39 359.72 191.39 362.16 384.64 227.49 384.64 225.06"/><polygon class="cls-7" points="384.64 235.37 191.39 370.04 191.39 372.47 384.64 237.81 384.64 235.37"/><polygon class="cls-7" points="384.64 245.68 191.39 380.35 191.39 382.79 384.64 248.12 384.64 245.68"/><polygon class="cls-7" points="384.64 256 199.4 385.08 202.26 385.53 384.64 258.43 384.64 256"/><polygon class="cls-7" points="384.64 266.29 211.48 386.96 214.37 387.4 384.64 268.75 384.64 266.29"/><polygon class="cls-7" points="384.64 276.6 223.59 388.83 226.48 389.28 384.64 279.06 384.64 276.6"/><polygon class="cls-7" points="384.64 286.91 235.7 390.71 238.56 391.15 384.64 289.35 384.64 286.91"/><polygon class="cls-7" points="384.64 297.23 247.81 392.58 250.66 393.03 384.64 299.66 384.64 297.23"/><polygon class="cls-7" points="384.64 307.54 259.91 394.46 262.77 394.9 384.64 309.98 384.64 307.54"/><polygon class="cls-7" points="384.64 317.85 272.02 396.33 274.88 396.78 384.64 320.29 384.64 317.85"/><polygon class="cls-7" points="384.64 328.17 284.13 398.21 286.99 398.65 384.64 330.6 384.64 328.17"/><polygon class="cls-7" points="384.64 338.48 296.24 400.09 299.1 400.53 384.64 340.92 384.64 338.48"/><polygon class="cls-7" points="384.64 348.79 308.35 401.96 311.21 402.4 384.64 351.23 384.64 348.79"/><polygon class="cls-7" points="384.64 359.11 320.45 403.84 323.31 404.28 384.64 361.54 384.64 359.11"/><polygon class="cls-7" points="384.64 369.42 332.56 405.71 335.42 406.16 384.64 371.86 384.64 369.42"/><polygon class="cls-7" points="384.64 379.73 344.67 407.59 347.53 408.03 384.64 382.17 384.64 379.73"/><polygon class="cls-7" points="384.64 390.05 356.78 409.46 359.64 409.91 384.64 392.48 384.64 390.05"/><polygon class="cls-7" points="384.64 400.36 368.88 411.34 371.75 411.78 384.64 402.8 384.64 400.36"/><polygon class="cls-7" points="385.6 406.24 385.64 403.67 381.99 406.22 384.85 406.66 385.6 406.24"/><path class="cls-5" d="M385.6,407h-.08L191,384.69a.76.76,0,0,1-.66-.75l1-214.92a.75.75,0,0,1,.24-.54.72.72,0,0,1,.56-.2L384.4,180.35a.75.75,0,0,1,.7.75l1.25,225.14a.75.75,0,0,1-.25.56A.71.71,0,0,1,385.6,407ZM191.85,383.27l193,22.13L383.6,181.81l-190.75-12Z"/><polygon class="cls-4" points="385.6 406.24 307.7 484.74 307.7 235.59 385.7 180.56 385.6 406.24"/><path class="cls-5" d="M307.7,485.49a.92.92,0,0,1-.28-.05.76.76,0,0,1-.47-.7V235.59a.75.75,0,0,1,.32-.61l78-55a.75.75,0,0,1,1.18.62l-.1,225.68a.75.75,0,0,1-.22.53l-77.9,78.5A.71.71,0,0,1,307.7,485.49ZM308.45,236V482.92l76.4-77L385,182ZM385.6,406.24h0Z"/><polygon class="cls-6" points="307.7 484.74 108.45 455.81 108.26 217.56 307.7 236.03 307.7 484.74"/><path class="cls-5" d="M307.7,485.49h-.11L108.34,456.55a.76.76,0,0,1-.64-.74l-.19-238.25a.77.77,0,0,1,.25-.56.74.74,0,0,1,.57-.19l199.44,18.48a.74.74,0,0,1,.68.75v248.7a.73.73,0,0,1-.26.57A.72.72,0,0,1,307.7,485.49ZM109.2,455.16,307,483.88V236.72L109,218.38Z"/><polygon class="cls-8" points="269.44 357.06 269.44 341.68 274.45 341.68 274.45 346.69 285.9 346.69 285.9 352.05 274.45 352.05 274.45 357.06 269.44 357.06"/><polygon class="cls-8" points="269.62 295.35 269.62 295.35 269.62 300 269.62 300 269.62 305.37 286.07 305.37 286.07 300 274.99 300 274.99 295.35 286.07 295.35 286.07 289.99 274.99 289.99 269.62 289.99 269.62 289.99 269.62 295.35"/><polygon class="cls-8" points="276.06 256 269.62 251.35 269.62 257.43 276.06 262.08 276.06 262.8 269.62 262.8 269.62 268.16 286.07 268.16 286.07 262.8 279.99 262.8 279.99 261.37 286.07 258.51 286.07 252.07 277.85 257.07 276.06 256"/><path class="cls-8" d="M269.62,276.39v5l16.45,7.16v-5.73l-2.86-.71V276l2.86-1.07v-5.72Zm9.66,4.3L275,278.9l4.3-1.43Z"/><path class="cls-8" d="M269.62,330.41v5l16.45,7.15v-5.72l-2.86-.72v-6.08l2.86-1.07v-5.72Zm9.66,4.29-4.3-1.79,4.3-1.43Z"/><path class="cls-8" d="M269.62,313.05v8.77h16.45v-5.36h-3.94v-3.41a6.25,6.25,0,0,0-6.26-6.25h0A6.25,6.25,0,0,0,269.62,313.05Zm8.23,1.05v2.36H274V314.1a1.94,1.94,0,0,1,3.88,0Z"/><path class="cls-2" d="M340.44,146c4.38-4.91,8.9-9.66,13.42-14.42,1.12-1.19,2.35-2.33,3.53-3.51s2.47-2.22,3.71-3.34,2.59-2.11,3.92-3.12,2.69-2,4.1-2.89A89.94,89.94,0,0,1,387,109.58a91.16,91.16,0,0,1,19.51-5,94,94,0,0,1,10.06-.77c1.68,0,3.36-.07,5,0h4.85a97.14,97.14,0,0,0,19.05-2.16,103.11,103.11,0,0,0,18.41-5.86c6.09-2.45,12.17-4.92,18.34-7.18-5.71,3.27-11.51,6.33-17.31,9.4a99.06,99.06,0,0,1-9,4.23,87.44,87.44,0,0,1-9.49,3.2,89.25,89.25,0,0,1-19.85,3.1c-1.69.07-3.35.08-5,.09s-3.25,0-4.84.09a91.94,91.94,0,0,0-9.52.84A90.17,90.17,0,0,0,388.59,114a98.3,98.3,0,0,0-17.41,8,100.69,100.69,0,0,0-15.64,11.33C350.55,137.65,345.57,141.92,340.44,146Z"/><path class="cls-2" d="M346.07,144.9c3.59-2.4,7.27-4.59,11-6.79a80.2,80.2,0,0,1,11.8-5.61,82.16,82.16,0,0,1,25.69-5.23c1.09,0,2.19,0,3.29-.06l3.16,0c2.08,0,4.16-.13,6.24-.29a111.66,111.66,0,0,0,12.43-1.66c2.05-.38,4.09-.9,6.2-1.35l6.29-1.35c4.21-.83,8.42-1.68,12.69-2.31-4,1.7-8,3.18-12,4.67s-8,2.92-12.25,4.14a79.19,79.19,0,0,1-12.88,2.58c-2.18.26-4.37.42-6.57.51-1.08,0-2.23,0-3.26.07s-2.08,0-3.12.09a108.46,108.46,0,0,0-24.67,3.92,120.41,120.41,0,0,0-11.95,4.11C354.13,141.88,350.15,143.49,346.07,144.9Z"/><path class="cls-4" d="M309.24,231.41,156.58,209.59l26.66-31.47h0c14.3-14.5,39.51-33.92,39.51-54.34l-.19-1L351,132h0c0,20.2.92,43,12.83,59.3l-30.53,21.2Z"/><path class="cls-5" d="M309.24,232.16h-.1L156.47,210.34a.73.73,0,0,1-.59-.48.76.76,0,0,1,.12-.75l26.66-31.48c2.6-2.63,5.49-5.37,8.55-8.26,13.7-13,30.74-29.08,30.79-45.51l-.18-.89a.75.75,0,0,1,.79-.9L351,131.25a.75.75,0,0,1,.69.75c0,20.09,1,42.87,12.69,58.86a.75.75,0,0,1-.18,1l-30.53,21.21-24,18.88A.81.81,0,0,1,309.24,232.16ZM158,209l151,21.58,23.79-18.71,29.94-20.79c-11.42-16.13-12.5-38.52-12.53-58.42l-126.74-9.06a.61.61,0,0,1,0,.14c0,17.1-17.33,33.5-31.26,46.68-3.05,2.88-5.93,5.61-8.47,8.18Z"/><path class="cls-7" d="M222.56,122.82l-.15.9c0,.5,0,1-.06,1.49l2.53-1.77Z"/><path class="cls-7" d="M235.11,124.15l-15,10.52c-.49,1.21-1.06,2.42-1.68,3.62l19.87-13.92Z"/><path class="cls-7" d="M248.51,125.08l-42.14,29.51c-2.45,2.66-5,5.26-7.63,7.78l52.94-37.07Z"/><polygon class="cls-7" points="261.91 126.01 182.88 181.36 182.88 183.8 265.08 126.22 261.91 126.01"/><polygon class="cls-7" points="275.31 126.93 182.88 191.67 182.88 194.11 278.48 127.15 275.31 126.93"/><polygon class="cls-7" points="182.88 201.99 182.88 204.42 291.88 128.08 288.71 127.86 182.88 201.99"/><polygon class="cls-7" points="182.88 214.74 184.35 213.7 182.88 213.49 182.88 214.74"/><polygon class="cls-7" points="302.11 128.79 182.88 212.3 182.88 213.49 184.35 213.7 305.27 129.01 302.11 128.79"/><polygon class="cls-7" points="315.51 129.72 193.69 215.04 196.58 215.45 318.68 129.94 315.51 129.72"/><polygon class="cls-7" points="328.91 130.65 205.92 216.79 208.81 217.2 332.07 130.87 328.91 130.65"/><polygon class="cls-7" points="342.31 131.58 218.15 218.53 221.04 218.95 345.47 131.8 342.31 131.58"/><path class="cls-7" d="M351.51,137.88c0-.81,0-1.62,0-2.43l-.63.44c0,.81,0,1.62,0,2.43Z"/><path class="cls-7" d="M350.87,135.89,230.38,220.28l2.89.41,117.61-82.37C350.88,137.51,350.87,136.7,350.87,135.89Z"/><path class="cls-7" d="M351.71,148.05c0-.79-.06-1.58-.08-2.38l-.61.44c0,.79.05,1.58.08,2.37Z"/><path class="cls-7" d="M351,146.11,242.61,222l2.89.41,105.6-74C351.07,147.69,351,146.9,351,146.11Z"/><path class="cls-7" d="M352.36,157.91c-.07-.76-.14-1.53-.2-2.29l-.59.41c.07.76.14,1.52.22,2.28Z"/><path class="cls-7" d="M351.57,156l-96.73,67.75,2.89.41,94.06-65.88C351.71,157.55,351.64,156.79,351.57,156Z"/><path class="cls-7" d="M353.69,167.3c-.14-.72-.27-1.44-.39-2.17l-.54.38c.12.72.26,1.44.4,2.16Z"/><path class="cls-7" d="M352.76,165.51l-85.69,60,2.89.42,83.2-58.27C353,167,352.88,166.23,352.76,165.51Z"/><path class="cls-7" d="M355.87,176.08c-.21-.67-.41-1.34-.6-2l-.5.35c.2.67.41,1.34.62,2Z"/><path class="cls-7" d="M354.77,174.41,279.3,227.27l2.89.41,73.2-51.26C355.18,175.75,355,175.08,354.77,174.41Z"/><path class="cls-7" d="M359.07,184.15c-.29-.61-.58-1.22-.85-1.84l-.43.3q.42.93.87,1.83Z"/><path class="cls-7" d="M357.79,182.61,291.53,229l2.89.41,64.24-45Q358.21,183.54,357.79,182.61Z"/><path class="cls-7" d="M332.29,212.5l-8.42,6.62,39.56-27.71c-.4-.53-.77-1.08-1.14-1.63l-.36.25c.29.42.58.85.89,1.27Z"/><path class="cls-7" d="M323.87,219.12l8.42-6.62,30.53-21.2c-.31-.42-.6-.85-.89-1.27l-58.17,40.74,2.89.41Z"/><path class="cls-5" d="M308.25,232.16h-.11L155.48,210.34a.76.76,0,0,1-.6-.48.74.74,0,0,1,.13-.75l26.66-31.48c2.74-2.78,5.84-5.68,9.12-8.75C204.54,156,221.66,140,221.66,123.72a.49.49,0,0,1,0-.12l.14-.9a.76.76,0,0,1,.8-.63L351,131.25a.75.75,0,0,1,.69.75v.38c0,19.92,0,42.5,11.69,58.48a.73.73,0,0,1-.17,1l-30.53,21.21-24,18.88A.76.76,0,0,1,308.25,232.16ZM157,209l151,21.58,23.78-18.71,29.95-20.79c-11.48-16.24-11.54-38.6-11.54-58.42l-127-9.08,0,.16c0,16.88-17.39,33.13-31.34,46.19-3.27,3.06-6.36,5.95-9,8.67Z"/><path class="cls-7" d="M222,125.26c0,.82,0,1.65-.06,2.47l.5-.34c0-.83.05-1.65.06-2.48Z"/><path class="cls-7" d="M224.07,136.17c-.14.93-.3,1.85-.47,2.77l.5-.35c.17-.92.34-1.84.48-2.77Z"/><path class="cls-7" d="M221.13,148.55c-.35,1.08-.72,2.15-1.12,3.22l.52-.37c.4-1.06.77-2.13,1.12-3.22Z"/><path class="cls-7" d="M215.45,154.54q-1.29,2.21-2.72,4.34l.57-.4c.94-1.41.84,6.15,1.69,4.68Z"/><path class="cls-5" d="M348,195.16h-.07L187,180.68a.75.75,0,0,1-.66-.58.76.76,0,0,1,.33-.81l17-10.6c13.85-14.06,18.07-24.56,18.07-44.92l.12-1a.74.74,0,0,1,.8-.66L351,131.25a.75.75,0,0,1,.69.75c0,14.24,4.41,19.52,11.7,28.25,2.37,2.84,5.05,6.06,8,10.05a.78.78,0,0,1,.12.61.75.75,0,0,1-.38.5l-14.89,7.76-7.61,15.57A.74.74,0,0,1,348,195.16ZM189.34,179.38l158.19,14.24L355,178.29a.72.72,0,0,1,.33-.34l14.33-7.47c-2.7-3.63-5.19-6.61-7.4-9.27-7.39-8.85-11.9-14.25-12-28.51l-127-9.08,0,.24c0,20.77-4.34,31.52-18.57,45.94a.69.69,0,0,1-.13.11Z"/><path class="cls-4" d="M221.2,165.58c-7.39,12-65.31,29.31-65.31,29.31l-15.46-36.95,82.13-35.12S228.58,153.59,221.2,165.58Z"/><path class="cls-5" d="M155.89,195.64a.76.76,0,0,1-.69-.46l-15.46-37a.75.75,0,0,1,.39-1l82.13-35.12a.78.78,0,0,1,.65,0,.75.75,0,0,1,.38.52c.25,1.27,6,31.2-1.46,43.3h0c-7.44,12.1-63.35,28.92-65.72,29.63A.6.6,0,0,1,155.89,195.64Zm-14.48-37.31L156.32,194c6.37-1.94,57.5-17.84,64.24-28.78h0c6.44-10.47,2.34-36.14,1.43-41.31Z"/><path class="cls-4" d="M385.54,180.47l-78.28,55.35-25.44-4.28,4.7-61.63L351,132l1.29,4.3c5.48,16.74,18.38,32.43,32.28,43.17h0Z"/><path class="cls-5" d="M307.26,236.57h-.12l-25.44-4.28a.76.76,0,0,1-.62-.8l4.69-61.62a.75.75,0,0,1,.37-.59l64.46-37.91a.74.74,0,0,1,1.1.43l1.29,4.3c4.95,15.12,16.92,31.12,32,42.79l1.07,1.07a.75.75,0,0,1,.21.59.76.76,0,0,1-.31.55l-78.29,55.35A.73.73,0,0,1,307.26,236.57Zm-24.64-5.66L307.08,235l77.31-54.66L384,180c-15.25-11.78-27.41-28.05-32.46-43.47l-1-3.4-63.3,37.23Z"/><path class="cls-6" d="M107.93,217.89s32.37-37.16,32.37-57.57v-1.69l144.7,11h1.59c0,20.19,4.58,44.22,16.49,60.49l4,5.46Z"/><path class="cls-5" d="M307.08,236.36H307L107.86,218.64a.76.76,0,0,1-.63-.47.73.73,0,0,1,.13-.77c.32-.37,32.19-37.18,32.19-57.08v-1.69a.75.75,0,0,1,.81-.75l144.7,11h1.53a.74.74,0,0,1,.75.75c0,23.62,6.11,46.07,16.34,60.05l4,5.46a.74.74,0,0,1,.05.81A.73.73,0,0,1,307.08,236.36ZM109.44,217.27l196.05,17.45-3-4.13c-14.69-20.07-16.55-48.23-16.62-60.18H285l-143.95-11v.88C141.05,179,114.91,210.83,109.44,217.27Z"/><path class="cls-1" d="M290.74,186a45.5,45.5,0,0,0-4.49,20.31c0,10.78,3.3,22.24,8.37,28.13l12.45-1.92c-3.59-4.28-18.71-21.43-18.71-33.8A34.26,34.26,0,0,1,290.74,186Z"/><path class="cls-2" d="M326.87,206.29A45.5,45.5,0,0,0,322.38,186a34.22,34.22,0,0,1,2.38,12.72c0,12.37-14.09,29.52-17.69,33.8l9.1-2.45C321.24,224.16,326.87,217.07,326.87,206.29Z"/><path class="cls-3" d="M322.38,186c-.39-.78-.81-1.52-1.25-2.24-3.69-6.06-8.85-9.85-14.57-9.85a14,14,0,0,0-8,2.6,24.8,24.8,0,0,0-7.86,9.49,34.26,34.26,0,0,0-2.38,12.72c0,12.37,15.12,29.52,18.71,33.8h0c-3.27-7.43-11.57-19.7-11.57-26.21,0-5.57,1.63-10.53,4.16-13.77,1.89-2.41,4.29-3.86,6.9-3.86a8.31,8.31,0,0,1,5.83,2.67c3.13,3.11,5.23,8.64,5.23,15,0,6.51-7.27,18.78-10.55,26.21h.35c3.6-4.28,17.34-21.43,17.34-33.8A34.22,34.22,0,0,0,322.38,186Z"/><polygon class="cls-2" points="316.17 475.14 307.41 483.9 306.02 233.55 316.17 223.32 316.17 475.14"/><polygon class="cls-1" points="307.41 483.9 294.34 482.05 294.34 232.17 307.07 232.5 307.41 483.9"/><path class="cls-2" d="M121.73,163.5c4.83,9.23,8.27,26.71-2,54.37l-9.89-7s9.65-33.75-2.72-47.12l-.7-3.08.61-.46A9.88,9.88,0,0,1,121.73,163.5Z"/><polygon class="cls-1" points="120.34 456.76 107.71 454.97 107.13 216.87 119.73 217.87 120.34 456.76"/><path class="cls-3" d="M114.15,158.27s-23.39,14.5,5.58,59.6l-12.6-1a65,65,0,0,1-12-45c.51-4.37,4.21-11.14,7.66-12.11C110.4,157.62,114.15,158.27,114.15,158.27Z"/><polygon class="cls-2" points="386.35 404.74 376.04 414.65 376.04 187.4 386.49 180.11 386.35 404.74"/><path class="cls-3" d="M373.76,133.52c-4.83,9.24-8,26.21,2.28,53.88l9.61-6.53s-9.65-33.75,2.71-47.12l.71-3.08-.61-.46A9.89,9.89,0,0,0,373.76,133.52Z"/><path class="cls-2" d="M381.34,128.3s23.67,14-5.3,59.1l9.61-6.53s17.75-12.63,14.68-39c-.51-4.36-4.22-11.13-7.66-12.1C385.08,127.64,381.34,128.3,381.34,128.3Z"/></svg>