<svg id="Слой_1" data-name="Слой 1" xmlns="http://www.w3.org/2000/svg" viewBox="0 0 499.89 669.62"><defs><style>.cls-1{fill:#ccc;}.cls-2{fill:#444;}.cls-3{fill:#f9f9f9;}.cls-4{fill:#bfbfbf;}.cls-5{fill:#0084b2;}.cls-6{fill:#99c6d6;}.cls-7{fill:#2cc8ff;}.cls-8{fill:#00a5eb;}</style></defs><title>к</title><polygon class="cls-1" points="193.1 236.98 108.92 338.08 107.92 217.89 192.1 168.94 193.1 236.98"/><path class="cls-2" d="M108.93,338.83a.78.78,0,0,1-.26,0,.76.76,0,0,1-.49-.7l-1-120.19a.75.75,0,0,1,.37-.66l84.18-49a.74.74,0,0,1,1.12.63l1,68.05a.67.67,0,0,1-.17.49L109.5,338.56A.76.76,0,0,1,108.93,338.83Zm-.25-120.51,1,117.71,82.69-99.31-1-66.49Z"/><polygon class="cls-3" points="108.39 443.98 307.63 462.05 385.63 405.87 192.81 394.91 108.39 443.98"/><path class="cls-2" d="M307.64,462.8h-.07L108.32,444.72a.75.75,0,0,1-.67-.58.75.75,0,0,1,.36-.81l84.43-49.06a.73.73,0,0,1,.42-.11l192.82,11a.75.75,0,0,1,.67.54.74.74,0,0,1-.28.82l-78,56.18A.74.74,0,0,1,307.64,462.8ZM110.8,443.44l196.62,17.84,76.06-54.78L193,395.68Z"/><path class="cls-1" d="M300.46,430.27c-11.72,7.75-45,12.4-74.63,10.33-23.13-1.62-37-6.86-36.35-12.79.18-1.72,1.59-3.51,4.36-5.28,12.2-7.81,46-12.3,75.29-10.1,21.77,1.63,35.05,6.52,35.43,12.11C304.68,426.4,303.37,428.34,300.46,430.27Z"/><path class="cls-2" d="M240.17,441.84c-4.83,0-9.66-.16-14.39-.49-18.31-1.28-31.66-4.94-35.72-9.79a5.05,5.05,0,0,1-1.33-3.83c.22-2,1.8-4,4.7-5.83,12.27-7.85,46.25-12.43,75.75-10.22,21.87,1.64,35.71,6.55,36.12,12.81.15,2.21-1.34,4.36-4.43,6.4C290.92,437.47,265.55,441.84,240.17,441.84Zm13.55-29.22c-24.8,0-49.52,4.17-59.48,10.54-2.47,1.58-3.86,3.22-4,4.73a3.65,3.65,0,0,0,1,2.71c3.74,4.47,17,8,34.67,9.25,29.28,2,62.55-2.53,74.16-10.21h0c1.8-1.18,3.9-3,3.77-5.05-.3-4.41-11.15-9.64-34.74-11.41C264,412.8,258.88,412.62,253.72,412.62Z"/><path class="cls-4" d="M207.83,416.74l-18,12.58a5.66,5.66,0,0,0,1.09,1.68l22.27-15.52C211.29,415.87,209.52,416.3,207.83,416.74Z"/><path class="cls-4" d="M227.85,413.09l-31.08,21.65c.71.3,1.47.59,2.28.88l33-23C230.62,412.77,229.22,412.92,227.85,413.09Z"/><path class="cls-4" d="M244.54,411.77l-37.4,26.06c.89.19,1.81.37,2.75.54l38.35-26.72C247,411.68,245.77,411.72,244.54,411.77Z"/><path class="cls-4" d="M259.5,411.65l-40.26,28.06,3.06.31,40.54-28.25C261.73,411.72,260.62,411.68,259.5,411.65Z"/><path class="cls-4" d="M273.12,412.47l-40.44,28.19c1.12,0,2.24.07,3.37.09l40.1-27.95Z"/><path class="cls-4" d="M285.41,414.22l-38,26.46c1.24,0,2.47-.08,3.7-.14l37-25.75Z"/><path class="cls-4" d="M296.06,417.12l-32.2,22.44c1.43-.16,2.83-.32,4.21-.5l30.17-21C297.56,417.72,296.83,417.42,296.06,417.12Z"/><path class="cls-4" d="M304.56,424a4.31,4.31,0,0,0-.79-1.89L283.2,436.39c2-.46,3.85-.95,5.61-1.47Z"/><polygon class="cls-5" points="282.24 476.04 285.13 475.63 286.06 478.66 281.73 479.59 282.24 476.04"/><path class="cls-2" d="M240.17,441.84c-4.83,0-9.66-.16-14.39-.49-18.31-1.28-31.66-4.94-35.72-9.79a5.05,5.05,0,0,1-1.33-3.83c.22-2,1.8-4,4.7-5.83,12.27-7.85,46.25-12.43,75.75-10.22,21.87,1.64,35.71,6.55,36.12,12.81.15,2.21-1.34,4.36-4.43,6.4C290.92,437.47,265.55,441.84,240.17,441.84Zm13.55-29.22c-24.8,0-49.52,4.17-59.48,10.54-2.47,1.58-3.86,3.22-4,4.73a3.65,3.65,0,0,0,1,2.71c3.74,4.47,17,8,34.67,9.25,29.28,2,62.55-2.53,74.16-10.21h0c1.8-1.18,3.9-3,3.77-5.05-.3-4.41-11.15-9.64-34.74-11.41C264,412.8,258.88,412.62,253.72,412.62Z"/><polygon class="cls-1" points="385.23 406.34 191.1 383.94 192.1 169.03 384.35 181.1 385.23 406.34"/><path class="cls-2" d="M385.23,407.09h-.08L191,384.69a.76.76,0,0,1-.66-.75l1-214.92a.75.75,0,0,1,.24-.54.72.72,0,0,1,.56-.2L384.4,180.35a.75.75,0,0,1,.7.75L386,406.34a.75.75,0,0,1-.25.56A.76.76,0,0,1,385.23,407.09ZM191.85,383.27,384.48,405.5l-.88-223.69-190.75-12Z"/><polygon class="cls-4" points="196.91 170.25 192.39 173.09 192.39 175.52 200.14 170.43 196.91 170.25"/><polygon class="cls-4" points="210.58 171.03 191.39 184.4 191.39 186.84 213.81 171.21 210.58 171.03"/><polygon class="cls-4" points="224.25 171.81 191.39 194.71 191.39 197.15 227.49 172 224.25 171.81"/><polygon class="cls-4" points="237.93 172.6 191.39 205.03 191.39 207.46 241.16 172.78 237.93 172.6"/><polygon class="cls-4" points="251.61 173.38 191.39 215.34 191.39 217.78 254.84 173.56 251.61 173.38"/><polygon class="cls-4" points="265.28 174.16 191.39 225.65 191.39 228.09 268.51 174.35 265.28 174.16"/><polygon class="cls-4" points="278.96 174.95 191.39 235.96 191.39 238.4 282.19 175.13 278.96 174.95"/><polygon class="cls-4" points="292.63 175.73 191.39 246.28 191.39 248.72 295.86 175.92 292.63 175.73"/><polygon class="cls-4" points="306.31 176.51 191.39 256.59 191.39 259.03 309.54 176.7 306.31 176.51"/><polygon class="cls-4" points="319.98 177.3 191.39 266.9 191.39 269.34 323.21 177.48 319.98 177.3"/><polygon class="cls-4" points="333.66 178.08 191.39 277.22 191.39 279.65 336.89 178.27 333.66 178.08"/><polygon class="cls-4" points="347.33 178.87 191.39 287.53 191.39 289.97 350.56 179.05 347.33 178.87"/><polygon class="cls-4" points="361.01 179.65 191.39 297.84 191.39 300.28 364.24 179.84 361.01 179.65"/><polygon class="cls-4" points="374.68 180.43 191.39 308.16 191.39 310.59 377.91 180.62 374.68 180.43"/><polygon class="cls-4" points="384.64 183.81 191.39 318.47 191.39 320.91 384.64 186.24 384.64 183.81"/><polygon class="cls-4" points="384.64 194.12 191.39 328.78 191.39 331.22 384.64 196.56 384.64 194.12"/><polygon class="cls-4" points="384.64 204.43 191.39 339.1 191.39 341.53 384.64 206.87 384.64 204.43"/><polygon class="cls-4" points="384.64 214.74 191.39 349.41 191.39 351.85 384.64 217.18 384.64 214.74"/><polygon class="cls-4" points="384.64 225.06 191.39 359.72 191.39 362.16 384.64 227.49 384.64 225.06"/><polygon class="cls-4" points="384.64 235.37 191.39 370.04 191.39 372.47 384.64 237.81 384.64 235.37"/><polygon class="cls-4" points="384.64 245.68 191.39 380.35 191.39 382.79 384.64 248.12 384.64 245.68"/><polygon class="cls-4" points="384.64 256 199.4 385.08 202.26 385.53 384.64 258.43 384.64 256"/><polygon class="cls-4" points="384.64 266.29 211.48 386.96 214.37 387.4 384.64 268.75 384.64 266.29"/><polygon class="cls-4" points="384.64 276.6 223.59 388.83 226.48 389.28 384.64 279.06 384.64 276.6"/><polygon class="cls-4" points="384.64 286.91 235.7 390.71 238.56 391.15 384.64 289.35 384.64 286.91"/><polygon class="cls-4" points="384.64 297.23 247.81 392.58 250.66 393.03 384.64 299.66 384.64 297.23"/><polygon class="cls-4" points="384.64 307.54 259.91 394.46 262.77 394.9 384.64 309.98 384.64 307.54"/><polygon class="cls-4" points="384.64 317.85 272.02 396.33 274.88 396.78 384.64 320.29 384.64 317.85"/><polygon class="cls-4" points="384.64 328.17 284.13 398.21 286.99 398.65 384.64 330.6 384.64 328.17"/><polygon class="cls-4" points="384.64 338.48 296.24 400.09 299.1 400.53 384.64 340.92 384.64 338.48"/><polygon class="cls-4" points="384.64 348.79 308.35 401.96 311.21 402.4 384.64 351.23 384.64 348.79"/><polygon class="cls-4" points="384.64 359.11 320.45 403.84 323.31 404.28 384.64 361.54 384.64 359.11"/><polygon class="cls-4" points="384.64 369.42 332.56 405.71 335.42 406.16 384.64 371.86 384.64 369.42"/><polygon class="cls-4" points="384.64 379.73 344.67 407.59 347.53 408.03 384.64 382.17 384.64 379.73"/><polygon class="cls-4" points="384.64 390.05 356.78 409.46 359.64 409.91 384.64 392.48 384.64 390.05"/><polygon class="cls-4" points="384.64 400.36 368.89 411.34 371.75 411.78 384.64 402.8 384.64 400.36"/><polygon class="cls-4" points="385.64 406.11 385.64 403.67 381.99 406.22 384.85 406.66 385.64 406.11"/><path class="cls-2" d="M385.35,406.91h-.09L191,384.69a.76.76,0,0,1-.66-.75l1-214.92a.75.75,0,0,1,.24-.54.72.72,0,0,1,.56-.2L384.4,180.35a.75.75,0,0,1,.7.75l1,225.05a.75.75,0,0,1-.75.76Zm-193.5-23.64,192.74,22.05-1-223.51-190.75-12Z"/><polygon class="cls-1" points="385.7 405.95 307.7 484.74 307.7 235.59 385.7 180.56 385.7 405.95"/><path class="cls-2" d="M307.7,485.49a.92.92,0,0,1-.28-.05.76.76,0,0,1-.47-.7V235.59a.75.75,0,0,1,.32-.61l78-55a.75.75,0,0,1,1.18.62V406a.74.74,0,0,1-.21.53l-78,78.79A.75.75,0,0,1,307.7,485.49ZM308.45,236V482.92L385,405.64V182Z"/><polygon class="cls-3" points="307.7 484.74 108.45 455.81 108.45 217.55 307.7 236.03 307.7 484.74"/><path class="cls-2" d="M307.7,485.49h-.1L108.34,456.55a.75.75,0,0,1-.64-.75V217.55A.77.77,0,0,1,108,217a.74.74,0,0,1,.57-.19l199.25,18.49a.74.74,0,0,1,.68.75v248.7a.73.73,0,0,1-.26.57A.72.72,0,0,1,307.7,485.49ZM109.2,455.16,307,483.88V236.72L109.2,218.37Z"/><polygon class="cls-6" points="269.44 357.06 269.44 341.68 274.45 341.68 274.45 346.69 285.9 346.69 285.9 352.05 274.45 352.05 274.45 357.06 269.44 357.06"/><polygon class="cls-6" points="269.62 295.35 269.62 295.35 269.62 300 269.62 300 269.62 305.37 286.07 305.37 286.07 300 274.99 300 274.99 295.35 286.07 295.35 286.07 289.99 274.99 289.99 269.62 289.99 269.62 289.99 269.62 295.35"/><polygon class="cls-6" points="276.06 256 269.62 251.35 269.62 257.43 276.06 262.08 276.06 262.8 269.62 262.8 269.62 268.16 286.07 268.16 286.07 262.8 279.99 262.8 279.99 261.37 286.07 258.51 286.07 252.07 277.85 257.07 276.06 256"/><path class="cls-6" d="M269.62,276.39v5l16.45,7.16v-5.73l-2.86-.71V276l2.86-1.07v-5.72Zm9.66,4.3L275,278.9l4.3-1.43Z"/><path class="cls-6" d="M269.62,330.41v5l16.45,7.15v-5.72l-2.86-.72v-6.08l2.86-1.07v-5.72Zm9.66,4.29-4.3-1.79,4.3-1.43Z"/><path class="cls-6" d="M269.62,313.05v8.77h16.45v-5.36h-3.94v-3.41a6.25,6.25,0,0,0-6.26-6.25h0A6.25,6.25,0,0,0,269.62,313.05Zm8.23,1.05v2.36H274V314.1a1.94,1.94,0,0,1,3.88,0Z"/><path class="cls-7" d="M175.57,121.73A45.43,45.43,0,0,0,171.08,142c0,10.77,8.38,24.54,13.45,30.43l7.38-4.23c-3.6-4.28-18.71-21.43-18.71-33.8A34.17,34.17,0,0,1,175.57,121.73Z"/><path class="cls-5" d="M211.71,142a45.64,45.64,0,0,0-4.49-20.32,34.46,34.46,0,0,1,2.37,12.72c0,12.37-14.08,29.52-17.68,33.8l9.42.62C206.4,163,211.71,152.81,211.71,142Z"/><path class="cls-8" d="M207.22,121.72c-.4-.78-.82-1.52-1.25-2.24-3.7-6.06-8.86-9.84-14.58-9.84a14,14,0,0,0-8,2.59,24.84,24.84,0,0,0-7.86,9.5,34.17,34.17,0,0,0-2.37,12.71c0,12.37,13.62,30.38,17.22,34.66l1.49-.86c-3.28-7.43-11.57-19.7-11.57-26.2,0-5.58,1.62-10.54,4.16-13.77,1.89-2.42,4.28-3.87,6.89-3.87a8.33,8.33,0,0,1,5.84,2.67c3.13,3.12,5.22,8.64,5.22,15,0,6.5-7.27,18.77-10.54,26.2h.34c3.6-4.28,17.34-21.43,17.34-33.8A34.46,34.46,0,0,0,207.22,121.72Z"/><polygon class="cls-3" points="86.47 185.89 285.72 201.97 385.6 180.48 193.35 167.96 86.47 185.89"/><path class="cls-2" d="M285.72,202.72h-.06L86.41,186.64a.75.75,0,0,1-.07-1.49l106.89-17.93h.17l192.25,12.51a.76.76,0,0,1,.7.69.74.74,0,0,1-.59.79L285.88,202.7ZM92.56,185.63l193.11,15.58,94.51-20.33L193.39,168.72Z"/><path class="cls-7" d="M290.74,186a45.5,45.5,0,0,0-4.49,20.31c0,10.78,3.3,22.24,8.37,28.13l12.45-1.92c-3.59-4.28-18.71-21.43-18.71-33.8A34.26,34.26,0,0,1,290.74,186Z"/><path class="cls-5" d="M326.87,206.29A45.5,45.5,0,0,0,322.38,186a34.22,34.22,0,0,1,2.38,12.72c0,12.37-14.09,29.52-17.69,33.8l9.1-2.45C321.24,224.16,326.87,217.07,326.87,206.29Z"/><path class="cls-8" d="M322.38,186c-.39-.78-.81-1.52-1.25-2.24-3.69-6.06-8.85-9.85-14.57-9.85a14,14,0,0,0-8,2.6,24.8,24.8,0,0,0-7.86,9.49,34.26,34.26,0,0,0-2.38,12.72c0,12.37,15.12,29.52,18.71,33.8h0c-3.27-7.43-11.57-19.7-11.57-26.21,0-5.57,1.63-10.53,4.16-13.77,1.89-2.41,4.29-3.86,6.9-3.86a8.31,8.31,0,0,1,5.83,2.67c3.13,3.11,5.23,8.64,5.23,15,0,6.51-7.27,18.78-10.55,26.21h.35c3.6-4.28,17.34-21.43,17.34-33.8A34.22,34.22,0,0,0,322.38,186Z"/><polygon class="cls-5" points="316.17 361.61 307.41 370.37 306.02 233.55 316.17 223.32 316.17 361.61"/><polygon class="cls-7" points="307.41 370.37 294.34 368.52 294.34 232.17 307.07 232.5 307.41 370.37"/><path class="cls-5" d="M121.73,163.5c4.83,9.23,8.27,26.71-2,54.37l-9.89-7s9.65-33.75-2.72-47.12l-.7-3.08.61-.46A9.88,9.88,0,0,1,121.73,163.5Z"/><polygon class="cls-7" points="120.34 343.24 107.71 341.44 107.13 216.87 119.73 217.87 120.34 343.24"/><path class="cls-8" d="M114.15,158.27s-23.39,14.5,5.58,59.6l-12.6-1a65,65,0,0,1-12-45c.51-4.37,4.21-11.14,7.66-12.11C110.4,157.62,114.15,158.27,114.15,158.27Z"/><polygon class="cls-5" points="386.36 291.21 376.04 301.13 376.04 187.4 386.49 180.11 386.36 291.21"/><path class="cls-8" d="M373.76,133.52c-4.83,9.24-8,26.21,2.28,53.88l9.61-6.53s-9.65-33.75,2.71-47.12l.71-3.08-.61-.46A9.89,9.89,0,0,0,373.76,133.52Z"/><path class="cls-5" d="M381.34,128.3s23.67,14-5.3,59.1l9.61-6.53s17.75-12.63,14.68-39c-.51-4.36-4.22-11.13-7.66-12.1C385.08,127.64,381.34,128.3,381.34,128.3Z"/></svg>