<svg width="500" height="670" viewBox="0 0 500 670" fill="none" xmlns="http://www.w3.org/2000/svg">
<path d="M334.32 69.9999C323.485 62.5746 311.127 57.6649 298.15 55.6299V55.6299C295.7 55.2499 293.26 54.9699 290.85 54.7899C282.2 54.1599 273.74 55.5199 265.33 56.7899C219.22 63.7899 184.33 101.87 183.23 146.63C183.23 147.25 183.23 147.87 183.23 148.5C183.23 148.79 183.23 149.07 183.23 149.36V402.52L207.12 404.79V151.64C207.12 106.11 249.37 70.6399 290.91 72.8699C293.32 73.0099 295.75 73.2599 298.21 73.6399C307.907 75.1671 317.18 78.6952 325.44 83.9999C351.06 100.32 367.04 132.41 369.44 166.44V163.7C369.47 128.18 356.52 93.5199 334.32 69.9999Z" fill="#2CC8FF"/>
<path d="M193.1 236.98L108.92 338.08L108.26 217.56L192.1 168.94L193.1 236.98Z" fill="#CCCCCC"/>
<path d="M108.93 338.83C108.844 338.845 108.756 338.845 108.67 338.83C108.526 338.775 108.402 338.678 108.315 338.551C108.227 338.425 108.18 338.274 108.18 338.12L107.51 217.6C107.508 217.469 107.542 217.339 107.607 217.225C107.672 217.111 107.766 217.016 107.88 216.95L191.73 168.33C191.842 168.263 191.97 168.227 192.1 168.225C192.231 168.223 192.359 168.256 192.473 168.32C192.587 168.384 192.681 168.477 192.748 168.589C192.814 168.702 192.849 168.83 192.85 168.96L193.85 237.01C193.856 237.099 193.844 237.188 193.814 237.272C193.785 237.356 193.74 237.434 193.68 237.5L109.5 338.56C109.43 338.643 109.343 338.71 109.244 338.757C109.146 338.804 109.039 338.829 108.93 338.83V338.83ZM109 218L109.65 336L192.34 236.7L191.34 170.21L109 218Z" fill="#444444"/>
<path d="M287.56 534.37C290.1 530.02 292.82 525.81 295.56 521.59C296.92 519.51 298.35 517.38 299.88 515.34C301.432 513.295 303.101 511.341 304.88 509.49C308.438 505.716 312.472 502.422 316.88 499.69C319.107 498.321 321.426 497.108 323.82 496.06C325.05 495.58 326.26 495.06 327.5 494.67C328.74 494.28 330 493.83 331.29 493.56L333.21 493.1C333.85 492.97 334.51 492.88 335.15 492.77C336.45 492.52 337.76 492.41 339.07 492.28C340.38 492.15 341.71 492.19 343.02 492.14H346.76C351.539 492.167 356.296 491.493 360.88 490.14C365.539 488.713 370.003 486.715 374.17 484.19C378.54 481.72 382.89 479.24 387.37 476.95C383.5 480.17 379.51 483.2 375.52 486.24C373.489 487.797 371.362 489.223 369.15 490.51C366.908 491.8 364.567 492.91 362.15 493.83C357.257 495.725 352.075 496.767 346.83 496.91C345.53 496.96 344.3 496.91 343.06 496.98C341.82 497.05 340.69 497.03 339.51 497.19C338.33 497.35 337.16 497.42 335.99 497.66C335.41 497.77 334.83 497.85 334.25 497.97L332.52 498.4C323.27 500.64 314.85 505.79 307.62 512.26C303.975 515.581 300.586 519.171 297.48 523C294.23 526.86 291 530.68 287.56 534.37Z" fill="#0084B2"/>
<path d="M291.53 533.24C293.76 530.99 296.12 528.93 298.53 526.85C300.96 524.736 303.601 522.876 306.41 521.3C312.116 518.072 318.463 516.143 325 515.65C326.61 515.53 328.38 515.56 329.77 515.53C331.16 515.5 332.77 515.41 334.2 515.26C337.174 514.95 340.117 514.395 343 513.6C344.44 513.22 345.88 512.74 347.4 512.26C348.92 511.78 350.4 511.34 351.9 510.91C354.9 510.06 357.9 509.2 361.04 508.56C358.35 510.23 355.58 511.7 352.81 513.18C351.417 513.913 350.02 514.623 348.62 515.31C347.24 516 345.79 516.72 344.27 517.31C341.241 518.543 338.08 519.425 334.85 519.94C333.227 520.2 331.592 520.37 329.95 520.45C328.23 520.51 326.87 520.45 325.37 520.62C319.424 521.064 313.591 522.476 308.1 524.8C305.288 525.958 302.552 527.294 299.91 528.8C297.14 530.36 294.4 531.89 291.53 533.24Z" fill="#0084B2"/>
<path d="M201.22 534.59C200.71 539.3 211.86 543.46 230.46 544.75C254.24 546.39 281.04 542.75 290.46 536.54C292.8 535.01 293.85 533.47 293.76 531.99V437.67L201.22 440.27V534.59Z" fill="#F9F9F9"/>
<path d="M242 545.88C238.11 545.88 234.23 545.76 230.42 545.5C215.62 544.5 204.84 541.5 201.58 537.64C201.196 537.227 200.901 536.74 200.714 536.208C200.526 535.677 200.45 535.112 200.49 534.55V440.27C200.49 440.074 200.566 439.887 200.703 439.747C200.839 439.606 201.025 439.525 201.22 439.52L293.75 436.92C293.852 436.912 293.953 436.927 294.049 436.963C294.144 437 294.23 437.057 294.3 437.13C294.372 437.2 294.43 437.284 294.469 437.377C294.509 437.47 294.529 437.569 294.53 437.67V532C294.65 533.77 293.42 535.52 290.89 537.18C282.85 542.41 262.41 545.88 242 545.88ZM202 441V534.68C201.979 535.046 202.034 535.413 202.161 535.757C202.288 536.102 202.485 536.416 202.74 536.68C205.69 540.21 216.35 543.02 230.54 544C254.06 545.63 280.76 542 290.08 535.91C291.49 534.99 293.14 533.58 293.08 532.04V438.44L202 441Z" fill="#444444"/>
<path d="M108.86 445.15L307.11 463.22L385.11 406.04L192.29 396.08L108.86 445.15Z" fill="#F9F9F9"/>
<path d="M307.11 464H307L108.79 445.89C108.633 445.874 108.485 445.809 108.367 445.705C108.249 445.6 108.167 445.461 108.133 445.307C108.098 445.153 108.113 444.992 108.176 444.847C108.238 444.702 108.345 444.581 108.48 444.5L191.91 395.44C192.034 395.359 192.183 395.324 192.33 395.34L385.15 405.34C385.305 405.35 385.453 405.407 385.575 405.503C385.696 405.6 385.785 405.731 385.83 405.88C385.874 406.029 385.87 406.187 385.82 406.334C385.77 406.481 385.676 406.609 385.55 406.7L307.55 463.88C307.419 463.963 307.265 464.005 307.11 464V464ZM111.25 444.61L306.89 462.45L383 406.68L192.51 396.85L111.25 444.61Z" fill="#444444"/>
<path d="M288.63 430.16C279.21 436.32 252.41 440.01 228.63 438.37C210.03 437.08 198.89 432.92 199.4 428.21C199.55 426.84 200.69 425.43 202.91 424.02C212.72 417.82 239.91 414.25 263.45 416.02C280.95 417.32 291.64 421.2 291.93 425.63C292 427.09 291 428.64 288.63 430.16Z" fill="#CCCCCC"/>
<path d="M240.14 439.51C236.26 439.51 232.37 439.38 228.57 439.12C213.77 438.12 202.98 435.12 199.73 431.26C199.341 430.843 199.043 430.349 198.857 429.81C198.671 429.271 198.601 428.698 198.65 428.13C198.83 426.49 200.12 424.89 202.5 423.39C212.38 417.14 239.74 413.49 263.5 415.25C281.16 416.56 292.34 420.51 292.68 425.56C292.8 427.38 291.58 429.14 289.05 430.79C281 436 260.58 439.51 240.14 439.51ZM251 416.3C231.09 416.3 211.25 419.6 203.26 424.65C201.32 425.88 200.26 427.14 200.1 428.29C200.079 428.656 200.133 429.023 200.261 429.367C200.388 429.712 200.585 430.026 200.84 430.29C203.84 433.82 214.44 436.63 228.64 437.61C252.15 439.24 278.86 435.61 288.18 429.53C289.58 428.61 291.24 427.19 291.18 425.65C290.95 422.34 282.18 418.13 263.38 416.74C259.34 416.45 255.18 416.3 251 416.3Z" fill="#444444"/>
<path d="M213.94 419.83L199.94 429.62C200.193 430.242 200.579 430.802 201.07 431.26L219.26 418.59C217.36 419 215.6 419.39 213.94 419.83Z" fill="#BFBFBF"/>
<path d="M233.56 416.47L207.41 434.7C208.16 434.96 208.97 435.21 209.82 435.45L237.56 416.12C236.21 416.22 234.88 416.34 233.56 416.47Z" fill="#BFBFBF"/>
<path d="M249.6 415.61L218.51 437.28C219.45 437.42 220.42 437.56 221.42 437.68L253.1 415.61H249.6Z" fill="#BFBFBF"/>
<path d="M263.78 416L231.46 438.52C232.56 438.58 233.66 438.63 234.76 438.66L266.9 416.27C265.88 416.197 264.84 416.107 263.78 416Z" fill="#BFBFBF"/>
<path d="M276.33 417.61L246 438.72C247.24 438.72 248.48 438.63 249.71 438.57L279 418.16C278.17 418 277.27 417.79 276.33 417.61Z" fill="#BFBFBF"/>
<path d="M286.84 420.6L262.66 437.45C264.15 437.26 265.61 437.06 267.04 436.83L288.87 421.62C288.213 421.242 287.535 420.902 286.84 420.6Z" fill="#BFBFBF"/>
<path d="M291.79 427.46L284.79 432.31C286.257 431.741 287.666 431.034 289 430.2C290.135 429.522 291.092 428.582 291.79 427.46V427.46Z" fill="#BFBFBF"/>
<path d="M240.14 439.51C236.26 439.51 232.37 439.38 228.57 439.12C213.77 438.12 202.98 435.12 199.73 431.26C199.341 430.843 199.043 430.349 198.857 429.81C198.671 429.271 198.601 428.698 198.65 428.13C198.83 426.49 200.12 424.89 202.5 423.39C212.38 417.14 239.74 413.49 263.5 415.25C281.16 416.56 292.34 420.51 292.68 425.56C292.8 427.38 291.58 429.14 289.05 430.79C281 436 260.58 439.51 240.14 439.51ZM251 416.3C231.09 416.3 211.25 419.6 203.26 424.65C201.32 425.88 200.26 427.14 200.1 428.29C200.079 428.656 200.133 429.023 200.261 429.367C200.388 429.712 200.585 430.026 200.84 430.29C203.84 433.82 214.44 436.63 228.64 437.61C252.15 439.24 278.86 435.61 288.18 429.53C289.58 428.61 291.24 427.19 291.18 425.65C290.95 422.34 282.18 418.13 263.38 416.74C259.34 416.45 255.18 416.3 251 416.3Z" fill="#444444"/>
<path d="M385.6 406.24L191.1 383.94L192.1 169.03L384.35 181.1L385.6 406.24Z" fill="#CCCCCC"/>
<path d="M385.6 407H385.52L191 384.69C190.816 384.668 190.647 384.58 190.523 384.442C190.4 384.304 190.331 384.125 190.33 383.94L191.33 169.02C191.331 168.919 191.353 168.818 191.395 168.726C191.436 168.633 191.496 168.549 191.57 168.48C191.643 168.408 191.731 168.353 191.828 168.319C191.925 168.284 192.028 168.271 192.13 168.28L384.4 180.35C384.59 180.363 384.768 180.447 384.898 180.587C385.028 180.726 385.101 180.91 385.1 181.1L386.35 406.24C386.35 406.346 386.328 406.45 386.285 406.547C386.242 406.643 386.179 406.73 386.1 406.8C385.965 406.928 385.786 407 385.6 407V407ZM191.85 383.27L384.85 405.4L383.6 181.81L192.85 169.81L191.85 383.27Z" fill="#444444"/>
<path d="M196.91 170.25L192.39 173.09V175.52L200.14 170.43L196.91 170.25Z" fill="#BFBFBF"/>
<path d="M210.58 171.03L191.39 184.4V186.84L213.81 171.21L210.58 171.03Z" fill="#BFBFBF"/>
<path d="M224.25 171.81L191.39 194.71V197.15L227.49 172L224.25 171.81Z" fill="#BFBFBF"/>
<path d="M237.93 172.6L191.39 205.03V207.46L241.16 172.78L237.93 172.6Z" fill="#BFBFBF"/>
<path d="M251.61 173.38L191.39 215.34V217.78L254.84 173.56L251.61 173.38Z" fill="#BFBFBF"/>
<path d="M265.28 174.16L191.39 225.65V228.09L268.51 174.35L265.28 174.16Z" fill="#BFBFBF"/>
<path d="M278.96 174.95L191.39 235.96V238.4L282.19 175.13L278.96 174.95Z" fill="#BFBFBF"/>
<path d="M292.63 175.73L191.39 246.28V248.72L295.86 175.92L292.63 175.73Z" fill="#BFBFBF"/>
<path d="M306.31 176.51L191.39 256.59V259.03L309.54 176.7L306.31 176.51Z" fill="#BFBFBF"/>
<path d="M319.98 177.3L191.39 266.9V269.34L323.21 177.48L319.98 177.3Z" fill="#BFBFBF"/>
<path d="M333.66 178.08L191.39 277.22V279.65L336.89 178.27L333.66 178.08Z" fill="#BFBFBF"/>
<path d="M347.33 178.87L191.39 287.53V289.97L350.56 179.05L347.33 178.87Z" fill="#BFBFBF"/>
<path d="M361.01 179.65L191.39 297.84V300.28L364.24 179.84L361.01 179.65Z" fill="#BFBFBF"/>
<path d="M374.68 180.43L191.39 308.16V310.59L377.91 180.62L374.68 180.43Z" fill="#BFBFBF"/>
<path d="M384.64 183.81L191.39 318.47V320.91L384.64 186.24V183.81Z" fill="#BFBFBF"/>
<path d="M384.64 194.12L191.39 328.78V331.22L384.64 196.56V194.12Z" fill="#BFBFBF"/>
<path d="M384.64 204.43L191.39 339.1V341.53L384.64 206.87V204.43Z" fill="#BFBFBF"/>
<path d="M384.64 214.74L191.39 349.41V351.85L384.64 217.18V214.74Z" fill="#BFBFBF"/>
<path d="M384.64 225.06L191.39 359.72V362.16L384.64 227.49V225.06Z" fill="#BFBFBF"/>
<path d="M384.64 235.37L191.39 370.04V372.47L384.64 237.81V235.37Z" fill="#BFBFBF"/>
<path d="M384.64 245.69L191.39 380.35V382.79L384.64 248.12V245.69Z" fill="#BFBFBF"/>
<path d="M384.64 256L199.4 385.08L202.26 385.53L384.64 258.43V256Z" fill="#BFBFBF"/>
<path d="M384.64 266.29L211.48 386.96L214.37 387.4L384.64 268.75V266.29Z" fill="#BFBFBF"/>
<path d="M384.64 276.6L223.59 388.83L226.48 389.28L384.64 279.06V276.6Z" fill="#BFBFBF"/>
<path d="M384.64 286.91L235.7 390.71L238.56 391.15L384.64 289.35V286.91Z" fill="#BFBFBF"/>
<path d="M384.64 297.23L247.81 392.58L250.67 393.03L384.64 299.66V297.23Z" fill="#BFBFBF"/>
<path d="M384.64 307.54L259.91 394.46L262.77 394.9L384.64 309.98V307.54Z" fill="#BFBFBF"/>
<path d="M384.64 317.85L272.02 396.33L274.88 396.78L384.64 320.29V317.85Z" fill="#BFBFBF"/>
<path d="M384.64 328.17L284.13 398.21L286.99 398.65L384.64 330.6V328.17Z" fill="#BFBFBF"/>
<path d="M384.64 338.48L296.24 400.09L299.1 400.53L384.64 340.92V338.48Z" fill="#BFBFBF"/>
<path d="M384.64 348.79L308.35 401.96L311.21 402.4L384.64 351.23V348.79Z" fill="#BFBFBF"/>
<path d="M384.64 359.11L320.45 403.84L323.31 404.28L384.64 361.54V359.11Z" fill="#BFBFBF"/>
<path d="M384.64 369.42L332.56 405.71L335.42 406.16L384.64 371.86V369.42Z" fill="#BFBFBF"/>
<path d="M384.64 379.73L344.67 407.59L347.53 408.03L384.64 382.17V379.73Z" fill="#BFBFBF"/>
<path d="M384.64 390.05L356.78 409.46L359.64 409.91L384.64 392.48V390.05Z" fill="#BFBFBF"/>
<path d="M384.64 400.36L368.89 411.34L371.75 411.78L384.64 402.8V400.36Z" fill="#BFBFBF"/>
<path d="M385.6 406.24L385.64 403.67L381.99 406.22L384.85 406.66L385.6 406.24Z" fill="#BFBFBF"/>
<path d="M385.6 407H385.52L191 384.69C190.816 384.668 190.647 384.58 190.523 384.442C190.4 384.304 190.331 384.125 190.33 383.94L191.33 169.02C191.331 168.919 191.353 168.818 191.395 168.726C191.436 168.633 191.496 168.549 191.57 168.48C191.643 168.408 191.731 168.353 191.828 168.319C191.925 168.284 192.028 168.271 192.13 168.28L384.4 180.35C384.59 180.363 384.768 180.447 384.898 180.587C385.028 180.726 385.101 180.91 385.1 181.1L386.35 406.24C386.35 406.346 386.328 406.45 386.285 406.547C386.242 406.643 386.179 406.73 386.1 406.8C385.965 406.928 385.786 407 385.6 407V407ZM191.85 383.27L384.85 405.4L383.6 181.81L192.85 169.81L191.85 383.27Z" fill="#444444"/>
<path d="M385.6 406.24L307.7 484.74V235.59L385.7 180.56L385.6 406.24Z" fill="#CCCCCC"/>
<path d="M307.7 485.49C307.604 485.494 307.509 485.477 307.42 485.44C307.281 485.383 307.163 485.285 307.079 485.161C306.995 485.036 306.95 484.89 306.95 484.74V235.59C306.951 235.47 306.98 235.352 307.036 235.246C307.091 235.14 307.172 235.048 307.27 234.98L385.27 179.98C385.383 179.901 385.515 179.854 385.652 179.846C385.79 179.837 385.927 179.866 386.049 179.93C386.171 179.994 386.273 180.091 386.343 180.209C386.414 180.327 386.451 180.462 386.45 180.6L386.35 406.28C386.35 406.479 386.271 406.669 386.13 406.81L308.23 485.31C308.158 485.374 308.075 485.423 307.983 485.454C307.892 485.485 307.796 485.497 307.7 485.49V485.49ZM308.45 236V482.92L384.85 405.92L385 182L308.45 236Z" fill="#444444"/>
<path d="M307.7 484.74L108.45 455.81L108.26 217.56L307.7 236.03V484.74Z" fill="#F9F9F9"/>
<path d="M307.7 485.49H307.59L108.34 456.55C108.163 456.522 108.002 456.432 107.885 456.297C107.768 456.161 107.702 455.989 107.7 455.81L107.51 217.56C107.513 217.349 107.599 217.148 107.75 217C107.829 216.93 107.921 216.878 108.02 216.845C108.12 216.812 108.225 216.8 108.33 216.81L307.77 235.29C307.957 235.305 308.132 235.391 308.258 235.53C308.385 235.67 308.453 235.852 308.45 236.04V484.74C308.452 484.848 308.429 484.956 308.384 485.054C308.339 485.153 308.273 485.24 308.19 485.31C308.055 485.429 307.88 485.493 307.7 485.49ZM109.2 455.16L307 483.88V236.72L109 218.38L109.2 455.16Z" fill="#444444"/>
<path d="M269.44 357.06V341.68H274.45V346.69H285.9V352.05H274.45V357.06H269.44Z" fill="#99C6D6"/>
<path d="M269.62 295.35V300V305.37H286.07V300H274.99V295.35H286.07V289.99H274.99H269.62V295.35Z" fill="#99C6D6"/>
<path d="M276.06 256L269.62 251.35V257.43L276.06 262.08V262.8H269.62V268.16H286.07V262.8H279.99V261.37L286.07 258.51V252.07L277.85 257.07L276.06 256Z" fill="#99C6D6"/>
<path d="M269.62 276.39V281.39L286.07 288.55V282.82L283.21 282.11V276L286.07 274.93V269.21L269.62 276.39ZM279.28 280.69L275 278.9L279.3 277.47L279.28 280.69Z" fill="#99C6D6"/>
<path d="M269.62 330.41V335.41L286.07 342.56V336.84L283.21 336.12V330.04L286.07 328.97V323.25L269.62 330.41ZM279.28 334.7L274.98 332.91L279.28 331.48V334.7Z" fill="#99C6D6"/>
<path d="M269.62 313.05V321.82H286.07V316.46H282.13V313.05C282.13 312.228 281.968 311.415 281.653 310.656C281.339 309.897 280.877 309.207 280.296 308.627C279.715 308.046 279.024 307.586 278.265 307.273C277.506 306.959 276.692 306.798 275.87 306.8V306.8C275.049 306.8 274.237 306.961 273.478 307.276C272.72 307.59 272.031 308.05 271.451 308.63C270.87 309.211 270.41 309.9 270.096 310.658C269.782 311.416 269.62 312.229 269.62 313.05V313.05ZM277.85 314.1V316.46H274V314.1C274 313.585 274.205 313.092 274.568 312.728C274.932 312.364 275.426 312.16 275.94 312.16C276.455 312.16 276.948 312.364 277.312 312.728C277.676 313.092 277.88 313.585 277.88 314.1H277.85Z" fill="#99C6D6"/>
<path d="M193.94 147.51C193.94 146.88 193.94 146.26 193.94 145.64C194 146.26 193.94 146.89 193.94 147.51Z" fill="#0084B2"/>
<path d="M107.68 202.07L109.68 455.18L124.98 457.45L122.98 204.34C122.98 158.82 164.71 124.12 207.4 126.41C204.88 125.8 202.33 125.29 199.75 124.91C153.48 118.05 107.68 153.86 107.68 202.07Z" fill="#0084B2"/>
<path d="M215.06 109.17C212.48 108.79 209.93 108.52 207.41 108.34C155.09 104.66 105.7 146.23 105.7 201.78L107.7 454.89L109.7 455.18L107.7 202.07C107.7 153.86 153.5 118.07 199.77 124.91C202.35 125.29 204.9 125.8 207.42 126.41C209.947 126.543 212.5 126.797 215.08 127.17C261.32 134 290.13 180.83 290.13 229V481.19L292.13 481.48L307.43 483.75V231.6C307.41 173.37 270.94 117.46 215.06 109.17Z" fill="#2CC8FF"/>
<path d="M320.08 231.6C320.08 173.37 283.61 117.46 227.72 109.17C225.15 108.79 222.6 108.52 220.07 108.34C215.812 108.045 211.538 108.045 207.28 108.34H207.41C209.93 108.52 212.48 108.79 215.06 109.17C270.94 117.46 307.41 173.37 307.41 231.6V483.75L320.08 471.5V231.6Z" fill="#0084B2"/>
<path d="M334.32 70C356.52 93.51 369.47 128.17 369.47 163.68V166.42C369.677 169.427 369.783 172.453 369.79 175.5V421.05L386.33 405.2L386.41 178.07C386.27 134.35 366.66 91.94 334.32 70Z" fill="#0084B2"/>
</svg>
