<svg id="Слой_1" data-name="Слой 1" xmlns="http://www.w3.org/2000/svg" viewBox="0 0 499.89 669.62"><defs><style>.cls-1{fill:#2cc8ff;}.cls-2{fill:#ccc;}.cls-3{fill:#444;}.cls-4{fill:#bfbfbf;}.cls-5{fill:#f9f9f9;}.cls-6{fill:#99c6d6;}.cls-7{fill:#0084b2;}</style></defs><title>к</title><path class="cls-1" d="M334.32,70a88.14,88.14,0,0,0-36.17-14.37h0c-2.45-.38-4.89-.66-7.3-.84-8.65-.63-17.11.73-25.52,2-46.11,7-81,45.08-82.1,89.84,0,.62,0,1.24,0,1.87,0,.29,0,.57,0,.86V402.52l23.89,2.27V151.64c0-45.53,42.25-81,83.79-78.77h0c2.41.14,4.84.39,7.3.77A70.76,70.76,0,0,1,325.44,84c25.62,16.32,41.6,48.41,44,82.44v-2.74C369.46,128.18,356.52,93.52,334.32,70Z"/><polygon class="cls-2" points="193.1 236.98 108.92 338.08 107.92 217.89 192.1 168.94 193.1 236.98"/><path class="cls-3" d="M108.93,338.83a.78.78,0,0,1-.26,0,.76.76,0,0,1-.49-.7l-1-120.19a.75.75,0,0,1,.37-.66l84.18-49a.74.74,0,0,1,1.12.63l1,68.05a.67.67,0,0,1-.17.49L109.5,338.56A.76.76,0,0,1,108.93,338.83Zm-.25-120.51,1,117.71,82.69-99.31-1-66.49Z"/><polygon class="cls-2" points="385.35 406.16 191.1 383.94 192.1 169.03 384.35 181.1 385.35 406.16"/><path class="cls-3" d="M385.35,406.91h-.09L191,384.69a.76.76,0,0,1-.66-.75l1-214.92a.75.75,0,0,1,.24-.54.71.71,0,0,1,.56-.2L384.4,180.35a.75.75,0,0,1,.7.75l1,225.05a.75.75,0,0,1-.75.76Zm-193.5-23.64,192.74,22.05-1-223.51-190.75-12Z"/><polygon class="cls-4" points="196.91 170.25 192.39 173.09 192.39 175.52 200.14 170.43 196.91 170.25"/><polygon class="cls-4" points="210.58 171.03 191.39 184.4 191.39 186.84 213.81 171.21 210.58 171.03"/><polygon class="cls-4" points="224.25 171.81 191.39 194.71 191.39 197.15 227.49 172 224.25 171.81"/><polygon class="cls-4" points="237.93 172.6 191.39 205.03 191.39 207.46 241.16 172.78 237.93 172.6"/><polygon class="cls-4" points="251.61 173.38 191.39 215.34 191.39 217.78 254.84 173.56 251.61 173.38"/><polygon class="cls-4" points="265.28 174.16 191.39 225.65 191.39 228.09 268.51 174.35 265.28 174.16"/><polygon class="cls-4" points="278.96 174.95 191.39 235.96 191.39 238.4 282.19 175.13 278.96 174.95"/><polygon class="cls-4" points="292.63 175.73 191.39 246.28 191.39 248.72 295.86 175.92 292.63 175.73"/><polygon class="cls-4" points="306.31 176.51 191.39 256.59 191.39 259.03 309.54 176.7 306.31 176.51"/><polygon class="cls-4" points="319.98 177.3 191.39 266.9 191.39 269.34 323.21 177.48 319.98 177.3"/><polygon class="cls-4" points="333.66 178.08 191.39 277.22 191.39 279.65 336.89 178.27 333.66 178.08"/><polygon class="cls-4" points="347.33 178.87 191.39 287.53 191.39 289.97 350.56 179.05 347.33 178.87"/><polygon class="cls-4" points="361.01 179.65 191.39 297.84 191.39 300.28 364.24 179.84 361.01 179.65"/><polygon class="cls-4" points="374.68 180.43 191.39 308.16 191.39 310.59 377.91 180.62 374.68 180.43"/><polygon class="cls-4" points="384.64 183.81 191.39 318.47 191.39 320.91 384.64 186.24 384.64 183.81"/><polygon class="cls-4" points="384.64 194.12 191.39 328.78 191.39 331.22 384.64 196.56 384.64 194.12"/><polygon class="cls-4" points="384.64 204.43 191.39 339.1 191.39 341.53 384.64 206.87 384.64 204.43"/><polygon class="cls-4" points="384.64 214.74 191.39 349.41 191.39 351.85 384.64 217.18 384.64 214.74"/><polygon class="cls-4" points="384.64 225.06 191.39 359.72 191.39 362.16 384.64 227.49 384.64 225.06"/><polygon class="cls-4" points="384.64 235.37 191.39 370.04 191.39 372.47 384.64 237.81 384.64 235.37"/><polygon class="cls-4" points="384.64 245.69 191.39 380.35 191.39 382.79 384.64 248.12 384.64 245.69"/><polygon class="cls-4" points="384.64 256 199.4 385.08 202.26 385.53 384.64 258.43 384.64 256"/><polygon class="cls-4" points="384.64 266.29 211.48 386.96 214.37 387.4 384.64 268.75 384.64 266.29"/><polygon class="cls-4" points="384.64 276.6 223.59 388.83 226.48 389.28 384.64 279.06 384.64 276.6"/><polygon class="cls-4" points="384.64 286.91 235.7 390.71 238.56 391.15 384.64 289.35 384.64 286.91"/><polygon class="cls-4" points="384.64 297.23 247.81 392.58 250.66 393.03 384.64 299.66 384.64 297.23"/><polygon class="cls-4" points="384.64 307.54 259.91 394.46 262.77 394.9 384.64 309.98 384.64 307.54"/><polygon class="cls-4" points="384.64 317.85 272.02 396.33 274.88 396.78 384.64 320.29 384.64 317.85"/><polygon class="cls-4" points="384.64 328.17 284.13 398.21 286.99 398.65 384.64 330.6 384.64 328.17"/><polygon class="cls-4" points="384.64 338.48 296.24 400.09 299.1 400.53 384.64 340.92 384.64 338.48"/><polygon class="cls-4" points="384.64 348.79 308.35 401.96 311.21 402.4 384.64 351.23 384.64 348.79"/><polygon class="cls-4" points="384.64 359.11 320.45 403.84 323.31 404.28 384.64 361.54 384.64 359.11"/><polygon class="cls-4" points="384.64 369.42 332.56 405.71 335.42 406.16 384.64 371.86 384.64 369.42"/><polygon class="cls-4" points="384.64 379.73 344.67 407.59 347.53 408.03 384.64 382.17 384.64 379.73"/><polygon class="cls-4" points="384.64 390.05 356.78 409.46 359.64 409.91 384.64 392.48 384.64 390.05"/><polygon class="cls-4" points="384.64 400.36 368.88 411.34 371.75 411.78 384.64 402.8 384.64 400.36"/><polygon class="cls-4" points="385.64 406.11 385.64 403.67 381.99 406.22 384.85 406.66 385.64 406.11"/><path class="cls-3" d="M385.34,406.24h-.08L191,384.69a.76.76,0,0,1-.67-.75l1-214.92a.75.75,0,0,1,.24-.54.71.71,0,0,1,.56-.2L384.4,180.35a.75.75,0,0,1,.7.75l1,224.39a.73.73,0,0,1-.75.75Zm-193.49-23,192.74,21.38-1-222.84-190.75-12Z"/><polygon class="cls-2" points="385.7 405.95 307.7 484.74 307.7 235.59 385.7 180.56 385.7 405.95"/><path class="cls-3" d="M307.7,485.49a.69.69,0,0,1-.28-.05.76.76,0,0,1-.47-.7V235.59a.75.75,0,0,1,.32-.61l78-55a.75.75,0,0,1,1.18.62V406a.74.74,0,0,1-.21.53l-78,78.79A.71.71,0,0,1,307.7,485.49ZM308.45,236V482.92L385,405.64V182Z"/><polygon class="cls-5" points="307.7 484.74 108.45 455.81 108.45 217.55 307.7 236.03 307.7 484.74"/><path class="cls-3" d="M307.7,485.49h-.11L108.34,456.55a.75.75,0,0,1-.64-.74V217.55A.77.77,0,0,1,108,217a.74.74,0,0,1,.57-.19l199.25,18.49a.74.74,0,0,1,.68.75v248.7a.73.73,0,0,1-.26.57A.72.72,0,0,1,307.7,485.49ZM109.2,455.16,307,483.88V236.72L109.2,218.37Z"/><polygon class="cls-6" points="269.44 357.06 269.44 341.68 274.45 341.68 274.45 346.69 285.9 346.69 285.9 352.05 274.45 352.05 274.45 357.06 269.44 357.06"/><polygon class="cls-6" points="269.62 295.35 269.62 295.35 269.62 300 269.62 300 269.62 305.37 286.07 305.37 286.07 300 274.99 300 274.99 295.35 286.07 295.35 286.07 289.99 274.99 289.99 269.62 289.99 269.62 289.99 269.62 295.35"/><polygon class="cls-6" points="276.06 256 269.62 251.35 269.62 257.43 276.06 262.08 276.06 262.8 269.62 262.8 269.62 268.16 286.07 268.16 286.07 262.8 279.99 262.8 279.99 261.37 286.07 258.51 286.07 252.07 277.85 257.07 276.06 256"/><path class="cls-6" d="M269.62,276.39v5l16.45,7.16v-5.73l-2.86-.71V276l2.86-1.07v-5.72Zm9.66,4.3L275,278.9l4.3-1.43Z"/><path class="cls-6" d="M269.62,330.41v5l16.45,7.15v-5.72l-2.86-.72v-6.08l2.86-1.07v-5.72Zm9.66,4.29-4.3-1.79,4.3-1.43Z"/><path class="cls-6" d="M269.62,313.05v8.77h16.45v-5.36h-3.94v-3.41a6.25,6.25,0,0,0-6.26-6.25h0A6.25,6.25,0,0,0,269.62,313.05Zm8.23,1.05v2.36H274V314.1a1.94,1.94,0,0,1,3.88,0Z"/><polyline class="cls-5" points="306.36 483.74 192.5 393.9 192.5 350.85"/><path class="cls-3" d="M306.36,484.49a.74.74,0,0,1-.46-.16l-2.75-2.17a.74.74,0,0,1-.12-1.05.75.75,0,0,1,1.05-.12l2.75,2.16a.76.76,0,0,1,.12,1.06A.74.74,0,0,1,306.36,484.49Z"/><path class="cls-3" d="M297.91,477.83a.73.73,0,0,1-.46-.17l-5.71-4.5a.75.75,0,0,1,.93-1.17l5.71,4.5a.75.75,0,0,1-.47,1.34Zm-11.41-9a.74.74,0,0,1-.46-.16l-5.7-4.5a.74.74,0,1,1,.92-1.17l5.71,4.5a.75.75,0,0,1,.12,1.05A.73.73,0,0,1,286.5,468.82Zm-11.4-9a.74.74,0,0,1-.47-.16l-5.7-4.5a.75.75,0,0,1-.13-1.05.76.76,0,0,1,1.06-.13l5.7,4.51a.74.74,0,0,1-.46,1.33Zm-11.41-9a.76.76,0,0,1-.47-.16l-5.7-4.5a.75.75,0,0,1,.93-1.18l5.7,4.5a.75.75,0,0,1,.13,1.06A.74.74,0,0,1,263.69,450.82Zm-11.41-9a.72.72,0,0,1-.46-.16l-5.71-4.5A.75.75,0,0,1,247,436l5.71,4.5a.76.76,0,0,1,.12,1.06A.74.74,0,0,1,252.28,441.82Zm-11.41-9a.74.74,0,0,1-.46-.16l-5.7-4.5a.75.75,0,0,1-.13-1.05.76.76,0,0,1,1.06-.13l5.7,4.5a.75.75,0,0,1-.47,1.34Zm-11.4-9a.74.74,0,0,1-.47-.16l-5.7-4.5a.74.74,0,0,1-.12-1.05.75.75,0,0,1,1-.13l5.7,4.5a.76.76,0,0,1,.13,1.06A.77.77,0,0,1,229.47,423.82Zm-11.41-9a.72.72,0,0,1-.46-.16l-5.71-4.5a.75.75,0,0,1-.12-1.05.74.74,0,0,1,1-.13l5.7,4.5a.75.75,0,0,1,.13,1.06A.77.77,0,0,1,218.06,414.82Zm-11.41-9a.74.74,0,0,1-.46-.16l-5.71-4.5a.75.75,0,0,1,.93-1.18l5.71,4.5a.76.76,0,0,1,.12,1.06A.77.77,0,0,1,206.65,405.82Z"/><path class="cls-3" d="M195.24,396.82a.74.74,0,0,1-.46-.16L192,394.49a.74.74,0,0,1-.28-.59v-3.5a.75.75,0,0,1,1.5,0v3.14l2.46,1.94a.74.74,0,0,1,.12,1A.72.72,0,0,1,195.24,396.82Z"/><path class="cls-3" d="M192.5,383.94a.74.74,0,0,1-.75-.75V376a.75.75,0,0,1,1.5,0v7.21A.75.75,0,0,1,192.5,383.94Zm0-14.42a.75.75,0,0,1-.75-.75v-7.21a.75.75,0,1,1,1.5,0v7.21A.76.76,0,0,1,192.5,369.52Z"/><path class="cls-3" d="M192.5,355.1a.75.75,0,0,1-.75-.75v-3.5a.75.75,0,0,1,1.5,0v3.5A.76.76,0,0,1,192.5,355.1Z"/><path class="cls-3" d="M383.87,405.7h-.05l-3.49-.2a.76.76,0,0,1-.71-.79.74.74,0,0,1,.79-.71l3.5.2a.75.75,0,0,1,0,1.5Z"/><path class="cls-3" d="M116.92,449.38a.77.77,0,0,1-.61-.31.75.75,0,0,1,.17-1.05l5.7-4.13a.75.75,0,0,1,1,.17.76.76,0,0,1-.17,1.05l-5.7,4.12A.73.73,0,0,1,116.92,449.38Zm11.4-8.26a.77.77,0,0,1-.61-.31.75.75,0,0,1,.17-1.05l5.7-4.12a.75.75,0,0,1,1,.16.76.76,0,0,1-.17,1.05l-5.7,4.13A.72.72,0,0,1,128.32,441.12Zm11.4-8.25a.77.77,0,0,1-.61-.31.75.75,0,0,1,.17-1.05l5.7-4.13a.75.75,0,0,1,1.05.17.76.76,0,0,1-.17,1.05l-5.7,4.12A.73.73,0,0,1,139.72,432.87Zm11.4-8.26a.77.77,0,0,1-.61-.31.75.75,0,0,1,.17-1.05l5.7-4.12a.75.75,0,1,1,.88,1.21l-5.7,4.13A.72.72,0,0,1,151.12,424.61Zm11.4-8.25a.77.77,0,0,1-.61-.31.75.75,0,0,1,.17-1.05l5.7-4.13a.76.76,0,0,1,1.05.17.75.75,0,0,1-.17,1l-5.7,4.13A.79.79,0,0,1,162.52,416.36Zm11.4-8.26a.75.75,0,0,1-.44-1.35l5.7-4.13a.75.75,0,0,1,1,.17.74.74,0,0,1-.17,1l-5.7,4.13A.72.72,0,0,1,173.92,408.1Zm199.43-3h-.05l-7-.4a.76.76,0,0,1-.71-.8.74.74,0,0,1,.79-.7l7,.41a.75.75,0,0,1,0,1.49Zm-14.06-.81h0l-7-.4a.76.76,0,0,1-.7-.8.74.74,0,0,1,.79-.7l7,.4a.75.75,0,0,1,0,1.5Zm-14.05-.81h0l-7-.41a.75.75,0,1,1,.09-1.49l7,.4a.75.75,0,0,1-.05,1.5Zm-14.05-.81h0l-7-.41a.75.75,0,1,1,.09-1.49l7,.4a.76.76,0,0,1,.71.79A.75.75,0,0,1,331.19,402.66Zm-14.05-.81h0l-7-.41a.76.76,0,0,1-.71-.79.77.77,0,0,1,.8-.71l7,.41a.75.75,0,0,1,.71.79A.76.76,0,0,1,317.14,401.85ZM303.09,401h0l-7-.41a.75.75,0,1,1,.08-1.5l7,.41a.75.75,0,0,1,.71.79A.76.76,0,0,1,303.09,401Zm-14-.81H289l-7-.4a.75.75,0,1,1,.08-1.5l7,.41a.75.75,0,0,1,0,1.5Zm-103.72-.38a.75.75,0,0,1-.44-1.36l5.7-4.13a.76.76,0,0,1,1,.17.75.75,0,0,1-.17,1.05l-5.7,4.13A.79.79,0,0,1,185.32,399.85Zm89.67-.43h-.05l-7-.4a.76.76,0,0,1-.71-.79.74.74,0,0,1,.79-.71l7,.41a.74.74,0,0,1,.7.79A.75.75,0,0,1,275,399.42Zm-14.06-.82h0l-7-.4a.76.76,0,0,1-.71-.8.74.74,0,0,1,.79-.7l7,.41a.75.75,0,0,1-.05,1.49Zm-14.05-.81h0l-7-.4a.75.75,0,0,1-.7-.8.74.74,0,0,1,.79-.7l7,.4a.76.76,0,0,1,.7.8A.75.75,0,0,1,246.88,397.79Zm-14-.81h0l-7-.41a.75.75,0,1,1,.09-1.49l7,.4a.76.76,0,0,1,.71.79A.75.75,0,0,1,232.83,397Zm-14.05-.81h0l-7-.41a.75.75,0,1,1,.09-1.49l7,.4a.75.75,0,0,1,0,1.5Zm-14.05-.81h0l-7-.41a.76.76,0,0,1-.71-.79.77.77,0,0,1,.8-.71l7,.41a.75.75,0,0,1,0,1.5Z"/><path class="cls-3" d="M108.38,455.56a.75.75,0,0,1-.44-1.36l2.84-2.05a.75.75,0,1,1,.88,1.21l-.16.11.19,0a.75.75,0,1,1,.27,1.47l-3.44.63Z"/><path class="cls-3" d="M118.62,453.69a.76.76,0,0,1-.74-.62.75.75,0,0,1,.61-.87l6.79-1.24a.75.75,0,0,1,.27,1.48l-6.79,1.24Zm13.58-2.48a.75.75,0,0,1-.13-1.49l6.79-1.24a.75.75,0,1,1,.27,1.48l-6.79,1.24Zm13.59-2.48a.75.75,0,0,1-.74-.61.77.77,0,0,1,.61-.88l6.79-1.24a.76.76,0,0,1,.87.61.75.75,0,0,1-.6.87l-6.79,1.24Zm13.58-2.48a.74.74,0,0,1-.73-.61.75.75,0,0,1,.6-.88l6.79-1.24a.77.77,0,0,1,.88.61.75.75,0,0,1-.61.87l-6.79,1.24ZM173,443.77a.75.75,0,0,1-.13-1.48l6.79-1.24a.75.75,0,1,1,.27,1.47l-6.79,1.24Zm13.58-2.48a.75.75,0,0,1-.13-1.48l6.79-1.24a.75.75,0,1,1,.27,1.47l-6.79,1.24Zm13.59-2.47a.76.76,0,0,1-.74-.62.75.75,0,0,1,.61-.87l6.79-1.24a.76.76,0,0,1,.87.6.74.74,0,0,1-.6.87l-6.8,1.24Zm13.59-2.48a.75.75,0,0,1-.74-.62.74.74,0,0,1,.6-.87l6.79-1.24a.75.75,0,1,1,.27,1.48l-6.79,1.24Zm13.58-2.48a.75.75,0,0,1-.74-.62.76.76,0,0,1,.61-.87l6.79-1.24a.75.75,0,0,1,.27,1.48l-6.79,1.24Zm13.59-2.48a.74.74,0,0,1-.74-.61.75.75,0,0,1,.6-.88l6.79-1.24a.75.75,0,1,1,.27,1.48L241,431.37Zm13.58-2.48a.75.75,0,0,1-.74-.61.77.77,0,0,1,.61-.88l6.79-1.24a.76.76,0,0,1,.87.61.74.74,0,0,1-.6.87l-6.79,1.24Zm13.59-2.48a.75.75,0,0,1-.14-1.48l6.79-1.24a.75.75,0,1,1,.27,1.47l-6.79,1.24Zm13.58-2.48a.75.75,0,0,1-.13-1.48l6.79-1.24a.75.75,0,1,1,.27,1.47l-6.79,1.24Zm13.58-2.47a.75.75,0,0,1-.73-.62.74.74,0,0,1,.6-.87l6.79-1.24a.76.76,0,0,1,.88.6.75.75,0,0,1-.61.87l-6.79,1.24ZM308.81,419a.76.76,0,0,1-.74-.62.75.75,0,0,1,.61-.87l6.79-1.24a.75.75,0,0,1,.27,1.48L309,419Zm13.58-2.48a.75.75,0,0,1-.13-1.49l6.79-1.24a.75.75,0,1,1,.27,1.48l-6.79,1.24ZM336,414a.75.75,0,0,1-.74-.61.77.77,0,0,1,.61-.88l6.79-1.24a.75.75,0,0,1,.87.61.74.74,0,0,1-.6.87L336.12,414Zm13.58-2.48a.74.74,0,0,1-.73-.61.75.75,0,0,1,.6-.88l6.79-1.23a.75.75,0,1,1,.27,1.47l-6.79,1.24Zm13.59-2.48a.75.75,0,0,1-.13-1.48l6.79-1.24a.75.75,0,1,1,.27,1.47l-6.79,1.24Z"/><path class="cls-3" d="M376.73,406.6A.75.75,0,0,1,376,406a.74.74,0,0,1,.6-.87l3.44-.63a.75.75,0,1,1,.27,1.47l-3.44.63Z"/><polygon class="cls-5" points="86.47 185.89 285.72 201.97 385.6 180.48 193.35 167.96 86.47 185.89"/><path class="cls-3" d="M285.72,202.72h-.06L86.41,186.64a.75.75,0,0,1-.07-1.49l106.89-17.93h.17l192.25,12.51a.76.76,0,0,1,.7.69.75.75,0,0,1-.59.79L285.88,202.7ZM92.56,185.63l193.11,15.58,94.51-20.33L193.39,168.72Z"/><path class="cls-7" d="M107.68,202.07l2,253.11,15.3,2.27-2-253.11c0-45.52,41.73-80.22,84.42-77.93-2.52-.61-5.07-1.12-7.65-1.5C153.48,118.05,107.68,153.86,107.68,202.07Z"/><path class="cls-1" d="M215.06,109.17h0c-2.58-.38-5.13-.65-7.65-.83-52.32-3.68-101.71,37.89-101.71,93.44l2,253.11,2,.29-2-253.11c0-48.21,45.8-84,92.07-77.16,2.58.38,5.13.89,7.65,1.5q3.79.2,7.65.76C261.32,134,290.13,180.83,290.13,229V481.19l2,.29,15.3,2.27V231.6C307.41,173.37,270.94,117.46,215.06,109.17Z"/><path class="cls-7" d="M320.08,231.6c0-58.23-36.47-114.14-92.36-122.43h0c-2.57-.38-5.12-.65-7.65-.83a92.54,92.54,0,0,0-12.79,0h.13c2.52.18,5.07.45,7.65.83h0c55.88,8.29,92.35,64.2,92.35,122.43V483.75l12.67-12.25Z"/><path class="cls-7" d="M334.32,70c22.2,23.51,35.15,58.17,35.15,93.68v2.74q.31,4.51.32,9.08l0,245.55,16.54-15.85.08-227.13C386.27,134.35,366.66,91.94,334.32,70Z"/></svg>