<svg id="Слой_1" data-name="Слой 1" xmlns="http://www.w3.org/2000/svg" xmlns:xlink="http://www.w3.org/1999/xlink" viewBox="0 0 499.89 669.62"><defs><style>.cls-1,.cls-2{fill:none;}.cls-2{stroke:#444;stroke-linecap:round;stroke-miterlimit:10;stroke-width:1.5px;}.cls-3{fill:#2cc8ff;}.cls-4{fill:#0084b2;}.cls-5{fill:#ccc;}.cls-6{fill:#444;}.cls-7{fill:#f9f9f9;}.cls-8{opacity:0.3;}.cls-9{fill:url(#Новый_узор_1);}.cls-10{fill:#bfbfbf;}.cls-11{fill:#99c6d6;}</style><pattern id="Новый_узор_1" data-name="Новый узор 1" width="15" height="14.6" patternTransform="translate(249.68 237.76) scale(1 1.43)" patternUnits="userSpaceOnUse" viewBox="0 0 15 14.6"><rect class="cls-1" width="15" height="14.6"/><line class="cls-2" x1="15.13" y1="18.2" x2="29.87" y2="11"/><line class="cls-2" x1="0.13" y1="18.2" x2="14.87" y2="11"/><line class="cls-2" x1="-14.87" y1="18.2" x2="-0.13" y2="11"/><line class="cls-2" x1="15.13" y1="10.9" x2="29.87" y2="3.7"/><line class="cls-2" x1="0.13" y1="10.9" x2="14.87" y2="3.7"/><line class="cls-2" x1="-14.87" y1="10.9" x2="-0.13" y2="3.7"/><line class="cls-2" x1="15.13" y1="3.6" x2="29.87" y2="-3.6"/><line class="cls-2" x1="0.13" y1="3.6" x2="14.87" y2="-3.6"/><line class="cls-2" x1="-14.87" y1="3.6" x2="-0.13" y2="-3.6"/></pattern></defs><title>к</title><path class="cls-3" d="M334.32,70a88.14,88.14,0,0,0-36.17-14.37h0c-2.45-.38-4.89-.66-7.3-.84-8.65-.63-17.11.73-25.52,2-46.11,7-81,45.08-82.1,89.84,0,.62,0,1.24,0,1.87,0,.29,0,.57,0,.86V402.52l23.89,2.27V151.64c0-45.53,42.25-81,83.79-78.77h0c2.41.14,4.84.39,7.3.77A70.76,70.76,0,0,1,325.44,84c25.62,16.32,41.6,48.41,44,82.44v-2.74C369.47,128.18,356.52,93.52,334.32,70Z"/><path class="cls-4" d="M287.07,561.71c2.54-4.35,5.26-8.56,8-12.78,1.36-2.09,2.79-4.21,4.32-6.26a69.13,69.13,0,0,1,5-5.85,59.73,59.73,0,0,1,12-9.8,57.91,57.91,0,0,1,6.94-3.63c1.23-.47,2.44-1,3.69-1.39s2.49-.83,3.78-1.11l1.92-.45c.64-.13,1.3-.23,1.95-.34a39.21,39.21,0,0,1,3.92-.48c1.31-.14,2.63-.1,3.94-.15l3.74,0a48.57,48.57,0,0,0,14.12-2,58.8,58.8,0,0,0,13.29-5.94c4.37-2.47,8.72-5,13.2-7.25-3.87,3.22-7.86,6.25-11.84,9.3a61.63,61.63,0,0,1-6.38,4.27,49.39,49.39,0,0,1-7,3.32,46.19,46.19,0,0,1-15.33,3.07c-1.3,0-2.53,0-3.77.07s-2.37.06-3.55.22-2.35.22-3.51.46c-.59.11-1.17.2-1.75.32l-1.73.42c-9.25,2.24-17.66,7.39-24.89,13.87A97.28,97.28,0,0,0,297,550.38C293.74,554.19,290.5,558,287.07,561.71Z"/><path class="cls-4" d="M291,560.58c2.23-2.25,4.59-4.32,6.95-6.39a47.13,47.13,0,0,1,7.88-5.55A44.41,44.41,0,0,1,324.51,543c1.61-.13,3.38-.09,4.77-.12s3-.12,4.43-.27a54.32,54.32,0,0,0,8.78-1.66c1.44-.39,2.88-.87,4.4-1.34s3-.92,4.5-1.36c3-.84,6-1.7,9.14-2.35-2.69,1.68-5.46,3.15-8.23,4.63-1.39.72-2.79,1.44-4.19,2.13s-2.83,1.4-4.35,2a43.48,43.48,0,0,1-9.42,2.64,44.69,44.69,0,0,1-4.9.5c-1.72.06-3.08.05-4.58.18a54.78,54.78,0,0,0-17.27,4.18,73,73,0,0,0-8.19,4C296.65,557.7,293.91,559.23,291,560.58Z"/><polygon class="cls-5" points="193.1 236.98 108.92 338.08 107.92 217.89 192.1 168.94 193.1 236.98"/><path class="cls-6" d="M108.93,338.83a.78.78,0,0,1-.26,0,.76.76,0,0,1-.49-.7l-1-120.19a.75.75,0,0,1,.37-.66l84.18-49a.74.74,0,0,1,1.12.63l1,68.05a.72.72,0,0,1-.18.49L109.5,338.56A.76.76,0,0,1,108.93,338.83Zm-.25-120.51,1,117.71,82.69-99.31-1-66.49Z"/><path class="cls-7" d="M201.32,561.93c-.51,4.71,10.64,8.87,29.24,10.15,23.78,1.65,50.58-2.05,60-8.2,2.34-1.53,3.4-3.07,3.3-4.55V465l-92.54,2.6Z"/><path class="cls-6" d="M242.08,573.22c-3.89,0-7.77-.13-11.58-.39-14.8-1-25.58-4-28.84-7.85a4.15,4.15,0,0,1-1.09-3.09V467.6a.76.76,0,0,1,.73-.75l92.53-2.6a.76.76,0,0,1,.55.21.8.8,0,0,1,.23.54v94.33c.12,1.76-1.11,3.52-3.64,5.17C283,569.75,262.51,573.22,242.08,573.22Zm-40-104.89V562a2.67,2.67,0,0,0,.74,2c2.95,3.53,13.61,6.33,27.8,7.31,23.51,1.63,50.22-2,59.54-8.08,1.41-.92,3.06-2.34,3-3.87V465.77Zm-.75,93.6h0Z"/><path class="cls-7" d="M182.68,473.22c-.73,5.93,15,11.16,41.38,12.78,33.68,2.08,71.62-2.58,85-10.33,3.32-1.92,4.81-3.86,4.67-5.73V410.23l-131,3.28Z"/><path class="cls-6" d="M240.4,487.24c-5.5,0-11-.16-16.38-.49-21.43-1.31-36.73-5.1-40.91-10.13a4.48,4.48,0,0,1-1.18-3.45V413.51a.74.74,0,0,1,.73-.75l131-3.28a.81.81,0,0,1,.54.22.72.72,0,0,1,.23.53v59.71c.17,2.18-1.53,4.34-5,6.38C298.09,482.89,269.26,487.24,240.4,487.24Zm-57-73v59s0,.06,0,.09a3,3,0,0,0,.84,2.35c3.87,4.65,19.14,8.32,39.85,9.6,33.37,2.05,71.29-2.54,84.54-10.24,2.93-1.7,4.41-3.44,4.29-5V411Zm-.75,59Z"/><polygon class="cls-5" points="209.83 484.65 216.5 465.52 222.43 485.9 209.83 484.65"/><path class="cls-6" d="M222.43,486.65h-.08l-12.59-1.24a.74.74,0,0,1-.63-1l6.66-19.13a.75.75,0,0,1,.73-.51.76.76,0,0,1,.7.54l5.93,20.38a.76.76,0,0,1-.15.69A.74.74,0,0,1,222.43,486.65ZM210.85,484l10.55,1-5-17.05Z"/><polygon class="cls-5" points="280.47 483.66 282.84 465.52 287.96 482.37 280.47 483.66"/><path class="cls-6" d="M280.47,484.41a.73.73,0,0,1-.52-.21.72.72,0,0,1-.22-.64l2.37-18.13a.75.75,0,0,1,1.46-.12l5.12,16.84a.76.76,0,0,1-.59,1l-7.49,1.29Zm2.66-15.34-1.79,13.68,5.65-1Z"/><g class="cls-8"><polygon class="cls-9" points="209.83 484.65 216.5 465.52 222.43 485.9 209.83 484.65"/><path class="cls-6" d="M222.43,486.65h-.08l-12.59-1.24a.74.74,0,0,1-.63-1l6.66-19.13a.75.75,0,0,1,.73-.51.76.76,0,0,1,.7.54l5.93,20.38a.76.76,0,0,1-.15.69A.74.74,0,0,1,222.43,486.65ZM210.85,484l10.55,1-5-17.05Z"/></g><g class="cls-8"><polygon class="cls-9" points="280.47 483.66 282.84 465.52 287.96 482.37 280.47 483.66"/><path class="cls-6" d="M280.47,484.41a.73.73,0,0,1-.52-.21.72.72,0,0,1-.22-.64l2.37-18.13a.75.75,0,0,1,1.46-.12l5.12,16.84a.76.76,0,0,1-.59,1l-7.49,1.29Zm2.66-15.34-1.79,13.68,5.65-1Z"/></g><path class="cls-4" d="M216.26,470.46c2.07,4.38,3.93,8.83,5.81,13.28.92,2.21,1.8,4.49,2.62,6.82a69.59,69.59,0,0,1,2,7.13A57.36,57.36,0,0,1,228,512.56a47.34,47.34,0,0,1-2.95,14.82c-.49,1.18-.93,2.37-1.52,3.5l-.85,1.72-1,1.65c-.62,1.12-1.4,2.14-2.11,3.19s-1.45,1.95-2.17,2.91a43.7,43.7,0,0,0-6.34,12.08,54.48,54.48,0,0,0-2.65,13.73c-.45,4.81-.88,9.61-1.54,14.41-.45-4.82-.67-9.64-.91-14.46a57.26,57.26,0,0,1,.1-7.4,45.36,45.36,0,0,1,1.26-7.38,41.56,41.56,0,0,1,6.24-13.76c.68-1,1.42-2,2.06-3s1.28-1.86,1.8-2.87l.84-1.48.74-1.53c.53-1,.9-2.08,1.33-3.13,3.24-8.51,3.7-18,2.45-27.23a98.77,98.77,0,0,0-3.08-13.86C218.53,479.86,217.29,475.19,216.26,470.46Z"/><path class="cls-4" d="M216.48,469.61c.48,3.27.72,6.51.94,9.78a44,44,0,0,1-.6,10,40.7,40.7,0,0,1-3,9.75,39.42,39.42,0,0,1-5.39,8.75l-1.94.92,1.94-.92a48.53,48.53,0,0,0-7.66,13.33c-.91,2.48-1.88,5.09-2.91,7.6s-2.09,5-3.3,7.53c.26-2.75.68-5.45,1.12-8.15s.93-5.33,1.53-8.06a39.1,39.1,0,0,1,7.35-15.36l1.93-.92-1.93.92a46.53,46.53,0,0,0,4.88-7.72,51.18,51.18,0,0,0,3.37-8.6,68.2,68.2,0,0,0,2-9.21C215.3,476.07,215.76,472.83,216.48,469.61Z"/><path class="cls-7" d="M182.09,463.62c-.73,5.93,15,11.16,41.38,12.78,33.68,2.08,71.62-2.58,85-10.33,3.32-1.92,4.81-3.86,4.67-5.73V429l-131,3.28Z"/><path class="cls-6" d="M239.81,477.64c-5.5,0-11-.16-16.38-.49-21.43-1.32-36.73-5.1-40.91-10.13a4.48,4.48,0,0,1-1.18-3.45V432.26a.74.74,0,0,1,.73-.75l131-3.28a.76.76,0,0,1,.54.22.72.72,0,0,1,.23.53v31.36c.17,2.18-1.53,4.34-5,6.38C297.5,473.29,268.67,477.64,239.81,477.64Zm-57-44.65v30.63s0,.06,0,.09a3,3,0,0,0,.84,2.35c3.87,4.65,19.14,8.32,39.85,9.6,33.36,2,71.29-2.54,84.54-10.24,2.93-1.7,4.41-3.44,4.29-5V429.75Zm-.75,30.63Z"/><polygon class="cls-7" points="108.39 443.98 307.63 462.05 385.63 405.87 192.81 394.91 108.39 443.98"/><path class="cls-6" d="M307.63,462.8h-.06L108.32,444.72a.75.75,0,0,1-.67-.58.75.75,0,0,1,.36-.81l84.43-49.06a.76.76,0,0,1,.42-.11l192.82,11a.77.77,0,0,1,.68.54.76.76,0,0,1-.29.82l-78,56.18A.74.74,0,0,1,307.63,462.8ZM110.8,443.44l196.62,17.84,76.06-54.78L193,395.68Z"/><path class="cls-5" d="M300.46,430.27c-11.72,7.75-45,12.4-74.63,10.33-23.13-1.62-37-6.86-36.35-12.79.18-1.72,1.59-3.51,4.36-5.28,12.2-7.81,46-12.3,75.29-10.1,21.77,1.63,35.05,6.52,35.43,12.11C304.68,426.4,303.37,428.34,300.46,430.27Z"/><path class="cls-6" d="M240.17,441.84c-4.83,0-9.66-.16-14.39-.49-18.31-1.28-31.66-4.94-35.72-9.79a5.05,5.05,0,0,1-1.33-3.83c.22-2,1.8-4,4.71-5.83,12.26-7.85,46.24-12.43,75.74-10.22,21.87,1.64,35.71,6.55,36.12,12.81.15,2.21-1.34,4.36-4.43,6.4h0C290.92,437.47,265.55,441.84,240.17,441.84Zm13.55-29.22c-24.8,0-49.52,4.17-59.48,10.54-2.46,1.58-3.86,3.22-4,4.73a3.65,3.65,0,0,0,1,2.71c3.74,4.47,17,8,34.67,9.25,29.28,2,62.55-2.53,74.16-10.21h0c1.8-1.18,3.9-3,3.77-5.05-.3-4.41-11.15-9.64-34.74-11.41C264,412.8,258.88,412.62,253.72,412.62Zm46.74,17.65h0Z"/><path class="cls-10" d="M207.83,416.74l-18,12.58a5.66,5.66,0,0,0,1.09,1.68l22.27-15.52C211.29,415.87,209.52,416.3,207.83,416.74Z"/><path class="cls-10" d="M227.85,413.09l-31.08,21.65c.71.3,1.47.59,2.28.88l33-23C230.62,412.77,229.22,412.92,227.85,413.09Z"/><path class="cls-10" d="M244.54,411.77l-37.4,26.06c.89.19,1.81.37,2.75.54l38.35-26.72C247,411.68,245.77,411.72,244.54,411.77Z"/><path class="cls-10" d="M259.5,411.65l-40.26,28.06,3.06.31,40.54-28.25C261.73,411.72,260.62,411.68,259.5,411.65Z"/><path class="cls-10" d="M273.12,412.47l-40.44,28.19c1.12,0,2.24.07,3.37.09l40.1-27.95Z"/><path class="cls-10" d="M285.41,414.22l-38,26.46c1.24,0,2.47-.08,3.7-.14l37-25.75Z"/><path class="cls-10" d="M296.06,417.12l-32.2,22.44c1.43-.16,2.83-.32,4.21-.5l30.17-21C297.56,417.72,296.83,417.42,296.06,417.12Z"/><path class="cls-10" d="M304.56,424a4.31,4.31,0,0,0-.79-1.89L283.2,436.39c2-.46,3.85-.95,5.61-1.47Z"/><polygon class="cls-4" points="282.24 476.04 285.13 475.63 286.06 478.66 281.73 479.59 282.24 476.04"/><path class="cls-6" d="M240.17,441.84c-4.83,0-9.66-.16-14.39-.49-18.31-1.28-31.66-4.94-35.72-9.79a5.05,5.05,0,0,1-1.33-3.83c.22-2,1.8-4,4.71-5.83,12.26-7.85,46.24-12.43,75.74-10.22,21.87,1.64,35.71,6.55,36.12,12.81.15,2.21-1.34,4.36-4.43,6.4h0C290.92,437.47,265.55,441.84,240.17,441.84Zm13.55-29.22c-24.8,0-49.52,4.17-59.48,10.54-2.46,1.58-3.86,3.22-4,4.73a3.65,3.65,0,0,0,1,2.71c3.74,4.47,17,8,34.67,9.25,29.28,2,62.55-2.53,74.16-10.21h0c1.8-1.18,3.9-3,3.77-5.05-.3-4.41-11.15-9.64-34.74-11.41C264,412.8,258.88,412.62,253.72,412.62Zm46.74,17.65h0Z"/><polygon class="cls-5" points="385.23 406.34 191.1 383.94 192.1 169.03 384.35 181.1 385.23 406.34"/><path class="cls-6" d="M385.23,407.09h-.08L191,384.69a.76.76,0,0,1-.66-.75l1-214.92a.75.75,0,0,1,.24-.54.72.72,0,0,1,.56-.2L384.4,180.35a.75.75,0,0,1,.7.75L386,406.34a.75.75,0,0,1-.25.56A.76.76,0,0,1,385.23,407.09ZM191.85,383.27,384.48,405.5l-.88-223.69-190.75-12Z"/><polygon class="cls-10" points="196.91 170.25 192.39 173.09 192.39 175.52 200.14 170.43 196.91 170.25"/><polygon class="cls-10" points="210.58 171.03 191.39 184.4 191.39 186.84 213.81 171.21 210.58 171.03"/><polygon class="cls-10" points="224.25 171.81 191.39 194.71 191.39 197.15 227.49 172 224.25 171.81"/><polygon class="cls-10" points="237.93 172.6 191.39 205.03 191.39 207.46 241.16 172.78 237.93 172.6"/><polygon class="cls-10" points="251.61 173.38 191.39 215.34 191.39 217.78 254.84 173.56 251.61 173.38"/><polygon class="cls-10" points="265.28 174.16 191.39 225.65 191.39 228.09 268.51 174.35 265.28 174.16"/><polygon class="cls-10" points="278.96 174.95 191.39 235.96 191.39 238.4 282.19 175.13 278.96 174.95"/><polygon class="cls-10" points="292.63 175.73 191.39 246.28 191.39 248.72 295.86 175.92 292.63 175.73"/><polygon class="cls-10" points="306.31 176.51 191.39 256.59 191.39 259.03 309.54 176.7 306.31 176.51"/><polygon class="cls-10" points="319.98 177.3 191.39 266.9 191.39 269.34 323.21 177.48 319.98 177.3"/><polygon class="cls-10" points="333.66 178.08 191.39 277.22 191.39 279.65 336.89 178.27 333.66 178.08"/><polygon class="cls-10" points="347.33 178.87 191.39 287.53 191.39 289.97 350.56 179.05 347.33 178.87"/><polygon class="cls-10" points="361.01 179.65 191.39 297.84 191.39 300.28 364.24 179.84 361.01 179.65"/><polygon class="cls-10" points="374.68 180.43 191.39 308.16 191.39 310.59 377.91 180.62 374.68 180.43"/><polygon class="cls-10" points="384.64 183.81 191.39 318.47 191.39 320.91 384.64 186.24 384.64 183.81"/><polygon class="cls-10" points="384.64 194.12 191.39 328.78 191.39 331.22 384.64 196.56 384.64 194.12"/><polygon class="cls-10" points="384.64 204.43 191.39 339.1 191.39 341.53 384.64 206.87 384.64 204.43"/><polygon class="cls-10" points="384.64 214.74 191.39 349.41 191.39 351.85 384.64 217.18 384.64 214.74"/><polygon class="cls-10" points="384.64 225.06 191.39 359.72 191.39 362.16 384.64 227.49 384.64 225.06"/><polygon class="cls-10" points="384.64 235.37 191.39 370.04 191.39 372.47 384.64 237.81 384.64 235.37"/><polygon class="cls-10" points="384.64 245.69 191.39 380.35 191.39 382.79 384.64 248.12 384.64 245.69"/><polygon class="cls-10" points="384.64 256 199.4 385.08 202.26 385.53 384.64 258.43 384.64 256"/><polygon class="cls-10" points="384.64 266.29 211.48 386.96 214.37 387.4 384.64 268.75 384.64 266.29"/><polygon class="cls-10" points="384.64 276.6 223.59 388.83 226.48 389.28 384.64 279.06 384.64 276.6"/><polygon class="cls-10" points="384.64 286.91 235.7 390.71 238.56 391.15 384.64 289.35 384.64 286.91"/><polygon class="cls-10" points="384.64 297.23 247.81 392.58 250.66 393.03 384.64 299.66 384.64 297.23"/><polygon class="cls-10" points="384.64 307.54 259.91 394.46 262.77 394.9 384.64 309.98 384.64 307.54"/><polygon class="cls-10" points="384.64 317.85 272.02 396.33 274.88 396.78 384.64 320.29 384.64 317.85"/><polygon class="cls-10" points="384.64 328.17 284.13 398.21 286.99 398.65 384.64 330.6 384.64 328.17"/><polygon class="cls-10" points="384.64 338.48 296.24 400.09 299.1 400.53 384.64 340.92 384.64 338.48"/><polygon class="cls-10" points="384.64 348.79 308.35 401.96 311.21 402.4 384.64 351.23 384.64 348.79"/><polygon class="cls-10" points="384.64 359.11 320.45 403.84 323.31 404.28 384.64 361.54 384.64 359.11"/><polygon class="cls-10" points="384.64 369.42 332.56 405.71 335.42 406.16 384.64 371.86 384.64 369.42"/><polygon class="cls-10" points="384.64 379.73 344.67 407.59 347.53 408.03 384.64 382.17 384.64 379.73"/><polygon class="cls-10" points="384.64 390.05 356.78 409.46 359.64 409.91 384.64 392.48 384.64 390.05"/><polygon class="cls-10" points="384.64 400.36 368.88 411.34 371.75 411.78 384.64 402.8 384.64 400.36"/><polygon class="cls-10" points="385.64 406.11 385.64 403.67 381.99 406.22 384.85 406.66 385.64 406.11"/><path class="cls-6" d="M385.35,406.91h-.09L191,384.69a.76.76,0,0,1-.66-.75l1-214.92a.75.75,0,0,1,.24-.54.72.72,0,0,1,.56-.2L384.4,180.35a.75.75,0,0,1,.7.75l1,225.05a.75.75,0,0,1-.75.76Zm-193.5-23.64,192.74,22.05-1-223.51-190.75-12Z"/><polygon class="cls-5" points="385.7 405.95 307.7 484.74 307.7 235.59 385.7 180.56 385.7 405.95"/><path class="cls-6" d="M307.7,485.49a.69.69,0,0,1-.28-.05.76.76,0,0,1-.47-.7V235.59a.75.75,0,0,1,.32-.61l78-55a.75.75,0,0,1,1.18.62V406a.78.78,0,0,1-.21.53l-78,78.79A.75.75,0,0,1,307.7,485.49ZM308.45,236V482.92L385,405.64V182ZM385.7,406h0Z"/><polygon class="cls-7" points="307.7 484.74 108.45 455.81 108.45 217.55 307.7 236.03 307.7 484.74"/><path class="cls-6" d="M307.7,485.49h-.11L108.34,456.55a.76.76,0,0,1-.64-.74V217.55A.77.77,0,0,1,108,217a.74.74,0,0,1,.57-.19l199.25,18.49a.74.74,0,0,1,.68.75v248.7a.73.73,0,0,1-.26.57A.72.72,0,0,1,307.7,485.49ZM109.2,455.16,307,483.88V236.72L109.2,218.37Z"/><polygon class="cls-11" points="269.44 357.06 269.44 341.68 274.45 341.68 274.45 346.69 285.9 346.69 285.9 352.05 274.45 352.05 274.45 357.06 269.44 357.06"/><polygon class="cls-11" points="269.62 295.35 269.62 295.35 269.62 300 269.62 300 269.62 305.37 286.07 305.37 286.07 300 274.99 300 274.99 295.35 286.07 295.35 286.07 289.99 274.99 289.99 269.62 289.99 269.62 289.99 269.62 295.35"/><polygon class="cls-11" points="276.06 256 269.62 251.35 269.62 257.43 276.06 262.08 276.06 262.8 269.62 262.8 269.62 268.16 286.07 268.16 286.07 262.8 279.99 262.8 279.99 261.37 286.07 258.51 286.07 252.07 277.85 257.07 276.06 256"/><path class="cls-11" d="M269.62,276.39v5l16.45,7.16v-5.73l-2.86-.71V276l2.86-1.07v-5.72Zm9.66,4.3L275,278.9l4.3-1.43Z"/><path class="cls-11" d="M269.62,330.41v5l16.45,7.15v-5.72l-2.86-.72v-6.08l2.86-1.07v-5.72Zm9.66,4.29-4.3-1.79,4.3-1.43Z"/><path class="cls-11" d="M269.62,313.05v8.77h16.45v-5.36h-3.94v-3.41a6.25,6.25,0,0,0-6.26-6.25h0A6.25,6.25,0,0,0,269.62,313.05Zm8.23,1.05v2.36H274V314.1a1.94,1.94,0,0,1,3.88,0Z"/><path class="cls-4" d="M340.44,146c4.38-4.91,8.9-9.66,13.42-14.42,1.12-1.19,2.35-2.33,3.53-3.51s2.47-2.22,3.71-3.34,2.59-2.11,3.92-3.12,2.69-2,4.1-2.89A89.94,89.94,0,0,1,387,109.58a91.16,91.16,0,0,1,19.51-5,94,94,0,0,1,10.06-.77c1.68,0,3.36-.07,5,0h4.85a97.14,97.14,0,0,0,19.05-2.16,103.11,103.11,0,0,0,18.41-5.86c6.09-2.45,12.17-4.92,18.34-7.18-5.71,3.27-11.51,6.33-17.31,9.4a99.06,99.06,0,0,1-9,4.23,87.44,87.44,0,0,1-9.49,3.2,89.25,89.25,0,0,1-19.85,3.1c-1.69.07-3.35.08-5,.09s-3.25,0-4.84.09a91.94,91.94,0,0,0-9.52.84A90.17,90.17,0,0,0,388.59,114a98.3,98.3,0,0,0-17.41,8,100.69,100.69,0,0,0-15.64,11.33C350.55,137.65,345.57,141.92,340.44,146Z"/><path class="cls-4" d="M346.07,144.9c3.59-2.4,7.27-4.59,11-6.79a80.2,80.2,0,0,1,11.8-5.61,82.16,82.16,0,0,1,25.69-5.23c1.09,0,2.19,0,3.29-.06l3.16,0c2.08,0,4.16-.13,6.24-.29a111.66,111.66,0,0,0,12.43-1.66c2.05-.38,4.09-.9,6.2-1.35l6.29-1.35c4.21-.83,8.42-1.68,12.69-2.31-4,1.7-8,3.18-12,4.67s-8,2.92-12.25,4.14a79.19,79.19,0,0,1-12.88,2.58c-2.18.26-4.37.42-6.57.51-1.08,0-2.23,0-3.26.07s-2.08,0-3.12.09a108.46,108.46,0,0,0-24.67,3.92,120.41,120.41,0,0,0-11.95,4.11C354.13,141.88,350.15,143.49,346.07,144.9Z"/><path class="cls-5" d="M309.24,231.41,156.58,209.59l26.66-31.47h0c14.3-14.5,39.51-33.92,39.51-54.34l-.19-1L351,132h0c0,20.2.92,43,12.83,59.3l-30.53,21.2Z"/><path class="cls-6" d="M309.24,232.16h-.1L156.47,210.34a.73.73,0,0,1-.59-.48.76.76,0,0,1,.12-.75l26.66-31.48c2.6-2.63,5.49-5.37,8.55-8.26,13.7-13,30.74-29.08,30.79-45.51l-.18-.89a.75.75,0,0,1,.79-.9L351,131.25a.75.75,0,0,1,.69.75c0,20.09,1,42.86,12.69,58.86a.75.75,0,0,1-.18,1l-30.53,21.21-24,18.88A.81.81,0,0,1,309.24,232.16ZM158,209l151,21.58,23.79-18.71,29.94-20.79c-11.42-16.13-12.5-38.52-12.53-58.42l-126.74-9.06a.61.61,0,0,1,0,.14c0,17.1-17.33,33.5-31.26,46.68-3.05,2.88-5.93,5.61-8.47,8.18Z"/><path class="cls-10" d="M222.56,122.82l-.15.9c0,.5,0,1-.06,1.49l2.53-1.77Z"/><path class="cls-10" d="M235.11,124.15l-15,10.52c-.49,1.21-1.06,2.42-1.68,3.62l19.87-13.92Z"/><path class="cls-10" d="M248.51,125.08l-42.14,29.51c-2.45,2.67-5,5.26-7.63,7.78l52.94-37.07Z"/><polygon class="cls-10" points="261.91 126.01 182.88 181.36 182.88 183.8 265.08 126.22 261.91 126.01"/><polygon class="cls-10" points="275.31 126.93 182.88 191.67 182.88 194.11 278.48 127.15 275.31 126.93"/><polygon class="cls-10" points="182.88 201.99 182.88 204.42 291.88 128.08 288.71 127.86 182.88 201.99"/><polygon class="cls-10" points="182.88 214.74 184.35 213.7 182.88 213.49 182.88 214.74"/><polygon class="cls-10" points="302.11 128.79 182.88 212.3 182.88 213.49 184.35 213.7 305.27 129.01 302.11 128.79"/><polygon class="cls-10" points="315.51 129.72 193.69 215.04 196.58 215.45 318.68 129.94 315.51 129.72"/><polygon class="cls-10" points="328.91 130.65 205.92 216.79 208.81 217.2 332.07 130.87 328.91 130.65"/><polygon class="cls-10" points="342.31 131.58 218.15 218.53 221.04 218.95 345.47 131.8 342.31 131.58"/><path class="cls-10" d="M351.51,137.88c0-.81,0-1.62,0-2.43l-.63.44c0,.81,0,1.62,0,2.43Z"/><path class="cls-10" d="M350.87,135.89,230.38,220.28l2.89.41,117.61-82.37C350.88,137.51,350.87,136.7,350.87,135.89Z"/><path class="cls-10" d="M351.71,148.05c0-.79-.06-1.58-.08-2.38l-.61.44c0,.79.05,1.58.08,2.37Z"/><path class="cls-10" d="M351,146.11,242.61,222l2.89.41,105.6-74C351.07,147.69,351,146.9,351,146.11Z"/><path class="cls-10" d="M352.36,157.91c-.07-.76-.14-1.53-.2-2.29l-.59.41c.07.76.14,1.52.22,2.28Z"/><path class="cls-10" d="M351.57,156l-96.73,67.75,2.89.41,94.06-65.88C351.71,157.55,351.64,156.79,351.57,156Z"/><path class="cls-10" d="M353.69,167.3c-.14-.72-.27-1.44-.39-2.17l-.54.38c.12.72.26,1.44.4,2.16Z"/><path class="cls-10" d="M352.76,165.51l-85.69,60,2.89.42,83.2-58.27C353,167,352.88,166.23,352.76,165.51Z"/><path class="cls-10" d="M355.87,176.08c-.21-.67-.41-1.34-.6-2l-.5.35c.2.67.41,1.34.62,2Z"/><path class="cls-10" d="M354.77,174.41,279.3,227.27l2.89.41,73.2-51.26C355.18,175.75,355,175.08,354.77,174.41Z"/><path class="cls-10" d="M359.07,184.15c-.29-.61-.58-1.22-.85-1.84l-.43.3q.42.93.87,1.83Z"/><path class="cls-10" d="M357.79,182.61,291.53,229l2.89.41,64.24-45Q358.21,183.54,357.79,182.61Z"/><path class="cls-10" d="M332.29,212.5l-8.42,6.62,39.56-27.71c-.4-.53-.77-1.08-1.14-1.63l-.36.25c.29.42.58.85.89,1.27Z"/><path class="cls-10" d="M323.87,219.12l8.42-6.62,30.53-21.2c-.31-.42-.6-.85-.89-1.27l-58.17,40.74,2.89.41Z"/><path class="cls-6" d="M308.25,232.16h-.11L155.48,210.34a.76.76,0,0,1-.6-.48.74.74,0,0,1,.13-.75l26.66-31.48c2.74-2.78,5.84-5.68,9.12-8.75C204.54,156,221.66,140,221.66,123.72a.49.49,0,0,1,0-.12l.14-.9a.76.76,0,0,1,.8-.63L351,131.25a.75.75,0,0,1,.69.75v.38c0,19.92,0,42.5,11.69,58.48a.73.73,0,0,1-.17,1l-30.53,21.21-24,18.88A.76.76,0,0,1,308.25,232.16ZM157,209l151,21.58,23.78-18.71,29.94-20.79c-11.47-16.24-11.53-38.6-11.53-58.42l-127-9.08,0,.16c0,16.88-17.39,33.13-31.34,46.19-3.27,3.06-6.36,5.95-9,8.67Z"/><path class="cls-10" d="M222,125.26c0,.82,0,1.65-.06,2.47l.5-.34c0-.83.05-1.65.06-2.48Z"/><path class="cls-10" d="M224.07,136.17c-.14.93-.3,1.85-.47,2.77l.5-.35c.17-.92.34-1.84.48-2.77Z"/><path class="cls-10" d="M221.13,148.55c-.35,1.08-.72,2.15-1.12,3.22l.52-.37c.4-1.06.77-2.13,1.12-3.22Z"/><path class="cls-10" d="M215.45,154.54q-1.29,2.21-2.72,4.34l.57-.4c.94-1.41.84,6.15,1.69,4.68Z"/><path class="cls-6" d="M348,195.16h-.07L187,180.68a.75.75,0,0,1-.66-.58.76.76,0,0,1,.33-.81l17-10.6c13.85-14.06,18.07-24.56,18.07-44.92l.12-1a.74.74,0,0,1,.8-.66L351,131.25a.75.75,0,0,1,.69.75c0,14.24,4.4,19.52,11.7,28.25,2.37,2.84,5.05,6.06,8,10.05a.75.75,0,0,1-.25,1.11l-14.89,7.76-7.61,15.57A.74.74,0,0,1,348,195.16ZM189.34,179.38l158.19,14.24L355,178.29a.72.72,0,0,1,.33-.34l14.33-7.47c-2.7-3.63-5.19-6.62-7.41-9.27-7.13-8.55-11.88-14.24-12-28.51l-127-9.08,0,.24c0,20.77-4.34,31.52-18.57,45.94a.69.69,0,0,1-.13.11Z"/><path class="cls-5" d="M221.2,165.58c-7.39,12-65.31,29.31-65.31,29.31l-15.46-36.95,82.13-35.12S228.58,153.59,221.2,165.58Z"/><path class="cls-6" d="M155.89,195.64a.76.76,0,0,1-.69-.46l-15.46-37a.75.75,0,0,1,.39-1l82.13-35.12a.78.78,0,0,1,.65,0,.75.75,0,0,1,.38.52c.25,1.27,6,31.2-1.46,43.3h0c-7.44,12.1-63.35,28.92-65.72,29.63A.6.6,0,0,1,155.89,195.64Zm-14.48-37.31L156.32,194c6.37-1.94,57.5-17.84,64.24-28.78h0c6.44-10.47,2.34-36.14,1.43-41.31Zm79.79,7.25h0Z"/><path class="cls-5" d="M385.54,180.47l-78.28,55.35-25.44-4.28,4.7-61.63L351,132l1.29,4.3c5.48,16.74,18.38,32.43,32.28,43.17h0Z"/><path class="cls-6" d="M307.26,236.57h-.12l-25.44-4.29a.74.74,0,0,1-.62-.79l4.69-61.62a.75.75,0,0,1,.37-.59l64.46-37.91a.74.74,0,0,1,1.1.43l1.29,4.29c4.95,15.13,16.92,31.13,32,42.8l1.07,1.07a.75.75,0,0,1,.21.59.76.76,0,0,1-.31.55l-78.29,55.35A.73.73,0,0,1,307.26,236.57Zm-24.64-5.66L307.08,235l77.31-54.66L384,180c-15.25-11.78-27.41-28.05-32.46-43.47l-1-3.4-63.3,37.23Z"/><path class="cls-7" d="M107.93,217.89s32.37-37.16,32.37-57.57v-1.69l144.7,11h1.59c0,20.19,4.58,44.22,16.49,60.49l4,5.46Z"/><path class="cls-6" d="M307.08,236.36H307L107.86,218.64a.77.77,0,0,1-.63-.47.75.75,0,0,1,.13-.77c.32-.37,32.19-37.18,32.19-57.08v-1.69a.75.75,0,0,1,.81-.75l144.7,11h1.53a.74.74,0,0,1,.75.75c0,23.62,6.11,46.07,16.34,60.05l4,5.46a.75.75,0,0,1-.6,1.19ZM109.44,217.27l196.05,17.45-3-4.13c-14.69-20.07-16.55-48.23-16.62-60.18H285l-143.95-11v.88C141.05,179,114.91,210.83,109.44,217.27Z"/><path class="cls-4" d="M107.68,202.07l2,253.11,15.3,2.27-2-253.11c0-45.52,41.73-80.22,84.42-77.93-2.52-.61-5.07-1.12-7.65-1.5C153.48,118.05,107.68,153.86,107.68,202.07Z"/><path class="cls-3" d="M215.06,109.17h0c-2.58-.38-5.13-.65-7.65-.83-52.32-3.68-101.71,37.89-101.71,93.44l2,253.11,2,.29-2-253.11c0-48.21,45.8-84,92.07-77.16,2.58.38,5.13.89,7.65,1.5q3.79.2,7.66.76C261.32,134,290.13,180.83,290.13,229V481.19l2,.29,15.3,2.27V231.6C307.41,173.37,270.94,117.46,215.06,109.17Z"/><path class="cls-4" d="M320.08,231.6c0-58.23-36.47-114.14-92.36-122.43h0c-2.57-.38-5.12-.65-7.65-.83a92.54,92.54,0,0,0-12.79,0h.13c2.52.18,5.07.45,7.65.83h0c55.88,8.29,92.35,64.2,92.35,122.43V483.75l12.67-12.25Z"/><path class="cls-4" d="M334.32,70c22.2,23.51,35.15,58.17,35.15,93.68v2.74q.31,4.51.32,9.08l0,245.55,16.54-15.85.08-227.13C386.27,134.35,366.66,91.94,334.32,70Z"/></svg>