<svg xmlns="http://www.w3.org/2000/svg" height="200.78" width="278.93" version="1.1" data-name="Слой 1" id="Слой_1"><defs id="defs1301"><style id="style1299">.cls-3{fill:#ccc;stroke:#444;stroke-linecap:round;stroke-linejoin:round;stroke-width:1.5px}.cls-4{fill:#bfbfbf}</style></defs><path transform="translate(-107 -167.9)" id="polygon1305" fill="#ccc" d="M107.92 217.89l84.18-48.95 1 68.04-84.18 101.1z"/><path id="path1307" d="M1.93 170.93a.78.78 0 01-.26 0 .76.76 0 01-.49-.7l-1-120.19a.75.75 0 01.37-.66l84.18-49a.74.74 0 011.12.63l1 68.05a.67.67 0 01-.17.49L2.5 170.66a.76.76 0 01-.57.27zM1.68 50.42l1 117.71 82.69-99.31-1-66.49z" fill="#444"/><path transform="translate(-107 -167.9)" id="polygon1309" class="cls-3" d="M191.75 168.65L385 179.72v107.71l-193.25-52.26z"/><path transform="translate(-107 -167.9)" id="polygon1311" class="cls-4" d="M191.75 173.99l5.9-4.11-3.23-.19-2.67 1.86z"/><path transform="translate(-107 -167.9)" id="polygon1313" class="cls-4" d="M191.75 184.3l19.57-13.64-3.23-.18-16.34 11.38z"/><path transform="translate(-107 -167.9)" id="polygon1315" class="cls-4" d="M191.75 194.61L225 171.45l-3.23-.19-30.02 20.92z"/><path transform="translate(-107 -167.9)" id="polygon1317" class="cls-4" d="M191.75 204.93l46.92-32.7-3.23-.19-43.69 30.45z"/><path transform="translate(-107 -167.9)" id="polygon1319" class="cls-4" d="M191.75 215.24l60.6-42.23-3.23-.18-57.37 39.97z"/><path transform="translate(-107 -167.9)" id="polygon1321" class="cls-4" d="M191.75 225.55l74.27-51.75-3.23-.19-71.04 49.51z"/><path transform="translate(-107 -167.9)" id="polygon1323" class="cls-4" d="M191.75 235.87l87.95-61.29-3.23-.18-84.72 59.03z"/><path transform="translate(-107 -167.9)" id="polygon1325" class="cls-4" d="M202.21 238.89l91.16-63.53-3.23-.18-90.45 63.03z"/><path transform="translate(-107 -167.9)" id="polygon1327" class="cls-4" d="M212.87 241.78l94.18-65.63-3.26-.19-93.46 65.13z"/><path transform="translate(-107 -167.9)" id="polygon1329" class="cls-4" d="M223.53 244.66l97.19-67.73-3.26-.18-96.47 67.22z"/><path transform="translate(-107 -167.9)" id="polygon1331" class="cls-4" d="M234.17 247.53l100.2-69.82-3.23-.18-99.49 69.32z"/><path transform="translate(-107 -167.9)" id="polygon1333" class="cls-4" d="M244.83 250.42l103.21-71.92-3.23-.19-102.5 71.43z"/><path transform="translate(-107 -167.9)" id="polygon1335" class="cls-4" d="M255.5 253.3l106.22-74.02-3.23-.18-105.51 73.52z"/><path transform="translate(-107 -167.9)" id="polygon1337" class="cls-4" d="M266.16 256.19l109.23-76.13-3.23-.18-108.52 75.62z"/><path transform="translate(-107 -167.9)" id="polygon1339" class="cls-4" d="M276.82 259.07L385 183.68v-2.43l-110.7 77.14z"/><path transform="translate(-107 -167.9)" id="polygon1341" class="cls-4" d="M287.48 261.95L385 194v-2.44l-100.04 69.71z"/><path transform="translate(-107 -167.9)" id="polygon1343" class="cls-4" d="M298.15 264.83L385 204.31v-2.44l-89.37 62.28z"/><path transform="translate(-107 -167.9)" id="polygon1345" class="cls-4" d="M308.81 267.72l76.19-53.1v-2.43l-78.71 54.85z"/><path transform="translate(-107 -167.9)" id="polygon1347" class="cls-4" d="M319.47 270.6L385 224.94v-2.44l-68.05 47.42z"/><path transform="translate(-107 -167.9)" id="polygon1349" class="cls-4" d="M330.13 273.48L385 235.25v-2.44l-57.39 39.99z"/><path transform="translate(-107 -167.9)" id="polygon1351" class="cls-4" d="M340.8 276.37l44.2-30.81v-2.43l-46.72 32.56z"/><path transform="translate(-107 -167.9)" id="polygon1353" class="cls-4" d="M351.46 279.25L385 255.88v-2.44l-36.06 25.13z"/><path transform="translate(-107 -167.9)" id="polygon1355" class="cls-4" d="M362.12 282.13L385 266.19v-2.44l-25.4 17.7z"/><path transform="translate(-107 -167.9)" id="polygon1357" class="cls-4" d="M372.78 285.02L385 276.5v-2.44l-14.74 10.27z"/><path transform="translate(-107 -167.9)" id="polygon1359" class="cls-4" d="M380.93 287.22l2.51.68 1.56-1.09v-2.43z"/><path id="polygon1361" fill="none" stroke="#444" stroke-linecap="round" stroke-linejoin="round" stroke-width="1.5" d="M84.75.75L278 11.82v107.71L84.75 67.27z"/><path transform="translate(-107 -167.9)" id="polygon1363" class="cls-3" d="M108 217.72l84.18-48.96 1 68.05L108 337.91z"/><path transform="translate(-107 -167.9)" id="polygon1365" class="cls-3" d="M307 236.03l78-56.31.18 108.13L307 367.93z"/><path id="polygon1367" fill="#f9f9f9" stroke="#444" stroke-linecap="round" stroke-linejoin="round" stroke-width="1.5" d="M.75 49.92L200 68v132.03L.75 171.09z"/></svg>