<svg xmlns="http://www.w3.org/2000/svg" height="147.96" width="375.05" version="1.1" data-name="Слой 1" id="Слой_1"><defs id="defs1937"><style id="style1935">.cls-1{fill:#0084b2}.cls-2{fill:#ccc}.cls-3{fill:#444}.cls-4{fill:#bfbfbf}</style></defs><path id="path1941" d="M233.27 57.39c4.38-4.91 8.9-9.66 13.42-14.42 1.12-1.19 2.35-2.33 3.53-3.51 1.18-1.18 2.47-2.22 3.7-3.34 1.25-1.12 2.6-2.11 3.93-3.12a58.2 58.2 0 014.1-2.89 89.94 89.94 0 0117.88-9.14 91.16 91.16 0 0119.5-5 94 94 0 0110.07-.77c1.68 0 3.36-.07 5 0h4.85a97.14 97.14 0 0019.05-2.16 103.11 103.11 0 0018.4-5.86c6.1-2.45 12.18-4.92 18.35-7.18-5.71 3.27-11.51 6.33-17.31 9.4a99.06 99.06 0 01-9 4.23 87.44 87.44 0 01-9.5 3.2 89.25 89.25 0 01-19.84 3.1c-1.7.07-3.35.08-5 .09-1.65.01-3.25 0-4.84.09a91.94 91.94 0 00-9.52.84 90.17 90.17 0 00-18.62 4.44 98.3 98.3 0 00-17.41 8 100.69 100.69 0 00-15.64 11.33 473 473 0 01-15.1 12.67z" class="cls-1"/><path id="path1943" d="M238.9 56.29c3.59-2.4 7.27-4.59 11-6.79a80.2 80.2 0 0111.8-5.61 82.16 82.16 0 0125.69-5.23c1.09 0 2.19 0 3.29-.06h3.16c2.08 0 4.16-.13 6.24-.29a111.66 111.66 0 0012.43-1.66c2.05-.38 4.09-.9 6.2-1.35l6.29-1.35c4.2-.83 8.42-1.68 12.69-2.31-4 1.7-8 3.18-12 4.67-4 1.49-8 2.92-12.25 4.14a79.19 79.19 0 01-12.88 2.58c-2.18.26-4.37.42-6.57.51-1.08 0-2.23 0-3.26.07-1.03.07-2.08 0-3.12.09a108.46 108.46 0 00-24.67 3.92 120.41 120.41 0 00-11.95 4.11c-4.03 1.54-8.01 3.15-12.1 4.56z" class="cls-1"/><path id="path1945" d="M202.07 142.8L49.4 120.98l26.66-31.47c14.3-14.5 39.5-33.92 39.5-54.34l-.18-1 128.44 9.22c0 20.2.92 43 12.83 59.3l-30.53 21.2z" class="cls-2"/><path id="path1947" d="M202.07 143.55h-.1L49.3 121.73a.73.73 0 01-.6-.48.76.76 0 01.13-.75l26.66-31.48c2.6-2.63 5.49-5.37 8.55-8.26 13.7-13 30.74-29.08 30.79-45.51l-.18-.89a.75.75 0 01.79-.9l128.39 9.18a.75.75 0 01.69.75c0 20.09 1 42.87 12.69 58.86a.75.75 0 01-.18 1l-30.53 21.21-24 18.88a.81.81 0 01-.43.21zM50.83 120.39l151 21.58 23.79-18.71 29.94-20.79c-11.42-16.13-12.5-38.52-12.53-58.42l-126.74-9.06a.61.61 0 010 .14c0 17.1-17.33 33.5-31.26 46.68a351.54 351.54 0 00-8.47 8.18z" class="cls-3"/><path id="path1949" d="M115.39 34.21l-.15.9c0 .5 0 1-.06 1.49l2.53-1.77z" class="cls-4"/><path id="path1951" d="M127.94 35.54l-15 10.52a43.49 43.49 0 01-1.68 3.62l19.87-13.92z" class="cls-4"/><path id="path1953" d="M141.34 36.47L99.2 65.98c-2.45 2.67-5 5.26-7.63 7.78l52.94-37.07z" class="cls-4"/><path transform="translate(-107.17 -88.61)" id="polygon1955" class="cls-4" d="M182.88 183.8l82.2-57.58-3.17-.21-79.03 55.35z"/><path transform="translate(-107.17 -88.61)" id="polygon1957" class="cls-4" d="M182.88 194.11l95.6-66.96-3.17-.22-92.43 64.74z"/><path transform="translate(-107.17 -88.61)" id="polygon1959" class="cls-4" d="M291.88 128.08l-3.17-.22-105.83 74.13v2.43z"/><path transform="translate(-107.17 -88.61)" id="polygon1961" class="cls-4" d="M182.88 213.49v1.25l1.47-1.04z"/><path transform="translate(-107.17 -88.61)" id="polygon1963" class="cls-4" d="M182.88 213.49l1.47.21 120.92-84.69-3.16-.22-119.23 83.51z"/><path transform="translate(-107.17 -88.61)" id="polygon1965" class="cls-4" d="M196.58 215.45l122.1-85.51-3.17-.22-121.82 85.32z"/><path transform="translate(-107.17 -88.61)" id="polygon1967" class="cls-4" d="M208.81 217.2l123.26-86.33-3.16-.22-122.99 86.14z"/><path transform="translate(-107.17 -88.61)" id="polygon1969" class="cls-4" d="M221.04 218.95l124.43-87.15-3.16-.22-124.16 86.95z"/><path id="path1971" d="M244.34 49.27v-2.43l-.63.44v2.43z" class="cls-4"/><path id="path1973" d="M243.7 47.28l-120.5 84.39 2.9.41 117.6-82.37v-2.43z" class="cls-4"/><path id="path1975" d="M244.54 59.44c0-.79-.06-1.58-.08-2.38l-.61.44c0 .79.05 1.58.08 2.37z" class="cls-4"/><path id="path1977" d="M243.83 57.5l-108.4 75.89 2.9.41 105.6-74c-.03-.72-.1-1.51-.1-2.3z" class="cls-4"/><path id="path1979" d="M245.19 69.3l-.2-2.29-.6.41.23 2.28z" class="cls-4"/><path id="path1981" d="M244.4 67.39l-96.73 67.75 2.89.41 94.06-65.88-.22-2.28z" class="cls-4"/><path id="path1983" d="M246.52 78.69l-.4-2.17-.53.38c.12.72.26 1.44.4 2.16z" class="cls-4"/><path id="path1985" d="M245.59 76.9l-85.7 60 2.9.42 83.2-58.27c-.16-.66-.28-1.43-.4-2.15z" class="cls-4"/><path id="path1987" d="M248.7 87.47l-.6-2-.5.35c.2.67.4 1.34.62 2z" class="cls-4"/><path id="path1989" d="M247.6 85.8l-75.47 52.86 2.89.41 73.2-51.26c-.21-.67-.4-1.34-.62-2.01z" class="cls-4"/><path id="path1991" d="M251.9 95.54c-.3-.61-.58-1.22-.85-1.84l-.43.3q.42.93.87 1.83z" class="cls-4"/><path id="path1993" d="M250.62 94l-66.26 46.39 2.89.41 64.24-45q-.45-.87-.87-1.8z" class="cls-4"/><path id="path1995" d="M225.12 123.89l-8.42 6.62 39.56-27.71c-.4-.53-.77-1.08-1.14-1.63l-.36.25c.29.42.58.85.89 1.27z" class="cls-4"/><path id="path1997" d="M216.7 130.51l8.42-6.62 30.53-21.2c-.31-.42-.6-.85-.9-1.27l-58.16 40.74 2.89.41z" class="cls-4"/><path id="path1999" d="M201.08 143.55h-.11L48.3 121.73a.76.76 0 01-.6-.48.74.74 0 01.13-.75L74.5 89.02c2.74-2.78 5.84-5.68 9.12-8.75 13.75-12.88 30.87-28.88 30.87-45.16a.49.49 0 010-.12l.14-.9a.76.76 0 01.8-.63l128.4 9.18a.75.75 0 01.69.75v.38c0 19.92 0 42.5 11.69 58.48a.73.73 0 01-.17 1l-30.53 21.21-24 18.88a.76.76 0 01-.43.21zM49.83 120.39l151 21.58 23.78-18.71 29.95-20.79c-11.48-16.24-11.54-38.6-11.54-58.42l-127-9.08v.16c0 16.88-17.4 33.13-31.34 46.19-3.27 3.06-6.36 5.95-9 8.67z" class="cls-3"/><path id="path2001" d="M114.83 36.65c0 .82 0 1.65-.06 2.48l.5-.35c0-.83.05-1.65.06-2.48z" class="cls-4"/><path id="path2003" d="M116.9 47.56c-.14.93-.3 1.85-.47 2.77l.5-.35c.17-.92.34-1.84.48-2.77z" class="cls-4"/><path id="path2005" d="M113.96 59.94a76.71 76.71 0 01-1.12 3.22l.52-.37c.4-1.06.77-2.13 1.12-3.22z" class="cls-4"/><path id="path2007" d="M108.28 65.93q-1.3 2.21-2.72 4.34l.57-.4c.94-1.41.84 6.15 1.69 4.68z" class="cls-4"/><path id="path2009" d="M240.83 106.55h-.07L79.83 92.07a.75.75 0 01-.66-.58.76.76 0 01.33-.81l17-10.6c13.85-14.06 18.07-24.56 18.07-44.92l.12-1a.74.74 0 01.8-.66l128.34 9.14a.75.75 0 01.69.75c0 14.24 4.4 19.52 11.7 28.25a208.5 208.5 0 018 10.05.78.78 0 01.12.61.75.75 0 01-.38.5l-14.9 7.76-7.6 15.57a.74.74 0 01-.63.42zM82.17 90.77l158.19 14.24 7.47-15.33a.72.72 0 01.33-.34l14.33-7.47c-2.7-3.63-5.2-6.61-7.4-9.27-7.4-8.85-11.9-14.25-12-28.51l-127-9.08v.24c0 20.77-4.34 31.52-18.57 45.94a.69.69 0 01-.13.11z" class="cls-3"/><path id="path2011" d="M114.03 76.97c-7.4 12-65.31 29.31-65.31 29.31L33.26 69.33l82.13-35.12s6.02 30.77-1.36 42.76z" class="cls-2"/><path id="path2013" d="M48.72 107.03a.76.76 0 01-.7-.46l-15.45-37a.75.75 0 01.39-1l82.13-35.12a.78.78 0 01.65 0 .75.75 0 01.38.52c.25 1.27 6 31.2-1.46 43.3-7.44 12.1-63.35 28.92-65.72 29.63a.6.6 0 01-.22.13zM34.24 69.72l14.9 35.67c6.38-1.94 57.5-17.84 64.25-28.78 6.44-10.47 2.34-36.14 1.43-41.31zm79.79 7.25z" class="cls-3"/><path id="path2015" d="M278.37 91.86l-78.28 55.35-25.44-4.28 4.7-61.63 64.48-37.91 1.29 4.3c5.48 16.74 18.38 32.43 32.28 43.17z" class="cls-2"/><path id="path2017" d="M200.09 147.96h-.12l-25.44-4.29a.74.74 0 01-.62-.79l4.69-61.62a.75.75 0 01.37-.59l64.46-37.91a.74.74 0 011.1.43l1.29 4.29c4.95 15.13 16.92 31.13 32 42.8l1.07 1.07a.75.75 0 01.2.59.76.76 0 01-.3.55l-78.3 55.35a.73.73 0 01-.4.12zm-24.64-5.66l24.46 4.09 77.3-54.66-.38-.34c-15.25-11.78-27.41-28.05-32.46-43.47l-1-3.4-63.3 37.23z" class="cls-3"/><path id="path2019" d="M.76 129.28s32.37-37.16 32.37-57.57v-1.69l144.7 11h1.59c0 20.19 4.58 44.22 16.49 60.49l4 5.46z" fill="#f9f9f9"/><path id="path2021" d="M199.9 147.75h-.07L.69 130.03a.76.76 0 01-.63-.47.73.73 0 01.13-.77c.32-.37 32.19-37.18 32.19-57.08v-1.69a.75.75 0 01.8-.75l144.7 11h1.54a.74.74 0 01.75.75c0 23.62 6.1 46.07 16.34 60.05l4 5.46a.74.74 0 01.05.81.73.73 0 01-.65.41zM2.28 128.66l196.05 17.45-3-4.13c-14.7-20.07-16.55-48.23-16.62-60.18h-.87l-143.95-11v.88c0 18.71-26.14 50.54-31.61 56.98z" class="cls-3"/></svg>