<svg xmlns="http://www.w3.org/2000/svg" height="168.3" width="300.8" xml:space="preserve" y="0" x="0" id="Слой_1" version="1.1"><style id="style833" type="text/css">.st0{fill:#ccc}.st1{fill:#444}.st2{fill:#bfbfbf}.st3{fill:#f9f9f9}</style><g transform="translate(-100 -249)" id="g841"><path id="polygon837" class="st0" d="M122.3 299.7l84.2-48.9 1 68-84.2 61.1z"/><path id="path839" d="M123.3 380.6c-.1 0-.2 0-.3-.1-.3-.1-.4-.4-.4-.7l-1-80.2c0-.3.1-.5.4-.7l84.2-48.9c.2-.1.5-.1.7 0 .2.1.4.4.4.6l1 68c0 .2-.1.5-.3.6l-84.2 61.1c-.2.3-.3.3-.5.3zm-.2-80.5l1 78.3 82.7-60-1-66.3z" class="st1"/></g><g transform="translate(-100 -249)" id="g881"><g id="g847"><path id="polygon843" class="st0" d="M206.5 250.9l192.2 12 .9 67.7-194.1 49.1z"/><path id="path845" d="M205.5 380.5c-.2 0-.3-.1-.5-.2s-.3-.4-.3-.6l1-128.8c0-.2.1-.4.2-.5.2-.1.4-.2.6-.2l192.2 12c.4 0 .7.3.7.7l.9 67.7c0 .3-.2.7-.6.7l-194.1 49.1s0 .1-.1.1zm1.7-128.8l-1 127L398.8 330l-.9-66.4z" class="st1"/></g><g id="g877"><path id="polygon849" class="st2" d="M206.8 257.4l7.7-5.1-3.2-.2-4.5 2.8z"/><path id="polygon851" class="st2" d="M205.8 268.7l22.4-15.6-3.3-.2-19.1 13.3z"/><path id="polygon853" class="st2" d="M205.8 279l36.1-25.2-3.3-.2-32.8 22.9z"/><path id="polygon855" class="st2" d="M205.8 289.3l49.7-34.7-3.2-.2-46.5 32.5z"/><path id="polygon857" class="st2" d="M205.8 299.6l63.4-44.2-3.2-.2-60.2 42z"/><path id="polygon859" class="st2" d="M205.8 309.9l77.1-53.7-3.3-.2-73.8 51.5z"/><path id="polygon861" class="st2" d="M205.8 320.2l90.8-63.2-3.3-.2-87.5 61z"/><path id="polygon863" class="st2" d="M205.8 330.6l104.4-72.8-3.2-.2-101.2 70.5z"/><path id="polygon865" class="st2" d="M205.8 340.9l118.1-82.4-3.2-.1-114.9 80z"/><path id="polygon867" class="st2" d="M205.8 351.2l131.8-91.9-3.3-.2-128.5 89.6z"/><path id="polygon869" class="st2" d="M205.8 361.5l145.5-101.4-3.3-.2-142.2 99.2z"/><path id="polygon871" class="st2" d="M205.8 371.8l159.1-110.9-3.2-.2-155.9 108.7z"/><path id="polygon873" class="st2" d="M205.8 382.1l172.8-120.4-3.2-.2-169.6 118.2z"/><path id="polygon875" class="st2" d="M205.8 392.4l186.5-129.9-3.3-.2L205.8 390z"/></g><path id="path879" d="M399.7 337.8s-.1-.1 0 0l-194.3-22.2c-.4 0-.7-.4-.7-.8l1-63.9c0-.2.1-.4.2-.5.2-.1.4-.2.6-.2l192.2 12c.4 0 .7.3.7.7l1 74.1c0 .2-.1.4-.2.6-.1.1-.3.2-.5.2zm-193.4-23.7l192.7 22-1-72.6-190.7-11.9z" class="st1"/></g><g transform="translate(-100 -249)" id="g895"><g id="g887"><path id="polygon883" class="st0" d="M322.1 317.4l78-55v75.4l-78 78.8z"/><path id="path885" d="M322.1 417.3c-.1 0-.2 0-.3-.1-.3-.1-.5-.4-.5-.7v-99.2c0-.2.1-.5.3-.6l78-55c.2-.2.5-.2.8-.1.2.1.4.4.4.7v75.4c0 .2-.1.4-.2.5l-78 78.8c-.1.3-.3.3-.5.3zm.7-99.5v97l76.5-77.3v-73.6zm77.3 20z" class="st1"/></g><g id="g893"><path id="polygon889" class="st3" d="M122.8 299.4l199.3 18.5v98.7l-199.3-29z"/><path id="path891" d="M322.1 417.3h-.1l-199.3-29c-.4-.1-.6-.4-.6-.7v-88.2c0-.2.1-.4.2-.6.2-.1.4-.2.6-.2l199.3 18.5c.4 0 .7.4.7.7v98.7c0 .2-.1.4-.3.6-.1.2-.3.2-.5.2zM123.5 387l197.8 28.8v-97.1l-197.8-18.4z" class="st1"/></g></g><g transform="translate(-100 -249)" id="g903"><g id="g901"><path id="polygon897" class="st3" d="M400 262.3l-192.3-12.5-106.9 17.9 199.3 16.1z"/><path id="path899" d="M300.1 284.5l-199.4-16.1c-.4 0-.7-.3-.7-.7 0-.4.3-.7.6-.8L207.5 249h.2L400 261.6c.4 0 .7.3.7.7 0 .4-.2.7-.6.8l-99.9 21.5c0-.1 0-.1-.1-.1zm-193.2-17.1L300 283l94.5-20.3-186.8-12.1z" class="st1"/></g></g></svg>