<svg xmlns="http://www.w3.org/2000/svg" width="278.93" height="288.59"><path fill="#CCC" stroke="#444" stroke-width="1.5" stroke-linecap="round" stroke-linejoin="round" stroke-miterlimit="10" d="M278.64 244.85L85.39 214.91V1l193.25 11.07z"/><g fill="#BFBFBF"><path d="M91.2 1.22l-5.52 3.84V7.5l8.74-6.1zM104.86 2L85.69 15.37v2.44L108.1 2.19zM118.54 2.79l-32.86 22.9v2.43l36.1-25.15zM132.22 3.57L85.68 36v2.44l49.77-34.68zM145.9 4.35L85.67 46.31v2.44l63.44-44.21zM159.57 5.14l-73.9 51.49v2.43L162.8 5.32zM173.24 5.92L85.68 66.94v2.44l90.8-63.27zM186.92 6.7L85.68 77.25v2.44l104.47-72.8zM200.6 7.49L85.67 87.56V90L203.82 7.67zM214.27 8.27l-128.6 89.6v2.44L217.5 8.47zM227.94 9.06L85.68 108.19v2.44L231.18 9.24zM241.62 9.84L85.68 118.51v2.43L244.85 10.03zM255.3 10.62L85.67 128.82v2.44L258.53 10.8zM268.97 11.4L85.67 139.14v2.44L272.2 11.59zM278.93 14.78L85.68 149.44v2.44L278.93 17.22zM278.93 25.1L85.68 159.75v2.44L278.93 27.53zM278.93 35.4L85.68 170.08v2.44L278.93 37.84zM278.93 45.72L85.68 180.38v2.44L278.93 48.16zM278.93 56.03L85.68 190.7v2.43L278.93 58.47zM278.93 66.35L85.68 201v2.44L278.93 68.78zM278.93 76.66L85.68 211.32v2.44L278.93 79.1zM278.93 86.97L93.68 216.06l2.87.44L278.93 89.4zM278.93 97.26L105.76 217.93l2.9.45L278.92 99.72zM278.93 107.58L117.87 219.8l2.9.44 158.16-110.22zM278.93 117.89l-148.95 103.8 2.86.44 146.09-101.8zM278.93 128.2l-136.84 95.36 2.86.44 133.98-93.36zM278.93 138.51L154.2 225.44l2.86.45 121.87-84.93zM278.93 148.83L166.31 227.3l2.86.44 109.76-76.49zM278.93 159.14L178.41 229.2l2.87.44 97.65-68.05zM278.93 169.45l-88.4 61.61 2.85.44 85.55-59.6zM278.93 179.77l-76.3 53.17 2.86.44 73.44-51.18zM278.93 190.08l-64.2 44.73 2.87.45 61.33-42.74zM278.93 200.4l-52.08 36.29 2.86.44 49.22-34.3zM278.93 210.7l-39.97 27.86 2.85.45 37.12-25.87zM278.93 221.02l-27.87 19.42 2.86.44 25.01-17.42zM278.93 231.33l-15.76 10.98 2.86.45 12.9-8.99zM278.93 244.08v-2.43l-3.65 2.54 2.86.44z"/></g><path fill="none" stroke="#444" stroke-width="1.5" stroke-linecap="round" stroke-linejoin="round" stroke-miterlimit="10" d="M278.64 244.85L85.39 214.91V1l193.25 11.07z"/><path fill="#CCC" stroke="#444" stroke-width="1.5" stroke-linecap="round" stroke-linejoin="round" stroke-miterlimit="10" d="M86.81 67.16L1.64 128.94V48.07L85.8 1.12z"/><g stroke-width="1.5" stroke-linecap="round" stroke-linejoin="round" stroke-miterlimit="10"><path opacity=".5" fill="#9AC9EF" stroke="#000" d="M10.5 101.55l11 64.31 189 30.02 7-74.32z"/><path opacity=".5" fill="#727F89" stroke="#000" d="M210.5 195.88l58-65.75 7-65.74-50 22.86-8.81 42.88z"/><path fill="#CCC" stroke="#444" d="M278.82 78.88l-78.18 78.22V64.39l78.18-52.5z"/><path fill="#F9F9F9" stroke="#444" d="M200.64 157.1L1.39 128.16V48.3L200.63 64.4z"/><path opacity=".5" fill="none" stroke="#000" d="M268.49 130.13l-43.2 2.3M21.49 165.86l43.91-28.4"/></g></svg>