<svg xmlns="http://www.w3.org/2000/svg" height="207.27" width="279.3" xml:space="preserve" viewBox="0 0 279.3 207.28" y="0" x="0" id="Слой_1" version="1.1"><style id="style912" type="text/css">.st0{fill:#ccc}.st1{fill:#444}.st2{fill:#bfbfbf}.st3{fill:#f9f9f9}</style><g transform="translate(-123.3 -183.53)" id="g920"><path id="polygon916" class="st0" d="M124.1 233.2l84.2-48.9 1 68-84.2 101.1z"/><path id="path918" d="M125.1 354.2h-.3c-.3-.1-.5-.4-.5-.7l-1-120.2c0-.3.1-.5.4-.7l84.2-49c.2-.1.5-.1.7 0 .2.1.4.4.4.6l1 68c0 .2-.1.4-.2.5l-84.2 101.1c0 .3-.3.4-.5.4zm-.2-120.5l1 117.7 82.7-99.3-1-66.5z" class="st1"/></g><g transform="translate(-123.3 -183.53)" id="g968"><g id="g926"><path id="polygon922" class="st0" d="M208.3 184.4l192.2 12 .9 115.3-194.1-22.4z"/><path id="path924" d="M401.4 312.4L207.2 290c-.4 0-.7-.4-.7-.8l1-104.9c0-.2.1-.4.2-.5.2-.1.4-.2.6-.2l192.3 12.1c.4 0 .7.3.7.7l.9 115.2c0 .2-.1.4-.2.6-.2.2-.4.2-.6.2zm-193.3-23.8l192.6 22.2-.9-113.7-190.8-12z" class="st1"/></g><g id="g964"><path id="polygon928" class="st2" d="M208.6 190.9l7.7-5.1-3.2-.2-4.5 2.8z"/><path id="polygon930" class="st2" d="M207.6 202.2l22.4-15.6-3.2-.2-19.2 13.3z"/><path id="polygon932" class="st2" d="M207.6 212.5l36.1-25.2-3.2-.1-32.9 22.9z"/><path id="polygon934" class="st2" d="M207.6 222.8l49.8-34.7-3.3-.2-46.5 32.5z"/><path id="polygon936" class="st2" d="M207.6 233.1l63.4-44.2-3.2-.2-60.2 42z"/><path id="polygon938" class="st2" d="M207.6 243.4l77.1-53.7-3.2-.2-73.9 51.5z"/><path id="polygon940" class="st2" d="M207.6 253.7l90.8-63.2-3.2-.2-87.6 61z"/><path id="polygon942" class="st2" d="M207.6 264.1l104.5-72.8-3.3-.2-101.2 70.5z"/><path id="polygon944" class="st2" d="M207.6 274.4L325.7 192l-3.2-.1-114.9 80z"/><path id="polygon946" class="st2" d="M207.6 284.7l131.8-91.9-3.2-.2-128.6 89.6z"/><path id="polygon948" class="st2" d="M207.6 295l145.5-101.4-3.2-.2-142.3 99.2z"/><path id="polygon950" class="st2" d="M207.6 305.3l159.2-110.9-3.3-.2-155.9 108.7z"/><path id="polygon952" class="st2" d="M207.6 315.6l172.8-120.4-3.2-.2-169.6 118.2z"/><path id="polygon954" class="st2" d="M207.6 325.9L394.1 196l-3.2-.2-183.3 127.7z"/><path id="polygon956" class="st2" d="M207.6 336.2l193.2-134.6v-2.5L207.6 333.8z"/><path id="polygon958" class="st2" d="M207.6 346.6l193.2-134.7v-2.4L207.6 344.1z"/><path id="polygon960" class="st2" d="M207.6 356.9l193.2-134.7v-2.4L207.6 354.4z"/><path id="polygon962" class="st2" d="M207.6 367.2l193.2-134.7v-2.4L207.6 364.8z"/></g><path id="path966" d="M401.5 312.2L207.2 290c-.4 0-.7-.4-.7-.8l1-104.9c0-.2.1-.4.2-.5.2-.1.4-.2.6-.2l192.3 12.1c.4 0 .7.3.7.7l1 115.1c0 .2-.1.4-.2.6-.2.1-.4.1-.6.1zm-193.4-23.6l192.7 22-1-113.5-190.8-12z" class="st1"/></g><g transform="translate(-123.3 -183.53)" id="g982"><g id="g974"><path id="polygon970" class="st0" d="M323.9 250.9l78-55v115.4l-78 78.8z"/><path id="path972" d="M323.9 390.8c-.1 0-.2 0-.3-.1-.3-.1-.5-.4-.5-.7V250.9c0-.2.1-.5.3-.6l78-55c.2-.2.5-.2.8-.1.2.1.4.4.4.7v115.4c0 .2-.1.4-.2.5l-78 78.8c-.1.2-.3.2-.5.2zm.7-139.5v136.9l76.5-77.3V197.3zm77.3 60z" class="st1"/></g><g id="g980"><path id="polygon976" class="st3" d="M124.6 232.9l199.3 18.5v138.7l-199.3-29z"/><path id="path978" d="M323.9 390.8h-.1l-199.3-28.9c-.4-.1-.6-.4-.6-.7V232.9c0-.2.1-.4.2-.6.1-.2.4-.2.6-.2L324 250.6c.4 0 .7.4.7.7V390c0 .2-.1.4-.3.6-.1.2-.3.2-.5.2zm-198.5-30.3l197.8 28.7V252.1l-197.8-18.3z" class="st1"/></g></g><g transform="translate(-123.3 -183.53)" id="g1008"><g id="g994"><path id="line984" class="st3" d="M322.6 389.1l-113.9-89.8"/><g id="g992"><path id="path986" d="M322.6 389.9c-.2 0-.3-.1-.5-.2l-2.7-2.2c-.3-.3-.4-.7-.1-1.1.3-.3.7-.4 1.1-.1l2.7 2.2c.3.3.4.7.1 1.1-.2.2-.4.3-.6.3z" class="st1"/><path id="path988" d="M314.1 383.2c-.2 0-.3-.1-.5-.2l-5.7-4.5c-.3-.3-.4-.7-.1-1.1.3-.3.7-.4 1.1-.1l5.7 4.5c.3.3.4.7.1 1.1-.2.2-.4.3-.6.3zm-11.4-9c-.2 0-.3-.1-.5-.2l-5.7-4.5c-.3-.3-.4-.7-.1-1.1.3-.3.7-.4 1.1-.1l5.7 4.5c.3.3.4.7.1 1.1-.2.2-.4.3-.6.3zm-11.4-9c-.2 0-.3-.1-.5-.2l-5.7-4.5c-.3-.3-.4-.7-.1-1.1.3-.3.7-.4 1.1-.1l5.7 4.5c.3.3.4.7.1 1.1-.2.2-.4.3-.6.3zm-11.4-9c-.2 0-.3-.1-.5-.2l-5.7-4.5c-.3-.3-.4-.7-.1-1.1.3-.3.7-.4 1.1-.1l5.7 4.5c.3.3.4.7.1 1.1-.2.2-.4.3-.6.3zm-11.4-9c-.2 0-.3-.1-.5-.2l-5.7-4.5c-.3-.3-.4-.7-.1-1.1.3-.3.7-.4 1.1-.1l5.7 4.5c.3.3.4.7.1 1.1-.2.2-.4.3-.6.3zm-11.4-9c-.2 0-.3-.1-.5-.2l-5.7-4.5c-.3-.3-.4-.7-.1-1.1.3-.3.7-.4 1.1-.1l5.7 4.5c.3.3.4.7.1 1.1-.2.2-.4.3-.6.3zm-11.4-9c-.2 0-.3-.1-.5-.2l-5.7-4.5c-.3-.3-.4-.7-.1-1.1.3-.3.7-.4 1.1-.1l5.7 4.5c.3.3.4.7.1 1.1-.2.2-.4.3-.6.3zm-11.4-9c-.2 0-.3-.1-.5-.2l-5.7-4.5c-.3-.3-.4-.7-.1-1.1.3-.3.7-.4 1.1-.1l5.7 4.5c.3.3.4.7.1 1.1-.2.2-.4.3-.6.3zm-11.5-9c-.2 0-.3-.1-.5-.2l-5.7-4.5c-.3-.3-.4-.7-.1-1.1.3-.3.7-.4 1.1-.1l5.7 4.5c.3.3.4.7.1 1.1-.1.2-.3.3-.6.3z" class="st1"/><path id="path990" d="M211.4 302.2c-.2 0-.3-.1-.5-.2l-2.7-2.2c-.3-.3-.4-.7-.1-1.1.3-.3.7-.4 1.1-.1l2.7 2.2c.3.3.4.7.1 1.1-.1.2-.3.3-.6.3z" class="st1"/></g></g><g id="g1006"><path id="path996" d="M400.1 311.1c-.1 0-.1 0 0 0l-3.5-.2c-.4 0-.7-.4-.7-.8s.4-.7.8-.7l3.5.2c.4 0 .7.4.7.8-.1.4-.4.7-.8.7z" class="st1"/><path id="path998" d="M133.1 354.7c-.2 0-.5-.1-.6-.3-.2-.3-.2-.8.2-1l5.7-4.1c.3-.2.8-.2 1 .2.2.3.2.8-.2 1l-5.7 4.1c-.1.1-.2.1-.4.1zm11.4-8.2c-.2 0-.5-.1-.6-.3-.2-.3-.2-.8.2-1l5.7-4.1c.3-.2.8-.2 1 .2.2.3.2.8-.2 1l-5.7 4.1c-.1 0-.2.1-.4.1zm11.4-8.3c-.2 0-.5-.1-.6-.3-.2-.3-.2-.8.2-1l5.7-4.1c.3-.2.8-.2 1 .2.2.3.2.8-.2 1l-5.7 4.1c-.1.1-.2.1-.4.1zm11.4-8.2c-.2 0-.5-.1-.6-.3-.2-.3-.2-.8.2-1l5.7-4.1c.3-.2.8-.2 1 .2.2.4.2.8-.2 1l-5.7 4.1c-.1 0-.2.1-.4.1zm11.4-8.3c-.2 0-.5-.1-.6-.3-.2-.3-.2-.8.2-1l5.7-4.1c.3-.2.8-.2 1 .2.2.3.2.8-.2 1l-5.7 4.1c-.1.1-.2.1-.4.1zm11.4-8.2c-.2 0-.5-.1-.6-.3-.2-.3-.2-.8.2-1l5.7-4.1c.3-.2.8-.2 1 .2.2.3.2.8-.2 1l-5.7 4.1c-.1 0-.2.1-.4.1zm199.4-3l-7.1-.4c-.4 0-.7-.4-.7-.8s.4-.7.8-.7l7 .4c.4 0 .7.4.7.8.1.4-.3.7-.7.7zm-14-.9l-7.1-.4c-.4 0-.7-.4-.7-.8s.4-.7.8-.7l7 .4c.4 0 .7.4.7.8s-.3.7-.7.7zm-14.1-.8l-7.1-.4c-.4 0-.7-.4-.7-.8s.4-.7.8-.7l7 .4c.4 0 .7.4.7.8.1.4-.3.7-.7.7zm-14-.8l-7.1-.4c-.4 0-.7-.4-.7-.8s.4-.7.8-.7l7 .4c.4 0 .7.4.7.8s-.3.7-.7.7zm-14.1-.8l-7.1-.4c-.4 0-.7-.4-.7-.8s.4-.7.8-.7l7 .4c.4 0 .7.4.7.8.1.4-.3.7-.7.7zm-14-.8l-7.1-.4c-.4 0-.7-.4-.7-.8s.4-.7.8-.7l7 .4c.4 0 .7.4.7.8s-.3.7-.7.7zm-14.1-.8l-7.1-.4c-.4 0-.7-.4-.7-.8s.4-.7.8-.7l7 .4c.4 0 .7.4.7.8.1.4-.3.7-.7.7zm-103.7-.4c-.2 0-.5-.1-.6-.3-.2-.3-.2-.8.2-1l5.7-4.1c.3-.2.8-.2 1 .2.2.3.2.8-.2 1l-5.7 4.1c-.1.1-.2.1-.4.1zm89.7-.4l-7.1-.4c-.4 0-.7-.4-.7-.8s.4-.7.8-.7l7 .4c.4 0 .7.4.7.8s-.3.7-.7.7zm-14.1-.8l-7.1-.4c-.4 0-.7-.4-.7-.8s.4-.7.8-.7l7 .4c.4 0 .7.4.7.8.1.4-.3.7-.7.7zm-14-.8s-.1 0 0 0l-7.1-.4c-.4 0-.7-.4-.7-.8s.4-.7.8-.7l7 .4c.4 0 .7.4.7.8 0 .3-.3.7-.7.7zm-14.1-.9l-7.1-.4c-.4 0-.7-.4-.7-.8s.4-.7.8-.7l7 .4c.4 0 .7.4.7.8.1.4-.3.7-.7.7zm-14-.8s-.1 0 0 0l-7.1-.4c-.4 0-.7-.4-.7-.8s.4-.7.8-.7l7 .4c.4 0 .7.4.7.8s-.3.7-.7.7zm-14.1-.8l-7.1-.4c-.4 0-.7-.4-.7-.8s.4-.7.8-.7l7 .4c.4 0 .7.4.7.8s-.3.7-.7.7z" class="st1"/><path id="path1000" d="M124.6 360.9c-.3 0-.6-.2-.7-.5-.1-.3 0-.7.3-.9l2.8-2.1c.3-.2.8-.2 1 .2.2.3.2.8-.2 1l-.2.1h.2c.4-.1.8.2.9.6.1.4-.2.8-.6.9l-3.4.6c0 .1-.1.1-.1.1z" class="st1"/><path id="path1002" d="M134.8 359.1c-.4 0-.7-.3-.7-.6-.1-.4.2-.8.6-.9l6.8-1.2c.4-.1.8.2.9.6.1.4-.2.8-.6.9L135 359c-.1 0-.1.1-.2.1zm13.6-2.5c-.4 0-.7-.3-.7-.6-.1-.4.2-.8.6-.9l6.8-1.2c.4-.1.8.2.9.6.1.4-.2.8-.6.9l-6.8 1.2h-.2zm13.6-2.5c-.4 0-.7-.3-.7-.6-.1-.4.2-.8.6-.9l6.8-1.2c.4-.1.8.2.9.6.1.4-.2.8-.6.9l-6.8 1.2h-.2zm13.6-2.5c-.4 0-.7-.3-.7-.6-.1-.4.2-.8.6-.9l6.8-1.2c.4-.1.8.2.9.6.1.4-.2.8-.6.9l-6.8 1.2h-.2zm13.6-2.5c-.4 0-.7-.3-.7-.6-.1-.4.2-.8.6-.9l6.8-1.2c.4-.1.8.2.9.6.1.4-.2.8-.6.9l-6.8 1.2h-.2zm13.5-2.4c-.4 0-.7-.3-.7-.6-.1-.4.2-.8.6-.9l6.8-1.2c.4-.1.8.2.9.6.1.4-.2.8-.6.9l-6.8 1.2h-.2zm13.6-2.5c-.4 0-.7-.3-.7-.6-.1-.4.2-.8.6-.9l6.8-1.2c.4-.1.8.2.9.6.1.4-.2.8-.6.9l-6.8 1.2h-.2zm13.6-2.5c-.4 0-.7-.3-.7-.6-.1-.4.2-.8.6-.9l6.8-1.2c.4-.1.8.2.9.6.1.4-.2.8-.6.9l-6.8 1.2h-.2zm13.6-2.5c-.4 0-.7-.3-.7-.6-.1-.4.2-.8.6-.9l6.8-1.2c.4-.1.8.2.9.6.1.4-.2.8-.6.9l-6.8 1.2h-.2zm13.6-2.5c-.4 0-.7-.3-.7-.6-.1-.4.2-.8.6-.9l6.8-1.2c.4-.1.8.2.9.6.1.4-.2.8-.6.9l-6.8 1.2h-.2zm13.6-2.4c-.4 0-.7-.3-.7-.6-.1-.4.2-.8.6-.9l6.8-1.2c.4-.1.8.2.9.6.1.4-.2.8-.6.9l-6.8 1.2h-.2zm13.6-2.5c-.4 0-.7-.3-.7-.6-.1-.4.2-.8.6-.9l6.8-1.2c.4-.1.8.2.9.6.1.4-.2.8-.6.9l-6.8 1.2h-.2zm13.5-2.5c-.4 0-.7-.3-.7-.6-.1-.4.2-.8.6-.9l6.8-1.2c.4-.1.8.2.9.6.1.4-.2.8-.6.9l-6.8 1.2h-.2zm13.6-2.5c-.4 0-.7-.3-.7-.6-.1-.4.2-.8.6-.9l6.8-1.2c.4-.1.8.2.9.6.1.4-.2.8-.6.9l-6.8 1.2h-.2zm13.6-2.4c-.4 0-.7-.3-.7-.6-.1-.4.2-.8.6-.9l6.8-1.2c.4-.1.8.2.9.6.1.4-.2.8-.6.9l-6.8 1.2c-.1-.1-.2 0-.2 0zm13.6-2.5c-.4 0-.7-.3-.7-.6-.1-.4.2-.8.6-.9l6.8-1.2c.4-.1.8.2.9.6.1.4-.2.8-.6.9l-6.8 1.2h-.2zm13.6-2.5c-.4 0-.7-.3-.7-.6-.1-.4.2-.8.6-.9l6.8-1.2c.4-.1.8.2.9.6.1.4-.2.8-.6.9l-6.8 1.2h-.2zm13.6-2.5c-.4 0-.7-.3-.7-.6-.1-.4.2-.8.6-.9l6.8-1.2c.4-.1.8.2.9.6.1.4-.2.8-.6.9l-6.8 1.2h-.2zm13.5-2.5c-.4 0-.7-.3-.7-.6-.1-.4.2-.8.6-.9l6.8-1.2c.4-.1.8.2.9.6.1.4-.2.8-.6.9l-6.8 1.2h-.2z" class="st1"/><path id="path1004" d="M392.9 312c-.4 0-.7-.3-.7-.6-.1-.4.2-.8.6-.9l3.4-.6c.4-.1.8.2.9.6.1.4-.2.8-.6.9l-3.4.6h-.2z" class="st1"/></g></g></svg>