<svg xmlns="http://www.w3.org/2000/svg" height="207.27" width="279.3" xml:space="preserve" viewBox="0 0 279.3 207.28" y="0" x="0" id="Слой_1" version="1.1"><style id="style1578" type="text/css">.st0{fill:#ccc}.st1{fill:#444}.st2{fill:#bfbfbf}</style><g transform="translate(-123.3 -183.53)" id="g1586"><path id="polygon1582" class="st0" d="M209.3 252.3l-84.2 101.1-1-120.2 84.2-48.9z"/><path id="path1584" d="M125.1 354.2h-.3c-.3-.1-.5-.4-.5-.7l-1-120.2c0-.3.1-.5.4-.7l84.2-49c.2-.1.5-.1.7 0 .2.1.4.4.4.6l1 68c0 .2-.1.4-.2.5l-84.2 101.1c0 .3-.3.4-.5.4zm-.2-120.5l1 117.7 82.7-99.3-1-66.5z" class="st1"/></g><g transform="translate(-123.3 -183.53)" id="g1634"><g id="g1592"><path id="polygon1588" class="st0" d="M401.4 311.7l-194.1-22.4 1-104.9 192.2 12z"/><path id="path1590" d="M401.4 312.4L207.2 290c-.4 0-.7-.4-.7-.8l1-104.9c0-.2.1-.4.2-.5.2-.1.4-.2.6-.2l192.3 12.1c.4 0 .7.3.7.7l.9 115.2c0 .2-.1.4-.2.6-.2.2-.4.2-.6.2zm-193.3-23.8l192.6 22.2-.9-113.7-190.8-12z" class="st1"/></g><g id="g1630"><path id="polygon1594" class="st2" d="M213.1 185.6l-4.5 2.8v2.5l7.7-5.1z"/><path id="polygon1596" class="st2" d="M226.8 186.4l-19.2 13.3v2.5l22.4-15.6z"/><path id="polygon1598" class="st2" d="M240.5 187.2l-32.9 22.9v2.4l36.1-25.2z"/><path id="polygon1600" class="st2" d="M254.1 187.9l-46.5 32.5v2.4l49.8-34.7z"/><path id="polygon1602" class="st2" d="M267.8 188.7l-60.2 42v2.4l63.4-44.2z"/><path id="polygon1604" class="st2" d="M281.5 189.5L207.6 241v2.4l77.1-53.7z"/><path id="polygon1606" class="st2" d="M295.2 190.3l-87.6 61v2.4l90.8-63.2z"/><path id="polygon1608" class="st2" d="M308.8 191.1l-101.2 70.5v2.5l104.5-72.8z"/><path id="polygon1610" class="st2" d="M322.5 191.9l-114.9 80v2.5L325.7 192z"/><path id="polygon1612" class="st2" d="M336.2 192.6l-128.6 89.6v2.5l131.8-91.9z"/><path id="polygon1614" class="st2" d="M349.9 193.4l-142.3 99.2v2.4l145.5-101.4z"/><path id="polygon1616" class="st2" d="M363.5 194.2L207.6 302.9v2.4l159.2-110.9z"/><path id="polygon1618" class="st2" d="M377.2 195L207.6 313.2v2.4l172.8-120.4z"/><path id="polygon1620" class="st2" d="M390.9 195.8L207.6 323.5v2.4L394.1 196z"/><path id="polygon1622" class="st2" d="M400.8 199.1L207.6 333.8v2.4l193.2-134.6z"/><path id="polygon1624" class="st2" d="M400.8 209.5L207.6 344.1v2.5l193.2-134.7z"/><path id="polygon1626" class="st2" d="M400.8 219.8L207.6 354.4v2.5l193.2-134.7z"/><path id="polygon1628" class="st2" d="M400.8 230.1L207.6 364.8v2.4l193.2-134.7z"/></g><path id="path1632" d="M401.5 312.2L207.2 290c-.4 0-.7-.4-.7-.8l1-104.9c0-.2.1-.4.2-.5.2-.1.4-.2.6-.2l192.3 12.1c.4 0 .7.3.7.7l1 115.1c0 .2-.1.4-.2.6-.2.1-.4.1-.6.1zm-193.4-23.6l192.7 22-1-113.5-190.8-12z" class="st1"/></g><g transform="translate(-123.3 -183.53)" id="g1648"><g id="g1640"><path id="polygon1636" class="st0" d="M401.9 311.3l-78 78.8V250.9l78-55z"/><path id="path1638" d="M323.9 390.8c-.1 0-.2 0-.3-.1-.3-.1-.5-.4-.5-.7V250.9c0-.2.1-.5.3-.6l78-55c.2-.2.5-.2.8-.1.2.1.4.4.4.7v115.4c0 .2-.1.4-.2.5l-78 78.8c-.1.2-.3.2-.5.2zm.7-139.5v136.9l76.5-77.3V197.3zm77.3 60z" class="st1"/></g><g id="g1646"><path id="polygon1642" fill="#f9f9f9" d="M323.9 390.1l-199.3-29V232.9l199.3 18.5z"/><path id="path1644" d="M323.9 390.8h-.1l-199.3-28.9c-.4-.1-.6-.4-.6-.7V232.9c0-.2.1-.4.2-.6.1-.2.4-.2.6-.2L324 250.6c.4 0 .7.4.7.7V390c0 .2-.1.4-.3.6-.1.2-.3.2-.5.2zm-198.5-30.3l197.8 28.7V252.1l-197.8-18.3v126.7z" class="st1"/></g></g><g transform="translate(-123.3 -183.53)" id="g1658"><g id="g1656"><path id="path1650" d="M400.6 310.4l-3.5-.2c-.4 0-.7-.4-.7-.8s.4-.7.8-.7l3.5.2c.4 0 .7.4.7.8-.1.4-.4.7-.8.7z" class="st1"/><path id="path1652" d="M133.6 354.1c-.2 0-.5-.1-.6-.3-.2-.3-.2-.8.2-1l5.7-4.1c.3-.2.8-.2 1 .2.2.3.2.8-.2 1L134 354c0 .1-.2.1-.4.1zm11.4-8.2c-.2 0-.5-.1-.6-.3-.2-.3-.2-.8.2-1l5.7-4.1c.3-.2.8-.2 1 .2.2.3.2.8-.2 1l-5.7 4.1s-.2.1-.4.1zm11.4-8.3c-.2 0-.5-.1-.6-.3-.2-.3-.2-.8.2-1l5.7-4.1c.3-.2.8-.2 1 .2.2.3.2.8-.2 1l-5.7 4.1c0 .1-.2.1-.4.1zm11.4-8.2c-.2 0-.5-.1-.6-.3-.2-.3-.2-.8.2-1l5.7-4.1c.3-.2.8-.2 1 .2.2.3.2.8-.2 1l-5.7 4.1s-.2.1-.4.1zm11.4-8.3c-.2 0-.5-.1-.6-.3-.2-.3-.2-.8.2-1l5.7-4.1c.3-.2.8-.2 1 .2.2.3.2.8-.2 1l-5.7 4.1c0 .1-.2.1-.4.1zm11.4-8.2c-.2 0-.5-.1-.6-.3-.2-.3-.2-.8.2-1l5.7-4.1c.3-.2.8-.2 1 .2.2.3.2.8-.2 1l-5.7 4.1s-.2.1-.4.1zm199.5-3.1s-.1 0 0 0l-7.1-.4c-.4 0-.7-.4-.7-.8s.4-.7.8-.7l7 .4c.4 0 .7.4.7.8s-.3.7-.7.7zM376 309l-7.1-.4c-.4 0-.7-.4-.7-.8s.4-.7.8-.7l7 .4c.4 0 .7.4.7.8s-.3.7-.7.7zm-14-.8s-.1 0 0 0l-7.1-.4c-.4 0-.7-.4-.7-.8s.4-.7.8-.7l7 .4c.4 0 .7.4.7.8s-.3.7-.7.7zm-14.1-.8l-7.1-.4c-.4 0-.7-.4-.7-.8s.4-.7.8-.7l7 .4c.4 0 .7.4.7.8s-.3.7-.7.7zm-14-.8s-.1 0 0 0l-7.1-.4c-.4 0-.7-.4-.7-.8s.4-.7.8-.7l7 .4c.4 0 .7.4.7.8s-.3.7-.7.7zm-14.1-.8l-7.1-.4c-.4 0-.7-.4-.7-.8s.4-.7.8-.7l7 .4c.4 0 .7.4.7.8s-.3.7-.7.7zm-14-.8c-.1 0-.1 0 0 0l-7.1-.4c-.4 0-.7-.4-.7-.8s.4-.7.8-.7l7 .4c.4 0 .7.4.7.8s-.3.7-.7.7zm-103.8-.4c-.2 0-.5-.1-.6-.3-.2-.3-.2-.8.2-1l5.7-4.1c.3-.2.8-.2 1 .2.2.3.2.8-.2 1l-5.7 4.1s-.2.1-.4.1zm89.7-.4l-7.1-.4c-.4 0-.7-.4-.7-.8s.4-.7.8-.7l7 .4c.4 0 .7.4.7.8s-.3.7-.7.7zm-14-.8c-.1 0-.1 0 0 0l-7.1-.4c-.4 0-.7-.4-.7-.8s.4-.7.8-.7l7 .4c.4 0 .7.4.7.8 0 .3-.3.7-.7.7zm-14.1-.9l-7.1-.4c-.4 0-.7-.4-.7-.8s.4-.7.8-.7l7 .4c.4 0 .7.4.7.8s-.3.7-.7.7zm-14-.8c-.1 0-.1 0 0 0l-7.1-.4c-.4 0-.7-.4-.7-.8s.4-.7.8-.7l7 .4c.4 0 .7.4.7.8s-.3.7-.7.7zm-14.1-.8l-7.1-.4c-.4 0-.7-.4-.7-.8s.4-.7.8-.7l7 .4c.4 0 .7.4.7.8s-.3.7-.7.7zm-14-.8c-.1 0-.1 0 0 0l-7.1-.4c-.4 0-.7-.4-.7-.8s.4-.7.8-.7l7 .4c.4 0 .7.4.7.8s-.4.7-.7.7z" class="st1"/><path id="path1654" d="M125.1 360.3c-.2 0-.5-.1-.6-.3-.2-.3-.2-.8.2-1l2.8-2.1c.3-.2.8-.2 1 .2.2.3.2.8-.2 1l-2.8 2.1c-.1.1-.2.1-.4.1z" class="st1"/></g></g></svg>