<?xml version="1.0" standalone="no"?>
<!DOCTYPE svg PUBLIC "-//W3C//DTD SVG 20010904//EN"
 "http://www.w3.org/TR/2001/REC-SVG-20010904/DTD/svg10.dtd">
<svg version="1.0" xmlns="http://www.w3.org/2000/svg"
 width="1200.000000pt" height="1200.000000pt" viewBox="0 0 1200.000000 1200.000000"
 preserveAspectRatio="xMidYMid meet">
<metadata>
Created by potrace 1.11, written by Peter Selinger 2001-2013
</metadata>
<g transform="translate(0.000000,1200.000000) scale(0.100000,-0.100000)"
fill="#000000" stroke="none">
<path d="M8510 9677 c-3 -3 -18 -7 -35 -10 -16 -3 -93 -18 -170 -35 -77 -17
-151 -33 -165 -36 -14 -2 -59 -12 -100 -21 -41 -9 -86 -19 -100 -21 -14 -3
-77 -16 -140 -30 -63 -14 -146 -31 -185 -39 -38 -8 -133 -27 -210 -44 -77 -16
-153 -32 -170 -35 -16 -3 -70 -15 -120 -26 -49 -11 -241 -51 -425 -90 -184
-39 -409 -87 -500 -106 -91 -20 -175 -38 -187 -40 -13 -2 -33 -6 -45 -8 -13
-2 -88 -18 -168 -35 -80 -17 -154 -33 -165 -36 -11 -2 -65 -13 -120 -25 -55
-12 -109 -23 -120 -26 -11 -2 -31 -6 -45 -9 -14 -3 -34 -7 -45 -9 -11 -3 -64
-14 -119 -25 -54 -12 -108 -23 -120 -25 -18 -4 -188 -40 -591 -126 -49 -10
-121 -26 -160 -34 -38 -8 -200 -42 -360 -76 -159 -33 -321 -68 -360 -76 -38
-9 -81 -18 -95 -20 -99 -19 -203 -45 -228 -58 -62 -32 -112 -119 -112 -193 0
-17 7 -63 16 -103 14 -61 15 -81 5 -124 -32 -132 -23 -202 35 -266 47 -52 75
-63 249 -100 83 -17 215 -45 295 -62 129 -27 188 -39 255 -52 11 -3 64 -14
119 -26 129 -28 132 -29 191 -40 28 -6 59 -12 70 -14 106 -24 261 -57 278 -60
12 -2 153 -32 312 -66 160 -34 300 -64 313 -66 13 -3 137 -29 275 -59 255 -54
392 -83 437 -91 14 -3 138 -29 275 -59 138 -29 279 -59 314 -66 38 -7 58 -15
50 -19 -8 -5 -70 -20 -139 -34 -69 -14 -177 -37 -240 -50 -63 -14 -128 -27
-145 -30 -16 -3 -70 -15 -120 -26 -49 -11 -283 -60 -520 -110 -236 -50 -533
-112 -660 -140 -344 -74 -725 -154 -833 -176 -13 -3 -74 -15 -135 -29 -62 -13
-128 -27 -147 -30 -19 -3 -51 -10 -70 -15 -29 -8 -89 -21 -255 -55 -11 -3 -33
-7 -50 -11 -53 -11 -113 -53 -139 -97 -36 -61 -41 -111 -21 -210 16 -79 16
-91 1 -162 -20 -98 -20 -131 3 -180 22 -50 56 -87 97 -108 23 -12 527 -123
954 -211 51 -10 275 -58 290 -61 20 -5 149 -32 183 -39 64 -14 84 -18 190 -41
62 -13 123 -26 137 -29 14 -2 100 -20 193 -40 92 -20 242 -52 335 -72 92 -20
177 -38 188 -40 12 -2 66 -13 120 -25 55 -11 110 -23 123 -25 13 -3 117 -25
230 -49 113 -24 217 -46 231 -49 55 -10 202 -44 206 -48 3 -4 -94 -25 -471
-104 -66 -13 -149 -31 -185 -39 -36 -8 -139 -30 -230 -49 -91 -20 -317 -67
-502 -106 -185 -39 -345 -73 -355 -75 -10 -2 -49 -10 -88 -19 -38 -9 -82 -18
-97 -21 -37 -7 -56 -11 -195 -41 -65 -14 -127 -27 -138 -29 -11 -3 -31 -7 -45
-10 -14 -3 -36 -8 -50 -10 -14 -3 -47 -10 -75 -16 -27 -6 -61 -13 -75 -15 -14
-3 -45 -10 -70 -15 -25 -6 -56 -13 -70 -15 -13 -3 -56 -12 -95 -20 -38 -9 -81
-18 -95 -20 -14 -3 -88 -19 -165 -35 -77 -17 -151 -32 -165 -35 -14 -2 -67
-14 -119 -25 -88 -20 -98 -25 -142 -69 -70 -70 -81 -119 -53 -250 14 -69 14
-82 -2 -168 -15 -79 -16 -100 -5 -140 16 -60 57 -111 112 -139 35 -17 262 -71
419 -99 14 -2 36 -7 50 -10 14 -3 34 -8 45 -10 11 -2 52 -11 90 -19 39 -9 113
-24 165 -35 52 -11 127 -27 165 -35 39 -8 81 -17 95 -20 28 -5 26 -5 160 -34
52 -11 106 -22 120 -25 14 -2 79 -16 145 -31 135 -30 140 -31 210 -44 28 -6
102 -21 165 -35 63 -13 225 -47 360 -76 135 -28 256 -53 270 -56 14 -3 26 -6
27 -6 2 0 29 -6 60 -13 52 -12 239 -52 287 -61 11 -2 72 -15 135 -28 369 -79
509 -109 531 -113 14 -2 41 -8 60 -13 19 -5 55 -12 80 -15 24 -4 47 -8 51 -10
3 -2 20 -7 37 -10 18 -3 60 -12 94 -20 35 -8 74 -16 88 -19 14 -2 90 -19 170
-36 80 -17 165 -35 190 -40 25 -5 110 -23 190 -40 80 -17 156 -33 170 -36 14
-3 162 -34 330 -70 250 -54 315 -64 358 -59 66 8 129 53 159 115 18 37 53 179
79 320 3 14 9 41 14 60 29 106 -17 217 -108 264 -30 15 -151 43 -622 141 -173
37 -378 80 -455 96 -287 61 -331 71 -355 75 -13 3 -56 12 -95 20 -38 8 -86 17
-105 20 -19 3 -38 8 -41 10 -3 2 -19 6 -35 8 -16 3 -58 12 -94 20 -84 18 -393
84 -422 90 -62 12 -466 98 -502 106 -53 12 -413 88 -446 94 -26 4 -145 31
-190 42 -23 6 57 28 210 58 14 3 36 7 50 10 53 12 76 16 99 21 27 5 225 47
336 71 39 9 90 19 115 24 25 5 54 11 65 14 41 9 271 58 290 62 11 2 117 24
235 49 118 25 224 47 235 49 11 3 52 11 90 20 39 8 82 17 95 20 14 2 70 14
125 26 55 12 110 23 122 26 12 2 75 16 140 30 65 14 127 27 138 28 11 2 29 6
40 9 11 3 34 9 52 12 17 3 85 17 150 31 65 14 129 28 143 30 14 3 32 7 40 9 8
2 31 7 50 10 19 3 64 13 100 21 36 8 121 26 190 40 160 33 147 30 204 45 64
16 139 86 155 144 14 53 14 74 -5 166 -14 71 -14 85 0 155 25 121 18 170 -33
236 -43 54 -115 79 -381 132 -45 9 -175 35 -195 40 -34 7 -269 57 -290 62 -11
2 -40 8 -65 14 -25 5 -130 27 -235 49 -104 22 -266 56 -360 76 -93 20 -181 39
-195 41 -14 2 -45 9 -70 14 -54 13 -327 71 -355 76 -23 4 -29 6 -155 33 -52
11 -106 22 -120 25 -33 6 -715 150 -855 181 -60 13 -123 26 -139 29 -53 9 -43
15 49 32 17 3 50 10 75 15 25 6 54 13 65 15 11 2 29 6 40 8 11 2 88 18 170 36
83 18 157 33 165 35 72 14 568 119 615 130 33 8 71 16 85 19 14 2 104 21 200
41 217 46 175 37 375 80 94 20 256 54 360 76 218 46 459 97 525 111 25 5 56
11 70 14 14 2 36 7 50 10 14 3 34 8 45 10 11 2 29 6 40 8 11 3 105 23 208 45
198 42 240 59 281 114 47 64 56 131 32 222 -14 49 -14 125 -1 175 19 71 17
129 -5 174 -27 58 -88 110 -143 124 -44 12 -253 58 -297 65 -21 4 -77 16 -250
52 -43 9 -268 58 -285 61 -11 3 -54 12 -95 20 -41 8 -91 19 -110 24 -19 5 -48
11 -65 13 -16 3 -74 15 -129 27 -54 12 -108 23 -120 26 -11 2 -41 8 -66 13
-59 13 -281 60 -306 65 -10 2 -98 21 -194 41 -96 20 -186 39 -200 41 -14 3
-33 7 -42 10 -10 3 -30 7 -45 10 -16 2 -39 7 -53 10 -14 3 -32 7 -40 9 -17 3
-306 65 -330 70 -29 7 -265 56 -290 61 -14 3 -108 23 -209 45 -101 21 -192 39
-204 39 -11 0 -18 2 -15 5 4 4 129 34 208 49 14 2 88 18 165 35 77 16 151 32
165 35 14 3 36 7 50 10 65 14 76 17 95 20 11 3 108 23 215 46 107 23 206 44
220 46 14 3 77 16 140 30 63 14 126 28 140 30 14 3 86 18 160 34 74 16 146 31
160 34 14 2 57 11 95 20 39 8 82 17 95 20 27 5 313 65 345 72 11 3 41 9 66 14
25 5 65 13 90 19 46 11 406 87 449 95 14 3 70 14 125 26 126 27 108 24 252 53
67 14 134 32 150 40 68 36 122 117 123 184 0 37 -76 404 -92 447 -16 39 -52
81 -93 106 -31 19 -143 39 -155 27z m65 -305 c10 -48 26 -125 37 -171 20 -87
18 -99 -22 -102 -8 0 -22 -2 -30 -4 -35 -8 -561 -120 -615 -131 -11 -2 -31 -6
-45 -9 -14 -3 -34 -7 -45 -9 -29 -7 -192 -41 -328 -71 -142 -30 -142 -30 -240
-49 -44 -9 -82 -18 -85 -20 -4 -2 -23 -7 -42 -10 -19 -3 -89 -17 -155 -31 -66
-15 -130 -28 -141 -31 -12 -2 -66 -13 -120 -25 -55 -11 -110 -23 -124 -25 -14
-3 -45 -10 -70 -15 -25 -6 -54 -12 -65 -15 -11 -2 -74 -15 -140 -29 -66 -14
-194 -41 -285 -60 -91 -19 -230 -48 -310 -65 -158 -34 -508 -107 -543 -114
-12 -2 -44 -10 -72 -16 -27 -6 -60 -14 -72 -16 -48 -9 -71 -13 -164 -33 -89
-18 -101 -19 -165 -5 -38 8 -114 24 -169 35 -55 11 -116 24 -135 29 -19 5 -49
12 -66 14 -17 3 -107 22 -200 42 -93 19 -177 37 -188 39 -21 5 -35 15 -20 15
6 0 64 11 129 25 218 47 450 96 475 101 21 4 101 21 468 99 12 3 34 8 50 11
15 3 101 21 192 40 91 20 174 37 185 40 56 11 131 27 140 28 6 1 24 5 40 9 17
4 41 9 55 11 14 3 43 10 65 15 22 5 51 12 65 15 46 9 124 25 268 56 79 16 155
32 170 35 15 2 90 18 167 35 77 17 237 51 355 76 118 25 289 61 380 80 91 19
217 46 280 59 111 23 279 59 330 69 14 3 133 28 265 57 132 28 251 53 265 55
14 3 53 11 88 19 34 8 77 17 94 20 18 4 33 7 35 8 1 2 11 3 21 4 16 1 22 -12
37 -85z m-5055 -1023 c25 -6 108 -23 185 -39 77 -16 183 -39 235 -50 116 -25
240 -51 260 -55 16 -3 160 -33 195 -41 11 -2 32 -6 47 -9 16 -3 56 -12 90 -20
35 -8 74 -16 88 -19 31 -5 434 -91 555 -117 50 -11 104 -22 120 -25 17 -3 68
-14 115 -24 47 -10 96 -21 110 -23 14 -3 77 -17 140 -31 104 -23 316 -67 380
-80 14 -2 88 -18 166 -35 77 -16 156 -33 175 -36 19 -3 61 -12 94 -20 33 -8
148 -33 255 -55 107 -23 245 -52 305 -65 61 -13 121 -26 135 -28 14 -3 72 -15
130 -27 58 -12 114 -24 125 -26 11 -2 94 -20 185 -39 91 -20 208 -45 260 -56
52 -11 118 -25 145 -31 l50 -11 -180 -38 c-99 -21 -198 -41 -220 -44 -22 -4
-43 -9 -47 -11 -3 -2 -30 -9 -60 -15 -29 -6 -64 -13 -78 -15 -92 -18 -266 -56
-270 -59 -4 -2 -78 12 -166 31 -87 19 -171 37 -187 39 -15 3 -60 12 -100 21
-39 8 -83 18 -96 20 -12 3 -51 11 -85 19 -33 8 -72 16 -86 19 -14 2 -79 16
-145 30 -66 14 -219 46 -340 71 -560 119 -664 140 -800 170 -66 14 -154 33
-195 41 -41 9 -115 25 -165 35 -49 11 -101 22 -115 25 -14 2 -56 11 -93 20
-63 13 -238 49 -297 60 -14 3 -32 7 -40 9 -8 3 -33 7 -55 11 -22 3 -43 8 -46
10 -4 2 -49 12 -100 23 -79 16 -356 75 -456 97 -16 3 -48 10 -73 14 -102 20
-200 43 -200 46 0 2 13 63 29 136 16 73 31 150 35 171 8 41 13 43 86 26z
m5041 -1091 c1 -16 -1 -8 38 -192 17 -82 30 -150 29 -151 -2 -1 -115 -26 -253
-54 -205 -43 -562 -118 -650 -137 -11 -2 -36 -7 -55 -11 -19 -4 -37 -8 -40 -8
-3 -1 -18 -4 -35 -8 -16 -4 -40 -9 -51 -11 -12 -3 -66 -14 -120 -26 -55 -12
-110 -24 -124 -26 -14 -3 -140 -29 -280 -59 -140 -30 -266 -56 -280 -59 -14
-3 -176 -37 -360 -76 -606 -129 -664 -141 -805 -170 -77 -16 -205 -43 -285
-60 -80 -17 -189 -40 -243 -51 -54 -11 -121 -26 -149 -34 -27 -7 -71 -12 -96
-11 -36 2 -282 50 -412 81 -18 4 -167 35 -195 41 -11 2 -42 8 -70 14 -27 6
-59 12 -70 14 -11 2 -40 10 -65 17 l-45 12 35 8 c19 4 49 10 65 12 17 3 125
26 240 51 116 25 221 47 235 50 14 2 90 19 170 36 80 17 155 33 166 36 35 7
204 42 284 60 41 8 86 18 100 20 14 3 68 14 120 25 52 11 106 23 120 25 14 3
75 16 137 29 61 14 122 26 135 29 13 2 75 16 138 30 63 14 126 27 140 29 14 3
113 24 220 47 107 23 206 44 220 46 13 3 162 35 330 70 168 36 315 68 328 70
12 2 98 20 190 40 92 20 176 37 187 40 11 2 43 8 70 14 28 6 59 12 70 14 11 3
40 9 65 15 25 5 56 12 70 15 51 9 282 58 520 110 135 30 248 54 253 55 4 0 7
-5 8 -11z m-4900 -1133 c90 -19 184 -39 209 -45 25 -5 56 -12 70 -14 14 -3 90
-19 170 -36 80 -17 179 -38 220 -46 41 -9 82 -17 90 -19 8 -2 83 -18 165 -35
83 -17 166 -35 185 -40 19 -5 49 -11 65 -13 17 -3 138 -28 270 -56 132 -28
283 -61 335 -72 52 -11 113 -24 135 -29 74 -17 125 -27 165 -35 25 -5 297 -62
335 -71 11 -2 34 -7 50 -9 17 -3 37 -8 45 -10 8 -2 27 -6 41 -9 35 -6 257 -53
334 -71 33 -8 74 -16 90 -19 17 -2 83 -16 148 -30 65 -14 128 -28 140 -30 22
-4 132 -27 412 -87 77 -17 151 -32 165 -35 14 -3 86 -18 160 -34 74 -16 146
-31 160 -34 70 -13 224 -47 227 -50 5 -5 -13 -9 -192 -47 -83 -17 -159 -33
-170 -35 -11 -3 -40 -9 -65 -14 -25 -5 -130 -27 -235 -50 -159 -34 -196 -39
-230 -31 -22 5 -56 13 -75 16 -19 3 -73 15 -120 25 -47 10 -101 22 -120 25
-19 3 -51 10 -70 15 -19 5 -48 12 -65 14 -16 3 -41 8 -55 11 -14 3 -54 12 -90
19 -36 8 -130 28 -210 45 -80 17 -154 33 -165 35 -19 4 -78 16 -410 87 -77 17
-160 34 -185 39 -25 5 -121 25 -215 45 -93 20 -181 39 -195 41 -14 3 -53 11
-86 19 -34 8 -74 17 -90 19 -15 3 -50 10 -78 16 -60 12 -57 12 -209 44 -65 14
-128 28 -140 30 -12 3 -55 12 -94 20 -40 9 -85 18 -100 21 -16 3 -37 7 -48 9
-11 3 -54 12 -95 21 -41 9 -84 18 -96 21 -20 4 -174 36 -446 94 -79 17 -177
38 -218 46 -115 23 -113 22 -105 52 4 15 9 38 12 52 3 20 21 104 39 185 2 11
6 30 8 42 7 36 17 45 41 39 13 -3 96 -21 186 -41z m4899 -1060 c0 -2 16 -80
35 -171 19 -92 34 -169 32 -170 -3 -3 -88 -22 -167 -38 -14 -2 -133 -28 -265
-56 -249 -53 -551 -117 -595 -126 -14 -3 -119 -25 -235 -50 -115 -24 -221 -47
-235 -50 -14 -3 -38 -7 -55 -10 -16 -3 -48 -10 -70 -16 -22 -5 -51 -12 -65
-15 -14 -2 -205 -42 -425 -89 -219 -46 -408 -86 -420 -88 -11 -2 -65 -14 -120
-26 -55 -12 -111 -24 -125 -26 -14 -3 -99 -21 -190 -40 -91 -19 -250 -53 -355
-75 -104 -22 -210 -44 -235 -50 -25 -6 -56 -13 -70 -15 -14 -2 -45 -9 -70 -14
-25 -6 -56 -13 -70 -15 -14 -2 -54 -11 -90 -19 -94 -21 -307 -67 -338 -72 -15
-3 -76 -16 -137 -29 -206 -44 -400 -85 -423 -90 -13 -2 -31 -6 -40 -9 -9 -3
-35 -8 -57 -11 -22 -4 -56 -10 -75 -15 -19 -5 -46 -11 -60 -14 -14 -3 -62 -12
-108 -22 -45 -9 -84 -15 -87 -13 -3 4 -75 328 -75 341 0 5 75 23 136 34 16 3
37 7 46 10 10 3 29 7 43 10 14 2 132 27 263 55 130 27 334 70 452 95 118 25
222 47 230 49 8 2 49 10 90 19 41 8 172 36 290 61 118 25 248 52 288 60 41 8
77 17 80 19 4 2 29 7 56 10 27 4 53 9 56 11 4 2 51 13 106 25 113 23 104 21
239 50 55 12 111 24 125 26 14 3 79 17 145 31 66 14 129 27 140 29 11 2 137
29 280 59 248 53 471 101 525 111 14 3 63 14 110 24 47 10 96 21 110 24 14 2
50 10 80 16 30 6 66 14 80 16 14 3 63 14 110 24 83 18 112 24 175 35 17 3 38
8 47 11 16 5 30 8 81 19 56 12 73 16 92 19 11 2 76 16 145 31 69 15 139 29
155 32 17 2 107 22 200 43 166 37 215 45 215 35z m-3495 -1431 c143 -30 283
-59 310 -65 28 -5 60 -11 73 -14 13 -2 31 -6 40 -9 9 -3 28 -7 42 -10 22 -4
252 -52 290 -61 12 -2 191 -40 285 -59 11 -3 94 -20 185 -40 91 -19 176 -37
190 -40 48 -9 225 -47 265 -56 40 -10 75 -17 130 -26 17 -3 44 -9 60 -14 17
-5 44 -11 60 -14 17 -2 50 -9 75 -14 25 -6 56 -13 70 -16 14 -2 113 -23 220
-46 107 -23 204 -44 214 -46 45 -8 218 -45 306 -64 52 -12 118 -25 145 -31 28
-5 59 -11 70 -14 11 -2 85 -18 165 -35 80 -17 152 -33 160 -35 8 -1 54 -11
101 -20 48 -10 91 -20 98 -24 8 -5 4 -41 -15 -127 -14 -65 -27 -128 -30 -139
-2 -11 -7 -35 -10 -52 -3 -18 -8 -33 -9 -33 -2 0 -37 7 -77 16 -40 8 -83 18
-96 20 -13 3 -74 15 -135 29 -62 13 -128 27 -147 30 -19 3 -43 8 -52 11 -9 3
-25 6 -35 8 -10 2 -97 21 -193 41 -96 20 -213 45 -260 55 -47 10 -152 32 -235
49 -82 18 -166 34 -185 37 -19 3 -38 8 -41 10 -5 3 -129 30 -189 41 -14 2 -74
15 -135 28 -60 14 -121 26 -135 29 -14 2 -99 20 -190 40 -91 19 -176 37 -190
40 -14 2 -45 9 -70 15 -25 5 -56 12 -70 15 -58 11 -132 27 -245 51 -170 37
-370 79 -515 110 -69 14 -209 44 -311 66 -102 22 -197 42 -209 44 -27 5 -241
50 -310 66 -25 5 -54 11 -65 14 -11 2 -96 20 -190 40 -93 19 -207 43 -252 52
-46 9 -82 17 -80 19 2 1 406 88 467 100 14 2 35 6 48 9 13 2 31 6 40 9 9 3 33
8 52 11 19 3 73 14 120 25 47 10 94 21 105 23 11 3 22 5 25 6 3 0 122 -24 265
-55z"/>
</g>
</svg>
