<svg width="366" height="490" viewBox="0 0 366 490" fill="none" xmlns="http://www.w3.org/2000/svg">
<path d="M141.303 173.412L79.7032 247.393L79.2202 159.201L140.571 123.623L141.303 173.412Z" fill="#CCCCCC"/>
<path d="M79.7105 247.942C79.6476 247.953 79.5832 247.953 79.5203 247.942C79.4149 247.902 79.3242 247.831 79.2601 247.738C79.1961 247.645 79.1618 247.535 79.1617 247.422L78.6714 159.231C78.6702 159.135 78.6947 159.04 78.7423 158.956C78.7899 158.873 78.8589 158.803 78.9422 158.755L140.3 123.177C140.382 123.128 140.475 123.101 140.571 123.1C140.666 123.099 140.76 123.123 140.844 123.17C140.927 123.216 140.996 123.284 141.045 123.367C141.093 123.449 141.119 123.543 141.12 123.638L141.851 173.434C141.856 173.499 141.847 173.564 141.825 173.626C141.804 173.687 141.771 173.744 141.727 173.793L80.1276 247.744C80.0763 247.805 80.0125 247.854 79.9405 247.888C79.8686 247.922 79.7901 247.941 79.7105 247.942V247.942ZM79.7617 159.523L80.2374 245.871L140.746 173.207L140.015 124.553L79.7617 159.523Z" fill="#444444"/>
<path d="M210.424 391.03C212.283 387.847 214.273 384.766 216.278 381.678C217.274 380.156 218.32 378.597 219.44 377.104C220.575 375.608 221.797 374.178 223.098 372.824C225.702 370.062 228.654 367.651 231.879 365.652C233.509 364.651 235.206 363.763 236.958 362.996C237.858 362.645 238.743 362.264 239.651 361.979C240.558 361.694 241.48 361.364 242.424 361.167L243.829 360.83C244.297 360.735 244.78 360.669 245.249 360.589C246.2 360.406 247.159 360.325 248.117 360.23C249.076 360.135 250.049 360.164 251.008 360.128H253.744C257.242 360.147 260.723 359.654 264.077 358.664C267.486 357.62 270.752 356.157 273.802 354.31C277 352.503 280.183 350.688 283.461 349.012C280.629 351.368 277.71 353.586 274.79 355.81C273.304 356.949 271.747 357.993 270.128 358.935C268.488 359.879 266.775 360.691 265.006 361.364C261.426 362.751 257.634 363.513 253.796 363.618C252.844 363.655 251.944 363.618 251.037 363.669C250.13 363.721 249.303 363.706 248.439 363.823C247.576 363.94 246.72 363.991 245.863 364.167C245.439 364.247 245.015 364.306 244.59 364.394L243.324 364.708C236.555 366.348 230.394 370.116 225.103 374.851C222.436 377.28 219.956 379.908 217.683 382.71C215.305 385.534 212.942 388.33 210.424 391.03Z" fill="#0084B2"/>
<path d="M213.322 390.203C214.961 388.556 216.688 387.049 218.445 385.527C220.223 383.98 222.155 382.619 224.211 381.466C228.388 379.102 233.035 377.69 237.822 377.331C239 377.243 240.295 377.265 241.312 377.243C242.329 377.221 243.507 377.156 244.554 377.046C246.73 376.819 248.884 376.413 250.993 375.831C252.047 375.553 253.101 375.202 254.213 374.851C255.325 374.499 256.408 374.177 257.506 373.863C259.701 373.241 261.896 372.611 264.194 372.143C262.226 373.365 260.199 374.441 258.172 375.524C257.152 376.06 256.13 376.58 255.106 377.082C254.096 377.587 253.035 378.114 251.923 378.546C249.706 379.448 247.393 380.094 245.029 380.47C243.842 380.661 242.645 380.785 241.444 380.844C240.185 380.888 239.19 380.844 238.092 380.968C233.741 381.293 229.473 382.326 225.455 384.027C223.397 384.874 221.395 385.851 219.462 386.954C217.435 388.095 215.43 389.215 213.322 390.203Z" fill="#0084B2"/>
<path d="M147.244 391.191C146.871 394.637 155.03 397.681 168.641 398.625C186.042 399.826 205.653 397.162 212.547 392.618C214.259 391.498 215.027 390.371 214.961 389.288V320.269L147.244 322.171V391.191Z" fill="#F9F9F9"/>
<path d="M177.085 399.452C174.239 399.452 171.4 399.364 168.612 399.167C157.782 398.435 149.893 396.24 147.508 393.423C147.227 393.12 147.011 392.764 146.874 392.375C146.737 391.986 146.681 391.573 146.71 391.161V322.171C146.71 322.028 146.766 321.891 146.866 321.788C146.965 321.686 147.101 321.626 147.244 321.622L214.954 319.72C215.028 319.716 215.102 319.727 215.172 319.754C215.241 319.78 215.304 319.821 215.356 319.873C215.409 319.925 215.451 319.986 215.48 320.054C215.509 320.122 215.524 320.195 215.525 320.269V389.295C215.613 390.591 214.713 391.871 212.861 393.086C206.978 396.913 192.021 399.452 177.085 399.452ZM147.815 322.705V391.257C147.8 391.525 147.84 391.793 147.933 392.045C148.026 392.297 148.17 392.527 148.357 392.72C150.515 395.303 158.316 397.359 168.7 398.077C185.903 399.262 205.448 396.613 212.268 392.157C213.3 391.483 214.508 390.452 214.464 389.325V320.832L147.815 322.705Z" fill="#444444"/>
<path d="M79.6592 325.742L224.73 338.965L281.807 297.123L140.71 289.835L79.6592 325.742Z" fill="#F9F9F9"/>
<path d="M224.73 339.536H224.65L79.6081 326.284C79.4932 326.272 79.385 326.225 79.2986 326.148C79.2123 326.072 79.1523 325.97 79.1272 325.857C79.1021 325.744 79.1131 325.627 79.1587 325.521C79.2043 325.415 79.2822 325.326 79.3812 325.266L140.432 289.366C140.524 289.309 140.631 289.284 140.739 289.293L281.837 296.611C281.95 296.619 282.058 296.661 282.147 296.732C282.235 296.802 282.301 296.898 282.334 297.006C282.367 297.115 282.364 297.231 282.327 297.339C282.291 297.446 282.222 297.54 282.13 297.606L225.052 339.448C224.956 339.509 224.844 339.54 224.73 339.536V339.536ZM81.4082 325.347L224.569 338.402L280.264 297.591L140.864 290.398L81.4082 325.347Z" fill="#444444"/>
<path d="M211.207 314.773C204.314 319.281 184.703 321.981 167.302 320.781C153.691 319.837 145.539 316.793 145.913 313.346C146.022 312.344 146.857 311.312 148.481 310.28C155.66 305.743 175.556 303.131 192.782 304.426C205.588 305.377 213.41 308.217 213.622 311.458C213.674 312.527 212.942 313.654 211.207 314.773Z" fill="#CCCCCC"/>
<path d="M175.724 321.615C172.885 321.615 170.039 321.52 167.258 321.33C156.428 320.598 148.532 318.403 146.154 315.578C145.868 315.274 145.65 314.912 145.514 314.517C145.378 314.123 145.327 313.704 145.364 313.288C145.495 312.088 146.439 310.917 148.181 309.819C155.411 305.246 175.432 302.575 192.818 303.863C205.741 304.821 213.922 307.712 214.171 311.407C214.259 312.739 213.366 314.027 211.515 315.234C205.624 319.047 190.682 321.615 175.724 321.615ZM183.671 304.631C169.102 304.631 154.584 307.046 148.737 310.741C147.318 311.641 146.542 312.563 146.425 313.405C146.409 313.673 146.449 313.941 146.542 314.193C146.636 314.445 146.78 314.675 146.966 314.868C149.162 317.459 156.926 319.508 167.309 320.225C184.513 321.418 204.058 318.761 210.878 314.312C211.903 313.639 213.117 312.6 213.073 311.473C212.905 309.051 206.488 305.97 192.73 304.953C189.774 304.741 186.737 304.631 183.671 304.631Z" fill="#444444"/>
<path d="M156.552 307.214L146.308 314.378C146.493 314.833 146.775 315.243 147.135 315.578L160.445 306.307C159.055 306.607 157.767 306.892 156.552 307.214Z" fill="#BFBFBF"/>
<path d="M170.909 304.755L151.774 318.095C152.323 318.286 152.915 318.469 153.537 318.644L173.836 304.499C172.849 304.572 171.875 304.66 170.909 304.755Z" fill="#BFBFBF"/>
<path d="M182.647 304.126L159.896 319.983C160.584 320.086 161.294 320.188 162.026 320.276L185.208 304.126H182.647Z" fill="#BFBFBF"/>
<path d="M193.023 304.411L169.373 320.891C170.178 320.934 170.983 320.971 171.788 320.993L195.306 304.609C194.56 304.555 193.799 304.489 193.023 304.411Z" fill="#BFBFBF"/>
<path d="M202.207 305.59L180.012 321.037C180.92 321.037 181.827 320.971 182.727 320.927L204.16 305.992C203.553 305.875 202.895 305.721 202.207 305.59Z" fill="#BFBFBF"/>
<path d="M209.898 307.778L192.204 320.108C193.294 319.969 194.362 319.822 195.409 319.654L211.383 308.524C210.902 308.247 210.406 307.998 209.898 307.778Z" fill="#BFBFBF"/>
<path d="M213.52 312.797L208.397 316.346C209.471 315.93 210.502 315.413 211.478 314.802C212.309 314.306 213.009 313.619 213.52 312.797V312.797Z" fill="#BFBFBF"/>
<path d="M175.724 321.615C172.885 321.615 170.039 321.52 167.258 321.33C156.428 320.598 148.532 318.403 146.154 315.578C145.868 315.274 145.65 314.912 145.514 314.517C145.378 314.123 145.327 313.704 145.364 313.288C145.495 312.088 146.439 310.917 148.181 309.819C155.411 305.246 175.432 302.575 192.818 303.863C205.741 304.821 213.922 307.712 214.171 311.407C214.259 312.739 213.366 314.027 211.515 315.234C205.624 319.047 190.682 321.615 175.724 321.615ZM183.671 304.631C169.102 304.631 154.584 307.046 148.737 310.741C147.318 311.641 146.542 312.563 146.425 313.405C146.409 313.673 146.449 313.941 146.542 314.193C146.636 314.445 146.78 314.675 146.966 314.868C149.162 317.459 156.926 319.508 167.309 320.225C184.513 321.418 204.058 318.761 210.878 314.312C211.903 313.639 213.117 312.6 213.073 311.473C212.905 309.051 206.488 305.97 192.73 304.953C189.774 304.741 186.737 304.631 183.671 304.631Z" fill="#444444"/>
<path d="M282.166 297.27L139.839 280.951L140.571 123.689L281.251 132.522L282.166 297.27Z" fill="#CCCCCC"/>
<path d="M282.166 297.826H282.108L139.766 281.5C139.633 281.482 139.51 281.417 139.422 281.316C139.333 281.215 139.284 281.086 139.283 280.951L140.015 123.682C140.016 123.607 140.032 123.534 140.062 123.466C140.092 123.398 140.136 123.337 140.19 123.287C140.244 123.234 140.309 123.194 140.379 123.169C140.45 123.144 140.525 123.134 140.6 123.14L281.288 131.973C281.427 131.982 281.557 132.044 281.653 132.146C281.748 132.248 281.8 132.382 281.8 132.521L282.715 297.269C282.715 297.347 282.699 297.423 282.667 297.494C282.636 297.565 282.59 297.628 282.532 297.679C282.434 297.774 282.303 297.827 282.166 297.826V297.826ZM140.388 280.461L281.617 296.655L280.703 133.041L141.12 124.26L140.388 280.461Z" fill="#444444"/>
<path d="M144.091 124.582L140.783 126.66V128.438L146.454 124.713L144.091 124.582Z" fill="#BFBFBF"/>
<path d="M154.094 125.153L140.051 134.936V136.722L156.457 125.284L154.094 125.153Z" fill="#BFBFBF"/>
<path d="M164.097 125.723L140.051 142.481V144.266L166.468 125.862L164.097 125.723Z" fill="#BFBFBF"/>
<path d="M174.107 126.302L140.051 150.032V151.811L176.471 126.433L174.107 126.302Z" fill="#BFBFBF"/>
<path d="M184.118 126.872L140.051 157.577V159.362L186.481 127.004L184.118 126.872Z" fill="#BFBFBF"/>
<path d="M194.121 127.443L140.051 165.121V166.907L196.484 127.582L194.121 127.443Z" fill="#BFBFBF"/>
<path d="M204.131 128.021L140.051 172.666V174.451L206.495 128.153L204.131 128.021Z" fill="#BFBFBF"/>
<path d="M214.134 128.592L140.051 180.217V182.003L216.498 128.731L214.134 128.592Z" fill="#BFBFBF"/>
<path d="M224.145 129.163L140.051 187.762V189.547L226.509 129.302L224.145 129.163Z" fill="#BFBFBF"/>
<path d="M234.148 129.741L140.051 195.306V197.092L236.512 129.872L234.148 129.741Z" fill="#BFBFBF"/>
<path d="M244.159 130.312L140.051 202.858V204.636L246.522 130.451L244.159 130.312Z" fill="#BFBFBF"/>
<path d="M254.162 130.89L140.051 210.403V212.188L256.525 131.021L254.162 130.89Z" fill="#BFBFBF"/>
<path d="M264.172 131.46L140.051 217.947V219.732L266.536 131.599L264.172 131.46Z" fill="#BFBFBF"/>
<path d="M274.175 132.031L140.051 225.499V227.277L276.539 132.17L274.175 132.031Z" fill="#BFBFBF"/>
<path d="M281.464 134.504L140.051 233.043V234.828L281.464 136.283V134.504Z" fill="#BFBFBF"/>
<path d="M281.464 142.049L140.051 240.587V242.373L281.464 143.834V142.049Z" fill="#BFBFBF"/>
<path d="M281.464 149.593L140.051 248.139V249.917L281.464 151.379V149.593Z" fill="#BFBFBF"/>
<path d="M281.464 157.138L140.051 255.684V257.469L281.464 158.923V157.138Z" fill="#BFBFBF"/>
<path d="M281.464 164.689L140.051 263.228V265.014L281.464 166.468V164.689Z" fill="#BFBFBF"/>
<path d="M281.464 172.234L140.051 270.78V272.558L281.464 174.019V172.234Z" fill="#BFBFBF"/>
<path d="M281.464 179.778L140.051 278.324V280.11L281.464 181.564V179.778Z" fill="#BFBFBF"/>
<path d="M281.464 187.33L145.913 281.785L148.005 282.115L281.464 189.108V187.33Z" fill="#BFBFBF"/>
<path d="M281.463 194.86L154.752 283.161L156.867 283.483L281.463 196.66V194.86Z" fill="#BFBFBF"/>
<path d="M281.463 202.404L163.614 284.53L165.729 284.859L281.463 204.204V202.404Z" fill="#BFBFBF"/>
<path d="M281.463 209.949L172.475 285.905L174.568 286.227L281.463 211.734V209.949Z" fill="#BFBFBF"/>
<path d="M281.463 217.5L181.337 287.274L183.422 287.603L281.463 219.279V217.5Z" fill="#BFBFBF"/>
<path d="M281.463 225.045L190.191 288.649L192.284 288.971L281.463 226.83V225.045Z" fill="#BFBFBF"/>
<path d="M281.464 232.589L199.053 290.018L201.146 290.347L281.464 234.375V232.589Z" fill="#BFBFBF"/>
<path d="M281.464 240.141L207.915 291.393L210.007 291.715L281.464 241.919V240.141Z" fill="#BFBFBF"/>
<path d="M281.464 247.686L216.776 292.769L218.869 293.091L281.464 249.471V247.686Z" fill="#BFBFBF"/>
<path d="M281.464 255.23L225.638 294.138L227.731 294.46L281.464 257.015V255.23Z" fill="#BFBFBF"/>
<path d="M281.464 262.782L234.492 295.513L236.585 295.835L281.464 264.56V262.782Z" fill="#BFBFBF"/>
<path d="M281.463 270.326L243.354 296.882L245.446 297.211L281.463 272.112V270.326Z" fill="#BFBFBF"/>
<path d="M281.464 277.871L252.215 298.257L254.308 298.579L281.464 279.656V277.871Z" fill="#BFBFBF"/>
<path d="M281.463 285.422L261.077 299.626L263.17 299.955L281.463 287.201V285.422Z" fill="#BFBFBF"/>
<path d="M281.464 292.967L269.931 301.001L272.031 301.323L281.464 294.752V292.967Z" fill="#BFBFBF"/>
<path d="M282.166 297.27L282.195 295.389L279.524 297.255L281.617 297.577L282.166 297.27Z" fill="#BFBFBF"/>
<path d="M282.166 297.826H282.108L139.766 281.5C139.633 281.482 139.51 281.417 139.422 281.316C139.333 281.215 139.284 281.086 139.283 280.951L140.015 123.682C140.016 123.607 140.032 123.534 140.062 123.466C140.092 123.398 140.136 123.337 140.19 123.287C140.244 123.234 140.309 123.194 140.379 123.169C140.45 123.144 140.525 123.134 140.6 123.14L281.288 131.973C281.427 131.982 281.557 132.044 281.653 132.146C281.748 132.248 281.8 132.382 281.8 132.521L282.715 297.269C282.715 297.347 282.699 297.423 282.667 297.494C282.636 297.565 282.59 297.628 282.532 297.679C282.434 297.774 282.303 297.827 282.166 297.826V297.826ZM140.388 280.461L281.617 296.655L280.703 133.041L141.12 124.26L140.388 280.461Z" fill="#444444"/>
<path d="M282.166 297.269L225.162 354.712V172.395L282.239 132.126L282.166 297.269Z" fill="#CCCCCC"/>
<path d="M225.162 355.261C225.092 355.26 225.023 355.248 224.957 355.225C224.856 355.183 224.769 355.112 224.708 355.021C224.646 354.93 224.614 354.822 224.613 354.713V172.395C224.614 172.307 224.635 172.221 224.676 172.143C224.717 172.066 224.776 171.999 224.847 171.949L281.925 131.702C282.007 131.644 282.104 131.61 282.204 131.604C282.305 131.598 282.405 131.619 282.495 131.666C282.584 131.713 282.658 131.783 282.71 131.87C282.762 131.956 282.789 132.055 282.788 132.156L282.715 297.299C282.715 297.444 282.657 297.584 282.554 297.687L225.55 355.13C225.498 355.177 225.436 355.213 225.37 355.235C225.303 355.258 225.232 355.267 225.162 355.261V355.261ZM225.711 172.695V353.381L281.617 297.035L281.727 133.18L225.711 172.695Z" fill="#444444"/>
<path d="M225.162 354.713L79.3592 333.543L79.2202 159.201L225.162 172.717V354.713Z" fill="#F9F9F9"/>
<path d="M225.162 355.261H225.082L79.2787 334.084C79.1494 334.063 79.0315 333.998 78.9459 333.899C78.8602 333.8 78.8122 333.674 78.8104 333.543L78.6714 159.201C78.6722 159.124 78.6888 159.048 78.7203 158.977C78.7518 158.907 78.7974 158.844 78.8543 158.791C78.9103 158.74 78.9763 158.702 79.0481 158.678C79.12 158.654 79.196 158.645 79.2714 158.652L225.213 172.175C225.35 172.186 225.478 172.249 225.571 172.351C225.663 172.453 225.713 172.587 225.711 172.724V354.712C225.712 354.792 225.696 354.87 225.663 354.942C225.63 355.015 225.581 355.078 225.521 355.13C225.422 355.217 225.294 355.264 225.162 355.261ZM79.9081 333.067L224.65 354.083V173.222L79.7617 159.801L79.9081 333.067Z" fill="#444444"/>
<path d="M197.165 261.282V250.027H200.831V253.693H209.21V257.615H200.831V261.282H197.165Z" fill="#99C6D6"/>
<path d="M197.297 216.125V219.528V223.457H209.334V219.528H201.226V216.125H209.334V212.203H201.226H197.297V216.125Z" fill="#99C6D6"/>
<path d="M202.009 187.33L197.297 183.927V188.377L202.009 191.779V192.306H197.297V196.228H209.334V192.306H204.885V191.26L209.334 189.167V184.454L203.319 188.113L202.009 187.33Z" fill="#99C6D6"/>
<path d="M197.297 202.251V205.909L209.334 211.149V206.956L207.241 206.436V201.965L209.334 201.182V196.997L197.297 202.251ZM204.365 205.397L201.233 204.087L204.38 203.041L204.365 205.397Z" fill="#99C6D6"/>
<path d="M197.297 241.78V245.439L209.334 250.671V246.485L207.241 245.959V241.509L209.334 240.726V236.541L197.297 241.78ZM204.365 244.919L201.219 243.61L204.365 242.563V244.919Z" fill="#99C6D6"/>
<path d="M197.297 229.077V235.494H209.334V231.572H206.451V229.077C206.451 228.476 206.332 227.88 206.102 227.325C205.872 226.77 205.534 226.265 205.109 225.84C204.683 225.416 204.178 225.079 203.623 224.849C203.067 224.62 202.471 224.502 201.87 224.503V224.503C201.27 224.503 200.675 224.622 200.12 224.852C199.565 225.081 199.061 225.418 198.636 225.843C198.211 226.268 197.875 226.772 197.645 227.327C197.415 227.882 197.297 228.476 197.297 229.077V229.077ZM203.319 229.845V231.572H200.502V229.845C200.502 229.469 200.651 229.108 200.918 228.841C201.184 228.575 201.545 228.426 201.921 228.426C202.298 228.426 202.659 228.575 202.925 228.841C203.191 229.108 203.341 229.469 203.341 229.845H203.319Z" fill="#99C6D6"/>
<path d="M257.974 125.365C257.87 125.364 257.768 125.334 257.68 125.279C257.592 125.223 257.522 125.144 257.477 125.05C243.793 96.7018 217.062 93.665 216.791 93.6357C216.716 93.6325 216.643 93.6141 216.576 93.5816C216.508 93.5491 216.449 93.5032 216.4 93.4467C216.351 93.3902 216.314 93.3243 216.291 93.2531C216.269 93.1819 216.261 93.1068 216.268 93.0324C216.276 92.9581 216.298 92.886 216.335 92.8207C216.371 92.7554 216.42 92.6982 216.48 92.6526C216.539 92.607 216.607 92.574 216.679 92.5555C216.751 92.5371 216.827 92.5336 216.901 92.5454C217.179 92.5454 244.503 95.6554 258.465 124.574C258.497 124.639 258.516 124.71 258.52 124.782C258.525 124.854 258.515 124.926 258.491 124.994C258.467 125.063 258.43 125.125 258.381 125.179C258.333 125.232 258.274 125.276 258.208 125.306C258.136 125.344 258.056 125.364 257.974 125.365V125.365Z" fill="#444444"/>
<path d="M138.427 97.4776L153.867 93.8188C153.867 93.8188 161.916 131.87 192.833 114.308C223.75 96.7459 200.151 147.969 200.151 147.969C200.151 147.969 132.514 153.091 130.312 153.091C128.109 153.091 97.9605 147.969 102.373 142.847C106.785 137.724 123.696 114.308 125.899 112.113C128.102 109.918 138.427 97.4776 138.427 97.4776Z" fill="#CCCCCC"/>
<path d="M130.341 153.669C128.511 153.669 103.829 149.615 101.605 144.756C101.431 144.389 101.375 143.977 101.443 143.577C101.511 143.176 101.7 142.807 101.985 142.517C104.18 139.949 109.53 132.814 114.681 125.914C119.833 119.013 124.421 112.874 125.54 111.754C127.736 109.603 137.9 97.2799 137.98 97.1189C138.06 97.0297 138.165 96.9661 138.28 96.936L153.72 93.2772C153.864 93.2464 154.013 93.2727 154.138 93.3504C154.199 93.3896 154.253 93.4409 154.294 93.5012C154.336 93.5616 154.365 93.6298 154.379 93.7016C154.416 93.8773 158.287 111.432 170.266 116.811C176.581 119.642 184.074 118.64 192.54 113.825C199.646 109.786 204.402 109.017 207.08 111.469C214.347 118.135 201.226 146.966 200.663 148.196C200.619 148.283 200.554 148.358 200.473 148.413C200.393 148.468 200.299 148.502 200.202 148.51C197.465 148.73 132.543 153.669 130.341 153.669ZM138.734 97.9971C137.527 99.4606 128.416 110.437 126.294 112.53C125.226 113.591 120.521 119.899 115.537 126.572C110.415 133.487 105.037 140.637 102.797 143.234C102.65 143.365 102.549 143.539 102.509 143.732C102.47 143.925 102.494 144.125 102.578 144.303C104.444 148.371 127.655 152.572 130.319 152.572C132.397 152.572 194.714 147.859 199.792 147.449C201.175 144.361 212.656 118.084 206.334 112.288C204.087 110.225 199.624 111.066 193.082 114.784C184.301 119.781 176.464 120.806 169.812 117.82C158.396 112.698 154.196 97.6092 153.435 94.4846L138.734 97.9971Z" fill="#444444"/>
<path d="M143 96.2702L133.297 103.002C132.112 104.415 130.839 105.929 129.638 107.312L146.893 95.3481L143 96.2702Z" fill="#BFBFBF"/>
<path d="M153.977 96.2043L118.786 120.616L116.006 124.326L154.438 97.6679C154.262 97.1337 154.108 96.6434 153.977 96.2043Z" fill="#BFBFBF"/>
<path d="M156.201 102.212L106.998 136.341C105.915 137.761 104.92 139.063 104.071 140.161L156.845 103.573C156.596 103.105 156.399 102.651 156.201 102.212Z" fill="#BFBFBF"/>
<path d="M159.143 107.715L103.529 146.293C104.002 146.577 104.49 146.834 104.993 147.062L159.97 108.93C159.677 108.527 159.406 108.125 159.143 107.715Z" fill="#BFBFBF"/>
<path d="M162.97 112.61L110.422 149.059L112.23 149.586L164.046 113.649C163.672 113.313 163.314 112.969 162.97 112.61Z" fill="#BFBFBF"/>
<path d="M168.099 116.598L118.34 151.093C119.006 151.247 119.664 151.386 120.301 151.518L169.57 117.345C169.08 117.118 168.59 116.862 168.099 116.598Z" fill="#BFBFBF"/>
<path d="M175.695 118.874L126.894 152.725C127.78 152.864 128.504 152.967 129.031 153.025L178.212 118.918C177.373 118.955 176.533 118.94 175.695 118.874V118.874Z" fill="#BFBFBF"/>
<path d="M195.65 112.581L138.017 152.557L140.885 152.352L200.743 110.832C198.981 111.206 197.27 111.793 195.65 112.581V112.581Z" fill="#BFBFBF"/>
<path d="M206.707 112.442L150.142 151.671L153.069 151.459L207.483 113.722C207.284 113.262 207.023 112.832 206.707 112.442V112.442Z" fill="#BFBFBF"/>
<path d="M208.229 118.933L162.326 150.742L165.253 150.53L208.134 120.791C208.171 120.169 208.214 119.54 208.229 118.933Z" fill="#BFBFBF"/>
<path d="M206.949 127.37L174.517 149.864L177.4 149.645L206.392 129.521C206.59 128.789 206.78 128.058 206.949 127.37Z" fill="#BFBFBF"/>
<path d="M204.073 136.912L186.715 148.949L189.642 148.73L203.246 139.29C203.495 138.529 203.787 137.731 204.073 136.912Z" fill="#BFBFBF"/>
<path d="M199.953 147.318L198.928 148.049L199.66 147.991C199.66 147.991 199.77 147.735 199.953 147.318Z" fill="#BFBFBF"/>
<path d="M130.341 153.669C128.511 153.669 103.829 149.615 101.605 144.756C101.431 144.389 101.375 143.977 101.443 143.577C101.511 143.176 101.7 142.807 101.985 142.517C104.18 139.949 109.53 132.814 114.681 125.914C119.833 119.013 124.421 112.874 125.54 111.754C127.736 109.603 137.9 97.2799 137.98 97.1189C138.06 97.0297 138.165 96.9661 138.28 96.936L153.72 93.2772C153.864 93.2464 154.013 93.2727 154.138 93.3504C154.199 93.3896 154.253 93.4409 154.294 93.5012C154.336 93.5616 154.365 93.6298 154.379 93.7016C154.416 93.8773 158.287 111.432 170.266 116.811C176.581 119.642 184.074 118.64 192.54 113.825C199.646 109.786 204.402 109.017 207.08 111.469C214.347 118.135 201.226 146.966 200.663 148.196C200.619 148.283 200.554 148.358 200.473 148.413C200.393 148.468 200.299 148.502 200.202 148.51C197.465 148.73 132.543 153.669 130.341 153.669ZM138.734 97.9971C137.527 99.4606 128.416 110.437 126.294 112.53C125.226 113.591 120.521 119.899 115.537 126.572C110.415 133.487 105.037 140.637 102.797 143.234C102.65 143.365 102.549 143.539 102.509 143.732C102.47 143.925 102.494 144.125 102.578 144.303C104.444 148.371 127.655 152.572 130.319 152.572C132.397 152.572 194.714 147.859 199.792 147.449C201.175 144.361 212.656 118.084 206.334 112.288C204.087 110.225 199.624 111.066 193.082 114.784C184.301 119.781 176.464 120.806 169.812 117.82C158.396 112.698 154.196 97.6092 153.435 94.4846L138.734 97.9971Z" fill="#444444"/>
<path d="M153.589 93.504L136.985 97.2506C136.985 97.2506 157.474 73.4538 177.912 77.2443C177.912 77.2443 158.06 76.8345 153.589 93.504Z" fill="#0084B2"/>
<path d="M239.636 137.029C239.5 137.03 239.369 136.98 239.268 136.89C239.166 136.799 239.102 136.674 239.087 136.539C235.429 102.146 209.473 96.0873 209.217 96.036C209.146 96.0207 209.08 95.9915 209.02 95.9503C208.961 95.909 208.91 95.8565 208.871 95.7957C208.832 95.7349 208.805 95.667 208.792 95.5958C208.78 95.5247 208.781 95.4517 208.796 95.3811C208.812 95.3105 208.841 95.2436 208.882 95.1842C208.923 95.1248 208.976 95.0742 209.037 95.0351C209.097 94.996 209.165 94.9693 209.236 94.9565C209.308 94.9437 209.381 94.945 209.451 94.9603C209.722 95.0189 236.402 101.246 240.185 136.422C240.202 136.566 240.16 136.712 240.069 136.825C239.979 136.939 239.847 137.013 239.702 137.029H239.636Z" fill="#444444"/>
<path d="M249.12 106.837C252.325 103.244 255.632 99.7679 258.94 96.2847C259.759 95.4139 260.659 94.5797 261.523 93.7163C262.386 92.8528 263.33 92.0917 264.238 91.2722C265.145 90.4526 266.133 89.7282 267.106 88.9891C268.079 88.25 269.075 87.5256 270.106 86.8743C274.204 84.1635 278.593 81.9201 283.19 80.186C287.799 78.4429 292.588 77.2158 297.467 76.5272C299.909 76.2078 302.366 76.0197 304.828 75.9638C306.058 75.9638 307.287 75.9126 308.487 75.9638H312.036C316.724 75.8979 321.393 75.3684 325.976 74.3832C330.591 73.3786 335.101 71.9429 339.448 70.0951C343.904 68.3023 348.353 66.4948 352.868 64.8411C348.69 67.2339 344.446 69.4731 340.202 71.7196C338.06 72.861 335.861 73.8941 333.616 74.8149C331.348 75.7275 329.029 76.5093 326.671 77.1566C321.93 78.457 317.058 79.218 312.146 79.425C310.909 79.4762 309.695 79.4835 308.487 79.4909C307.28 79.4982 306.109 79.4909 304.945 79.5567C302.614 79.6407 300.289 79.8459 297.979 80.1714C293.335 80.7679 288.767 81.857 284.354 83.4204C279.927 84.9523 275.66 86.9129 271.614 89.2745C267.542 91.665 263.71 94.4414 260.169 97.5653C256.518 100.726 252.874 103.851 249.12 106.837Z" fill="#0084B2"/>
<path d="M253.24 106.032C255.867 104.276 258.56 102.673 261.289 101.063C264.051 99.4621 266.939 98.0892 269.924 96.9579C275.945 94.6842 282.292 93.3921 288.723 93.1308C289.52 93.1308 290.325 93.1308 291.13 93.0869H293.443C294.965 93.0869 296.487 92.9918 298.009 92.8747C301.061 92.6405 304.098 92.235 307.104 91.66C308.605 91.3819 310.097 91.0014 311.641 90.6721L316.244 89.6843C319.325 89.0769 322.406 88.4549 325.53 87.9939C322.603 89.2379 319.676 90.3209 316.749 91.4112C313.822 92.5015 310.895 93.5479 307.785 94.4407C304.701 95.3299 301.549 95.9614 298.36 96.3286C296.765 96.5189 295.162 96.636 293.552 96.7018C292.762 96.7018 291.92 96.7018 291.167 96.753C290.413 96.8043 289.645 96.753 288.884 96.8189C282.775 97.0755 276.717 98.0406 270.831 99.6947C267.865 100.538 264.946 101.539 262.087 102.695C259.138 103.822 256.225 105 253.24 106.032Z" fill="#0084B2"/>
<path d="M226.289 169.336L114.579 153.369L134.087 130.341C144.551 119.73 162.999 105.519 162.999 90.577L162.86 89.8452L256.847 96.592C256.847 111.374 257.52 128.058 266.236 139.985L243.895 155.499L226.289 169.336Z" fill="#CCCCCC"/>
<path d="M226.289 169.885H226.216L114.498 153.918C114.401 153.905 114.309 153.865 114.233 153.803C114.157 153.741 114.099 153.659 114.067 153.567C114.032 153.476 114.022 153.377 114.037 153.281C114.052 153.184 114.093 153.094 114.154 153.018L133.663 129.982C135.566 128.058 137.68 126.053 139.92 123.938C149.945 114.425 162.414 102.658 162.45 90.6356L162.319 89.9844C162.302 89.9008 162.305 89.8146 162.326 89.7323C162.348 89.6499 162.388 89.5734 162.443 89.5087C162.501 89.4469 162.571 89.3985 162.65 89.3669C162.728 89.3353 162.812 89.3213 162.897 89.3258L256.847 96.0433C256.985 96.0544 257.114 96.1171 257.207 96.2188C257.301 96.3206 257.353 96.4539 257.352 96.5921C257.352 111.293 258.084 127.963 266.638 139.663C266.712 139.78 266.74 139.919 266.715 140.055C266.691 140.191 266.616 140.312 266.506 140.395L244.166 155.916L226.604 169.731C226.517 169.813 226.407 169.867 226.289 169.885V169.885ZM115.618 152.938L226.113 168.729L243.522 155.038L265.431 139.824C257.074 128.021 256.284 111.637 256.262 97.0751L163.519 90.4454C163.523 90.4794 163.523 90.5138 163.519 90.5478C163.519 103.061 150.837 115.062 140.644 124.706C138.412 126.814 136.305 128.811 134.446 130.692L115.618 152.938Z" fill="#444444"/>
<path d="M162.86 89.8745L162.75 90.5331C162.75 90.899 162.75 91.2649 162.707 91.6234L164.558 90.3282L162.86 89.8745Z" fill="#BFBFBF"/>
<path d="M172.044 90.8479L161.067 98.546C160.709 99.4314 160.292 100.317 159.838 101.195L174.378 91.0089L172.044 90.8479Z" fill="#BFBFBF"/>
<path d="M181.849 91.5283L151.013 113.123C149.22 115.076 147.354 116.972 145.43 118.816L184.169 91.6893L181.849 91.5283Z" fill="#BFBFBF"/>
<path d="M191.655 92.209L133.824 132.712V134.497L193.975 92.3627L191.655 92.209Z" fill="#BFBFBF"/>
<path d="M201.46 92.8821L133.824 140.256V142.042L203.78 93.0431L201.46 92.8821Z" fill="#BFBFBF"/>
<path d="M133.824 147.808V149.586L213.586 93.7235L211.266 93.5625L133.824 147.808Z" fill="#BFBFBF"/>
<path d="M133.824 157.138L134.9 156.377L133.824 156.223V157.138Z" fill="#BFBFBF"/>
<path d="M221.072 94.2432L133.824 155.352V156.223L134.9 156.377L223.384 94.4042L221.072 94.2432Z" fill="#BFBFBF"/>
<path d="M230.877 94.9236L141.734 157.357L143.849 157.657L233.197 95.0846L230.877 94.9236Z" fill="#BFBFBF"/>
<path d="M240.683 95.6042L150.684 158.638L152.798 158.938L242.995 95.7652L240.683 95.6042Z" fill="#BFBFBF"/>
<path d="M250.488 96.2847L159.633 159.911L161.748 160.218L252.801 96.4457L250.488 96.2847Z" fill="#BFBFBF"/>
<path d="M257.22 100.895C257.22 100.302 257.22 99.7094 257.22 99.1167L256.759 99.4387C256.759 100.031 256.759 100.624 256.759 101.217L257.22 100.895Z" fill="#BFBFBF"/>
<path d="M256.752 99.4387L168.583 161.192L170.697 161.492L256.759 101.217C256.759 100.624 256.752 100.031 256.752 99.4387Z" fill="#BFBFBF"/>
<path d="M257.367 108.337C257.367 107.759 257.323 107.181 257.308 106.595L256.862 106.917C256.862 107.495 256.898 108.073 256.92 108.651L257.367 108.337Z" fill="#BFBFBF"/>
<path d="M256.847 106.917L177.532 162.45L179.647 162.75L256.92 108.6C256.898 108.073 256.847 107.495 256.847 106.917Z" fill="#BFBFBF"/>
<path d="M257.842 115.552C257.791 114.996 257.74 114.432 257.696 113.876L257.264 114.176C257.315 114.732 257.367 115.289 257.425 115.845L257.842 115.552Z" fill="#BFBFBF"/>
<path d="M257.264 114.154L186.481 163.731L188.596 164.031L257.425 115.823C257.367 115.289 257.316 114.732 257.264 114.154Z" fill="#BFBFBF"/>
<path d="M258.816 122.423C258.713 121.896 258.618 121.369 258.53 120.835L258.135 121.113C258.223 121.64 258.326 122.167 258.428 122.694L258.816 122.423Z" fill="#BFBFBF"/>
<path d="M258.135 121.113L195.431 165.019L197.545 165.326L258.428 122.687C258.311 122.204 258.223 121.64 258.135 121.113Z" fill="#BFBFBF"/>
<path d="M260.411 128.848C260.257 128.358 260.111 127.867 259.972 127.385L259.606 127.641C259.752 128.131 259.906 128.621 260.06 129.104L260.411 128.848Z" fill="#BFBFBF"/>
<path d="M259.606 127.626L204.38 166.307L206.495 166.607L260.06 129.097C259.906 128.607 259.774 128.116 259.606 127.626Z" fill="#BFBFBF"/>
<path d="M262.753 134.753C262.54 134.307 262.328 133.86 262.131 133.407L261.816 133.626C262.021 134.08 262.233 134.526 262.453 134.965L262.753 134.753Z" fill="#BFBFBF"/>
<path d="M261.816 133.626L213.33 167.573L215.444 167.873L262.452 134.944C262.233 134.519 262.021 134.08 261.816 133.626Z" fill="#BFBFBF"/>
<path d="M243.156 155.499L236.995 160.343L265.943 140.066C265.65 139.678 265.38 139.276 265.109 138.873L264.845 139.056C265.058 139.363 265.27 139.678 265.497 139.985L243.156 155.499Z" fill="#BFBFBF"/>
<path d="M236.995 160.343L243.156 155.499L265.497 139.985C265.27 139.678 265.058 139.363 264.845 139.056L222.279 168.868L224.394 169.168L236.995 160.343Z" fill="#BFBFBF"/>
<path d="M225.564 169.885H225.484L113.774 153.918C113.676 153.904 113.584 153.864 113.507 153.802C113.429 153.74 113.37 153.659 113.335 153.567C113.299 153.475 113.29 153.376 113.306 153.279C113.323 153.183 113.366 153.092 113.43 153.018L132.939 129.982C134.944 127.948 137.212 125.826 139.612 123.579C149.674 114.154 162.202 102.446 162.202 90.5331C162.198 90.504 162.198 90.4745 162.202 90.4453L162.304 89.7867C162.327 89.6511 162.4 89.5288 162.508 89.4437C162.616 89.3585 162.752 89.3165 162.889 89.3257L256.847 96.0433C256.985 96.0543 257.113 96.117 257.207 96.2187C257.301 96.3205 257.352 96.4538 257.352 96.5921V96.8701C257.352 111.447 257.352 127.97 265.906 139.663C265.984 139.778 266.015 139.918 265.992 140.054C265.969 140.191 265.893 140.313 265.782 140.395L243.441 155.916L225.879 169.731C225.794 169.815 225.683 169.869 225.564 169.885V169.885ZM114.886 152.937L225.382 168.729L242.783 155.038L264.699 139.824C256.298 127.941 256.254 111.578 256.254 97.075L163.321 90.4307V90.5477C163.321 102.9 150.596 114.791 140.388 124.348C137.995 126.587 135.734 128.702 133.802 130.692L114.886 152.937Z" fill="#444444"/>
<path d="M162.45 91.6602C162.45 92.2602 162.45 92.8676 162.406 93.4749L162.772 93.2188C162.772 92.6114 162.809 92.0114 162.816 91.4041L162.45 91.6602Z" fill="#BFBFBF"/>
<path d="M163.965 99.6436C163.863 100.324 163.745 100.997 163.621 101.671L163.987 101.414C164.111 100.741 164.236 100.068 164.338 99.3875L163.965 99.6436Z" fill="#BFBFBF"/>
<path d="M161.814 108.703C161.558 109.493 161.287 110.276 160.994 111.059L161.375 110.788C161.667 110.012 161.938 109.229 162.194 108.432L161.814 108.703Z" fill="#BFBFBF"/>
<path d="M157.657 113.086C157.028 114.164 156.365 115.223 155.667 116.262L156.084 115.969C156.772 114.937 156.699 120.469 157.321 119.394L157.657 113.086Z" fill="#BFBFBF"/>
<path d="M254.652 142.81H254.601L136.839 132.214C136.724 132.203 136.615 132.156 136.529 132.08C136.442 132.004 136.382 131.902 136.356 131.79C136.33 131.678 136.34 131.561 136.383 131.455C136.426 131.349 136.501 131.259 136.597 131.197L149.037 123.44C159.172 113.152 162.26 105.468 162.26 90.5698L162.348 89.838C162.363 89.6969 162.432 89.5672 162.542 89.4768C162.651 89.3865 162.792 89.3428 162.933 89.3551L256.847 96.0433C256.985 96.0544 257.114 96.1171 257.207 96.2188C257.301 96.3206 257.353 96.4539 257.352 96.5921C257.352 107.012 260.579 110.876 265.914 117.264C267.648 119.343 269.609 121.699 271.768 124.618C271.812 124.683 271.843 124.756 271.858 124.833C271.873 124.909 271.872 124.988 271.856 125.065C271.839 125.142 271.805 125.215 271.757 125.278C271.709 125.341 271.648 125.393 271.578 125.431L260.682 131.109L255.113 142.503C255.071 142.591 255.006 142.666 254.925 142.72C254.844 142.774 254.749 142.805 254.652 142.81V142.81ZM138.551 131.263L254.308 141.683L259.774 130.465C259.824 130.357 259.91 130.27 260.016 130.216L270.502 124.75C268.526 122.094 266.704 119.913 265.087 117.967C259.679 111.491 256.379 107.539 256.306 97.1044L163.372 90.46V90.6356C163.372 105.834 160.197 113.701 149.784 124.253C149.755 124.283 149.724 124.31 149.689 124.333L138.551 131.263Z" fill="#444444"/>
<path d="M161.865 121.165C156.457 129.946 114.074 142.612 114.074 142.612L102.761 115.574L162.86 89.8745C162.86 89.8745 167.265 112.391 161.865 121.165Z" fill="#CCCCCC"/>
<path d="M114.074 143.161C113.966 143.16 113.861 143.128 113.771 143.068C113.682 143.008 113.611 142.924 113.569 142.825L102.256 115.75C102.226 115.683 102.209 115.611 102.207 115.538C102.205 115.465 102.218 115.392 102.245 115.324C102.271 115.255 102.311 115.193 102.362 115.141C102.413 115.088 102.474 115.046 102.541 115.018L162.641 89.3184C162.715 89.2822 162.796 89.2634 162.879 89.2634C162.961 89.2634 163.042 89.2822 163.116 89.3184C163.189 89.3547 163.251 89.4074 163.299 89.4722C163.348 89.537 163.38 89.6121 163.394 89.6916C163.577 90.621 167.785 112.523 162.326 121.377C156.882 130.231 115.969 142.539 114.235 143.059C114.189 143.104 114.134 143.139 114.074 143.161V143.161ZM103.478 115.859L114.389 141.961C119.05 140.542 156.465 128.907 161.397 120.901C166.109 113.24 163.109 94.4554 162.443 90.6722L103.478 115.859Z" fill="#444444"/>
<path d="M282.122 132.06L224.84 172.563L206.224 169.431L209.663 124.333L256.847 96.592L257.791 99.7386C261.801 111.988 271.241 123.47 281.412 131.329L282.122 132.06Z" fill="#CCCCCC"/>
<path d="M224.84 173.112H224.752L206.136 169.973C206.002 169.951 205.881 169.88 205.796 169.772C205.712 169.665 205.672 169.53 205.683 169.395L209.115 124.304C209.121 124.215 209.15 124.13 209.197 124.055C209.244 123.979 209.309 123.917 209.385 123.872L256.554 96.131C256.626 96.0871 256.706 96.0604 256.79 96.0529C256.873 96.0455 256.957 96.0574 257.035 96.0879C257.113 96.1184 257.183 96.1666 257.239 96.2287C257.296 96.2908 257.337 96.365 257.359 96.4457L258.303 99.5849C261.926 110.656 270.685 122.365 281.72 130.904L282.503 131.687C282.558 131.744 282.6 131.812 282.627 131.886C282.653 131.961 282.663 132.04 282.656 132.119C282.65 132.198 282.626 132.275 282.587 132.345C282.547 132.414 282.494 132.474 282.429 132.521L225.14 173.024C225.051 173.083 224.947 173.113 224.84 173.112V173.112ZM206.81 168.97L224.708 171.963L281.281 131.965L280.995 131.716C269.836 123.096 260.938 111.191 257.242 99.9069L256.511 97.4189L210.19 124.662L206.81 168.97Z" fill="#444444"/>
<path d="M78.9788 159.443C78.9788 159.443 102.666 132.251 102.666 117.316V116.079L208.551 124.128H209.715C209.715 138.902 213.066 156.487 221.781 168.392L224.708 172.388L78.9788 159.443Z" fill="#F9F9F9"/>
<path d="M224.708 172.958H224.65L78.9274 159.992C78.8265 159.982 78.7302 159.945 78.649 159.884C78.5677 159.823 78.5046 159.742 78.4664 159.648C78.4272 159.555 78.4154 159.452 78.4323 159.352C78.4491 159.253 78.4939 159.16 78.5615 159.084C78.7957 158.814 102.117 131.878 102.117 117.316V116.079C102.117 116.003 102.132 115.928 102.162 115.858C102.193 115.789 102.237 115.726 102.293 115.674C102.348 115.623 102.414 115.583 102.486 115.559C102.558 115.534 102.634 115.524 102.71 115.53L208.595 123.579H209.715C209.787 123.578 209.859 123.592 209.926 123.619C209.993 123.646 210.054 123.687 210.105 123.738C210.156 123.789 210.196 123.85 210.224 123.917C210.251 123.984 210.264 124.056 210.263 124.128C210.263 141.412 214.734 157.84 222.22 168.034L225.147 172.036C225.21 172.121 225.248 172.222 225.254 172.327C225.261 172.433 225.236 172.538 225.184 172.629C225.145 172.724 225.079 172.805 224.995 172.864C224.91 172.922 224.811 172.955 224.708 172.958V172.958ZM80.0836 158.989L223.545 171.758L221.349 168.736C210.6 154.05 209.239 133.444 209.188 124.699H208.551L103.214 116.65V117.294C103.214 130.985 84.0863 154.277 80.0836 158.989Z" fill="#444444"/>
<path d="M224.65 172.871C225.704 143.659 229.143 123.257 209.334 98.1801C206.473 94.5579 200.019 97.5581 200.129 102.146C200.129 103.573 195.738 159.062 154.657 147.515C137.571 142.693 131.651 115.406 137.571 98.5313L137.615 98.3996C139.151 94.0529 134.402 91.8138 130.165 94.8506C115.611 105.242 94.9676 126.587 81.8692 153.274C80.9911 155.06 80.0471 157.365 79.2056 159.201L224.65 172.871Z" fill="#F9F9F9"/>
<path d="M224.65 173.427H224.599L79.1689 159.743C79.0815 159.736 78.9972 159.707 78.9233 159.66C78.8493 159.613 78.788 159.548 78.7444 159.472C78.7046 159.394 78.6838 159.307 78.6838 159.22C78.6838 159.132 78.7046 159.045 78.7444 158.967C79.0737 158.236 79.425 157.453 79.7762 156.64C80.3177 155.404 80.8739 154.123 81.4154 153.033C94.7773 125.745 115.859 104.393 129.85 94.4042C132.302 92.6553 135.178 92.4065 137.007 93.7896C138.405 94.8433 138.829 96.6361 138.141 98.5826L138.097 98.707C134.343 109.427 135.485 124.136 140.871 134.49C144.288 141.076 149.11 145.371 154.774 146.974C165.421 149.974 174.532 148.635 181.769 143.008C197.619 130.714 199.55 102.424 199.543 102.161C199.47 99.2338 201.636 97.1849 203.809 96.4019C204.823 95.9792 205.945 95.8933 207.011 96.1568C208.077 96.4203 209.03 97.0193 209.729 97.8655C227.555 120.44 226.669 139.576 225.55 163.877C225.418 166.804 225.279 169.812 225.162 172.922C225.16 172.996 225.143 173.068 225.112 173.135C225.08 173.202 225.035 173.262 224.979 173.31C224.885 173.383 224.769 173.424 224.65 173.427V173.427ZM80.0396 158.726L224.094 172.271C224.203 169.344 224.335 166.541 224.459 163.797C225.616 138.815 226.443 120.769 208.873 98.5167C207.805 97.163 206.056 96.7605 204.19 97.4337C202.448 98.063 200.59 99.8046 200.648 102.132C200.648 102.402 198.709 131.248 182.464 143.842C174.905 149.696 165.494 151.108 154.481 148.006C148.488 146.322 143.439 141.815 139.846 134.973C134.365 124.399 133.18 109.325 137.036 98.3484L137.088 98.2167C137.614 96.7532 137.336 95.4287 136.356 94.6677C135.185 93.7896 132.858 93.6139 130.502 95.297C116.598 105.212 95.6846 126.411 82.4106 153.516C81.891 154.584 81.3349 155.857 80.7934 157.087C80.4933 157.643 80.2738 158.199 80.0396 158.726Z" fill="#444444"/>
<path d="M129.046 95.1797L137.571 97.2506C137.571 97.2506 176.668 50.2571 200.451 99.7605C200.451 99.7605 202.99 95.9188 205.829 96.8335C208.668 97.7482 175.82 42.537 129.046 95.1797Z" fill="#00A5EB"/>
<path d="M174.934 73.2638C174.934 73.2638 197.919 79.0593 205.449 96.8703L222.118 91.4699C222.118 91.4699 212.561 80.1496 201.007 73.5638C196.534 71.0403 191.382 69.9809 186.276 70.5343L167.507 72.4442C167.507 72.4442 172.161 72.854 174.934 73.2638Z" fill="#2CC8FF"/>
<path d="M205.975 96.5922L222.118 91.4187C222.118 91.4187 251.886 96.841 282.239 132.148L224.708 172.959C224.708 172.959 229.04 112.779 205.975 96.5922Z" fill="#E8E8E8"/>
<path d="M224.708 173.485C224.613 173.484 224.52 173.458 224.437 173.412C224.347 173.36 224.273 173.284 224.224 173.192C224.175 173.1 224.152 172.997 224.159 172.893C224.203 172.293 228.235 112.888 205.661 97.0239C205.575 96.9662 205.509 96.8851 205.468 96.7903C205.428 96.6955 205.416 96.5911 205.434 96.4897C205.449 96.3891 205.492 96.2948 205.558 96.2173C205.624 96.1397 205.71 96.082 205.807 96.0507L221.95 90.8771C222.035 90.8515 222.127 90.8515 222.213 90.8771C222.513 90.9284 252.53 96.7312 282.656 131.782C282.707 131.84 282.745 131.907 282.768 131.98C282.791 132.053 282.799 132.13 282.79 132.206C282.781 132.282 282.756 132.356 282.716 132.421C282.677 132.487 282.624 132.544 282.561 132.587L225.023 173.398C224.929 173.458 224.82 173.488 224.708 173.485ZM207.146 96.7678C227.826 112.691 225.821 163.27 225.33 171.817L281.434 132.024C252.72 98.8679 224.32 92.4138 222.162 91.9674L207.146 96.7678Z" fill="#444444"/>
</svg>
