<svg width="366" height="490" viewBox="0 0 366 490" fill="none" xmlns="http://www.w3.org/2000/svg">
<path d="M141.302 173.412L79.7029 247.393L78.9712 159.443L140.571 123.623L141.302 173.412Z" fill="#CCCCCC"/>
<path d="M79.7104 247.942C79.6471 247.949 79.5833 247.949 79.5201 247.942C79.4159 247.902 79.326 247.832 79.262 247.741C79.1981 247.649 79.1631 247.541 79.1615 247.429L78.4298 159.479C78.428 159.382 78.4522 159.286 78.4998 159.201C78.5474 159.116 78.6166 159.046 78.7005 158.996L140.3 123.14C140.382 123.092 140.475 123.067 140.571 123.067C140.666 123.067 140.759 123.092 140.841 123.14C140.926 123.188 140.998 123.257 141.048 123.34C141.098 123.424 141.125 123.519 141.127 123.616L141.859 173.376C141.861 173.507 141.814 173.635 141.727 173.734L80.1275 247.744C80.0761 247.805 80.0123 247.854 79.9404 247.888C79.8684 247.922 79.79 247.941 79.7104 247.942V247.942ZM79.5274 159.758L80.2592 245.893L140.768 173.222L140.037 124.567L79.5274 159.758Z" fill="#444444"/>
<path d="M141.939 289.008L79.6079 333.484V275.039L141.207 240.683L141.939 289.008Z" fill="#CCCCCC"/>
<path d="M79.6079 334.033C79.5214 334.034 79.4359 334.014 79.3591 333.974C79.2692 333.928 79.1937 333.857 79.1408 333.771C79.088 333.685 79.0597 333.585 79.0591 333.484V275.039C79.0593 274.941 79.086 274.845 79.1362 274.761C79.1865 274.678 79.2584 274.609 79.3445 274.563L140.944 240.17C141.026 240.123 141.12 240.099 141.215 240.099C141.31 240.099 141.403 240.123 141.485 240.17C141.568 240.217 141.637 240.285 141.684 240.368C141.732 240.45 141.757 240.544 141.756 240.639L142.488 288.935C142.491 289.023 142.472 289.111 142.433 289.191C142.393 289.27 142.334 289.338 142.261 289.388L79.9299 333.865C79.8467 333.958 79.7322 334.018 79.6079 334.033V334.033ZM80.1567 275.361V332.438L141.39 288.744L140.658 241.619L80.1567 275.361Z" fill="#444444"/>
<path d="M275.617 404.926C274.468 406.909 273.194 408.782 271.958 410.663C271.314 411.599 270.663 412.526 270.004 413.443L269.053 414.79C268.767 415.236 268.467 415.683 268.204 416.151C266.029 419.78 264.722 423.862 264.384 428.079C264.34 428.598 264.318 429.125 264.311 429.652L264.245 431.423C264.194 432.023 264.121 432.623 264.055 433.223C263.989 433.823 263.864 434.416 263.74 435.001C263.225 437.347 262.375 439.607 261.216 441.711C258.965 445.859 255.462 449.188 251.205 451.224C254.401 448.214 256.929 444.567 258.625 440.519C259.418 438.551 259.99 436.502 260.33 434.408L260.535 432.842C260.535 432.323 260.615 431.796 260.637 431.276L260.674 429.667C260.674 429.059 260.674 428.459 260.74 427.859C261.098 423.028 262.855 418.405 265.796 414.556C266.517 413.624 267.299 412.741 268.138 411.914C268.936 411.109 269.74 410.319 270.56 409.529C272.214 407.948 273.853 406.382 275.617 404.926Z" fill="#0084B2"/>
<path d="M161.828 383.31C160.68 385.293 159.406 387.166 158.133 389.047C157.489 389.983 156.838 390.91 156.179 391.827L155.228 393.174C154.943 393.627 154.643 394.066 154.379 394.535C152.214 398.176 150.92 402.268 150.596 406.492C150.552 407.019 150.53 407.538 150.523 408.065L150.457 409.836C150.406 410.436 150.333 411.036 150.267 411.636C150.201 412.236 150.076 412.829 149.952 413.414C149.438 415.761 148.588 418.021 147.427 420.124C145.177 424.272 141.674 427.601 137.417 429.637C140.621 426.606 143.149 422.933 144.837 418.858C145.631 416.891 146.203 414.842 146.542 412.748L146.747 411.19C146.747 410.663 146.827 410.136 146.849 409.616V408.006C146.849 407.406 146.849 406.799 146.915 406.199C147.295 401.384 149.065 396.783 152.008 392.954C152.729 392.022 153.511 391.14 154.35 390.313C155.148 389.515 155.952 388.717 156.772 387.934C158.418 386.368 160.065 384.773 161.828 383.31Z" fill="#0084B2"/>
<path d="M282.305 419.034L140.893 397.132V240.595L282.305 248.703V419.034Z" fill="#CCCCCC"/>
<path d="M282.305 419.583H282.224L140.812 397.674C140.682 397.655 140.563 397.59 140.477 397.49C140.392 397.391 140.344 397.264 140.344 397.133V240.595C140.344 240.52 140.36 240.447 140.39 240.379C140.42 240.311 140.464 240.25 140.519 240.2C140.571 240.145 140.635 240.102 140.706 240.075C140.777 240.049 140.854 240.039 140.929 240.046L282.341 248.154C282.481 248.163 282.611 248.225 282.706 248.327C282.801 248.429 282.854 248.563 282.854 248.703V419.034C282.855 419.113 282.838 419.192 282.806 419.264C282.773 419.336 282.724 419.4 282.663 419.451C282.565 419.538 282.437 419.585 282.305 419.583V419.583ZM141.441 396.657L281.727 418.397V249.215L141.412 241.166L141.441 396.657Z" fill="#444444"/>
<path d="M145.144 241.488L141.112 244.298V246.083L147.508 241.619L145.144 241.488Z" fill="#BFBFBF"/>
<path d="M155.147 242.058L141.112 251.842V253.627L157.511 242.197L155.147 242.058Z" fill="#BFBFBF"/>
<path d="M165.158 242.636L141.112 259.394V261.172L167.521 242.768L165.158 242.636Z" fill="#BFBFBF"/>
<path d="M175.161 243.207L141.112 266.938V268.724L177.532 243.346L175.161 243.207Z" fill="#BFBFBF"/>
<path d="M185.171 243.778L141.112 274.482V276.268L187.535 243.917L185.171 243.778Z" fill="#BFBFBF"/>
<path d="M195.182 244.356L141.112 282.034V283.812L197.546 244.488L195.182 244.356Z" fill="#BFBFBF"/>
<path d="M205.185 244.927L141.112 289.579V291.364L207.549 245.066L205.185 244.927Z" fill="#BFBFBF"/>
<path d="M215.188 245.505L141.112 297.123V298.909L217.559 245.637L215.188 245.505Z" fill="#BFBFBF"/>
<path d="M225.199 246.076L141.112 304.675V306.453L227.562 246.207L225.199 246.076Z" fill="#BFBFBF"/>
<path d="M235.209 246.646L141.112 312.219V314.005L237.573 246.786L235.209 246.646Z" fill="#BFBFBF"/>
<path d="M245.212 247.225L141.112 319.764V321.549L247.576 247.356L245.212 247.225Z" fill="#BFBFBF"/>
<path d="M255.223 247.795L141.112 327.316V329.094L257.586 247.934L255.223 247.795Z" fill="#BFBFBF"/>
<path d="M265.226 248.366L141.112 334.86V336.645L267.589 248.505L265.226 248.366Z" fill="#BFBFBF"/>
<path d="M275.236 248.944L141.112 342.404V344.19L277.6 249.076L275.236 248.944Z" fill="#BFBFBF"/>
<path d="M282.525 251.41L141.112 349.956V351.734L282.525 253.196V251.41Z" fill="#BFBFBF"/>
<path d="M282.525 258.955L141.112 357.5V359.286L282.525 260.74V258.955Z" fill="#BFBFBF"/>
<path d="M282.525 266.506L141.112 365.045V366.83L282.525 268.285V266.506Z" fill="#BFBFBF"/>
<path d="M282.525 274.051L141.112 372.589V374.375L282.525 275.829V274.051Z" fill="#BFBFBF"/>
<path d="M282.525 281.595L141.112 380.141V381.919L282.525 283.381V281.595Z" fill="#BFBFBF"/>
<path d="M282.525 289.147L141.112 387.686V389.471L282.525 290.925V289.147Z" fill="#BFBFBF"/>
<path d="M282.525 296.691L141.112 395.237V397.015L282.525 298.477V296.691Z" fill="#BFBFBF"/>
<path d="M282.525 304.236L146.966 398.699L149.059 399.02L282.525 306.021V304.236Z" fill="#BFBFBF"/>
<path d="M282.525 311.766L155.806 400.067L157.921 400.396L282.525 313.566V311.766Z" fill="#BFBFBF"/>
<path d="M282.524 319.317L164.667 401.443L166.782 401.765L282.524 321.11V319.317Z" fill="#BFBFBF"/>
<path d="M282.525 326.862L173.529 402.811L175.622 403.133L282.525 328.647V326.862Z" fill="#BFBFBF"/>
<path d="M282.524 334.406L182.391 404.187L184.483 404.509L282.524 336.192V334.406Z" fill="#BFBFBF"/>
<path d="M282.525 341.958L191.252 405.555L193.345 405.884L282.525 343.736V341.958Z" fill="#BFBFBF"/>
<path d="M282.524 349.502L200.106 406.931L202.207 407.253L282.524 351.288V349.502Z" fill="#BFBFBF"/>
<path d="M282.525 357.047L208.968 408.307L211.061 408.629L282.525 358.832V357.047Z" fill="#BFBFBF"/>
<path d="M282.524 364.591L217.83 409.675L219.922 409.997L282.524 366.377V364.591Z" fill="#BFBFBF"/>
<path d="M282.525 372.143L226.691 411.051L228.784 411.373L282.525 373.921V372.143Z" fill="#BFBFBF"/>
<path d="M282.525 379.688L235.553 412.419L237.646 412.748L282.525 381.473V379.688Z" fill="#BFBFBF"/>
<path d="M282.525 387.232L244.407 413.795L246.507 414.117L282.525 389.017V387.232Z" fill="#BFBFBF"/>
<path d="M282.525 394.784L253.269 415.163L255.362 415.492L282.525 396.562V394.784Z" fill="#BFBFBF"/>
<path d="M282.524 402.328L262.13 416.539L264.223 416.861L282.524 404.114V402.328Z" fill="#BFBFBF"/>
<path d="M282.525 409.873L270.992 417.915L273.085 418.237L282.525 411.658V409.873Z" fill="#BFBFBF"/>
<path d="M282.524 419.202V417.424L279.854 419.283L281.946 419.605L282.524 419.202Z" fill="#BFBFBF"/>
<path d="M282.305 419.583H282.224L140.812 397.674C140.682 397.655 140.563 397.59 140.477 397.49C140.392 397.391 140.344 397.264 140.344 397.133V240.595C140.344 240.52 140.36 240.447 140.39 240.379C140.42 240.311 140.464 240.25 140.519 240.2C140.571 240.145 140.635 240.102 140.706 240.075C140.777 240.049 140.854 240.039 140.929 240.046L282.341 248.154C282.481 248.163 282.611 248.225 282.706 248.327C282.801 248.429 282.854 248.563 282.854 248.703V419.034C282.855 419.113 282.838 419.192 282.806 419.264C282.773 419.336 282.724 419.4 282.663 419.451C282.565 419.538 282.437 419.585 282.305 419.583V419.583ZM141.441 396.657L281.727 418.397V249.215L141.412 241.166L141.441 396.657Z" fill="#444444"/>
<g opacity="0.5">
<path opacity="0.5" d="M86.2451 314.173L94.2579 361.232L231.938 383.2L237.039 328.816L86.2451 314.173Z" fill="#9AC9EF"/>
<path opacity="0.5" d="M231.967 383.749H231.879L94.1992 361.796C94.0864 361.775 93.9825 361.721 93.9015 361.64C93.8204 361.559 93.766 361.455 93.7455 361.342L85.7327 314.276C85.7182 314.193 85.7232 314.109 85.7474 314.028C85.7715 313.948 85.8141 313.875 85.8718 313.815C85.9298 313.754 86.0005 313.706 86.079 313.676C86.1574 313.646 86.2416 313.633 86.3255 313.639L237.09 328.267C237.234 328.283 237.366 328.355 237.459 328.467C237.552 328.579 237.598 328.722 237.587 328.867L232.465 383.251C232.451 383.387 232.387 383.513 232.285 383.605C232.184 383.696 232.053 383.748 231.916 383.749H231.967ZM94.7334 360.757L231.448 382.563L236.438 329.291L86.9109 314.788L94.7334 360.757Z" fill="black"/>
</g>
<g opacity="0.5">
<path opacity="0.5" d="M231.938 383.2L274.19 335.087L279.29 286.981L242.863 303.716L236.446 335.087L231.938 383.2Z" fill="#727F89"/>
<path opacity="0.5" d="M231.967 383.749C231.892 383.748 231.817 383.733 231.748 383.705C231.641 383.659 231.552 383.58 231.493 383.48C231.433 383.38 231.407 383.264 231.418 383.149L235.933 335.036L242.358 303.57C242.375 303.484 242.411 303.404 242.464 303.335C242.518 303.267 242.587 303.212 242.666 303.175L279.085 286.447C279.173 286.404 279.27 286.386 279.367 286.395C279.464 286.404 279.556 286.44 279.634 286.498C279.713 286.554 279.776 286.631 279.816 286.72C279.856 286.808 279.871 286.906 279.861 287.003L274.739 335.109C274.729 335.223 274.683 335.33 274.607 335.416L232.355 383.522C232.311 383.586 232.253 383.639 232.186 383.678C232.119 383.717 232.045 383.741 231.967 383.749V383.749ZM243.375 304.097L237.016 335.197L232.67 381.568L273.678 334.86L278.653 287.881L243.375 304.097Z" fill="black"/>
</g>
<path d="M281.705 297.584L224.76 354.822V286.981L281.705 248.571V297.584Z" fill="#CCCCCC"/>
<path d="M224.76 355.371C224.687 355.371 224.615 355.356 224.548 355.327C224.447 355.286 224.362 355.216 224.302 355.126C224.242 355.036 224.21 354.931 224.211 354.822V286.981C224.21 286.891 224.231 286.803 224.274 286.723C224.316 286.644 224.377 286.577 224.452 286.527L281.398 248.117C281.484 248.065 281.583 248.037 281.683 248.037C281.784 248.037 281.883 248.065 281.969 248.117C282.055 248.165 282.128 248.235 282.178 248.32C282.228 248.405 282.254 248.502 282.254 248.6V297.628C282.256 297.7 282.242 297.772 282.214 297.839C282.187 297.906 282.145 297.966 282.093 298.016L225.148 355.254C225.037 355.339 224.899 355.38 224.76 355.371V355.371ZM225.309 287.274V353.491L281.156 297.357V249.603L225.309 287.274Z" fill="#444444"/>
<path d="M224.759 354.822L79.6079 333.645V275.214L224.759 286.981V354.822Z" fill="#F9F9F9"/>
<path d="M224.759 355.371H224.65L79.5347 334.187C79.4041 334.177 79.2815 334.12 79.1889 334.028C79.0963 333.935 79.0399 333.812 79.0298 333.682V275.214C79.0295 275.139 79.045 275.064 79.0753 274.995C79.1057 274.925 79.1502 274.863 79.2061 274.812C79.2619 274.761 79.3278 274.722 79.3995 274.698C79.4713 274.674 79.5472 274.666 79.6225 274.673L224.774 286.432C224.912 286.443 225.04 286.506 225.134 286.608C225.228 286.709 225.279 286.843 225.279 286.981V354.822C225.278 354.901 225.26 354.979 225.228 355.051C225.195 355.123 225.148 355.187 225.089 355.239C224.995 355.316 224.88 355.362 224.759 355.371V355.371ZM80.1567 333.17L224.211 354.171V287.486L80.1567 275.814V333.17Z" fill="#444444"/>
<path opacity="0.5" d="M242.717 337.341C242.578 337.339 242.444 337.284 242.344 337.188C242.243 337.091 242.183 336.96 242.176 336.821C242.171 336.749 242.18 336.677 242.203 336.609C242.226 336.541 242.263 336.478 242.311 336.425C242.358 336.371 242.416 336.327 242.481 336.296C242.546 336.265 242.616 336.247 242.688 336.243L274.153 334.56C274.298 334.556 274.439 334.607 274.546 334.704C274.654 334.801 274.72 334.935 274.732 335.079C274.735 335.151 274.725 335.224 274.701 335.292C274.677 335.36 274.64 335.423 274.592 335.476C274.543 335.53 274.485 335.574 274.42 335.605C274.355 335.636 274.284 335.654 274.212 335.657L242.746 337.341H242.717Z" fill="black"/>
<path opacity="0.5" d="M94.2578 361.781C94.1666 361.78 94.077 361.757 93.9967 361.714C93.9164 361.67 93.8478 361.608 93.7968 361.533C93.726 361.413 93.7032 361.271 93.733 361.135C93.7629 360.999 93.8433 360.88 93.9578 360.801L125.95 340.012C126.069 339.939 126.212 339.915 126.349 339.945C126.485 339.975 126.604 340.057 126.682 340.173C126.753 340.292 126.776 340.434 126.746 340.57C126.716 340.706 126.636 340.825 126.521 340.904L94.5359 361.686C94.4545 361.744 94.3578 361.777 94.2578 361.781V361.781Z" fill="black"/>
<path d="M160.101 359.235C159.874 359.454 159.648 359.674 159.428 359.901C155.093 364.128 152.458 369.799 152.023 375.838C151.979 376.439 151.964 377.046 151.957 377.646V379.256C151.957 379.775 151.891 380.302 151.854 380.829L151.649 382.388C151.313 384.482 150.741 386.532 149.944 388.498C148.26 392.572 145.734 396.246 142.532 399.277C146.786 397.24 150.288 393.911 152.535 389.764C153.699 387.662 154.549 385.401 155.059 383.054C155.191 382.468 155.272 381.868 155.381 381.275C155.491 380.683 155.52 380.083 155.572 379.475L155.63 377.704C155.63 377.178 155.667 376.658 155.711 376.131C156.028 371.907 157.321 367.814 159.487 364.174C159.757 363.713 160.05 363.267 160.343 362.813L161.287 361.467C161.601 361.042 161.901 360.603 162.201 360.172L160.101 359.235Z" fill="#0084B2"/>
<path d="M213.593 353.388C213.373 353.615 213.147 353.835 212.92 354.054C212.081 354.881 211.299 355.764 210.578 356.696C207.637 360.545 205.88 365.168 205.522 369.999C205.47 370.599 205.456 371.199 205.456 371.807V373.416C205.456 373.936 205.383 374.463 205.353 374.982L205.148 376.548C204.808 378.642 204.236 380.691 203.443 382.659C201.756 386.733 199.227 390.406 196.023 393.437C200.28 391.401 203.784 388.072 206.034 383.924C207.193 381.821 208.044 379.561 208.558 377.214C208.683 376.629 208.771 376.029 208.873 375.436C208.976 374.843 209.012 374.236 209.063 373.636L209.129 371.865C209.129 371.338 209.129 370.811 209.202 370.292C209.508 366.064 210.788 361.964 212.942 358.313C213.205 357.845 213.505 357.398 213.791 356.952L214.742 355.605L215.657 354.303L213.593 353.388Z" fill="#0084B2"/>
<path d="M102.241 337.019L101.561 337.677C100.722 338.505 99.94 339.387 99.2192 340.319C96.278 344.168 94.5211 348.791 94.1627 353.622C94.1188 354.222 94.0969 354.83 94.0969 355.43L94.0603 357.039C94.0603 357.559 93.9871 358.086 93.9578 358.613L93.753 360.171C93.417 362.266 92.845 364.316 92.048 366.282C90.3604 370.356 87.832 374.029 84.6279 377.06C88.8845 375.025 92.3883 371.695 94.6384 367.548C95.799 365.444 96.6493 363.184 97.163 360.837C97.2874 360.252 97.3752 359.652 97.4776 359.059C97.5801 358.466 97.624 357.859 97.6679 357.259L97.7337 355.488C97.7337 354.961 97.7337 354.442 97.8142 353.915C98.1316 349.691 99.4241 345.598 101.59 341.958C101.854 341.49 102.154 341.051 102.439 340.597L103.39 339.25L104.305 337.955L102.241 337.019Z" fill="#0084B2"/>
<path d="M149.711 359.235L149.037 359.901C148.197 360.724 147.415 361.604 146.696 362.535C143.755 366.385 141.998 371.007 141.639 375.838C141.588 376.439 141.573 377.046 141.573 377.646L141.537 379.256C141.537 379.775 141.464 380.302 141.434 380.829L141.23 382.388C140.891 384.483 140.317 386.532 139.517 388.498C137.835 392.574 135.309 396.248 132.104 399.277C136.361 397.241 139.865 393.911 142.115 389.764C143.276 387.661 144.126 385.4 144.64 383.054C144.764 382.468 144.852 381.868 144.954 381.275C145.057 380.683 145.093 380.083 145.144 379.475L145.21 377.704C145.21 377.178 145.21 376.658 145.283 376.131C145.607 371.907 146.902 367.815 149.067 364.174C149.33 363.713 149.63 363.267 149.915 362.813L150.867 361.467C151.174 361.042 151.474 360.603 151.781 360.172L149.711 359.235Z" fill="#0084B2"/>
<path d="M281.983 297.738L139.839 280.951L140.571 123.689L281.251 132.522L281.983 297.738Z" fill="#CCCCCC"/>
<path d="M281.983 298.287H281.917L139.766 281.5C139.632 281.482 139.51 281.417 139.421 281.316C139.333 281.215 139.283 281.086 139.283 280.951L140.014 123.682C140.015 123.607 140.032 123.534 140.062 123.466C140.092 123.398 140.136 123.337 140.19 123.287C140.244 123.234 140.309 123.194 140.379 123.169C140.45 123.144 140.525 123.134 140.6 123.14L281.288 131.973C281.427 131.982 281.557 132.044 281.652 132.146C281.748 132.248 281.8 132.382 281.8 132.521L282.532 297.738C282.532 297.815 282.516 297.892 282.484 297.962C282.453 298.033 282.406 298.096 282.349 298.148C282.247 298.236 282.117 298.285 281.983 298.287V298.287ZM140.388 280.461L281.434 297.094L280.702 133.012L141.119 124.231L140.388 280.461Z" fill="#444444"/>
<path d="M144.09 124.582L140.783 126.66V128.438L146.454 124.713L144.09 124.582Z" fill="#BFBFBF"/>
<path d="M154.094 125.153L140.051 134.936V136.722L156.457 125.284L154.094 125.153Z" fill="#BFBFBF"/>
<path d="M164.097 125.723L140.051 142.481V144.266L166.468 125.862L164.097 125.723Z" fill="#BFBFBF"/>
<path d="M174.107 126.302L140.051 150.032V151.811L176.471 126.433L174.107 126.302Z" fill="#BFBFBF"/>
<path d="M184.118 126.872L140.051 157.577V159.362L186.481 127.004L184.118 126.872Z" fill="#BFBFBF"/>
<path d="M194.121 127.443L140.051 165.121V166.907L196.484 127.582L194.121 127.443Z" fill="#BFBFBF"/>
<path d="M204.131 128.021L140.051 172.666V174.451L206.495 128.153L204.131 128.021Z" fill="#BFBFBF"/>
<path d="M214.134 128.592L140.051 180.217V182.003L216.498 128.731L214.134 128.592Z" fill="#BFBFBF"/>
<path d="M224.145 129.163L140.051 187.762V189.547L226.508 129.302L224.145 129.163Z" fill="#BFBFBF"/>
<path d="M234.148 129.741L140.051 195.306V197.092L236.512 129.872L234.148 129.741Z" fill="#BFBFBF"/>
<path d="M244.159 130.312L140.051 202.858V204.636L246.522 130.451L244.159 130.312Z" fill="#BFBFBF"/>
<path d="M254.162 130.89L140.051 210.403V212.188L256.525 131.021L254.162 130.89Z" fill="#BFBFBF"/>
<path d="M264.172 131.46L140.051 217.947V219.732L266.536 131.599L264.172 131.46Z" fill="#BFBFBF"/>
<path d="M274.175 132.031L140.051 225.499V227.277L276.539 132.17L274.175 132.031Z" fill="#BFBFBF"/>
<path d="M281.464 134.504L140.051 233.043V234.829L281.464 136.283V134.504Z" fill="#BFBFBF"/>
<path d="M281.464 142.049L140.051 240.587V242.373L281.464 143.834V142.049Z" fill="#BFBFBF"/>
<path d="M281.464 149.593L140.051 248.139V249.917L281.464 151.379V149.593Z" fill="#BFBFBF"/>
<path d="M281.464 157.138L140.051 255.684V257.469L281.464 158.923V157.138Z" fill="#BFBFBF"/>
<path d="M281.464 164.689L140.051 263.228V265.014L281.464 166.468V164.689Z" fill="#BFBFBF"/>
<path d="M281.464 172.234L140.051 270.78V272.558L281.464 174.019V172.234Z" fill="#BFBFBF"/>
<path d="M281.464 179.778L140.051 278.324V280.11L281.464 181.564V179.778Z" fill="#BFBFBF"/>
<path d="M281.464 187.33L145.913 281.785L148.005 282.115L281.464 189.108V187.33Z" fill="#BFBFBF"/>
<path d="M281.464 194.86L154.752 283.161L156.867 283.483L281.464 196.66V194.86Z" fill="#BFBFBF"/>
<path d="M281.463 202.404L163.614 284.529L165.729 284.859L281.463 204.204V202.404Z" fill="#BFBFBF"/>
<path d="M281.464 209.949L172.476 285.905L174.568 286.227L281.464 211.734V209.949Z" fill="#BFBFBF"/>
<path d="M281.463 217.5L181.337 287.274L183.43 287.603L281.463 219.279V217.5Z" fill="#BFBFBF"/>
<path d="M281.464 225.045L190.191 288.649L192.284 288.971L281.464 226.83V225.045Z" fill="#BFBFBF"/>
<path d="M281.463 232.589L199.053 290.018L201.146 290.347L281.463 234.375V232.589Z" fill="#BFBFBF"/>
<path d="M281.464 240.141L207.915 291.393L210.007 291.715L281.464 241.919V240.141Z" fill="#BFBFBF"/>
<path d="M281.463 247.686L216.776 292.769L218.869 293.091L281.463 249.471V247.686Z" fill="#BFBFBF"/>
<path d="M281.464 255.23L225.638 294.138L227.731 294.46L281.464 257.015V255.23Z" fill="#BFBFBF"/>
<path d="M281.463 262.782L234.492 295.513L236.585 295.835L281.463 264.56V262.782Z" fill="#BFBFBF"/>
<path d="M281.463 270.326L243.354 296.882L245.446 297.211L281.463 272.112V270.326Z" fill="#BFBFBF"/>
<path d="M281.464 277.871L252.215 298.257L254.308 298.579L281.464 279.656V277.871Z" fill="#BFBFBF"/>
<path d="M281.463 285.422L261.077 299.626L263.17 299.955L281.463 287.201V285.422Z" fill="#BFBFBF"/>
<path d="M281.464 292.967L269.938 301.001L272.031 301.323L281.464 294.752V292.967Z" fill="#BFBFBF"/>
<path d="M282.195 297.174V295.389L279.524 297.255L281.617 297.577L282.195 297.174Z" fill="#BFBFBF"/>
<path d="M281.983 298.287H281.917L139.766 281.5C139.632 281.482 139.51 281.417 139.421 281.316C139.333 281.215 139.283 281.086 139.283 280.951L140.014 123.682C140.015 123.607 140.032 123.534 140.062 123.466C140.092 123.398 140.136 123.337 140.19 123.287C140.244 123.234 140.309 123.194 140.379 123.169C140.45 123.144 140.525 123.134 140.6 123.14L281.288 131.973C281.427 131.982 281.557 132.044 281.652 132.146C281.748 132.248 281.8 132.382 281.8 132.521L282.532 297.738C282.532 297.815 282.516 297.892 282.484 297.962C282.453 298.033 282.406 298.096 282.349 298.148C282.247 298.236 282.117 298.285 281.983 298.287V298.287ZM140.388 280.461L281.434 297.094L280.702 133.012L141.119 124.231L140.388 280.461Z" fill="#444444"/>
<path d="M282.239 297.057L225.162 354.712V172.395L282.239 132.126V297.057Z" fill="#CCCCCC"/>
<path d="M225.162 355.261C225.092 355.264 225.022 355.251 224.957 355.225C224.856 355.183 224.769 355.112 224.708 355.021C224.646 354.93 224.614 354.822 224.613 354.713V172.395C224.614 172.307 224.635 172.221 224.676 172.143C224.717 172.066 224.776 171.999 224.847 171.949L281.925 131.702C282.007 131.644 282.104 131.61 282.204 131.604C282.305 131.598 282.405 131.619 282.495 131.666C282.584 131.713 282.658 131.783 282.71 131.87C282.762 131.956 282.789 132.055 282.788 132.156V297.094C282.788 297.238 282.733 297.377 282.634 297.482L225.557 355.137C225.447 355.229 225.305 355.273 225.162 355.261V355.261ZM225.711 172.695V353.381L281.727 296.831V133.18L225.711 172.695Z" fill="#444444"/>
<path d="M225.162 354.713L79.3594 333.543V159.194L225.162 172.717V354.713Z" fill="#F9F9F9"/>
<path d="M225.162 355.261H225.082L79.2789 334.084C79.1495 334.064 79.0317 333.998 78.946 333.899C78.8603 333.8 78.8124 333.674 78.8105 333.543V159.194C78.8169 159.115 78.8397 159.039 78.8775 158.969C78.9153 158.9 78.9673 158.839 79.0301 158.791C79.086 158.74 79.152 158.702 79.2239 158.678C79.2957 158.654 79.3718 158.645 79.4472 158.652L225.25 172.183C225.387 172.194 225.515 172.257 225.607 172.359C225.7 172.461 225.75 172.594 225.748 172.731V354.72C225.749 354.799 225.732 354.878 225.7 354.95C225.667 355.022 225.618 355.086 225.557 355.137C225.503 355.183 225.44 355.218 225.373 355.24C225.305 355.261 225.233 355.268 225.162 355.261V355.261ZM79.9082 333.067L224.65 354.083V173.222L79.9082 159.794V333.067Z" fill="#444444"/>
<path d="M197.165 261.282V250.027H200.831V253.693H209.21V257.615H200.831V261.282H197.165Z" fill="#99C6D6"/>
<path d="M197.297 216.125V219.528V223.457H209.334V219.528H201.226V216.125H209.334V212.203H201.226H197.297V216.125Z" fill="#99C6D6"/>
<path d="M202.009 187.33L197.297 183.927V188.377L202.009 191.779V192.306H197.297V196.236H209.334V192.306H204.885V191.26L209.334 189.167V184.454L203.319 188.113L202.009 187.33Z" fill="#99C6D6"/>
<path d="M197.297 202.251V205.909L209.334 211.149V206.956L207.241 206.436V201.965L209.334 201.182V196.997L197.297 202.251ZM204.366 205.397L201.234 204.087L204.38 203.041L204.366 205.397Z" fill="#99C6D6"/>
<path d="M197.297 241.78V245.439L209.334 250.671V246.485L207.241 245.959V241.509L209.334 240.726V236.541L197.297 241.78ZM204.366 244.919L201.219 243.61L204.366 242.563V244.919Z" fill="#99C6D6"/>
<path d="M197.297 229.077V235.494H209.334V231.572H206.451V229.077C206.451 228.476 206.333 227.88 206.102 227.325C205.872 226.77 205.535 226.265 205.109 225.84C204.684 225.416 204.179 225.079 203.623 224.849C203.067 224.62 202.472 224.502 201.87 224.503V224.503C201.27 224.503 200.675 224.622 200.12 224.852C199.565 225.081 199.061 225.418 198.636 225.843C198.212 226.268 197.875 226.772 197.645 227.327C197.415 227.882 197.297 228.476 197.297 229.077V229.077ZM203.319 229.845V231.572H200.502V229.845C200.502 229.469 200.652 229.108 200.918 228.841C201.184 228.575 201.545 228.426 201.922 228.426C202.298 228.426 202.659 228.575 202.925 228.841C203.192 229.108 203.341 229.469 203.341 229.845H203.319Z" fill="#99C6D6"/>
<path d="M138.427 97.4776L153.867 93.8188C153.867 93.8188 161.916 131.87 192.833 114.308C223.75 96.7459 200.151 147.969 200.151 147.969C200.151 147.969 132.514 153.091 130.312 153.091C128.109 153.091 97.9605 147.969 102.373 142.847C106.785 137.724 123.696 114.308 125.899 112.113C128.102 109.918 138.427 97.4776 138.427 97.4776Z" fill="#CCCCCC"/>
<path d="M130.341 153.669C128.511 153.669 103.829 149.615 101.605 144.756C101.431 144.389 101.375 143.977 101.443 143.577C101.511 143.176 101.7 142.807 101.985 142.517C104.18 139.949 109.53 132.814 114.681 125.914C119.833 119.013 124.421 112.874 125.54 111.754C127.736 109.603 137.9 97.2799 137.98 97.1189C138.06 97.0297 138.165 96.9661 138.28 96.936L153.72 93.2772C153.864 93.2464 154.013 93.2727 154.138 93.3504C154.199 93.3896 154.253 93.4409 154.294 93.5012C154.336 93.5616 154.365 93.6298 154.379 93.7016C154.416 93.8773 158.287 111.432 170.266 116.811C176.581 119.642 184.074 118.64 192.54 113.825C199.646 109.786 204.395 109.01 207.08 111.469C214.347 118.135 201.226 146.966 200.663 148.196C200.619 148.283 200.554 148.358 200.473 148.413C200.393 148.468 200.299 148.502 200.202 148.51C197.465 148.73 132.543 153.669 130.341 153.669ZM138.734 97.9971C137.527 99.4606 128.416 110.437 126.294 112.53C125.226 113.591 120.521 119.899 115.537 126.572C110.415 133.487 105.037 140.637 102.797 143.234C102.65 143.365 102.549 143.539 102.509 143.732C102.47 143.925 102.494 144.125 102.578 144.303C104.444 148.371 127.663 152.572 130.319 152.572C132.397 152.572 194.714 147.859 199.792 147.449C201.175 144.361 212.656 118.084 206.334 112.288C204.087 110.225 199.624 111.066 193.082 114.784C184.301 119.781 176.464 120.806 169.812 117.82C158.396 112.698 154.196 97.6092 153.435 94.4846L138.734 97.9971Z" fill="#444444"/>
<path d="M143 96.2702L133.297 103.002C132.112 104.415 130.838 105.929 129.638 107.312L146.893 95.3481L143 96.2702Z" fill="#BFBFBF"/>
<path d="M153.977 96.2043L118.787 120.616L116.006 124.326L154.438 97.6679C154.262 97.1337 154.109 96.6434 153.977 96.2043Z" fill="#BFBFBF"/>
<path d="M156.201 102.212L106.998 136.341C105.915 137.761 104.92 139.063 104.071 140.161L156.845 103.573C156.596 103.105 156.399 102.651 156.201 102.212Z" fill="#BFBFBF"/>
<path d="M159.143 107.715L103.529 146.293C104.002 146.577 104.49 146.834 104.993 147.062L159.97 108.93C159.677 108.527 159.406 108.125 159.143 107.715Z" fill="#BFBFBF"/>
<path d="M162.97 112.61L110.422 149.059L112.23 149.586L164.046 113.649C163.672 113.313 163.314 112.969 162.97 112.61Z" fill="#BFBFBF"/>
<path d="M168.107 116.598L118.347 151.093C119.013 151.247 119.672 151.386 120.308 151.518L169.578 117.345C169.08 117.118 168.59 116.862 168.107 116.598Z" fill="#BFBFBF"/>
<path d="M175.695 118.874L126.894 152.725C127.779 152.864 128.504 152.967 129.031 153.025L178.212 118.918C177.373 118.955 176.532 118.94 175.695 118.874V118.874Z" fill="#BFBFBF"/>
<path d="M195.65 112.581L138.017 152.557L140.886 152.352L200.743 110.832C198.981 111.206 197.271 111.793 195.65 112.581V112.581Z" fill="#BFBFBF"/>
<path d="M206.707 112.442L150.142 151.671L153.069 151.459L207.483 113.722C207.283 113.262 207.023 112.832 206.707 112.442V112.442Z" fill="#BFBFBF"/>
<path d="M208.229 118.933L162.326 150.742L165.253 150.53L208.134 120.791C208.171 120.169 208.215 119.54 208.229 118.933Z" fill="#BFBFBF"/>
<path d="M206.949 127.37L174.517 149.864L177.4 149.645L206.392 129.521C206.59 128.789 206.78 128.058 206.949 127.37Z" fill="#BFBFBF"/>
<path d="M204.073 136.912L186.715 148.949L189.642 148.73L203.246 139.29C203.495 138.529 203.787 137.731 204.073 136.912Z" fill="#BFBFBF"/>
<path d="M199.953 147.318L198.929 148.049L199.66 147.991C199.66 147.991 199.77 147.735 199.953 147.318Z" fill="#BFBFBF"/>
<path d="M130.341 153.669C128.511 153.669 103.829 149.615 101.605 144.756C101.431 144.389 101.375 143.977 101.443 143.577C101.511 143.176 101.7 142.807 101.985 142.517C104.18 139.949 109.53 132.814 114.681 125.914C119.833 119.013 124.421 112.874 125.54 111.754C127.736 109.603 137.9 97.2799 137.98 97.1189C138.06 97.0297 138.165 96.9661 138.28 96.936L153.72 93.2772C153.864 93.2464 154.013 93.2727 154.138 93.3504C154.199 93.3896 154.253 93.4409 154.294 93.5012C154.336 93.5616 154.365 93.6298 154.379 93.7016C154.416 93.8773 158.287 111.432 170.266 116.811C176.581 119.642 184.074 118.64 192.54 113.825C199.646 109.786 204.395 109.01 207.08 111.469C214.347 118.135 201.226 146.966 200.663 148.196C200.619 148.283 200.554 148.358 200.473 148.413C200.393 148.468 200.299 148.502 200.202 148.51C197.465 148.73 132.543 153.669 130.341 153.669ZM138.734 97.9971C137.527 99.4606 128.416 110.437 126.294 112.53C125.226 113.591 120.521 119.899 115.537 126.572C110.415 133.487 105.037 140.637 102.797 143.234C102.65 143.365 102.549 143.539 102.509 143.732C102.47 143.925 102.494 144.125 102.578 144.303C104.444 148.371 127.663 152.572 130.319 152.572C132.397 152.572 194.714 147.859 199.792 147.449C201.175 144.361 212.656 118.084 206.334 112.288C204.087 110.225 199.624 111.066 193.082 114.784C184.301 119.781 176.464 120.806 169.812 117.82C158.396 112.698 154.196 97.6092 153.435 94.4846L138.734 97.9971Z" fill="#444444"/>
<path d="M79.2202 159.201L224.643 172.929L282.239 132.126L140.622 123.799L79.2202 159.201Z" fill="#F9F9F9"/>
<path d="M224.65 173.478H224.599L79.1691 159.743C79.0519 159.735 78.9406 159.689 78.8517 159.612C78.7629 159.535 78.7015 159.432 78.6767 159.317C78.652 159.202 78.6652 159.082 78.7144 158.976C78.7636 158.869 78.8461 158.781 78.9496 158.726L140.344 123.323C140.437 123.27 140.544 123.245 140.651 123.25L282.276 131.577C282.389 131.583 282.497 131.624 282.585 131.695C282.674 131.766 282.737 131.863 282.766 131.973C282.798 132.081 282.796 132.198 282.759 132.305C282.722 132.413 282.653 132.506 282.561 132.573L224.957 173.375C224.868 173.441 224.761 173.477 224.65 173.478V173.478ZM80.9839 158.791L224.489 172.344L280.651 132.558L140.754 124.355L80.9839 158.791Z" fill="#444444"/>
<path d="M215.02 117.864C218.247 114.264 221.606 110.781 224.913 107.298C225.74 106.427 226.648 105.585 227.511 104.729C228.375 103.873 229.333 103.097 230.248 102.278C231.163 101.458 232.15 100.734 233.131 99.9947C234.112 99.2556 235.114 98.5312 236.153 97.8799C240.27 95.1657 244.675 92.9175 249.288 91.177C256.237 88.538 263.59 87.1218 271.021 86.9914C272.258 86.9914 273.488 86.9402 274.68 86.9914H278.244C282.951 86.9252 287.639 86.3958 292.242 85.4108C296.88 84.4073 301.412 82.9691 305.78 81.1154C310.258 79.3226 314.729 77.5224 319.266 75.8687C315.066 78.2615 310.8 80.5007 306.534 82.7472C304.397 83.8668 302.143 84.9425 299.897 85.8425C297.619 86.7551 295.29 87.537 292.923 88.1841C288.162 89.4844 283.27 90.2453 278.339 90.4526C277.102 90.5038 275.873 90.5111 274.68 90.5185C273.488 90.5258 272.287 90.5185 271.124 90.5843C268.781 90.6662 266.443 90.8689 264.121 91.1917C259.47 91.7784 254.893 92.8526 250.466 94.3968C246.017 95.9311 241.726 97.8916 237.653 100.251C233.547 102.654 229.683 105.447 226.113 108.593C222.455 111.717 218.796 114.886 215.02 117.864Z" fill="#0084B2"/>
<path d="M219.162 117.037C221.811 115.281 224.518 113.671 227.211 112.061C229.99 110.461 232.895 109.091 235.897 107.964C241.946 105.69 248.32 104.398 254.776 104.136C255.581 104.1 256.394 104.1 257.198 104.093H259.518C261.055 104.093 262.584 103.997 264.114 103.88C267.178 103.647 270.227 103.241 273.246 102.666C274.761 102.388 276.261 102.007 277.812 101.678L282.437 100.69C285.532 100.083 288.627 99.4605 291.767 98.9995C288.84 100.244 285.913 101.327 282.92 102.417C279.927 103.507 277.029 104.554 273.912 105.446C270.813 106.336 267.646 106.967 264.443 107.334C262.84 107.524 261.23 107.642 259.621 107.707C258.823 107.707 257.981 107.707 257.22 107.759C256.459 107.81 255.691 107.759 254.93 107.825C248.791 108.082 242.702 109.044 236.782 110.693C233.805 111.539 230.874 112.541 228.001 113.693C225.089 114.827 222.162 116.006 219.162 117.037Z" fill="#0084B2"/>
<path d="M152.088 147.596C151.715 151.042 159.867 154.086 173.478 155.03C190.886 156.23 210.49 153.53 217.383 149.023C219.096 147.903 219.864 146.776 219.791 145.693V112.566L152.081 114.469L152.088 147.596Z" fill="#F9F9F9"/>
<path d="M181.908 155.865C179.068 155.865 176.222 155.777 173.441 155.586C162.611 154.855 154.716 152.659 152.33 149.835C152.051 149.531 151.838 149.174 151.702 148.786C151.566 148.397 151.511 147.985 151.54 147.574V114.469C151.539 114.398 151.552 114.327 151.578 114.261C151.604 114.195 151.643 114.135 151.693 114.084C151.743 114.033 151.802 113.992 151.867 113.964C151.933 113.936 152.003 113.921 152.074 113.92L219.783 112.018C219.858 112.011 219.933 112.021 220.002 112.048C220.072 112.075 220.135 112.117 220.186 112.171C220.289 112.277 220.347 112.419 220.347 112.566V145.693C220.435 146.988 219.542 148.276 217.691 149.484C211.815 153.318 196.843 155.865 181.908 155.865ZM152.637 115.011V147.662C152.618 147.93 152.656 148.199 152.75 148.452C152.843 148.704 152.989 148.934 153.179 149.125C155.338 151.708 163.131 153.764 173.514 154.482C190.725 155.667 210.271 153.018 217.091 148.562C218.115 147.896 219.33 146.857 219.249 145.73V113.13L152.637 115.011Z" fill="#444444"/>
<path d="M217.391 115.896C210.491 120.396 190.887 123.104 173.486 121.896C159.875 120.96 151.723 117.915 152.096 114.469C152.206 113.466 153.033 112.427 154.665 111.396C161.843 106.859 181.74 104.254 198.958 105.541C211.771 106.493 219.586 109.332 219.806 112.581C219.872 113.649 219.103 114.776 217.391 115.896Z" fill="#CCCCCC"/>
<path d="M181.908 122.73C179.069 122.73 176.222 122.635 173.441 122.445C162.611 121.713 154.716 119.518 152.33 116.701C152.049 116.393 151.833 116.032 151.697 115.638C151.561 115.244 151.508 114.826 151.54 114.41C151.672 113.203 152.623 112.032 154.364 110.935C161.594 106.361 181.615 103.69 199.002 104.978C211.924 105.937 220.106 108.834 220.354 112.53C220.442 113.854 219.549 115.142 217.698 116.357C211.815 120.191 196.843 122.73 181.908 122.73ZM189.884 105.754C175.315 105.754 160.797 108.168 154.95 111.864C153.53 112.764 152.755 113.686 152.637 114.527C152.619 114.796 152.657 115.065 152.751 115.318C152.844 115.57 152.99 115.799 153.179 115.991C155.338 118.574 163.131 120.623 173.514 121.347C190.725 122.533 210.271 119.884 217.091 115.428C218.115 114.754 219.33 113.715 219.249 112.596C219.088 110.166 212.664 107.085 198.914 106.068C195.95 105.856 192.913 105.754 189.884 105.754Z" fill="#444444"/>
<path d="M162.736 108.337L152.491 115.493C152.678 115.95 152.96 116.362 153.318 116.701L166.629 107.429C165.248 107.708 163.951 108.01 162.736 108.337Z" fill="#BFBFBF"/>
<path d="M177.086 105.878L157.95 119.211C158.499 119.401 159.092 119.591 159.714 119.767L180.013 105.622C179.032 105.695 178.059 105.776 177.086 105.878Z" fill="#BFBFBF"/>
<path d="M188.83 105.241L166.109 121.099C166.797 121.208 167.514 121.304 168.246 121.399L191.428 105.241H188.83Z" fill="#BFBFBF"/>
<path d="M199.207 105.563L175.556 122.043L177.971 122.145L201.482 105.754C200.743 105.681 199.982 105.615 199.207 105.563Z" fill="#BFBFBF"/>
<path d="M208.39 106.705L186.225 122.152C187.132 122.152 188.04 122.094 188.94 122.043L210.366 107.115C209.737 106.969 209.078 106.837 208.39 106.705Z" fill="#BFBFBF"/>
<path d="M216.081 108.893L198.387 121.223C199.478 121.091 200.546 120.938 201.592 120.777L217.559 109.647C217.081 109.367 216.588 109.116 216.081 108.893Z" fill="#BFBFBF"/>
<path d="M219.703 113.913L214.581 117.462C215.631 117.044 216.64 116.529 217.595 115.925C218.447 115.431 219.17 114.741 219.703 113.913V113.913Z" fill="#BFBFBF"/>
<path d="M181.908 122.73C179.069 122.73 176.222 122.635 173.441 122.445C162.611 121.713 154.716 119.518 152.33 116.701C152.049 116.393 151.833 116.032 151.697 115.638C151.561 115.244 151.508 114.826 151.54 114.41C151.672 113.203 152.623 112.032 154.364 110.935C161.594 106.361 181.615 103.69 199.002 104.978C211.924 105.937 220.106 108.834 220.354 112.53C220.442 113.854 219.549 115.142 217.698 116.357C211.815 120.191 196.843 122.73 181.908 122.73ZM189.884 105.754C175.315 105.754 160.797 108.168 154.95 111.864C153.53 112.764 152.755 113.686 152.637 114.527C152.619 114.796 152.657 115.065 152.751 115.318C152.844 115.57 152.99 115.799 153.179 115.991C155.338 118.574 163.131 120.623 173.514 121.347C190.725 122.533 210.271 119.884 217.091 115.428C218.115 114.754 219.33 113.715 219.249 112.596C219.088 110.166 212.664 107.085 198.914 106.068C195.95 105.856 192.913 105.754 189.884 105.754Z" fill="#444444"/>
<path d="M174.934 73.2638C174.934 73.2638 197.919 79.0593 205.449 96.8703L222.118 91.4699C222.118 91.4699 212.561 80.1496 201.007 73.5638C196.534 71.0403 191.382 69.9809 186.276 70.5343L167.507 72.4442C167.507 72.4442 172.161 72.854 174.934 73.2638Z" fill="#2CC8FF"/>
<path d="M153.589 93.504L136.985 97.2506C136.985 97.2506 157.475 73.4538 177.913 77.2443C177.913 77.2443 158.06 76.8345 153.589 93.504Z" fill="#0084B2"/>
<path d="M129.045 95.1797L137.57 97.2506C137.57 97.2506 176.668 50.2571 200.45 99.7605C200.45 99.7605 202.99 95.9188 205.829 96.8335C208.668 97.7482 175.819 42.5371 129.045 95.1797Z" fill="#00A5EB"/>
<path d="M224.65 172.871C225.704 143.659 229.143 123.257 209.334 98.1801C206.473 94.5579 200.019 97.5581 200.129 102.146C200.129 103.573 195.738 159.062 154.657 147.515C137.571 142.693 131.651 115.406 137.571 98.5313L137.615 98.3996C139.151 94.0529 134.402 91.8138 130.165 94.8506C115.611 105.242 94.9676 126.587 81.8692 153.274C80.9911 155.06 80.0471 157.365 79.2056 159.201L224.65 172.871Z" fill="#F9F9F9"/>
<path d="M224.65 173.427H224.599L79.1691 159.743C79.0817 159.736 78.9974 159.707 78.9235 159.66C78.8496 159.613 78.7882 159.548 78.7447 159.472C78.7048 159.394 78.6841 159.307 78.6841 159.22C78.6841 159.132 78.7048 159.045 78.7447 158.967C79.074 158.236 79.4252 157.445 79.7765 156.633C80.318 155.396 80.8814 154.123 81.4083 153.033C94.7775 125.745 115.859 104.393 129.851 94.4042C132.302 92.6553 135.178 92.4065 137.007 93.7896C138.405 94.8433 138.829 96.6361 138.141 98.5826L138.098 98.7143C134.344 109.427 135.485 124.136 140.878 134.49C144.288 141.076 149.111 145.371 154.782 146.974C165.429 149.974 174.539 148.635 181.769 143.008C197.619 130.721 199.558 102.424 199.551 102.161C199.477 99.2338 201.643 97.1849 203.817 96.4019C204.83 95.9792 205.952 95.8933 207.018 96.1568C208.084 96.4203 209.037 97.0193 209.737 97.8655C227.562 120.44 226.677 139.576 225.557 163.877C225.426 166.804 225.287 169.812 225.169 172.922C225.169 172.996 225.153 173.069 225.121 173.136C225.09 173.203 225.044 173.262 224.987 173.31C224.89 173.385 224.772 173.426 224.65 173.427V173.427ZM80.0399 158.726L224.094 172.271C224.204 169.344 224.335 166.541 224.46 163.797C225.616 138.815 226.443 120.769 208.873 98.5167C207.805 97.163 206.056 96.7605 204.19 97.4337C202.448 98.063 200.59 99.8046 200.648 102.132C200.648 102.402 198.694 131.263 182.457 143.842C174.905 149.696 165.487 151.108 154.482 148.006C148.489 146.322 143.439 141.815 139.846 134.973C134.366 124.399 133.18 109.325 137.037 98.3484L137.08 98.2167C137.615 96.7532 137.337 95.4287 136.349 94.6677C135.178 93.7896 132.851 93.6139 130.495 95.297C116.591 105.212 95.6776 126.411 82.4035 153.516C81.8839 154.584 81.3278 155.85 80.7936 157.072L80.0399 158.726Z" fill="#444444"/>
<path d="M205.976 96.5922L222.118 91.4187C222.118 91.4187 251.886 96.841 282.239 132.148L224.709 172.959C224.709 172.959 229.041 112.779 205.976 96.5922Z" fill="#E8E8E8"/>
<path d="M224.708 173.485C224.613 173.484 224.52 173.458 224.437 173.412C224.347 173.36 224.273 173.284 224.224 173.192C224.175 173.1 224.152 172.997 224.159 172.893C224.203 172.293 228.235 112.888 205.661 97.0239C205.578 96.9638 205.513 96.8823 205.473 96.7882C205.433 96.6941 205.419 96.5909 205.434 96.4897C205.449 96.3891 205.492 96.2948 205.558 96.2172C205.624 96.1397 205.71 96.082 205.807 96.0506L221.949 90.8771C222.036 90.8554 222.126 90.8554 222.213 90.8771C222.513 90.9356 252.53 96.7312 282.656 131.79C282.707 131.847 282.745 131.914 282.768 131.987C282.791 132.06 282.799 132.138 282.79 132.214C282.781 132.29 282.756 132.363 282.716 132.429C282.677 132.494 282.624 132.551 282.561 132.595L225.023 173.405C224.928 173.462 224.819 173.49 224.708 173.485V173.485ZM207.146 96.7678C227.825 112.691 225.82 163.27 225.33 171.817L281.434 132.024C252.698 98.8459 224.313 92.4138 222.162 91.9674L207.146 96.7678Z" fill="#444444"/>
<path d="M239.636 137.029C239.501 137.028 239.37 136.978 239.269 136.888C239.168 136.797 239.103 136.673 239.087 136.539C235.429 102.146 209.473 96.0873 209.217 96.036C209.146 96.0207 209.08 95.9915 209.02 95.9503C208.961 95.909 208.91 95.8565 208.871 95.7957C208.832 95.7349 208.805 95.667 208.792 95.5958C208.78 95.5247 208.781 95.4517 208.796 95.3811C208.812 95.3105 208.841 95.2436 208.882 95.1842C208.923 95.1248 208.976 95.0742 209.037 95.0351C209.097 94.996 209.165 94.9693 209.236 94.9565C209.308 94.9437 209.381 94.945 209.451 94.9603C209.722 95.0189 236.402 101.246 240.185 136.422C240.198 136.567 240.154 136.711 240.062 136.824C239.971 136.937 239.839 137.011 239.695 137.029H239.636Z" fill="#444444"/>
<path d="M257.974 125.365C257.871 125.364 257.77 125.335 257.682 125.281C257.595 125.226 257.523 125.149 257.477 125.057C243.778 96.6798 217.062 93.665 216.791 93.6357C216.646 93.6209 216.514 93.5495 216.422 93.437C216.33 93.3245 216.286 93.1802 216.301 93.0357C216.307 92.9638 216.328 92.8938 216.361 92.83C216.395 92.7662 216.441 92.7098 216.497 92.6642C216.553 92.6185 216.618 92.5844 216.687 92.564C216.756 92.5437 216.829 92.5373 216.901 92.5454C217.171 92.5454 244.502 95.6554 258.464 124.574C258.528 124.705 258.537 124.854 258.491 124.992C258.444 125.129 258.345 125.242 258.216 125.306C258.142 125.346 258.058 125.366 257.974 125.365V125.365Z" fill="#444444"/>
</svg>
