<svg width="366" height="490" viewBox="0 0 366 490" fill="none" xmlns="http://www.w3.org/2000/svg">
<path d="M141.302 173.412L79.7029 247.393L78.9712 159.443L140.571 123.623L141.302 173.412Z" fill="#CCCCCC"/>
<path d="M79.7103 247.942C79.6473 247.952 79.583 247.952 79.52 247.942C79.4158 247.902 79.3259 247.832 79.2619 247.741C79.198 247.649 79.163 247.541 79.1614 247.429L78.4297 159.479C78.4309 159.382 78.4571 159.286 78.5058 159.202C78.5545 159.117 78.624 159.047 78.7078 158.996L140.307 123.14C140.389 123.091 140.483 123.065 140.578 123.064C140.673 123.062 140.768 123.086 140.851 123.133C140.934 123.18 141.003 123.248 141.052 123.33C141.1 123.412 141.126 123.506 141.127 123.601L141.859 173.398C141.863 173.463 141.854 173.528 141.832 173.589C141.811 173.651 141.778 173.708 141.734 173.756L80.1274 247.744C80.076 247.805 80.0122 247.854 79.9403 247.888C79.8683 247.922 79.7899 247.941 79.7103 247.942V247.942ZM79.5273 159.758L80.2591 245.893L140.768 173.222L140.036 124.567L79.5273 159.758Z" fill="#444444"/>
<path d="M141.939 289.008L79.6079 333.484V275.039L141.207 240.683L141.939 289.008Z" fill="#CCCCCC"/>
<path d="M79.6079 334.033C79.5214 334.034 79.4359 334.014 79.3591 333.974C79.2692 333.928 79.1937 333.857 79.1408 333.771C79.088 333.685 79.0597 333.585 79.0591 333.484V275.039C79.0593 274.941 79.086 274.845 79.1362 274.761C79.1865 274.678 79.2584 274.609 79.3445 274.563L140.944 240.17C141.026 240.123 141.12 240.099 141.215 240.099C141.31 240.099 141.403 240.123 141.485 240.17C141.568 240.217 141.637 240.285 141.684 240.368C141.732 240.45 141.757 240.544 141.756 240.639L142.488 288.935C142.491 289.023 142.472 289.111 142.433 289.191C142.393 289.27 142.334 289.338 142.261 289.388L79.9299 333.865C79.8467 333.958 79.7322 334.018 79.6079 334.033V334.033ZM80.1567 275.361V332.438L141.39 288.744L140.658 241.619L80.1567 275.361Z" fill="#444444"/>
<path d="M275.617 404.926C274.468 406.909 273.194 408.782 271.958 410.663C271.314 411.599 270.663 412.521 270.004 413.443L269.053 414.79C268.767 415.236 268.467 415.683 268.204 416.151C266.029 419.78 264.722 423.862 264.384 428.079C264.34 428.598 264.318 429.125 264.311 429.652L264.245 431.423C264.194 432.023 264.121 432.623 264.055 433.223C263.989 433.823 263.864 434.416 263.74 435.001C263.225 437.347 262.375 439.607 261.216 441.711C258.965 445.859 255.462 449.188 251.205 451.224C254.401 448.214 256.929 444.567 258.625 440.519C259.418 438.551 259.99 436.502 260.33 434.408L260.535 432.842C260.535 432.323 260.615 431.796 260.637 431.276L260.674 429.667C260.674 429.059 260.674 428.459 260.74 427.859C261.098 423.028 262.855 418.405 265.796 414.556C266.517 413.624 267.299 412.741 268.138 411.914C268.936 411.109 269.74 410.319 270.56 409.529C272.214 407.948 273.853 406.382 275.617 404.926Z" fill="#0084B2"/>
<path d="M161.828 383.31C160.68 385.293 159.406 387.166 158.133 389.047C157.489 389.983 156.838 390.91 156.179 391.827L155.228 393.174C154.943 393.627 154.643 394.066 154.379 394.535C152.214 398.176 150.919 402.268 150.596 406.492C150.552 407.019 150.53 407.538 150.523 408.065L150.457 409.836C150.406 410.436 150.333 411.036 150.267 411.636C150.201 412.236 150.076 412.829 149.952 413.414C149.438 415.761 148.588 418.021 147.427 420.124C145.177 424.272 141.674 427.601 137.417 429.637C140.621 426.606 143.149 422.933 144.837 418.858C145.631 416.891 146.203 414.842 146.542 412.748L146.747 411.19C146.747 410.663 146.827 410.136 146.849 409.616V408.006C146.849 407.406 146.849 406.799 146.915 406.199C147.295 401.384 149.065 396.783 152.008 392.954C152.729 392.022 153.511 391.14 154.35 390.313C155.147 389.515 155.952 388.717 156.772 387.934C158.418 386.368 160.065 384.773 161.828 383.31Z" fill="#0084B2"/>
<path d="M282.305 419.034L140.893 397.132V240.595L282.305 248.703V419.034Z" fill="#CCCCCC"/>
<path d="M282.305 419.583H282.224L140.812 397.674C140.682 397.655 140.563 397.59 140.477 397.49C140.392 397.391 140.344 397.264 140.344 397.133V240.595C140.345 240.52 140.361 240.445 140.391 240.376C140.421 240.307 140.465 240.244 140.519 240.192C140.574 240.142 140.639 240.103 140.709 240.078C140.78 240.052 140.855 240.042 140.929 240.046L282.341 248.154C282.481 248.163 282.611 248.225 282.706 248.327C282.801 248.429 282.854 248.563 282.854 248.703V419.034C282.855 419.114 282.838 419.192 282.806 419.264C282.773 419.336 282.724 419.4 282.663 419.451C282.565 419.539 282.437 419.586 282.305 419.583V419.583ZM141.441 396.657L281.727 418.398V249.215L141.412 241.166L141.441 396.657Z" fill="#444444"/>
<path d="M145.144 241.488L141.112 244.298V246.083L147.508 241.619L145.144 241.488Z" fill="#BFBFBF"/>
<path d="M155.147 242.058L141.112 251.842V253.627L157.511 242.197L155.147 242.058Z" fill="#BFBFBF"/>
<path d="M165.158 242.636L141.112 259.394V261.172L167.521 242.768L165.158 242.636Z" fill="#BFBFBF"/>
<path d="M175.161 243.207L141.112 266.938V268.724L177.532 243.346L175.161 243.207Z" fill="#BFBFBF"/>
<path d="M185.171 243.778L141.112 274.482V276.268L187.535 243.917L185.171 243.778Z" fill="#BFBFBF"/>
<path d="M195.182 244.356L141.112 282.034V283.812L197.546 244.488L195.182 244.356Z" fill="#BFBFBF"/>
<path d="M205.185 244.927L141.112 289.579V291.364L207.549 245.066L205.185 244.927Z" fill="#BFBFBF"/>
<path d="M215.188 245.505L141.112 297.123V298.909L217.559 245.637L215.188 245.505Z" fill="#BFBFBF"/>
<path d="M225.199 246.076L141.112 304.675V306.453L227.562 246.207L225.199 246.076Z" fill="#BFBFBF"/>
<path d="M235.209 246.646L141.112 312.219V314.005L237.573 246.786L235.209 246.646Z" fill="#BFBFBF"/>
<path d="M245.212 247.225L141.112 319.764V321.549L247.576 247.356L245.212 247.225Z" fill="#BFBFBF"/>
<path d="M255.223 247.795L141.112 327.316V329.094L257.586 247.934L255.223 247.795Z" fill="#BFBFBF"/>
<path d="M265.226 248.366L141.112 334.86V336.646L267.589 248.505L265.226 248.366Z" fill="#BFBFBF"/>
<path d="M275.236 248.944L141.112 342.404V344.19L277.6 249.076L275.236 248.944Z" fill="#BFBFBF"/>
<path d="M282.525 251.41L141.112 349.956V351.734L282.525 253.196V251.41Z" fill="#BFBFBF"/>
<path d="M282.525 258.955L141.112 357.5V359.286L282.525 260.74V258.955Z" fill="#BFBFBF"/>
<path d="M282.525 266.506L141.112 365.045V366.83L282.525 268.285V266.506Z" fill="#BFBFBF"/>
<path d="M282.525 274.051L141.112 372.589V374.375L282.525 275.829V274.051Z" fill="#BFBFBF"/>
<path d="M282.525 281.595L141.112 380.141V381.919L282.525 283.381V281.595Z" fill="#BFBFBF"/>
<path d="M282.525 289.14L141.112 387.686V389.471L282.525 290.925V289.14Z" fill="#BFBFBF"/>
<path d="M282.525 296.691L141.112 395.237V397.015L282.525 298.477V296.691Z" fill="#BFBFBF"/>
<path d="M282.525 304.236L146.966 398.699L149.059 399.02L282.525 306.021V304.236Z" fill="#BFBFBF"/>
<path d="M282.525 311.766L155.806 400.067L157.921 400.396L282.525 313.566V311.766Z" fill="#BFBFBF"/>
<path d="M282.524 319.317L164.667 401.443L166.782 401.765L282.524 321.11V319.317Z" fill="#BFBFBF"/>
<path d="M282.525 326.862L173.529 402.811L175.622 403.133L282.525 328.647V326.862Z" fill="#BFBFBF"/>
<path d="M282.524 334.406L182.391 404.187L184.483 404.509L282.524 336.192V334.406Z" fill="#BFBFBF"/>
<path d="M282.525 341.951L191.252 405.555L193.345 405.884L282.525 343.736V341.951Z" fill="#BFBFBF"/>
<path d="M282.524 349.502L200.106 406.931L202.207 407.253L282.524 351.288V349.502Z" fill="#BFBFBF"/>
<path d="M282.525 357.047L208.968 408.307L211.061 408.629L282.525 358.832V357.047Z" fill="#BFBFBF"/>
<path d="M282.524 364.591L217.83 409.675L219.922 409.997L282.524 366.377V364.591Z" fill="#BFBFBF"/>
<path d="M282.525 372.143L226.691 411.051L228.784 411.373L282.525 373.921V372.143Z" fill="#BFBFBF"/>
<path d="M282.525 379.688L235.553 412.419L237.646 412.748L282.525 381.473V379.688Z" fill="#BFBFBF"/>
<path d="M282.525 387.232L244.407 413.795L246.507 414.117L282.525 389.017V387.232Z" fill="#BFBFBF"/>
<path d="M282.525 394.784L253.269 415.163L255.362 415.492L282.525 396.562V394.784Z" fill="#BFBFBF"/>
<path d="M282.524 402.328L262.13 416.539L264.223 416.861L282.524 404.114V402.328Z" fill="#BFBFBF"/>
<path d="M282.525 409.873L270.992 417.915L273.085 418.237L282.525 411.658V409.873Z" fill="#BFBFBF"/>
<path d="M282.524 419.202V417.424L279.854 419.283L281.946 419.605L282.524 419.202Z" fill="#BFBFBF"/>
<path d="M282.305 419.583H282.224L140.812 397.674C140.682 397.655 140.563 397.59 140.477 397.49C140.392 397.391 140.344 397.264 140.344 397.133V240.595C140.345 240.52 140.361 240.445 140.391 240.376C140.421 240.307 140.465 240.244 140.519 240.192C140.574 240.142 140.639 240.103 140.709 240.078C140.78 240.052 140.855 240.042 140.929 240.046L282.341 248.154C282.481 248.163 282.611 248.225 282.706 248.327C282.801 248.429 282.854 248.563 282.854 248.703V419.034C282.855 419.114 282.838 419.192 282.806 419.264C282.773 419.336 282.724 419.4 282.663 419.451C282.565 419.539 282.437 419.586 282.305 419.583V419.583ZM141.441 396.657L281.727 418.398V249.215L141.412 241.166L141.441 396.657Z" fill="#444444"/>
<g opacity="0.5">
<path opacity="0.5" d="M86.2451 314.173L94.2579 361.233L231.938 383.2L237.039 328.816L86.2451 314.173Z" fill="#9AC9EF"/>
<path opacity="0.5" d="M231.967 383.749H231.88L94.1992 361.796C94.0868 361.774 93.9834 361.72 93.9025 361.639C93.8216 361.558 93.7669 361.455 93.7455 361.342L85.7327 314.276C85.7182 314.193 85.7232 314.109 85.7474 314.028C85.7715 313.948 85.8141 313.875 85.8718 313.815C85.9298 313.754 86.0005 313.706 86.079 313.676C86.1574 313.646 86.2416 313.633 86.3255 313.639L237.09 328.267C237.234 328.282 237.367 328.353 237.459 328.465C237.551 328.578 237.594 328.722 237.58 328.867L232.458 383.251C232.45 383.326 232.427 383.398 232.39 383.463C232.354 383.528 232.305 383.586 232.245 383.632C232.165 383.696 232.069 383.736 231.967 383.749V383.749ZM94.7334 360.757L231.448 382.563L236.438 329.291L86.9109 314.788L94.7334 360.757Z" fill="black"/>
</g>
<g opacity="0.5">
<path opacity="0.5" d="M231.938 383.2L274.19 335.087L279.29 286.981L242.863 303.716L236.446 335.087L231.938 383.2Z" fill="#727F89"/>
<path opacity="0.5" d="M231.967 383.749C231.892 383.748 231.817 383.733 231.748 383.705C231.641 383.659 231.552 383.58 231.493 383.48C231.433 383.38 231.407 383.264 231.418 383.149L235.933 335.035L242.358 303.57C242.376 303.486 242.412 303.407 242.466 303.339C242.519 303.272 242.588 303.218 242.666 303.182L279.085 286.454C279.173 286.411 279.27 286.393 279.367 286.402C279.464 286.411 279.556 286.447 279.634 286.505C279.713 286.562 279.776 286.638 279.816 286.727C279.856 286.816 279.871 286.913 279.861 287.01L274.739 335.116C274.729 335.23 274.683 335.338 274.607 335.423L232.355 383.529C232.31 383.591 232.252 383.643 232.185 383.681C232.118 383.719 232.044 383.742 231.967 383.749V383.749ZM243.375 304.097L237.016 335.196L232.67 381.568L273.678 334.86L278.654 287.881L243.375 304.097Z" fill="black"/>
</g>
<path d="M281.705 297.584L224.76 354.822V286.981L281.705 248.571V297.584Z" fill="#CCCCCC"/>
<path d="M224.76 355.371C224.687 355.371 224.614 355.356 224.548 355.327C224.447 355.286 224.362 355.216 224.302 355.126C224.242 355.036 224.21 354.931 224.211 354.822V286.981C224.21 286.891 224.232 286.803 224.274 286.724C224.317 286.645 224.378 286.577 224.452 286.527L281.398 248.117C281.484 248.065 281.583 248.037 281.683 248.037C281.784 248.037 281.883 248.065 281.969 248.117C282.055 248.165 282.127 248.235 282.178 248.32C282.228 248.405 282.254 248.502 282.254 248.6V297.628C282.256 297.7 282.242 297.772 282.214 297.839C282.187 297.906 282.145 297.966 282.093 298.016L225.148 355.254C225.037 355.339 224.899 355.38 224.76 355.371V355.371ZM225.309 287.274V353.491L281.156 297.357V249.603L225.309 287.274Z" fill="#444444"/>
<path d="M224.759 354.822L79.6079 333.645V275.214L224.759 286.981V354.822Z" fill="#F9F9F9"/>
<path d="M224.759 355.371H224.65L79.5347 334.187C79.4041 334.177 79.2815 334.12 79.1889 334.028C79.0963 333.935 79.0399 333.812 79.0298 333.682V275.214C79.0298 275.138 79.0461 275.063 79.0777 274.993C79.1092 274.924 79.1553 274.862 79.2127 274.812C79.3246 274.711 79.4719 274.658 79.6225 274.665L224.774 286.432C224.912 286.443 225.04 286.506 225.134 286.608C225.228 286.709 225.279 286.843 225.279 286.981V354.822C225.278 354.901 225.26 354.979 225.228 355.051C225.195 355.123 225.148 355.187 225.089 355.239C224.995 355.316 224.88 355.362 224.759 355.371V355.371ZM80.1567 333.17L224.211 354.171V287.486L80.1567 275.814V333.17Z" fill="#444444"/>
<path opacity="0.5" d="M242.717 337.341C242.571 337.341 242.432 337.283 242.329 337.18C242.226 337.077 242.168 336.937 242.168 336.792C242.168 336.646 242.226 336.507 242.329 336.404C242.432 336.301 242.571 336.243 242.717 336.243L274.182 334.56C274.327 334.557 274.466 334.61 274.574 334.706C274.681 334.802 274.748 334.936 274.761 335.079C274.764 335.152 274.754 335.224 274.73 335.292C274.706 335.36 274.669 335.423 274.621 335.476C274.572 335.53 274.514 335.574 274.449 335.605C274.384 335.636 274.313 335.654 274.241 335.658L242.775 337.341H242.717Z" fill="black"/>
<path opacity="0.5" d="M94.2578 361.781C94.1666 361.78 94.077 361.757 93.9967 361.714C93.9164 361.67 93.8478 361.608 93.7968 361.533C93.726 361.413 93.7032 361.271 93.733 361.135C93.7629 360.999 93.8433 360.88 93.9578 360.801L125.95 340.012C126.069 339.939 126.212 339.915 126.349 339.945C126.485 339.975 126.604 340.057 126.682 340.173C126.753 340.292 126.776 340.434 126.746 340.57C126.716 340.706 126.636 340.825 126.521 340.904L94.5359 361.686C94.4545 361.744 94.3578 361.777 94.2578 361.781V361.781Z" fill="black"/>
<path d="M160.101 359.235C159.874 359.454 159.648 359.674 159.428 359.901C155.093 364.128 152.458 369.799 152.023 375.838C151.979 376.438 151.964 377.046 151.957 377.646V379.256C151.957 379.775 151.891 380.302 151.854 380.829L151.649 382.388C151.313 384.482 150.741 386.532 149.944 388.498C148.26 392.572 145.734 396.245 142.532 399.277C146.786 397.24 150.288 393.911 152.535 389.764C153.699 387.662 154.549 385.401 155.059 383.054C155.191 382.468 155.272 381.868 155.381 381.275C155.491 380.683 155.52 380.083 155.572 379.475L155.63 377.704C155.63 377.178 155.667 376.658 155.711 376.131C156.028 371.907 157.321 367.814 159.487 364.174C159.757 363.713 160.05 363.267 160.343 362.813L161.287 361.467C161.601 361.042 161.901 360.603 162.201 360.172L160.101 359.235Z" fill="#0084B2"/>
<path d="M213.593 353.388C213.373 353.615 213.147 353.835 212.92 354.054C212.081 354.881 211.299 355.764 210.578 356.696C207.637 360.545 205.88 365.168 205.522 369.999C205.47 370.599 205.456 371.199 205.456 371.807V373.416C205.456 373.936 205.383 374.463 205.353 374.982L205.148 376.548C204.808 378.642 204.236 380.691 203.443 382.659C201.756 386.733 199.227 390.406 196.023 393.437C200.28 391.401 203.784 388.072 206.034 383.924C207.193 381.821 208.044 379.561 208.558 377.214C208.683 376.629 208.771 376.029 208.873 375.436C208.976 374.843 209.012 374.236 209.063 373.636L209.129 371.865C209.129 371.338 209.129 370.811 209.202 370.292C209.508 366.064 210.788 361.964 212.942 358.313C213.205 357.845 213.505 357.398 213.791 356.952L214.742 355.605L215.656 354.303L213.593 353.388Z" fill="#0084B2"/>
<path d="M102.241 337.019L101.561 337.677C100.722 338.505 99.94 339.387 99.2192 340.319C96.278 344.168 94.5211 348.791 94.1627 353.622C94.1188 354.222 94.0969 354.83 94.0969 355.43L94.0603 357.039C94.0603 357.559 93.9871 358.086 93.9578 358.613L93.753 360.171C93.417 362.266 92.845 364.316 92.048 366.282C90.3604 370.356 87.832 374.029 84.6279 377.06C88.8845 375.025 92.3883 371.695 94.6384 367.548C95.799 365.444 96.6493 363.184 97.163 360.837C97.2874 360.252 97.3752 359.652 97.4776 359.059C97.5801 358.466 97.624 357.859 97.6679 357.259L97.7337 355.488C97.7337 354.961 97.7337 354.442 97.8142 353.915C98.1316 349.691 99.4241 345.598 101.59 341.958C101.854 341.49 102.154 341.051 102.439 340.597L103.39 339.25L104.305 337.955L102.241 337.019Z" fill="#0084B2"/>
<path d="M149.711 359.235C149.491 359.454 149.257 359.674 149.037 359.901C148.197 360.724 147.415 361.604 146.696 362.535C143.755 366.385 141.998 371.007 141.639 375.838C141.588 376.438 141.573 377.046 141.573 377.646L141.537 379.256C141.537 379.775 141.464 380.302 141.434 380.829L141.23 382.388C140.891 384.482 140.317 386.532 139.517 388.498C137.835 392.574 135.309 396.247 132.104 399.277C136.361 397.241 139.865 393.911 142.115 389.764C143.276 387.66 144.126 385.4 144.64 383.054C144.764 382.468 144.852 381.868 144.954 381.275C145.057 380.683 145.093 380.083 145.144 379.475L145.21 377.704C145.21 377.178 145.21 376.658 145.283 376.131C145.607 371.907 146.902 367.815 149.067 364.174C149.33 363.713 149.63 363.267 149.916 362.813L150.867 361.467C151.174 361.042 151.474 360.603 151.781 360.172L149.711 359.235Z" fill="#0084B2"/>
<path d="M281.983 297.738L139.839 280.951L140.571 123.689L281.251 132.522L281.983 297.738Z" fill="#CCCCCC"/>
<path d="M281.983 298.287H281.917L139.766 281.5C139.632 281.482 139.51 281.417 139.421 281.316C139.333 281.215 139.283 281.086 139.283 280.951L140.014 123.682C140.015 123.607 140.032 123.534 140.062 123.466C140.092 123.398 140.136 123.337 140.19 123.287C140.244 123.234 140.309 123.194 140.379 123.169C140.45 123.144 140.525 123.134 140.6 123.14L281.288 131.973C281.427 131.982 281.557 132.044 281.652 132.146C281.747 132.248 281.8 132.382 281.8 132.521L282.532 297.738C282.532 297.815 282.516 297.892 282.484 297.962C282.453 298.033 282.406 298.096 282.349 298.148C282.247 298.236 282.117 298.285 281.983 298.287V298.287ZM140.388 280.461L281.434 297.094L280.702 133.019L141.119 124.238L140.388 280.461Z" fill="#444444"/>
<path d="M144.09 124.582L140.783 126.66V128.438L146.454 124.713L144.09 124.582Z" fill="#BFBFBF"/>
<path d="M154.094 125.153L140.051 134.936V136.722L156.457 125.284L154.094 125.153Z" fill="#BFBFBF"/>
<path d="M164.097 125.723L140.051 142.481V144.266L166.468 125.862L164.097 125.723Z" fill="#BFBFBF"/>
<path d="M174.107 126.302L140.051 150.032V151.811L176.471 126.433L174.107 126.302Z" fill="#BFBFBF"/>
<path d="M184.118 126.872L140.051 157.577V159.362L186.481 127.004L184.118 126.872Z" fill="#BFBFBF"/>
<path d="M194.121 127.443L140.051 165.121V166.907L196.484 127.582L194.121 127.443Z" fill="#BFBFBF"/>
<path d="M204.131 128.021L140.051 172.666V174.451L206.495 128.153L204.131 128.021Z" fill="#BFBFBF"/>
<path d="M214.134 128.592L140.051 180.217V182.003L216.498 128.731L214.134 128.592Z" fill="#BFBFBF"/>
<path d="M224.145 129.163L140.051 187.762V189.547L226.508 129.302L224.145 129.163Z" fill="#BFBFBF"/>
<path d="M234.148 129.741L140.051 195.306V197.092L236.512 129.872L234.148 129.741Z" fill="#BFBFBF"/>
<path d="M244.159 130.312L140.051 202.858V204.636L246.522 130.451L244.159 130.312Z" fill="#BFBFBF"/>
<path d="M254.162 130.89L140.051 210.403V212.188L256.525 131.021L254.162 130.89Z" fill="#BFBFBF"/>
<path d="M264.172 131.46L140.051 217.947V219.732L266.536 131.599L264.172 131.46Z" fill="#BFBFBF"/>
<path d="M274.175 132.031L140.051 225.499V227.277L276.539 132.17L274.175 132.031Z" fill="#BFBFBF"/>
<path d="M281.464 134.504L140.051 233.043V234.828L281.464 136.283V134.504Z" fill="#BFBFBF"/>
<path d="M281.464 142.049L140.051 240.587V242.373L281.464 143.834V142.049Z" fill="#BFBFBF"/>
<path d="M281.464 149.593L140.051 248.139V249.917L281.464 151.379V149.593Z" fill="#BFBFBF"/>
<path d="M281.464 157.138L140.051 255.684V257.469L281.464 158.923V157.138Z" fill="#BFBFBF"/>
<path d="M281.464 164.689L140.051 263.228V265.014L281.464 166.468V164.689Z" fill="#BFBFBF"/>
<path d="M281.464 172.234L140.051 270.78V272.558L281.464 174.019V172.234Z" fill="#BFBFBF"/>
<path d="M281.464 179.778L140.051 278.324V280.11L281.464 181.564V179.778Z" fill="#BFBFBF"/>
<path d="M281.464 187.33L145.913 281.785L148.005 282.115L281.464 189.108V187.33Z" fill="#BFBFBF"/>
<path d="M281.464 194.86L154.752 283.161L156.867 283.483L281.464 196.66V194.86Z" fill="#BFBFBF"/>
<path d="M281.463 202.404L163.614 284.53L165.729 284.859L281.463 204.204V202.404Z" fill="#BFBFBF"/>
<path d="M281.464 209.949L172.476 285.905L174.568 286.227L281.464 211.734V209.949Z" fill="#BFBFBF"/>
<path d="M281.463 217.5L181.337 287.274L183.422 287.603L281.463 219.279V217.5Z" fill="#BFBFBF"/>
<path d="M281.464 225.045L190.191 288.649L192.284 288.971L281.464 226.83V225.045Z" fill="#BFBFBF"/>
<path d="M281.463 232.589L199.053 290.018L201.146 290.347L281.463 234.375V232.589Z" fill="#BFBFBF"/>
<path d="M281.464 240.141L207.915 291.393L210.007 291.715L281.464 241.919V240.141Z" fill="#BFBFBF"/>
<path d="M281.463 247.686L216.776 292.769L218.869 293.091L281.463 249.471V247.686Z" fill="#BFBFBF"/>
<path d="M281.464 255.23L225.638 294.138L227.731 294.46L281.464 257.015V255.23Z" fill="#BFBFBF"/>
<path d="M281.463 262.782L234.492 295.513L236.585 295.835L281.463 264.56V262.782Z" fill="#BFBFBF"/>
<path d="M281.464 270.326L243.354 296.882L245.446 297.211L281.464 272.112V270.326Z" fill="#BFBFBF"/>
<path d="M281.464 277.871L252.215 298.257L254.308 298.579L281.464 279.656V277.871Z" fill="#BFBFBF"/>
<path d="M281.463 285.422L261.077 299.626L263.169 299.955L281.463 287.201V285.422Z" fill="#BFBFBF"/>
<path d="M281.464 292.967L269.938 301.002L272.031 301.323L281.464 294.752V292.967Z" fill="#BFBFBF"/>
<path d="M282.195 297.174V295.389L279.524 297.255L281.617 297.577L282.195 297.174Z" fill="#BFBFBF"/>
<path d="M281.983 298.287H281.917L139.766 281.5C139.632 281.482 139.51 281.417 139.421 281.316C139.333 281.215 139.283 281.086 139.283 280.951L140.014 123.682C140.015 123.607 140.032 123.534 140.062 123.466C140.092 123.398 140.136 123.337 140.19 123.287C140.244 123.234 140.309 123.194 140.379 123.169C140.45 123.144 140.525 123.134 140.6 123.14L281.288 131.973C281.427 131.982 281.557 132.044 281.652 132.146C281.747 132.248 281.8 132.382 281.8 132.521L282.532 297.738C282.532 297.815 282.516 297.892 282.484 297.962C282.453 298.033 282.406 298.096 282.349 298.148C282.247 298.236 282.117 298.285 281.983 298.287V298.287ZM140.388 280.461L281.434 297.094L280.702 133.019L141.119 124.238L140.388 280.461Z" fill="#444444"/>
<path d="M282.239 297.057L225.162 354.712V172.395L282.239 132.126V297.057Z" fill="#CCCCCC"/>
<path d="M225.162 355.261C225.092 355.26 225.023 355.248 224.957 355.225C224.856 355.183 224.769 355.112 224.708 355.021C224.646 354.93 224.614 354.822 224.613 354.713V172.395C224.614 172.307 224.635 172.221 224.676 172.143C224.717 172.066 224.776 171.999 224.847 171.949L281.925 131.702C282.007 131.644 282.104 131.61 282.204 131.604C282.305 131.598 282.405 131.619 282.495 131.666C282.584 131.713 282.658 131.783 282.71 131.87C282.762 131.956 282.789 132.055 282.788 132.156V297.094C282.789 297.166 282.776 297.237 282.75 297.303C282.724 297.37 282.684 297.431 282.634 297.482L225.557 355.137C225.447 355.229 225.305 355.273 225.162 355.261V355.261ZM225.711 172.695V353.381L281.727 296.831V133.18L225.711 172.695Z" fill="#444444"/>
<path d="M225.162 354.713L79.3594 333.543V159.194L225.162 172.717V354.713Z" fill="#F9F9F9"/>
<path d="M225.162 355.261H225.082L79.2789 334.084C79.1483 334.063 79.0295 333.997 78.9436 333.896C78.8578 333.796 78.8106 333.668 78.8105 333.536V159.194C78.8169 159.115 78.8397 159.039 78.8775 158.97C78.9153 158.9 78.9673 158.84 79.0301 158.792C79.0863 158.741 79.1523 158.702 79.2241 158.679C79.2959 158.655 79.3718 158.646 79.4472 158.653L225.25 172.183C225.387 172.194 225.515 172.257 225.607 172.359C225.7 172.461 225.75 172.594 225.748 172.732V354.72C225.749 354.799 225.732 354.878 225.7 354.95C225.667 355.022 225.618 355.086 225.557 355.137C225.503 355.183 225.44 355.218 225.373 355.24C225.305 355.261 225.233 355.268 225.162 355.261V355.261ZM79.9082 333.067L224.65 354.083V173.222L79.9082 159.794V333.067Z" fill="#444444"/>
<path d="M197.165 261.282V250.027H200.831V253.693H209.21V257.615H200.831V261.282H197.165Z" fill="#99C6D6"/>
<path d="M197.297 216.125V219.528V223.457H209.334V219.528H201.226V216.125H209.334V212.203H201.226H197.297V216.125Z" fill="#99C6D6"/>
<path d="M202.009 187.33L197.297 183.927V188.377L202.009 191.779V192.306H197.297V196.228H209.334V192.306H204.885V191.26L209.334 189.167V184.454L203.319 188.113L202.009 187.33Z" fill="#99C6D6"/>
<path d="M197.297 202.251V205.909L209.334 211.149V206.956L207.241 206.436V201.965L209.334 201.182V196.997L197.297 202.251ZM204.366 205.397L201.234 204.087L204.38 203.041L204.366 205.397Z" fill="#99C6D6"/>
<path d="M197.297 241.78V245.439L209.334 250.671V246.485L207.241 245.958V241.509L209.334 240.726V236.541L197.297 241.78ZM204.366 244.919L201.219 243.61L204.366 242.563V244.919Z" fill="#99C6D6"/>
<path d="M197.297 229.077V235.494H209.334V231.572H206.451V229.077C206.451 228.476 206.333 227.88 206.102 227.325C205.872 226.77 205.535 226.265 205.109 225.84C204.684 225.416 204.179 225.079 203.623 224.849C203.067 224.62 202.472 224.502 201.87 224.503V224.503C201.27 224.503 200.675 224.622 200.12 224.852C199.565 225.081 199.061 225.418 198.636 225.843C198.212 226.268 197.875 226.772 197.645 227.327C197.415 227.882 197.297 228.476 197.297 229.077V229.077ZM203.319 229.845V231.572H200.502V229.845C200.502 229.469 200.652 229.108 200.918 228.841C201.184 228.575 201.545 228.426 201.922 228.426C202.298 228.426 202.659 228.575 202.925 228.841C203.192 229.108 203.341 229.469 203.341 229.845H203.319Z" fill="#99C6D6"/>
<path d="M138.427 97.4776L153.867 93.8188C153.867 93.8188 161.916 131.87 192.833 114.308C223.75 96.7459 200.151 147.969 200.151 147.969C200.151 147.969 132.514 153.091 130.312 153.091C128.109 153.091 97.9605 147.969 102.373 142.847C106.785 137.724 123.696 114.308 125.899 112.113C128.102 109.918 138.427 97.4776 138.427 97.4776Z" fill="#CCCCCC"/>
<path d="M130.341 153.669C128.511 153.669 103.829 149.615 101.605 144.756C101.432 144.389 101.376 143.977 101.444 143.577C101.512 143.177 101.701 142.807 101.985 142.517C104.18 139.949 109.53 132.807 114.688 125.906C119.847 119.006 124.421 112.874 125.54 111.754C127.736 109.603 137.9 97.2799 137.98 97.1189C138.06 97.0297 138.165 96.9661 138.28 96.936L153.72 93.2772C153.864 93.2464 154.013 93.2727 154.138 93.3504C154.199 93.3896 154.253 93.4409 154.294 93.5012C154.336 93.5616 154.365 93.6298 154.379 93.7016C154.416 93.8773 158.287 111.432 170.266 116.811C176.581 119.642 184.074 118.64 192.54 113.825C199.638 109.786 204.395 109.01 207.08 111.469C214.347 118.135 201.226 146.966 200.663 148.196C200.619 148.283 200.554 148.358 200.473 148.413C200.393 148.468 200.299 148.502 200.202 148.51C197.465 148.73 132.543 153.669 130.341 153.669ZM138.734 97.9971C137.527 99.4606 128.416 110.437 126.294 112.53C125.233 113.591 120.528 119.891 115.545 126.565C110.378 133.48 105.037 140.637 102.797 143.234C102.65 143.365 102.549 143.539 102.509 143.732C102.47 143.925 102.494 144.125 102.578 144.303C104.444 148.371 127.663 152.572 130.319 152.572C132.397 152.572 194.714 147.859 199.792 147.449C201.175 144.361 212.656 118.084 206.334 112.288C204.087 110.225 199.624 111.066 193.082 114.784C184.301 119.781 176.464 120.806 169.812 117.82C158.396 112.698 154.196 97.6092 153.435 94.4846L138.734 97.9971Z" fill="#444444"/>
<path d="M143 96.2702L133.297 103.002C132.112 104.415 130.838 105.929 129.638 107.312L146.893 95.3481L143 96.2702Z" fill="#BFBFBF"/>
<path d="M153.977 96.2043L118.787 120.616L116.006 124.326L154.438 97.6679C154.262 97.1337 154.109 96.6434 153.977 96.2043Z" fill="#BFBFBF"/>
<path d="M156.201 102.212L106.998 136.341C105.915 137.761 104.92 139.063 104.071 140.161L156.845 103.573C156.596 103.105 156.399 102.651 156.201 102.212Z" fill="#BFBFBF"/>
<path d="M159.143 107.715L103.529 146.293C104.002 146.577 104.49 146.834 104.993 147.061L159.97 108.93C159.677 108.527 159.406 108.125 159.143 107.715Z" fill="#BFBFBF"/>
<path d="M162.97 112.61L110.422 149.059L112.23 149.586L164.046 113.649C163.672 113.313 163.314 112.969 162.97 112.61Z" fill="#BFBFBF"/>
<path d="M168.099 116.598L118.34 151.093C119.006 151.247 119.664 151.386 120.301 151.518L169.57 117.345C169.08 117.118 168.59 116.862 168.099 116.598Z" fill="#BFBFBF"/>
<path d="M175.695 118.874L126.894 152.725C127.779 152.864 128.504 152.967 129.031 153.025L178.212 118.918C177.373 118.955 176.532 118.94 175.695 118.874V118.874Z" fill="#BFBFBF"/>
<path d="M195.65 112.581L138.017 152.557L140.886 152.352L200.743 110.832C198.981 111.206 197.271 111.793 195.65 112.581V112.581Z" fill="#BFBFBF"/>
<path d="M206.707 112.442L150.142 151.671L153.069 151.459L207.483 113.722C207.284 113.262 207.023 112.832 206.707 112.442V112.442Z" fill="#BFBFBF"/>
<path d="M208.229 118.933L162.326 150.742L165.253 150.53L208.134 120.791C208.171 120.169 208.215 119.54 208.229 118.933Z" fill="#BFBFBF"/>
<path d="M206.949 127.37L174.517 149.864L177.4 149.645L206.392 129.521C206.59 128.789 206.78 128.058 206.949 127.37Z" fill="#BFBFBF"/>
<path d="M204.073 136.912L186.715 148.949L189.642 148.73L203.246 139.29C203.495 138.529 203.787 137.731 204.073 136.912Z" fill="#BFBFBF"/>
<path d="M199.953 147.318L198.929 148.049L199.66 147.991C199.66 147.991 199.77 147.735 199.953 147.318Z" fill="#BFBFBF"/>
<path d="M130.341 153.669C128.511 153.669 103.829 149.615 101.605 144.756C101.432 144.389 101.376 143.977 101.444 143.577C101.512 143.177 101.701 142.807 101.985 142.517C104.18 139.949 109.53 132.807 114.688 125.906C119.847 119.006 124.421 112.874 125.54 111.754C127.736 109.603 137.9 97.2799 137.98 97.1189C138.06 97.0297 138.165 96.9661 138.28 96.936L153.72 93.2772C153.864 93.2464 154.013 93.2727 154.138 93.3504C154.199 93.3896 154.253 93.4409 154.294 93.5012C154.336 93.5616 154.365 93.6298 154.379 93.7016C154.416 93.8773 158.287 111.432 170.266 116.811C176.581 119.642 184.074 118.64 192.54 113.825C199.638 109.786 204.395 109.01 207.08 111.469C214.347 118.135 201.226 146.966 200.663 148.196C200.619 148.283 200.554 148.358 200.473 148.413C200.393 148.468 200.299 148.502 200.202 148.51C197.465 148.73 132.543 153.669 130.341 153.669ZM138.734 97.9971C137.527 99.4606 128.416 110.437 126.294 112.53C125.233 113.591 120.528 119.891 115.545 126.565C110.378 133.48 105.037 140.637 102.797 143.234C102.65 143.365 102.549 143.539 102.509 143.732C102.47 143.925 102.494 144.125 102.578 144.303C104.444 148.371 127.663 152.572 130.319 152.572C132.397 152.572 194.714 147.859 199.792 147.449C201.175 144.361 212.656 118.084 206.334 112.288C204.087 110.225 199.624 111.066 193.082 114.784C184.301 119.781 176.464 120.806 169.812 117.82C158.396 112.698 154.196 97.6092 153.435 94.4846L138.734 97.9971Z" fill="#444444"/>
<path d="M153.589 93.504L136.985 97.2506C136.985 97.2506 157.475 73.4538 177.913 77.2443C177.913 77.2443 158.06 76.8345 153.589 93.504Z" fill="#0084B2"/>
<path d="M239.636 137.029C239.5 137.03 239.369 136.98 239.268 136.89C239.166 136.799 239.102 136.674 239.087 136.539C235.392 102.146 209.473 96.0873 209.217 96.036C209.074 96.005 208.95 95.9185 208.871 95.7957C208.792 95.6729 208.765 95.5238 208.796 95.3811C208.827 95.2385 208.914 95.114 209.037 95.0351C209.159 94.9562 209.309 94.9293 209.451 94.9604C209.722 95.0189 236.402 101.246 240.185 136.422C240.202 136.566 240.16 136.712 240.069 136.825C239.979 136.939 239.847 137.013 239.702 137.029H239.636Z" fill="#444444"/>
<path d="M129.045 95.1797L137.57 97.2506C137.57 97.2506 176.668 50.2571 200.45 99.7605C200.45 99.7605 202.99 95.9188 205.829 96.8335C208.668 97.7482 175.819 42.537 129.045 95.1797Z" fill="#00A5EB"/>
<path d="M174.934 73.2638C174.934 73.2638 197.919 79.0593 205.449 96.8703L222.118 91.4699C222.118 91.4699 212.561 80.1496 201.007 73.5638C196.534 71.0403 191.382 69.9809 186.276 70.5343L167.507 72.4442C167.507 72.4442 172.161 72.854 174.934 73.2638Z" fill="#2CC8FF"/>
<path d="M63.2749 136.027L209.078 147.793L282.166 132.068L141.485 122.906L63.2749 136.027Z" fill="#F9F9F9"/>
<path d="M209.078 148.342H209.034L63.231 136.575C63.0957 136.568 62.9681 136.51 62.8728 136.413C62.7776 136.317 62.7213 136.189 62.715 136.053C62.7086 135.918 62.7526 135.785 62.8384 135.68C62.9242 135.575 63.0458 135.506 63.1798 135.485L141.397 122.365H141.522L282.202 131.519C282.334 131.529 282.457 131.585 282.551 131.678C282.645 131.77 282.703 131.893 282.715 132.024C282.726 132.157 282.689 132.289 282.609 132.395C282.529 132.502 282.413 132.576 282.283 132.602L209.195 148.328L209.078 148.342ZM67.7313 135.836L209.041 147.237L278.2 132.361L141.515 123.462L67.7313 135.836Z" fill="#444444"/>
<path d="M224.65 172.871C225.704 143.659 229.143 123.257 209.334 98.1801C206.473 94.5579 200.019 97.5581 200.129 102.146C200.129 103.573 195.738 159.062 154.657 147.515C137.571 142.693 131.651 115.406 137.571 98.5313L137.615 98.3996C139.151 94.0529 134.402 91.8138 130.165 94.8506C115.611 105.242 94.9676 126.587 81.8692 153.274C80.9911 155.06 80.0471 157.365 79.2056 159.201L224.65 172.871Z" fill="#F9F9F9"/>
<path d="M224.65 173.427H224.599L79.1691 159.743C79.0817 159.736 78.9974 159.707 78.9235 159.66C78.8496 159.613 78.7882 159.548 78.7447 159.472C78.7048 159.394 78.6841 159.307 78.6841 159.22C78.6841 159.132 78.7048 159.045 78.7447 158.967C79.074 158.235 79.4179 157.46 79.7691 156.655C80.318 155.411 80.8741 154.123 81.4083 152.996C94.7775 125.709 115.859 104.356 129.851 94.3676C132.302 92.6187 135.178 92.3699 137.007 93.7529C138.405 94.8067 138.829 96.5995 138.142 98.5459L137.6 98.4289L138.098 98.6777C134.344 109.391 135.485 124.099 140.871 134.453C144.288 141.039 149.103 145.335 154.774 146.937C165.421 149.937 174.532 148.598 181.769 142.971C197.619 130.677 199.551 102.388 199.543 102.124C199.47 99.1972 201.636 97.1483 203.809 96.3653C204.823 95.9426 205.945 95.8566 207.011 96.1201C208.077 96.3836 209.03 96.9826 209.729 97.8288C227.555 120.404 226.67 139.539 225.55 163.841C225.418 166.768 225.279 169.775 225.162 172.885C225.162 172.959 225.146 173.033 225.114 173.1C225.082 173.167 225.036 173.226 224.979 173.273C224.89 173.36 224.774 173.414 224.65 173.427ZM80.0399 158.726L224.094 172.271C224.204 169.344 224.335 166.541 224.46 163.797C225.616 138.815 226.443 120.769 208.873 98.5167C207.805 97.1629 206.056 96.7605 204.19 97.4337C202.448 98.063 200.59 99.8046 200.648 102.132C200.648 102.402 198.709 131.248 182.464 143.842C174.905 149.696 165.495 151.108 154.482 148.005C148.489 146.322 143.439 141.815 139.847 134.973C134.366 124.399 133.18 109.325 137.037 98.3484L137.088 98.2167C137.615 96.7531 137.337 95.4287 136.356 94.6676C135.185 93.7895 132.858 93.6139 130.502 95.2969C116.599 105.212 95.6849 126.411 82.4108 153.516C81.8839 154.584 81.3278 155.857 80.7936 157.094L80.0399 158.726Z" fill="#444444"/>
<path d="M205.976 96.5922L222.118 91.4187C222.118 91.4187 251.886 96.841 282.239 132.148L224.709 172.959C224.709 172.959 229.041 112.779 205.976 96.5922Z" fill="#E8E8E8"/>
<path d="M224.708 173.485C224.613 173.484 224.52 173.458 224.437 173.412C224.347 173.36 224.273 173.284 224.224 173.192C224.175 173.1 224.152 172.997 224.159 172.893C224.203 172.293 228.235 112.888 205.661 97.0239C205.575 96.9662 205.509 96.8851 205.468 96.7903C205.428 96.6955 205.416 96.5911 205.434 96.4897C205.449 96.3891 205.492 96.2948 205.558 96.2173C205.624 96.1397 205.71 96.082 205.807 96.0507L221.95 90.8771C222.035 90.8515 222.127 90.8515 222.213 90.8771C222.513 90.9284 252.53 96.7312 282.656 131.782C282.707 131.84 282.745 131.907 282.768 131.98C282.791 132.053 282.799 132.13 282.79 132.206C282.781 132.282 282.756 132.356 282.716 132.421C282.677 132.487 282.624 132.544 282.561 132.587L225.023 173.398C224.929 173.458 224.82 173.488 224.708 173.485ZM207.146 96.7678C227.826 112.691 225.821 163.27 225.33 171.817L281.434 132.024C252.72 98.8679 224.32 92.4138 222.162 91.9674L207.146 96.7678Z" fill="#444444"/>
<path d="M209.151 148.32C209.026 148.321 208.904 148.278 208.807 148.2C208.71 148.121 208.643 148.011 208.617 147.888C208.587 147.747 208.613 147.599 208.691 147.477C208.77 147.355 208.893 147.269 209.034 147.237L212.613 146.469C212.683 146.454 212.756 146.453 212.827 146.466C212.898 146.48 212.966 146.507 213.026 146.546C213.087 146.585 213.139 146.636 213.179 146.696C213.22 146.756 213.249 146.823 213.264 146.893C213.279 146.964 213.28 147.037 213.266 147.108C213.253 147.179 213.226 147.246 213.186 147.307C213.147 147.367 213.096 147.419 213.037 147.46C212.977 147.501 212.91 147.53 212.839 147.544L209.283 148.313L209.151 148.32ZM205.493 148.049H205.449L201.79 147.757C201.718 147.751 201.648 147.731 201.583 147.698C201.519 147.665 201.462 147.62 201.415 147.565C201.368 147.51 201.332 147.446 201.31 147.377C201.288 147.308 201.279 147.236 201.285 147.164C201.291 147.092 201.311 147.022 201.344 146.957C201.376 146.893 201.422 146.836 201.477 146.789C201.532 146.742 201.595 146.706 201.664 146.684C201.733 146.662 201.806 146.653 201.878 146.659L205.536 146.952C205.682 146.958 205.819 147.021 205.918 147.128C206.017 147.235 206.069 147.377 206.063 147.522C206.057 147.668 205.994 147.805 205.887 147.904C205.78 148.003 205.638 148.055 205.493 148.049V148.049ZM198.175 147.464H198.131L194.472 147.164C194.401 147.159 194.331 147.14 194.267 147.108C194.203 147.076 194.146 147.031 194.099 146.977C194.053 146.922 194.018 146.859 193.996 146.79C193.975 146.722 193.968 146.65 193.975 146.579C193.979 146.506 193.998 146.435 194.031 146.37C194.063 146.305 194.109 146.247 194.164 146.2C194.219 146.153 194.283 146.118 194.353 146.096C194.422 146.074 194.495 146.067 194.567 146.074L198.226 146.366C198.372 146.372 198.509 146.436 198.608 146.543C198.707 146.65 198.759 146.792 198.753 146.937C198.747 147.083 198.684 147.22 198.577 147.319C198.47 147.418 198.328 147.47 198.182 147.464H198.175ZM190.857 146.871H190.813L187.155 146.579C187.083 146.573 187.012 146.553 186.948 146.52C186.884 146.487 186.826 146.442 186.779 146.387C186.733 146.332 186.697 146.268 186.675 146.199C186.652 146.13 186.644 146.058 186.65 145.986C186.656 145.914 186.675 145.843 186.708 145.779C186.741 145.715 186.787 145.657 186.842 145.611C186.897 145.564 186.96 145.528 187.029 145.506C187.098 145.484 187.17 145.475 187.242 145.481L190.901 145.781C191.035 145.801 191.157 145.87 191.243 145.974C191.329 146.078 191.374 146.211 191.368 146.346C191.363 146.481 191.308 146.609 191.213 146.706C191.119 146.803 190.992 146.862 190.857 146.871V146.871ZM216.242 146.783C216.118 146.782 215.997 146.738 215.9 146.66C215.803 146.582 215.736 146.473 215.708 146.352C215.692 146.281 215.69 146.208 215.703 146.136C215.716 146.065 215.743 145.997 215.782 145.936C215.822 145.875 215.873 145.823 215.933 145.783C215.994 145.742 216.061 145.714 216.132 145.7L219.703 144.932C219.776 144.91 219.852 144.902 219.928 144.911C220.003 144.92 220.076 144.944 220.142 144.982C220.207 145.02 220.264 145.072 220.309 145.133C220.354 145.195 220.385 145.265 220.402 145.339C220.418 145.413 220.419 145.49 220.404 145.564C220.389 145.639 220.358 145.709 220.315 145.772C220.271 145.834 220.215 145.886 220.15 145.926C220.085 145.965 220.013 145.99 219.937 146L216.359 146.732C216.342 146.752 216.322 146.769 216.301 146.783H216.242ZM183.562 146.286H183.518L179.859 145.993C179.714 145.98 179.58 145.911 179.486 145.8C179.391 145.689 179.344 145.546 179.354 145.4C179.359 145.322 179.381 145.245 179.417 145.175C179.454 145.105 179.505 145.044 179.568 144.996C179.63 144.947 179.702 144.912 179.779 144.894C179.855 144.875 179.935 144.873 180.013 144.888L183.671 145.181C183.817 145.187 183.954 145.25 184.053 145.357C184.152 145.464 184.204 145.606 184.198 145.752C184.193 145.897 184.129 146.034 184.022 146.133C183.915 146.232 183.773 146.284 183.628 146.278L183.562 146.286ZM176.244 145.7H176.2L172.541 145.408C172.466 145.408 172.39 145.392 172.321 145.362C172.251 145.332 172.189 145.287 172.137 145.232C172.086 145.176 172.046 145.11 172.021 145.038C171.996 144.967 171.987 144.89 171.993 144.815C171.999 144.739 172.021 144.666 172.057 144.599C172.093 144.532 172.142 144.473 172.202 144.426C172.262 144.38 172.331 144.346 172.404 144.327C172.478 144.308 172.554 144.305 172.629 144.317L176.288 144.61C176.36 144.616 176.43 144.635 176.494 144.668C176.558 144.701 176.615 144.747 176.661 144.802C176.708 144.857 176.743 144.921 176.764 144.99C176.785 145.059 176.793 145.131 176.786 145.203C176.777 145.321 176.731 145.434 176.653 145.524C176.575 145.613 176.47 145.675 176.354 145.7H176.244ZM223.369 145.247C223.236 145.245 223.107 145.194 223.008 145.103C222.909 145.013 222.847 144.89 222.832 144.757C222.818 144.624 222.853 144.49 222.93 144.381C223.007 144.272 223.122 144.194 223.252 144.164L226.918 143.425C227.061 143.394 227.21 143.42 227.333 143.499C227.456 143.578 227.542 143.703 227.573 143.845C227.604 143.988 227.578 144.137 227.499 144.26C227.42 144.383 227.295 144.469 227.153 144.5L223.574 145.269L223.369 145.247ZM169.036 145.108H168.992L165.334 144.815C165.189 144.802 165.056 144.732 164.963 144.621C164.869 144.51 164.824 144.367 164.836 144.222C164.849 144.077 164.918 143.943 165.029 143.849C165.14 143.754 165.284 143.707 165.429 143.717L169.088 144.01C169.233 144.016 169.37 144.079 169.469 144.186C169.568 144.293 169.62 144.435 169.614 144.581C169.609 144.726 169.545 144.864 169.438 144.962C169.331 145.061 169.189 145.114 169.044 145.108H169.036ZM161.719 144.522L158.06 144.23C157.984 144.23 157.909 144.214 157.839 144.184C157.77 144.154 157.707 144.109 157.656 144.053C157.604 143.998 157.565 143.932 157.54 143.86C157.515 143.788 157.505 143.712 157.511 143.637C157.517 143.561 157.539 143.487 157.575 143.421C157.611 143.354 157.661 143.295 157.72 143.248C157.78 143.202 157.849 143.168 157.923 143.149C157.996 143.13 158.073 143.127 158.148 143.139L161.807 143.432C161.952 143.438 162.089 143.501 162.188 143.608C162.287 143.715 162.339 143.857 162.333 144.003C162.328 144.148 162.264 144.286 162.157 144.384C162.05 144.483 161.908 144.535 161.763 144.53L161.719 144.522ZM154.401 143.93L150.742 143.637C150.597 143.624 150.463 143.554 150.369 143.444C150.274 143.333 150.227 143.189 150.237 143.044C150.252 142.9 150.322 142.767 150.433 142.673C150.543 142.579 150.685 142.531 150.83 142.539L154.489 142.839C154.623 142.859 154.744 142.928 154.831 143.032C154.917 143.136 154.962 143.269 154.956 143.404C154.951 143.539 154.895 143.668 154.801 143.765C154.707 143.862 154.58 143.92 154.445 143.93H154.401ZM230.57 143.71C230.443 143.71 230.32 143.666 230.222 143.586C230.123 143.506 230.055 143.395 230.028 143.271C230.002 143.129 230.031 142.982 230.11 142.86C230.189 142.739 230.312 142.653 230.453 142.62L234.031 141.851C234.102 141.836 234.175 141.836 234.246 141.849C234.317 141.862 234.384 141.889 234.445 141.929C234.505 141.968 234.557 142.019 234.598 142.079C234.639 142.138 234.667 142.205 234.682 142.276C234.697 142.346 234.698 142.419 234.685 142.49C234.672 142.561 234.644 142.629 234.605 142.689C234.566 142.75 234.515 142.802 234.455 142.843C234.396 142.883 234.329 142.912 234.258 142.927L230.687 143.695L230.57 143.71ZM147.149 143.344H147.084L143.425 143.044C143.28 143.033 143.146 142.965 143.052 142.855C142.957 142.746 142.91 142.603 142.92 142.459C142.933 142.314 143.002 142.18 143.113 142.085C143.224 141.991 143.367 141.944 143.513 141.954L147.171 142.247C147.317 142.252 147.454 142.316 147.553 142.423C147.652 142.53 147.704 142.672 147.698 142.817C147.692 142.963 147.629 143.1 147.522 143.199C147.415 143.298 147.273 143.35 147.127 143.344H147.149ZM139.832 142.751H139.788L136.129 142.459C135.993 142.436 135.871 142.364 135.786 142.255C135.701 142.147 135.66 142.01 135.671 141.873C135.682 141.736 135.745 141.608 135.846 141.514C135.947 141.421 136.079 141.369 136.217 141.368L139.876 141.661C140.01 141.681 140.131 141.75 140.217 141.854C140.304 141.958 140.348 142.091 140.343 142.226C140.337 142.361 140.282 142.49 140.188 142.587C140.094 142.683 139.967 142.742 139.832 142.751V142.751ZM237.734 142.166C237.601 142.162 237.473 142.11 237.375 142.019C237.278 141.929 237.216 141.805 237.203 141.673C237.19 141.54 237.225 141.407 237.302 141.299C237.38 141.19 237.494 141.113 237.624 141.083L241.195 140.315C241.331 140.297 241.47 140.33 241.582 140.409C241.695 140.489 241.774 140.607 241.803 140.741C241.832 140.876 241.81 141.016 241.741 141.135C241.672 141.254 241.561 141.342 241.429 141.383L237.851 142.159L237.734 142.166ZM132.536 142.166H132.492L128.834 141.873C128.761 141.868 128.691 141.848 128.627 141.815C128.562 141.782 128.505 141.737 128.458 141.682C128.411 141.626 128.376 141.563 128.354 141.494C128.331 141.425 128.323 141.353 128.329 141.281C128.334 141.209 128.354 141.138 128.387 141.074C128.42 141.01 128.465 140.952 128.52 140.905C128.575 140.858 128.639 140.823 128.708 140.801C128.777 140.778 128.849 140.77 128.921 140.776L132.58 141.068C132.725 141.081 132.859 141.151 132.954 141.262C133.048 141.372 133.095 141.516 133.085 141.661C133.075 141.794 133.016 141.919 132.92 142.011C132.825 142.104 132.699 142.159 132.565 142.166H132.536ZM125.219 141.581H125.175L121.516 141.288C121.44 141.288 121.365 141.273 121.295 141.242C121.226 141.212 121.163 141.168 121.112 141.112C121.06 141.056 121.021 140.99 120.996 140.919C120.971 140.847 120.961 140.771 120.967 140.695C120.973 140.619 120.995 140.546 121.031 140.479C121.067 140.412 121.117 140.353 121.176 140.307C121.236 140.26 121.305 140.226 121.379 140.207C121.452 140.189 121.529 140.185 121.604 140.198L125.263 140.49C125.408 140.496 125.545 140.56 125.644 140.667C125.743 140.774 125.795 140.916 125.789 141.061C125.784 141.207 125.72 141.344 125.613 141.443C125.506 141.542 125.364 141.594 125.219 141.588V141.581ZM117.901 140.988H117.85L114.191 140.695C114.119 140.689 114.049 140.67 113.984 140.637C113.92 140.604 113.863 140.558 113.816 140.503C113.769 140.448 113.733 140.385 113.711 140.316C113.689 140.247 113.68 140.175 113.686 140.102C113.692 140.03 113.712 139.96 113.745 139.896C113.778 139.831 113.823 139.774 113.878 139.727C113.933 139.68 113.997 139.645 114.065 139.623C114.134 139.6 114.207 139.592 114.279 139.598L117.938 139.89C118.083 139.896 118.22 139.959 118.319 140.067C118.418 140.174 118.47 140.315 118.465 140.461C118.459 140.607 118.395 140.744 118.288 140.843C118.181 140.941 118.039 140.994 117.894 140.988H117.901ZM244.839 140.629C244.705 140.627 244.577 140.576 244.478 140.486C244.379 140.396 244.316 140.273 244.302 140.14C244.288 140.006 244.322 139.873 244.4 139.763C244.477 139.654 244.592 139.577 244.722 139.546L248.3 138.771C248.371 138.755 248.444 138.754 248.515 138.767C248.586 138.78 248.654 138.806 248.715 138.845C248.776 138.884 248.828 138.935 248.87 138.995C248.911 139.054 248.94 139.121 248.955 139.191C248.971 139.262 248.972 139.335 248.959 139.406C248.946 139.477 248.92 139.545 248.881 139.606C248.842 139.667 248.791 139.719 248.731 139.761C248.672 139.802 248.605 139.831 248.535 139.846L244.956 140.578L244.839 140.629ZM110.605 140.402H110.562L106.903 140.102C106.831 140.098 106.761 140.079 106.697 140.047C106.633 140.015 106.576 139.97 106.53 139.915C106.483 139.861 106.448 139.797 106.427 139.729C106.406 139.66 106.398 139.588 106.405 139.517C106.416 139.373 106.484 139.239 106.594 139.144C106.703 139.049 106.846 139.002 106.991 139.012L110.649 139.305C110.795 139.311 110.932 139.374 111.031 139.481C111.13 139.588 111.182 139.73 111.176 139.876C111.17 140.021 111.107 140.158 111 140.257C110.893 140.356 110.751 140.408 110.605 140.402ZM103.288 139.81H103.244L99.5851 139.517C99.5126 139.512 99.4418 139.493 99.3768 139.461C99.3118 139.428 99.2541 139.383 99.207 139.328C99.1599 139.272 99.1244 139.208 99.1026 139.139C99.0808 139.07 99.0732 138.997 99.0802 138.924C99.0933 138.779 99.1627 138.645 99.2735 138.551C99.3843 138.456 99.5277 138.409 99.673 138.419L103.332 138.719C103.466 138.739 103.587 138.808 103.673 138.912C103.76 139.017 103.804 139.149 103.799 139.284C103.793 139.419 103.738 139.548 103.644 139.645C103.55 139.742 103.423 139.801 103.288 139.81ZM95.9702 139.224H95.9263L92.2676 138.932C92.1955 138.926 92.1253 138.906 92.0609 138.873C91.9965 138.84 91.9392 138.795 91.8923 138.74C91.8455 138.685 91.8099 138.621 91.7876 138.552C91.7654 138.483 91.7569 138.411 91.7626 138.339C91.7684 138.267 91.7883 138.197 91.8212 138.132C91.8541 138.068 91.8994 138.011 91.9544 137.964C92.0095 137.917 92.0732 137.881 92.142 137.859C92.2108 137.837 92.2833 137.828 92.3554 137.834L96.0142 138.127C96.1597 138.133 96.297 138.196 96.3958 138.303C96.4946 138.41 96.5468 138.552 96.541 138.697C96.5352 138.843 96.4718 138.98 96.3648 139.079C96.2577 139.178 96.1158 139.23 95.9702 139.224V139.224ZM251.952 139.093C251.811 139.102 251.672 139.056 251.564 138.965C251.455 138.873 251.387 138.744 251.371 138.604C251.356 138.463 251.396 138.322 251.482 138.21C251.569 138.098 251.695 138.024 251.835 138.002L255.413 137.234C255.484 137.219 255.557 137.218 255.628 137.232C255.699 137.245 255.766 137.272 255.827 137.311C255.887 137.351 255.939 137.402 255.98 137.461C256.021 137.521 256.049 137.588 256.064 137.658C256.079 137.729 256.08 137.802 256.067 137.873C256.054 137.944 256.026 138.011 255.987 138.072C255.948 138.132 255.897 138.185 255.837 138.225C255.778 138.266 255.711 138.295 255.64 138.31L252.062 139.078L251.952 139.093ZM88.6819 138.639H88.6307L84.9719 138.346C84.896 138.346 84.8209 138.331 84.7513 138.301C84.6817 138.27 84.6191 138.226 84.5676 138.17C84.516 138.114 84.4766 138.049 84.4518 137.977C84.427 137.905 84.4173 137.829 84.4234 137.753C84.4295 137.678 84.4512 137.604 84.4872 137.537C84.5232 137.47 84.5726 137.412 84.6324 137.365C84.6922 137.318 84.7611 137.284 84.8346 137.266C84.9082 137.247 84.9848 137.244 85.0597 137.256L88.7185 137.549C88.7904 137.554 88.8604 137.574 88.9246 137.607C88.9887 137.64 89.0456 137.685 89.0919 137.74C89.1383 137.796 89.1731 137.859 89.1945 137.928C89.2158 137.997 89.2231 138.07 89.2161 138.141C89.209 138.257 89.1656 138.367 89.092 138.457C89.0184 138.546 88.9184 138.61 88.8063 138.639H88.6819ZM81.3644 138.046H81.3204L77.6617 137.754C77.5161 137.742 77.3811 137.673 77.2864 137.562C77.1918 137.451 77.1451 137.306 77.1567 137.161C77.1684 137.015 77.2374 136.88 77.3485 136.786C77.4597 136.691 77.6039 136.644 77.7495 136.656L81.4083 136.949C81.5538 136.954 81.6911 137.018 81.7899 137.125C81.8887 137.232 81.9409 137.374 81.9351 137.519C81.9293 137.665 81.8659 137.802 81.7589 137.901C81.6518 138 81.5099 138.052 81.3644 138.046V138.046ZM259.226 137.571C259.092 137.568 258.963 137.518 258.864 137.427C258.765 137.337 258.703 137.214 258.688 137.081C258.674 136.948 258.709 136.814 258.786 136.705C258.864 136.595 258.978 136.518 259.108 136.488L262.687 135.719C262.757 135.703 262.83 135.701 262.901 135.713C262.972 135.726 263.039 135.752 263.1 135.791C263.161 135.83 263.213 135.88 263.254 135.94C263.295 135.999 263.323 136.066 263.338 136.136C263.369 136.279 263.342 136.428 263.264 136.551C263.186 136.674 263.063 136.762 262.921 136.795L259.343 137.571H259.226ZM74.2151 137.483H74.1712L70.5124 137.19C70.4399 137.185 70.369 137.166 70.3041 137.134C70.2391 137.101 70.1813 137.056 70.1342 137.001C70.0871 136.945 70.0516 136.881 70.0298 136.812C70.0081 136.743 70.0004 136.67 70.0075 136.597C70.0205 136.453 70.0901 136.32 70.2012 136.226C70.3123 136.133 70.4557 136.088 70.6002 136.1L74.259 136.392C74.3311 136.395 74.4019 136.412 74.4673 136.443C74.5328 136.473 74.5917 136.516 74.6406 136.569C74.6895 136.622 74.7276 136.684 74.7525 136.752C74.7774 136.819 74.7887 136.891 74.7858 136.963C74.783 137.035 74.7659 137.106 74.7357 137.172C74.7054 137.237 74.6626 137.296 74.6096 137.345C74.5566 137.394 74.4945 137.432 74.4268 137.457C74.3591 137.482 74.2871 137.493 74.2151 137.49V137.483ZM66.8975 136.89H66.8536L63.1948 136.597C63.1226 136.592 63.0523 136.572 62.9878 136.539C62.9233 136.506 62.8659 136.461 62.819 136.406C62.7721 136.351 62.7365 136.287 62.7144 136.218C62.6922 136.149 62.6839 136.077 62.6899 136.005C62.7029 135.86 62.7723 135.726 62.8831 135.631C62.994 135.537 63.1374 135.49 63.2826 135.5L66.9414 135.8C67.0752 135.82 67.1969 135.888 67.2831 135.993C67.3693 136.097 67.414 136.229 67.4085 136.365C67.4031 136.5 67.3479 136.628 67.2536 136.725C67.1593 136.822 67.0325 136.881 66.8975 136.89V136.89ZM266.36 136.012C266.226 136.01 266.098 135.959 265.999 135.869C265.9 135.779 265.837 135.655 265.823 135.522C265.809 135.389 265.843 135.255 265.921 135.146C265.998 135.037 266.113 134.96 266.243 134.929L269.821 134.197C269.958 134.179 270.096 134.213 270.209 134.292C270.321 134.371 270.4 134.489 270.429 134.624C270.459 134.758 270.437 134.899 270.368 135.017C270.298 135.136 270.187 135.225 270.056 135.266L266.477 135.997C266.439 136.009 266.4 136.014 266.36 136.012V136.012ZM273.509 134.475C273.369 134.481 273.233 134.434 273.127 134.342C273.021 134.25 272.954 134.121 272.94 133.982C272.926 133.842 272.966 133.703 273.051 133.592C273.137 133.481 273.261 133.407 273.4 133.385L276.978 132.617C277.121 132.586 277.269 132.614 277.392 132.694C277.514 132.774 277.599 132.898 277.629 133.041C277.659 133.184 277.632 133.332 277.552 133.455C277.472 133.577 277.348 133.662 277.205 133.692L273.678 134.461L273.509 134.475ZM280.666 132.931C280.532 132.929 280.404 132.878 280.305 132.788C280.206 132.698 280.143 132.575 280.129 132.441C280.115 132.308 280.149 132.175 280.227 132.065C280.304 131.956 280.419 131.879 280.549 131.848L282.013 131.534C282.085 131.511 282.162 131.504 282.237 131.513C282.313 131.521 282.385 131.545 282.451 131.584C282.517 131.622 282.574 131.673 282.618 131.735C282.663 131.796 282.695 131.866 282.711 131.94C282.727 132.015 282.728 132.091 282.713 132.166C282.698 132.24 282.668 132.311 282.624 132.373C282.58 132.435 282.524 132.488 282.459 132.527C282.394 132.567 282.322 132.592 282.247 132.602L280.783 132.924L280.666 132.931Z" fill="#444444"/>
</svg>
