<svg width="366" height="490" viewBox="0 0 366 490" fill="none" xmlns="http://www.w3.org/2000/svg">
<path d="M210.073 411.036C211.925 407.853 213.915 404.772 215.891 401.684C216.886 400.155 217.932 398.603 219.052 397.103C220.191 395.609 221.413 394.18 222.711 392.822C225.314 390.061 228.266 387.65 231.492 385.651C233.123 384.652 234.819 383.765 236.57 382.995C237.47 382.651 238.356 382.263 239.27 381.978C240.185 381.692 241.092 381.37 242.036 381.165L243.441 380.836C243.91 380.741 244.393 380.668 244.868 380.587C245.818 380.422 246.775 380.305 247.737 380.236C248.695 380.134 249.661 380.163 250.62 380.126H253.357C256.854 380.15 260.336 379.656 263.689 378.663C267.098 377.622 270.365 376.162 273.414 374.316C276.612 372.509 279.795 370.657 283.073 369.011C280.242 371.367 277.322 373.584 274.409 375.816C272.92 376.954 271.36 377.997 269.741 378.941C268.1 379.884 266.387 380.696 264.619 381.37C261.034 382.751 257.24 383.511 253.401 383.617C252.449 383.617 251.549 383.617 250.642 383.668C249.735 383.719 248.908 383.712 248.052 383.829C247.195 383.946 246.325 383.99 245.476 384.166C245.044 384.246 244.62 384.312 244.195 384.4L242.929 384.707C236.16 386.346 230.006 390.115 224.716 394.857C222.056 397.293 219.588 399.931 217.332 402.745C214.947 405.533 212.576 408.321 210.073 411.036Z" fill="#0084B2"/>
<path d="M212.942 410.209C214.574 408.563 216.301 407.048 218.028 405.533C219.806 403.986 221.738 402.625 223.794 401.472C227.988 399.1 232.657 397.69 237.463 397.345C238.641 397.25 239.936 397.279 240.954 397.257C241.971 397.235 243.149 397.169 244.195 397.059C246.367 396.832 248.516 396.425 250.62 395.845C251.674 395.559 252.728 395.208 253.84 394.864C254.952 394.52 256.035 394.191 257.133 393.869C259.328 393.254 261.523 392.625 263.821 392.149C261.86 393.379 259.826 394.454 257.799 395.537C256.782 396.064 255.757 396.591 254.733 397.096C253.708 397.601 252.662 398.121 251.549 398.56C249.332 399.461 247.019 400.109 244.656 400.491C243.469 400.679 242.272 400.801 241.071 400.857C239.812 400.901 238.817 400.894 237.719 400.989C233.368 401.314 229.1 402.347 225.082 404.048C223.025 404.898 221.023 405.875 219.089 406.975C217.076 408.102 215.071 409.221 212.942 410.209Z" fill="#0084B2"/>
<path d="M141.302 173.412L79.7029 247.393L78.9712 159.443L140.571 123.623L141.302 173.412Z" fill="#CCCCCC"/>
<path d="M79.7104 247.942C79.6474 247.952 79.5831 247.952 79.5201 247.942C79.4159 247.902 79.326 247.832 79.262 247.741C79.1981 247.649 79.1631 247.541 79.1615 247.43L78.4298 159.479C78.428 159.382 78.4522 159.286 78.4998 159.201C78.5474 159.116 78.6166 159.046 78.7005 158.996L140.3 123.14C140.382 123.091 140.475 123.065 140.571 123.064C140.666 123.062 140.76 123.086 140.844 123.133C140.927 123.18 140.996 123.248 141.045 123.33C141.093 123.412 141.119 123.506 141.12 123.601L141.851 173.398C141.854 173.529 141.807 173.657 141.72 173.756L80.1275 247.744C80.0761 247.805 80.0123 247.854 79.9404 247.888C79.8684 247.922 79.79 247.941 79.7104 247.942V247.942ZM79.5274 159.758L80.2592 245.893L140.768 173.222L140.037 124.567L79.5274 159.758Z" fill="#444444"/>
<path d="M147.317 411.197C146.944 414.644 155.103 417.688 168.714 418.624C186.115 419.832 205.726 417.124 212.62 412.624C214.332 411.504 215.108 410.377 215.034 409.294V340.268L147.317 342.17V411.197Z" fill="#F9F9F9"/>
<path d="M177.144 419.459C174.298 419.459 171.458 419.363 168.67 419.173C157.84 418.441 149.952 416.246 147.567 413.429C147.287 413.126 147.072 412.769 146.935 412.38C146.798 411.992 146.741 411.579 146.769 411.168V342.17C146.771 342.028 146.827 341.891 146.927 341.789C147.026 341.687 147.161 341.627 147.303 341.621L215.013 339.719C215.162 339.716 215.306 339.771 215.415 339.872C215.519 339.978 215.579 340.119 215.583 340.268V409.294C215.671 410.582 214.771 411.87 212.92 413.085C207.088 416.919 192.094 419.459 177.144 419.459ZM147.874 342.704V411.248C147.859 411.516 147.899 411.785 147.992 412.036C148.085 412.288 148.229 412.518 148.415 412.712C150.574 415.295 158.375 417.344 168.758 418.061C185.962 419.254 205.507 416.597 212.327 412.148C213.359 411.475 214.566 410.436 214.522 409.316V340.831L147.874 342.704Z" fill="#444444"/>
<path d="M133.677 346.283C133.143 350.622 144.654 354.449 163.958 355.635C188.603 357.157 216.366 353.747 226.157 348.075C228.587 346.67 229.677 345.251 229.574 343.882V300.189L133.714 302.589L133.677 346.283Z" fill="#F9F9F9"/>
<path d="M175.915 356.542C171.89 356.542 167.865 356.425 163.928 356.183C148.247 355.217 137.051 352.451 133.992 348.771C133.679 348.433 133.441 348.035 133.291 347.6C133.141 347.165 133.083 346.704 133.121 346.246V302.589C133.121 302.445 133.178 302.307 133.28 302.204C133.381 302.101 133.519 302.042 133.663 302.041L229.523 299.64C229.671 299.64 229.813 299.698 229.918 299.801C229.972 299.851 230.014 299.911 230.043 299.978C230.072 300.044 230.087 300.116 230.087 300.189V343.882C230.211 345.478 228.967 347.058 226.428 348.551C218.13 353.359 197.033 356.542 175.915 356.542ZM134.204 303.124V346.349C134.177 346.662 134.218 346.979 134.324 347.275C134.43 347.572 134.599 347.842 134.819 348.068C137.651 351.471 148.825 354.156 163.98 355.093C188.398 356.593 216.147 353.234 225.842 347.6C227.986 346.356 229.07 345.083 228.982 343.941V300.753L134.204 303.124Z" fill="#444444"/>
<path d="M153.545 354.647L158.426 340.648L162.765 355.561L153.545 354.647Z" fill="#CCCCCC"/>
<path d="M162.765 356.11H162.706L153.494 355.203C153.411 355.196 153.331 355.169 153.26 355.126C153.189 355.083 153.128 355.024 153.084 354.954C153.041 354.883 153.013 354.805 153.003 354.722C152.993 354.64 153 354.557 153.025 354.478L157.906 340.48C157.942 340.368 158.014 340.271 158.111 340.204C158.207 340.136 158.323 340.102 158.44 340.107C158.556 340.111 158.668 340.151 158.76 340.222C158.852 340.293 158.919 340.391 158.952 340.502L163.292 355.415C163.316 355.502 163.318 355.593 163.299 355.681C163.28 355.769 163.24 355.851 163.182 355.92C163.131 355.98 163.067 356.028 162.995 356.061C162.923 356.094 162.844 356.111 162.765 356.11V356.11ZM154.291 354.171L162.011 354.903L158.352 342.426L154.291 354.171Z" fill="#444444"/>
<path d="M205.236 353.922L206.971 340.648L210.717 352.978L205.236 353.922Z" fill="#CCCCCC"/>
<path d="M205.236 354.471C205.166 354.472 205.096 354.459 205.03 354.432C204.965 354.406 204.906 354.367 204.856 354.317C204.792 354.259 204.745 354.185 204.717 354.103C204.689 354.022 204.681 353.934 204.695 353.849L206.429 340.582C206.444 340.458 206.502 340.342 206.592 340.255C206.683 340.168 206.801 340.116 206.926 340.107C207.052 340.096 207.177 340.129 207.28 340.2C207.384 340.27 207.461 340.374 207.497 340.494L211.244 352.817C211.27 352.894 211.28 352.975 211.272 353.055C211.264 353.136 211.239 353.214 211.198 353.283C211.157 353.353 211.101 353.413 211.034 353.459C210.968 353.505 210.892 353.535 210.812 353.549L205.331 354.493L205.236 354.471ZM207.183 343.246L205.873 353.256L210.007 352.525L207.183 343.246Z" fill="#444444"/>
<g opacity="0.3">
<path opacity="0.3" d="M162.765 356.11H162.706L153.494 355.203C153.411 355.196 153.331 355.169 153.26 355.126C153.189 355.083 153.128 355.024 153.084 354.954C153.041 354.883 153.013 354.805 153.003 354.722C152.993 354.64 153 354.557 153.025 354.478L157.906 340.48C157.942 340.368 158.014 340.271 158.111 340.204C158.207 340.136 158.323 340.102 158.44 340.107C158.556 340.111 158.668 340.151 158.76 340.222C158.852 340.293 158.919 340.391 158.952 340.502L163.292 355.415C163.316 355.502 163.318 355.593 163.299 355.681C163.28 355.769 163.24 355.851 163.182 355.92C163.131 355.98 163.067 356.028 162.995 356.061C162.923 356.094 162.844 356.111 162.765 356.11V356.11ZM154.291 354.171L162.011 354.903L158.352 342.426L154.291 354.171Z" fill="#444444"/>
</g>
<g opacity="0.3">
<path opacity="0.3" d="M205.236 354.471C205.166 354.472 205.096 354.459 205.03 354.432C204.965 354.406 204.906 354.367 204.856 354.317C204.792 354.259 204.745 354.185 204.717 354.103C204.689 354.022 204.681 353.934 204.695 353.849L206.429 340.582C206.444 340.458 206.502 340.342 206.592 340.255C206.683 340.168 206.801 340.116 206.926 340.107C207.052 340.096 207.177 340.129 207.28 340.2C207.384 340.27 207.461 340.374 207.497 340.494L211.244 352.817C211.27 352.894 211.28 352.975 211.272 353.055C211.264 353.136 211.239 353.214 211.198 353.283C211.157 353.353 211.101 353.413 211.034 353.459C210.968 353.505 210.892 353.535 210.812 353.549L205.331 354.493L205.236 354.471ZM207.183 343.246L205.873 353.256L210.007 352.525L207.183 343.246Z" fill="#444444"/>
</g>
<path d="M158.25 344.263C159.765 347.468 161.126 350.724 162.502 353.981C163.175 355.598 163.819 357.266 164.419 358.971C164.999 360.683 165.487 362.425 165.882 364.189C166.675 367.759 166.997 371.417 166.841 375.07C166.707 378.777 165.978 382.439 164.682 385.915C164.324 386.778 164.002 387.649 163.57 388.476L162.948 389.734L162.216 390.942C161.763 391.761 161.192 392.508 160.672 393.276C160.153 394.044 159.611 394.703 159.084 395.405C157.085 398.091 155.519 401.074 154.445 404.245C153.37 407.497 152.718 410.874 152.506 414.292C152.177 417.812 151.862 421.324 151.379 424.837C151.05 421.31 150.889 417.783 150.713 414.256C150.621 412.451 150.645 410.642 150.786 408.841C150.944 407.018 151.253 405.212 151.708 403.44C152.602 399.833 154.15 396.42 156.274 393.371C156.772 392.639 157.313 391.908 157.782 391.176C158.25 390.444 158.718 389.815 159.099 389.076L159.714 387.993L160.255 386.873C160.643 386.141 160.914 385.351 161.228 384.583C163.599 378.356 163.936 371.411 163.021 364.657C162.514 361.227 161.761 357.837 160.767 354.515C159.911 351.141 159.004 347.724 158.25 344.263Z" fill="#0084B2"/>
<path d="M158.411 343.641C158.762 346.034 158.938 348.405 159.099 350.798C159.232 353.246 159.085 355.701 158.66 358.115C158.23 360.576 157.493 362.973 156.465 365.25C155.435 367.547 154.109 369.7 152.521 371.653L151.101 372.326L152.521 371.653C150.146 374.586 148.254 377.879 146.915 381.407C146.249 383.222 145.54 385.132 144.786 386.969C144.032 388.805 143.264 390.627 142.371 392.479C142.561 390.466 142.861 388.491 143.191 386.515C143.52 384.539 143.871 382.615 144.31 380.617C145.256 376.521 147.092 372.683 149.689 369.377L151.101 368.704L149.689 369.377C151.061 367.616 152.257 365.723 153.26 363.728C154.27 361.709 155.095 359.603 155.726 357.435C156.368 355.225 156.857 352.973 157.189 350.695C157.548 348.368 157.884 345.997 158.411 343.641Z" fill="#0084B2"/>
<path d="M133.246 339.258C132.712 343.597 144.222 347.424 163.526 348.61C188.172 350.132 215.935 346.722 225.725 341.051C228.155 339.646 229.245 338.226 229.143 336.858V313.924L133.282 316.324L133.246 339.258Z" fill="#F9F9F9"/>
<path d="M175.483 349.517C171.458 349.517 167.434 349.4 163.497 349.158C147.815 348.193 136.619 345.427 133.561 341.746C133.248 341.409 133.009 341.01 132.861 340.575C132.712 340.14 132.656 339.679 132.697 339.221V316.31C132.696 316.239 132.709 316.168 132.736 316.102C132.762 316.036 132.801 315.976 132.851 315.925C132.9 315.874 132.959 315.833 133.025 315.805C133.09 315.777 133.16 315.762 133.231 315.761L229.092 313.361C229.165 313.36 229.238 313.374 229.305 313.402C229.373 313.43 229.435 313.47 229.487 313.522C229.54 313.571 229.583 313.631 229.612 313.698C229.641 313.765 229.655 313.837 229.655 313.91V336.858C229.78 338.453 228.536 340.033 225.996 341.526C217.698 346.334 196.602 349.517 175.483 349.517ZM133.773 316.844V339.258C133.773 339.258 133.773 339.302 133.773 339.324C133.746 339.638 133.787 339.954 133.893 340.25C133.999 340.547 134.168 340.818 134.388 341.043C137.219 344.446 148.393 347.132 163.548 348.068C187.967 349.532 215.715 346.21 225.411 340.575C227.555 339.331 228.638 338.058 228.55 336.916V314.473L133.773 316.844Z" fill="#444444"/>
<path d="M79.3154 324.886L225.111 338.109L282.188 296.999L141.09 288.979L79.3154 324.886Z" fill="#F9F9F9"/>
<path d="M225.111 338.658H225.067L79.264 325.427C79.1478 325.418 79.0377 325.372 78.9495 325.295C78.8613 325.219 78.7998 325.117 78.7737 325.003C78.749 324.889 78.7612 324.77 78.8085 324.664C78.8559 324.557 78.936 324.468 79.0372 324.41L140.82 288.51C140.912 288.454 141.019 288.426 141.127 288.43L282.225 296.479C282.337 296.487 282.444 296.529 282.532 296.599C282.62 296.67 282.684 296.766 282.715 296.874C282.748 296.983 282.746 297.1 282.709 297.207C282.673 297.315 282.603 297.408 282.51 297.474L225.433 338.584C225.336 338.642 225.223 338.667 225.111 338.658V338.658ZM81.0788 324.491L224.957 337.545L280.615 297.46L141.229 289.542L81.0788 324.491Z" fill="#444444"/>
<path d="M219.864 314.854C211.288 320.525 186.935 323.927 165.253 322.413C148.328 321.227 138.178 317.393 138.654 313.054C138.785 311.795 139.817 310.485 141.844 309.19C150.772 303.475 175.505 300.189 196.938 301.799C212.869 302.992 222.586 306.57 222.864 310.661C222.952 312.022 221.994 313.441 219.864 314.854Z" fill="#CCCCCC"/>
<path d="M175.746 323.32C172.212 323.32 168.678 323.203 165.216 322.962C151.818 322.025 142.049 319.347 139.078 315.798C138.731 315.423 138.465 314.981 138.298 314.498C138.13 314.016 138.065 313.504 138.105 312.995C138.266 311.532 139.422 310.068 141.544 308.729C150.523 302.985 175.388 299.633 196.975 301.25C212.978 302.45 223.106 306.043 223.406 310.624C223.516 312.241 222.425 313.815 220.164 315.307C212.883 320.122 194.318 323.32 175.746 323.32ZM185.662 301.938C167.514 301.938 149.425 304.99 142.137 309.651C140.329 310.807 139.312 312.007 139.21 313.112C139.19 313.475 139.245 313.838 139.371 314.179C139.497 314.52 139.691 314.832 139.941 315.095C142.678 318.366 152.381 320.949 165.312 321.864C186.737 323.328 211.083 320.013 219.579 314.393C220.896 313.529 222.433 312.197 222.337 310.697C222.118 307.47 214.178 303.643 196.916 302.348C193.184 302.07 189.438 301.938 185.662 301.938Z" fill="#444444"/>
<path d="M152.081 304.953L138.91 314.159C139.1 314.612 139.37 315.029 139.707 315.388L156.004 304.031C154.613 304.316 153.318 304.631 152.081 304.953Z" fill="#BFBFBF"/>
<path d="M166.731 302.282L143.988 318.124C144.508 318.344 145.064 318.556 145.657 318.768L169.805 301.938C168.758 302.048 167.734 302.158 166.731 302.282Z" fill="#BFBFBF"/>
<path d="M178.944 301.316L151.576 320.386C152.227 320.525 152.901 320.656 153.589 320.781L181.651 301.228C180.744 301.25 179.844 301.279 178.944 301.316Z" fill="#BFBFBF"/>
<path d="M189.891 301.228L160.431 321.761L162.67 321.988L192.335 301.316C191.523 301.279 190.711 301.25 189.891 301.228Z" fill="#BFBFBF"/>
<path d="M199.858 301.828L170.266 322.457C171.085 322.457 171.905 322.508 172.732 322.523L202.075 302.07L199.858 301.828Z" fill="#BFBFBF"/>
<path d="M208.851 303.109L181.044 322.471C181.952 322.471 182.852 322.413 183.752 322.369L210.827 303.526L208.851 303.109Z" fill="#BFBFBF"/>
<path d="M216.644 305.231L193.082 321.652C194.128 321.535 195.152 321.417 196.162 321.286L218.239 305.919C217.742 305.67 217.208 305.45 216.644 305.231Z" fill="#BFBFBF"/>
<path d="M222.864 310.266C222.785 309.765 222.587 309.29 222.286 308.883L207.234 319.332C208.697 318.995 210.051 318.637 211.339 318.256L222.864 310.266Z" fill="#BFBFBF"/>
<path d="M206.531 348.346L208.646 348.046L209.327 350.264L206.158 350.944L206.531 348.346Z" fill="#0084B2"/>
<path d="M175.746 323.32C172.212 323.32 168.678 323.203 165.216 322.962C151.818 322.025 142.049 319.347 139.078 315.798C138.731 315.423 138.465 314.981 138.298 314.498C138.13 314.016 138.065 313.504 138.105 312.995C138.266 311.532 139.422 310.068 141.544 308.729C150.523 302.985 175.388 299.633 196.975 301.25C212.978 302.45 223.106 306.043 223.406 310.624C223.516 312.241 222.425 313.815 220.164 315.307C212.883 320.122 194.318 323.32 175.746 323.32ZM185.662 301.938C167.514 301.938 149.425 304.99 142.137 309.651C140.329 310.807 139.312 312.007 139.21 313.112C139.19 313.475 139.245 313.838 139.371 314.179C139.497 314.52 139.691 314.832 139.941 315.095C142.678 318.366 152.381 320.949 165.312 321.864C186.737 323.328 211.083 320.013 219.579 314.393C220.896 313.529 222.433 312.197 222.337 310.697C222.118 307.47 214.178 303.643 196.916 302.348C193.184 302.07 189.438 301.938 185.662 301.938Z" fill="#444444"/>
<path d="M281.895 297.343L139.839 280.951L140.571 123.689L281.251 132.522L281.895 297.343Z" fill="#CCCCCC"/>
<path d="M281.895 297.891H281.837L139.766 281.5C139.632 281.482 139.51 281.417 139.421 281.316C139.333 281.215 139.283 281.086 139.283 280.951L140.014 123.682C140.015 123.607 140.032 123.534 140.062 123.466C140.092 123.398 140.136 123.337 140.19 123.287C140.244 123.234 140.309 123.194 140.379 123.169C140.45 123.144 140.525 123.134 140.6 123.14L281.288 131.973C281.427 131.982 281.557 132.044 281.652 132.146C281.747 132.248 281.8 132.382 281.8 132.521L282.459 297.343C282.459 297.42 282.442 297.496 282.411 297.567C282.379 297.638 282.333 297.701 282.276 297.752C282.171 297.845 282.035 297.895 281.895 297.891V297.891ZM140.388 280.461L281.346 296.728L280.702 133.041L141.119 124.26L140.388 280.461Z" fill="#444444"/>
<path d="M144.09 124.582L140.783 126.66V128.438L146.454 124.713L144.09 124.582Z" fill="#BFBFBF"/>
<path d="M154.094 125.153L140.051 134.936V136.722L156.457 125.284L154.094 125.153Z" fill="#BFBFBF"/>
<path d="M164.097 125.723L140.051 142.481V144.266L166.468 125.862L164.097 125.723Z" fill="#BFBFBF"/>
<path d="M174.107 126.302L140.051 150.032V151.811L176.471 126.433L174.107 126.302Z" fill="#BFBFBF"/>
<path d="M184.118 126.872L140.051 157.577V159.362L186.481 127.004L184.118 126.872Z" fill="#BFBFBF"/>
<path d="M194.121 127.443L140.051 165.121V166.907L196.484 127.582L194.121 127.443Z" fill="#BFBFBF"/>
<path d="M204.131 128.021L140.051 172.666V174.451L206.495 128.153L204.131 128.021Z" fill="#BFBFBF"/>
<path d="M214.134 128.592L140.051 180.217V182.003L216.498 128.731L214.134 128.592Z" fill="#BFBFBF"/>
<path d="M224.145 129.163L140.051 187.762V189.547L226.508 129.302L224.145 129.163Z" fill="#BFBFBF"/>
<path d="M234.148 129.741L140.051 195.306V197.092L236.512 129.872L234.148 129.741Z" fill="#BFBFBF"/>
<path d="M244.159 130.312L140.051 202.858V204.636L246.522 130.451L244.159 130.312Z" fill="#BFBFBF"/>
<path d="M254.162 130.89L140.051 210.403V212.188L256.525 131.021L254.162 130.89Z" fill="#BFBFBF"/>
<path d="M264.172 131.46L140.051 217.947V219.732L266.536 131.599L264.172 131.46Z" fill="#BFBFBF"/>
<path d="M274.175 132.031L140.051 225.499V227.277L276.539 132.17L274.175 132.031Z" fill="#BFBFBF"/>
<path d="M281.464 134.504L140.051 233.043V234.828L281.464 136.283V134.504Z" fill="#BFBFBF"/>
<path d="M281.464 142.049L140.051 240.587V242.373L281.464 143.834V142.049Z" fill="#BFBFBF"/>
<path d="M281.464 149.593L140.051 248.139V249.917L281.464 151.379V149.593Z" fill="#BFBFBF"/>
<path d="M281.464 157.138L140.051 255.684V257.469L281.464 158.923V157.138Z" fill="#BFBFBF"/>
<path d="M281.464 164.689L140.051 263.228V265.014L281.464 166.468V164.689Z" fill="#BFBFBF"/>
<path d="M281.464 172.234L140.051 270.78V272.558L281.464 174.019V172.234Z" fill="#BFBFBF"/>
<path d="M281.464 179.778L140.051 278.324V280.11L281.464 181.564V179.778Z" fill="#BFBFBF"/>
<path d="M281.464 187.33L145.913 281.785L148.005 282.115L281.464 189.108V187.33Z" fill="#BFBFBF"/>
<path d="M281.464 194.86L154.752 283.161L156.867 283.483L281.464 196.66V194.86Z" fill="#BFBFBF"/>
<path d="M281.463 202.404L163.614 284.53L165.729 284.859L281.463 204.204V202.404Z" fill="#BFBFBF"/>
<path d="M281.464 209.949L172.476 285.905L174.568 286.227L281.464 211.734V209.949Z" fill="#BFBFBF"/>
<path d="M281.463 217.5L181.337 287.274L183.43 287.603L281.463 219.279V217.5Z" fill="#BFBFBF"/>
<path d="M281.464 225.045L190.191 288.649L192.284 288.971L281.464 226.83V225.045Z" fill="#BFBFBF"/>
<path d="M281.463 232.589L199.053 290.018L201.146 290.347L281.463 234.375V232.589Z" fill="#BFBFBF"/>
<path d="M281.464 240.141L207.915 291.393L210.007 291.715L281.464 241.919V240.141Z" fill="#BFBFBF"/>
<path d="M281.463 247.686L216.776 292.769L218.869 293.091L281.463 249.471V247.686Z" fill="#BFBFBF"/>
<path d="M281.464 255.23L225.638 294.138L227.731 294.46L281.464 257.015V255.23Z" fill="#BFBFBF"/>
<path d="M281.463 262.782L234.492 295.513L236.585 295.835L281.463 264.56V262.782Z" fill="#BFBFBF"/>
<path d="M281.463 270.326L243.354 296.882L245.446 297.211L281.463 272.112V270.326Z" fill="#BFBFBF"/>
<path d="M281.464 277.871L252.215 298.257L254.308 298.579L281.464 279.656V277.871Z" fill="#BFBFBF"/>
<path d="M281.463 285.422L261.077 299.626L263.17 299.955L281.463 287.201V285.422Z" fill="#BFBFBF"/>
<path d="M281.464 292.967L269.938 301.001L272.031 301.323L281.464 294.752V292.967Z" fill="#BFBFBF"/>
<path d="M282.195 297.174V295.389L279.524 297.255L281.617 297.577L282.195 297.174Z" fill="#BFBFBF"/>
<path d="M281.983 297.76H281.917L139.766 281.5C139.632 281.482 139.51 281.417 139.421 281.316C139.333 281.215 139.283 281.086 139.283 280.951L140.014 123.682C140.015 123.607 140.032 123.534 140.062 123.466C140.092 123.398 140.136 123.337 140.19 123.287C140.244 123.234 140.309 123.194 140.379 123.169C140.45 123.144 140.525 123.134 140.6 123.14L281.288 131.973C281.427 131.982 281.557 132.044 281.652 132.146C281.748 132.248 281.8 132.382 281.8 132.521L282.532 297.204C282.533 297.276 282.519 297.348 282.492 297.416C282.465 297.483 282.425 297.545 282.374 297.596C282.323 297.648 282.262 297.689 282.195 297.717C282.128 297.745 282.056 297.76 281.983 297.76V297.76ZM140.388 280.461L281.427 296.596L280.695 133.041L141.112 124.26L140.388 280.461Z" fill="#444444"/>
<path d="M282.239 297.057L225.162 354.712V172.395L282.239 132.126V297.057Z" fill="#CCCCCC"/>
<path d="M225.162 355.261C225.092 355.26 225.023 355.248 224.957 355.225C224.856 355.183 224.769 355.112 224.708 355.021C224.646 354.93 224.614 354.822 224.613 354.713V172.395C224.614 172.307 224.635 172.221 224.676 172.143C224.717 172.066 224.776 171.999 224.847 171.949L281.925 131.702C282.007 131.644 282.104 131.61 282.204 131.604C282.305 131.598 282.405 131.619 282.495 131.666C282.584 131.713 282.658 131.783 282.71 131.87C282.762 131.956 282.789 132.055 282.788 132.156V297.094C282.789 297.166 282.776 297.237 282.75 297.303C282.724 297.37 282.684 297.431 282.634 297.482L225.557 355.137C225.503 355.184 225.441 355.219 225.373 355.24C225.305 355.262 225.233 355.269 225.162 355.261V355.261ZM225.711 172.695V353.381L281.727 296.831V133.18L225.711 172.695Z" fill="#444444"/>
<path d="M225.162 354.713L79.3594 333.543V159.194L225.162 172.717V354.713Z" fill="#F9F9F9"/>
<path d="M225.162 355.261H225.082L79.2789 334.084C79.1483 334.063 79.0295 333.997 78.9436 333.896C78.8578 333.795 78.8106 333.668 78.8105 333.535V159.194C78.8169 159.115 78.8397 159.039 78.8775 158.969C78.9153 158.9 78.9673 158.839 79.0301 158.791C79.086 158.74 79.152 158.702 79.2239 158.678C79.2957 158.654 79.3718 158.645 79.4472 158.652L225.25 172.183C225.387 172.194 225.515 172.257 225.607 172.359C225.7 172.461 225.75 172.594 225.748 172.731V354.72C225.749 354.799 225.732 354.878 225.7 354.95C225.667 355.022 225.618 355.086 225.557 355.137C225.503 355.183 225.44 355.218 225.373 355.24C225.305 355.261 225.233 355.268 225.162 355.261V355.261ZM79.9082 333.067L224.65 354.083V173.222L79.9082 159.794V333.067Z" fill="#444444"/>
<path d="M197.165 261.282V250.027H200.831V253.693H209.21V257.615H200.831V261.282H197.165Z" fill="#99C6D6"/>
<path d="M197.297 216.125V219.528V223.457H209.334V219.528H201.226V216.125H209.334V212.203H201.226H197.297V216.125Z" fill="#99C6D6"/>
<path d="M202.009 187.33L197.297 183.927V188.377L202.009 191.779V192.306H197.297V196.228H209.334V192.306H204.885V191.26L209.334 189.167V184.454L203.319 188.113L202.009 187.33Z" fill="#99C6D6"/>
<path d="M197.297 202.251V205.909L209.334 211.149V206.956L207.241 206.436V201.965L209.334 201.182V196.997L197.297 202.251ZM204.366 205.397L201.234 204.087L204.38 203.041L204.366 205.397Z" fill="#99C6D6"/>
<path d="M197.297 241.78V245.439L209.334 250.671V246.485L207.241 245.959V241.509L209.334 240.726V236.541L197.297 241.78ZM204.366 244.919L201.219 243.61L204.366 242.563V244.919Z" fill="#99C6D6"/>
<path d="M197.297 229.077V235.494H209.334V231.572H206.451V229.077C206.451 228.476 206.333 227.88 206.102 227.325C205.872 226.77 205.535 226.265 205.109 225.84C204.684 225.416 204.179 225.079 203.623 224.849C203.067 224.62 202.472 224.502 201.87 224.503V224.503C201.27 224.503 200.675 224.622 200.12 224.852C199.565 225.081 199.061 225.418 198.636 225.843C198.212 226.268 197.875 226.772 197.645 227.327C197.415 227.882 197.297 228.476 197.297 229.077V229.077ZM203.319 229.845V231.572H200.502V229.845C200.502 229.469 200.652 229.108 200.918 228.841C201.184 228.575 201.545 228.426 201.922 228.426C202.298 228.426 202.659 228.575 202.925 228.841C203.192 229.108 203.341 229.469 203.341 229.845H203.319Z" fill="#99C6D6"/>
<path d="M138.427 97.4776L153.867 93.8188C153.867 93.8188 161.916 131.87 192.833 114.308C223.75 96.7459 200.151 147.969 200.151 147.969C200.151 147.969 132.514 153.091 130.312 153.091C128.109 153.091 97.9605 147.969 102.373 142.847C106.785 137.724 123.696 114.308 125.899 112.113C128.102 109.918 138.427 97.4776 138.427 97.4776Z" fill="#CCCCCC"/>
<path d="M130.341 153.669C128.511 153.669 103.829 149.615 101.605 144.756C101.431 144.389 101.375 143.977 101.443 143.577C101.511 143.176 101.7 142.807 101.985 142.517C104.18 139.949 109.53 132.814 114.681 125.914C119.833 119.013 124.421 112.874 125.54 111.754C127.736 109.603 137.9 97.2799 137.98 97.1189C138.06 97.0297 138.165 96.9661 138.28 96.936L153.72 93.2772C153.864 93.2464 154.013 93.2727 154.138 93.3504C154.199 93.3896 154.253 93.4409 154.294 93.5012C154.336 93.5616 154.365 93.6298 154.379 93.7016C154.416 93.8773 158.287 111.432 170.266 116.811C176.581 119.642 184.074 118.64 192.54 113.825C199.646 109.786 204.402 109.017 207.08 111.469C214.347 118.135 201.226 146.966 200.663 148.196C200.619 148.283 200.554 148.358 200.473 148.413C200.393 148.468 200.299 148.502 200.202 148.51C197.465 148.73 132.543 153.669 130.341 153.669ZM138.734 97.9971C137.527 99.4606 128.416 110.437 126.294 112.53C125.233 113.591 120.521 119.891 115.545 126.565C110.378 133.487 105.037 140.637 102.797 143.234C102.65 143.365 102.549 143.539 102.509 143.732C102.47 143.925 102.494 144.125 102.578 144.303C104.444 148.371 127.663 152.572 130.319 152.572C132.397 152.572 194.714 147.859 199.792 147.449C201.175 144.361 212.656 118.084 206.334 112.288C204.087 110.225 199.624 111.066 193.082 114.784C184.301 119.781 176.464 120.806 169.812 117.82C158.396 112.698 154.196 97.6092 153.435 94.4846L138.734 97.9971Z" fill="#444444"/>
<path d="M143 96.2702L133.297 103.002C132.112 104.415 130.838 105.929 129.638 107.312L146.893 95.3481L143 96.2702Z" fill="#BFBFBF"/>
<path d="M153.977 96.2043L118.787 120.616L116.006 124.326L154.438 97.6679C154.262 97.1337 154.109 96.6434 153.977 96.2043Z" fill="#BFBFBF"/>
<path d="M156.201 102.212L106.998 136.341C105.915 137.761 104.92 139.063 104.071 140.161L156.845 103.573C156.596 103.105 156.399 102.651 156.201 102.212Z" fill="#BFBFBF"/>
<path d="M159.143 107.715L103.529 146.293C104.002 146.577 104.49 146.834 104.993 147.062L159.97 108.93C159.677 108.527 159.406 108.125 159.143 107.715Z" fill="#BFBFBF"/>
<path d="M162.97 112.61L110.422 149.059L112.23 149.586L164.046 113.649C163.672 113.313 163.314 112.969 162.97 112.61Z" fill="#BFBFBF"/>
<path d="M168.107 116.598L118.347 151.093C119.013 151.247 119.672 151.386 120.308 151.518L169.578 117.345C169.08 117.118 168.59 116.862 168.107 116.598Z" fill="#BFBFBF"/>
<path d="M175.695 118.874L126.894 152.725C127.779 152.864 128.504 152.967 129.031 153.025L178.212 118.918C177.373 118.955 176.532 118.94 175.695 118.874V118.874Z" fill="#BFBFBF"/>
<path d="M195.65 112.581L138.017 152.557L140.886 152.352L200.743 110.832C198.981 111.206 197.271 111.793 195.65 112.581V112.581Z" fill="#BFBFBF"/>
<path d="M206.707 112.442L150.142 151.671L153.069 151.459L207.483 113.722C207.283 113.262 207.023 112.832 206.707 112.442V112.442Z" fill="#BFBFBF"/>
<path d="M208.229 118.933L162.326 150.742L165.253 150.53L208.134 120.791C208.171 120.169 208.215 119.54 208.229 118.933Z" fill="#BFBFBF"/>
<path d="M206.949 127.37L174.517 149.864L177.4 149.645L206.392 129.521C206.59 128.789 206.78 128.058 206.949 127.37Z" fill="#BFBFBF"/>
<path d="M204.073 136.912L186.715 148.949L189.642 148.73L203.246 139.29C203.495 138.529 203.787 137.731 204.073 136.912Z" fill="#BFBFBF"/>
<path d="M199.953 147.318L198.929 148.049L199.66 147.991C199.66 147.991 199.77 147.735 199.953 147.318Z" fill="#BFBFBF"/>
<path d="M130.341 153.669C128.511 153.669 103.829 149.615 101.605 144.756C101.431 144.389 101.375 143.977 101.443 143.577C101.511 143.176 101.7 142.807 101.985 142.517C104.18 139.949 109.53 132.814 114.681 125.914C119.833 119.013 124.421 112.874 125.54 111.754C127.736 109.603 137.9 97.2799 137.98 97.1189C138.06 97.0297 138.165 96.9661 138.28 96.936L153.72 93.2772C153.864 93.2464 154.013 93.2727 154.138 93.3504C154.199 93.3896 154.253 93.4409 154.294 93.5012C154.336 93.5616 154.365 93.6298 154.379 93.7016C154.416 93.8773 158.287 111.432 170.266 116.811C176.581 119.642 184.074 118.64 192.54 113.825C199.646 109.786 204.402 109.017 207.08 111.469C214.347 118.135 201.226 146.966 200.663 148.196C200.619 148.283 200.554 148.358 200.473 148.413C200.393 148.468 200.299 148.502 200.202 148.51C197.465 148.73 132.543 153.669 130.341 153.669ZM138.734 97.9971C137.527 99.4606 128.416 110.437 126.294 112.53C125.233 113.591 120.521 119.891 115.545 126.565C110.378 133.487 105.037 140.637 102.797 143.234C102.65 143.365 102.549 143.539 102.509 143.732C102.47 143.925 102.494 144.125 102.578 144.303C104.444 148.371 127.663 152.572 130.319 152.572C132.397 152.572 194.714 147.859 199.792 147.449C201.175 144.361 212.656 118.084 206.334 112.288C204.087 110.225 199.624 111.066 193.082 114.784C184.301 119.781 176.464 120.806 169.812 117.82C158.396 112.698 154.196 97.6092 153.435 94.4846L138.734 97.9971Z" fill="#444444"/>
<path d="M174.934 73.2638C174.934 73.2638 197.919 79.0593 205.449 96.8703L222.118 91.4699C222.118 91.4699 212.561 80.1496 201.007 73.5638C196.534 71.0403 191.382 69.9809 186.276 70.5343L167.507 72.4442C167.507 72.4442 172.161 72.854 174.934 73.2638Z" fill="#2CC8FF"/>
<path d="M153.589 93.504L136.985 97.2506C136.985 97.2506 157.475 73.4538 177.913 77.2443C177.913 77.2443 158.06 76.8345 153.589 93.504Z" fill="#0084B2"/>
<path d="M129.045 95.1797L137.57 97.2506C137.57 97.2506 176.668 50.2571 200.45 99.7605C200.45 99.7605 202.99 95.9188 205.829 96.8335C208.668 97.7482 175.819 42.537 129.045 95.1797Z" fill="#00A5EB"/>
<path d="M224.65 172.871C225.704 143.659 229.143 123.257 209.334 98.1801C206.473 94.5579 200.019 97.5581 200.129 102.146C200.129 103.573 195.738 159.062 154.657 147.515C137.571 142.693 131.651 115.406 137.571 98.5313L137.615 98.3996C139.151 94.0529 134.402 91.8138 130.165 94.8506C115.611 105.242 94.9676 126.587 81.8692 153.274C80.9911 155.06 80.0471 157.365 79.2056 159.201L224.65 172.871Z" fill="#F9F9F9"/>
<path d="M224.65 173.427H224.599L79.1691 159.743C79.0817 159.736 78.9974 159.707 78.9235 159.66C78.8496 159.613 78.7882 159.548 78.7447 159.472C78.7048 159.394 78.6841 159.307 78.6841 159.22C78.6841 159.132 78.7048 159.045 78.7447 158.967C79.074 158.236 79.4252 157.453 79.7765 156.64C80.318 155.404 80.8741 154.123 81.4083 153.033C94.7775 125.745 115.859 104.393 129.851 94.4042C132.302 92.6553 135.178 92.4065 137.007 93.7896C138.405 94.8433 138.829 96.6361 138.142 98.5826L138.098 98.7143C134.344 109.427 135.485 124.136 140.871 134.49C144.288 141.076 149.103 145.371 154.774 146.974C165.421 149.974 174.532 148.635 181.769 143.008C197.619 130.714 199.551 102.424 199.543 102.161C199.47 99.2338 201.636 97.1849 203.809 96.4019C204.823 95.9792 205.945 95.8933 207.011 96.1568C208.077 96.4203 209.03 97.0193 209.729 97.8655C227.555 120.44 226.67 139.576 225.55 163.877C225.418 166.804 225.279 169.812 225.162 172.922C225.161 172.996 225.143 173.068 225.112 173.135C225.08 173.202 225.035 173.262 224.979 173.31C224.885 173.383 224.769 173.424 224.65 173.427V173.427ZM80.0399 158.726L224.094 172.271C224.204 169.344 224.335 166.541 224.46 163.797C225.616 138.815 226.443 120.769 208.873 98.5167C207.805 97.163 206.056 96.7605 204.19 97.4337C202.448 98.063 200.59 99.8046 200.648 102.132C200.648 102.402 198.709 131.248 182.464 143.842C174.905 149.696 165.495 151.108 154.482 148.006C148.489 146.322 143.439 141.815 139.847 134.973C134.366 124.399 133.18 109.325 137.037 98.3484V98.2679C137.585 96.7239 137.307 95.4287 136.305 94.6677C135.134 93.7896 132.807 93.6139 130.451 95.297C116.547 105.212 95.6337 126.411 82.3596 153.516C81.84 154.584 81.2839 155.85 80.7497 157.079L80.0399 158.726Z" fill="#444444"/>
<path d="M205.976 96.5922L222.118 91.4187C222.118 91.4187 251.886 96.841 282.239 132.148L224.709 172.959C224.709 172.959 229.041 112.779 205.976 96.5922Z" fill="#E8E8E8"/>
<path d="M224.708 173.485C224.613 173.484 224.52 173.458 224.438 173.412C224.347 173.36 224.273 173.284 224.224 173.192C224.175 173.1 224.153 172.997 224.159 172.893C224.203 172.293 228.235 112.888 205.661 97.0239C205.577 96.9654 205.511 96.8846 205.47 96.7906C205.43 96.6965 205.416 96.593 205.431 96.4918C205.447 96.3906 205.49 96.2956 205.556 96.2176C205.623 96.1397 205.709 96.0818 205.807 96.0507L221.95 90.8771C222.036 90.8515 222.127 90.8515 222.213 90.8771C222.513 90.9284 252.53 96.7312 282.656 131.782C282.707 131.84 282.746 131.907 282.769 131.98C282.792 132.053 282.799 132.13 282.79 132.206C282.781 132.282 282.756 132.356 282.716 132.421C282.677 132.487 282.624 132.544 282.561 132.587L225.023 173.398C224.929 173.458 224.82 173.488 224.708 173.485ZM207.146 96.7678C227.826 112.691 225.821 163.27 225.33 171.817L281.434 132.024C252.72 98.8679 224.32 92.4138 222.162 91.9674L207.146 96.7678Z" fill="#444444"/>
<path d="M239.636 137.029C239.5 137.03 239.369 136.98 239.268 136.89C239.166 136.799 239.102 136.674 239.087 136.539C235.429 102.146 209.473 96.0872 209.217 96.036C209.146 96.0204 209.079 95.991 209.02 95.9494C208.961 95.9078 208.91 95.8548 208.871 95.7936C208.833 95.7323 208.806 95.664 208.794 95.5926C208.782 95.5212 208.784 95.448 208.8 95.3774C208.815 95.3069 208.843 95.24 208.884 95.1807C208.925 95.1214 208.977 95.0709 209.038 95.032C209.099 94.9932 209.166 94.9668 209.237 94.9545C209.308 94.9422 209.381 94.9442 209.451 94.9603C209.722 95.0188 236.402 101.246 240.185 136.422C240.202 136.566 240.16 136.711 240.069 136.825C239.979 136.939 239.847 137.013 239.702 137.029H239.636Z" fill="#444444"/>
<path d="M257.974 125.365C257.87 125.364 257.768 125.334 257.68 125.279C257.592 125.223 257.522 125.144 257.477 125.05C243.793 96.7018 217.062 93.665 216.791 93.6357C216.716 93.6325 216.643 93.6141 216.576 93.5816C216.508 93.5491 216.449 93.5032 216.4 93.4467C216.351 93.3902 216.314 93.3243 216.291 93.2531C216.269 93.1819 216.261 93.1068 216.268 93.0324C216.276 92.9581 216.298 92.886 216.335 92.8207C216.371 92.7554 216.42 92.6982 216.48 92.6526C216.539 92.607 216.607 92.574 216.679 92.5555C216.751 92.5371 216.827 92.5336 216.901 92.5454C217.179 92.5454 244.503 95.6554 258.465 124.574C258.497 124.639 258.516 124.71 258.52 124.782C258.525 124.854 258.515 124.926 258.491 124.994C258.467 125.063 258.43 125.125 258.381 125.179C258.333 125.232 258.274 125.276 258.208 125.306C258.136 125.344 258.056 125.364 257.974 125.365V125.365Z" fill="#444444"/>
<path d="M143.79 121.955C143.692 121.956 143.594 121.93 143.509 121.879C143.424 121.829 143.354 121.756 143.307 121.669C137.022 110.115 141.522 96.7091 141.566 96.5774C141.589 96.5055 141.627 96.4392 141.678 96.3827C141.728 96.3263 141.79 96.2808 141.858 96.2492C141.927 96.2176 142.001 96.2005 142.077 96.1991C142.153 96.1976 142.228 96.2118 142.298 96.2408C142.366 96.2638 142.429 96.3001 142.483 96.3477C142.536 96.3953 142.58 96.4531 142.612 96.5178C142.643 96.5825 142.661 96.6528 142.665 96.7246C142.669 96.7964 142.658 96.8682 142.634 96.9359C142.59 97.0677 138.244 110.02 144.303 121.142C144.366 121.27 144.378 121.417 144.335 121.554C144.293 121.69 144.2 121.805 144.076 121.874C143.99 121.927 143.891 121.955 143.79 121.955Z" fill="#444444"/>
<path d="M153.618 114.996C153.473 114.993 153.335 114.935 153.23 114.835C145.539 107.181 148.108 95.692 148.218 95.209C148.233 95.1383 148.263 95.0713 148.304 95.0119C148.346 94.9525 148.399 94.902 148.46 94.8632C148.521 94.8245 148.59 94.7982 148.661 94.786C148.732 94.7737 148.806 94.7757 148.876 94.7919C149.017 94.8267 149.138 94.915 149.215 95.038C149.291 95.161 149.317 95.309 149.286 95.4505C149.286 95.5676 146.754 106.837 154.006 114.059C154.109 114.162 154.166 114.302 154.166 114.447C154.166 114.592 154.109 114.732 154.006 114.835C153.902 114.936 153.763 114.994 153.618 114.996V114.996Z" fill="#444444"/>
</svg>
