<svg width="366" height="490" viewBox="0 0 366 490" fill="none" xmlns="http://www.w3.org/2000/svg">
<path d="M141.303 173.412L79.7032 247.393L79.2202 159.201L140.571 123.623L141.303 173.412Z" fill="#CCCCCC"/>
<path d="M79.7105 247.942C79.6476 247.953 79.5832 247.953 79.5203 247.942C79.4149 247.902 79.3242 247.831 79.2601 247.738C79.1961 247.645 79.1618 247.535 79.1617 247.422L78.6714 159.231C78.6702 159.135 78.6947 159.04 78.7423 158.956C78.7899 158.873 78.8589 158.803 78.9422 158.755L140.3 123.177C140.382 123.128 140.475 123.101 140.571 123.1C140.666 123.099 140.76 123.123 140.844 123.17C140.927 123.216 140.996 123.284 141.045 123.367C141.093 123.449 141.119 123.543 141.12 123.638L141.851 173.434C141.856 173.499 141.847 173.564 141.825 173.626C141.804 173.687 141.771 173.744 141.727 173.793L80.1276 247.744C80.0763 247.805 80.0125 247.854 79.9405 247.888C79.8686 247.922 79.7901 247.941 79.7105 247.942V247.942ZM79.7617 159.523L80.2374 245.871L140.746 173.207L140.015 124.553L79.7617 159.523Z" fill="#444444"/>
<path d="M210.424 391.03C212.283 387.847 214.273 384.766 216.278 381.678C217.274 380.156 218.32 378.597 219.44 377.104C220.575 375.608 221.797 374.178 223.098 372.824C225.702 370.062 228.654 367.651 231.879 365.652C233.509 364.651 235.206 363.763 236.958 362.996C237.858 362.645 238.743 362.264 239.651 361.979C240.558 361.694 241.48 361.364 242.424 361.167L243.829 360.83C244.297 360.735 244.78 360.669 245.249 360.589C246.2 360.406 247.159 360.325 248.117 360.23C249.076 360.135 250.049 360.164 251.008 360.128H253.744C257.242 360.147 260.723 359.654 264.077 358.664C267.486 357.62 270.752 356.157 273.802 354.31C277 352.503 280.183 350.688 283.461 349.012C280.629 351.368 277.71 353.586 274.79 355.81C273.304 356.949 271.747 357.993 270.128 358.935C268.488 359.879 266.775 360.691 265.006 361.364C261.426 362.751 257.634 363.513 253.796 363.618C252.844 363.655 251.944 363.618 251.037 363.669C250.13 363.721 249.303 363.706 248.439 363.823C247.576 363.94 246.72 363.991 245.871 364.167C245.439 364.247 245.015 364.306 244.59 364.394L243.324 364.708C236.555 366.348 230.394 370.116 225.103 374.851C222.436 377.28 219.956 379.908 217.683 382.71C215.305 385.534 212.942 388.33 210.424 391.03Z" fill="#0084B2"/>
<path d="M213.322 390.203C214.961 388.556 216.688 387.049 218.445 385.527C220.223 383.98 222.155 382.619 224.211 381.466C228.388 379.102 233.035 377.69 237.822 377.331C239 377.243 240.295 377.265 241.312 377.243C242.329 377.221 243.507 377.156 244.554 377.046C246.73 376.819 248.884 376.413 250.993 375.831C252.047 375.553 253.101 375.202 254.213 374.851C255.325 374.499 256.408 374.177 257.506 373.863C259.701 373.241 261.896 372.611 264.194 372.143C262.226 373.365 260.199 374.441 258.172 375.524C257.152 376.06 256.13 376.58 255.106 377.082C254.096 377.587 253.035 378.114 251.923 378.546C249.706 379.448 247.393 380.094 245.029 380.47C243.842 380.661 242.645 380.785 241.444 380.844C240.185 380.888 239.19 380.844 238.092 380.968C233.741 381.293 229.473 382.326 225.455 384.027C223.395 384.875 221.391 385.853 219.454 386.954C217.435 388.095 215.43 389.215 213.322 390.203Z" fill="#0084B2"/>
<path d="M147.244 391.191C146.871 394.637 155.03 397.681 168.641 398.625C186.042 399.826 205.653 397.162 212.546 392.618C214.259 391.498 215.027 390.371 214.961 389.288V320.269L147.244 322.171V391.191Z" fill="#F9F9F9"/>
<path d="M177.085 399.452C174.239 399.452 171.4 399.364 168.612 399.167C157.782 398.435 149.893 396.24 147.508 393.422C147.227 393.12 147.011 392.764 146.874 392.375C146.737 391.986 146.681 391.573 146.71 391.161V322.171C146.71 322.028 146.766 321.891 146.866 321.788C146.965 321.686 147.101 321.626 147.244 321.622L214.954 319.72C215.028 319.713 215.103 319.723 215.173 319.75C215.243 319.777 215.305 319.819 215.356 319.873C215.409 319.925 215.451 319.986 215.48 320.054C215.509 320.122 215.524 320.195 215.525 320.269V389.295C215.613 390.591 214.712 391.871 212.861 393.086C206.978 396.913 192.021 399.452 177.085 399.452ZM147.815 322.705V391.256C147.8 391.525 147.84 391.793 147.933 392.045C148.026 392.297 148.17 392.527 148.357 392.72C150.515 395.303 158.316 397.359 168.7 398.076C185.903 399.262 205.448 396.613 212.268 392.156C213.3 391.483 214.508 390.451 214.464 389.325V320.832L147.815 322.705Z" fill="#444444"/>
<path d="M79.6592 325.742L224.73 338.965L281.807 297.123L140.71 289.835L79.6592 325.742Z" fill="#F9F9F9"/>
<path d="M224.73 339.536H224.65L79.6078 326.284C79.493 326.272 79.3847 326.225 79.2984 326.148C79.212 326.072 79.1521 325.97 79.1269 325.857C79.1018 325.744 79.1128 325.627 79.1584 325.521C79.2041 325.415 79.2819 325.326 79.381 325.267L140.432 289.366C140.524 289.31 140.631 289.284 140.739 289.293L281.837 296.611C281.95 296.619 282.058 296.661 282.146 296.732C282.235 296.802 282.301 296.898 282.334 297.006C282.366 297.115 282.364 297.231 282.327 297.339C282.29 297.446 282.221 297.54 282.129 297.606L225.052 339.448C224.956 339.509 224.844 339.54 224.73 339.536V339.536ZM81.408 325.347L224.569 338.402L280.263 297.591L140.863 290.398L81.408 325.347Z" fill="#444444"/>
<path d="M211.207 314.773C204.314 319.281 184.703 321.981 167.302 320.781C153.691 319.837 145.539 316.793 145.913 313.346C146.022 312.344 146.857 311.312 148.481 310.28C155.66 305.743 175.556 303.131 192.782 304.426C205.588 305.377 213.41 308.217 213.622 311.458C213.674 312.527 212.942 313.654 211.207 314.773Z" fill="#CCCCCC"/>
<path d="M175.732 321.615C172.885 321.615 170.039 321.52 167.258 321.33C156.428 320.598 148.532 318.403 146.154 315.578C145.868 315.274 145.65 314.912 145.514 314.517C145.378 314.123 145.327 313.704 145.364 313.288C145.495 312.088 146.439 310.917 148.181 309.819C155.411 305.246 175.432 302.575 192.818 303.863C205.741 304.821 213.922 307.712 214.171 311.407C214.259 312.739 213.366 314.027 211.515 315.234C205.624 319.047 190.682 321.615 175.732 321.615ZM183.671 304.631C169.102 304.631 154.584 307.046 148.737 310.741C147.318 311.641 146.542 312.563 146.425 313.405C146.409 313.673 146.449 313.941 146.542 314.193C146.636 314.445 146.78 314.675 146.966 314.868C149.162 317.459 156.926 319.508 167.309 320.225C184.513 321.41 204.058 318.761 210.878 314.312C211.903 313.639 213.117 312.6 213.073 311.473C212.905 309.051 206.488 305.97 192.73 304.953C189.774 304.741 186.737 304.631 183.671 304.631Z" fill="#444444"/>
<path d="M156.552 307.214L146.308 314.378C146.493 314.833 146.775 315.243 147.135 315.578L160.445 306.307C159.055 306.607 157.767 306.892 156.552 307.214Z" fill="#BFBFBF"/>
<path d="M170.909 304.755L151.774 318.095C152.323 318.286 152.915 318.469 153.537 318.644L173.836 304.499C172.849 304.572 171.875 304.66 170.909 304.755Z" fill="#BFBFBF"/>
<path d="M182.647 304.126L159.896 319.983C160.584 320.086 161.294 320.188 162.026 320.276L185.208 304.126H182.647Z" fill="#BFBFBF"/>
<path d="M193.023 304.411L169.373 320.891C170.178 320.934 170.983 320.971 171.788 320.993L195.307 304.609C194.56 304.555 193.799 304.489 193.023 304.411Z" fill="#BFBFBF"/>
<path d="M202.207 305.59L180.013 321.037C180.92 321.037 181.827 320.971 182.728 320.927L204.161 305.992C203.553 305.875 202.895 305.721 202.207 305.59Z" fill="#BFBFBF"/>
<path d="M209.898 307.778L192.204 320.108C193.294 319.969 194.362 319.822 195.409 319.654L211.383 308.524C210.902 308.247 210.406 307.998 209.898 307.778Z" fill="#BFBFBF"/>
<path d="M213.52 312.797L208.397 316.346C209.471 315.93 210.502 315.413 211.478 314.802C212.309 314.306 213.009 313.619 213.52 312.797V312.797Z" fill="#BFBFBF"/>
<path d="M175.732 321.615C172.885 321.615 170.039 321.52 167.258 321.33C156.428 320.598 148.532 318.403 146.154 315.578C145.868 315.274 145.65 314.912 145.514 314.517C145.378 314.123 145.327 313.704 145.364 313.288C145.495 312.088 146.439 310.917 148.181 309.819C155.411 305.246 175.432 302.575 192.818 303.863C205.741 304.821 213.922 307.712 214.171 311.407C214.259 312.739 213.366 314.027 211.515 315.234C205.624 319.047 190.682 321.615 175.732 321.615ZM183.671 304.631C169.102 304.631 154.584 307.046 148.737 310.741C147.318 311.641 146.542 312.563 146.425 313.405C146.409 313.673 146.449 313.941 146.542 314.193C146.636 314.445 146.78 314.675 146.966 314.868C149.162 317.459 156.926 319.508 167.309 320.225C184.513 321.41 204.058 318.761 210.878 314.312C211.903 313.639 213.117 312.6 213.073 311.473C212.905 309.051 206.488 305.97 192.73 304.953C189.774 304.741 186.737 304.631 183.671 304.631Z" fill="#444444"/>
<path d="M282.166 297.27L139.839 280.951L140.571 123.689L281.251 132.522L282.166 297.27Z" fill="#CCCCCC"/>
<path d="M282.166 297.826H282.107L139.766 281.5C139.632 281.483 139.51 281.417 139.421 281.316C139.333 281.215 139.283 281.086 139.283 280.951L140.014 123.682C140.015 123.608 140.032 123.534 140.062 123.466C140.092 123.398 140.136 123.337 140.19 123.287C140.245 123.236 140.31 123.197 140.38 123.172C140.45 123.147 140.525 123.136 140.6 123.14L281.288 131.973C281.427 131.982 281.557 132.044 281.652 132.146C281.748 132.248 281.8 132.382 281.8 132.522L282.715 297.27C282.715 297.347 282.699 297.423 282.667 297.494C282.635 297.565 282.589 297.628 282.532 297.679C282.434 297.774 282.302 297.827 282.166 297.826V297.826ZM140.388 280.461L281.617 296.655L280.702 133.041L141.119 124.26L140.388 280.461Z" fill="#444444"/>
<path d="M144.09 124.582L140.783 126.66V128.438L146.454 124.713L144.09 124.582Z" fill="#BFBFBF"/>
<path d="M154.094 125.153L140.051 134.936V136.722L156.457 125.284L154.094 125.153Z" fill="#BFBFBF"/>
<path d="M164.097 125.723L140.051 142.481V144.266L166.468 125.862L164.097 125.723Z" fill="#BFBFBF"/>
<path d="M174.107 126.302L140.051 150.032V151.811L176.471 126.433L174.107 126.302Z" fill="#BFBFBF"/>
<path d="M184.118 126.872L140.051 157.577V159.362L186.481 127.004L184.118 126.872Z" fill="#BFBFBF"/>
<path d="M194.121 127.443L140.051 165.121V166.907L196.484 127.582L194.121 127.443Z" fill="#BFBFBF"/>
<path d="M204.131 128.021L140.051 172.666V174.451L206.495 128.153L204.131 128.021Z" fill="#BFBFBF"/>
<path d="M214.134 128.592L140.051 180.217V182.003L216.498 128.731L214.134 128.592Z" fill="#BFBFBF"/>
<path d="M224.145 129.163L140.051 187.762V189.547L226.508 129.302L224.145 129.163Z" fill="#BFBFBF"/>
<path d="M234.148 129.741L140.051 195.306V197.092L236.512 129.872L234.148 129.741Z" fill="#BFBFBF"/>
<path d="M244.159 130.312L140.051 202.858V204.636L246.522 130.451L244.159 130.312Z" fill="#BFBFBF"/>
<path d="M254.162 130.89L140.051 210.403V212.188L256.525 131.021L254.162 130.89Z" fill="#BFBFBF"/>
<path d="M264.172 131.46L140.051 217.947V219.732L266.536 131.599L264.172 131.46Z" fill="#BFBFBF"/>
<path d="M274.175 132.031L140.051 225.499V227.277L276.539 132.17L274.175 132.031Z" fill="#BFBFBF"/>
<path d="M281.464 134.504L140.051 233.043V234.828L281.464 136.283V134.504Z" fill="#BFBFBF"/>
<path d="M281.464 142.049L140.051 240.587V242.373L281.464 143.834V142.049Z" fill="#BFBFBF"/>
<path d="M281.464 149.593L140.051 248.139V249.917L281.464 151.379V149.593Z" fill="#BFBFBF"/>
<path d="M281.464 157.138L140.051 255.684V257.469L281.464 158.923V157.138Z" fill="#BFBFBF"/>
<path d="M281.464 164.689L140.051 263.228V265.014L281.464 166.468V164.689Z" fill="#BFBFBF"/>
<path d="M281.464 172.234L140.051 270.78V272.558L281.464 174.019V172.234Z" fill="#BFBFBF"/>
<path d="M281.464 179.778L140.051 278.324V280.11L281.464 181.564V179.778Z" fill="#BFBFBF"/>
<path d="M281.464 187.33L145.913 281.785L148.005 282.115L281.464 189.108V187.33Z" fill="#BFBFBF"/>
<path d="M281.464 194.86L154.752 283.161L156.867 283.483L281.464 196.66V194.86Z" fill="#BFBFBF"/>
<path d="M281.463 202.404L163.614 284.53L165.729 284.859L281.463 204.204V202.404Z" fill="#BFBFBF"/>
<path d="M281.464 209.949L172.476 285.905L174.568 286.227L281.464 211.734V209.949Z" fill="#BFBFBF"/>
<path d="M281.463 217.5L181.337 287.274L183.43 287.603L281.463 219.279V217.5Z" fill="#BFBFBF"/>
<path d="M281.464 225.045L190.191 288.649L192.284 288.971L281.464 226.83V225.045Z" fill="#BFBFBF"/>
<path d="M281.463 232.589L199.053 290.018L201.146 290.347L281.463 234.375V232.589Z" fill="#BFBFBF"/>
<path d="M281.464 240.141L207.915 291.393L210.007 291.715L281.464 241.919V240.141Z" fill="#BFBFBF"/>
<path d="M281.463 247.686L216.776 292.769L218.869 293.091L281.463 249.471V247.686Z" fill="#BFBFBF"/>
<path d="M281.464 255.23L225.638 294.138L227.731 294.46L281.464 257.015V255.23Z" fill="#BFBFBF"/>
<path d="M281.463 262.782L234.492 295.513L236.585 295.835L281.463 264.56V262.782Z" fill="#BFBFBF"/>
<path d="M281.463 270.326L243.354 296.882L245.446 297.211L281.463 272.112V270.326Z" fill="#BFBFBF"/>
<path d="M281.464 277.871L252.215 298.257L254.308 298.579L281.464 279.656V277.871Z" fill="#BFBFBF"/>
<path d="M281.463 285.422L261.077 299.626L263.17 299.955L281.463 287.201V285.422Z" fill="#BFBFBF"/>
<path d="M281.464 292.967L269.938 301.001L272.031 301.323L281.464 294.752V292.967Z" fill="#BFBFBF"/>
<path d="M282.166 297.27L282.195 295.389L279.524 297.255L281.617 297.577L282.166 297.27Z" fill="#BFBFBF"/>
<path d="M282.166 297.826H282.107L139.766 281.5C139.632 281.483 139.51 281.417 139.421 281.316C139.333 281.215 139.283 281.086 139.283 280.951L140.014 123.682C140.015 123.608 140.032 123.534 140.062 123.466C140.092 123.398 140.136 123.337 140.19 123.287C140.245 123.236 140.31 123.197 140.38 123.172C140.45 123.147 140.525 123.136 140.6 123.14L281.288 131.973C281.427 131.982 281.557 132.044 281.652 132.146C281.748 132.248 281.8 132.382 281.8 132.522L282.715 297.27C282.715 297.347 282.699 297.423 282.667 297.494C282.635 297.565 282.589 297.628 282.532 297.679C282.434 297.774 282.302 297.827 282.166 297.826V297.826ZM140.388 280.461L281.617 296.655L280.702 133.041L141.119 124.26L140.388 280.461Z" fill="#444444"/>
<path d="M282.166 297.269L225.162 354.712V172.395L282.239 132.126L282.166 297.269Z" fill="#CCCCCC"/>
<path d="M225.162 355.261C225.092 355.26 225.023 355.248 224.957 355.225C224.856 355.183 224.769 355.112 224.708 355.021C224.646 354.93 224.614 354.822 224.613 354.713V172.395C224.614 172.307 224.635 172.221 224.676 172.143C224.717 172.066 224.776 171.999 224.847 171.949L281.925 131.702C282.007 131.644 282.104 131.61 282.204 131.604C282.305 131.598 282.405 131.619 282.495 131.666C282.584 131.713 282.658 131.783 282.71 131.87C282.762 131.956 282.789 132.055 282.788 132.156L282.715 297.299C282.715 297.444 282.657 297.584 282.554 297.687L225.55 355.13C225.498 355.177 225.436 355.213 225.37 355.235C225.303 355.258 225.232 355.267 225.162 355.261V355.261ZM225.711 172.695V353.381L281.617 297.035L281.727 133.18L225.711 172.695Z" fill="#444444"/>
<path d="M225.162 354.713L79.3592 333.543L79.2202 159.201L225.162 172.717V354.713Z" fill="#F9F9F9"/>
<path d="M225.162 355.261H225.082L79.2787 334.084C79.1494 334.063 79.0315 333.998 78.9459 333.899C78.8602 333.8 78.8122 333.674 78.8104 333.543L78.6714 159.201C78.6722 159.124 78.6888 159.048 78.7203 158.977C78.7518 158.907 78.7974 158.844 78.8543 158.791C78.9103 158.74 78.9763 158.702 79.0481 158.678C79.12 158.654 79.196 158.645 79.2714 158.652L225.213 172.175C225.35 172.186 225.478 172.249 225.571 172.351C225.663 172.453 225.713 172.587 225.711 172.724V354.712C225.712 354.792 225.696 354.87 225.663 354.942C225.63 355.015 225.581 355.078 225.521 355.13C225.422 355.217 225.294 355.264 225.162 355.261ZM79.9081 333.067L224.65 354.083V173.222L79.7617 159.801L79.9081 333.067Z" fill="#444444"/>
<path d="M197.165 261.282V250.027H200.831V253.693H209.21V257.615H200.831V261.282H197.165Z" fill="#99C6D6"/>
<path d="M197.297 216.125V219.528V223.457H209.334V219.528H201.226V216.125H209.334V212.203H201.226H197.297V216.125Z" fill="#99C6D6"/>
<path d="M202.009 187.33L197.297 183.927V188.377L202.009 191.779V192.306H197.297V196.228H209.334V192.306H204.885V191.26L209.334 189.167V184.454L203.319 188.113L202.009 187.33Z" fill="#99C6D6"/>
<path d="M197.297 202.251V205.909L209.334 211.149V206.956L207.241 206.436V201.965L209.334 201.182V196.997L197.297 202.251ZM204.366 205.397L201.234 204.087L204.38 203.041L204.366 205.397Z" fill="#99C6D6"/>
<path d="M197.297 241.78V245.439L209.334 250.671V246.485L207.241 245.959V241.509L209.334 240.726V236.541L197.297 241.78ZM204.366 244.919L201.219 243.61L204.366 242.563V244.919Z" fill="#99C6D6"/>
<path d="M197.297 229.077V235.494H209.334V231.572H206.451V229.077C206.451 228.476 206.333 227.88 206.102 227.325C205.872 226.77 205.535 226.265 205.109 225.84C204.684 225.416 204.179 225.079 203.623 224.849C203.067 224.62 202.472 224.502 201.87 224.503V224.503C201.27 224.503 200.675 224.622 200.12 224.852C199.565 225.081 199.061 225.418 198.636 225.843C198.212 226.268 197.875 226.772 197.645 227.327C197.415 227.882 197.297 228.476 197.297 229.077V229.077ZM203.319 229.845V231.572H200.502V229.845C200.502 229.469 200.652 229.108 200.918 228.841C201.184 228.575 201.545 228.426 201.922 228.426C202.298 228.426 202.659 228.575 202.925 228.841C203.192 229.108 203.341 229.469 203.341 229.845H203.319Z" fill="#99C6D6"/>
<path d="M138.427 97.4776L153.867 93.8188C153.867 93.8188 161.916 131.87 192.833 114.308C223.75 96.7459 200.151 147.969 200.151 147.969C200.151 147.969 132.514 153.091 130.312 153.091C128.109 153.091 97.9605 147.969 102.373 142.847C106.785 137.724 123.696 114.308 125.899 112.113C128.102 109.918 138.427 97.4776 138.427 97.4776Z" fill="#CCCCCC"/>
<path d="M130.341 153.669C128.511 153.669 103.829 149.615 101.605 144.756C101.431 144.389 101.375 143.977 101.443 143.577C101.511 143.176 101.7 142.807 101.985 142.517C104.18 139.949 109.53 132.814 114.681 125.906C119.833 118.999 124.421 112.874 125.54 111.754C127.736 109.603 137.9 97.2799 137.98 97.1189C138.06 97.0297 138.165 96.9661 138.28 96.936L153.72 93.2772C153.864 93.2464 154.013 93.2727 154.138 93.3504C154.199 93.3896 154.253 93.4409 154.294 93.5012C154.336 93.5616 154.365 93.6298 154.379 93.7016C154.416 93.8773 158.287 111.432 170.266 116.811C176.581 119.642 184.074 118.64 192.54 113.825C199.646 109.786 204.402 109.01 207.08 111.469C214.347 118.135 201.226 146.966 200.663 148.196C200.619 148.283 200.554 148.358 200.473 148.413C200.393 148.468 200.299 148.502 200.202 148.51C197.465 148.73 132.543 153.669 130.341 153.669ZM138.734 97.9971C137.527 99.4606 128.416 110.437 126.294 112.53C125.233 113.591 120.521 119.891 115.545 126.565C110.378 133.487 105.037 140.637 102.797 143.234C102.65 143.365 102.549 143.539 102.509 143.732C102.47 143.925 102.494 144.125 102.578 144.303C104.444 148.371 127.663 152.572 130.319 152.572C132.397 152.572 194.714 147.859 199.792 147.449C201.175 144.361 212.656 118.084 206.334 112.288C204.087 110.225 199.624 111.066 193.082 114.784C184.301 119.781 176.464 120.806 169.812 117.82C158.396 112.698 154.196 97.6092 153.435 94.4846L138.734 97.9971Z" fill="#444444"/>
<path d="M143 96.2702L133.297 103.002C132.112 104.415 130.838 105.929 129.638 107.312L146.893 95.3481L143 96.2702Z" fill="#BFBFBF"/>
<path d="M153.977 96.2043L118.787 120.616L116.006 124.326L154.438 97.6679C154.262 97.1337 154.109 96.6434 153.977 96.2043Z" fill="#BFBFBF"/>
<path d="M156.201 102.212L106.998 136.341C105.915 137.761 104.92 139.063 104.071 140.161L156.845 103.573C156.596 103.105 156.399 102.651 156.201 102.212Z" fill="#BFBFBF"/>
<path d="M159.143 107.715L103.529 146.293C104.002 146.577 104.49 146.834 104.993 147.062L159.97 108.93C159.677 108.527 159.406 108.125 159.143 107.715Z" fill="#BFBFBF"/>
<path d="M162.97 112.61L110.422 149.059L112.23 149.586L164.046 113.649C163.672 113.313 163.314 112.969 162.97 112.61Z" fill="#BFBFBF"/>
<path d="M168.107 116.598L118.347 151.093C119.013 151.247 119.672 151.386 120.308 151.518L169.578 117.345C169.08 117.118 168.59 116.862 168.107 116.598Z" fill="#BFBFBF"/>
<path d="M175.695 118.874L126.894 152.725C127.779 152.864 128.504 152.967 129.031 153.025L178.212 118.918C177.373 118.955 176.532 118.94 175.695 118.874V118.874Z" fill="#BFBFBF"/>
<path d="M195.65 112.581L138.017 152.557L140.886 152.352L200.743 110.832C198.981 111.206 197.271 111.793 195.65 112.581V112.581Z" fill="#BFBFBF"/>
<path d="M206.707 112.442L150.142 151.671L153.069 151.459L207.483 113.722C207.283 113.262 207.023 112.832 206.707 112.442V112.442Z" fill="#BFBFBF"/>
<path d="M208.229 118.933L162.326 150.742L165.253 150.53L208.134 120.791C208.171 120.169 208.215 119.54 208.229 118.933Z" fill="#BFBFBF"/>
<path d="M206.949 127.37L174.517 149.864L177.4 149.645L206.392 129.521C206.59 128.789 206.78 128.058 206.949 127.37Z" fill="#BFBFBF"/>
<path d="M204.073 136.912L186.715 148.949L189.642 148.73L203.246 139.29C203.495 138.529 203.787 137.731 204.073 136.912Z" fill="#BFBFBF"/>
<path d="M199.953 147.318L198.929 148.049L199.66 147.991C199.66 147.991 199.77 147.735 199.953 147.318Z" fill="#BFBFBF"/>
<path d="M130.341 153.669C128.511 153.669 103.829 149.615 101.605 144.756C101.431 144.389 101.375 143.977 101.443 143.577C101.511 143.176 101.7 142.807 101.985 142.517C104.18 139.949 109.53 132.814 114.681 125.906C119.833 118.999 124.421 112.874 125.54 111.754C127.736 109.603 137.9 97.2799 137.98 97.1189C138.06 97.0297 138.165 96.9661 138.28 96.936L153.72 93.2772C153.864 93.2464 154.013 93.2727 154.138 93.3504C154.199 93.3896 154.253 93.4409 154.294 93.5012C154.336 93.5616 154.365 93.6298 154.379 93.7016C154.416 93.8773 158.287 111.432 170.266 116.811C176.581 119.642 184.074 118.64 192.54 113.825C199.646 109.786 204.402 109.01 207.08 111.469C214.347 118.135 201.226 146.966 200.663 148.196C200.619 148.283 200.554 148.358 200.473 148.413C200.393 148.468 200.299 148.502 200.202 148.51C197.465 148.73 132.543 153.669 130.341 153.669ZM138.734 97.9971C137.527 99.4606 128.416 110.437 126.294 112.53C125.233 113.591 120.521 119.891 115.545 126.565C110.378 133.487 105.037 140.637 102.797 143.234C102.65 143.365 102.549 143.539 102.509 143.732C102.47 143.925 102.494 144.125 102.578 144.303C104.444 148.371 127.663 152.572 130.319 152.572C132.397 152.572 194.714 147.859 199.792 147.449C201.175 144.361 212.656 118.084 206.334 112.288C204.087 110.225 199.624 111.066 193.082 114.784C184.301 119.781 176.464 120.806 169.812 117.82C158.396 112.698 154.196 97.6092 153.435 94.4846L138.734 97.9971Z" fill="#444444"/>
<path d="M174.934 73.2638C174.934 73.2638 197.919 79.0593 205.449 96.8703L222.118 91.4699C222.118 91.4699 212.561 80.1496 201.007 73.5638C196.534 71.0403 191.382 69.9809 186.276 70.5343L167.507 72.4442C167.507 72.4442 172.161 72.854 174.934 73.2638Z" fill="#2CC8FF"/>
<path d="M153.589 93.504L136.985 97.2506C136.985 97.2506 157.475 73.4538 177.913 77.2443C177.913 77.2443 158.06 76.8345 153.589 93.504Z" fill="#0084B2"/>
<path d="M129.045 95.1797L137.57 97.2506C137.57 97.2506 176.668 50.2571 200.45 99.7605C200.45 99.7605 202.99 95.9188 205.829 96.8335C208.668 97.7482 175.819 42.537 129.045 95.1797Z" fill="#00A5EB"/>
<path d="M224.65 172.871C225.704 143.659 229.143 123.257 209.334 98.1801C206.473 94.5579 200.019 97.5581 200.129 102.146C200.129 103.573 195.738 159.062 154.657 147.515C137.571 142.693 131.651 115.406 137.571 98.5313L137.615 98.3996C139.151 94.0529 134.402 91.8138 130.165 94.8506C115.611 105.242 94.9676 126.587 81.8692 153.274C80.9911 155.06 80.0471 157.365 79.2056 159.201L224.65 172.871Z" fill="#F9F9F9"/>
<path d="M224.65 173.427H224.599L79.1691 159.743C79.0817 159.736 78.9974 159.707 78.9235 159.66C78.8496 159.613 78.7882 159.548 78.7447 159.472C78.7048 159.394 78.6841 159.307 78.6841 159.22C78.6841 159.132 78.7048 159.045 78.7447 158.967C79.074 158.236 79.4252 157.453 79.7765 156.64C80.318 155.404 80.8741 154.123 81.4083 153.033C94.7775 125.745 115.859 104.393 129.851 94.4042C132.302 92.6553 135.178 92.4065 137.007 93.7896C138.405 94.8433 138.829 96.6361 138.142 98.5826L138.098 98.7143C134.344 109.427 135.485 124.136 140.871 134.49C144.288 141.076 149.111 145.371 154.774 146.974C165.421 149.974 174.532 148.635 181.769 143.008C197.619 130.714 199.551 102.424 199.543 102.161C199.47 99.2338 201.636 97.1849 203.809 96.4019C204.823 95.9792 205.945 95.8933 207.011 96.1568C208.077 96.4203 209.03 97.0193 209.729 97.8655C227.555 120.44 226.67 139.576 225.55 163.877C225.418 166.804 225.279 169.812 225.162 172.922C225.161 172.996 225.143 173.068 225.112 173.135C225.08 173.202 225.035 173.262 224.979 173.31C224.885 173.383 224.769 173.424 224.65 173.427V173.427ZM80.0399 158.726L224.094 172.271C224.204 169.344 224.335 166.541 224.46 163.797C225.616 138.815 226.443 120.769 208.873 98.5167C207.805 97.163 206.056 96.7605 204.19 97.4337C202.448 98.063 200.59 99.8046 200.648 102.132C200.648 102.402 198.709 131.248 182.464 143.842C174.905 149.696 165.495 151.108 154.482 148.006C148.489 146.322 143.439 141.815 139.847 134.973C134.366 124.399 133.18 109.325 137.037 98.3484L137.088 98.2167C137.615 96.7532 137.337 95.4287 136.356 94.6677C135.185 93.7896 132.858 93.6139 130.502 95.297C116.599 105.212 95.6849 126.411 82.4108 153.516C81.8912 154.584 81.3351 155.85 80.8009 157.079L80.0399 158.726Z" fill="#444444"/>
<path d="M205.976 96.5922L222.118 91.4187C222.118 91.4187 251.886 96.841 282.239 132.148L224.709 172.959C224.709 172.959 229.041 112.779 205.976 96.5922Z" fill="#E8E8E8"/>
<path d="M224.708 173.485C224.613 173.484 224.52 173.458 224.437 173.412C224.347 173.36 224.273 173.284 224.224 173.192C224.175 173.1 224.152 172.997 224.159 172.893C224.203 172.293 228.235 112.888 205.661 97.0239C205.575 96.9662 205.509 96.8851 205.468 96.7903C205.428 96.6955 205.416 96.5911 205.434 96.4897C205.449 96.3891 205.492 96.2948 205.558 96.2173C205.624 96.1397 205.71 96.082 205.807 96.0507L221.95 90.8771C222.035 90.8515 222.127 90.8515 222.213 90.8771C222.513 90.9284 252.53 96.7312 282.656 131.782C282.707 131.84 282.745 131.907 282.768 131.98C282.791 132.053 282.799 132.13 282.79 132.206C282.781 132.282 282.756 132.356 282.716 132.421C282.677 132.487 282.624 132.544 282.561 132.587L225.023 173.398C224.929 173.458 224.82 173.488 224.708 173.485ZM207.146 96.7678C227.826 112.691 225.821 163.27 225.33 171.817L281.434 132.024C252.698 98.846 224.313 92.4138 222.162 91.9674L207.146 96.7678Z" fill="#444444"/>
<path d="M239.636 137.029C239.5 137.03 239.369 136.98 239.268 136.89C239.166 136.799 239.102 136.674 239.087 136.539C235.429 102.146 209.473 96.0872 209.217 96.036C209.146 96.0204 209.079 95.991 209.02 95.9494C208.961 95.9078 208.91 95.8548 208.871 95.7936C208.833 95.7323 208.806 95.664 208.794 95.5926C208.782 95.5212 208.784 95.448 208.8 95.3774C208.815 95.3069 208.843 95.24 208.884 95.1807C208.925 95.1214 208.977 95.0709 209.038 95.032C209.099 94.9932 209.166 94.9668 209.237 94.9545C209.308 94.9422 209.381 94.9442 209.451 94.9603C209.722 95.0188 236.402 101.246 240.185 136.422C240.202 136.566 240.16 136.711 240.069 136.825C239.979 136.939 239.847 137.013 239.702 137.029H239.636Z" fill="#444444"/>
<path d="M257.974 125.365C257.87 125.364 257.768 125.334 257.68 125.279C257.592 125.223 257.522 125.144 257.477 125.05C243.793 96.7018 217.062 93.665 216.791 93.6357C216.646 93.6209 216.514 93.5495 216.422 93.437C216.33 93.3245 216.286 93.1802 216.301 93.0357C216.307 92.9638 216.328 92.8939 216.361 92.83C216.395 92.7662 216.441 92.7098 216.497 92.6642C216.553 92.6185 216.618 92.5844 216.687 92.564C216.756 92.5437 216.829 92.5373 216.901 92.5454C217.179 92.5454 244.502 95.6554 258.464 124.574C258.497 124.639 258.515 124.71 258.52 124.782C258.524 124.854 258.514 124.926 258.491 124.994C258.467 125.063 258.43 125.125 258.381 125.179C258.333 125.232 258.274 125.276 258.208 125.306C258.136 125.344 258.056 125.364 257.974 125.365V125.365Z" fill="#444444"/>
<path d="M143.79 121.955C143.692 121.956 143.594 121.93 143.509 121.879C143.424 121.829 143.354 121.756 143.307 121.669C137.022 110.115 141.522 96.7091 141.566 96.5774C141.589 96.5055 141.627 96.4392 141.678 96.3827C141.728 96.3263 141.79 96.2808 141.858 96.2492C141.927 96.2176 142.001 96.2005 142.077 96.1991C142.153 96.1976 142.228 96.2118 142.298 96.2408C142.366 96.2638 142.429 96.3001 142.483 96.3477C142.536 96.3953 142.58 96.4531 142.612 96.5178C142.643 96.5825 142.661 96.6528 142.665 96.7246C142.669 96.7964 142.658 96.8682 142.634 96.9359C142.59 97.0677 138.244 110.02 144.303 121.142C144.366 121.27 144.378 121.417 144.335 121.554C144.293 121.69 144.2 121.805 144.076 121.874C143.99 121.927 143.891 121.955 143.79 121.955Z" fill="#444444"/>
<path d="M153.618 114.996C153.473 114.993 153.335 114.935 153.23 114.835C145.539 107.181 148.108 95.692 148.218 95.209C148.233 95.1383 148.263 95.0713 148.304 95.0119C148.346 94.9525 148.399 94.902 148.46 94.8632C148.521 94.8245 148.59 94.7982 148.661 94.786C148.732 94.7737 148.806 94.7757 148.876 94.7919C149.017 94.8267 149.138 94.915 149.215 95.038C149.291 95.161 149.317 95.309 149.286 95.4505C149.286 95.5676 146.754 106.837 154.006 114.059C154.109 114.162 154.166 114.302 154.166 114.447C154.166 114.592 154.109 114.732 154.006 114.835C153.902 114.936 153.763 114.994 153.618 114.996V114.996Z" fill="#444444"/>
</svg>
