<svg xmlns="http://www.w3.org/2000/svg" height="177.81" width="278.94" version="1.1" data-name="Слой 1" id="Слой_1"><defs id="defs1167"><style id="style1165">.cls-1{fill:#4fa3e8}.cls-2{fill:#e8e8e8}.cls-3{fill:#444}.cls-4{fill:#bfbfbf}</style></defs><path id="path1171" d="M213.09 62.55a6.5 6.5 0 01-6.32-5c-2.64-11-13.64-40.47-32.55-44.14-16.44-3.2-37.77 12.85-61.66 46.4a6.5 6.5 0 11-10.59-7.53C129.49 13.7 154.6-3.67 176.73.65c31 6.05 42.23 52 42.69 53.9a6.51 6.51 0 01-6.33 8z" class="cls-1"/><path id="path1173" d="M105.01 47.67c1.31-1.07 6-4.86 7.41-5.91a4.89 4.89 0 011.94-.86 8.6 8.6 0 015.22.6c1.67.77 3.39 1.26 2.88 3.43a.22.22 0 010 .08l-.5 2c-7.17 30.5 4.95 65.76 26.65 64.29 7.67-.52 16.35-5.46 24.73-13.1a103.86 103.86 0 009.15-9.58c10.39-12.22 19.48-27.86 24.39-43.08a8.87 8.87 0 013.89-4.26 18.31 18.31 0 011.7-1 15.59 15.59 0 015.72 2.23c15.65 10.55 56.08 70.75 59.46 79.86l-95.45-5-123.46-6.3s16.23-38.8 46.27-63.4z" class="cls-2"/><path id="path1175" d="M277.68 123.17l-95.45-5-123.46-6.3a.75.75 0 01-.6-.35.73.73 0 010-.7c.16-.38 16.62-39.34 46.45-63.78 1.3-1.06 6.05-4.87 7.43-5.92a5.69 5.69 0 012.23-1 9.36 9.36 0 015.7.65l.48.22c1.52.66 3.42 1.49 2.82 4.06l-.51 2.06c-4.76 20.24-.86 43.6 9.27 55.54 4.7 5.54 10.46 8.25 16.6 7.83 7.13-.48 15.53-4.94 24.27-12.9a103.07 103.07 0 009.13-9.5c10.58-12.5 19.45-28.06 24.15-42.77a9.54 9.54 0 014.2-4.66c.51-.32 1.09-.65 1.77-1a.73.73 0 01.48-.07 16.26 16.26 0 016 2.35c15.87 10.69 56.15 70.5 59.76 80.22a.78.78 0 01-.1.7.76.76 0 01-.62.32zm-217.79-/Users/gennadiy/Desktop/tarpak/source/img/constructor/1-2.svg12.7l122.38 6.25 94.22 4.89c-5.66-12.2-44.07-68.54-58.73-78.42a14.41 14.41 0 00-5.19-2.07 15.76 15.76 0 00-1.41.8 8.2 8.2 0 00-3.58 3.85c-4.79 14.85-13.73 30.64-24.53 43.34a105.89 105.89 0 01-9.26 9.64c-9 8.18-17.7 12.78-25.18 13.28-6.65.45-12.82-2.44-17.84-8.36-10.58-12.47-14.52-35.85-9.59-56.85l.5-2c.3-1.3-.26-1.67-1.95-2.41l-.5-.22a7.89 7.89 0 00-4.75-.56 4.3 4.3 0 00-1.65.73c-1.37 1-6.1 4.84-7.39 5.89-26.86 22.04-42.79 56.04-45.55 62.23z" class="cls-3"/><path id="path1177" d="M119.72 42.02a8.89 8.89 0 00-1-.38l-25.67 17.9q-3 3.18-5.71 6.44l33.57-23.44a6.73 6.73 0 00-1.19-.52z" class="cls-4"/><path id="path1179" d="M121.57 49.9l-46.5 32.46q-1.5 2.25-2.87 4.43l48.87-34.1c.15-.94.31-1.87.5-2.8z" class="cls-4"/><path id="path1181" d="M120.15 61.2l-55.59 38.82c-.73 1.37-1.39 2.65-2 3.82l57.48-40.12.11-2.52z" class="cls-4"/><path id="path1183" d="M120.25 71.44L62.42 111.8l3.25.17 54.82-38.24c-.12-.72-.18-1.53-.24-2.3z" class="cls-4"/><path id="path1185" d="M121.49 80.87l-45.3 31.64 3.25.17 42.54-29.66-.49-2.15z" class="cls-4"/><path id="path1187" d="M123.85 89.56l-33.89 23.66 3.25.16 31.35-21.88c-.25-.64-.48-1.3-.71-1.94z" class="cls-4"/><path id="path1189" d="M127.32 97.45l-23.59 16.47 3.25.16 21.35-14.9c-.34-.56-.68-1.16-1.01-1.73z" class="cls-4"/><path id="path1191" d="M219.21 43.63L204 54.23c-.49 1.18-1 2.35-1.51 3.5l18.35-12.81c-.56-.47-1.11-.9-1.63-1.3z" class="cls-4"/><path id="path1193" d="M132.18 104.37l-14.69 10.25 3.25.17 12.84-9c-.47-.43-.94-.91-1.4-1.42z" class="cls-4"/><path id="path1195" d="M225.67 49.43l-29.59 20.66c-.84 1.42-1.7 2.84-2.58 4.23l33.58-23.44z" class="cls-4"/><path id="path1197" d="M131.27 115.32l3.25.17 6.81-4.76a17.86 17.86 0 01-2.17-.92z" class="cls-4"/><path id="path1199" d="M231.49 55.69l-50.37 35.15a99.39 99.39 0 01-7.5 7.67l59.19-41.31z" class="cls-4"/><path id="path1201" d="M145.03 116.02l3.26.16 10.37-7.24a31.42 31.42 0 01-6.88 2.37z" class="cls-4"/><path id="path1203" d="M236.99 62.15l-78.19 54.58 3.26.16 76.21-53.2-1.28-1.54z" class="cls-4"/><path id="path1205" d="M242.32 68.75l-69.75 48.68 3.26.17 67.73-47.28a95 95 0 00-1.24-1.57z" class="cls-4"/><path id="path1207" d="M247.49 75.43l-61.12 42.67 3.3.13 59-41.2c-.34-.54-.75-1.07-1.18-1.6z" class="cls-4"/><path id="path1209" d="M252.6 82.2l-52.25 36.47 3.3.13 50.14-35-1.19-1.6z" class="cls-4"/><path id="path1211" d="M257.59 89.02l-43.28 30.2 3.3.14 41.15-28.72z" class="cls-4"/><path id="path1213" d="M262.49 95.93l-34.21 23.88 3.29.14 32.07-22.38z" class="cls-4"/><path id="path1215" d="M267.28 102.9l-25.06 17.48 3.3.14 22.87-16c-.36-.5-.74-1.06-1.11-1.62z" class="cls-4"/><path id="path1217" d="M271.94 109.95l-15.76 11 3.3.13 13.54-9.45z" class="cls-4"/><path id="path1219" d="M276.39 117.16l-6.25 4.37 3.29.13 3.95-2.75c-.29-.54-.62-1.12-.99-1.75z" class="cls-4"/><path id="path1221" d="M277.68 123.17l-95.45-5-123.46-6.3a.75.75 0 01-.6-.35.73.73 0 010-.7c.16-.38 16.62-39.34 46.45-63.78 1.3-1.06 6.05-4.87 7.43-5.92a5.69 5.69 0 012.23-1 9.36 9.36 0 015.7.65l.48.22c1.52.66 3.42 1.49 2.82 4.06l-.51 2.06c-4.76 20.24-.86 43.6 9.27 55.54 4.7 5.54 10.46 8.25 16.6 7.83 7.13-.48 15.53-4.94 24.27-12.9a103.07 103.07 0 009.13-9.5c10.58-12.5 19.45-28.06 24.15-42.77a9.54 9.54 0 014.2-4.66c.51-.32 1.09-.65 1.77-1a.73.73 0 01.48-.07 16.26 16.26 0 016 2.35c15.87 10.69 56.15 70.5 59.76 80.22a.78.78 0 01-.1.7.76.76 0 01-.62.32zm-217.79-12.7l122.38 6.25 94.22 4.89c-5.66-12.2-44.07-68.54-58.73-78.42a14.41 14.41 0 00-5.19-2.07 15.76 15.76 0 00-1.41.8 8.2 8.2 0 00-3.58 3.85c-4.79 14.85-13.73 30.64-24.53 43.34a105.89 105.89 0 01-9.26 9.64c-9 8.18-17.7 12.78-25.18 13.28-6.65.45-12.82-2.44-17.84-8.36-10.58-12.47-14.52-35.85-9.59-56.85l.5-2c.3-1.3-.26-1.67-1.95-2.41l-.5-.22a7.89 7.89 0 00-4.75-.56 4.3 4.3 0 00-1.65.73c-1.37 1-6.1 4.84-7.39 5.89-26.86 22.04-42.79 56.04-45.55 62.23z" class="cls-3"/><path id="path1223" d="M72.32 74.02a6.36 6.36 0 01-3-.72 6.5 6.5 0 01-2.84-8.74c19.47-38.14 37.13-55.42 54-52.85 24.71 3.78 33.18 49.5 34.07 54.7a6.5 6.5 0 01-12.82 2.2c-2.32-13.58-11.06-42.2-23.22-44-4.77-.72-18.2 2.3-40.46 45.9a6.51 6.51 0 01-5.73 3.5z" class="cls-1"/><path id="path1225" d="M156.21 67.02c-1-1.27-4.52-5.62-5.53-6.8a2.82 2.82 0 00-1.52-.91 6.35 6.35 0 00-4.63.93c-1.59 1-3.15 1.59-3.21 4.1V66.75c-.75 40.32-23.62 97.28-44.08 91.18-17.57-5.23-24.39-54.71-19-90.27a6.27 6.27 0 00-9-6.37C27.36 84.24.84 158.63.84 158.63l199.35 18.39s-17.47-76.35-43.98-110z" fill="#f9f9f9"/><path id="path1227" d="M200.19 177.8h-.07L.68 159.33a.72.72 0 01-.56-.34.75.75 0 01-.08-.65c.27-.75 27.1-74.93 68.75-97.75a6.8 6.8 0 017.18.49 6.88 6.88 0 013 6.66c-5.45 36.15 2 84.52 18.5 89.43 3.5 1 7.23.14 11.1-2.7 15.83-11.56 31.4-54.23 32-87.77v-2.31a.53.53 0 010-.13c0-2.67 1.68-3.61 3.12-4.44l.45-.26a7.1 7.1 0 015.2-1 3.59 3.59 0 011.9 1.16c1 1.2 4.58 5.59 5.55 6.82 26.31 33.44 43.95 109.6 44.12 110.38a.75.75 0 01-.16.66.78.78 0 01-.56.24zM1.79 157.93l197.43 18.29c-2.18-9.14-19.14-77.7-43.6-108.78-1-1.22-4.48-5.57-5.51-6.77a2.26 2.26 0 00-1.14-.68 5.68 5.68 0 00-4.05.86l-.47.27c-1.41.8-2.34 1.35-2.38 3.2v2.4c-.63 33.94-16.49 77.17-32.64 89-4.26 3.13-8.44 4.1-12.41 2.93-17.65-5.26-25.13-54.14-19.55-91.1a5.4 5.4 0 00-2.33-5.2 5.32 5.32 0 00-5.61-.4C30.85 83.08 5 149.36 1.79 157.92z" class="cls-3"/><path id="path1229" d="M152.19 57.7c1 0 6.83-.14 18 14.07 4.23 5.4 8.22 11.58 12.22 17.47 10.68 15.76 21.37 29.5 36.7 21.12 20.4-11.17 6.17-44-8.42-68.45.53-.34 1.11-.66 1.7-1a15.43 15.43 0 015.72 2.24c15.66 10.55 56.67 69 60 78.14a1 1 0 01-.46 1.17l-77.46 54.15a338.84 338.84 0 00-18.08-58.52c-3-7.1-6-13.51-8.91-19.27-13.21-25.92-25-39.7-25-39.7a17 17 0 013.99-1.42z" class="cls-2"/><path id="path1231" d="M200.19 177.36a.65.65 0 01-.27-.05.72.72 0 01-.46-.54 340 340 0 00-18.05-58.4 276.41 276.41 0 00-8.88-19.21c-13-25.53-24.78-39.41-24.9-39.55a.73.73 0 01-.14-.6.72.72 0 01.41-.51c.52-.25 3.17-1.5 4.31-1.5v.75V57c4.68 0 11.26 5.1 18.52 14.36 3.41 4.34 6.69 9.23 9.87 14 .8 1.19 1.59 2.38 2.39 3.55 10.94 16.14 21.17 28.85 35.72 20.88a17.68 17.68 0 008.91-11.26c4.12-15.13-7.31-38.9-17.62-56.15a.76.76 0 01.24-1c.51-.32 1.09-.64 1.78-1a.78.78 0 01.48-.06 16.06 16.06 0 016 2.35c15.94 10.74 57 69.49 60.34 78.5a1.7 1.7 0 01-.81 2.09l-77.42 54.07a.75.75 0 01-.42.03zm-50.79-118c2.62 3.24 13.09 16.74 24.47 39.07a284.63 284.63 0 018.93 19.34 342.52 342.52 0 0117.89 57.54l76.56-53.47c.24-.14.21-.24.19-.3-3.32-8.92-44-67.13-59.77-77.77a14.51 14.51 0 00-5.19-2.07l-.79.42c10.36 17.46 21.61 41.22 17.4 56.68a19.2 19.2 0 01-9.6 12.22c-15.63 8.55-26.74-5.22-37.68-21.36l-2.4-3.55c-3.16-4.71-6.42-9.57-9.79-13.88-9.76-12.44-15.38-13.78-17.35-13.78a11.15 11.15 0 00-2.87.95z" class="cls-3"/></svg>