<svg id="Слой_1" data-name="Слой 1" xmlns="http://www.w3.org/2000/svg" viewBox="0 0 499.89 669.62"><defs><style>.cls-1{fill:#ccc;}.cls-2{fill:#444;}.cls-3{fill:#0084b2;}.cls-4{fill:#f9f9f9;}.cls-5{fill:#bfbfbf;}.cls-6{fill:#99c6d6;}.cls-7{fill:#4fa3e8;}.cls-8{fill:#e8e8e8;}</style></defs><title>к</title><polygon class="cls-1" points="193.1 236.98 108.92 338.08 108.26 217.56 192.1 168.94 193.1 236.98"/><path class="cls-2" d="M108.93,338.83a.78.78,0,0,1-.26,0,.76.76,0,0,1-.49-.71l-.67-120.52a.74.74,0,0,1,.37-.65l83.85-48.62a.74.74,0,0,1,1.12.63l1,68.05a.67.67,0,0,1-.17.49L109.5,338.56A.76.76,0,0,1,108.93,338.83ZM109,218l.65,118,82.69-99.3-1-66.49Z"/><path class="cls-3" d="M287.56,534.37c2.54-4.35,5.26-8.56,8-12.78,1.36-2.08,2.79-4.21,4.32-6.25a66.12,66.12,0,0,1,5-5.85,59.73,59.73,0,0,1,12-9.8,56.5,56.5,0,0,1,6.94-3.63c1.23-.48,2.44-1,3.68-1.4s2.5-.83,3.79-1.1l1.92-.46c.64-.13,1.3-.22,1.94-.33,1.3-.26,2.61-.36,3.92-.49s2.64-.09,3.95-.14l3.74,0a48.9,48.9,0,0,0,14.12-2,59,59,0,0,0,13.29-5.95c4.37-2.47,8.72-4.95,13.2-7.24-3.87,3.22-7.86,6.25-11.85,9.29a60.43,60.43,0,0,1-6.37,4.27,49,49,0,0,1-7,3.32,45.89,45.89,0,0,1-15.32,3.08c-1.3.05-2.53,0-3.77.07s-2.37.05-3.55.21-2.35.23-3.52.47c-.58.11-1.16.19-1.74.31l-1.73.43c-9.25,2.24-17.67,7.39-24.9,13.86A98.24,98.24,0,0,0,297.48,523C294.23,526.86,291,530.68,287.56,534.37Z"/><path class="cls-3" d="M291.53,533.24c2.23-2.25,4.59-4.31,7-6.39a47.13,47.13,0,0,1,7.88-5.55A44.56,44.56,0,0,1,325,515.65c1.61-.12,3.38-.09,4.77-.12s3-.12,4.43-.27A54.32,54.32,0,0,0,343,513.6c1.44-.38,2.88-.86,4.4-1.34s3-.92,4.5-1.35c3-.85,6-1.71,9.14-2.35-2.69,1.67-5.46,3.14-8.23,4.62q-2.09,1.1-4.19,2.13c-1.38.69-2.83,1.41-4.35,2a42.9,42.9,0,0,1-9.42,2.63,44.7,44.7,0,0,1-4.9.51c-1.72.06-3.08,0-4.58.17a54.78,54.78,0,0,0-17.27,4.18,71.37,71.37,0,0,0-8.19,4C297.14,530.36,294.4,531.89,291.53,533.24Z"/><path class="cls-4" d="M201.22,534.59c-.51,4.71,10.64,8.87,29.24,10.16,23.78,1.64,50.58-2,60-8.21,2.34-1.53,3.39-3.07,3.3-4.55V437.67l-92.54,2.6Z"/><path class="cls-2" d="M242,545.88c-3.89,0-7.77-.12-11.58-.38-14.8-1-25.58-4-28.84-7.86a4.11,4.11,0,0,1-1.09-3.09V440.27a.75.75,0,0,1,.73-.75l92.53-2.6a.73.73,0,0,1,.55.21.76.76,0,0,1,.23.54V532c.12,1.77-1.11,3.52-3.64,5.18C282.85,542.41,262.41,545.88,242,545.88ZM202,441v93.68a2.66,2.66,0,0,0,.74,2c2.95,3.53,13.61,6.34,27.8,7.32,23.52,1.63,50.22-2,59.54-8.09,1.41-.92,3.06-2.33,3-3.87v-93.6Zm-.75,93.6h0Z"/><polygon class="cls-4" points="108.86 445.15 307.11 463.22 385.11 406.04 192.29 396.08 108.86 445.15"/><path class="cls-2" d="M307.11,464H307L108.79,445.89a.75.75,0,0,1-.31-1.39l83.43-49.06a.64.64,0,0,1,.42-.1l192.82,10a.76.76,0,0,1,.68.54.75.75,0,0,1-.28.82l-78,57.18A.77.77,0,0,1,307.11,464ZM111.25,444.61l195.64,17.84L383,406.68l-190.49-9.84Z"/><path class="cls-1" d="M288.63,430.16c-9.42,6.16-36.22,9.85-60,8.21-18.6-1.29-29.74-5.45-29.23-10.16.15-1.37,1.29-2.78,3.51-4.19,9.81-6.2,37-9.77,60.54-8,17.5,1.3,28.19,5.18,28.48,9.61C292,427.09,291,428.64,288.63,430.16Z"/><path class="cls-2" d="M240.14,439.51c-3.88,0-7.77-.13-11.57-.39-14.8-1-25.59-4-28.84-7.86a4.07,4.07,0,0,1-1.08-3.13c.18-1.64,1.47-3.24,3.85-4.74,9.88-6.25,37.24-9.9,61-8.14,17.66,1.31,28.84,5.26,29.18,10.31.12,1.82-1.1,3.58-3.63,5.23C281,436,260.58,439.51,240.14,439.51ZM251,416.3c-19.91,0-39.75,3.3-47.74,8.35-1.94,1.23-3,2.49-3.16,3.64a2.66,2.66,0,0,0,.74,2c3,3.54,13.6,6.34,27.8,7.32,23.51,1.63,50.22-2,59.54-8.08h0c1.4-.92,3.06-2.34,3-3.88-.23-3.31-9-7.52-27.8-8.91C259.34,416.45,255.18,416.3,251,416.3Z"/><path class="cls-5" d="M213.94,419.83l-14,9.79a4.62,4.62,0,0,0,1.13,1.64l18.19-12.67C217.36,419,215.6,419.39,213.94,419.83Z"/><path class="cls-5" d="M233.56,416.47,207.41,434.7c.75.26,1.56.51,2.41.75l27.74-19.33C236.21,416.22,234.88,416.34,233.56,416.47Z"/><path class="cls-5" d="M249.6,415.61l-31.09,21.67c.94.14,1.91.28,2.91.4l31.68-22.07Z"/><path class="cls-5" d="M263.78,416l-32.32,22.52c1.1.06,2.2.11,3.3.14l32.14-22.39Q265.37,416.16,263.78,416Z"/><path class="cls-5" d="M276.33,417.61,246,438.72c1.24,0,2.48-.09,3.71-.15L279,418.16C278.17,418,277.27,417.79,276.33,417.61Z"/><path class="cls-5" d="M286.84,420.6l-24.18,16.85c1.49-.19,2.95-.39,4.38-.62l21.83-15.21A20.17,20.17,0,0,0,286.84,420.6Z"/><path class="cls-5" d="M291.79,427.46l-7,4.85A25,25,0,0,0,289,430.2,8.3,8.3,0,0,0,291.79,427.46Z"/><path class="cls-2" d="M240.14,439.51c-3.88,0-7.77-.13-11.57-.39-14.8-1-25.59-4-28.84-7.86a4.07,4.07,0,0,1-1.08-3.13c.18-1.64,1.47-3.24,3.85-4.74,9.88-6.25,37.24-9.9,61-8.14,17.66,1.31,28.84,5.26,29.18,10.31.12,1.82-1.1,3.58-3.63,5.23C281,436,260.58,439.51,240.14,439.51ZM251,416.3c-19.91,0-39.75,3.3-47.74,8.35-1.94,1.23-3,2.49-3.16,3.64a2.66,2.66,0,0,0,.74,2c3,3.54,13.6,6.34,27.8,7.32,23.51,1.63,50.22-2,59.54-8.08h0c1.4-.92,3.06-2.34,3-3.88-.23-3.31-9-7.52-27.8-8.91C259.34,416.45,255.18,416.3,251,416.3Z"/><polygon class="cls-1" points="385.6 406.24 191.1 383.94 192.1 169.03 384.35 181.1 385.6 406.24"/><path class="cls-2" d="M385.6,407h-.08L191,384.69a.76.76,0,0,1-.67-.75l1-214.92a.75.75,0,0,1,.24-.54.71.71,0,0,1,.56-.2L384.4,180.35a.75.75,0,0,1,.7.75l1.25,225.14a.75.75,0,0,1-.25.56A.73.73,0,0,1,385.6,407ZM191.85,383.27l193,22.13L383.6,181.81l-190.75-12Z"/><polygon class="cls-5" points="196.91 170.25 192.39 173.09 192.39 175.52 200.14 170.43 196.91 170.25"/><polygon class="cls-5" points="210.58 171.03 191.39 184.4 191.39 186.84 213.81 171.21 210.58 171.03"/><polygon class="cls-5" points="224.25 171.81 191.39 194.71 191.39 197.15 227.49 172 224.25 171.81"/><polygon class="cls-5" points="237.93 172.6 191.39 205.03 191.39 207.46 241.16 172.78 237.93 172.6"/><polygon class="cls-5" points="251.61 173.38 191.39 215.34 191.39 217.78 254.84 173.56 251.61 173.38"/><polygon class="cls-5" points="265.28 174.16 191.39 225.65 191.39 228.09 268.51 174.35 265.28 174.16"/><polygon class="cls-5" points="278.96 174.95 191.39 235.96 191.39 238.4 282.19 175.13 278.96 174.95"/><polygon class="cls-5" points="292.63 175.73 191.39 246.28 191.39 248.72 295.86 175.92 292.63 175.73"/><polygon class="cls-5" points="306.31 176.51 191.39 256.59 191.39 259.03 309.54 176.7 306.31 176.51"/><polygon class="cls-5" points="319.98 177.3 191.39 266.9 191.39 269.34 323.21 177.48 319.98 177.3"/><polygon class="cls-5" points="333.66 178.08 191.39 277.22 191.39 279.65 336.89 178.27 333.66 178.08"/><polygon class="cls-5" points="347.33 178.87 191.39 287.53 191.39 289.97 350.56 179.05 347.33 178.87"/><polygon class="cls-5" points="361.01 179.65 191.39 297.84 191.39 300.28 364.24 179.84 361.01 179.65"/><polygon class="cls-5" points="374.68 180.43 191.39 308.16 191.39 310.59 377.91 180.62 374.68 180.43"/><polygon class="cls-5" points="384.64 183.81 191.39 318.47 191.39 320.91 384.64 186.24 384.64 183.81"/><polygon class="cls-5" points="384.64 194.12 191.39 328.78 191.39 331.22 384.64 196.56 384.64 194.12"/><polygon class="cls-5" points="384.64 204.43 191.39 339.1 191.39 341.53 384.64 206.87 384.64 204.43"/><polygon class="cls-5" points="384.64 214.74 191.39 349.41 191.39 351.85 384.64 217.18 384.64 214.74"/><polygon class="cls-5" points="384.64 225.06 191.39 359.72 191.39 362.16 384.64 227.49 384.64 225.06"/><polygon class="cls-5" points="384.64 235.37 191.39 370.04 191.39 372.47 384.64 237.81 384.64 235.37"/><polygon class="cls-5" points="384.64 245.69 191.39 380.35 191.39 382.79 384.64 248.12 384.64 245.69"/><polygon class="cls-5" points="384.64 256 199.4 385.08 202.26 385.53 384.64 258.43 384.64 256"/><polygon class="cls-5" points="384.64 266.29 211.48 386.96 214.37 387.4 384.64 268.75 384.64 266.29"/><polygon class="cls-5" points="384.64 276.6 223.59 388.83 226.48 389.28 384.64 279.06 384.64 276.6"/><polygon class="cls-5" points="384.64 286.91 235.7 390.71 238.56 391.15 384.64 289.35 384.64 286.91"/><polygon class="cls-5" points="384.64 297.23 247.81 392.58 250.67 393.03 384.64 299.66 384.64 297.23"/><polygon class="cls-5" points="384.64 307.54 259.91 394.46 262.77 394.9 384.64 309.98 384.64 307.54"/><polygon class="cls-5" points="384.64 317.85 272.02 396.33 274.88 396.78 384.64 320.29 384.64 317.85"/><polygon class="cls-5" points="384.64 328.17 284.13 398.21 286.99 398.65 384.64 330.6 384.64 328.17"/><polygon class="cls-5" points="384.64 338.48 296.24 400.09 299.1 400.53 384.64 340.92 384.64 338.48"/><polygon class="cls-5" points="384.64 348.79 308.35 401.96 311.21 402.4 384.64 351.23 384.64 348.79"/><polygon class="cls-5" points="384.64 359.11 320.45 403.84 323.31 404.28 384.64 361.54 384.64 359.11"/><polygon class="cls-5" points="384.64 369.42 332.56 405.71 335.42 406.16 384.64 371.86 384.64 369.42"/><polygon class="cls-5" points="384.64 379.73 344.67 407.59 347.53 408.03 384.64 382.17 384.64 379.73"/><polygon class="cls-5" points="384.64 390.05 356.78 409.46 359.64 409.91 384.64 392.48 384.64 390.05"/><polygon class="cls-5" points="384.64 400.36 368.89 411.34 371.75 411.78 384.64 402.8 384.64 400.36"/><polygon class="cls-5" points="385.6 406.24 385.64 403.67 381.99 406.22 384.85 406.66 385.6 406.24"/><path class="cls-2" d="M385.6,407h-.08L191,384.69a.76.76,0,0,1-.67-.75l1-214.92a.75.75,0,0,1,.24-.54.71.71,0,0,1,.56-.2L384.4,180.35a.75.75,0,0,1,.7.75l1.25,225.14a.75.75,0,0,1-.25.56A.73.73,0,0,1,385.6,407ZM191.85,383.27l193,22.13L383.6,181.81l-190.75-12Z"/><polygon class="cls-1" points="385.6 406.24 307.7 484.74 307.7 235.59 385.7 180.56 385.6 406.24"/><path class="cls-2" d="M307.7,485.49a.87.87,0,0,1-.28-.05.76.76,0,0,1-.47-.7V235.59a.75.75,0,0,1,.32-.61l78-55a.75.75,0,0,1,1.18.62l-.1,225.68a.75.75,0,0,1-.22.53l-77.9,78.5A.71.71,0,0,1,307.7,485.49ZM308.45,236V482.92l76.4-77L385,182ZM385.6,406.24h0Z"/><polygon class="cls-4" points="307.7 484.74 108.45 455.81 108.26 217.56 307.7 236.03 307.7 484.74"/><path class="cls-2" d="M307.7,485.49h-.11L108.34,456.55a.76.76,0,0,1-.64-.74l-.19-238.25a.8.8,0,0,1,.24-.56.77.77,0,0,1,.58-.19l199.44,18.48a.74.74,0,0,1,.68.75v248.7a.73.73,0,0,1-.26.57A.72.72,0,0,1,307.7,485.49ZM109.2,455.16,307,483.88V236.72L109,218.38Z"/><polygon class="cls-6" points="269.44 357.06 269.44 341.68 274.45 341.68 274.45 346.69 285.9 346.69 285.9 352.05 274.45 352.05 274.45 357.06 269.44 357.06"/><polygon class="cls-6" points="269.62 295.35 269.62 295.35 269.62 300 269.62 300 269.62 305.37 286.07 305.37 286.07 300 274.99 300 274.99 295.35 286.07 295.35 286.07 289.99 274.99 289.99 269.62 289.99 269.62 289.99 269.62 295.35"/><polygon class="cls-6" points="276.06 256 269.62 251.35 269.62 257.43 276.06 262.08 276.06 262.8 269.62 262.8 269.62 268.16 286.07 268.16 286.07 262.8 279.99 262.8 279.99 261.37 286.07 258.51 286.07 252.07 277.85 257.07 276.06 256"/><path class="cls-6" d="M269.62,276.39v5l16.45,7.16v-5.73l-2.86-.71V276l2.86-1.07v-5.72Zm9.66,4.3L275,278.9l4.3-1.43Z"/><path class="cls-6" d="M269.62,330.41v5l16.45,7.15v-5.72l-2.86-.72v-6.08l2.86-1.07v-5.72Zm9.66,4.29-4.3-1.79,4.3-1.43Z"/><path class="cls-6" d="M269.62,313.05v8.77h16.45v-5.36h-3.94v-3.41a6.25,6.25,0,0,0-6.26-6.25h0A6.25,6.25,0,0,0,269.62,313.05Zm8.23,1.05v2.36H274V314.1a1.94,1.94,0,0,1,3.88,0Z"/><path class="cls-7" d="M320.6,121.53a6.51,6.51,0,0,1-6.32-5h0c-2.64-11-13.64-40.48-32.55-44.15-16.46-3.2-37.77,12.85-61.66,46.41a6.5,6.5,0,1,1-10.59-7.54C237,72.68,262.11,55.31,284.24,59.63c31,6.05,42.23,52,42.69,53.9a6.51,6.51,0,0,1-4.82,7.83A7.13,7.13,0,0,1,320.6,121.53Z"/><path class="cls-8" d="M212.52,106.65c1.31-1.07,6-4.86,7.41-5.91a4.89,4.89,0,0,1,1.94-.86,8.6,8.6,0,0,1,5.22.61c1.67.76,3.39,1.24,2.88,3.42a.22.22,0,0,1,0,.08c-.24.93-.42,1.66-.5,2-7.17,30.5,4.95,65.76,26.65,64.29,7.67-.52,16.35-5.46,24.73-13.09A103.86,103.86,0,0,0,290,147.6c10.39-12.22,19.48-27.86,24.39-43.08a8.87,8.87,0,0,1,3.89-4.26,18.31,18.31,0,0,1,1.7-1,15.59,15.59,0,0,1,5.72,2.23c15.65,10.55,56.08,70.75,59.46,79.86l-95.45-5-123.46-6.3S182.48,131.26,212.52,106.65Z"/><path class="cls-2" d="M385.19,182.15h0l-95.45-5-123.46-6.3a.75.75,0,0,1-.6-.35.73.73,0,0,1,0-.69c.16-.39,16.62-39.35,46.45-63.79h0c1.3-1.06,6.06-4.88,7.43-5.92a5.69,5.69,0,0,1,2.23-1,9.36,9.36,0,0,1,5.7.65l.48.22c1.52.66,3.42,1.49,2.82,4.06-.25,1-.43,1.74-.51,2.06-4.76,20.24-.86,43.6,9.27,55.54,4.7,5.54,10.45,8.25,16.6,7.83,7.14-.48,15.53-4.94,24.27-12.89a103.07,103.07,0,0,0,9.13-9.51,130.93,130.93,0,0,0,24.24-42.82,9.54,9.54,0,0,1,4.2-4.66c.51-.32,1.09-.65,1.77-1a.73.73,0,0,1,.48-.07,16.26,16.26,0,0,1,6,2.35c15.87,10.69,56.15,70.51,59.76,80.22a.78.78,0,0,1-.1.71A.76.76,0,0,1,385.19,182.15ZM167.4,169.46l122.38,6.24L384,180.59c-5.64-12.19-44-68.54-58.72-78.42a14.41,14.41,0,0,0-5.19-2.07,14.47,14.47,0,0,0-1.41.8,8.2,8.2,0,0,0-3.58,3.85c-4.79,14.84-13.73,30.64-24.53,43.34a105.94,105.94,0,0,1-9.26,9.64c-9,8.18-17.7,12.78-25.18,13.28-6.66.45-12.82-2.44-17.84-8.36-10.58-12.47-14.52-35.85-9.59-56.85.08-.33.27-1.06.5-2,.3-1.3-.26-1.67-1.95-2.41l-.5-.22a7.89,7.89,0,0,0-4.75-.56,4.12,4.12,0,0,0-1.64.73c-1.37,1-6.1,4.83-7.4,5.89h0C186.1,129.27,170.16,163.27,167.4,169.46Z"/><path class="cls-5" d="M227.23,101a8.89,8.89,0,0,0-1-.38l-25.67,17.91q-3,3.17-5.71,6.43l33.57-23.44C228,101.29,227.63,101.13,227.23,101Z"/><path class="cls-5" d="M229.08,108.88l-46.5,32.46q-1.5,2.25-2.87,4.43l48.87-34.1C228.73,110.73,228.89,109.8,229.08,108.88Z"/><path class="cls-5" d="M227.66,120.18,172.07,159c-.73,1.37-1.39,2.65-2,3.82l57.48-40.12C227.59,121.85,227.62,121,227.66,120.18Z"/><path class="cls-5" d="M227.76,130.42l-57.83,40.37,3.25.17L228,132.72C227.88,132,227.82,131.19,227.76,130.42Z"/><path class="cls-5" d="M229,139.85,183.7,171.49l3.25.17L229.49,142C229.32,141.27,229.17,140.57,229,139.85Z"/><path class="cls-5" d="M231.36,148.54,197.47,172.2l3.25.16,31.35-21.88C231.82,149.84,231.59,149.19,231.36,148.54Z"/><path class="cls-5" d="M234.83,156.43,211.24,172.9l3.25.16,21.35-14.9C235.5,157.6,235.16,157,234.83,156.43Z"/><path class="cls-5" d="M326.72,102.61l-15.21,10.61c-.49,1.17-1,2.34-1.51,3.5l18.35-12.82C327.79,103.43,327.24,103,326.72,102.61Z"/><path class="cls-5" d="M239.69,163.35,225,173.6l3.25.17,12.84-9C240.62,164.34,240.15,163.86,239.69,163.35Z"/><path class="cls-5" d="M333.18,108.41l-29.59,20.66c-.84,1.42-1.7,2.84-2.58,4.23l33.58-23.44Z"/><path class="cls-5" d="M238.78,174.3l3.25.17,6.81-4.76a17.86,17.86,0,0,1-2.17-.92Z"/><path class="cls-5" d="M339,114.67l-50.37,35.15a99.39,99.39,0,0,1-7.5,7.67l59.19-41.31Z"/><path class="cls-5" d="M252.54,175l3.26.16,10.37-7.24a31.42,31.42,0,0,1-6.88,2.37Z"/><path class="cls-5" d="M344.5,121.13l-78.19,54.58,3.26.16,76.21-53.19C345.35,122.16,344.93,121.64,344.5,121.13Z"/><path class="cls-5" d="M349.83,127.73l-69.75,48.68,3.26.17,67.73-47.28C350.66,128.77,350.25,128.25,349.83,127.73Z"/><path class="cls-5" d="M355,134.41l-61.12,42.67,3.3.13,59-41.2C355.84,135.47,355.43,134.94,355,134.41Z"/><path class="cls-5" d="M360.11,141.18l-52.25,36.47,3.3.13,50.14-35C360.91,142.25,360.51,141.71,360.11,141.18Z"/><path class="cls-5" d="M365.1,148l-43.28,30.21,3.3.13,41.15-28.72Z"/><path class="cls-5" d="M370,154.91l-34.21,23.88,3.29.14,32.07-22.38Z"/><path class="cls-5" d="M374.79,161.88l-25.06,17.48,3.3.14,22.87-16C375.54,163,375.16,162.44,374.79,161.88Z"/><path class="cls-5" d="M379.45,168.93l-15.76,11,3.3.13,13.54-9.45Z"/><path class="cls-5" d="M383.9,176.14l-6.25,4.37,3.29.13,3.95-2.75C384.6,177.35,384.27,176.77,383.9,176.14Z"/><path class="cls-2" d="M385.19,182.15h0l-95.45-5-123.46-6.3a.75.75,0,0,1-.6-.35.73.73,0,0,1,0-.69c.16-.39,16.62-39.35,46.45-63.79h0c1.3-1.06,6.06-4.88,7.43-5.92a5.69,5.69,0,0,1,2.23-1,9.36,9.36,0,0,1,5.7.65l.48.22c1.52.66,3.42,1.49,2.82,4.06-.25,1-.43,1.74-.51,2.06-4.76,20.24-.86,43.6,9.27,55.54,4.7,5.54,10.45,8.25,16.6,7.83,7.14-.48,15.53-4.94,24.27-12.89a103.07,103.07,0,0,0,9.13-9.51,130.93,130.93,0,0,0,24.24-42.82,9.54,9.54,0,0,1,4.2-4.66c.51-.32,1.09-.65,1.77-1a.73.73,0,0,1,.48-.07,16.26,16.26,0,0,1,6,2.35c15.87,10.69,56.15,70.51,59.76,80.22a.78.78,0,0,1-.1.71A.76.76,0,0,1,385.19,182.15ZM167.4,169.46l122.38,6.24L384,180.59c-5.64-12.19-44-68.54-58.72-78.42a14.41,14.41,0,0,0-5.19-2.07,14.47,14.47,0,0,0-1.41.8,8.2,8.2,0,0,0-3.58,3.85c-4.79,14.84-13.73,30.64-24.53,43.34a105.94,105.94,0,0,1-9.26,9.64c-9,8.18-17.7,12.78-25.18,13.28-6.66.45-12.82-2.44-17.84-8.36-10.58-12.47-14.52-35.85-9.59-56.85.08-.33.27-1.06.5-2,.3-1.3-.26-1.67-1.95-2.41l-.5-.22a7.89,7.89,0,0,0-4.75-.56,4.12,4.12,0,0,0-1.64.73c-1.37,1-6.1,4.83-7.4,5.89h0C186.1,129.27,170.16,163.27,167.4,169.46Z"/><path class="cls-7" d="M179.83,133a6.36,6.36,0,0,1-3-.72,6.5,6.5,0,0,1-2.84-8.74c19.47-38.14,37.14-55.43,54-52.85,24.71,3.78,33.18,49.51,34.07,54.71a6.5,6.5,0,0,1-12.82,2.19c-2.32-13.58-11.06-42.19-23.22-44-4.75-.72-18.2,2.31-40.46,45.91A6.51,6.51,0,0,1,179.83,133Z"/><polygon class="cls-4" points="86.47 185.89 285.72 201.97 385.6 180.48 193.35 167.96 86.47 185.89"/><path class="cls-2" d="M285.72,202.72h-.06L86.41,186.64a.75.75,0,0,1-.07-1.49l106.89-17.93h.17l192.25,12.51a.76.76,0,0,1,.7.69.75.75,0,0,1-.59.79L285.88,202.7ZM92.56,185.63l193.11,15.58,94.51-20.33L193.39,168.72Z"/><path class="cls-4" d="M263.72,126c-1-1.27-4.52-5.62-5.53-6.79a2.82,2.82,0,0,0-1.52-.92,6.35,6.35,0,0,0-4.63.93c-1.59,1-3.15,1.59-3.21,4.1v.09c0,1.09,0,1.94,0,2.32-.75,40.32-23.62,97.28-44.08,91.18-17.57-5.23-24.39-54.71-19-90.27a6.27,6.27,0,0,0-9-6.37c-41.88,22.95-68.4,97.34-68.4,97.34L307.7,236S290.23,159.65,263.72,126Z"/><path class="cls-2" d="M307.7,236.79h-.07L108.19,218.3a.72.72,0,0,1-.56-.34.75.75,0,0,1-.08-.65c.27-.75,27.1-74.93,68.75-97.75a6.8,6.8,0,0,1,7.18.49,6.87,6.87,0,0,1,3,6.65c-5.45,36.16,2,84.53,18.5,89.44,3.5,1.05,7.23.14,11.1-2.69,15.83-11.57,31.4-54.24,32-87.78,0-.38,0-1.23,0-2.31v-.13c.06-2.67,1.69-3.61,3.13-4.44l.45-.26a7.1,7.1,0,0,1,5.2-1,3.59,3.59,0,0,1,1.9,1.16c1,1.2,4.58,5.59,5.55,6.82,26.31,33.44,43.95,109.61,44.12,110.38a.75.75,0,0,1-.16.66A.78.78,0,0,1,307.7,236.79ZM109.3,216.9l197.43,18.29c-2.18-9.14-19.14-77.69-43.6-108.78h0c-1-1.22-4.48-5.57-5.51-6.77a2.26,2.26,0,0,0-1.14-.68,5.68,5.68,0,0,0-4.05.86l-.47.27c-1.41.81-2.34,1.35-2.38,3.2v.11c0,1,0,1.91,0,2.3-.63,33.92-16.49,77.16-32.64,89-4.26,3.12-8.44,4.1-12.41,2.92-17.65-5.26-25.13-54.14-19.55-91.1a5.39,5.39,0,0,0-2.34-5.2,5.3,5.3,0,0,0-5.6-.4C138.36,142.06,112.51,208.34,109.3,216.9Z"/><path class="cls-8" d="M259.7,116.68c1,0,6.83-.14,18,14.07,4.23,5.4,8.22,11.58,12.22,17.47,10.68,15.76,21.37,29.51,36.7,21.12,20.4-11.17,6.17-44-8.42-68.45.53-.34,1.11-.66,1.7-1a15.43,15.43,0,0,1,5.72,2.24c15.66,10.55,56.67,69,60,78.14a1,1,0,0,1-.46,1.17L307.7,235.59a338.84,338.84,0,0,0-18.08-58.52c-3-7.09-6-13.51-8.91-19.27-13.21-25.92-25-39.69-25-39.69A17,17,0,0,1,259.7,116.68Z"/><path class="cls-2" d="M307.7,236.34a.65.65,0,0,1-.27-.05.72.72,0,0,1-.46-.54,340,340,0,0,0-18.05-58.39c-2.77-6.63-5.75-13.09-8.88-19.22-13-25.53-24.78-39.41-24.9-39.55A.73.73,0,0,1,255,118a.72.72,0,0,1,.41-.52c.52-.25,3.17-1.5,4.31-1.5v.75l0-.75h0c4.69,0,11.26,5.1,18.53,14.36,3.41,4.35,6.69,9.24,9.87,14,.79,1.19,1.59,2.37,2.38,3.54,10.94,16.14,21.17,28.85,35.72,20.88a17.68,17.68,0,0,0,8.91-11.26c4.12-15.13-7.3-38.89-17.62-56.15a.76.76,0,0,1,.24-1c.51-.32,1.09-.64,1.78-1a.71.71,0,0,1,.48-.06,16.06,16.06,0,0,1,6,2.35c15.94,10.73,57,69.49,60.34,78.5a1.69,1.69,0,0,1-.81,2.09l-77.42,54.07A.75.75,0,0,1,307.7,236.34Zm-50.79-118c2.62,3.24,13.09,16.74,24.47,39.07,3.14,6.17,6.14,12.67,8.93,19.33a341.09,341.09,0,0,1,17.88,57.55l76.57-53.47c.24-.15.21-.24.19-.29-3.32-8.93-44-67.14-59.77-77.78a14.51,14.51,0,0,0-5.19-2.07l-.79.42c10.36,17.46,21.61,41.22,17.4,56.68A19.2,19.2,0,0,1,327,170c-15.63,8.55-26.74-5.22-37.68-21.36-.8-1.17-1.59-2.35-2.39-3.54-3.16-4.71-6.43-9.58-9.8-13.88-9.76-12.45-15.38-13.79-17.35-13.79h0A11.15,11.15,0,0,0,256.91,118.38Z"/><path class="cls-2" d="M285.82,202.69a.74.74,0,0,1-.73-.59.75.75,0,0,1,.57-.89l4.89-1.05a.75.75,0,1,1,.31,1.47L286,202.68Zm-5-.37h-.06l-5-.4a.75.75,0,0,1,.12-1.5l5,.4a.75.75,0,0,1-.06,1.5Zm-10-.8h-.06l-5-.41a.73.73,0,0,1-.68-.8.75.75,0,0,1,.81-.69l5,.4a.75.75,0,0,1-.06,1.5Zm-10-.81h-.06l-5-.4a.75.75,0,1,1,.12-1.5l5,.41a.75.75,0,0,1-.06,1.49Zm34.69-.12a.76.76,0,0,1-.73-.59.74.74,0,0,1,.58-.89l4.88-1.05a.76.76,0,0,1,.9.57.75.75,0,0,1-.58.89l-4.89,1A.41.41,0,0,1,295.59,200.59Zm-44.66-.68h-.06l-5-.41a.75.75,0,0,1-.69-.8A.76.76,0,0,1,246,198l5,.4a.75.75,0,0,1-.06,1.5Zm-10-.8h-.06l-5-.4a.75.75,0,1,1,.12-1.49l5,.4a.74.74,0,0,1,.68.81A.75.75,0,0,1,241,199.11Zm64.4-.62a.75.75,0,0,1-.16-1.48L310.1,196a.75.75,0,0,1,.32,1.47l-4.89,1.05ZM231,198.3h-.06l-5-.4a.75.75,0,0,1-.68-.81.76.76,0,0,1,.81-.69l5,.4a.75.75,0,0,1-.06,1.5Zm-10-.8H221l-5-.4a.75.75,0,1,1,.12-1.49l5,.4a.75.75,0,0,1-.06,1.5Zm-10-.81H211l-5-.4a.76.76,0,0,1-.69-.81.77.77,0,0,1,.81-.69l5,.41a.75.75,0,0,1-.06,1.49Zm104.09-.3a.75.75,0,0,1-.16-1.49l4.89-1.05a.75.75,0,1,1,.31,1.47l-4.88,1.05Zm-114-.5H201l-5-.41a.75.75,0,0,1-.69-.8.76.76,0,0,1,.81-.69l5,.4a.75.75,0,0,1-.06,1.5Zm-10-.81h-.06l-5-.4a.74.74,0,0,1-.68-.81.75.75,0,0,1,.8-.69l5,.41a.75.75,0,0,1-.06,1.49Zm133.79-.8a.76.76,0,0,1-.73-.59.74.74,0,0,1,.58-.89l4.88-1.05a.75.75,0,1,1,.32,1.46l-4.89,1.06Zm-143.76,0h-.06l-5-.4a.75.75,0,1,1,.12-1.5l5,.4a.76.76,0,0,1,.69.81A.75.75,0,0,1,181.16,194.28Zm-10-.8h-.06l-5-.4a.75.75,0,1,1,.12-1.49l5,.4a.75.75,0,0,1-.06,1.5Zm-10-.81h-.07l-5-.4a.75.75,0,1,1,.12-1.5l5,.4a.75.75,0,0,1-.06,1.5Zm173.47-.49a.75.75,0,0,1-.16-1.48l4.89-1.06a.76.76,0,0,1,.89.58.75.75,0,0,1-.57.89l-4.89,1Zm-183.44-.31h-.06l-5-.41a.75.75,0,0,1,.12-1.49l5,.4a.76.76,0,0,1,.69.81A.77.77,0,0,1,151.26,191.87Zm-10-.81h-.06l-5-.4a.74.74,0,0,1-.69-.81.76.76,0,0,1,.81-.69l5,.41a.75.75,0,0,1-.06,1.49Zm-10-.8h-.06l-5-.4a.75.75,0,0,1,.12-1.5l5,.4a.75.75,0,0,1-.06,1.5Zm213.16-.18a.75.75,0,0,1-.16-1.49l4.89-1.05a.75.75,0,0,1,.89.58.76.76,0,0,1-.58.89l-4.88,1.05Zm-223.12-.62h-.07l-5-.4a.75.75,0,1,1,.12-1.49l5,.4a.74.74,0,0,1,.68.81A.75.75,0,0,1,121.36,189.46Zm-10-.81h-.06l-5-.4a.75.75,0,0,1,.12-1.5l5,.4a.75.75,0,0,1-.06,1.5ZM354.25,188a.75.75,0,0,1-.15-1.48l4.88-1.05a.75.75,0,0,1,.32,1.46L354.41,188Zm-252.83-.12h-.06l-5-.4a.74.74,0,0,1-.69-.81.75.75,0,0,1,.81-.68l5,.4a.75.75,0,0,1-.06,1.5Zm-10-.81h-.06l-5-.4a.75.75,0,0,1-.69-.81.76.76,0,0,1,.81-.69l5,.41a.75.75,0,0,1-.06,1.49ZM364,185.87a.75.75,0,0,1-.16-1.48l4.89-1a.75.75,0,0,1,.32,1.46l-4.89,1Zm9.78-2.1a.75.75,0,0,1-.16-1.49l4.89-1.05a.75.75,0,1,1,.31,1.47L374,183.75Zm9.77-2.11a.75.75,0,0,1-.16-1.48l2-.43a.75.75,0,0,1,.32,1.46l-2,.44Z"/></svg>