<svg id="Слой_1" data-name="Слой 1" xmlns="http://www.w3.org/2000/svg" xmlns:xlink="http://www.w3.org/1999/xlink" viewBox="0 0 499.89 669.62"><defs><style>.cls-1,.cls-2{fill:none;}.cls-2{stroke:#444;stroke-linecap:round;stroke-miterlimit:10;stroke-width:1.5px;}.cls-3{fill:#0084b2;}.cls-4{fill:#ccc;}.cls-5{fill:#444;}.cls-6{fill:#f9f9f9;}.cls-7{opacity:0.3;}.cls-8{fill:url(#Новый_узор_1);}.cls-9{fill:#bfbfbf;}.cls-10{fill:#4fa3e8;}.cls-11{fill:#e8e8e8;}.cls-12{fill:#99c6d6;}</style><pattern id="Новый_узор_1" data-name="Новый узор 1" width="15" height="14.6" patternTransform="translate(245.05 236.13) scale(1 1.43)" patternUnits="userSpaceOnUse" viewBox="0 0 15 14.6"><rect class="cls-1" width="15" height="14.6"/><line class="cls-2" x1="15.13" y1="18.2" x2="29.87" y2="11"/><line class="cls-2" x1="0.13" y1="18.2" x2="14.87" y2="11"/><line class="cls-2" x1="-14.87" y1="18.2" x2="-0.13" y2="11"/><line class="cls-2" x1="15.13" y1="10.9" x2="29.87" y2="3.7"/><line class="cls-2" x1="0.13" y1="10.9" x2="14.87" y2="3.7"/><line class="cls-2" x1="-14.87" y1="10.9" x2="-0.13" y2="3.7"/><line class="cls-2" x1="15.13" y1="3.6" x2="29.87" y2="-3.6"/><line class="cls-2" x1="0.13" y1="3.6" x2="14.87" y2="-3.6"/><line class="cls-2" x1="-14.87" y1="3.6" x2="-0.13" y2="-3.6"/></pattern></defs><title>к</title><path class="cls-3" d="M287.08,561.71c2.53-4.35,5.25-8.56,7.95-12.78,1.36-2.09,2.79-4.21,4.32-6.26a69.13,69.13,0,0,1,5-5.85,59.73,59.73,0,0,1,12-9.8,57.91,57.91,0,0,1,6.94-3.63c1.23-.47,2.44-1,3.69-1.39s2.49-.83,3.78-1.11l1.92-.45c.64-.13,1.3-.23,1.95-.34a39.21,39.21,0,0,1,3.92-.48c1.31-.14,2.63-.1,3.94-.15l3.74,0a48.57,48.57,0,0,0,14.12-2,58.8,58.8,0,0,0,13.29-5.94c4.37-2.47,8.72-5,13.2-7.25-3.87,3.22-7.86,6.25-11.84,9.3a61.63,61.63,0,0,1-6.38,4.27,49.39,49.39,0,0,1-7,3.32,46.19,46.19,0,0,1-15.33,3.07c-1.3,0-2.53,0-3.77.07s-2.37.06-3.55.22-2.35.22-3.51.46c-.59.11-1.17.2-1.75.32l-1.73.42c-9.25,2.24-17.66,7.39-24.89,13.87A97.28,97.28,0,0,0,297,550.38C293.74,554.19,290.5,558,287.08,561.71Z"/><path class="cls-3" d="M291,560.58c2.23-2.25,4.59-4.32,6.95-6.39a47.13,47.13,0,0,1,7.88-5.55A44.41,44.41,0,0,1,324.51,543c1.61-.13,3.38-.09,4.77-.12s3-.12,4.43-.27a54.32,54.32,0,0,0,8.78-1.66c1.44-.39,2.88-.87,4.4-1.34s3-.92,4.5-1.36c3-.84,6-1.7,9.14-2.35-2.69,1.68-5.46,3.15-8.23,4.63-1.39.72-2.79,1.44-4.19,2.13s-2.83,1.4-4.35,2a43.48,43.48,0,0,1-9.42,2.64,44.69,44.69,0,0,1-4.9.5c-1.72.06-3.08.05-4.58.18a54.78,54.78,0,0,0-17.27,4.18,73,73,0,0,0-8.19,4C296.65,557.7,293.91,559.23,291,560.58Z"/><polygon class="cls-4" points="193.1 236.98 108.92 338.08 107.92 217.89 192.1 168.94 193.1 236.98"/><path class="cls-5" d="M108.93,338.83a.78.78,0,0,1-.26,0,.76.76,0,0,1-.49-.7l-1-120.19a.75.75,0,0,1,.37-.66l84.18-49a.73.73,0,0,1,.74,0,.76.76,0,0,1,.39.64l1,68.05a.72.72,0,0,1-.18.49L109.5,338.56A.76.76,0,0,1,108.93,338.83Zm-.25-120.51,1,117.71,82.69-99.31-1-66.49Z"/><path class="cls-6" d="M201.32,561.93c-.51,4.71,10.64,8.87,29.24,10.15,23.78,1.65,50.58-2.05,60-8.2,2.34-1.53,3.4-3.07,3.3-4.55V465l-92.54,2.6Z"/><path class="cls-5" d="M242.08,573.22c-3.89,0-7.77-.13-11.58-.39-14.8-1-25.58-4-28.84-7.85a4.11,4.11,0,0,1-1.09-3.09V467.6a.75.75,0,0,1,.73-.75l92.53-2.6a.77.77,0,0,1,.55.21.8.8,0,0,1,.23.54v94.33c.12,1.76-1.11,3.52-3.64,5.17C283,569.75,262.51,573.22,242.08,573.22Zm-40-104.89V562a2.62,2.62,0,0,0,.74,2c2.95,3.54,13.61,6.34,27.8,7.33,23.5,1.62,50.22-2,59.54-8.09,1.41-.92,3.06-2.34,3-3.87V465.77Zm-.75,93.6h0Z"/><path class="cls-6" d="M182.67,473.22c-.72,5.93,15.06,11.16,41.39,12.78,33.68,2.08,71.62-2.58,85-10.33,3.32-1.92,4.81-3.86,4.67-5.73V410.23l-131,3.28Z"/><path class="cls-5" d="M240.4,487.24c-5.5,0-11-.15-16.38-.49-21.43-1.32-36.73-5.1-40.91-10.13a4.52,4.52,0,0,1-1.19-3.45V413.51a.75.75,0,0,1,.74-.75l131-3.28a.85.85,0,0,1,.54.22.72.72,0,0,1,.23.53v59.71c.17,2.18-1.53,4.34-5,6.38C298.09,482.89,269.26,487.24,240.4,487.24Zm-57-73v59.07a3,3,0,0,0,.84,2.35c3.87,4.65,19.14,8.32,39.85,9.6,33.37,2.06,71.29-2.54,84.54-10.24,2.93-1.7,4.41-3.44,4.29-5V411Zm-.75,59h0Z"/><polygon class="cls-4" points="209.83 484.65 216.5 465.52 222.43 485.9 209.83 484.65"/><path class="cls-5" d="M222.43,486.65h-.08l-12.59-1.24a.76.76,0,0,1-.56-.34.78.78,0,0,1-.08-.65l6.67-19.13a.75.75,0,0,1,.73-.51.76.76,0,0,1,.7.54l5.93,20.38a.76.76,0,0,1-.15.69A.74.74,0,0,1,222.43,486.65ZM210.85,484l10.55,1-5-17.05Z"/><polygon class="cls-4" points="280.47 483.66 282.84 465.52 287.96 482.37 280.47 483.66"/><path class="cls-5" d="M280.47,484.41a.73.73,0,0,1-.52-.21.76.76,0,0,1-.23-.64l2.38-18.13a.74.74,0,0,1,.68-.65.74.74,0,0,1,.78.53l5.12,16.84a.76.76,0,0,1-.59,1l-7.49,1.29Zm2.66-15.34-1.79,13.68,5.65-1Z"/><g class="cls-7"><polygon class="cls-8" points="209.83 484.65 216.5 465.52 222.43 485.9 209.83 484.65"/><path class="cls-5" d="M222.43,486.65h-.08l-12.59-1.24a.76.76,0,0,1-.56-.34.78.78,0,0,1-.08-.65l6.67-19.13a.75.75,0,0,1,.73-.51.76.76,0,0,1,.7.54l5.93,20.38a.76.76,0,0,1-.15.69A.74.74,0,0,1,222.43,486.65ZM210.85,484l10.55,1-5-17.05Z"/></g><g class="cls-7"><polygon class="cls-8" points="280.47 483.66 282.84 465.52 287.96 482.37 280.47 483.66"/><path class="cls-5" d="M280.47,484.41a.73.73,0,0,1-.52-.21.76.76,0,0,1-.23-.64l2.38-18.13a.74.74,0,0,1,.68-.65.74.74,0,0,1,.78.53l5.12,16.84a.76.76,0,0,1-.59,1l-7.49,1.29Zm2.66-15.34-1.79,13.68,5.65-1Z"/></g><path class="cls-3" d="M216.26,470.46c2.07,4.38,3.93,8.83,5.81,13.28.92,2.21,1.8,4.49,2.62,6.82a69.59,69.59,0,0,1,2,7.13A57.36,57.36,0,0,1,228,512.56a47.34,47.34,0,0,1-2.95,14.82c-.49,1.18-.93,2.37-1.52,3.5l-.85,1.72-1,1.65c-.62,1.12-1.4,2.14-2.11,3.19s-1.45,1.95-2.17,2.91a43.7,43.7,0,0,0-6.34,12.08,54.48,54.48,0,0,0-2.65,13.73c-.45,4.81-.88,9.61-1.54,14.41-.45-4.82-.67-9.64-.91-14.46a57.26,57.26,0,0,1,.1-7.4,45.36,45.36,0,0,1,1.26-7.38,41.56,41.56,0,0,1,6.24-13.76c.68-1,1.42-2,2.06-3s1.28-1.86,1.8-2.87l.84-1.48.74-1.53c.53-1,.9-2.08,1.33-3.13,3.24-8.51,3.7-18,2.45-27.23a98.77,98.77,0,0,0-3.08-13.86C218.53,479.86,217.29,475.19,216.26,470.46Z"/><path class="cls-3" d="M216.48,469.61c.48,3.27.72,6.51.94,9.78a44,44,0,0,1-.6,10,40.7,40.7,0,0,1-3,9.75,39.42,39.42,0,0,1-5.39,8.75l-1.94.92,1.94-.92a48.53,48.53,0,0,0-7.66,13.33c-.91,2.48-1.88,5.09-2.91,7.6s-2.09,5-3.3,7.53c.26-2.75.68-5.45,1.12-8.15s.93-5.33,1.53-8.06a39.1,39.1,0,0,1,7.35-15.36l1.93-.92-1.93.92a46.53,46.53,0,0,0,4.88-7.72,51.18,51.18,0,0,0,3.37-8.6,68.2,68.2,0,0,0,2-9.21C215.3,476.07,215.76,472.83,216.48,469.61Z"/><path class="cls-6" d="M182.09,463.62c-.73,5.93,15,11.16,41.38,12.78,33.68,2.08,71.62-2.58,85-10.33,3.32-1.92,4.81-3.86,4.67-5.73V429l-131,3.28Z"/><path class="cls-5" d="M239.81,477.64c-5.5,0-11-.16-16.38-.49-21.43-1.32-36.73-5.1-40.91-10.13a4.52,4.52,0,0,1-1.19-3.45V432.26a.75.75,0,0,1,.74-.75l131-3.28a.82.82,0,0,1,.54.22.72.72,0,0,1,.23.53v31.36c.17,2.18-1.53,4.34-5,6.38C297.5,473.29,268.67,477.64,239.81,477.64Zm-57-44.65v30.72a3,3,0,0,0,.84,2.35c3.87,4.65,19.14,8.32,39.85,9.6,33.37,2,71.29-2.54,84.54-10.24,2.93-1.7,4.41-3.44,4.29-5V429.75Zm-.75,30.63h0Z"/><polygon class="cls-6" points="108.39 443.98 307.63 462.05 385.63 405.87 192.81 394.91 108.39 443.98"/><path class="cls-5" d="M307.63,462.8h-.06L108.32,444.72a.75.75,0,0,1-.67-.58.75.75,0,0,1,.36-.81l84.43-49.06a.69.69,0,0,1,.42-.1l192.82,10.95a.75.75,0,0,1,.67.54.74.74,0,0,1-.28.82l-78,56.18A.74.74,0,0,1,307.63,462.8ZM110.8,443.44l196.62,17.84,76.06-54.78L193,395.68Z"/><path class="cls-4" d="M300.46,430.27c-11.72,7.75-45,12.4-74.63,10.33-23.13-1.62-37-6.86-36.35-12.79.18-1.72,1.59-3.51,4.36-5.28,12.2-7.81,46-12.3,75.29-10.1,21.77,1.63,35.05,6.52,35.43,12.11C304.68,426.4,303.37,428.34,300.46,430.27Z"/><path class="cls-5" d="M240.17,441.84c-4.83,0-9.66-.16-14.39-.49-18.31-1.28-31.66-4.94-35.72-9.79a5.05,5.05,0,0,1-1.33-3.83c.22-2,1.8-4,4.71-5.83,12.26-7.85,46.23-12.44,75.74-10.22,21.87,1.64,35.71,6.55,36.12,12.81.15,2.21-1.34,4.36-4.43,6.4C290.92,437.47,265.55,441.84,240.17,441.84Zm13.55-29.22c-24.8,0-49.52,4.17-59.48,10.54-2.47,1.58-3.86,3.22-4,4.73a3.65,3.65,0,0,0,1,2.71c3.74,4.47,17,8,34.67,9.25,29.28,2,62.55-2.53,74.16-10.21h0c1.79-1.18,3.9-3,3.77-5.05-.3-4.41-11.15-9.64-34.74-11.41C264,412.8,258.88,412.62,253.72,412.62Z"/><path class="cls-9" d="M207.83,416.74l-18,12.58a5.66,5.66,0,0,0,1.09,1.68l22.27-15.52C211.29,415.87,209.52,416.3,207.83,416.74Z"/><path class="cls-9" d="M227.85,413.09l-31.08,21.65c.71.3,1.47.59,2.28.88l33-23C230.62,412.77,229.22,412.92,227.85,413.09Z"/><path class="cls-9" d="M244.54,411.77l-37.4,26.06c.89.19,1.81.37,2.75.54l38.35-26.72C247,411.68,245.77,411.72,244.54,411.77Z"/><path class="cls-9" d="M259.5,411.65l-40.26,28.06,3.06.31,40.54-28.25C261.73,411.72,260.62,411.68,259.5,411.65Z"/><path class="cls-9" d="M273.12,412.47l-40.44,28.19c1.12,0,2.24.07,3.37.09l40.1-27.95Z"/><path class="cls-9" d="M285.41,414.22l-38,26.46c1.24,0,2.47-.08,3.7-.14l37-25.75Z"/><path class="cls-9" d="M296.06,417.12l-32.2,22.44c1.43-.16,2.83-.32,4.21-.5l30.17-21C297.56,417.72,296.83,417.42,296.06,417.12Z"/><path class="cls-9" d="M304.56,424a4.31,4.31,0,0,0-.79-1.89L283.2,436.39c2-.46,3.85-.95,5.61-1.47Z"/><polygon class="cls-3" points="282.24 476.04 285.13 475.63 286.06 478.66 281.73 479.59 282.24 476.04"/><path class="cls-5" d="M240.17,441.84c-4.83,0-9.66-.16-14.39-.49-18.31-1.28-31.66-4.94-35.72-9.79a5.05,5.05,0,0,1-1.33-3.83c.22-2,1.8-4,4.71-5.83,12.26-7.85,46.23-12.44,75.74-10.22,21.87,1.64,35.71,6.55,36.12,12.81.15,2.21-1.34,4.36-4.43,6.4C290.92,437.47,265.55,441.84,240.17,441.84Zm13.55-29.22c-24.8,0-49.52,4.17-59.48,10.54-2.47,1.58-3.86,3.22-4,4.73a3.65,3.65,0,0,0,1,2.71c3.74,4.47,17,8,34.67,9.25,29.28,2,62.55-2.53,74.16-10.21h0c1.79-1.18,3.9-3,3.77-5.05-.3-4.41-11.15-9.64-34.74-11.41C264,412.8,258.88,412.62,253.72,412.62Z"/><polygon class="cls-4" points="385.23 406.34 191.1 383.94 192.1 169.03 384.35 181.1 385.23 406.34"/><path class="cls-5" d="M385.23,407.09h-.08L191,384.69a.76.76,0,0,1-.66-.75l1-214.92a.75.75,0,0,1,.24-.54.69.69,0,0,1,.56-.2L384.4,180.35a.75.75,0,0,1,.7.75L386,406.34a.77.77,0,0,1-.25.56A.76.76,0,0,1,385.23,407.09ZM191.85,383.27,384.48,405.5l-.88-223.7-190.75-12Z"/><polygon class="cls-9" points="196.91 170.25 192.39 173.09 192.39 175.52 200.14 170.43 196.91 170.25"/><polygon class="cls-9" points="210.58 171.03 191.39 184.4 191.39 186.84 213.81 171.21 210.58 171.03"/><polygon class="cls-9" points="224.25 171.81 191.39 194.71 191.39 197.15 227.49 172 224.25 171.81"/><polygon class="cls-9" points="237.93 172.6 191.39 205.03 191.39 207.46 241.16 172.78 237.93 172.6"/><polygon class="cls-9" points="251.61 173.38 191.39 215.34 191.39 217.78 254.84 173.56 251.61 173.38"/><polygon class="cls-9" points="265.28 174.16 191.39 225.65 191.39 228.09 268.51 174.35 265.28 174.16"/><polygon class="cls-9" points="278.96 174.95 191.39 235.96 191.39 238.4 282.19 175.13 278.96 174.95"/><polygon class="cls-9" points="292.63 175.73 191.39 246.28 191.39 248.72 295.86 175.92 292.63 175.73"/><polygon class="cls-9" points="306.31 176.51 191.39 256.59 191.39 259.03 309.54 176.7 306.31 176.51"/><polygon class="cls-9" points="319.98 177.3 191.39 266.9 191.39 269.34 323.21 177.48 319.98 177.3"/><polygon class="cls-9" points="333.66 178.08 191.39 277.22 191.39 279.65 336.89 178.27 333.66 178.08"/><polygon class="cls-9" points="347.33 178.87 191.39 287.53 191.39 289.97 350.56 179.05 347.33 178.87"/><polygon class="cls-9" points="361.01 179.65 191.39 297.84 191.39 300.28 364.24 179.84 361.01 179.65"/><polygon class="cls-9" points="374.68 180.43 191.39 308.16 191.39 310.59 377.91 180.62 374.68 180.43"/><polygon class="cls-9" points="384.64 183.81 191.39 318.47 191.39 320.91 384.64 186.24 384.64 183.81"/><polygon class="cls-9" points="384.64 194.12 191.39 328.78 191.39 331.22 384.64 196.56 384.64 194.12"/><polygon class="cls-9" points="384.64 204.43 191.39 339.1 191.39 341.53 384.64 206.87 384.64 204.43"/><polygon class="cls-9" points="384.64 214.74 191.39 349.41 191.39 351.85 384.64 217.18 384.64 214.74"/><polygon class="cls-9" points="384.64 225.06 191.39 359.72 191.39 362.16 384.64 227.49 384.64 225.06"/><polygon class="cls-9" points="384.64 235.37 191.39 370.04 191.39 372.47 384.64 237.81 384.64 235.37"/><polygon class="cls-9" points="384.64 245.68 191.39 380.35 191.39 382.79 384.64 248.12 384.64 245.68"/><polygon class="cls-9" points="384.64 256 199.4 385.08 202.26 385.53 384.64 258.43 384.64 256"/><polygon class="cls-9" points="384.64 266.29 211.48 386.96 214.37 387.4 384.64 268.75 384.64 266.29"/><polygon class="cls-9" points="384.64 276.6 223.59 388.83 226.48 389.28 384.64 279.06 384.64 276.6"/><polygon class="cls-9" points="384.64 286.91 235.7 390.71 238.56 391.15 384.64 289.35 384.64 286.91"/><polygon class="cls-9" points="384.64 297.23 247.81 392.58 250.66 393.03 384.64 299.66 384.64 297.23"/><polygon class="cls-9" points="384.64 307.54 259.91 394.46 262.77 394.9 384.64 309.98 384.64 307.54"/><polygon class="cls-9" points="384.64 317.85 272.02 396.33 274.88 396.78 384.64 320.29 384.64 317.85"/><polygon class="cls-9" points="384.64 328.17 284.13 398.21 286.99 398.65 384.64 330.6 384.64 328.17"/><polygon class="cls-9" points="384.64 338.48 296.24 400.09 299.1 400.53 384.64 340.92 384.64 338.48"/><polygon class="cls-9" points="384.64 348.79 308.35 401.96 311.21 402.4 384.64 351.23 384.64 348.79"/><polygon class="cls-9" points="384.64 359.11 320.45 403.84 323.31 404.28 384.64 361.54 384.64 359.11"/><polygon class="cls-9" points="384.64 369.42 332.56 405.71 335.42 406.16 384.64 371.86 384.64 369.42"/><polygon class="cls-9" points="384.64 379.73 344.67 407.59 347.53 408.03 384.64 382.17 384.64 379.73"/><polygon class="cls-9" points="384.64 390.05 356.78 409.46 359.64 409.91 384.64 392.48 384.64 390.05"/><polygon class="cls-9" points="384.64 400.36 368.89 411.34 371.75 411.78 384.64 402.8 384.64 400.36"/><polygon class="cls-9" points="385.64 406.11 385.64 403.67 381.99 406.22 384.85 406.66 385.64 406.11"/><path class="cls-5" d="M385.35,406.91h-.09L191,384.69a.76.76,0,0,1-.67-.75l1-214.92a.75.75,0,0,1,.24-.54.69.69,0,0,1,.56-.2L384.4,180.35a.75.75,0,0,1,.7.75l1,225.05a.75.75,0,0,1-.75.76Zm-193.5-23.64,192.74,22.05-1-223.52-190.75-12Z"/><path class="cls-10" d="M320.6,121.53a6.5,6.5,0,0,1-6.32-5c-2.64-11-13.64-40.47-32.55-44.14-16.44-3.2-37.76,12.85-61.66,46.41a6.5,6.5,0,1,1-10.59-7.54C237,72.68,262.12,55.31,284.24,59.63c31,6.05,42.23,52,42.69,53.9a6.51,6.51,0,0,1-6.33,8Z"/><path class="cls-11" d="M212.52,106.65c1.31-1.07,6-4.86,7.41-5.91a4.89,4.89,0,0,1,1.94-.86,8.6,8.6,0,0,1,5.22.61c1.67.76,3.39,1.24,2.88,3.42a.22.22,0,0,1,0,.08c-.24.93-.42,1.66-.5,2-7.17,30.5,4.95,65.76,26.65,64.29,7.67-.52,16.35-5.46,24.73-13.09A103.86,103.86,0,0,0,290,147.6c10.39-12.22,19.48-27.86,24.39-43.08a8.87,8.87,0,0,1,3.89-4.26,18.31,18.31,0,0,1,1.7-1,15.59,15.59,0,0,1,5.72,2.23c15.65,10.55,56.08,70.75,59.46,79.86l-95.45-5-123.46-6.3S182.48,131.26,212.52,106.65Z"/><path class="cls-5" d="M385.19,182.15h0l-95.45-5-123.46-6.3a.75.75,0,0,1-.6-.35.73.73,0,0,1,0-.69c.16-.39,16.62-39.35,46.45-63.79h0c1.29-1,6-4.86,7.43-5.92a5.69,5.69,0,0,1,2.23-1,9.36,9.36,0,0,1,5.7.65l.48.22c1.52.66,3.42,1.49,2.82,4.06-.25,1-.43,1.74-.5,2.06-4.77,20.24-.87,43.6,9.26,55.54,4.7,5.54,10.46,8.24,16.6,7.83,7.13-.48,15.53-4.94,24.27-12.89a103.07,103.07,0,0,0,9.13-9.51C300.13,134.57,309,119,313.7,104.29a9.54,9.54,0,0,1,4.2-4.66c.51-.32,1.09-.65,1.77-1a.73.73,0,0,1,.48-.07,16.38,16.38,0,0,1,6,2.35c15.86,10.69,56.14,70.51,59.75,80.22a.78.78,0,0,1-.1.71A.76.76,0,0,1,385.19,182.15ZM167.4,169.46l122.38,6.24L384,180.59c-5.65-12.18-44.06-68.54-58.73-78.42a14.41,14.41,0,0,0-5.19-2.07,15.76,15.76,0,0,0-1.41.8,8.2,8.2,0,0,0-3.58,3.85c-4.79,14.85-13.73,30.64-24.53,43.34a105.94,105.94,0,0,1-9.26,9.64c-9,8.18-17.7,12.78-25.18,13.28-6.65.45-12.82-2.44-17.84-8.36-10.58-12.47-14.52-35.85-9.59-56.85.08-.33.27-1.06.5-2,.3-1.3-.26-1.67-1.95-2.41l-.5-.22a7.89,7.89,0,0,0-4.75-.56,4.3,4.3,0,0,0-1.65.73c-1.38,1.06-6.11,4.84-7.39,5.89C186.09,129.27,170.16,163.27,167.4,169.46Z"/><path class="cls-9" d="M227.23,101a8.89,8.89,0,0,0-1-.38l-25.67,17.91q-3,3.17-5.71,6.43l33.57-23.44C228,101.29,227.63,101.13,227.23,101Z"/><path class="cls-9" d="M229.08,108.88l-46.5,32.46q-1.5,2.25-2.87,4.43l48.87-34.1C228.73,110.73,228.89,109.8,229.08,108.88Z"/><path class="cls-9" d="M227.66,120.18,172.07,159c-.73,1.37-1.39,2.65-2,3.82l57.48-40.12C227.59,121.85,227.62,121,227.66,120.18Z"/><path class="cls-9" d="M227.76,130.42l-57.83,40.37,3.25.17L228,132.72C227.88,132,227.82,131.19,227.76,130.42Z"/><path class="cls-9" d="M229,139.85,183.7,171.49l3.25.17L229.49,142C229.32,141.27,229.17,140.57,229,139.85Z"/><path class="cls-9" d="M231.36,148.54,197.47,172.2l3.25.16,31.35-21.88C231.82,149.84,231.59,149.19,231.36,148.54Z"/><path class="cls-9" d="M234.83,156.43,211.24,172.9l3.25.16,21.35-14.9C235.5,157.6,235.16,157,234.83,156.43Z"/><path class="cls-9" d="M326.72,102.61l-15.21,10.61c-.49,1.17-1,2.34-1.52,3.5l18.36-12.82C327.79,103.43,327.24,103,326.72,102.61Z"/><path class="cls-9" d="M239.69,163.35,225,173.6l3.25.17,12.84-9C240.62,164.34,240.15,163.86,239.69,163.35Z"/><path class="cls-9" d="M333.18,108.41l-29.59,20.66c-.84,1.42-1.7,2.84-2.58,4.23l33.58-23.44Z"/><path class="cls-9" d="M238.78,174.3l3.25.17,6.81-4.76a17.86,17.86,0,0,1-2.17-.92Z"/><path class="cls-9" d="M339,114.67l-50.37,35.15a99.39,99.39,0,0,1-7.5,7.67l59.19-41.31Z"/><path class="cls-9" d="M252.54,175l3.26.16,10.37-7.24a31.42,31.42,0,0,1-6.88,2.37Z"/><path class="cls-9" d="M344.5,121.13l-78.19,54.58,3.26.16,76.21-53.19C345.35,122.16,344.93,121.64,344.5,121.13Z"/><path class="cls-9" d="M349.83,127.73l-69.75,48.68,3.26.17,67.73-47.28C350.66,128.77,350.25,128.25,349.83,127.73Z"/><path class="cls-9" d="M355,134.41l-61.12,42.67,3.3.13,59-41.2C355.84,135.47,355.43,134.94,355,134.41Z"/><path class="cls-9" d="M360.11,141.18l-52.25,36.47,3.3.13,50.14-35C360.91,142.25,360.51,141.71,360.11,141.18Z"/><path class="cls-9" d="M365.1,148l-43.28,30.21,3.3.13,41.15-28.72Z"/><path class="cls-9" d="M370,154.91l-34.21,23.88,3.29.14,32.07-22.38Z"/><path class="cls-9" d="M374.79,161.88l-25.06,17.48,3.3.14,22.87-16C375.54,163,375.16,162.44,374.79,161.88Z"/><path class="cls-9" d="M379.45,168.93l-15.76,11,3.3.13,13.54-9.45Z"/><path class="cls-9" d="M383.9,176.14l-6.25,4.37,3.29.13,3.95-2.75C384.6,177.35,384.27,176.77,383.9,176.14Z"/><path class="cls-5" d="M385.19,182.15h0l-95.45-5-123.46-6.3a.75.75,0,0,1-.6-.35.73.73,0,0,1,0-.69c.16-.39,16.62-39.35,46.45-63.79h0c1.29-1,6-4.86,7.43-5.92a5.69,5.69,0,0,1,2.23-1,9.36,9.36,0,0,1,5.7.65l.48.22c1.52.66,3.42,1.49,2.82,4.06-.25,1-.43,1.74-.5,2.06-4.77,20.24-.87,43.6,9.26,55.54,4.7,5.54,10.46,8.24,16.6,7.83,7.13-.48,15.53-4.94,24.27-12.89a103.07,103.07,0,0,0,9.13-9.51C300.13,134.57,309,119,313.7,104.29a9.54,9.54,0,0,1,4.2-4.66c.51-.32,1.09-.65,1.77-1a.73.73,0,0,1,.48-.07,16.38,16.38,0,0,1,6,2.35c15.86,10.69,56.14,70.51,59.75,80.22a.78.78,0,0,1-.1.71A.76.76,0,0,1,385.19,182.15ZM167.4,169.46l122.38,6.24L384,180.59c-5.65-12.18-44.06-68.54-58.73-78.42a14.41,14.41,0,0,0-5.19-2.07,15.76,15.76,0,0,0-1.41.8,8.2,8.2,0,0,0-3.58,3.85c-4.79,14.85-13.73,30.64-24.53,43.34a105.94,105.94,0,0,1-9.26,9.64c-9,8.18-17.7,12.78-25.18,13.28-6.65.45-12.82-2.44-17.84-8.36-10.58-12.47-14.52-35.85-9.59-56.85.08-.33.27-1.06.5-2,.3-1.3-.26-1.67-1.95-2.41l-.5-.22a7.89,7.89,0,0,0-4.75-.56,4.3,4.3,0,0,0-1.65.73c-1.38,1.06-6.11,4.84-7.39,5.89C186.09,129.27,170.16,163.27,167.4,169.46Z"/><path class="cls-10" d="M179.83,133a6.36,6.36,0,0,1-3-.72,6.5,6.5,0,0,1-2.84-8.74c19.47-38.14,37.13-55.42,54-52.85,24.71,3.78,33.18,49.51,34.07,54.71a6.5,6.5,0,0,1-12.82,2.19c-2.32-13.58-11.06-42.19-23.22-44-4.76-.72-18.2,2.31-40.46,45.91A6.51,6.51,0,0,1,179.83,133Z"/><polygon class="cls-6" points="108.74 217.24 306.99 236.32 385.6 180.18 192.17 169.18 108.74 217.24"/><path class="cls-5" d="M307,237.07h-.07L108.67,218a.75.75,0,0,1-.3-1.4l83.43-48.06a.72.72,0,0,1,.41-.1l193.43,11a.75.75,0,0,1,.68.54.77.77,0,0,1-.28.82l-78.61,56.14A.77.77,0,0,1,307,237.07ZM111.15,216.72l195.63,18.83,76.65-54.75L192.35,169.94Z"/><path class="cls-3" d="M293.84,161.07c4.41-4.92,9-9.68,13.52-14.44,1.13-1.19,2.37-2.34,3.55-3.51s2.49-2.23,3.74-3.35,2.6-2.11,3.94-3.12,2.71-2,4.13-2.89a90.89,90.89,0,0,1,17.95-9.16,88,88,0,0,1,29.7-5.72c1.69,0,3.37-.07,5,0h4.87a98,98,0,0,0,19.13-2.16,103.24,103.24,0,0,0,18.5-5.87c6.12-2.45,12.23-4.91,18.43-7.17-5.74,3.27-11.57,6.33-17.4,9.4-2.92,1.53-6,3-9.07,4.23a88.11,88.11,0,0,1-9.53,3.2,90,90,0,0,1-19.93,3.1c-1.69.07-3.37.08-5,.09s-3.27,0-4.86.09a93.13,93.13,0,0,0-9.57.83A91.37,91.37,0,0,0,342.28,129a99.9,99.9,0,0,0-17.51,8A101,101,0,0,0,309,148.4C304,152.67,299,157,293.84,161.07Z"/><path class="cls-3" d="M299.5,159.94c3.62-2.4,7.32-4.6,11-6.8a80.83,80.83,0,0,1,11.86-5.6,83,83,0,0,1,25.81-5.23c1.1-.05,2.21-.05,3.31-.06l3.17,0c2.1,0,4.19-.13,6.28-.29a112.22,112.22,0,0,0,12.48-1.66c2.07-.38,4.12-.9,6.24-1.35l6.32-1.35c4.23-.83,8.46-1.68,12.75-2.31-4,1.7-8,3.18-12.09,4.67s-8.05,2.92-12.31,4.14a79.9,79.9,0,0,1-12.94,2.58c-2.19.26-4.39.42-6.59.51-1.09,0-2.24,0-3.28.07s-2.09,0-3.13.09a109.49,109.49,0,0,0-24.8,3.92,121.41,121.41,0,0,0-12,4.1C307.6,156.92,303.6,158.53,299.5,159.94Z"/><path class="cls-6" d="M207.84,201.7c-.51,4.71,10.63,8.87,29.23,10.16,23.79,1.64,50.58-2.05,60-8.21,2.34-1.53,3.39-3.07,3.29-4.55V153.83l-92.53,2.6Z"/><path class="cls-5" d="M248.6,213c-3.89,0-7.78-.12-11.58-.38-14.8-1-25.59-4-28.85-7.86a4.14,4.14,0,0,1-1.08-3.09V156.43a.74.74,0,0,1,.73-.75l92.53-2.6a.72.72,0,0,1,.55.21.77.77,0,0,1,.22.54V199.1c.12,1.77-1.1,3.53-3.63,5.18C289.46,209.52,269,213,248.6,213Zm-40-55.83v44.62a2.58,2.58,0,0,0,.74,2c2.95,3.53,13.6,6.34,27.79,7.32,23.52,1.62,50.23-2,59.55-8.09,1.4-.91,3.06-2.33,2.95-3.87V154.6Zm-.75,44.54h0Z"/><path class="cls-4" d="M297.08,158.38c-9.43,6.15-36.22,9.85-60,8.2-18.6-1.28-29.74-5.44-29.23-10.15.15-1.37,1.28-2.79,3.51-4.2,9.8-6.2,37-9.76,60.53-8,17.51,1.3,28.19,5.18,28.49,9.62C300.47,155.31,299.42,156.85,297.08,158.38Z"/><path class="cls-5" d="M248.6,167.72c-3.89,0-7.78-.13-11.58-.39-14.8-1-25.59-4-28.85-7.85a4.16,4.16,0,0,1-1.08-3.13c.18-1.65,1.48-3.25,3.86-4.75,9.88-6.25,37.24-9.9,61-8.14,17.66,1.31,28.84,5.27,29.18,10.32.12,1.81-1.1,3.57-3.63,5.22h0C289.46,164.25,269,167.72,248.6,167.72Zm10.89-23.2c-19.91,0-39.75,3.3-47.74,8.35-1.95,1.23-3,2.49-3.16,3.64a2.58,2.58,0,0,0,.74,2c2.95,3.53,13.6,6.33,27.79,7.32,23.52,1.62,50.23-2,59.55-8.09h0c1.4-.92,3.06-2.34,2.95-3.87-.22-3.32-9-7.53-27.79-8.92C267.78,144.66,263.63,144.52,259.49,144.52Z"/><path class="cls-9" d="M222.39,148.05l-14,9.78a4.74,4.74,0,0,0,1.13,1.65l18.19-12.67Q224.88,147.38,222.39,148.05Z"/><path class="cls-9" d="M242,144.69l-26.15,18.22c.75.26,1.56.52,2.41.76L246,144.34C244.66,144.44,243.33,144.55,242,144.69Z"/><path class="cls-9" d="M258.05,143.82,227,165.49c.94.15,1.92.28,2.92.41l31.68-22.08Z"/><path class="cls-9" d="M272.23,144.26l-32.32,22.52,3.3.14,32.13-22.4C274.33,144.42,273.29,144.33,272.23,144.26Z"/><path class="cls-9" d="M284.78,145.82l-30.29,21.11c1.24,0,2.48-.08,3.71-.15l29.28-20.4C286.62,146.18,285.72,146,284.78,145.82Z"/><path class="cls-9" d="M295.29,148.81l-24.18,16.85c1.49-.18,2.95-.39,4.38-.61l21.82-15.21A19.92,19.92,0,0,0,295.29,148.81Z"/><path class="cls-9" d="M300.24,155.67l-7,4.85a25,25,0,0,0,4.12-2.1A8.5,8.5,0,0,0,300.24,155.67Z"/><path class="cls-5" d="M248.6,167.72c-3.89,0-7.78-.13-11.58-.39-14.8-1-25.59-4-28.85-7.85a4.16,4.16,0,0,1-1.08-3.13c.18-1.65,1.48-3.25,3.86-4.75,9.88-6.25,37.24-9.9,61-8.14,17.66,1.31,28.84,5.27,29.18,10.32.12,1.81-1.1,3.57-3.63,5.22h0C289.46,164.25,269,167.72,248.6,167.72Zm10.89-23.2c-19.91,0-39.75,3.3-47.74,8.35-1.95,1.23-3,2.49-3.16,3.64a2.58,2.58,0,0,0,.74,2c2.95,3.53,13.6,6.33,27.79,7.32,23.52,1.62,50.23-2,59.55-8.09h0c1.4-.92,3.06-2.34,2.95-3.87-.22-3.32-9-7.53-27.79-8.92C267.78,144.66,263.63,144.52,259.49,144.52Z"/><path class="cls-6" d="M263.72,126c-1-1.27-4.52-5.62-5.53-6.79a2.82,2.82,0,0,0-1.52-.92,6.35,6.35,0,0,0-4.63.93c-1.59,1-3.15,1.59-3.21,4.1v.09c0,1.09,0,1.94,0,2.32-.75,40.32-23.62,97.28-44.08,91.18-17.57-5.23-24.39-54.71-19-90.27a6.27,6.27,0,0,0-9-6.37c-41.88,22.95-68.73,97.33-68.73,97.33L307.7,236S290.23,159.65,263.72,126Z"/><path class="cls-5" d="M307.7,236.79h-.07L107.86,218.29a.75.75,0,0,1-.57-.34.77.77,0,0,1-.07-.66c.27-.74,27.43-74.91,69.08-97.73a6.78,6.78,0,0,1,7.18.49,6.88,6.88,0,0,1,3,6.66c-5.45,36.15,2,84.52,18.5,89.43,3.5,1,7.23.14,11.1-2.69,15.83-11.57,31.4-54.23,32-87.78,0-.38,0-1.23,0-2.31v-.14c.06-2.66,1.69-3.6,3.12-4.43l.46-.26a7.1,7.1,0,0,1,5.2-1,3.59,3.59,0,0,1,1.9,1.16c1,1.21,4.59,5.59,5.55,6.82h0c26.31,33.44,43.95,109.61,44.12,110.38a.75.75,0,0,1-.16.66A.78.78,0,0,1,307.7,236.79ZM109,216.89l197.76,18.3c-2.18-9.14-19.14-77.69-43.6-108.78h0c-1-1.21-4.47-5.56-5.51-6.77a2.26,2.26,0,0,0-1.14-.68,5.68,5.68,0,0,0-4.05.86l-.48.27c-1.35.79-2.33,1.35-2.37,3.2a.53.53,0,0,1,0,.12c0,1,0,1.9,0,2.29-.63,33.93-16.49,77.16-32.64,89-4.26,3.12-8.44,4.1-12.41,2.92-17.65-5.26-25.13-54.14-19.55-91.1a5.39,5.39,0,0,0-2.34-5.2,5.3,5.3,0,0,0-5.6-.4C138.36,142.06,112.22,208.32,109,216.89Z"/><path class="cls-11" d="M259.7,116.68c1,0,6.83-.14,18,14.07,4.23,5.4,8.22,11.58,12.22,17.47,10.68,15.76,21.37,29.51,36.7,21.12,20.4-11.17,6.17-44-8.42-68.45.53-.34,1.11-.66,1.7-1a15.43,15.43,0,0,1,5.72,2.24c15.66,10.55,56.67,69,60,78.14a1,1,0,0,1-.46,1.17L307.7,235.59a338.84,338.84,0,0,0-18.08-58.52c-3-7.09-6-13.51-8.91-19.27-13.21-25.92-25-39.69-25-39.69A17,17,0,0,1,259.7,116.68Z"/><path class="cls-5" d="M307.7,236.34a.65.65,0,0,1-.27-.05.72.72,0,0,1-.46-.54,340.52,340.52,0,0,0-18.05-58.39c-2.77-6.63-5.76-13.1-8.88-19.22-13-25.52-24.78-39.41-24.9-39.55A.73.73,0,0,1,255,118a.72.72,0,0,1,.41-.52c.52-.25,3.17-1.5,4.31-1.5v.75l0-.75h0c4.68,0,11.26,5.1,18.53,14.36,3.4,4.34,6.68,9.23,9.86,14,.8,1.19,1.59,2.38,2.39,3.55,10.94,16.14,21.18,28.85,35.72,20.88a17.68,17.68,0,0,0,8.91-11.26c4.12-15.13-7.31-38.89-17.62-56.15a.76.76,0,0,1,.24-1c.51-.32,1.09-.64,1.77-1a.82.82,0,0,1,.49-.06,16.06,16.06,0,0,1,6,2.35c15.94,10.73,57,69.49,60.34,78.5a1.7,1.7,0,0,1-.81,2.09l-77.42,54.07A.75.75,0,0,1,307.7,236.34Zm-50.79-118c2.62,3.24,13.09,16.74,24.47,39.07,3.14,6.16,6.14,12.67,8.93,19.34a341.89,341.89,0,0,1,17.89,57.54l76.56-53.47c.24-.15.21-.24.19-.29-3.32-8.93-44-67.15-59.77-77.78a14.51,14.51,0,0,0-5.19-2.07l-.79.42c10.36,17.46,21.61,41.22,17.4,56.68A19.2,19.2,0,0,1,327,170c-15.63,8.55-26.74-5.22-37.68-21.36-.8-1.17-1.6-2.36-2.4-3.55-3.16-4.71-6.42-9.57-9.79-13.88-9.76-12.44-15.38-13.78-17.35-13.78h0A11.15,11.15,0,0,0,256.91,118.38Z"/><polygon class="cls-4" points="385.7 405.95 307.7 484.74 307.7 235.59 385.7 180.56 385.7 405.95"/><path class="cls-5" d="M307.7,485.49a.92.92,0,0,1-.28-.05.76.76,0,0,1-.47-.7V235.59a.75.75,0,0,1,.32-.61l78-55a.75.75,0,0,1,1.18.62V406a.78.78,0,0,1-.21.53l-78,78.79A.75.75,0,0,1,307.7,485.49ZM308.45,236V482.92L385,405.64V182ZM385.7,406h0Z"/><polygon class="cls-6" points="307.7 484.74 108.45 455.81 108.45 217.55 307.7 236.03 307.7 484.74"/><path class="cls-5" d="M307.7,485.49h-.11L108.34,456.55a.76.76,0,0,1-.64-.75V217.55A.75.75,0,0,1,108,217a.74.74,0,0,1,.57-.19l199.25,18.49a.74.74,0,0,1,.68.75v248.7a.73.73,0,0,1-.26.57A.72.72,0,0,1,307.7,485.49ZM109.2,455.16,307,483.88V236.72L109.2,218.37Z"/><polygon class="cls-12" points="269.44 357.06 269.44 341.68 274.45 341.68 274.45 346.69 285.9 346.69 285.9 352.05 274.45 352.05 274.45 357.06 269.44 357.06"/><polygon class="cls-12" points="269.62 295.35 269.62 295.35 269.62 300 269.62 300 269.62 305.37 286.07 305.37 286.07 300 274.99 300 274.99 295.35 286.07 295.35 286.07 289.99 274.99 289.99 269.62 289.99 269.62 289.99 269.62 295.35"/><polygon class="cls-12" points="276.06 256 269.62 251.35 269.62 257.43 276.06 262.08 276.06 262.8 269.62 262.8 269.62 268.16 286.07 268.16 286.07 262.8 279.99 262.8 279.99 261.37 286.07 258.51 286.07 252.07 277.85 257.07 276.06 256"/><path class="cls-12" d="M269.62,276.39v5l16.45,7.16v-5.73l-2.86-.71V276l2.86-1.07v-5.72Zm9.66,4.3L275,278.9l4.3-1.43Z"/><path class="cls-12" d="M269.62,330.41v5l16.45,7.15v-5.72l-2.86-.72v-6.08l2.86-1.07v-5.72Zm9.66,4.29-4.3-1.79,4.3-1.43Z"/><path class="cls-12" d="M269.62,313.05v8.77h16.45v-5.36h-3.94v-3.41a6.25,6.25,0,0,0-6.26-6.25h0A6.25,6.25,0,0,0,269.62,313.05Zm8.23,1.05v2.36H274V314.1a1.94,1.94,0,0,1,3.88,0Z"/></svg>