<svg xmlns="http://www.w3.org/2000/svg" height="140.89" width="278.93" version="1.1" data-name="Слой 1" id="Слой_1"><defs id="defs1159"><style id="style1157">.cls-2{fill:#444}.cls-3{fill:#bfbfbf}</style></defs><path id="path1163" d="M81.64 37.02l21.1-5s11 52 53.25 28 10 46 10 46-92.43 7-95.44 7c-3 0-44.2-7-38.18-14 6.03-7 29.14-39 32.15-42 3.01-3 17.12-20 17.12-20z" fill="#ccc"/><path id="path1165" d="M70.6 113.8c-2.5 0-36.24-5.53-39.28-12.17a2.71 2.71 0 01.52-3.06c3-3.51 10.31-13.26 17.35-22.7 7.04-9.44 13.31-17.81 14.84-19.34 3-2.94 16.9-19.78 17-20a.83.83 0 01.41-.25l21.1-5a.77.77 0 01.57.1.74.74 0 01.33.48c.05.24 5.34 24.23 21.71 31.58 8.63 3.87 18.87 2.5 30.44-4.08 9.71-5.52 16.21-6.58 19.87-3.22 9.93 9.1-8 48.5-8.77 50.19a.78.78 0 01-.63.43c-3.74.3-92.46 7.05-95.47 7.05zm11.46-76.07c-1.65 2-14.1 17-17 19.86-1.45 1.45-7.89 10.06-14.69 19.18C43.31 86.23 36.01 96 32.95 99.55a1.24 1.24 0 00-.3 1.46c2.55 5.56 34.28 11.3 37.91 11.3 2.84 0 88-6.44 94.94-7 1.9-4.22 17.58-40.13 8.94-48.05-3.07-2.82-9.17-1.67-18.1 3.4-12 6.84-22.72 8.24-31.8 4.16-15.6-7-21.35-27.62-22.39-31.9z" class="cls-2"/><path id="path1167" d="M87.9 35.37l-13.27 9.2c-1.62 1.93-3.36 4-5 5.89L93.21 34.1z" class="cls-3"/><path id="path1169" d="M102.9 35.28L54.8 68.64 51 73.7l52.52-36.43-.63-2z" class="cls-3"/><path id="path1171" d="M105.93 43.49L38.7 90.13l-4 5.22 72.12-50c-.34-.64-.6-1.26-.88-1.86z" class="cls-3"/><path id="path1173" d="M109.95 51l-76 52.73a19.44 19.44 0 002 1.05l75.13-52.11c-.4-.55-.77-1.1-1.13-1.66z" class="cls-3"/><path id="path1175" d="M115.18 57.7l-71.8 49.8 2.46.73 70.81-49.11c-.5-.46-1-.93-1.47-1.42z" class="cls-3"/><path id="path1177" d="M122.2 63.15l-68 47.14 2.68.58 67.33-46.7c-.68-.31-1.35-.66-2-1.02z" class="cls-3"/><path id="path1179" d="M132.57 66.26l-66.69 46.26c1.21.19 2.2.33 2.92.4l67.21-46.6a27.93 27.93 0 01-3.44-.06z" class="cls-3"/><path id="path1181" d="M159.84 57.66l-78.76 54.63L85 112l81.8-56.74a30.3 30.3 0 00-6.96 2.39z" class="cls-3"/><path id="path1183" d="M174.95 57.47l-77.3 53.6 4-.28 74.36-51.57a7.54 7.54 0 00-1.06-1.75z" class="cls-3"/><path id="path1185" d="M177.03 66.34L114.3 109.8l4-.3 58.6-40.63c.05-.85.11-1.71.13-2.54z" class="cls-3"/><path id="path1187" d="M175.28 77.87l-44.32 30.74 3.94-.3 39.62-27.5c.27-1 .53-2 .76-2.94z" class="cls-3"/><path id="path1189" d="M171.35 90.9l-23.72 16.46 4-.3 18.6-12.9c.33-1.04.73-2.13 1.12-3.25z" class="cls-3"/><path id="path1191" d="M165.72 105.13l-1.4 1 1-.08.4-.92z" class="cls-3"/><path id="path1193" d="M70.6 113.8c-2.5 0-36.24-5.53-39.28-12.17a2.71 2.71 0 01.52-3.06c3-3.51 10.31-13.26 17.35-22.7 7.04-9.44 13.31-17.81 14.84-19.34 3-2.94 16.9-19.78 17-20a.83.83 0 01.41-.25l21.1-5a.77.77 0 01.57.1.74.74 0 01.33.48c.05.24 5.34 24.23 21.71 31.58 8.63 3.87 18.87 2.5 30.44-4.08 9.71-5.52 16.21-6.58 19.87-3.22 9.93 9.1-8 48.5-8.77 50.19a.78.78 0 01-.63.43c-3.74.3-92.46 7.05-95.47 7.05zm11.46-76.07c-1.65 2-14.1 17-17 19.86-1.45 1.45-7.89 10.06-14.69 19.18C43.31 86.23 36.01 96 32.95 99.55a1.24 1.24 0 00-.3 1.46c2.55 5.56 34.28 11.3 37.91 11.3 2.84 0 88-6.44 94.94-7 1.9-4.22 17.58-40.13 8.94-48.05-3.07-2.82-9.17-1.67-18.1 3.4-12 6.84-22.72 8.24-31.8 4.16-15.6-7-21.35-27.62-22.39-31.9z" class="cls-2"/><path id="path1195" d="M131.53 3.93s31.41 7.92 41.7 32.26l22.78-7.38s-13.06-15.47-28.85-24.47A33.6 33.6 0 00147.03.2l-25.65 2.6s6.36.57 10.15 1.13z" fill="#2cc8ff"/><path id="path1197" d="M102.36 31.59L79.67 36.7s28-32.52 55.93-27.34c0 0-27.13-.56-33.24 22.22z" fill="#0084b2"/><path id="path1199" d="M68.82 33.88l11.65 2.83s53.43-64.22 85.93 3.43c0 0 3.47-5.25 7.35-4 3.88 1.25-41-74.2-104.93-2.26z" fill="#00a5eb"/><path id="path1201" d="M199.47 140.05c1.44-39.92 6.14-67.8-20.93-102.07-3.9-4.95-12.73-.85-12.58 5.42 0 1.95-6 77.78-62.14 62-23.35-6.6-31.44-43.88-23.35-66.94l.06-.18c2.1-5.94-4.39-9-10.18-4.85-19.89 14.2-48.1 43.37-66 79.84-1.2 2.44-2.49 5.59-3.64 8.1z" fill="#f9f9f9"/><path id="path1203" d="M199.47 140.8h-.07L.66 122.1a.74.74 0 01-.58-.36.76.76 0 010-.7c.45-1 .93-2.06 1.41-3.17.74-1.7 1.5-3.44 2.23-4.93C22 75.64 50.8 46.47 69.92 32.82c3.35-2.4 7.28-2.73 9.78-.84 1.91 1.44 2.5 3.89 1.55 6.55l-.06.18C76.06 53.35 77.62 73.45 85 87.6c4.66 9 11.25 14.87 19 17.06 14.54 4.1 27 2.27 36.88-5.42 21.66-16.8 24.3-55.46 24.3-55.82-.1-4 2.85-6.8 5.82-7.87a7 7 0 018.1 2c24.35 30.85 23.14 57 21.61 90.2-.18 4-.37 8.12-.53 12.37a.72.72 0 01-.25.53.76.76 0 01-.45.16zM1.85 120.73l196.86 18.5c.15-4 .33-7.82.5-11.57 1.58-34.14 2.71-58.8-21.3-89.21-1.46-1.85-3.85-2.4-6.4-1.48-2.38.86-4.92 3.24-4.84 6.42 0 .37-2.65 39.79-24.85 57-10.33 8-23.19 9.93-38.24 5.69-8.19-2.3-15.09-8.46-20-17.81-7.49-14.45-9.1-35.05-3.84-50.05l.07-.18c.72-2 .34-3.81-1-4.85-1.6-1.2-4.78-1.44-8 .86-19 13.55-47.58 42.52-65.72 79.56-.7 1.46-1.47 3.19-2.2 4.87z" class="cls-2"/><path id="path1205" d="M173.95 35.8l22.06-7.06s40.68 7.4 82.16 55.66l-78.62 55.77s5.92-82.24-25.6-104.36z" fill="#e8e8e8"/><path id="path1207" d="M199.55 140.89a.79.79 0 01-.37-.1.76.76 0 01-.38-.71c.06-.82 5.57-82-25.28-103.68a.73.73 0 01-.3-.73.75.75 0 01.5-.6L195.78 28a.63.63 0 01.36 0c.41.07 41.43 8 82.6 55.9a.74.74 0 01-.13 1.1l-78.63 55.77a.76.76 0 01-.43.12zm-24-104.84c28.26 21.76 25.52 90.88 24.85 102.56l76.67-54.38c-39.27-45.34-78.06-54.13-81-54.74z" class="cls-2"/><path id="path1209" d="M219.95 91.07a.75.75 0 01-.75-.67c-5-47-40.47-55.28-40.82-55.35a.75.75 0 01-.57-.9.74.74 0 01.9-.57c.36.08 36.82 8.59 42 56.66a.75.75 0 01-.67.83z" class="cls-2"/><path id="path1211" d="M245.01 75.13a.76.76 0 01-.68-.43c-18.7-38.74-55.23-42.9-55.6-42.93a.75.75 0 01-.67-.82.74.74 0 01.82-.67c.38 0 37.72 4.25 56.8 43.77a.74.74 0 01-.35 1 .72.72 0 01-.32.08z" class="cls-2"/><path id="path1213" d="M88.97 70.47a.74.74 0 01-.66-.4c-8.59-15.78-2.44-34.1-2.38-34.28a.75.75 0 011-.46.74.74 0 01.46.95c-.06.18-6 17.88 2.28 33.08a.76.76 0 01-.3 1 .73.73 0 01-.4.1z" class="cls-2"/><path id="path1215" d="M102.4 60.96a.79.79 0 01-.53-.22c-10.5-10.46-7-26.16-6.85-26.82a.75.75 0 01.9-.57.76.76 0 01.56.9c0 .16-3.46 15.56 6.45 25.43a.75.75 0 010 1.06.77.77 0 01-.53.22z" class="cls-2"/></svg>