<svg id="Слой_1" data-name="Слой 1" xmlns="http://www.w3.org/2000/svg" viewBox="0 0 499.89 669.62"><defs><style>.cls-1{fill:#ccc;}.cls-2{fill:#444;}.cls-3{fill:#bfbfbf;}.cls-4{fill:#f9f9f9;}.cls-5{fill:#99c6d6;}.cls-6{fill:#0084b2;}.cls-7{fill:#00a5eb;}.cls-8{fill:#2cc8ff;}.cls-9{fill:#e8e8e8;}</style></defs><title>к</title><polygon class="cls-1" points="193.1 236.98 108.92 338.08 107.92 217.89 192.1 168.94 193.1 236.98"/><path class="cls-2" d="M108.93,338.83a.78.78,0,0,1-.26,0,.76.76,0,0,1-.49-.7l-1-120.19a.75.75,0,0,1,.37-.66l84.18-49a.74.74,0,0,1,1.12.63l1,68.05a.67.67,0,0,1-.17.49L109.5,338.56A.76.76,0,0,1,108.93,338.83Zm-.25-120.51,1,117.71,82.69-99.31-1-66.49Z"/><polygon class="cls-1" points="385.35 406.16 191.1 383.94 192.1 169.03 384.35 181.1 385.35 406.16"/><path class="cls-2" d="M385.35,406.91h-.09L191,384.69a.76.76,0,0,1-.66-.75l1-214.92a.75.75,0,0,1,.24-.54.71.71,0,0,1,.56-.2L384.4,180.35a.75.75,0,0,1,.7.75l1,225.05a.75.75,0,0,1-.75.76Zm-193.5-23.64,192.74,22.05-1-223.51-190.75-12Z"/><polygon class="cls-3" points="196.91 170.25 192.39 173.09 192.39 175.52 200.14 170.43 196.91 170.25"/><polygon class="cls-3" points="210.58 171.03 191.39 184.4 191.39 186.84 213.81 171.21 210.58 171.03"/><polygon class="cls-3" points="224.25 171.81 191.39 194.71 191.39 197.15 227.49 172 224.25 171.81"/><polygon class="cls-3" points="237.93 172.6 191.39 205.03 191.39 207.46 241.16 172.78 237.93 172.6"/><polygon class="cls-3" points="251.61 173.38 191.39 215.34 191.39 217.78 254.84 173.56 251.61 173.38"/><polygon class="cls-3" points="265.28 174.16 191.39 225.65 191.39 228.09 268.51 174.35 265.28 174.16"/><polygon class="cls-3" points="278.96 174.95 191.39 235.96 191.39 238.4 282.19 175.13 278.96 174.95"/><polygon class="cls-3" points="292.63 175.73 191.39 246.28 191.39 248.72 295.86 175.92 292.63 175.73"/><polygon class="cls-3" points="306.31 176.51 191.39 256.59 191.39 259.03 309.54 176.7 306.31 176.51"/><polygon class="cls-3" points="319.98 177.3 191.39 266.9 191.39 269.34 323.21 177.48 319.98 177.3"/><polygon class="cls-3" points="333.66 178.08 191.39 277.22 191.39 279.65 336.89 178.27 333.66 178.08"/><polygon class="cls-3" points="347.33 178.87 191.39 287.53 191.39 289.97 350.56 179.05 347.33 178.87"/><polygon class="cls-3" points="361.01 179.65 191.39 297.84 191.39 300.28 364.24 179.84 361.01 179.65"/><polygon class="cls-3" points="374.68 180.43 191.39 308.16 191.39 310.59 377.91 180.62 374.68 180.43"/><polygon class="cls-3" points="384.64 183.81 191.39 318.47 191.39 320.91 384.64 186.24 384.64 183.81"/><polygon class="cls-3" points="384.64 194.12 191.39 328.78 191.39 331.22 384.64 196.56 384.64 194.12"/><polygon class="cls-3" points="384.64 204.43 191.39 339.1 191.39 341.53 384.64 206.87 384.64 204.43"/><polygon class="cls-3" points="384.64 214.74 191.39 349.41 191.39 351.85 384.64 217.18 384.64 214.74"/><polygon class="cls-3" points="384.64 225.06 191.39 359.72 191.39 362.16 384.64 227.49 384.64 225.06"/><polygon class="cls-3" points="384.64 235.37 191.39 370.04 191.39 372.47 384.64 237.81 384.64 235.37"/><polygon class="cls-3" points="384.64 245.68 191.39 380.35 191.39 382.79 384.64 248.12 384.64 245.68"/><polygon class="cls-3" points="384.64 256 199.4 385.08 202.26 385.53 384.64 258.43 384.64 256"/><polygon class="cls-3" points="384.64 266.29 211.48 386.96 214.37 387.4 384.64 268.75 384.64 266.29"/><polygon class="cls-3" points="384.64 276.6 223.59 388.83 226.48 389.28 384.64 279.06 384.64 276.6"/><polygon class="cls-3" points="384.64 286.91 235.7 390.71 238.56 391.15 384.64 289.35 384.64 286.91"/><polygon class="cls-3" points="384.64 297.23 247.81 392.58 250.66 393.03 384.64 299.66 384.64 297.23"/><polygon class="cls-3" points="384.64 307.54 259.91 394.46 262.77 394.9 384.64 309.98 384.64 307.54"/><polygon class="cls-3" points="384.64 317.85 272.02 396.33 274.88 396.78 384.64 320.29 384.64 317.85"/><polygon class="cls-3" points="384.64 328.17 284.13 398.21 286.99 398.65 384.64 330.6 384.64 328.17"/><polygon class="cls-3" points="384.64 338.48 296.24 400.09 299.1 400.53 384.64 340.92 384.64 338.48"/><polygon class="cls-3" points="384.64 348.79 308.35 401.96 311.21 402.4 384.64 351.23 384.64 348.79"/><polygon class="cls-3" points="384.64 359.11 320.45 403.84 323.31 404.28 384.64 361.54 384.64 359.11"/><polygon class="cls-3" points="384.64 369.42 332.56 405.71 335.42 406.16 384.64 371.86 384.64 369.42"/><polygon class="cls-3" points="384.64 379.73 344.67 407.59 347.53 408.03 384.64 382.17 384.64 379.73"/><polygon class="cls-3" points="384.64 390.05 356.78 409.46 359.64 409.91 384.64 392.48 384.64 390.05"/><polygon class="cls-3" points="384.64 400.36 368.88 411.34 371.75 411.78 384.64 402.8 384.64 400.36"/><polygon class="cls-3" points="385.64 406.11 385.64 403.67 381.99 406.22 384.85 406.66 385.64 406.11"/><path class="cls-2" d="M385.34,406.24h-.08L191,384.69a.76.76,0,0,1-.67-.75l1-214.92a.75.75,0,0,1,.24-.54.71.71,0,0,1,.56-.2L384.4,180.35a.75.75,0,0,1,.7.75l1,224.39a.73.73,0,0,1-.75.75Zm-193.49-23,192.74,21.38-1-222.84-190.75-12Z"/><polygon class="cls-1" points="385.7 405.95 307.7 484.74 307.7 235.59 385.7 180.56 385.7 405.95"/><path class="cls-2" d="M307.7,485.49a.92.92,0,0,1-.28-.05.76.76,0,0,1-.47-.7V235.59a.75.75,0,0,1,.32-.61l78-55a.75.75,0,0,1,1.18.62V406a.74.74,0,0,1-.21.53l-78,78.79A.71.71,0,0,1,307.7,485.49ZM308.45,236V482.92L385,405.64V182ZM385.7,406h0Z"/><polygon class="cls-4" points="307.7 484.74 108.45 455.81 108.45 217.55 307.7 236.03 307.7 484.74"/><path class="cls-2" d="M307.7,485.49h-.11L108.34,456.55a.75.75,0,0,1-.64-.75V217.55A.77.77,0,0,1,108,217a.74.74,0,0,1,.57-.19l199.25,18.49a.74.74,0,0,1,.68.75v248.7a.73.73,0,0,1-.26.57A.72.72,0,0,1,307.7,485.49ZM109.2,455.16,307,483.88V236.72L109.2,218.37Z"/><polygon class="cls-5" points="269.44 357.06 269.44 341.68 274.45 341.68 274.45 346.69 285.9 346.69 285.9 352.05 274.45 352.05 274.45 357.06 269.44 357.06"/><polygon class="cls-5" points="269.62 295.35 269.62 295.35 269.62 300 269.62 300 269.62 305.37 286.07 305.37 286.07 300 274.99 300 274.99 295.35 286.07 295.35 286.07 289.99 274.99 289.99 269.62 289.99 269.62 289.99 269.62 295.35"/><polygon class="cls-5" points="276.06 256 269.62 251.35 269.62 257.43 276.06 262.08 276.06 262.8 269.62 262.8 269.62 268.16 286.07 268.16 286.07 262.8 279.99 262.8 279.99 261.37 286.07 258.51 286.07 252.07 277.85 257.07 276.06 256"/><path class="cls-5" d="M269.62,276.39v5l16.45,7.16v-5.73l-2.86-.71V276l2.86-1.07v-5.72Zm9.66,4.3L275,278.9l4.3-1.43Z"/><path class="cls-5" d="M269.62,330.41v5l16.45,7.15v-5.72l-2.86-.72v-6.08l2.86-1.07v-5.72Zm9.66,4.29-4.3-1.79,4.3-1.43Z"/><path class="cls-5" d="M269.62,313.05v8.77h16.45v-5.36h-3.94v-3.41a6.25,6.25,0,0,0-6.26-6.25h0A6.25,6.25,0,0,0,269.62,313.05Zm8.23,1.05v2.36H274V314.1a1.94,1.94,0,0,1,3.88,0Z"/><polyline class="cls-4" points="306.36 483.74 192.5 393.9 192.5 350.85"/><path class="cls-2" d="M306.36,484.49a.74.74,0,0,1-.46-.16l-2.75-2.17a.74.74,0,0,1-.12-1.05.75.75,0,0,1,1.05-.12l2.75,2.16a.76.76,0,0,1,.12,1.06A.74.74,0,0,1,306.36,484.49Z"/><path class="cls-2" d="M297.91,477.83a.73.73,0,0,1-.46-.17l-5.71-4.5a.75.75,0,0,1,.93-1.17l5.71,4.5a.75.75,0,0,1-.47,1.34Zm-11.41-9a.74.74,0,0,1-.46-.16l-5.7-4.5a.74.74,0,0,1-.13-1.05.75.75,0,0,1,1.05-.12l5.71,4.5a.75.75,0,0,1,.12,1.05A.73.73,0,0,1,286.5,468.82Zm-11.4-9a.74.74,0,0,1-.47-.16l-5.7-4.5a.75.75,0,1,1,.93-1.17l5.7,4.5a.74.74,0,0,1-.46,1.33Zm-11.41-9a.76.76,0,0,1-.47-.16l-5.7-4.5a.75.75,0,0,1,.93-1.18l5.7,4.51a.74.74,0,0,1-.46,1.33Zm-11.41-9a.72.72,0,0,1-.46-.16l-5.71-4.5A.75.75,0,0,1,247,436l5.71,4.5a.76.76,0,0,1,.12,1.06A.74.74,0,0,1,252.28,441.82Zm-11.41-9a.74.74,0,0,1-.46-.16l-5.7-4.5a.75.75,0,0,1-.13-1.05.76.76,0,0,1,1.06-.13l5.7,4.5a.75.75,0,0,1-.47,1.34Zm-11.4-9a.74.74,0,0,1-.47-.16l-5.7-4.5a.74.74,0,0,1-.12-1.05.75.75,0,0,1,1-.13l5.7,4.5a.76.76,0,0,1,.13,1.06A.77.77,0,0,1,229.47,423.82Zm-11.41-9a.72.72,0,0,1-.46-.16l-5.71-4.5a.75.75,0,0,1-.12-1.05.74.74,0,0,1,1-.13l5.7,4.5a.75.75,0,0,1,.13,1.06A.77.77,0,0,1,218.06,414.82Zm-11.41-9a.74.74,0,0,1-.46-.16l-5.71-4.5a.75.75,0,0,1,.93-1.18l5.71,4.5a.76.76,0,0,1,.12,1.06A.77.77,0,0,1,206.65,405.82Z"/><path class="cls-2" d="M195.24,396.82a.74.74,0,0,1-.46-.16L192,394.49a.74.74,0,0,1-.28-.59v-3.5a.75.75,0,0,1,1.5,0v3.14l2.46,1.94a.74.74,0,0,1,.12,1A.72.72,0,0,1,195.24,396.82Z"/><path class="cls-2" d="M192.5,383.94a.74.74,0,0,1-.75-.75V376a.75.75,0,0,1,1.5,0v7.21A.75.75,0,0,1,192.5,383.94Zm0-14.42a.75.75,0,0,1-.75-.75v-7.21a.75.75,0,1,1,1.5,0v7.21A.76.76,0,0,1,192.5,369.52Z"/><path class="cls-2" d="M192.5,355.1a.75.75,0,0,1-.75-.75v-3.5a.75.75,0,0,1,1.5,0v3.5A.76.76,0,0,1,192.5,355.1Z"/><path class="cls-2" d="M383.87,405.7h-.05l-3.49-.2a.76.76,0,0,1-.71-.79.74.74,0,0,1,.79-.71l3.5.2a.75.75,0,0,1,0,1.5Z"/><path class="cls-2" d="M116.92,449.38a.77.77,0,0,1-.61-.31.75.75,0,0,1,.17-1.05l5.7-4.13a.75.75,0,0,1,1,.17.76.76,0,0,1-.17,1.05l-5.7,4.12A.73.73,0,0,1,116.92,449.38Zm11.4-8.26a.77.77,0,0,1-.61-.31.75.75,0,0,1,.17-1.05l5.7-4.12a.75.75,0,0,1,1,.16.76.76,0,0,1-.17,1.05l-5.7,4.13A.79.79,0,0,1,128.32,441.12Zm11.4-8.25a.77.77,0,0,1-.61-.31.75.75,0,0,1,.17-1.05l5.7-4.13a.75.75,0,0,1,1.05.17.76.76,0,0,1-.17,1.05l-5.7,4.12A.73.73,0,0,1,139.72,432.87Zm11.4-8.26a.77.77,0,0,1-.61-.31.75.75,0,0,1,.17-1.05l5.7-4.12a.75.75,0,1,1,.88,1.21l-5.7,4.13A.72.72,0,0,1,151.12,424.61Zm11.4-8.25a.77.77,0,0,1-.61-.31.75.75,0,0,1,.17-1.05l5.7-4.13a.76.76,0,0,1,1.05.17.75.75,0,0,1-.17,1l-5.7,4.13A.79.79,0,0,1,162.52,416.36Zm11.4-8.26a.75.75,0,0,1-.44-1.35l5.7-4.13a.75.75,0,0,1,1,.17.74.74,0,0,1-.17,1l-5.7,4.13A.72.72,0,0,1,173.92,408.1Zm199.43-3h-.05l-7-.4a.76.76,0,0,1-.71-.8.74.74,0,0,1,.79-.7l7,.41a.75.75,0,0,1,0,1.49Zm-14.06-.81h0l-7-.4a.76.76,0,0,1-.7-.8.74.74,0,0,1,.79-.7l7,.4a.75.75,0,0,1,0,1.5Zm-14.05-.81h0l-7-.41a.75.75,0,1,1,.09-1.49l7,.4a.75.75,0,0,1-.05,1.5Zm-14.05-.81h0l-7-.41a.75.75,0,1,1,.09-1.49l7,.4a.75.75,0,0,1,0,1.5Zm-14.05-.81h0l-7-.41a.76.76,0,0,1-.71-.79.77.77,0,0,1,.8-.71l7,.41a.75.75,0,0,1,.71.79A.76.76,0,0,1,317.14,401.85ZM303.09,401h0l-7-.41a.75.75,0,1,1,.08-1.5l7,.41a.75.75,0,0,1,.71.79A.76.76,0,0,1,303.09,401Zm-14-.81H289l-7-.4a.75.75,0,1,1,.08-1.5l7,.41a.75.75,0,0,1,0,1.5Zm-103.72-.38a.75.75,0,0,1-.44-1.36l5.7-4.13a.76.76,0,0,1,1,.17.75.75,0,0,1-.17,1.05l-5.7,4.13A.79.79,0,0,1,185.32,399.85Zm89.67-.44h-.05l-7-.4a.76.76,0,0,1-.71-.79.74.74,0,0,1,.79-.71l7,.41a.75.75,0,0,1,0,1.49Zm-14.06-.81h0l-7-.4a.76.76,0,0,1-.71-.8.74.74,0,0,1,.79-.7l7,.41a.75.75,0,0,1-.05,1.49Zm-14.05-.81h0l-7-.4a.75.75,0,0,1-.7-.8.74.74,0,0,1,.79-.7l7,.4a.76.76,0,0,1,.7.8A.75.75,0,0,1,246.88,397.79Zm-14-.81h0l-7-.41a.75.75,0,1,1,.09-1.49l7,.4a.76.76,0,0,1,.71.79A.75.75,0,0,1,232.83,397Zm-14.05-.81h0l-7-.41a.74.74,0,0,1-.7-.79.73.73,0,0,1,.79-.7l7,.4a.75.75,0,0,1,0,1.5Zm-14.05-.81h0l-7-.41a.76.76,0,0,1-.71-.79.77.77,0,0,1,.8-.71l7,.41a.75.75,0,0,1,0,1.5Z"/><path class="cls-2" d="M108.38,455.55a.75.75,0,0,1-.69-.45.76.76,0,0,1,.25-.9l2.84-2.06a.76.76,0,0,1,1,.17.75.75,0,0,1-.17,1.05l-.16.11.19,0a.77.77,0,0,1,.88.6.75.75,0,0,1-.61.87l-3.44.63Z"/><path class="cls-2" d="M118.62,453.69a.76.76,0,0,1-.74-.62.75.75,0,0,1,.61-.87l6.79-1.24a.75.75,0,0,1,.27,1.48l-6.79,1.24Zm13.58-2.48a.75.75,0,0,1-.13-1.49l6.79-1.24a.75.75,0,1,1,.27,1.48l-6.79,1.24Zm13.59-2.48a.75.75,0,0,1-.74-.61.77.77,0,0,1,.61-.88l6.79-1.24a.76.76,0,0,1,.87.61.74.74,0,0,1-.6.87l-6.79,1.24Zm13.58-2.48a.74.74,0,0,1-.73-.61.75.75,0,0,1,.6-.88l6.79-1.23a.75.75,0,1,1,.27,1.47l-6.79,1.24ZM173,443.77a.75.75,0,0,1-.13-1.48l6.79-1.24a.75.75,0,1,1,.27,1.47l-6.79,1.24Zm13.58-2.48a.75.75,0,0,1-.13-1.48l6.79-1.24a.75.75,0,1,1,.27,1.47l-6.79,1.24Zm13.59-2.47a.76.76,0,0,1-.74-.62.75.75,0,0,1,.61-.87l6.79-1.24a.75.75,0,1,1,.27,1.47l-6.8,1.24Zm13.58-2.48a.75.75,0,0,1-.73-.62.74.74,0,0,1,.6-.87l6.79-1.24a.75.75,0,1,1,.27,1.48l-6.79,1.24Zm13.59-2.48a.75.75,0,0,1-.74-.62.76.76,0,0,1,.61-.87l6.79-1.24a.75.75,0,0,1,.27,1.48l-6.79,1.24Zm13.59-2.48a.74.74,0,0,1-.74-.61.75.75,0,0,1,.6-.88l6.79-1.24a.75.75,0,1,1,.27,1.48L241,431.37Zm13.58-2.48a.75.75,0,0,1-.74-.61.77.77,0,0,1,.61-.88l6.79-1.23a.75.75,0,1,1,.27,1.47l-6.79,1.24Zm13.59-2.48a.75.75,0,0,1-.14-1.48l6.79-1.24a.75.75,0,1,1,.27,1.47l-6.79,1.24ZM281.64,424a.76.76,0,0,1-.74-.62.75.75,0,0,1,.61-.87l6.79-1.24a.75.75,0,1,1,.27,1.47l-6.79,1.24Zm13.58-2.48a.75.75,0,0,1-.73-.62.74.74,0,0,1,.6-.87l6.79-1.24a.75.75,0,1,1,.27,1.47l-6.79,1.24ZM308.81,419a.76.76,0,0,1-.74-.62.75.75,0,0,1,.61-.87l6.79-1.24a.75.75,0,0,1,.27,1.48L309,419Zm13.58-2.48a.75.75,0,0,1-.13-1.49l6.79-1.24a.75.75,0,1,1,.27,1.48l-6.79,1.24ZM336,414a.75.75,0,0,1-.74-.61.77.77,0,0,1,.61-.88l6.79-1.24a.75.75,0,0,1,.27,1.48L336.12,414Zm13.58-2.48a.74.74,0,0,1-.73-.61.75.75,0,0,1,.6-.88l6.79-1.24a.76.76,0,0,1,.88.61.75.75,0,0,1-.61.87l-6.79,1.24Zm13.59-2.48a.75.75,0,0,1-.13-1.48l6.79-1.24a.75.75,0,1,1,.27,1.47l-6.79,1.24Z"/><path class="cls-2" d="M376.73,406.6A.75.75,0,0,1,376,406a.74.74,0,0,1,.6-.87l3.44-.63a.76.76,0,0,1,.88.6.75.75,0,0,1-.61.87l-3.44.63Z"/><path class="cls-1" d="M189.17,133.21l21.1-5s11,52,53.25,28,10,46,10,46-92.43,7-95.44,7-44.21-7-38.18-14,29.14-39,32.15-42S189.17,133.21,189.17,133.21Z"/><path class="cls-2" d="M178.12,210c-2.5,0-36.23-5.54-39.27-12.18a2.69,2.69,0,0,1,.52-3.06c3-3.51,10.31-13.26,17.36-22.7s13.3-17.81,14.83-19.34c3-2.94,16.89-19.78,17-20a.83.83,0,0,1,.41-.25l21.1-5a.77.77,0,0,1,.57.1.74.74,0,0,1,.33.48c.05.24,5.34,24.23,21.71,31.58,8.63,3.87,18.87,2.5,30.44-4.08,9.7-5.52,16.2-6.58,19.87-3.22,9.93,9.11-8,48.51-8.77,50.19a.78.78,0,0,1-.63.43C269.85,203.25,181.13,210,178.12,210Zm11.47-76.08c-1.65,2-14.1,17-17,19.86-1.45,1.45-7.88,10.06-14.69,19.18-7.06,9.45-14.36,19.23-17.42,22.78a1.24,1.24,0,0,0-.3,1.46c2.55,5.56,34.28,11.3,37.91,11.3,2.84,0,88-6.44,94.94-7,1.89-4.22,17.58-40.13,8.94-48.05-3.07-2.82-9.17-1.67-18.11,3.41-12,6.84-22.71,8.23-31.8,4.15-15.6-7-21.34-27.62-22.38-31.89Z"/><path class="cls-3" d="M195.42,131.56l-13.26,9.2c-1.62,1.93-3.36,4-5,5.89l23.58-16.35Z"/><path class="cls-3" d="M210.42,131.47l-48.09,33.36-3.8,5.07,52.52-36.43C210.81,132.74,210.6,132.07,210.42,131.47Z"/><path class="cls-3" d="M213.46,139.68l-67.24,46.64c-1.48,1.94-2.84,3.72-4,5.22l72.12-50C214,140.9,213.73,140.28,213.46,139.68Z"/><path class="cls-3" d="M217.48,147.2l-76,52.72a19.44,19.44,0,0,0,2,1.05l75.13-52.11C218.21,148.31,217.84,147.76,217.48,147.2Z"/><path class="cls-3" d="M222.71,153.89,150.9,203.7l2.47.72,70.81-49.11C223.67,154.85,223.18,154.38,222.71,153.89Z"/><path class="cls-3" d="M229.73,159.34l-68,47.14c.91.21,1.81.4,2.68.58l67.33-46.7C231.06,160.05,230.39,159.7,229.73,159.34Z"/><path class="cls-3" d="M240.1,162.45l-66.69,46.26c1.21.19,2.2.33,2.92.41l67.21-46.61A27.93,27.93,0,0,1,240.1,162.45Z"/><path class="cls-3" d="M267.37,153.85l-78.76,54.63,3.92-.28,81.8-56.74A30.3,30.3,0,0,0,267.37,153.85Z"/><path class="cls-3" d="M282.48,153.66l-77.3,53.61,4-.29,74.36-51.57A7.54,7.54,0,0,0,282.48,153.66Z"/><path class="cls-3" d="M284.56,162.53,221.83,206l4-.29,58.6-40.64C284.48,164.22,284.54,163.36,284.56,162.53Z"/><path class="cls-3" d="M282.81,174.06,238.49,204.8l3.94-.3L282.05,177C282.32,176,282.58,175,282.81,174.06Z"/><path class="cls-3" d="M278.88,187.1l-23.72,16.45,4-.3,18.59-12.9C278.09,189.31,278.49,188.22,278.88,187.1Z"/><path class="cls-3" d="M273.25,201.32l-1.4,1,1-.08S273,201.89,273.25,201.32Z"/><path class="cls-2" d="M178.12,210c-2.5,0-36.23-5.54-39.27-12.18a2.69,2.69,0,0,1,.52-3.06c3-3.51,10.31-13.26,17.36-22.7s13.3-17.81,14.83-19.34c3-2.94,16.89-19.78,17-20a.83.83,0,0,1,.41-.25l21.1-5a.77.77,0,0,1,.57.1.74.74,0,0,1,.33.48c.05.24,5.34,24.23,21.71,31.58,8.63,3.87,18.87,2.5,30.44-4.08,9.7-5.52,16.2-6.58,19.87-3.22,9.93,9.11-8,48.51-8.77,50.19a.78.78,0,0,1-.63.43C269.85,203.25,181.13,210,178.12,210Zm11.47-76.08c-1.65,2-14.1,17-17,19.86-1.45,1.45-7.88,10.06-14.69,19.18-7.06,9.45-14.36,19.23-17.42,22.78a1.24,1.24,0,0,0-.3,1.46c2.55,5.56,34.28,11.3,37.91,11.3,2.84,0,88-6.44,94.94-7,1.89-4.22,17.58-40.13,8.94-48.05-3.07-2.82-9.17-1.67-18.11,3.41-12,6.84-22.71,8.23-31.8,4.15-15.6-7-21.34-27.62-22.38-31.89Z"/><path class="cls-6" d="M209.89,127.78,187.2,132.9s28-32.52,55.93-27.34C243.13,105.56,216,105,209.89,127.78Z"/><path class="cls-2" d="M327.48,187.26a.75.75,0,0,1-.75-.67c-5.05-47-40.47-55.28-40.82-55.35a.75.75,0,0,1,.32-1.47c.37.08,36.83,8.59,42,56.66a.75.75,0,0,1-.66.83Z"/><path class="cls-7" d="M176.35,130.07,188,132.9s53.43-64.22,85.93,3.43c0,0,3.47-5.25,7.35-4S240.27,58.13,176.35,130.07Z"/><path class="cls-8" d="M239.06,100.12s31.41,7.92,41.7,32.26L303.54,125s-13.06-15.47-28.85-24.47a33.6,33.6,0,0,0-20.13-4.14L228.91,99S235.27,99.56,239.06,100.12Z"/><polygon class="cls-4" points="86.47 185.89 285.72 201.97 385.6 180.48 193.35 167.96 86.47 185.89"/><path class="cls-2" d="M285.72,202.72h-.06L86.41,186.64a.75.75,0,0,1-.07-1.49l106.89-17.93h.17l192.25,12.51a.76.76,0,0,1,.7.69.75.75,0,0,1-.59.79L285.88,202.7ZM92.56,185.63l193.11,15.58,94.51-20.33L193.39,168.72Z"/><path class="cls-4" d="M307,236.24c1.44-39.92,6.14-67.8-20.93-102.07-3.91-4.95-12.73-.85-12.58,5.42,0,1.95-6,77.78-62.14,62C188,195,179.91,157.71,188,134.65l.06-.18c2.1-5.94-4.39-9-10.18-4.85-19.89,14.2-48.1,43.37-66,79.84-1.2,2.44-2.49,5.59-3.64,8.1Z"/><path class="cls-2" d="M307,237h-.08L108.19,218.3a.74.74,0,0,1-.58-.37.76.76,0,0,1,0-.69c.45-1,.93-2.07,1.41-3.18.74-1.69,1.5-3.44,2.23-4.93,18.27-37.29,47.08-66.47,66.2-80.12,3.35-2.39,7.27-2.73,9.78-.84,1.91,1.44,2.49,3.89,1.55,6.55l-.07.18c-5.12,14.64-3.56,34.74,3.8,48.89,4.67,9,11.26,14.87,19,17.06,14.55,4.1,27,2.27,36.89-5.42,21.66-16.8,24.3-55.46,24.29-55.82-.1-4,2.86-6.8,5.83-7.87a7,7,0,0,1,8.09,2c24.36,30.85,23.15,57,21.62,90.21-.18,4-.37,8.11-.53,12.36a.69.69,0,0,1-.25.53A.75.75,0,0,1,307,237ZM109.38,216.91l196.86,18.51c.15-4,.33-7.83.5-11.58,1.58-34.14,2.71-58.8-21.3-89.21-1.46-1.85-3.85-2.4-6.4-1.48-2.39.86-4.92,3.24-4.84,6.42,0,.37-2.65,39.79-24.85,57-10.33,8-23.19,9.93-38.24,5.69-8.19-2.3-15.09-8.46-20-17.81C183.62,170,182,149.4,187.27,134.4l.07-.18c.72-2,.34-3.81-1-4.85-1.6-1.2-4.78-1.44-8,.86-19,13.55-47.58,42.52-65.72,79.56-.71,1.46-1.47,3.19-2.2,4.87Z"/><path class="cls-9" d="M281.48,132l22.06-7.07s40.68,7.41,82.16,55.66l-78.62,55.77S313,154.12,281.48,132Z"/><path class="cls-2" d="M307.08,237.08a.79.79,0,0,1-.37-.1.76.76,0,0,1-.38-.71c.06-.82,5.57-82-25.28-103.68a.73.73,0,0,1-.31-.73.75.75,0,0,1,.51-.6l22.06-7.07a.63.63,0,0,1,.36,0c.41.07,41.43,8,82.6,55.9a.74.74,0,0,1-.13,1.1l-78.63,55.77A.76.76,0,0,1,307.08,237.08Zm-24-104.84C311.34,154,308.6,223.12,307.93,234.8l76.67-54.38c-39.24-45.31-78.05-54.13-81-54.74Z"/><path class="cls-2" d="M285.82,202.69a.74.74,0,0,1-.73-.59.75.75,0,0,1,.57-.89l4.89-1.05a.75.75,0,1,1,.31,1.47L286,202.68Zm-5-.37h-.06l-5-.4a.75.75,0,0,1,.12-1.5l5,.4a.75.75,0,0,1-.06,1.5Zm-10-.8h-.06l-5-.41a.73.73,0,0,1-.68-.8.74.74,0,0,1,.81-.69l5,.4a.75.75,0,0,1-.06,1.5Zm-10-.81h-.06l-5-.4a.75.75,0,0,1-.69-.81.76.76,0,0,1,.81-.69l5,.41a.75.75,0,0,1-.06,1.49Zm34.69-.12a.76.76,0,0,1-.73-.59.74.74,0,0,1,.58-.89l4.88-1.05a.76.76,0,0,1,.9.57.75.75,0,0,1-.58.89l-4.89,1A.41.41,0,0,1,295.59,200.59Zm-44.66-.68h-.06l-5-.4a.76.76,0,0,1-.69-.81A.76.76,0,0,1,246,198l5,.4a.75.75,0,0,1-.06,1.5Zm-10-.8h-.06l-5-.4a.75.75,0,1,1,.12-1.49l5,.4a.74.74,0,0,1,.68.81A.75.75,0,0,1,241,199.11Zm64.4-.62a.75.75,0,0,1-.16-1.48L310.1,196a.75.75,0,0,1,.32,1.47l-4.89,1.05ZM231,198.3h-.06l-5-.4a.75.75,0,0,1-.68-.81.76.76,0,0,1,.81-.69l5,.4a.75.75,0,0,1-.06,1.5Zm-10-.8H221l-5-.4a.75.75,0,1,1,.12-1.49l5,.4a.75.75,0,0,1-.06,1.5Zm-10-.81H211l-5-.4a.76.76,0,0,1-.69-.81.77.77,0,0,1,.81-.69l5,.41a.75.75,0,0,1-.06,1.49Zm104.09-.3a.75.75,0,0,1-.16-1.49l4.89-1.05a.75.75,0,1,1,.31,1.47l-4.88,1.05Zm-114-.5H201l-5-.41a.75.75,0,0,1-.69-.8.76.76,0,0,1,.81-.69l5,.4a.75.75,0,0,1-.06,1.5Zm-10-.81h-.06l-5-.4a.74.74,0,0,1-.68-.81.75.75,0,0,1,.8-.68l5,.4a.75.75,0,0,1-.06,1.49Zm133.79-.8a.76.76,0,0,1-.73-.59.74.74,0,0,1,.58-.89l4.88-1.05a.75.75,0,1,1,.32,1.46l-4.89,1.06Zm-143.76,0h-.06l-5-.4a.75.75,0,1,1,.12-1.5l5,.4a.76.76,0,0,1,.69.81A.75.75,0,0,1,181.16,194.28Zm-10-.8h-.06l-5-.4a.75.75,0,1,1,.12-1.49l5,.4a.75.75,0,0,1-.06,1.5Zm-10-.81h-.07l-5-.4a.75.75,0,1,1,.12-1.5l5,.4a.75.75,0,0,1-.06,1.5Zm173.47-.49a.75.75,0,0,1-.16-1.48l4.89-1.06a.75.75,0,0,1,.32,1.47l-4.89,1Zm-183.44-.31h-.06l-5-.41a.73.73,0,0,1-.68-.8.75.75,0,0,1,.8-.69l5,.4a.76.76,0,0,1,.69.81A.77.77,0,0,1,151.26,191.87Zm-10-.81h-.06l-5-.4a.74.74,0,0,1-.69-.81.76.76,0,0,1,.81-.69l5,.41a.75.75,0,0,1-.06,1.49Zm-10-.8h-.06l-5-.4a.75.75,0,0,1,.12-1.5l5,.4a.75.75,0,0,1-.06,1.5Zm213.16-.18a.75.75,0,0,1-.16-1.49l4.89-1.05a.75.75,0,1,1,.31,1.47l-4.88,1.05Zm-223.12-.62h-.07l-5-.4a.75.75,0,1,1,.12-1.49l5,.4a.74.74,0,0,1,.68.81A.75.75,0,0,1,121.36,189.46Zm-10-.81h-.06l-5-.4a.75.75,0,0,1-.68-.81.76.76,0,0,1,.8-.69l5,.4a.75.75,0,0,1-.06,1.5ZM354.25,188a.75.75,0,0,1-.15-1.48l4.88-1.05a.75.75,0,0,1,.32,1.46L354.41,188Zm-252.83-.12h-.06l-5-.4a.74.74,0,0,1-.69-.81.75.75,0,0,1,.81-.68l5,.4a.75.75,0,0,1-.06,1.5Zm-10-.81h-.06l-5-.4a.75.75,0,0,1-.69-.81.76.76,0,0,1,.81-.69l5,.41a.75.75,0,0,1-.06,1.49ZM364,185.87a.75.75,0,0,1-.16-1.48l4.89-1a.75.75,0,0,1,.32,1.46l-4.89,1Zm9.78-2.1a.75.75,0,0,1-.16-1.49l4.89-1.05a.75.75,0,1,1,.31,1.47L374,183.75Zm9.77-2.11a.75.75,0,0,1-.16-1.48l2-.43a.75.75,0,0,1,.32,1.46l-2,.44Z"/></svg>