<svg id="Слой_1" data-name="Слой 1" xmlns="http://www.w3.org/2000/svg" viewBox="0 0 499.89 669.62"><defs><style>.cls-1{fill:#ccc;}.cls-2{fill:#444;}.cls-3{fill:#0084b2;}.cls-4{fill:#bfbfbf;}.cls-5,.cls-9{opacity:0.5;}.cls-6{fill:#9ac9ef;}.cls-7{fill:#727f89;}.cls-8{fill:#f9f9f9;}.cls-10{fill:#99c6d6;}.cls-11{fill:#00a5eb;}.cls-12{fill:#2cc8ff;}.cls-13{fill:#e8e8e8;}</style></defs><title>к</title><polygon class="cls-1" points="193.1 236.98 108.92 338.08 107.92 217.89 192.1 168.94 193.1 236.98"/><path class="cls-2" d="M108.93,338.83a.78.78,0,0,1-.26,0,.76.76,0,0,1-.49-.7l-1-120.19a.75.75,0,0,1,.37-.66l84.18-49a.73.73,0,0,1,.74,0,.76.76,0,0,1,.39.64l1,68.05a.72.72,0,0,1-.18.49L109.5,338.56A.76.76,0,0,1,108.93,338.83Zm-.25-120.51,1,117.71,82.69-99.31-1-66.49Z"/><polygon class="cls-1" points="193.97 394.95 108.79 455.73 108.79 375.86 192.97 328.91 193.97 394.95"/><path class="cls-2" d="M108.79,456.48a.71.71,0,0,1-.34-.08.76.76,0,0,1-.41-.67V375.86a.74.74,0,0,1,.39-.65l84.18-47a.75.75,0,0,1,1.11.65l1,66a.72.72,0,0,1-.31.62l-85.18,60.78A.7.7,0,0,1,108.79,456.48Zm.75-80.18v78l83.68-59.71-1-64.4Z"/><path class="cls-3" d="M376.65,553.36c-1.57,2.71-3.32,5.27-5,7.84-.88,1.28-1.77,2.54-2.67,3.8l-1.3,1.84c-.39.61-.8,1.22-1.16,1.86A37.55,37.55,0,0,0,361.3,585c-.06.71-.09,1.43-.1,2.15l-.09,2.42c-.07.82-.17,1.64-.26,2.46s-.26,1.63-.43,2.43a34.18,34.18,0,0,1-3.45,9.17,30.57,30.57,0,0,1-13.68,13A42.84,42.84,0,0,0,353.43,602a39.15,39.15,0,0,0,2.33-8.35l.28-2.14c0-.71.11-1.43.14-2.14l.05-2.2c0-.83,0-1.65.09-2.47a34.1,34.1,0,0,1,6.91-18.18,36.12,36.12,0,0,1,3.2-3.61c1.09-1.1,2.19-2.18,3.31-3.26C372,557.49,374.24,555.35,376.65,553.36Z"/><path class="cls-3" d="M221.15,523.82c-1.57,2.71-3.32,5.27-5.05,7.84q-1.32,1.92-2.67,3.8l-1.3,1.84c-.39.62-.8,1.22-1.16,1.86a37.59,37.59,0,0,0-5.17,16.34c-.06.72-.09,1.43-.1,2.15l-.09,2.42c-.07.82-.17,1.64-.26,2.46s-.26,1.63-.43,2.43a34.05,34.05,0,0,1-3.45,9.17,30.57,30.57,0,0,1-13.68,13,42.84,42.84,0,0,0,10.14-14.73,39,39,0,0,0,2.33-8.35l.28-2.13c0-.72.11-1.44.14-2.15l0-2.2c0-.82,0-1.65.09-2.47A34.1,34.1,0,0,1,207.73,537a36.12,36.12,0,0,1,3.2-3.61c1.09-1.09,2.19-2.18,3.31-3.25C216.49,528,218.74,525.82,221.15,523.82Z"/><polygon class="cls-1" points="385.79 572.64 192.54 542.71 192.54 328.79 385.79 339.87 385.79 572.64"/><path class="cls-2" d="M385.79,573.39h-.11L192.43,543.45a.75.75,0,0,1-.64-.74V328.79a.77.77,0,0,1,.24-.55.76.76,0,0,1,.56-.2l193.25,11.08a.75.75,0,0,1,.7.75V572.64a.73.73,0,0,1-.26.57A.72.72,0,0,1,385.79,573.39Zm-192.5-31.33L385,571.77V340.57l-191.75-11Z"/><polygon class="cls-4" points="198.35 330.01 192.84 333.85 192.84 336.29 201.58 330.19 198.35 330.01"/><polygon class="cls-4" points="212.02 330.79 192.84 344.16 192.84 346.6 215.25 330.98 212.02 330.79"/><polygon class="cls-4" points="225.7 331.58 192.84 354.48 192.84 356.91 228.93 331.76 225.7 331.58"/><polygon class="cls-4" points="239.37 332.36 192.84 364.79 192.84 367.23 242.61 332.55 239.37 332.36"/><polygon class="cls-4" points="253.05 333.14 192.84 375.1 192.84 377.54 256.28 333.33 253.05 333.14"/><polygon class="cls-4" points="266.73 333.93 192.84 385.42 192.84 387.85 269.96 334.11 266.73 333.93"/><polygon class="cls-4" points="280.4 334.71 192.84 395.73 192.84 398.17 283.63 334.9 280.4 334.71"/><polygon class="cls-4" points="294.07 335.5 192.84 406.04 192.84 408.48 297.31 335.68 294.07 335.5"/><polygon class="cls-4" points="307.75 336.28 192.84 416.36 192.84 418.79 310.98 336.46 307.75 336.28"/><polygon class="cls-4" points="321.43 337.06 192.84 426.67 192.84 429.11 324.66 337.25 321.43 337.06"/><polygon class="cls-4" points="335.1 337.85 192.84 436.98 192.84 439.42 338.33 338.03 335.1 337.85"/><polygon class="cls-4" points="348.78 338.63 192.84 447.3 192.84 449.73 352.01 338.82 348.78 338.63"/><polygon class="cls-4" points="362.45 339.41 192.84 457.61 192.84 460.05 365.68 339.6 362.45 339.41"/><polygon class="cls-4" points="376.13 340.2 192.84 467.92 192.84 470.36 379.36 340.38 376.13 340.2"/><polygon class="cls-4" points="386.09 343.57 192.84 478.24 192.84 480.67 386.09 346.01 386.09 343.57"/><polygon class="cls-4" points="386.09 353.88 192.84 488.55 192.84 490.99 386.09 356.32 386.09 353.88"/><polygon class="cls-4" points="386.09 364.2 192.84 498.86 192.84 501.3 386.09 366.63 386.09 364.2"/><polygon class="cls-4" points="386.09 374.51 192.84 509.17 192.84 511.61 386.09 376.94 386.09 374.51"/><polygon class="cls-4" points="386.09 384.82 192.84 519.49 192.84 521.92 386.09 387.26 386.09 384.82"/><polygon class="cls-4" points="386.09 395.13 192.84 529.8 192.84 532.24 386.09 397.57 386.09 395.13"/><polygon class="cls-4" points="386.09 405.45 192.84 540.12 192.84 542.55 386.09 407.89 386.09 405.45"/><polygon class="cls-4" points="386.09 415.76 200.84 544.85 203.7 545.29 386.09 418.2 386.09 415.76"/><polygon class="cls-4" points="386.09 426.05 212.92 546.72 215.81 547.17 386.09 428.51 386.09 426.05"/><polygon class="cls-4" points="386.09 436.37 225.03 548.6 227.92 549.04 386.09 438.82 386.09 436.37"/><polygon class="cls-4" points="386.09 446.68 237.14 550.47 240 550.91 386.09 449.12 386.09 446.68"/><polygon class="cls-4" points="386.09 456.99 249.25 552.35 252.11 552.79 386.09 459.43 386.09 456.99"/><polygon class="cls-4" points="386.09 467.3 261.36 554.22 264.22 554.67 386.09 469.74 386.09 467.3"/><polygon class="cls-4" points="386.09 477.62 273.46 556.1 276.33 556.54 386.09 480.06 386.09 477.62"/><polygon class="cls-4" points="386.09 487.93 285.57 557.98 288.43 558.42 386.09 490.37 386.09 487.93"/><polygon class="cls-4" points="386.09 498.24 297.68 559.85 300.54 560.29 386.09 500.68 386.09 498.24"/><polygon class="cls-4" points="386.09 508.56 309.79 561.73 312.65 562.17 386.09 510.99 386.09 508.56"/><polygon class="cls-4" points="386.09 518.87 321.9 563.6 324.76 564.05 386.09 521.31 386.09 518.87"/><polygon class="cls-4" points="386.09 529.18 334 565.48 336.87 565.92 386.09 531.62 386.09 529.18"/><polygon class="cls-4" points="386.09 539.5 346.11 567.35 348.97 567.8 386.09 541.93 386.09 539.5"/><polygon class="cls-4" points="386.09 549.81 358.22 569.23 361.08 569.67 386.09 552.25 386.09 549.81"/><polygon class="cls-4" points="386.09 560.12 370.33 571.11 373.19 571.55 386.09 562.56 386.09 560.12"/><polygon class="cls-4" points="386.09 572.87 386.09 570.44 382.44 572.98 385.3 573.42 386.09 572.87"/><path class="cls-2" d="M385.79,573.39h-.11L192.43,543.45a.75.75,0,0,1-.64-.74V328.79a.77.77,0,0,1,.24-.55.76.76,0,0,1,.56-.2l193.25,11.08a.75.75,0,0,1,.7.75V572.64a.73.73,0,0,1-.26.57A.72.72,0,0,1,385.79,573.39Zm-192.5-31.33L385,571.77V340.57l-191.75-11Z"/><g class="cls-5"><polygon class="cls-6" points="117.86 429.34 128.81 493.65 316.96 523.67 323.93 449.35 117.86 429.34"/><path d="M317,524.42h-.12l-188.15-30a.78.78,0,0,1-.62-.62l-10.95-64.32a.73.73,0,0,1,.19-.63.77.77,0,0,1,.62-.24L324,448.6a.75.75,0,0,1,.67.82l-7,74.32a.76.76,0,0,1-.29.52A.78.78,0,0,1,317,524.42ZM129.46,493l186.83,29.8L323.11,450,118.76,430.18Z"/></g><g class="cls-5"><polygon class="cls-7" points="316.96 523.67 374.7 457.92 381.67 392.18 331.89 415.05 323.12 457.92 316.96 523.67"/><path d="M317,524.42a.8.8,0,0,1-.3-.06.75.75,0,0,1-.45-.76l6.17-65.75,8.78-43a.75.75,0,0,1,.42-.53l49.77-22.86a.72.72,0,0,1,.75.07.75.75,0,0,1,.31.69l-7,65.74a.73.73,0,0,1-.18.42l-57.74,65.74A.73.73,0,0,1,317,524.42Zm15.59-108.85-8.69,42.5-5.94,63.37L374,457.61l6.8-64.2Z"/></g><polygon class="cls-1" points="384.97 406.67 307.15 484.89 307.15 392.18 384.97 339.69 384.97 406.67"/><path class="cls-2" d="M307.15,485.64a.72.72,0,0,1-.29-.06.74.74,0,0,1-.46-.69V392.18a.74.74,0,0,1,.33-.62l77.82-52.49a.75.75,0,0,1,.78,0,.75.75,0,0,1,.39.66v67a.74.74,0,0,1-.21.53l-77.83,78.22A.79.79,0,0,1,307.15,485.64Zm.75-93.06v90.49l76.32-76.71V341.1ZM385,406.67h0Z"/><polygon class="cls-8" points="307.15 484.89 108.79 455.95 108.79 376.1 307.15 392.18 307.15 484.89"/><path class="cls-2" d="M307.15,485.64H307L108.69,456.69A.75.75,0,0,1,108,456V376.1a.73.73,0,0,1,.25-.55.78.78,0,0,1,.56-.2l198.36,16.08a.75.75,0,0,1,.69.75v92.71a.78.78,0,0,1-.26.57A.8.8,0,0,1,307.15,485.64ZM109.54,455.3,306.4,484V392.87L109.54,376.92Z"/><path class="cls-9" d="M331.69,461a.75.75,0,0,1,0-1.5l43-2.3a.76.76,0,0,1,.79.71.75.75,0,0,1-.71.79l-43,2.3Z"/><path class="cls-9" d="M128.81,494.4a.77.77,0,0,1-.63-.34.75.75,0,0,1,.22-1l43.72-28.41a.74.74,0,0,1,1,.22.75.75,0,0,1-.22,1l-43.71,28.4A.7.7,0,0,1,128.81,494.4Z"/><path class="cls-3" d="M218.79,490.92c-.31.3-.62.6-.92.91a35,35,0,0,0-3.21,3.6,34.18,34.18,0,0,0-6.91,18.18c-.06.82-.08,1.65-.09,2.47l0,2.2c0,.71-.09,1.43-.14,2.15l-.28,2.13a38.42,38.42,0,0,1-2.33,8.35,42.81,42.81,0,0,1-10.13,14.73,30.55,30.55,0,0,0,13.67-13,33.72,33.72,0,0,0,3.45-9.17c.18-.8.29-1.62.44-2.43s.19-1.63.26-2.46l.08-2.42c0-.72.05-1.43.11-2.15a37.44,37.44,0,0,1,5.16-16.34c.37-.63.77-1.24,1.17-1.86l1.29-1.84c.43-.58.84-1.18,1.25-1.77Z"/><path class="cls-3" d="M291.89,482.93c-.3.31-.61.61-.92.91a36.12,36.12,0,0,0-3.2,3.61,34.1,34.1,0,0,0-6.91,18.18c-.07.82-.09,1.64-.09,2.47l0,2.2c0,.71-.1,1.43-.14,2.14l-.28,2.14a39.15,39.15,0,0,1-2.33,8.35,42.84,42.84,0,0,1-10.14,14.73,30.57,30.57,0,0,0,13.68-13,34.18,34.18,0,0,0,3.45-9.17c.17-.8.29-1.62.43-2.43s.19-1.64.26-2.46l.09-2.42c0-.72,0-1.44.1-2.15A37.55,37.55,0,0,1,291,489.66c.36-.64.77-1.25,1.16-1.86l1.3-1.84,1.25-1.78Z"/><path class="cls-3" d="M139.72,460.56l-.93.9a36.12,36.12,0,0,0-3.2,3.61,34.1,34.1,0,0,0-6.91,18.18c-.06.82-.09,1.65-.09,2.47l-.05,2.2c0,.71-.1,1.43-.14,2.15l-.28,2.13a38.42,38.42,0,0,1-2.33,8.35,42.84,42.84,0,0,1-10.14,14.73,30.57,30.57,0,0,0,13.68-13,34.05,34.05,0,0,0,3.45-9.17c.17-.8.29-1.62.43-2.43s.2-1.64.26-2.46l.09-2.42c0-.72,0-1.43.11-2.15a37.44,37.44,0,0,1,5.16-16.34c.36-.64.77-1.24,1.16-1.86l1.3-1.84,1.25-1.77Z"/><path class="cls-3" d="M204.59,490.92c-.3.3-.62.6-.92.91a34.91,34.91,0,0,0-3.2,3.6,34.1,34.1,0,0,0-6.91,18.18c-.07.82-.09,1.65-.09,2.47l-.05,2.2c0,.71-.1,1.43-.14,2.15l-.28,2.13a38.45,38.45,0,0,1-2.34,8.35,42.67,42.67,0,0,1-10.13,14.73,30.57,30.57,0,0,0,13.68-13,34.05,34.05,0,0,0,3.45-9.17c.17-.8.29-1.62.43-2.43s.19-1.63.26-2.46l.09-2.42c0-.72,0-1.43.1-2.15a37.59,37.59,0,0,1,5.17-16.34c.36-.63.77-1.24,1.16-1.86l1.3-1.84c.42-.58.83-1.18,1.25-1.77Z"/><polygon class="cls-1" points="385.35 406.88 191.1 383.94 192.1 169.03 384.35 181.1 385.35 406.88"/><path class="cls-2" d="M385.35,407.63h-.09L191,384.69a.76.76,0,0,1-.66-.75l1-214.92a.75.75,0,0,1,.24-.54.72.72,0,0,1,.56-.2L384.4,180.35a.75.75,0,0,1,.7.75l1,225.78a.75.75,0,0,1-.25.56A.78.78,0,0,1,385.35,407.63Zm-193.5-24.36L384.6,406l-1-224.22-190.75-12Z"/><polygon class="cls-4" points="196.91 170.25 192.39 173.09 192.39 175.52 200.14 170.43 196.91 170.25"/><polygon class="cls-4" points="210.58 171.03 191.39 184.4 191.39 186.84 213.81 171.21 210.58 171.03"/><polygon class="cls-4" points="224.25 171.81 191.39 194.71 191.39 197.15 227.49 172 224.25 171.81"/><polygon class="cls-4" points="237.93 172.6 191.39 205.03 191.39 207.46 241.16 172.78 237.93 172.6"/><polygon class="cls-4" points="251.61 173.38 191.39 215.34 191.39 217.78 254.84 173.56 251.61 173.38"/><polygon class="cls-4" points="265.28 174.16 191.39 225.65 191.39 228.09 268.51 174.35 265.28 174.16"/><polygon class="cls-4" points="278.96 174.95 191.39 235.96 191.39 238.4 282.19 175.13 278.96 174.95"/><polygon class="cls-4" points="292.63 175.73 191.39 246.28 191.39 248.72 295.86 175.92 292.63 175.73"/><polygon class="cls-4" points="306.31 176.51 191.39 256.59 191.39 259.03 309.54 176.7 306.31 176.51"/><polygon class="cls-4" points="319.98 177.3 191.39 266.9 191.39 269.34 323.21 177.48 319.98 177.3"/><polygon class="cls-4" points="333.66 178.08 191.39 277.22 191.39 279.65 336.89 178.27 333.66 178.08"/><polygon class="cls-4" points="347.33 178.87 191.39 287.53 191.39 289.97 350.56 179.05 347.33 178.87"/><polygon class="cls-4" points="361.01 179.65 191.39 297.84 191.39 300.28 364.24 179.84 361.01 179.65"/><polygon class="cls-4" points="374.68 180.43 191.39 308.16 191.39 310.59 377.91 180.62 374.68 180.43"/><polygon class="cls-4" points="384.64 183.81 191.39 318.47 191.39 320.91 384.64 186.24 384.64 183.81"/><polygon class="cls-4" points="384.64 194.12 191.39 328.78 191.39 331.22 384.64 196.56 384.64 194.12"/><polygon class="cls-4" points="384.64 204.43 191.39 339.1 191.39 341.53 384.64 206.87 384.64 204.43"/><polygon class="cls-4" points="384.64 214.74 191.39 349.41 191.39 351.85 384.64 217.18 384.64 214.74"/><polygon class="cls-4" points="384.64 225.06 191.39 359.72 191.39 362.16 384.64 227.49 384.64 225.06"/><polygon class="cls-4" points="384.64 235.37 191.39 370.04 191.39 372.47 384.64 237.81 384.64 235.37"/><polygon class="cls-4" points="384.64 245.68 191.39 380.35 191.39 382.79 384.64 248.12 384.64 245.68"/><polygon class="cls-4" points="384.64 256 199.4 385.08 202.26 385.53 384.64 258.43 384.64 256"/><polygon class="cls-4" points="384.64 266.29 211.48 386.96 214.37 387.4 384.64 268.75 384.64 266.29"/><polygon class="cls-4" points="384.64 276.6 223.59 388.83 226.48 389.28 384.64 279.06 384.64 276.6"/><polygon class="cls-4" points="384.64 286.91 235.7 390.71 238.56 391.15 384.64 289.35 384.64 286.91"/><polygon class="cls-4" points="384.64 297.23 247.81 392.58 250.67 393.03 384.64 299.66 384.64 297.23"/><polygon class="cls-4" points="384.64 307.54 259.91 394.46 262.77 394.9 384.64 309.98 384.64 307.54"/><polygon class="cls-4" points="384.64 317.85 272.02 396.33 274.88 396.78 384.64 320.29 384.64 317.85"/><polygon class="cls-4" points="384.64 328.17 284.13 398.21 286.99 398.65 384.64 330.6 384.64 328.17"/><polygon class="cls-4" points="384.64 338.48 296.24 400.09 299.1 400.53 384.64 340.92 384.64 338.48"/><polygon class="cls-4" points="384.64 348.79 308.35 401.96 311.21 402.4 384.64 351.23 384.64 348.79"/><polygon class="cls-4" points="384.64 359.11 320.45 403.84 323.31 404.28 384.64 361.54 384.64 359.11"/><polygon class="cls-4" points="384.64 369.42 332.56 405.71 335.42 406.16 384.64 371.86 384.64 369.42"/><polygon class="cls-4" points="384.64 379.73 344.67 407.59 347.53 408.03 384.64 382.17 384.64 379.73"/><polygon class="cls-4" points="384.64 390.05 356.78 409.46 359.64 409.91 384.64 392.48 384.64 390.05"/><polygon class="cls-4" points="384.64 400.36 368.88 411.34 371.75 411.78 384.64 402.8 384.64 400.36"/><polygon class="cls-4" points="385.64 406.11 385.64 403.67 381.99 406.22 384.85 406.66 385.64 406.11"/><path class="cls-2" d="M385.35,407.63h-.09L191,384.69a.76.76,0,0,1-.66-.75l1-214.92a.75.75,0,0,1,.24-.54.72.72,0,0,1,.56-.2L384.4,180.35a.75.75,0,0,1,.7.75l1,225.78a.75.75,0,0,1-.25.56A.78.78,0,0,1,385.35,407.63Zm-193.5-24.36L384.6,406l-1-224.22-190.75-12Z"/><polygon class="cls-1" points="385.7 405.95 307.7 484.74 307.7 235.59 385.7 180.56 385.7 405.95"/><path class="cls-2" d="M307.7,485.49a.92.92,0,0,1-.28-.05.76.76,0,0,1-.47-.7V235.59a.75.75,0,0,1,.32-.61l78-55a.75.75,0,0,1,1.18.62V406a.74.74,0,0,1-.21.53l-78,78.79A.71.71,0,0,1,307.7,485.49ZM308.45,236V482.92L385,405.64V182ZM385.7,406h0Z"/><polygon class="cls-8" points="307.7 484.74 108.45 455.81 108.45 217.55 307.7 236.03 307.7 484.74"/><path class="cls-2" d="M307.7,485.49h-.11L108.34,456.55a.76.76,0,0,1-.64-.75V217.55A.77.77,0,0,1,108,217a.74.74,0,0,1,.57-.19l199.25,18.49a.74.74,0,0,1,.68.75v248.7a.73.73,0,0,1-.26.57A.72.72,0,0,1,307.7,485.49ZM109.2,455.16,307,483.88V236.72L109.2,218.37Z"/><polygon class="cls-10" points="269.44 357.06 269.44 341.68 274.45 341.68 274.45 346.69 285.9 346.69 285.9 352.05 274.45 352.05 274.45 357.06 269.44 357.06"/><polygon class="cls-10" points="269.62 295.35 269.62 295.35 269.62 300 269.62 300 269.62 305.37 286.07 305.37 286.07 300 274.99 300 274.99 295.35 286.07 295.35 286.07 289.99 274.99 289.99 269.62 289.99 269.62 289.99 269.62 295.35"/><polygon class="cls-10" points="276.06 256 269.62 251.35 269.62 257.43 276.06 262.08 276.06 262.8 269.62 262.8 269.62 268.16 286.07 268.16 286.07 262.8 279.99 262.8 279.99 261.37 286.07 258.51 286.07 252.07 277.85 257.07 276.06 256"/><path class="cls-10" d="M269.62,276.39v5l16.45,7.16v-5.73l-2.86-.71V276l2.86-1.07v-5.72Zm9.66,4.3L275,278.9l4.3-1.43Z"/><path class="cls-10" d="M269.62,330.41v5l16.45,7.15v-5.72l-2.86-.72v-6.08l2.86-1.07v-5.72Zm9.66,4.29-4.3-1.79,4.3-1.43Z"/><path class="cls-10" d="M269.62,313.05v8.77h16.45v-5.36h-3.94v-3.41a6.25,6.25,0,0,0-6.26-6.25h0A6.25,6.25,0,0,0,269.62,313.05Zm8.23,1.05v2.36H274V314.1a1.94,1.94,0,0,1,3.88,0Z"/><path class="cls-1" d="M189.17,133.21l21.1-5s11,52,53.25,28,10,46,10,46-92.43,7-95.44,7-44.21-7-38.18-14,29.14-39,32.15-42S189.17,133.21,189.17,133.21Z"/><path class="cls-2" d="M178.12,210c-2.5,0-36.23-5.54-39.27-12.18a2.71,2.71,0,0,1,.52-3.06c3-3.51,10.31-13.26,17.35-22.7s13.31-17.81,14.84-19.34c3-2.94,16.89-19.78,17-20a.83.83,0,0,1,.41-.25l21.1-5a.77.77,0,0,1,.57.1.74.74,0,0,1,.33.48c.05.24,5.34,24.23,21.71,31.58,8.63,3.87,18.87,2.5,30.44-4.08,9.71-5.52,16.21-6.57,19.87-3.22,9.93,9.11-8,48.51-8.77,50.19a.78.78,0,0,1-.63.43C269.85,203.25,181.13,210,178.12,210Zm11.47-76.08c-1.65,2-14.1,17-17,19.86-1.45,1.45-7.89,10.06-14.69,19.18-7.06,9.46-14.36,19.23-17.42,22.78a1.24,1.24,0,0,0-.3,1.46c2.55,5.56,34.27,11.3,37.91,11.3,2.84,0,88-6.44,94.94-7,1.89-4.22,17.58-40.13,8.94-48.05-3.07-2.82-9.17-1.67-18.11,3.41-12,6.83-22.71,8.23-31.8,4.15-15.6-7-21.34-27.62-22.38-31.89Z"/><path class="cls-4" d="M195.42,131.56l-13.26,9.2c-1.62,1.93-3.36,4-5,5.89l23.58-16.35Z"/><path class="cls-4" d="M210.42,131.47l-48.09,33.36-3.8,5.07,52.52-36.43C210.81,132.74,210.6,132.07,210.42,131.47Z"/><path class="cls-4" d="M213.46,139.68l-67.24,46.64c-1.48,1.94-2.84,3.72-4,5.22l72.12-50C214,140.9,213.73,140.28,213.46,139.68Z"/><path class="cls-4" d="M217.48,147.2l-76,52.72a19.44,19.44,0,0,0,2,1.05l75.13-52.11C218.21,148.31,217.84,147.76,217.48,147.2Z"/><path class="cls-4" d="M222.71,153.89,150.9,203.7l2.47.72,70.81-49.11C223.67,154.85,223.18,154.38,222.71,153.89Z"/><path class="cls-4" d="M229.72,159.34l-68,47.14c.91.21,1.81.4,2.68.58l67.33-46.7C231.06,160.05,230.39,159.7,229.72,159.34Z"/><path class="cls-4" d="M240.1,162.45l-66.69,46.26c1.21.19,2.2.33,2.92.41l67.21-46.61A27.93,27.93,0,0,1,240.1,162.45Z"/><path class="cls-4" d="M267.37,153.85l-78.76,54.63,3.92-.28,81.8-56.74A30.3,30.3,0,0,0,267.37,153.85Z"/><path class="cls-4" d="M282.48,153.66l-77.3,53.61,4-.29,74.36-51.57A7.54,7.54,0,0,0,282.48,153.66Z"/><path class="cls-4" d="M284.56,162.53,221.83,206l4-.29,58.6-40.64C284.48,164.22,284.54,163.36,284.56,162.53Z"/><path class="cls-4" d="M282.81,174.06,238.49,204.8l3.94-.3L282.05,177C282.32,176,282.58,175,282.81,174.06Z"/><path class="cls-4" d="M278.88,187.1l-23.72,16.45,4-.3,18.59-12.9C278.09,189.31,278.49,188.22,278.88,187.1Z"/><path class="cls-4" d="M273.25,201.32l-1.4,1,1-.08S273,201.89,273.25,201.32Z"/><path class="cls-2" d="M178.12,210c-2.5,0-36.23-5.54-39.27-12.18a2.71,2.71,0,0,1,.52-3.06c3-3.51,10.31-13.26,17.35-22.7s13.31-17.81,14.84-19.34c3-2.94,16.89-19.78,17-20a.83.83,0,0,1,.41-.25l21.1-5a.77.77,0,0,1,.57.1.74.74,0,0,1,.33.48c.05.24,5.34,24.23,21.71,31.58,8.63,3.87,18.87,2.5,30.44-4.08,9.71-5.52,16.21-6.57,19.87-3.22,9.93,9.11-8,48.51-8.77,50.19a.78.78,0,0,1-.63.43C269.85,203.25,181.13,210,178.12,210Zm11.47-76.08c-1.65,2-14.1,17-17,19.86-1.45,1.45-7.89,10.06-14.69,19.18-7.06,9.46-14.36,19.23-17.42,22.78a1.24,1.24,0,0,0-.3,1.46c2.55,5.56,34.27,11.3,37.91,11.3,2.84,0,88-6.44,94.94-7,1.89-4.22,17.58-40.13,8.94-48.05-3.07-2.82-9.17-1.67-18.11,3.41-12,6.83-22.71,8.23-31.8,4.15-15.6-7-21.34-27.62-22.38-31.89Z"/><path class="cls-3" d="M209.89,127.78,187.2,132.9s28-32.52,55.93-27.34C243.13,105.56,216,105,209.89,127.78Z"/><path class="cls-2" d="M327.48,187.26a.75.75,0,0,1-.75-.67c-5-47-40.47-55.28-40.82-55.35a.75.75,0,0,1-.57-.9.74.74,0,0,1,.89-.57c.37.08,36.83,8.59,42,56.66a.75.75,0,0,1-.66.83Z"/><path class="cls-3" d="M340.44,146c4.38-4.91,8.9-9.66,13.42-14.42,1.12-1.19,2.35-2.33,3.53-3.51s2.47-2.22,3.71-3.34,2.59-2.11,3.92-3.12,2.69-2,4.1-2.89A89.94,89.94,0,0,1,387,109.58a91.16,91.16,0,0,1,19.51-5,94,94,0,0,1,10.06-.77c1.68,0,3.36-.07,5,0h4.85a97.14,97.14,0,0,0,19.05-2.16,103.11,103.11,0,0,0,18.41-5.86c6.09-2.45,12.17-4.92,18.34-7.18-5.71,3.27-11.51,6.33-17.31,9.4a99.06,99.06,0,0,1-9,4.23,87.44,87.44,0,0,1-9.49,3.2,89.25,89.25,0,0,1-19.85,3.1c-1.69.07-3.35.08-5,.09s-3.25,0-4.84.09a91.94,91.94,0,0,0-9.52.84A90.17,90.17,0,0,0,388.59,114a98.3,98.3,0,0,0-17.41,8,100.69,100.69,0,0,0-15.64,11.33C350.55,137.65,345.57,141.92,340.44,146Z"/><path class="cls-3" d="M346.07,144.9c3.59-2.4,7.27-4.59,11-6.79a80.2,80.2,0,0,1,11.8-5.61,82.16,82.16,0,0,1,25.69-5.23c1.09,0,2.19,0,3.29-.06l3.16,0c2.08,0,4.16-.13,6.24-.29a111.66,111.66,0,0,0,12.43-1.66c2.05-.38,4.09-.9,6.2-1.35l6.29-1.35c4.21-.83,8.42-1.68,12.69-2.31-4,1.7-8,3.18-12,4.67s-8,2.92-12.25,4.14a79.19,79.19,0,0,1-12.88,2.58c-2.18.26-4.37.42-6.57.51-1.08,0-2.23,0-3.26.07s-2.08,0-3.12.09a107.93,107.93,0,0,0-24.67,3.93,117.82,117.82,0,0,0-11.95,4.1C354.13,141.88,350.15,143.49,346.07,144.9Z"/><path class="cls-1" d="M309.24,231.41,156.58,209.59l26.66-31.47h0c14.3-14.5,39.51-33.92,39.51-54.34l-.19-1L351,132h0c0,20.2.92,43,12.83,59.3l-30.53,21.2Z"/><path class="cls-2" d="M309.24,232.16h-.1L156.47,210.34a.73.73,0,0,1-.59-.48.76.76,0,0,1,.12-.75l26.67-31.48c2.59-2.63,5.48-5.37,8.54-8.26,13.7-13,30.74-29.08,30.79-45.51l-.18-.89a.77.77,0,0,1,.17-.65.79.79,0,0,1,.62-.25L351,131.25a.75.75,0,0,1,.69.75c0,20.09,1,42.87,12.69,58.86a.75.75,0,0,1-.18,1l-30.53,21.21-24,18.88A.81.81,0,0,1,309.24,232.16ZM158,209l151,21.58,23.79-18.71,29.94-20.79c-11.42-16.13-12.5-38.52-12.53-58.42l-126.74-9.06a.61.61,0,0,1,0,.14c0,17.1-17.33,33.5-31.26,46.68-3.05,2.88-5.93,5.61-8.47,8.18Z"/><path class="cls-4" d="M222.56,122.82l-.15.9c0,.5,0,1-.06,1.49l2.53-1.77Z"/><path class="cls-4" d="M235.11,124.15l-15,10.52c-.49,1.21-1.06,2.42-1.68,3.62l19.87-13.92Z"/><path class="cls-4" d="M248.51,125.08l-42.14,29.51c-2.45,2.67-5,5.26-7.63,7.78l52.94-37.07Z"/><polygon class="cls-4" points="261.91 126.01 182.88 181.36 182.88 183.8 265.08 126.22 261.91 126.01"/><polygon class="cls-4" points="275.31 126.93 182.88 191.67 182.88 194.11 278.48 127.15 275.31 126.93"/><polygon class="cls-4" points="182.88 201.99 182.88 204.42 291.88 128.08 288.71 127.86 182.88 201.99"/><polygon class="cls-4" points="182.88 214.74 184.35 213.7 182.88 213.49 182.88 214.74"/><polygon class="cls-4" points="302.11 128.79 182.88 212.3 182.88 213.49 184.35 213.7 305.27 129.01 302.11 128.79"/><polygon class="cls-4" points="315.51 129.72 193.69 215.04 196.58 215.45 318.68 129.94 315.51 129.72"/><polygon class="cls-4" points="328.91 130.65 205.92 216.79 208.81 217.2 332.07 130.87 328.91 130.65"/><polygon class="cls-4" points="342.31 131.58 218.15 218.53 221.04 218.95 345.47 131.8 342.31 131.58"/><path class="cls-4" d="M351.51,137.88c0-.81,0-1.62,0-2.43l-.63.44c0,.81,0,1.62,0,2.43Z"/><path class="cls-4" d="M350.87,135.89,230.38,220.28l2.89.41,117.61-82.37C350.88,137.51,350.87,136.7,350.87,135.89Z"/><path class="cls-4" d="M351.71,148.05c0-.79-.06-1.58-.08-2.38l-.61.44c0,.79.05,1.58.08,2.37Z"/><path class="cls-4" d="M351,146.11,242.61,222l2.89.41,105.6-74C351.07,147.69,351,146.9,351,146.11Z"/><path class="cls-4" d="M352.36,157.91c-.07-.76-.14-1.53-.2-2.29l-.59.41c.07.76.14,1.52.22,2.28Z"/><path class="cls-4" d="M351.57,156l-96.73,67.75,2.89.41,94.06-65.88C351.71,157.55,351.64,156.79,351.57,156Z"/><path class="cls-4" d="M353.69,167.3c-.14-.72-.27-1.44-.39-2.17l-.54.38c.12.72.26,1.44.4,2.16Z"/><path class="cls-4" d="M352.76,165.51l-85.69,60,2.89.42,83.2-58.27C353,167,352.88,166.23,352.76,165.51Z"/><path class="cls-4" d="M355.87,176.08c-.21-.67-.41-1.34-.6-2l-.5.35c.2.67.41,1.34.62,2Z"/><path class="cls-4" d="M354.77,174.41,279.3,227.27l2.89.41,73.2-51.26C355.18,175.75,355,175.08,354.77,174.41Z"/><path class="cls-4" d="M359.07,184.15c-.29-.61-.58-1.22-.85-1.84l-.43.3q.42.93.87,1.83Z"/><path class="cls-4" d="M357.79,182.61,291.53,229l2.89.41,64.24-45Q358.21,183.54,357.79,182.61Z"/><path class="cls-4" d="M332.29,212.5l-8.42,6.62,39.56-27.71c-.4-.53-.77-1.08-1.14-1.63l-.36.25c.29.42.58.85.89,1.27Z"/><path class="cls-4" d="M323.87,219.12l8.42-6.62,30.53-21.2c-.31-.42-.6-.85-.89-1.27l-58.17,40.74,2.89.41Z"/><path class="cls-2" d="M308.25,232.16h-.11L155.48,210.34a.76.76,0,0,1-.6-.48.74.74,0,0,1,.13-.75l26.66-31.48c2.74-2.78,5.84-5.68,9.12-8.75C204.55,156,221.66,140,221.66,123.72a.49.49,0,0,1,0-.12l.14-.9a.76.76,0,0,1,.8-.63L351,131.25a.75.75,0,0,1,.69.75v.38c0,19.92,0,42.5,11.69,58.48a.73.73,0,0,1-.17,1l-30.53,21.21-24,18.88A.76.76,0,0,1,308.25,232.16ZM157,209l151,21.58,23.78-18.71,29.94-20.79c-11.47-16.23-11.53-38.6-11.53-58.42l-127-9.08,0,.16c0,16.88-17.39,33.13-31.34,46.19-3.27,3.06-6.36,5.95-9,8.67Z"/><path class="cls-4" d="M222,125.26c0,.82,0,1.65-.06,2.48l.5-.35c0-.83.05-1.65.06-2.48Z"/><path class="cls-4" d="M224.07,136.17c-.14.93-.3,1.85-.47,2.77l.5-.35c.17-.92.34-1.84.48-2.77Z"/><path class="cls-4" d="M221.13,148.55c-.35,1.08-.72,2.15-1.12,3.22l.52-.37c.4-1.06.77-2.13,1.12-3.22Z"/><path class="cls-4" d="M215.45,154.54q-1.29,2.21-2.72,4.34l.57-.4c.94-1.41.84,6.15,1.69,4.68Z"/><path class="cls-2" d="M348,195.16h-.07L187,180.68a.75.75,0,0,1-.66-.58.76.76,0,0,1,.33-.81l17-10.6c13.85-14.06,18.07-24.56,18.07-44.92l.12-1a.74.74,0,0,1,.8-.66L351,131.25a.75.75,0,0,1,.69.75c0,14.24,4.4,19.52,11.7,28.25,2.37,2.84,5.05,6.06,8,10.05a.75.75,0,0,1-.25,1.11l-14.89,7.76-7.61,15.57A.74.74,0,0,1,348,195.16ZM189.34,179.38l158.19,14.24L355,178.29a.72.72,0,0,1,.33-.34l14.33-7.47c-2.7-3.63-5.19-6.61-7.4-9.27-7.39-8.85-11.9-14.25-12-28.51l-127-9.08,0,.24c0,20.77-4.34,31.52-18.57,45.94a.69.69,0,0,1-.13.11Z"/><path class="cls-1" d="M221.2,165.58c-7.39,12-65.31,29.31-65.31,29.31l-15.46-36.95,82.13-35.12S228.58,153.59,221.2,165.58Z"/><path class="cls-2" d="M155.89,195.64a.76.76,0,0,1-.69-.46l-15.46-37a.75.75,0,0,1,.39-1l82.13-35.12a.74.74,0,0,1,.65,0,.71.71,0,0,1,.38.51c.25,1.27,6,31.2-1.46,43.3s-63.35,28.92-65.72,29.63A.6.6,0,0,1,155.89,195.64Zm-14.48-37.31L156.32,194c6.37-1.94,57.5-17.84,64.24-28.78,6.44-10.47,2.34-36.14,1.43-41.31Z"/><path class="cls-1" d="M385.54,180.47l-78.28,55.35-25.44-4.28,4.7-61.63L351,132l1.29,4.3c5.48,16.74,18.38,32.43,32.28,43.17h0Z"/><path class="cls-2" d="M307.26,236.57h-.12l-25.44-4.29a.74.74,0,0,1-.62-.79l4.69-61.62a.75.75,0,0,1,.37-.59l64.46-37.91a.74.74,0,0,1,1.1.43l1.29,4.29c4.95,15.13,16.92,31.13,32,42.8l1.07,1.07a.75.75,0,0,1,.21.59.76.76,0,0,1-.31.55l-78.29,55.35A.73.73,0,0,1,307.26,236.57Zm-24.64-5.66L307.08,235l77.31-54.66L384,180c-15.25-11.78-27.41-28.05-32.46-43.47l-1-3.4-63.3,37.23Z"/><path class="cls-8" d="M107.93,217.89s32.37-37.16,32.37-57.57v-1.69l144.7,11h1.59c0,20.19,4.58,44.22,16.49,60.49l4,5.46Z"/><path class="cls-2" d="M307.08,236.36H307L107.86,218.64a.77.77,0,0,1-.63-.47.73.73,0,0,1,.13-.77c.32-.37,32.19-37.18,32.19-57.08v-1.69a.75.75,0,0,1,.81-.75l144.7,11h1.53a.74.74,0,0,1,.75.75c0,23.62,6.11,46.07,16.34,60l4,5.47a.74.74,0,0,1,.05.81A.73.73,0,0,1,307.08,236.36ZM109.44,217.27l196.05,17.45-3-4.13c-14.69-20.07-16.55-48.23-16.62-60.18H285l-143.95-11v.88C141.05,179,114.91,210.83,109.44,217.27Z"/><path class="cls-8" d="M307,236.24c1.44-39.92,6.14-67.8-20.93-102.07-3.91-4.95-12.73-.85-12.58,5.42,0,1.95-6,77.78-62.14,62C188,195,179.91,157.71,188,134.65l.06-.18c2.1-5.94-4.39-9-10.18-4.85-19.89,14.2-48.1,43.37-66,79.84-1.2,2.44-2.49,5.59-3.64,8.1Z"/><path class="cls-2" d="M307,237h-.07L108.19,218.3a.74.74,0,0,1-.58-.37.76.76,0,0,1,0-.69c.45-1,.93-2.07,1.41-3.18.74-1.69,1.51-3.44,2.23-4.93,18.27-37.29,47.08-66.47,66.2-80.12,3.35-2.39,7.28-2.73,9.78-.84,1.91,1.44,2.49,3.89,1.55,6.55l-.06.18c-5.13,14.64-3.57,34.74,3.79,48.89,4.67,9,11.25,14.87,19,17.06,14.55,4.1,27,2.27,36.89-5.42,21.66-16.8,24.3-55.46,24.29-55.82-.1-4,2.86-6.8,5.83-7.87a7,7,0,0,1,8.09,2c24.36,30.85,23.15,57,21.62,90.21-.18,4-.37,8.11-.53,12.36a.72.72,0,0,1-.25.53A.76.76,0,0,1,307,237ZM109.38,216.91l196.86,18.51c.15-4,.33-7.83.5-11.58,1.58-34.14,2.71-58.8-21.3-89.21-1.46-1.85-3.85-2.4-6.4-1.48-2.38.86-4.92,3.24-4.84,6.42,0,.37-2.65,39.79-24.85,57-10.33,8-23.19,9.93-38.24,5.69-8.19-2.3-15.09-8.46-20-17.81C183.62,170,182,149.4,187.27,134.4l.07-.18c.72-2,.34-3.81-1-4.85-1.6-1.2-4.78-1.44-8,.86-19,13.55-47.58,42.52-65.72,79.56-.71,1.46-1.47,3.19-2.2,4.87Z"/><path class="cls-11" d="M176.35,130.07,188,132.9s53.43-64.22,85.93,3.43c0,0,3.47-5.25,7.35-4S240.27,58.13,176.35,130.07Z"/><path class="cls-12" d="M239.06,100.12s31.41,7.92,41.7,32.26L303.54,125s-13.06-15.47-28.85-24.47a33.6,33.6,0,0,0-20.13-4.14L228.91,99S235.27,99.56,239.06,100.12Z"/><path class="cls-13" d="M281.48,132l22.06-7.07s40.68,7.41,82.16,55.66l-78.62,55.77S313,154.12,281.48,132Z"/><path class="cls-2" d="M307.08,237.08a.79.79,0,0,1-.37-.1.76.76,0,0,1-.38-.71c.06-.82,5.57-82-25.28-103.68a.75.75,0,0,1,.2-1.33l22.06-7.07a.63.63,0,0,1,.36,0c.41.07,41.43,8,82.6,55.9a.74.74,0,0,1-.13,1.1l-78.63,55.77A.76.76,0,0,1,307.08,237.08Zm-24-104.84C311.34,154,308.6,223.12,307.93,234.8l76.67-54.38c-39.24-45.31-78.05-54.13-81-54.74Z"/></svg>