<svg id="Слой_1" data-name="Слой 1" xmlns="http://www.w3.org/2000/svg" viewBox="0 0 499.89 669.62"><defs><style>.cls-1{fill:#ccc;}.cls-2{fill:#444;}.cls-3{fill:#0084b2;}.cls-4{fill:#bfbfbf;}.cls-5,.cls-9{opacity:0.5;}.cls-6{fill:#9ac9ef;}.cls-7{fill:#727f89;}.cls-8{fill:#f9f9f9;}.cls-10{fill:#99c6d6;}.cls-11{fill:#2cc8ff;}.cls-12{fill:#00a5eb;}</style></defs><title>к</title><polygon class="cls-1" points="193.1 236.98 108.92 338.08 107.92 217.89 192.1 168.94 193.1 236.98"/><path class="cls-2" d="M108.93,338.83a.78.78,0,0,1-.26,0,.76.76,0,0,1-.49-.7l-1-120.19a.75.75,0,0,1,.37-.66l84.18-49a.74.74,0,0,1,1.12.63l1,68.05a.67.67,0,0,1-.17.49L109.5,338.56A.76.76,0,0,1,108.93,338.83Zm-.25-120.51,1,117.71,82.69-99.31-1-66.49Z"/><polygon class="cls-1" points="193.97 394.95 108.79 455.73 108.79 375.86 192.97 328.91 193.97 394.95"/><path class="cls-2" d="M108.79,456.48a.71.71,0,0,1-.34-.08.76.76,0,0,1-.41-.67V375.86a.74.74,0,0,1,.39-.65l84.18-47a.75.75,0,0,1,1.11.65l1,66a.75.75,0,0,1-.31.63l-85.18,60.77A.7.7,0,0,1,108.79,456.48Zm.75-80.18v78l83.68-59.71-1-64.4Z"/><path class="cls-3" d="M376.65,553.36c-1.57,2.71-3.32,5.27-5,7.84q-1.32,1.92-2.67,3.8l-1.3,1.84c-.39.61-.8,1.22-1.16,1.86A37.55,37.55,0,0,0,361.3,585c-.06.71-.09,1.43-.1,2.15l-.09,2.42c-.07.82-.17,1.64-.26,2.46s-.26,1.63-.43,2.43a34.18,34.18,0,0,1-3.45,9.17,30.57,30.57,0,0,1-13.68,13A42.78,42.78,0,0,0,353.43,602a38.91,38.91,0,0,0,2.33-8.34l.28-2.14c0-.71.11-1.43.14-2.14l.05-2.2c0-.83,0-1.65.09-2.47a34.1,34.1,0,0,1,6.91-18.18,36.12,36.12,0,0,1,3.2-3.61c1.09-1.1,2.19-2.18,3.31-3.26C372,557.49,374.24,555.35,376.65,553.36Z"/><path class="cls-3" d="M221.15,523.82c-1.57,2.71-3.32,5.27-5.05,7.84q-1.32,1.92-2.67,3.8l-1.3,1.84c-.39.62-.8,1.22-1.16,1.86a37.59,37.59,0,0,0-5.17,16.34c-.06.72-.09,1.43-.1,2.15l-.09,2.42c-.07.82-.17,1.64-.26,2.46s-.26,1.63-.43,2.43a34.05,34.05,0,0,1-3.45,9.17,30.57,30.57,0,0,1-13.68,13,42.84,42.84,0,0,0,10.14-14.73,39,39,0,0,0,2.33-8.35l.28-2.13c0-.72.11-1.44.14-2.15l0-2.2c0-.82,0-1.65.09-2.47A34.1,34.1,0,0,1,207.73,537a36.12,36.12,0,0,1,3.2-3.61c1.09-1.09,2.19-2.18,3.31-3.25C216.49,528,218.74,525.82,221.15,523.82Z"/><polygon class="cls-1" points="385.79 572.64 192.54 542.71 192.54 328.79 385.79 339.87 385.79 572.64"/><path class="cls-2" d="M385.79,573.39h-.11L192.43,543.45a.75.75,0,0,1-.64-.74V328.79a.77.77,0,0,1,.24-.55.76.76,0,0,1,.56-.2l193.25,11.08a.75.75,0,0,1,.7.75V572.64a.73.73,0,0,1-.26.57A.72.72,0,0,1,385.79,573.39Zm-192.5-31.33L385,571.77V340.57l-191.75-11Z"/><polygon class="cls-4" points="198.35 330.01 192.84 333.85 192.84 336.29 201.58 330.19 198.35 330.01"/><polygon class="cls-4" points="212.02 330.79 192.84 344.16 192.84 346.6 215.25 330.98 212.02 330.79"/><polygon class="cls-4" points="225.7 331.58 192.84 354.48 192.84 356.91 228.93 331.76 225.7 331.58"/><polygon class="cls-4" points="239.37 332.36 192.84 364.79 192.84 367.23 242.61 332.55 239.37 332.36"/><polygon class="cls-4" points="253.05 333.14 192.84 375.1 192.84 377.54 256.28 333.33 253.05 333.14"/><polygon class="cls-4" points="266.73 333.93 192.84 385.42 192.84 387.85 269.96 334.11 266.73 333.93"/><polygon class="cls-4" points="280.4 334.71 192.84 395.73 192.84 398.17 283.63 334.9 280.4 334.71"/><polygon class="cls-4" points="294.07 335.5 192.84 406.04 192.84 408.48 297.31 335.68 294.07 335.5"/><polygon class="cls-4" points="307.75 336.28 192.84 416.36 192.84 418.79 310.98 336.46 307.75 336.28"/><polygon class="cls-4" points="321.43 337.06 192.84 426.67 192.84 429.11 324.66 337.25 321.43 337.06"/><polygon class="cls-4" points="335.1 337.85 192.84 436.98 192.84 439.42 338.33 338.03 335.1 337.85"/><polygon class="cls-4" points="348.78 338.63 192.84 447.3 192.84 449.73 352.01 338.82 348.78 338.63"/><polygon class="cls-4" points="362.45 339.41 192.84 457.61 192.84 460.05 365.68 339.6 362.45 339.41"/><polygon class="cls-4" points="376.13 340.2 192.84 467.92 192.84 470.36 379.36 340.38 376.13 340.2"/><polygon class="cls-4" points="386.09 343.57 192.84 478.24 192.84 480.67 386.09 346.01 386.09 343.57"/><polygon class="cls-4" points="386.09 353.88 192.84 488.55 192.84 490.99 386.09 356.32 386.09 353.88"/><polygon class="cls-4" points="386.09 364.2 192.84 498.86 192.84 501.3 386.09 366.63 386.09 364.2"/><polygon class="cls-4" points="386.09 374.51 192.84 509.17 192.84 511.61 386.09 376.94 386.09 374.51"/><polygon class="cls-4" points="386.09 384.82 192.84 519.49 192.84 521.92 386.09 387.26 386.09 384.82"/><polygon class="cls-4" points="386.09 395.14 192.84 529.8 192.84 532.24 386.09 397.57 386.09 395.14"/><polygon class="cls-4" points="386.09 405.45 192.84 540.12 192.84 542.55 386.09 407.89 386.09 405.45"/><polygon class="cls-4" points="386.09 415.76 200.84 544.85 203.7 545.29 386.09 418.2 386.09 415.76"/><polygon class="cls-4" points="386.09 426.05 212.92 546.72 215.81 547.17 386.09 428.51 386.09 426.05"/><polygon class="cls-4" points="386.09 436.37 225.03 548.6 227.92 549.04 386.09 438.82 386.09 436.37"/><polygon class="cls-4" points="386.09 446.68 237.14 550.47 240 550.91 386.09 449.12 386.09 446.68"/><polygon class="cls-4" points="386.09 456.99 249.25 552.35 252.11 552.79 386.09 459.43 386.09 456.99"/><polygon class="cls-4" points="386.09 467.31 261.36 554.22 264.22 554.67 386.09 469.74 386.09 467.31"/><polygon class="cls-4" points="386.09 477.62 273.46 556.1 276.33 556.54 386.09 480.06 386.09 477.62"/><polygon class="cls-4" points="386.09 487.93 285.57 557.98 288.43 558.42 386.09 490.37 386.09 487.93"/><polygon class="cls-4" points="386.09 498.24 297.68 559.85 300.54 560.29 386.09 500.68 386.09 498.24"/><polygon class="cls-4" points="386.09 508.56 309.79 561.73 312.65 562.17 386.09 510.99 386.09 508.56"/><polygon class="cls-4" points="386.09 518.87 321.9 563.6 324.76 564.05 386.09 521.31 386.09 518.87"/><polygon class="cls-4" points="386.09 529.18 334 565.48 336.87 565.92 386.09 531.62 386.09 529.18"/><polygon class="cls-4" points="386.09 539.5 346.11 567.35 348.97 567.8 386.09 541.93 386.09 539.5"/><polygon class="cls-4" points="386.09 549.81 358.22 569.23 361.08 569.67 386.09 552.25 386.09 549.81"/><polygon class="cls-4" points="386.09 560.12 370.33 571.11 373.19 571.55 386.09 562.56 386.09 560.12"/><polygon class="cls-4" points="386.09 572.87 386.09 570.44 382.44 572.98 385.3 573.42 386.09 572.87"/><path class="cls-2" d="M385.79,573.39h-.11L192.43,543.45a.75.75,0,0,1-.64-.74V328.79a.77.77,0,0,1,.24-.55.76.76,0,0,1,.56-.2l193.25,11.08a.75.75,0,0,1,.7.75V572.64a.73.73,0,0,1-.26.57A.72.72,0,0,1,385.79,573.39Zm-192.5-31.33L385,571.77V340.57l-191.75-11Z"/><g class="cls-5"><polygon class="cls-6" points="117.86 429.34 128.81 493.65 316.96 523.67 323.93 449.35 117.86 429.34"/><path d="M317,524.42h-.12l-188.15-30a.78.78,0,0,1-.62-.62l-10.95-64.32a.73.73,0,0,1,.19-.63.77.77,0,0,1,.62-.24L324,448.6a.75.75,0,0,1,.67.82l-7,74.32a.78.78,0,0,1-.29.52A.76.76,0,0,1,317,524.42ZM129.46,493l186.83,29.8L323.11,450,118.77,430.18Z"/></g><g class="cls-5"><polygon class="cls-7" points="316.96 523.67 374.7 457.92 381.67 392.18 331.89 415.05 323.12 457.92 316.96 523.67"/><path d="M317,524.42a.8.8,0,0,1-.3-.06.75.75,0,0,1-.45-.76l6.17-65.75,8.78-43a.75.75,0,0,1,.42-.54l49.77-22.86a.72.72,0,0,1,.75.07.75.75,0,0,1,.31.69l-7,65.74a.73.73,0,0,1-.18.42l-57.74,65.74A.73.73,0,0,1,317,524.42Zm15.59-108.85-8.69,42.5-5.94,63.37L374,457.61l6.8-64.2Z"/></g><polygon class="cls-1" points="384.97 406.67 307.15 484.89 307.15 392.18 384.97 339.69 384.97 406.67"/><path class="cls-2" d="M307.15,485.64a.72.72,0,0,1-.29-.06.74.74,0,0,1-.46-.69V392.18a.73.73,0,0,1,.33-.62l77.82-52.49a.75.75,0,0,1,.78,0,.75.75,0,0,1,.39.66v67a.74.74,0,0,1-.21.53l-77.83,78.22A.79.79,0,0,1,307.15,485.64Zm.75-93.06v90.49l76.32-76.71V341.1ZM385,406.67h0Z"/><polygon class="cls-8" points="307.15 484.89 108.79 455.95 108.79 376.1 307.15 392.18 307.15 484.89"/><path class="cls-2" d="M307.15,485.64H307L108.69,456.69A.75.75,0,0,1,108,456V376.1a.73.73,0,0,1,.25-.55.78.78,0,0,1,.56-.2l198.36,16.08a.75.75,0,0,1,.69.75v92.71a.78.78,0,0,1-.26.57A.8.8,0,0,1,307.15,485.64ZM109.54,455.3,306.4,484V392.87L109.54,376.92Z"/><path class="cls-9" d="M331.69,461a.75.75,0,0,1-.74-.71.74.74,0,0,1,.7-.79l43-2.3a.77.77,0,0,1,.79.71.75.75,0,0,1-.71.79l-43,2.3Z"/><path class="cls-9" d="M128.81,494.4a.77.77,0,0,1-.63-.34.75.75,0,0,1,.22-1l43.72-28.41a.74.74,0,0,1,1,.22.75.75,0,0,1-.22,1l-43.71,28.4A.7.7,0,0,1,128.81,494.4Z"/><path class="cls-3" d="M218.79,490.92c-.31.3-.62.6-.92.91a35,35,0,0,0-3.21,3.6,34.18,34.18,0,0,0-6.91,18.18c-.06.82-.08,1.65-.09,2.47l0,2.2c0,.71-.09,1.43-.14,2.15l-.28,2.13a38.42,38.42,0,0,1-2.33,8.35,42.81,42.81,0,0,1-10.13,14.73,30.55,30.55,0,0,0,13.67-13,33.72,33.72,0,0,0,3.45-9.17c.18-.8.29-1.62.44-2.43s.19-1.63.26-2.46l.08-2.42c0-.72.05-1.43.11-2.15a37.44,37.44,0,0,1,5.16-16.34c.37-.63.77-1.24,1.17-1.86l1.29-1.84c.43-.58.84-1.18,1.25-1.77Z"/><path class="cls-3" d="M291.89,482.93c-.3.31-.61.61-.92.91a36.12,36.12,0,0,0-3.2,3.61,34.1,34.1,0,0,0-6.91,18.18c-.07.82-.09,1.64-.09,2.47l0,2.2c0,.71-.1,1.43-.14,2.14l-.28,2.14a39.15,39.15,0,0,1-2.33,8.35,42.84,42.84,0,0,1-10.14,14.73,30.57,30.57,0,0,0,13.68-13,34.18,34.18,0,0,0,3.45-9.17c.17-.8.29-1.62.43-2.43s.19-1.64.26-2.46l.09-2.42c0-.72,0-1.44.1-2.15A37.55,37.55,0,0,1,291,489.66c.36-.64.77-1.25,1.16-1.86l1.3-1.84,1.25-1.78Z"/><path class="cls-3" d="M139.72,460.56l-.93.9a36.12,36.12,0,0,0-3.2,3.61,34.1,34.1,0,0,0-6.91,18.18c-.06.82-.09,1.65-.09,2.47l-.05,2.2c0,.71-.1,1.43-.14,2.15l-.28,2.13a38.42,38.42,0,0,1-2.33,8.35,42.84,42.84,0,0,1-10.14,14.73,30.57,30.57,0,0,0,13.68-13,34.05,34.05,0,0,0,3.45-9.17c.17-.8.29-1.62.43-2.43s.2-1.64.26-2.46l.09-2.42c0-.72,0-1.43.11-2.15a37.44,37.44,0,0,1,5.16-16.34c.36-.64.77-1.24,1.16-1.86l1.3-1.84,1.25-1.77Z"/><path class="cls-3" d="M204.59,490.92c-.3.3-.62.6-.92.91a34.91,34.91,0,0,0-3.2,3.6,34.1,34.1,0,0,0-6.91,18.18c-.07.82-.09,1.65-.09,2.47l-.05,2.2c0,.71-.1,1.43-.14,2.15l-.28,2.13a38.45,38.45,0,0,1-2.34,8.35,42.67,42.67,0,0,1-10.13,14.73,30.57,30.57,0,0,0,13.68-13,34.05,34.05,0,0,0,3.45-9.17c.17-.8.29-1.62.43-2.43s.19-1.63.26-2.46l.09-2.42c0-.72,0-1.43.1-2.15a37.59,37.59,0,0,1,5.17-16.34c.36-.63.77-1.24,1.16-1.86l1.3-1.84c.42-.58.83-1.18,1.25-1.77Z"/><polygon class="cls-1" points="385.35 406.88 191.1 383.94 192.1 169.03 384.35 181.1 385.35 406.88"/><path class="cls-2" d="M385.35,407.63h-.09L191,384.69a.76.76,0,0,1-.66-.75l1-214.92a.75.75,0,0,1,.24-.54.72.72,0,0,1,.56-.2L384.4,180.35a.75.75,0,0,1,.7.75l1,225.78a.75.75,0,0,1-.25.56A.78.78,0,0,1,385.35,407.63Zm-193.5-24.36L384.6,406l-1-224.22-190.75-12Z"/><polygon class="cls-4" points="196.91 170.25 192.39 173.09 192.39 175.52 200.14 170.43 196.91 170.25"/><polygon class="cls-4" points="210.58 171.03 191.39 184.4 191.39 186.84 213.81 171.21 210.58 171.03"/><polygon class="cls-4" points="224.25 171.81 191.39 194.71 191.39 197.15 227.49 172 224.25 171.81"/><polygon class="cls-4" points="237.93 172.6 191.39 205.03 191.39 207.46 241.16 172.78 237.93 172.6"/><polygon class="cls-4" points="251.61 173.38 191.39 215.34 191.39 217.78 254.84 173.56 251.61 173.38"/><polygon class="cls-4" points="265.28 174.16 191.39 225.65 191.39 228.09 268.51 174.35 265.28 174.16"/><polygon class="cls-4" points="278.96 174.95 191.39 235.96 191.39 238.4 282.19 175.13 278.96 174.95"/><polygon class="cls-4" points="292.63 175.73 191.39 246.28 191.39 248.72 295.86 175.92 292.63 175.73"/><polygon class="cls-4" points="306.31 176.51 191.39 256.59 191.39 259.03 309.54 176.7 306.31 176.51"/><polygon class="cls-4" points="319.98 177.3 191.39 266.9 191.39 269.34 323.21 177.48 319.98 177.3"/><polygon class="cls-4" points="333.66 178.08 191.39 277.22 191.39 279.65 336.89 178.27 333.66 178.08"/><polygon class="cls-4" points="347.33 178.87 191.39 287.53 191.39 289.97 350.56 179.05 347.33 178.87"/><polygon class="cls-4" points="361.01 179.65 191.39 297.84 191.39 300.28 364.24 179.84 361.01 179.65"/><polygon class="cls-4" points="374.68 180.43 191.39 308.16 191.39 310.59 377.91 180.62 374.68 180.43"/><polygon class="cls-4" points="384.64 183.81 191.39 318.47 191.39 320.91 384.64 186.24 384.64 183.81"/><polygon class="cls-4" points="384.64 194.12 191.39 328.78 191.39 331.22 384.64 196.56 384.64 194.12"/><polygon class="cls-4" points="384.64 204.43 191.39 339.1 191.39 341.53 384.64 206.87 384.64 204.43"/><polygon class="cls-4" points="384.64 214.74 191.39 349.41 191.39 351.85 384.64 217.18 384.64 214.74"/><polygon class="cls-4" points="384.64 225.06 191.39 359.72 191.39 362.16 384.64 227.49 384.64 225.06"/><polygon class="cls-4" points="384.64 235.37 191.39 370.04 191.39 372.47 384.64 237.81 384.64 235.37"/><polygon class="cls-4" points="384.64 245.68 191.39 380.35 191.39 382.79 384.64 248.12 384.64 245.68"/><polygon class="cls-4" points="384.64 256 199.4 385.08 202.26 385.53 384.64 258.43 384.64 256"/><polygon class="cls-4" points="384.64 266.29 211.48 386.96 214.37 387.4 384.64 268.75 384.64 266.29"/><polygon class="cls-4" points="384.64 276.6 223.59 388.83 226.48 389.28 384.64 279.06 384.64 276.6"/><polygon class="cls-4" points="384.64 286.91 235.7 390.71 238.56 391.15 384.64 289.35 384.64 286.91"/><polygon class="cls-4" points="384.64 297.23 247.81 392.58 250.67 393.03 384.64 299.66 384.64 297.23"/><polygon class="cls-4" points="384.64 307.54 259.91 394.46 262.77 394.9 384.64 309.98 384.64 307.54"/><polygon class="cls-4" points="384.64 317.85 272.02 396.33 274.88 396.78 384.64 320.29 384.64 317.85"/><polygon class="cls-4" points="384.64 328.17 284.13 398.21 286.99 398.65 384.64 330.6 384.64 328.17"/><polygon class="cls-4" points="384.64 338.48 296.24 400.09 299.1 400.53 384.64 340.92 384.64 338.48"/><polygon class="cls-4" points="384.64 348.79 308.35 401.96 311.21 402.4 384.64 351.23 384.64 348.79"/><polygon class="cls-4" points="384.64 359.11 320.45 403.84 323.31 404.28 384.64 361.54 384.64 359.11"/><polygon class="cls-4" points="384.64 369.42 332.56 405.71 335.42 406.16 384.64 371.86 384.64 369.42"/><polygon class="cls-4" points="384.64 379.73 344.67 407.59 347.53 408.03 384.64 382.17 384.64 379.73"/><polygon class="cls-4" points="384.64 390.05 356.78 409.46 359.64 409.91 384.64 392.48 384.64 390.05"/><polygon class="cls-4" points="384.64 400.36 368.88 411.34 371.75 411.78 384.64 402.8 384.64 400.36"/><polygon class="cls-4" points="385.64 406.11 385.64 403.67 381.99 406.22 384.85 406.66 385.64 406.11"/><path class="cls-2" d="M385.35,407.63h-.09L191,384.69a.76.76,0,0,1-.66-.75l1-214.92a.75.75,0,0,1,.24-.54.72.72,0,0,1,.56-.2L384.4,180.35a.75.75,0,0,1,.7.75l1,225.78a.75.75,0,0,1-.25.56A.78.78,0,0,1,385.35,407.63Zm-193.5-24.36L384.6,406l-1-224.22-190.75-12Z"/><polygon class="cls-1" points="385.7 405.95 307.7 484.74 307.7 235.59 385.7 180.56 385.7 405.95"/><path class="cls-2" d="M307.7,485.49a.92.92,0,0,1-.28-.05.76.76,0,0,1-.47-.7V235.59a.75.75,0,0,1,.32-.61l78-55a.75.75,0,0,1,1.18.62V406a.74.74,0,0,1-.21.53l-78,78.79A.71.71,0,0,1,307.7,485.49ZM308.45,236V482.92L385,405.64V182ZM385.7,406h0Z"/><polygon class="cls-8" points="307.7 484.74 108.45 455.81 108.45 217.55 307.7 236.03 307.7 484.74"/><path class="cls-2" d="M307.7,485.49h-.11L108.34,456.55a.76.76,0,0,1-.64-.75V217.55A.77.77,0,0,1,108,217a.74.74,0,0,1,.57-.19l199.25,18.49a.74.74,0,0,1,.68.75v248.7a.73.73,0,0,1-.26.57A.72.72,0,0,1,307.7,485.49ZM109.2,455.16,307,483.88V236.72L109.2,218.37Z"/><polygon class="cls-10" points="269.44 357.06 269.44 341.68 274.45 341.68 274.45 346.69 285.9 346.69 285.9 352.05 274.45 352.05 274.45 357.06 269.44 357.06"/><polygon class="cls-10" points="269.62 295.35 269.62 295.35 269.62 300 269.62 300 269.62 305.37 286.07 305.37 286.07 300 274.99 300 274.99 295.35 286.07 295.35 286.07 289.99 274.99 289.99 269.62 289.99 269.62 289.99 269.62 295.35"/><polygon class="cls-10" points="276.06 256 269.62 251.35 269.62 257.43 276.06 262.08 276.06 262.8 269.62 262.8 269.62 268.16 286.07 268.16 286.07 262.8 279.99 262.8 279.99 261.37 286.07 258.51 286.07 252.07 277.85 257.07 276.06 256"/><path class="cls-10" d="M269.62,276.39v5l16.45,7.16v-5.73l-2.86-.71V276l2.86-1.07v-5.72Zm9.66,4.3L275,278.9l4.3-1.43Z"/><path class="cls-10" d="M269.62,330.41v5l16.45,7.15v-5.72l-2.86-.72v-6.08l2.86-1.07v-5.72Zm9.66,4.29-4.3-1.79,4.3-1.43Z"/><path class="cls-10" d="M269.62,313.05v8.77h16.45v-5.36h-3.94v-3.41a6.25,6.25,0,0,0-6.26-6.25h0A6.25,6.25,0,0,0,269.62,313.05Zm8.23,1.05v2.36H274V314.1a1.94,1.94,0,0,1,3.88,0Z"/><path class="cls-11" d="M175.57,121.73A45.43,45.43,0,0,0,171.08,142c0,10.77,8.38,24.54,13.45,30.43l7.38-4.23c-3.6-4.28-18.71-21.43-18.71-33.8A34.17,34.17,0,0,1,175.57,121.73Z"/><path class="cls-3" d="M211.71,142a45.64,45.64,0,0,0-4.49-20.32,34.46,34.46,0,0,1,2.37,12.72c0,12.37-14.08,29.52-17.68,33.8l9.42.62C206.4,163,211.71,152.81,211.71,142Z"/><path class="cls-12" d="M207.22,121.72c-.4-.78-.82-1.52-1.25-2.24-3.7-6.06-8.86-9.84-14.58-9.84a14,14,0,0,0-8,2.59,24.84,24.84,0,0,0-7.86,9.5,34.17,34.17,0,0,0-2.37,12.71c0,12.37,13.62,30.38,17.22,34.66l1.49-.86c-3.28-7.43-11.57-19.7-11.57-26.2,0-5.58,1.62-10.54,4.16-13.77,1.89-2.42,4.28-3.87,6.89-3.87a8.33,8.33,0,0,1,5.84,2.67c3.13,3.12,5.22,8.64,5.22,15,0,6.5-7.27,18.77-10.54,26.2h.34c3.6-4.28,17.34-21.43,17.34-33.8A34.46,34.46,0,0,0,207.22,121.72Z"/><path class="cls-11" d="M290.74,186a45.5,45.5,0,0,0-4.49,20.31c0,10.78,3.3,22.24,8.37,28.13l12.45-1.92c-3.59-4.28-18.71-21.43-18.71-33.8A34.26,34.26,0,0,1,290.74,186Z"/><path class="cls-3" d="M326.87,206.29A45.5,45.5,0,0,0,322.38,186a34.22,34.22,0,0,1,2.38,12.72c0,12.37-14.09,29.52-17.69,33.8l9.1-2.45C321.24,224.16,326.87,217.07,326.87,206.29Z"/><path class="cls-12" d="M322.38,186c-.39-.78-.81-1.52-1.25-2.24-3.69-6.06-8.85-9.85-14.57-9.85a14,14,0,0,0-8,2.6,24.8,24.8,0,0,0-7.86,9.49,34.26,34.26,0,0,0-2.38,12.72c0,12.37,15.12,29.52,18.71,33.8h0c-3.27-7.43-11.57-19.7-11.57-26.21,0-5.57,1.63-10.53,4.16-13.77,1.89-2.41,4.29-3.86,6.9-3.86a8.31,8.31,0,0,1,5.83,2.67c3.13,3.11,5.23,8.64,5.23,15,0,6.51-7.27,18.78-10.55,26.21h.35c3.6-4.28,17.34-21.43,17.34-33.8A34.22,34.22,0,0,0,322.38,186Z"/><polygon class="cls-3" points="316.17 475.14 307.41 483.9 306.02 233.55 316.17 223.32 316.17 475.14"/><polygon class="cls-11" points="307.41 483.9 294.34 482.05 294.34 232.17 307.07 232.5 307.41 483.9"/><path class="cls-3" d="M121.73,163.5c4.83,9.23,8.27,26.71-2,54.37l-9.89-7s9.65-33.75-2.72-47.12l-.7-3.08.61-.46A9.88,9.88,0,0,1,121.73,163.5Z"/><polygon class="cls-11" points="120.34 456.76 107.71 454.97 107.13 216.87 119.73 217.87 120.34 456.76"/><path class="cls-12" d="M114.15,158.27s-23.39,14.5,5.58,59.6l-12.6-1a65,65,0,0,1-12-45c.51-4.37,4.21-11.14,7.66-12.11C110.4,157.62,114.15,158.27,114.15,158.27Z"/><polygon class="cls-3" points="386.35 404.74 376.04 414.65 376.04 187.4 386.49 180.11 386.35 404.74"/><path class="cls-12" d="M373.76,133.52c-4.83,9.24-8,26.21,2.28,53.88l9.61-6.53s-9.65-33.75,2.71-47.12l.71-3.08-.61-.46A9.89,9.89,0,0,0,373.76,133.52Z"/><path class="cls-3" d="M381.34,128.3s23.67,14-5.3,59.1l9.61-6.53s17.75-12.63,14.68-39c-.51-4.36-4.22-11.13-7.66-12.1C385.08,127.64,381.34,128.3,381.34,128.3Z"/></svg>