<svg xmlns="http://www.w3.org/2000/svg" height="429.12" width="280.71" version="1.1" data-name="Слой 1" id="Слой_1"><defs id="defs3300"><style id="style3298">.cls-1{fill:#2cc8ff}.cls-2{fill:#0084b2}</style></defs><path id="path3304" d="M228.62 15.37A88.14 88.14 0 00192.45 1a92.75 92.75 0 00-7.3-.84c-8.65-.63-17.11.73-25.52 2-46.11 7-81 45.08-82.1 89.84v255.89l23.89 2.27V97c0-45.53 42.25-81 83.79-78.77 2.41.14 4.84.39 7.3.77a70.76 70.76 0 0127.23 10.36c25.62 16.32 41.6 48.4 44 82.44v-2.74c.03-35.52-12.92-70.18-35.12-93.7z" class="cls-1"/><path id="path3306" d="M1.98 147.44l2 253.1 15.3 2.28-2-253.11c0-45.52 41.73-80.22 84.42-77.93a85.43 85.43 0 00-7.65-1.5C47.78 63.42 1.98 99.23 1.98 147.44z" class="cls-2"/><path id="path3308" d="M109.36 54.54c-2.58-.38-5.13-.65-7.65-.83C49.39 50.03 0 91.6 0 147.15l2 253.1 2 .3-2-253.11c0-48.21 45.8-84 92.07-77.16 2.58.38 5.13.89 7.65 1.5q3.79.2 7.66.76c46.24 6.83 75.05 53.66 75.05 101.83v252.19l2 .29 15.3 2.27V176.97c-.02-58.23-36.49-114.14-92.37-122.43z" class="cls-1"/><path id="path3310" d="M214.38 176.97c0-58.23-36.47-114.14-92.36-122.43a101.5 101.5 0 00-7.65-.83 92.54 92.54 0 00-12.79 0h.13c2.52.18 5.07.45 7.65.83 55.88 8.29 92.35 64.2 92.35 122.43v252.15l12.67-12.25z" class="cls-2"/><path id="path3312" d="M228.62 15.37c22.2 23.5 35.15 58.17 35.15 93.68v2.74q.31 4.5.32 9.08v245.55l16.54-15.85.08-227.13c-.14-43.72-19.75-86.13-52.09-108.07z" class="cls-2"/></svg>