<svg xmlns="http://www.w3.org/2000/svg" height="133.39" width="328.8" version="1.1" data-name="Слой 1" id="Слой_1"><defs id="defs1258"><style id="style1256">.cls-1{fill:#f9f9f9}.cls-2{fill:#444}.cls-3{fill:#0084b2}.cls-5{fill:#bfbfbf}</style></defs><path transform="translate(-107.5 -103.68)" id="polygon1262" class="cls-1" d="M385.6 180.18l-193.43-11-83.91 48.38 198.73 18.76z"/><path id="path1264" d="M199.5 133.39h-.07L.69 114.62a.74.74 0 01-.3-1.39l83.9-48.38a.72.72 0 01.42-.1l193.43 11a.75.75 0 01.68.54.76.76 0 01-.3.82l-78.6 56.14a.77.77 0 01-.42.14zM3.17 113.32l196.1 18.52 76.66-54.75L84.85 66.26z" class="cls-2"/><path id="path1266" d="M186.34 57.39c4.4-4.92 9-9.68 13.52-14.44 1.13-1.19 2.37-2.34 3.55-3.51 1.18-1.17 2.49-2.23 3.74-3.35s2.6-2.11 3.94-3.12c1.34-1.01 2.7-2 4.13-2.89a90.89 90.89 0 0117.95-9.16 88 88 0 0129.7-5.72c1.69 0 3.37-.07 5 0h4.87a98 98 0 0019.13-2.16 103.24 103.24 0 0018.5-5.87C316.49 4.72 322.6 2.26 328.8 0c-5.74 3.27-11.57 6.33-17.4 9.4-2.92 1.53-6 3-9.07 4.23a88.11 88.11 0 01-9.53 3.2 90 90 0 01-19.93 3.1c-1.7.07-3.37.08-5 .09-1.63.01-3.27 0-4.86.09a93.13 93.13 0 00-9.57.83 91.37 91.37 0 00-18.66 4.38 99.9 99.9 0 00-17.51 8 101 101 0 00-15.77 11.4c-5 4.27-10 8.6-15.16 12.67z" class="cls-3"/><path id="path1268" d="M192 56.26c3.62-2.4 7.32-4.6 11-6.8a80.83 80.83 0 0111.86-5.6 83 83 0 0125.8-5.23c1.1-.05 2.22-.05 3.32-.06h3.17c2.1 0 4.19-.13 6.28-.29a112.22 112.22 0 0012.48-1.66c2.07-.38 4.12-.9 6.24-1.35l6.32-1.35c4.23-.83 8.46-1.68 12.75-2.31-4 1.7-8 3.18-12.1 4.67a181.36 181.36 0 01-12.3 4.14A79.9 79.9 0 01253.88 43c-2.2.26-4.4.42-6.6.51-1.08 0-2.23 0-3.27.07s-2.1 0-3.13.09a109.49 109.49 0 00-24.8 3.92 121.41 121.41 0 00-12 4.1c-3.98 1.55-7.98 3.16-12.08 4.57z" class="cls-3"/><path id="path1270" d="M100.34 98.02c-.51 4.71 10.63 8.87 29.23 10.16 23.79 1.64 50.58-2.05 60-8.21 2.34-1.53 3.39-3.07 3.29-4.55V50.15l-92.53 2.6z" class="cls-1"/><path id="path1272" d="M141.1 109.32c-3.9 0-7.78-.12-11.58-.38-14.8-1-25.6-4-28.85-7.86a4.14 4.14 0 01-1.08-3.09V52.75a.74.74 0 01.73-.75l92.53-2.6a.68.68 0 01.54.21.74.74 0 01.23.54v45.27c.12 1.77-1.1 3.53-3.63 5.18-8.03 5.24-28.5 8.72-48.9 8.72zm-40-55.83v44.62a2.62 2.62 0 00.74 2c2.95 3.53 13.6 6.34 27.79 7.32 23.52 1.62 50.23-2 59.55-8.09 1.4-.91 3.06-2.33 2.95-3.87V50.92zm-.75 44.54z" class="cls-2"/><path id="path1274" d="M189.58 54.7c-9.43 6.15-36.22 9.85-60 8.2-18.6-1.28-29.74-5.44-29.23-10.15.15-1.37 1.28-2.79 3.5-4.2 9.82-6.2 37-9.76 60.54-8 17.5 1.3 28.19 5.18 28.49 9.62.09 1.46-.96 3-3.3 4.53z" fill="#ccc"/><path id="path1276" d="M141.09 64.04c-3.88 0-7.77-.13-11.57-.39-14.8-1-25.6-4-28.85-7.85a4.16 4.16 0 01-1.08-3.13c.18-1.65 1.48-3.25 3.86-4.75 9.88-6.25 37.24-9.9 61-8.14 17.66 1.31 28.84 5.27 29.18 10.32.12 1.81-1.1 3.57-3.63 5.22-8.04 5.25-28.5 8.72-48.91 8.72zm10.9-23.2c-19.91 0-39.75 3.3-47.74 8.35-1.95 1.23-3 2.49-3.16 3.64a2.62 2.62 0 00.74 2c2.95 3.53 13.6 6.33 27.79 7.32 23.5 1.62 50.23-2 59.55-8.09 1.4-.92 3.06-2.34 2.95-3.87-.22-3.32-9-7.53-27.8-8.92-4.04-.29-8.2-.43-12.33-.43z" class="cls-2"/><path id="path1278" d="M114.89 44.37l-14 9.78a4.74 4.74 0 001.13 1.65l18.19-12.67q-2.83.57-5.32 1.24z" class="cls-5"/><path id="path1280" d="M134.5 41.01l-26.15 18.22c.75.26 1.56.52 2.4.76l27.75-19.33c-1.34.1-2.67.21-4 .35z" class="cls-5"/><path id="path1282" d="M150.55 40.14L119.5 61.81c.94.15 1.92.28 2.92.41l31.68-22.08z" class="cls-5"/><path id="path1284" d="M164.73 40.58L132.4 63.1l3.3.14 32.13-22.4c-1.01-.1-2.05-.19-3.11-.26z" class="cls-5"/><path id="path1286" d="M177.28 42.14l-30.3 21.11c1.25 0 2.49-.08 3.72-.15l29.28-20.4c-.86-.2-1.76-.38-2.7-.56z" class="cls-5"/><path id="path1288" d="M187.79 45.13L163.6 61.98c1.49-.18 2.95-.39 4.38-.61l21.82-15.21a19.92 19.92 0 00-2.02-1.03z" class="cls-5"/><path id="path1290" d="M192.74 51.99l-7 4.85a25 25 0 004.12-2.1 8.5 8.5 0 002.88-2.75z" class="cls-5"/><path id="path1292" d="M141.09 64.04c-3.88 0-7.77-.13-11.57-.39-14.8-1-25.6-4-28.85-7.85a4.16 4.16 0 01-1.08-3.13c.18-1.65 1.48-3.25 3.86-4.75 9.88-6.25 37.24-9.9 61-8.14 17.66 1.31 28.84 5.27 29.18 10.32.12 1.81-1.1 3.57-3.63 5.22-8.04 5.25-28.5 8.72-48.91 8.72zm10.9-23.2c-19.91 0-39.75 3.3-47.74 8.35-1.95 1.23-3 2.49-3.16 3.64a2.62 2.62 0 00.74 2c2.95 3.53 13.6 6.33 27.79 7.32 23.5 1.62 50.23-2 59.55-8.09 1.4-.92 3.06-2.34 2.95-3.87-.22-3.32-9-7.53-27.8-8.92-4.04-.29-8.2-.43-12.33-.43z" class="cls-2"/></svg>