<svg xmlns="http://www.w3.org/2000/svg" height="150.55" width="279.26" version="1.1" data-name="Слой 1" id="Слой_1"><defs id="defs3167"><style id="style3165">.cls-1{fill:#0084b2}.cls-2{fill:#f9f9f9}.cls-3{fill:#444}.cls-5{fill:#bfbfbf}</style></defs><path id="path3171" d="M179.45 139.04c2.54-4.35 5.26-8.56 8-12.78 1.36-2.08 2.79-4.21 4.32-6.25a66.12 66.12 0 015-5.85 59.73 59.73 0 0112-9.8 56.5 56.5 0 016.94-3.63c1.23-.48 2.44-1 3.68-1.4 1.24-.38 2.5-.83 3.79-1.1l1.92-.46c.64-.13 1.3-.22 1.94-.33 1.3-.25 2.6-.36 3.92-.5 1.3-.12 2.64-.08 3.95-.13h3.74a48.9 48.9 0 0014.12-2 59 59 0 0013.29-5.95c4.37-2.47 8.72-4.95 13.2-7.24-3.87 3.22-7.86 6.25-11.85 9.29a60.43 60.43 0 01-6.37 4.27 49 49 0 01-7 3.32 45.84 45.84 0 01-15.32 3.08c-1.3.05-2.53 0-3.77.07-1.24.07-2.37.05-3.55.2-1.18.17-2.35.24-3.52.48l-1.74.3-1.73.44c-9.25 2.24-17.66 7.39-24.9 13.86a98.24 98.24 0 00-10.14 10.74 297.75 297.75 0 01-9.92 11.37z" class="cls-1"/><path id="path3173" d="M183.42 137.9c2.23-2.24 4.59-4.3 7-6.38a47.13 47.13 0 017.88-5.55 44.51 44.51 0 0118.59-5.65c1.6-.12 3.38-.1 4.77-.12 1.39-.03 3-.12 4.43-.27a54.32 54.32 0 008.8-1.66c1.44-.38 2.88-.86 4.4-1.34 1.52-.48 3-.92 4.5-1.35 3-.85 6-1.71 9.14-2.35-2.7 1.67-5.46 3.14-8.23 4.62q-2.1 1.1-4.2 2.13a51.18 51.18 0 01-4.34 2 42.9 42.9 0 01-9.42 2.63 44.7 44.7 0 01-4.9.5c-1.72.07-3.08 0-4.58.18a54.78 54.78 0 00-17.27 4.18 71.37 71.37 0 00-8.2 4 129.05 129.05 0 01-8.37 4.44z" class="cls-1"/><path id="path3175" d="M93.1 139.26c-.5 4.7 10.65 8.87 29.25 10.16 23.78 1.64 50.58-2 60-8.21 2.34-1.53 3.39-3.07 3.3-4.55V42.34l-92.54 2.6z" class="cls-2"/><path id="path3177" d="M133.89 150.55c-3.88 0-7.77-.12-11.57-.38-14.8-1-25.58-4-28.84-7.86a4.11 4.11 0 01-1.1-3.1V44.95a.75.75 0 01.74-.75l92.53-2.6a.67.67 0 01.55.2.76.76 0 01.23.55v94.33c.12 1.77-1.11 3.52-3.64 5.18-8.05 5.23-28.5 8.7-48.9 8.7zm-40-104.88v93.67a2.66 2.66 0 00.74 2c2.95 3.53 13.6 6.34 27.8 7.32 23.5 1.63 50.22-2 59.54-8.1 1.4-.9 3.06-2.32 3-3.86V43.1zm-.75 93.59z" class="cls-3"/><path transform="translate(-108.11 -395.33)" id="polygon3179" class="cls-2" d="M385.11 406.04l-192.82-9.96-83.43 49.07 198.25 18.07z"/><path id="path3181" d="M199 68.67h-.11L.68 50.56a.75.75 0 01-.31-1.4L83.8.12a.6.6 0 01.42-.1l192.82 10a.77.77 0 01.68.54.75.75 0 01-.28.82l-78 57.18a.77.77 0 01-.44.12zM3.14 49.27l195.64 17.85 76.1-55.77L84.39 1.5z" class="cls-3"/><path id="path3183" d="M180.52 34.83c-9.42 6.16-36.22 9.85-60 8.2-18.6-1.28-29.74-5.44-29.23-10.15.15-1.37 1.29-2.78 3.5-4.2 9.82-6.2 37-9.76 60.55-8 17.5 1.3 28.19 5.19 28.48 9.62.07 1.46-.93 3-3.3 4.53z" fill="#ccc"/><path id="path3185" d="M132.04 44.18c-3.9 0-7.78-.13-11.58-.4-14.8-1-25.6-4-28.84-7.85a4.07 4.07 0 01-1.08-3.13c.18-1.64 1.47-3.24 3.85-4.74 9.88-6.25 37.24-9.9 61-8.14 17.66 1.3 28.84 5.26 29.18 10.3.12 1.83-1.1 3.59-3.63 5.24-8.05 5.2-28.47 8.72-48.9 8.72zm10.85-23.21c-19.91 0-39.75 3.3-47.74 8.35-1.94 1.23-3 2.49-3.16 3.64a2.66 2.66 0 00.74 2c3 3.54 13.6 6.34 27.8 7.32 23.5 1.63 50.22-2 59.54-8.08 1.4-.92 3.06-2.34 3-3.87-.23-3.32-9-7.53-27.8-8.92-4.04-.3-8.2-.44-12.38-.44zm37.59 13.86z" class="cls-3"/><path id="path3187" d="M105.83 24.5l-14 9.79a4.62 4.62 0 001.13 1.64l18.19-12.67c-1.9.4-3.66.8-5.32 1.24z" class="cls-5"/><path id="path3189" d="M125.45 21.14L99.3 39.37c.75.26 1.56.5 2.4.75l27.75-19.33c-1.35.1-2.68.22-4 .35z" class="cls-5"/><path id="path3191" d="M141.49 20.28l-31.1 21.67c.95.14 1.92.28 2.92.4l31.68-22.07z" class="cls-5"/><path id="path3193" d="M155.67 20.67l-32.32 22.52c1.1.06 2.2.1 3.3.14l32.14-22.4q-1.53-.1-3.12-.26z" class="cls-5"/><path id="path3195" d="M168.22 22.28l-30.33 21.1c1.24 0 2.48-.08 3.7-.14l29.3-20.41c-.83-.16-1.73-.37-2.67-.55z" class="cls-5"/><path id="path3197" d="M178.73 25.27l-24.18 16.85c1.49-.2 2.95-.4 4.38-.62l21.83-15.21a20.17 20.17 0 00-2.03-1.02z" class="cls-5"/><path id="path3199" d="M183.68 32.13l-7 4.85a25 25 0 004.2-2.11 8.3 8.3 0 002.8-2.74z" class="cls-5"/><path id="path3201" d="M132.04 44.18c-3.9 0-7.78-.13-11.58-.4-14.8-1-25.6-4-28.84-7.85a4.07 4.07 0 01-1.08-3.13c.18-1.64 1.47-3.24 3.85-4.74 9.88-6.25 37.24-9.9 61-8.14 17.66 1.3 28.84 5.26 29.18 10.3.12 1.83-1.1 3.59-3.63 5.24-8.05 5.2-28.47 8.72-48.9 8.72zm10.85-23.21c-19.91 0-39.75 3.3-47.74 8.35-1.94 1.23-3 2.49-3.16 3.64a2.66 2.66 0 00.74 2c3 3.54 13.6 6.34 27.8 7.32 23.5 1.63 50.22-2 59.54-8.08 1.4-.92 3.06-2.34 3-3.87-.23-3.32-9-7.53-27.8-8.92-4.04-.3-8.2-.44-12.38-.44zm37.59 13.86z" class="cls-3"/></svg>