<svg xmlns="http://www.w3.org/2000/svg" height="199.58" width="279.09" version="1.1" data-name="Слой 1" id="Слой_1"><defs id="defs4468"><pattern patternUnits="userSpaceOnUse" patternTransform="matrix(1 0 0 1.53 239.56 -48.88)" height="14.6" width="15" data-name="Новый узор 1" id="Новый_узор_1"><path id="rect4447" fill="none" d="M0 0h15v14.6H0z"/><path id="line4449" class="cls-2" d="M15.13 18.2L29.87 11"/><path id="line4451" class="cls-2" d="M.13 18.2L14.87 11"/><path id="line4453" class="cls-2" d="M-14.87 18.2L-.13 11"/><path id="line4455" class="cls-2" d="M15.13 10.9l14.74-7.2"/><path id="line4457" class="cls-2" d="M.13 10.9l14.74-7.2"/><path id="line4459" class="cls-2" d="M-14.87 10.9L-.13 3.7"/><path id="line4461" class="cls-2" d="M15.13 3.6l14.74-7.2"/><path id="line4463" class="cls-2" d="M.13 3.6l14.74-7.2"/><path id="line4465" class="cls-2" d="M-14.87 3.6L-.13-3.6"/></pattern><style id="style4445">.cls-2{fill:none}.cls-2,.cls-3,.cls-5,.cls-6{stroke:#444;stroke-linecap:round;stroke-width:1.5px}.cls-2{stroke-miterlimit:10}.cls-3{fill:#f9f9f9}.cls-3,.cls-5,.cls-6{stroke-linejoin:round}.cls-4{fill:#0084b2}.cls-5{fill:#ccc}.cls-6{opacity:.3;fill:url(#Новый_узор_1)}.cls-7{fill:#bfbfbf}</style></defs><path id="path4472" d="M93.68 179.61c-.51 5 10.64 9.5 29.24 10.88 23.78 1.76 50.58-2.2 60-8.79 2.34-1.64 3.4-3.29 3.3-4.87v-101l-92.54 2.78z" class="cls-3"/><path id="path4474" d="M75.03 84.6c-.72 6.36 15.06 12 41.39 13.7 33.68 2.22 71.62-2.77 85-11.07 3.32-2.06 4.81-4.14 4.67-6.13V17.16l-131 3.5z" class="cls-3"/><path id="path4476" d="M179.43 179.42c2.46-4.51 5.1-8.89 7.72-13.29q2-3.27 4.17-6.53c.76-1 1.52-2.12 2.33-3.14s1.64-2 2.51-3a61 61 0 0111.78-10.52 50.3 50.3 0 0114.42-6.93c1.31-.31 2.6-.71 3.94-.91l2-.35 2-.22c1.34-.17 2.69-.16 4-.2 1.31-.04 2.58 0 3.85 0a45.35 45.35 0 0014.34-2.18 57 57 0 0013.38-6.45c4.37-2.67 8.73-5.35 13.22-7.84-3.85 3.4-7.83 6.62-11.8 9.85a62.59 62.59 0 01-6.37 4.55 48.44 48.44 0 01-7.09 3.56 43.75 43.75 0 01-15.66 3.25c-1.28.05-2.59 0-3.81.08-1.22.08-2.41.08-3.6.26l-1.79.21-1.78.34c-1.19.18-2.34.55-3.52.83-9.32 2.64-17.69 8.27-24.77 15.22a108.71 108.71 0 00-9.83 11.43c-3.1 4.04-6.27 8.05-9.64 11.98z" class="cls-4"/><path id="path4478" d="M183.36 178.16c2.18-2.34 4.5-4.5 6.81-6.67a48.83 48.83 0 017.77-5.86 42.85 42.85 0 0118.72-6.11 35.1 35.1 0 012.5-.11h2.35c1.48 0 3-.13 4.45-.29a50.67 50.67 0 008.81-1.81c1.45-.42 2.88-1 4.4-1.45l4.51-1.5c3-.92 6.06-1.87 9.17-2.6-2.67 1.75-5.44 3.3-8.2 4.86l-4.18 2.25a58.63 58.63 0 01-4.35 2.13 41.08 41.08 0 01-14.46 3.34l-2.3.08c-.74 0-1.48.07-2.22.12a51.36 51.36 0 00-17.29 4.6 67.77 67.77 0 00-8.13 4.34c-2.76 1.59-5.47 3.23-8.36 4.68z" class="cls-4"/><path transform="translate(-107.64 -387.58)" id="polygon4480" class="cls-5" d="M222.43 485.77l-12.6-1.33 6.67-20.49z"/><path transform="translate(-107.64 -387.58)" id="polygon4482" class="cls-5" d="M287.96 481.99l-7.49 1.38 2.37-19.42z"/><path transform="translate(-107.64 -387.58)" id="polygon4484" class="cls-6" d="M222.43 485.77l-12.6-1.33 6.67-20.49z"/><path transform="translate(-107.64 -387.58)" id="polygon4486" class="cls-6" d="M287.96 481.99l-7.49 1.38 2.37-19.42z"/><path id="path4488" d="M108.62 81.65c2.08 4.72 3.94 9.51 5.82 14.29.92 2.38 1.81 4.83 2.62 7.31a76.5 76.5 0 012 7.61 65 65 0 011.3 15.77 53.88 53.88 0 01-2.9 15.75c-.49 1.25-.91 2.54-1.51 3.75l-.84 1.84-1 1.78c-.62 1.2-1.4 2.31-2.13 3.45-.73 1.14-1.47 2.13-2.2 3.17a48.52 48.52 0 00-6.39 13.14 62.56 62.56 0 00-2.62 14.72c-.45 5.12-.88 10.23-1.54 15.35-.45-5.14-.67-10.27-.91-15.4a66.46 66.46 0 01.08-7.85 52.69 52.69 0 011.22-7.85 46.22 46.22 0 016.23-14.76c.69-1.09 1.45-2.16 2.1-3.2.65-1.04 1.3-2.05 1.83-3.14l.85-1.61.75-1.66c.53-1.09.89-2.25 1.33-3.38 3.23-9.21 3.67-19.32 2.43-29.23a113.17 113.17 0 00-3.08-14.82c-1.17-4.99-2.41-9.98-3.44-15.03z" class="cls-4"/><path id="path4490" d="M108.84 80.74c.48 3.48.72 6.93.94 10.4a50.73 50.73 0 01-.56 10.64 46.25 46.25 0 01-3 10.37 42.8 42.8 0 01-5.42 9.44l-2 1 2-1a53.31 53.31 0 00-7.72 14.46c-.91 2.67-1.9 5.44-2.9 8.14s-2.09 5.4-3.3 8.06c.25-2.91.67-5.78 1.1-8.64.2-1.44.48-2.85.72-4.28.24-1.43.48-2.81.8-4.29a43 43 0 017.33-16.42l2-1-2 1a50.66 50.66 0 004.95-8.42 58.1 58.1 0 003.37-9.29 78.36 78.36 0 002-9.87c.51-3.43.97-6.87 1.69-10.3z" class="cls-4"/><path id="path4492" d="M74.45 74.32c-.73 6.36 15 12 41.38 13.7 33.68 2.22 71.62-2.77 85-11.07 3.32-2.06 4.81-4.14 4.67-6.13V37.24l-131 3.5z" class="cls-3"/><path transform="translate(-107.64 -387.58)" id="polygon4494" class="cls-3" d="M385.63 400.06l-192.82-11.73-84.42 52.54 199.24 19.36z"/><path id="path4496" d="M192.82 38.61c-11.72 8.3-45 13.28-74.63 11.07-23.13-1.74-37-7.35-36.35-13.7.18-1.85 1.59-3.76 4.36-5.66 12.2-8.36 46-13.17 75.29-10.81 21.77 1.75 35.05 7 35.43 13 .12 1.96-1.19 4.04-4.1 6.1z" class="cls-5"/><path id="path4498" d="M100.19 24.13l-18 13.46a6.15 6.15 0 001.09 1.8l22.27-16.62c-1.9.42-3.67.88-5.36 1.36z" class="cls-7"/><path id="path4500" d="M120.21 20.21L89.13 43.42c.71.32 1.47.63 2.28.94l33-24.61c-1.43.12-2.83.28-4.2.46z" class="cls-7"/><path id="path4502" d="M136.9 18.8L99.5 46.71c.89.2 1.81.39 2.75.58l38.35-28.62c-1.24.03-2.47.07-3.7.13z" class="cls-7"/><path id="path4504" d="M151.86 18.68l-40.26 30q1.5.18 3.06.33l40.54-30.25c-1.11-.01-2.22-.05-3.34-.08z" class="cls-7"/><path id="path4506" d="M165.48 19.56l-40.44 30.18 3.37.1 40.1-29.93c-.99-.13-1.99-.25-3.03-.35z" class="cls-7"/><path id="path4508" d="M177.77 21.42l-38 28.33c1.24 0 2.47-.09 3.7-.15l37-27.57-2.7-.61z" class="cls-7"/><path id="path4510" d="M188.42 24.53l-32.2 24c1.43-.17 2.83-.34 4.21-.53l30.17-22.52c-.68-.3-1.41-.63-2.18-.95z" class="cls-7"/><path id="path4512" d="M196.92 31.84a4.84 4.84 0 00-.79-2l-20.57 15.33c2-.49 3.85-1 5.61-1.57z" class="cls-7"/><path transform="translate(-107.64 -387.58)" id="polygon4514" class="cls-4" d="M286.06 478.01l-4.33 1 .51-3.8 2.89-.44z"/><path id="path4516" d="M192.82 38.61c-11.72 8.3-45 13.28-74.63 11.07-23.13-1.74-37-7.35-36.35-13.7.18-1.85 1.59-3.76 4.36-5.66 12.2-8.36 46-13.17 75.29-10.81 21.77 1.75 35.05 7 35.43 13 .12 1.96-1.19 4.04-4.1 6.1z" stroke-linejoin="round" stroke="#444" stroke-linecap="round" stroke-width="1.5" fill="none"/></svg>