<svg width="33" height="43" fill="none" xmlns="http://www.w3.org/2000/svg"><path fill-rule="evenodd" clip-rule="evenodd" d="M3.29 0h17.99c.17 0 .31.06.4.18l10.9 10.93c.1.1.18.25.18.39v28.27c0 .86-.34 1.63-.92 2.18a3.1 3.1 0 01-2.18.92H3.29c-.86 0-1.64-.34-2.19-.92a3.16 3.16 0 01-.9-2.18V3.1c0-.85.35-1.63.92-2.18C1.65.37 2.43 0 3.3 0zm2.86 27.37h15.4a.5.5 0 00.51-.51.5.5 0 00-.51-.51H6.15a.5.5 0 00-.51.51c-.02.29.22.51.5.51zm0-5.72h19.57a.5.5 0 00.5-.51.5.5 0 00-.5-.51H6.15a.5.5 0 00-.51.51c-.02.29.22.51.5.51zm0-5.37h18.1a.5.5 0 00.5-.51.5.5 0 00-.5-.51H6.15a.5.5 0 00-.51.5c-.02.3.22.52.5.52zm18.73 12.9c-.86 0-1.64.36-2.19.9l-.02.03a3.06 3.06 0 00.04 4.35 3.09 3.09 0 004.37 0 3 3 0 00.9-2.19c0-.86-.34-1.63-.9-2.18-.59-.55-1.34-.9-2.2-.9zm-2.94.2l-.02.03a4.14 4.14 0 002.94 7.03 4.09 4.09 0 004.13-4.13 4.09 4.09 0 00-4.13-4.13 4.02 4.02 0 00-2.92 1.2zM31.74 12H23.9a3.12 3.12 0 01-3.08-3.1V1.04H3.28A2.1 2.1 0 001.2 3.12v36.65c0 .57.22 1.08.6 1.47.38.37.9.61 1.48.61h26.37a2.1 2.1 0 002.08-2.08V12zM21.81 1.78v7.15A2.1 2.1 0 0023.9 11h7.14L21.8 1.78z" fill="#001489"/><path d="M24.84 35.68a3.4 3.4 0 100-6.78 3.4 3.4 0 000 6.78z" fill="#F4AF00"/></svg>