<svg width="48" height="38" fill="none" xmlns="http://www.w3.org/2000/svg"><path fill="#FFB100" d="M2 18h43v9H2z"/><path d="M46.34 15.73l-4.39-4.34a4.83 4.83 0 00-3.4-1.39h-4.8c0-1.31-.42 7.5-1.75 7.5H3.5c-1.33 0-3 .69-3 2V29l5 .12s-.5 2.5 1 4.5a5.97 5.97 0 004.74 2.5 6.02 6.02 0 005.88-7.13h16.34a5.97 5.97 0 005.88 7.13 5.97 5.97 0 005.88-7.13h1.32c.66 0 1.2-.53 1.2-1.18v-8.73a4.7 4.7 0 00-1.4-3.35zm-35.1 16.83a2.5 2.5 0 01-2.45-2.44c0-1.3 1.13-2.31 2.45-2.31 1.32 0 2.37 1 2.37 2.3 0 1.31-1.05 2.45-2.37 2.45zm3.63-7.13a6.32 6.32 0 00-3.63-1.34c-1.34 0-3.15.6-4.15 1.34H2.5V19.5h30.84v5.93H14.87zM35.74 13H39c.32 0 1.27.78 1.5 1l3.5 3.5h-8.23l-.03-4.5zm3.6 19.56a2.4 2.4 0 01-2.4-2.38 2.4 2.4 0 012.4-2.37 2.4 2.4 0 012.4 2.37 2.4 2.4 0 01-2.4 2.38zm4.8-7.13h-1.23a6.02 6.02 0 00-7.14 0h-.03v-5.94h8.4v5.94z" fill="#001489"/></svg>