<svg width="80" height="72" viewBox="0 0 80 72" fill="none" xmlns="http://www.w3.org/2000/svg">
<g clip-path="url(#clip0)">
<path d="M78.5753 31.1611C77.7456 30.0494 76.4931 29.2851 75.0215 28.9932C75.9609 27.3951 75.9295 25.394 74.7241 23.782C73.863 22.6425 72.5793 21.8921 71.1702 21.6141C71.4207 21.1972 71.6086 20.7387 71.7182 20.2523C72.0313 18.9182 71.7182 17.5424 70.8728 16.4029C70.0431 15.2912 68.7906 14.5269 67.319 14.235C68.2583 12.6369 68.227 10.6358 67.0215 9.02381C65.2681 6.67528 61.683 6.02214 59.0215 7.57856L53.2759 10.9554C50.2074 9.57967 46.9511 8.59301 43.5851 8.03715C42.5205 6.5919 41.2681 5.25782 39.8904 4.06271L37.5264 2.03381C35.7886 0.532974 33.0646 0.310628 31.0294 1.50574C28.634 2.9093 27.9765 5.7859 29.5577 7.89818C29.6203 7.98156 29.683 8.06494 29.7456 8.14832C21.9804 9.55188 14.8728 13.2206 9.62818 18.5986C3.91389 24.4352 0.782776 31.8976 0.782776 39.6381C0.782776 41.125 0.892365 42.6119 1.1272 44.0572C2.86497 55.2996 11.3033 64.9716 23.1389 69.3351C27.5225 70.9471 32.1879 71.767 36.9785 71.767C44.5714 71.767 51.8356 69.7103 57.9883 65.8054C64.0157 61.9838 68.5245 56.717 71.0137 50.5608C71.2485 49.991 70.9198 49.3518 70.2622 49.1433C69.6203 48.9349 68.9002 49.2267 68.6654 49.8104C66.3327 55.5358 62.137 60.4413 56.5323 64.0127C50.8023 67.6536 44.0391 69.5714 36.9628 69.5714C33.3151 69.5714 29.7456 69.0572 26.317 68.0427L36.4305 62.095L44.8376 57.1478C45.589 56.7031 46.1057 56.0222 46.2935 55.2301C46.4814 54.438 46.2935 53.632 45.7926 52.9649L45.683 52.8121L47.3112 51.8532C48.4697 51.1723 49.8787 50.8943 51.2564 51.0889C53.2603 51.3807 55.2798 50.9777 56.9706 49.991L70.5284 42.0283C70.4344 43.0705 70.2779 44.1128 70.0744 45.1272C69.9491 45.7248 70.3875 46.3084 71.0763 46.4196C71.1546 46.4335 71.2329 46.4335 71.3111 46.4335C71.9061 46.4335 72.4227 46.0583 72.5323 45.5302C72.8767 43.8904 73.0802 42.195 73.1272 40.5135L76.9472 38.2623C78.2309 37.5119 79.1076 36.3585 79.4207 35.0105C79.7338 33.6764 79.4364 32.3006 78.5753 31.1611ZM50.8963 12.3868L47.092 14.6241L46.3405 12.8315C46.0274 12.0811 45.6673 11.3584 45.2759 10.6358C47.2016 11.0666 49.0802 11.6503 50.8963 12.3868ZM3.27201 39.6381C3.27201 32.4396 6.19961 25.4774 11.5068 20.0438C16.5636 14.8743 23.4364 11.4001 30.9511 10.205C32.1566 12.8037 32.454 15.7081 31.7339 18.4735L28.6967 30.105C28.227 29.6464 27.6008 29.3407 26.8963 29.2156C26.0039 29.0488 25.0959 29.2156 24.3444 29.6603L15.7495 34.7048L3.36595 41.9866C3.30332 41.1945 3.27201 40.4163 3.27201 39.6381ZM43.8826 54.7715C43.8356 54.9799 43.6947 55.1606 43.4912 55.2857L36.1018 59.6214L34.0196 60.8443L23.4834 67.0422C12.9941 62.9844 5.4951 54.3824 3.69471 44.3907L16.0939 37.1228L17.5186 39.0127C17.7534 39.3323 18.1448 39.4991 18.5519 39.4991C18.7867 39.4991 19.0372 39.4435 19.2407 39.3184C19.8043 38.9849 19.9609 38.2901 19.5851 37.7898L18.1605 35.9138L25.7065 31.4946C25.91 31.3696 26.1448 31.3279 26.3796 31.3835C26.6145 31.4252 26.818 31.5502 26.9589 31.7309L43.726 54.2017C43.8826 54.3546 43.9295 54.563 43.8826 54.7715ZM76.9941 34.5658C76.8219 35.3301 76.3209 35.9833 75.5851 36.414L71.2172 38.9849L55.6399 48.1428C54.4814 48.8237 53.0724 49.1017 51.6947 48.9071C49.6908 48.6292 47.6712 49.0183 45.9804 50.0049L44.3522 50.9638L30.6067 32.5647L34.1605 18.9599C35.0685 15.4579 34.5988 11.7614 32.8454 8.55132C32.8297 8.52353 32.8141 8.48184 32.7984 8.45405C32.4697 7.8426 32.0783 7.25894 31.6556 6.68918C30.8258 5.57745 31.1703 4.09051 32.4227 3.35399C33.4716 2.72864 34.8963 2.85371 35.8043 3.63192L38.1839 5.67472C40.7515 7.88428 42.771 10.6358 44.0235 13.6097L45.3229 16.7086V16.7225C45.3229 16.7364 45.3229 16.7364 45.3386 16.7503C45.3542 16.7642 45.3542 16.792 45.3699 16.8059C45.4012 16.8476 45.4168 16.9032 45.4481 16.9449C45.8239 17.4591 46.6066 17.598 47.1702 17.2506L60.4305 9.42681C61.9335 8.53743 63.9843 8.91263 64.9863 10.2467C65.9883 11.5808 65.5656 13.4012 64.0626 14.2906L62.9041 14.9716L60.3366 16.4863C60.3366 16.4863 60.3366 16.4863 60.3209 16.4863C60.3053 16.5002 60.2896 16.5002 60.274 16.5141C59.7417 16.8615 59.6008 17.5146 59.9765 18.0149C60.3522 18.5291 61.135 18.6681 61.6986 18.3206L64.2661 16.8059C65.002 16.3751 65.8787 16.2223 66.7241 16.3751C67.5851 16.528 68.3209 16.9727 68.8063 17.6258C69.2916 18.279 69.4638 19.0572 69.2916 19.8076C69.1194 20.5719 68.6184 21.225 67.8826 21.6558L64.1566 23.8376C63.5773 24.1711 63.4207 24.8521 63.8121 25.3662C64.047 25.6859 64.454 25.8665 64.8454 25.8665C65.0802 25.8665 65.3151 25.8109 65.5342 25.6859L66.1135 25.3523L68.1018 24.185C69.6047 23.2956 71.6556 23.6708 72.6575 25.0049C73.6595 26.339 73.2368 28.1595 71.7339 29.0488L69.8708 30.1467C69.8552 30.1467 69.8552 30.1606 69.8395 30.1606L68.0078 31.2445C67.4286 31.578 67.272 32.2729 67.6634 32.7731C67.8982 33.0928 68.3053 33.2734 68.6967 33.2734C68.9315 33.2734 69.1663 33.2178 69.3855 33.0928L69.9648 32.7592L71.953 31.5919C72.6888 31.1611 73.5656 31.0083 74.4109 31.1611C75.272 31.314 76.0078 31.7587 76.4931 32.4118C76.9941 33.0372 77.1663 33.8015 76.9941 34.5658Z" fill="#001489"/>
<path d="M16.1096 37.1232L34.3013 60.6918L36.3992 59.4689C36.4618 59.455 18.2231 35.8864 18.2231 35.8864L16.1096 37.1232Z" fill="#F4AF00"/>
</g>
<defs>
<clipPath id="clip0">
<rect width="80" height="71.0117" fill="white" transform="translate(0 0.741699)"/>
</clipPath>
</defs>
</svg>
