<svg width="60" height="72" viewBox="0 0 60 72" fill="none" xmlns="http://www.w3.org/2000/svg">
<path d="M36.1859 11.3818V7.66302H36.8269C37.3558 7.66302 37.7885 7.22835 37.7885 6.69709V4.52376C37.7885 2.02845 35.7692 0 33.2853 0H26.7147C24.2308 0 22.2115 2.02845 22.2115 4.52376V6.69709C22.2115 7.22835 22.6442 7.66302 23.1731 7.66302H23.8141V11.3979C19.4071 12.3317 15.3526 14.2313 11.891 16.8715L9.67949 14.6499C8.91026 13.8771 7.64423 13.8771 6.875 14.6499L4.15064 17.3867C3.78205 17.757 3.57372 18.256 3.57372 18.7873C3.57372 19.3185 3.78205 19.8176 4.15064 20.1879L6.33013 22.3773C2.37179 27.4806 0 33.904 0 40.8748C0 57.4887 13.4615 71.0117 30 71.0117C46.5385 71.0117 60 57.4887 60 40.8748C60 26.3859 49.7596 14.2635 36.1859 11.3818ZM24.1186 4.52376C24.1186 3.09097 25.2724 1.93185 26.6987 1.93185H33.2692C34.6955 1.93185 35.8494 3.09097 35.8494 4.52376V5.73117H24.1186V4.52376ZM25.7372 7.72741H34.2628V11.0438C32.8686 10.8506 31.4423 10.7379 30 10.7379C28.5577 10.7379 27.1314 10.8506 25.7372 11.0438V7.72741ZM5.51282 18.8356C5.51282 18.8356 5.49679 18.8195 5.49679 18.7873C5.49679 18.7551 5.51282 18.7551 5.51282 18.739L8.23718 16.0022C8.25321 15.9861 8.30128 15.9861 8.31731 16.0022L10.3846 18.0789C9.375 18.9483 8.44551 19.882 7.5641 20.8801L5.51282 18.8356ZM30 69.0799C14.5192 69.0799 1.92308 56.4262 1.92308 40.8748C1.92308 25.3234 14.5192 12.6697 30 12.6697C45.4808 12.6697 58.0769 25.3234 58.0769 40.8748C58.0769 56.4262 45.4808 69.0799 30 69.0799Z" fill="#001489"/>
<path d="M30 17.3706C17.0994 17.3706 6.60257 27.9153 6.60257 40.8748C6.60257 53.8342 17.0994 64.3789 30 64.3789C42.9006 64.3789 53.3974 53.8342 53.3974 40.8748C53.3974 27.9153 42.9006 17.3706 30 17.3706ZM30 62.4471C18.1571 62.4471 8.52565 52.7717 8.52565 40.8748C8.52565 28.9778 18.1571 19.3025 30 19.3025C41.8429 19.3025 51.4743 28.9778 51.4743 40.8748C51.4743 52.7717 41.8269 62.4471 30 62.4471Z" fill="#001489"/>
<path d="M37.6763 31.6985C37.8526 31.28 37.7083 30.7809 37.3237 30.5233C36.9391 30.2657 36.4423 30.314 36.1058 30.636C36.1058 30.636 27.2756 39.2328 27.0192 39.6031C25.9455 41.1968 26.3622 43.3702 27.9487 44.4488C29.5352 45.5274 31.6987 45.1089 32.7724 43.5151C33.0449 43.1448 37.6763 31.6985 37.6763 31.6985ZM34.1026 35.3208L32.5 39.2167C32.3077 39.0074 32.0994 38.8142 31.859 38.6532C31.6186 38.4922 31.3622 38.3635 31.1058 38.2669L34.1026 35.3208ZM29.0385 42.855C28.3333 42.3721 28.141 41.4061 28.6218 40.6817C29.1026 39.9733 30.2244 39.7801 30.9455 40.2631C31.6506 40.7461 31.6827 41.712 31.2019 42.4365C30.7211 43.1448 29.7436 43.3219 29.0385 42.855Z" fill="#FFB100"/>
<path d="M30 55.8306C29.4712 55.8306 29.0385 56.2652 29.0385 56.7965V60.5314C29.0385 61.0626 29.4712 61.4973 30 61.4973C30.5289 61.4973 30.9615 61.0626 30.9615 60.5314V56.7965C30.9615 56.2652 30.5289 55.8306 30 55.8306Z" fill="#001489"/>
<path d="M30 25.9189C30.5289 25.9189 30.9615 25.4843 30.9615 24.953V21.2181C30.9615 20.6869 30.5289 20.2522 30 20.2522C29.4712 20.2522 29.0385 20.6869 29.0385 21.2181V24.953C29.0385 25.4843 29.4712 25.9189 30 25.9189Z" fill="#001489"/>
<path d="M18.109 51.4518L15.4808 54.0919C15.1122 54.4621 15.1122 55.0739 15.4808 55.4602C15.6731 55.6534 15.9135 55.75 16.1538 55.75C16.3942 55.75 16.6506 55.6534 16.8269 55.4602L19.4551 52.8201C19.8237 52.4499 19.8237 51.8381 19.4551 51.4518C19.0865 51.0815 18.4776 51.0815 18.109 51.4518Z" fill="#001489"/>
<path d="M41.2019 30.5876C41.4583 30.5876 41.6987 30.4911 41.875 30.2979L44.5032 27.6577C44.8718 27.2874 44.8718 26.6757 44.5032 26.2893C44.1346 25.919 43.5256 25.919 43.141 26.2893L40.5288 28.9134C40.3365 29.0905 40.2243 29.348 40.2243 29.6217C40.2404 30.153 40.6731 30.5876 41.2019 30.5876Z" fill="#001489"/>
<path d="M14.1346 39.9087H10.4167C9.88782 39.9087 9.45512 40.3434 9.45512 40.8746C9.45512 41.4059 9.88782 41.8406 10.4167 41.8406H14.1346C14.6635 41.8406 15.0962 41.4059 15.0962 40.8746C15.0962 40.3434 14.6795 39.9087 14.1346 39.9087Z" fill="#001489"/>
<path d="M49.5673 39.9087H45.8494C45.3205 39.9087 44.8878 40.3434 44.8878 40.8746C44.8878 41.4059 45.3205 41.8406 45.8494 41.8406H49.5673C50.0962 41.8406 50.5288 41.4059 50.5288 40.8746C50.5288 40.3434 50.0962 39.9087 49.5673 39.9087Z" fill="#001489"/>
<path d="M18.109 30.298C18.2853 30.4751 18.5417 30.5878 18.782 30.5878C19.3109 30.5878 19.7436 30.1531 19.7436 29.6219C19.7436 29.3482 19.6314 29.1067 19.4391 28.9296L16.8269 26.3055C16.4583 25.9353 15.8494 25.9353 15.4647 26.3055C15.0962 26.6758 15.0962 27.2875 15.4647 27.6739L18.109 30.298Z" fill="#001489"/>
<path d="M41.891 51.4518C41.5224 51.0815 40.9134 51.0815 40.5288 51.4518C40.1602 51.822 40.1602 52.4338 40.5288 52.8201L43.157 55.4602C43.3493 55.6534 43.5897 55.75 43.8301 55.75C44.0705 55.75 44.3269 55.6534 44.5032 55.4602C44.8718 55.09 44.8718 54.4782 44.5032 54.0919L41.891 51.4518Z" fill="#001489"/>
</svg>
