<svg width="48" height="38" fill="none" xmlns="http://www.w3.org/2000/svg"><g clip-path="url(#clip0)"><path fill="#FFB100" d="M35 18h10v8H35zM2 4h32v22H2z"/><path d="M47.1 14.86l-4.39-4.34a4.83 4.83 0 00-3.4-1.39H36.5V4.37A2.39 2.39 0 0034.1 2H2.9A2.39 2.39 0 00.5 4.38V29.3a6 6 0 0010.8 3.53 5.99 5.99 0 004.8 2.41 5.97 5.97 0 005.88-7.13h12.24a5.97 5.97 0 005.88 7.13 5.97 5.97 0 005.88-7.13h1.32c.66 0 1.2-.53 1.2-1.18v-8.72c0-1.26-.5-2.47-1.4-3.36zM6.5 31.7a2.4 2.4 0 01-2.4-2.38 2.4 2.4 0 012.4-2.37 2.4 2.4 0 012.4 2.37 2.4 2.4 0 01-2.4 2.38zm9.6 0a2.4 2.4 0 01-2.4-2.38 2.4 2.4 0 012.4-2.37 2.4 2.4 0 012.4 2.37 2.4 2.4 0 01-2.4 2.38zm4.4-6.19c-.5-.94-3.06-2.13-4.4-2.13-1.34 0-2.57.46-3.57 1.2h-2.47a6 6 0 00-3.57-1.2c-.85 0-2.99.13-3.8 1.42V4.38L34 4v21.5H20.5zm16-12.81h2.81c.32 0 .63.12.85.35l3.25 3.21H36.5v-3.56zm3.6 19a2.4 2.4 0 01-2.4-2.38 2.4 2.4 0 012.4-2.37 2.4 2.4 0 012.4 2.37 2.4 2.4 0 01-2.4 2.38zm4.8-7.13h-1.23a6.02 6.02 0 00-7.14 0h-.03v-5.93h8.4v5.93z" fill="#001489"/><path d="M8.85 8.6H7.51V12h-.96V8.6H5.2v-.8h3.64v.8zm3.25 2.5h-1.95l-.38.9h-1l1.88-4.2h.96l1.88 4.2h-1.02l-.37-.9zm-.31-.74l-.67-1.6-.66 1.6h1.33zm4.07-2.56c.37 0 .7.06.97.19.27.12.49.3.63.52.15.23.23.5.23.81 0 .31-.08.58-.23.81-.14.23-.36.4-.63.53-.27.12-.6.18-.97.18h-.84V12h-.98V7.8h1.82zm-.05 2.25c.29 0 .51-.06.66-.19.16-.12.23-.3.23-.54 0-.23-.07-.41-.23-.54-.15-.12-.37-.19-.66-.19H15v1.46h.8zm6.35-2.25V12h-.97V8.6h-1.9V12h-.96V7.8h3.83zm3.88 3.3H24.1l-.37.9h-1l1.87-4.2h.96l1.88 4.2h-1.02l-.37-.9zm-.3-.74l-.67-1.6-.67 1.6h1.33zm3.88-.05h-.68V12h-.96V7.8h.96v1.7h.7l1.1-1.7h1.03L30.4 9.83 31.8 12h-1.1l-1.1-1.7z" fill="#001489"/></g><defs><clipPath id="clip0"><path fill="#fff" d="M0 0h48v38H0z"/></clipPath></defs></svg>