<svg width="48" height="41" fill="none" xmlns="http://www.w3.org/2000/svg"><g clip-path="url(#clip0)"><path d="M26.5 1.5h14v9h-14v-9z" fill="#FFB100"/><path d="M26.5 1.5h14v9h-14v-9z" stroke="#001489"/><path d="M26.5 1.5h14v9h-14v-9z" stroke="#001489"/><path d="M26.5 1.5h14v9h-14v-9z" stroke="#001489"/><path fill="#FFB100" d="M8.5 1.5h14v9h-14z"/><path stroke="#001489" d="M8.5 1.5h14v9h-14z"/><path stroke="#001489" d="M8.5 1.5h14v9h-14z"/><path stroke="#001489" d="M8.5 1.5h14v9h-14z"/><path fill="#FFB100" d="M26.5 14.5h14v9h-14z"/><path stroke="#001489" d="M26.5 14.5h14v9h-14z"/><path stroke="#001489" d="M26.5 14.5h14v9h-14z"/><path stroke="#001489" d="M26.5 14.5h14v9h-14z"/><path fill="#FFB100" d="M26.5 27.5h14v9h-14z"/><path stroke="#001489" d="M26.5 27.5h14v9h-14z"/><path stroke="#001489" d="M26.5 27.5h14v9h-14z"/><path stroke="#001489" d="M26.5 27.5h14v9h-14z"/><path d="M8.5 14.5h14v9h-14v-9z" fill="#FFB100"/><path d="M8.5 14.5h14v9h-14v-9z" stroke="#001489"/><path d="M8.5 14.5h14v9h-14v-9z" stroke="#001489"/><path d="M8.5 14.5h14v9h-14v-9z" stroke="#001489"/><path d="M8.5 27.5h14v9h-14v-9z" fill="#FFB100"/><path d="M8.5 27.5h14v9h-14v-9z" stroke="#001489"/><path d="M8.5 27.5h14v9h-14v-9z" stroke="#001489"/><path d="M8.5 27.5h14v9h-14v-9z" stroke="#001489"/><path stroke="#000" d="M24.5 1v36M24.5 4v33M8 12.5h33M8 25.5h33"/></g><defs><clipPath id="clip0"><path fill="#fff" d="M0 0h48v41H0z"/></clipPath></defs></svg>