<svg xmlns="http://www.w3.org/2000/svg" xmlns:xlink="http://www.w3.org/1999/xlink"><symbol id="icon-arrow-slider"><path d="M.94 10.94a1.5 1.5 0 000 2.12l9.55 9.55a1.5 1.5 0 102.12-2.12L4.12 12l8.49-8.49a1.5 1.5 0 10-2.12-2.12L.94 10.94zM3 10.5H2v3h1v-3z" fill="#001489"/></symbol><symbol id="icon-arrow"><path d="M52.7 8.7a1 1 0 000-1.4L46.35.92a1 1 0 10-1.41 1.41L50.59 8l-5.66 5.66a1 1 0 001.41 1.41l6.37-6.36zM0 9h52V7H0v2z" fill="#001489"/></symbol><symbol id="icon-email-small"><path fill="none" stroke="currentColor" d="M1.4 6.5L10 11l8.6-4.5"/><path fill="none" stroke="currentColor" d="M1 4v12h18V4H1zm17 11H2V5h16v10z"/></symbol><symbol id="icon-email" viewBox="0 0 37 34">
<path fill-rule="evenodd" clip-rule="evenodd" d="M10.6949 17.5398C10.4752 17.5398 10.3104 17.3773 10.3104 17.1985C10.3104 17.0034 10.4935 16.8571 10.6949 16.8571H22.3788C22.5986 16.8571 22.7634 17.0197 22.7634 17.1985C22.7634 17.3935 22.5802 17.5398 22.3788 17.5398H10.6949ZM35.5643 17.5398L25.5836 24.2372L35.5643 30.9345V17.5398ZM24.9426 23.7983L29.7407 20.5797V9.15193C29.7407 9.13567 29.7407 9.11942 29.7407 9.10316V8.0628H23.7889C23.148 8.0628 22.5619 7.83522 22.1224 7.44509C21.7012 7.07121 21.4265 6.55103 21.4265 5.98208V0.682737H8.16771C7.72819 0.682737 7.34361 0.845294 7.0506 1.08913C6.79422 1.34922 6.61108 1.69059 6.61108 2.08072V20.5959L11.4092 23.8145L16.7566 20.222C17.1778 19.9294 17.6723 19.7994 18.1667 19.7994C18.6612 19.7994 19.1557 19.9457 19.5769 20.222L24.9426 23.7983ZM30.5282 20.0595V9.83467L34.9417 12.7932C35.1431 12.9232 35.3079 13.1021 35.3995 13.2809C35.5094 13.4597 35.5643 13.671 35.5643 13.8986V16.662L30.5282 20.0595ZM10.7499 24.2372L0.78747 30.9182V17.5398L5.97012 21.0186C5.98843 21.0348 5.98843 21.0348 6.00675 21.0348L10.7499 24.2372ZM0.78747 16.662L5.84193 20.0432V9.81841L1.41012 12.7932C1.20867 12.9232 1.04386 13.1021 0.952289 13.2809C0.84241 13.4597 0.78747 13.671 0.78747 13.8986V16.662ZM0.78747 31.7798L11.6289 24.5135L11.6472 24.4973L17.2328 20.7585C17.5441 20.5634 17.8554 20.4659 18.1851 20.4659C18.5147 20.4659 18.8443 20.5634 19.1373 20.7585L24.7229 24.4973L24.7412 24.5135L35.5826 31.7798C35.546 32.1049 35.3812 32.3975 35.1248 32.6088C34.8318 32.8527 34.4472 33.0152 34.0077 33.0152H2.3441C1.90458 33.0152 1.52 32.8527 1.22699 32.6088C0.988916 32.3975 0.824096 32.1212 0.78747 31.7798ZM30.5282 8.95686V7.75394V7.72143C30.5282 7.6239 30.4733 7.52636 30.3817 7.46134L22.1224 0.11379C22.0492 0.0325114 21.9393 0 21.8294 0H21.7928H8.18602C7.52675 0 6.94072 0.227579 6.51952 0.617714C6.09831 0.991594 5.82361 1.51177 5.82361 2.09698V8.97312L0.933976 12.2405C0.640964 12.4356 0.402892 12.6957 0.238072 12.972C0.073253 13.2484 0 13.5735 0 13.8986V31.6335C0 32.2024 0.256385 32.7226 0.695903 33.1128C1.11711 33.4866 1.70313 33.7305 2.36241 33.7305H34.0077C34.6487 33.7305 35.253 33.5029 35.6742 33.1128C36.0954 32.7389 36.3701 32.2187 36.3701 31.6335V13.8986C36.3701 13.5572 36.2786 13.2484 36.132 12.972C35.9672 12.6957 35.7475 12.4356 35.4361 12.2405L30.5282 8.95686ZM22.214 1.17041L29.1913 7.36381H23.7889C23.3494 7.36381 22.9648 7.20125 22.6718 6.95742C22.3971 6.71358 22.214 6.35596 22.214 5.98208V1.17041ZM10.6949 12.1267C10.4752 12.1267 10.3104 11.9642 10.3104 11.7853C10.3104 11.5903 10.4935 11.444 10.6949 11.444H24.4116C24.6313 11.444 24.7961 11.6065 24.7961 11.7853C24.7961 11.9804 24.613 12.1267 24.4116 12.1267H10.6949ZM10.6949 14.7601C10.4752 14.7601 10.3104 14.5976 10.3104 14.4188C10.3104 14.2237 10.4935 14.0774 10.6949 14.0774H25.5287C25.7484 14.0774 25.9132 14.2399 25.9132 14.4188C25.9132 14.6138 25.7301 14.7601 25.5287 14.7601H10.6949Z" fill="#001489"/>
<path fill-rule="evenodd" clip-rule="evenodd" d="M0.787465 31.7801L16.6284 21.1487C17.4525 20.5147 18.2034 20.1733 19.119 20.7423L35.5643 31.7801C35.5643 32.853 34.3007 33.2106 32.8906 33.048L2.85686 33.0806C1.2453 33.2919 0.549392 31.8776 0.787465 31.7801Z" fill="#95B1C9"/>
</symbol><symbol id="icon-phone"><path fill="none" stroke="currentColor" stroke-width="1.01" d="M6.19 13.61c1.94 1.92 4.9 4.63 7.68 4.65 2.6.01 4.33-2.02 4.33-2.02l-3.7-3.69-2.96 1.09-5.35-5.35L7.3 5.36 3.76 1.8S1.73 3.54 1.7 6.1c-.03 2.7 2.65 5.64 4.49 7.51"/></symbol><symbol id="icon-point"><path fill="none" stroke="currentColor" stroke-width="1.01" d="M10 .5a6.48 6.48 0 00-6.5 6.48C3.5 11.83 10 19 10 19s6.5-7.17 6.5-12.02A6.48 6.48 0 0010 .5h0z"/><circle fill="none" stroke="currentColor" cx="10" cy="6.8" r="2.3"/></symbol></svg>