<svg width="431" height="559" viewBox="0 0 431 559" fill="none" xmlns="http://www.w3.org/2000/svg">
<path d="M154 202.43L33.4323 347.138L32 175.105L152.568 105.042L154 202.43Z" fill="#CCCCCC"/>
<path d="M33.5039 348.123C33.3808 348.144 33.255 348.144 33.1319 348.123C32.9281 348.045 32.7523 347.908 32.6273 347.728C32.5023 347.549 32.4339 347.336 32.4309 347.117L31.0002 174.51C30.9968 174.319 31.044 174.13 31.137 173.964C31.2301 173.797 31.3655 173.659 31.5295 173.562L151.965 103.192C152.125 103.096 152.308 103.044 152.494 103.041C152.681 103.039 152.865 103.086 153.028 103.178C153.19 103.269 153.326 103.403 153.421 103.564C153.516 103.726 153.566 103.909 153.567 104.097L154.998 201.825C155.006 201.952 154.989 202.08 154.947 202.201C154.905 202.322 154.84 202.433 154.755 202.529L34.3194 347.735C34.219 347.854 34.0943 347.951 33.9536 348.018C33.8129 348.085 33.6595 348.12 33.5039 348.123V348.123ZM33.1462 175.056L34.5769 344.102L152.881 201.48L151.45 105.992L33.1462 175.056Z" fill="#444444"/>
<path d="M429 445.177L151 413.11L152.431 105.042L427.569 122.344L429 445.177Z" fill="#CCCCCC"/>
<path d="M428.927 446.177H428.799L150.944 414.124C150.684 414.09 150.445 413.962 150.271 413.764C150.097 413.567 150.001 413.313 150 413.05L151.43 105.105C151.432 104.959 151.464 104.816 151.523 104.683C151.582 104.55 151.667 104.43 151.774 104.331C151.879 104.229 152.005 104.151 152.143 104.101C152.281 104.052 152.428 104.032 152.575 104.045L427.568 121.339C427.84 121.357 428.095 121.478 428.281 121.678C428.467 121.877 428.57 122.14 428.57 122.414L430 445.102C430 445.254 429.968 445.404 429.907 445.542C429.845 445.68 429.755 445.804 429.642 445.905C429.443 446.077 429.19 446.174 428.927 446.177V446.177ZM152.16 412.09L427.84 443.899L426.41 123.431L153.576 106.237L152.16 412.09Z" fill="#444444"/>
<path d="M159.415 106.042L153 110.355V114.045L164 106.315L159.415 106.042Z" fill="#BFBFBF"/>
<path d="M178.39 108.043L151 126.655V130.052L183 108.294L178.39 108.043Z" fill="#BFBFBF"/>
<path d="M198.333 109.043L151 141.589V145.057L203 109.313L198.333 109.043Z" fill="#BFBFBF"/>
<path d="M218.327 110.044L151 156.577V160.064L223 110.302L218.327 110.044Z" fill="#BFBFBF"/>
<path d="M237.368 111.044L151 171.551V175.069L242 111.303L237.368 111.044Z" fill="#BFBFBF"/>
<path d="M257.351 112.044L151 185.59V189.075L262 112.316L257.351 112.044Z" fill="#BFBFBF"/>
<path d="M276.376 113.045L151 200.58V204.081L281 113.303L276.376 113.045Z" fill="#BFBFBF"/>
<path d="M296.362 114.045L151 215.576V219.087L301 114.319L296.362 114.045Z" fill="#BFBFBF"/>
<path d="M316.352 115.045L151 230.573V234.093L321 115.32L316.352 115.045Z" fill="#BFBFBF"/>
<path d="M335.369 116.046L151 244.598V248.098L340 116.304L335.369 116.046Z" fill="#BFBFBF"/>
<path d="M355.36 118.047L151 259.634V263.105L360 118.318L355.36 118.047Z" fill="#BFBFBF"/>
<path d="M375.353 119.047L151 274.617V278.11L380 119.305L375.353 119.047Z" fill="#BFBFBF"/>
<path d="M394.366 120.047L151 289.615V293.116L399 120.32L394.366 120.047Z" fill="#BFBFBF"/>
<path d="M414.359 121.048L151 304.63V308.122L419 121.321L414.359 121.048Z" fill="#BFBFBF"/>
<path d="M428 126.05L151 318.638V322.128L428 129.525V126.05Z" fill="#BFBFBF"/>
<path d="M428 141.056L151 333.644V337.134L428 144.546V141.056Z" fill="#BFBFBF"/>
<path d="M428 155.062L151 348.647V352.14L428 158.569V155.062Z" fill="#BFBFBF"/>
<path d="M428 170.067L151 363.638V367.146L428 173.575V170.067Z" fill="#BFBFBF"/>
<path d="M428 185.073L151 378.644V382.152L428 188.566V185.073Z" fill="#BFBFBF"/>
<path d="M428 200.079L151 392.682V396.157L428 203.569V200.079Z" fill="#BFBFBF"/>
<path d="M428 215.085L151 407.674V411.163L428 218.575V215.085Z" fill="#BFBFBF"/>
<path d="M428 229.091L163 414.518L167.091 415.165L428 232.582V229.091Z" fill="#BFBFBF"/>
<path d="M428 244.097L180 417.533L184.139 418.166L428 247.632V244.097Z" fill="#BFBFBF"/>
<path d="M428 259.103L197 419.523L201.145 420.167L428 262.619V259.103Z" fill="#BFBFBF"/>
<path d="M428 274.109L215 422.539L219.09 423.168L428 277.598V274.109Z" fill="#BFBFBF"/>
<path d="M428 288.114L232 425.521L236.082 426.169L428 291.616V288.114Z" fill="#BFBFBF"/>
<path d="M428 303.12L250 428.535L254.081 429.17L428 306.641V303.12Z" fill="#BFBFBF"/>
<path d="M428 318.126L267 430.526L271.089 431.171L428 321.621V318.126Z" fill="#BFBFBF"/>
<path d="M428 333.132L284 433.542L288.097 434.172L428 336.616V333.132Z" fill="#BFBFBF"/>
<path d="M428 348.138L302 436.542L306.076 437.174L428 351.639V348.138Z" fill="#BFBFBF"/>
<path d="M428 362.144L319 438.542L323.086 439.174L428 365.65V362.144Z" fill="#BFBFBF"/>
<path d="M428 377.149L336 441.542L340.099 442.175L428 380.648V377.149Z" fill="#BFBFBF"/>
<path d="M428 392.156L354 444.527L358.064 445.177L428 395.677V392.156Z" fill="#BFBFBF"/>
<path d="M298.64 283.843L258.67 311.714L261.53 312.154L298.64 286.284V283.843Z" fill="#BFBFBF"/>
<path d="M298.64 294.167L270.78 313.584L273.64 314.034L298.64 296.597V294.167Z" fill="#BFBFBF"/>
<path d="M298.64 304.48L282.89 315.465L285.75 315.905L298.64 306.921V304.48Z" fill="#BFBFBF"/>
<path d="M299.64 310.233V307.792L295.99 310.343L298.85 310.784L299.64 310.233Z" fill="#BFBFBF"/>
<path d="M428.927 446.177H428.799L150.944 414.124C150.684 414.09 150.445 413.962 150.271 413.764C150.097 413.567 150.001 413.313 150 413.05L151.43 105.105C151.432 104.959 151.464 104.816 151.523 104.683C151.582 104.55 151.667 104.43 151.774 104.331C151.879 104.229 152.005 104.151 152.143 104.101C152.281 104.052 152.428 104.032 152.575 104.045L427.568 121.339C427.84 121.357 428.095 121.478 428.281 121.678C428.467 121.877 428.57 122.14 428.57 122.414L430 445.102C430 445.254 429.968 445.404 429.907 445.542C429.845 445.68 429.755 445.804 429.642 445.905C429.443 446.077 429.19 446.174 428.927 446.177V446.177ZM152.16 412.09L427.84 443.899L426.41 123.431L153.576 106.237L152.16 412.09Z" fill="#444444"/>
<path d="M430 444.242L318 557.221V199.957L430 121.048V444.242Z" fill="#CCCCCC"/>
<path d="M318.075 558.218C317.939 558.215 317.803 558.191 317.674 558.146C317.475 558.064 317.305 557.925 317.185 557.747C317.065 557.568 317.001 557.358 317 557.143V199.964C317.001 199.792 317.043 199.623 317.123 199.471C317.203 199.318 317.318 199.188 317.459 199.089L429.308 120.242C429.469 120.129 429.659 120.062 429.856 120.05C430.053 120.037 430.25 120.079 430.425 120.171C430.599 120.263 430.745 120.401 430.847 120.57C430.948 120.739 431.001 120.933 431 121.13V444.262C431.002 444.402 430.977 444.541 430.925 444.672C430.874 444.802 430.797 444.921 430.699 445.022L318.85 557.974C318.633 558.153 318.356 558.241 318.075 558.218V558.218ZM319.151 200.551V554.534L428.921 443.746V123.138L319.151 200.551Z" fill="#444444"/>
<path d="M318 557.221L32 515.735V174.069L318 200.569V557.221Z" fill="#F9F9F9"/>
<path d="M317.852 558.217H317.709L31.918 516.732C31.6608 516.694 31.4262 516.564 31.2574 516.367C31.0887 516.169 30.9973 515.917 31.0001 515.657V174.135C31.0125 173.98 31.0572 173.83 31.1314 173.695C31.2055 173.559 31.3073 173.44 31.4303 173.346C31.54 173.246 31.6694 173.17 31.8102 173.123C31.951 173.076 32.1001 173.059 32.2479 173.074L318.025 199.579C318.293 199.6 318.544 199.724 318.725 199.923C318.906 200.123 319.004 200.384 319 200.654V557.156C319.002 557.311 318.97 557.465 318.906 557.607C318.841 557.748 318.746 557.873 318.627 557.973C318.521 558.064 318.398 558.132 318.265 558.174C318.131 558.216 317.991 558.231 317.852 558.217V558.217ZM33.1515 514.74L316.848 555.909V201.614L33.1515 175.31V514.74Z" fill="#444444"/>
<path d="M263 374.148V352.14H270.305V359.309H287V366.979H270.305V374.148H263Z" fill="#99C6D6"/>
<path d="M263 285.781V292.435V300.119H287V292.435H270.835V285.781H287V278.11H270.835H263V285.781Z" fill="#99C6D6"/>
<path d="M272.396 229.73L263 223.088V231.772L272.396 238.414V239.442H263V247.098H287V239.442H278.129V237.4L287 233.315V224.117L275.007 231.258L272.396 229.73Z" fill="#99C6D6"/>
<path d="M263 258.497V265.739L287 276.109V267.81L282.827 266.782V257.932L287 256.383V248.098L263 258.497ZM277.094 264.725L270.849 262.133L277.123 260.062L277.094 264.725Z" fill="#99C6D6"/>
<path d="M263 336.145V343.139L287 353.14V345.139L282.827 344.132V335.627L287 334.13V326.129L263 336.145ZM277.094 342.146L270.82 339.642L277.094 337.641V342.146Z" fill="#99C6D6"/>
<path d="M263 311.278V324.129H287V316.275H281.252V311.278C281.252 310.074 281.015 308.882 280.556 307.77C280.097 306.658 279.424 305.648 278.576 304.797C277.727 303.947 276.721 303.272 275.613 302.813C274.505 302.354 273.317 302.118 272.119 302.12V302.12C270.921 302.12 269.735 302.357 268.629 302.817C267.523 303.278 266.518 303.952 265.671 304.802C264.824 305.653 264.152 306.662 263.694 307.774C263.236 308.885 263 310.076 263 311.278V311.278ZM275.007 312.817V316.275H269.39V312.817C269.39 312.063 269.688 311.34 270.219 310.807C270.75 310.274 271.47 309.974 272.221 309.974C272.971 309.974 273.691 310.274 274.222 310.807C274.753 311.34 275.051 312.063 275.051 312.817H275.007Z" fill="#99C6D6"/>
<path d="M148.394 53.1814L178.6 46.0181C178.6 46.0181 194.347 120.517 254.83 86.1328C315.313 51.7487 269.145 152.036 269.145 152.036C269.145 152.036 136.827 162.064 132.518 162.064C128.209 162.064 69.2293 152.036 77.8615 142.007C86.4938 131.978 119.577 86.1328 123.886 81.8348C128.195 77.5368 148.394 53.1814 148.394 53.1814Z" fill="#CCCCCC"/>
<path d="M132.595 163.064C129.016 163.064 80.7297 155.142 76.3778 145.646C76.0341 144.93 75.9211 144.124 76.0544 143.34C76.1877 142.557 76.5607 141.834 77.1221 141.27C81.4168 136.251 91.8814 122.308 101.974 108.808C112.066 95.3085 121.013 83.339 123.204 81.151C127.498 76.9466 147.383 52.8645 147.54 52.5499C147.696 52.3756 147.9 52.2512 148.127 52.1924L178.333 45.0421C178.613 44.982 178.906 45.0333 179.149 45.1851C179.27 45.2617 179.374 45.362 179.455 45.48C179.537 45.5979 179.593 45.7312 179.621 45.8716C179.693 46.2148 187.266 80.5218 210.7 91.0327C223.054 96.567 237.713 94.6078 254.276 85.198C268.162 77.3042 277.468 75.7883 282.721 80.5933C296.937 93.6211 271.269 149.965 270.167 152.368C270.082 152.539 269.954 152.685 269.796 152.793C269.638 152.9 269.455 152.966 269.265 152.983C263.911 153.412 136.904 163.064 132.595 163.064ZM149.015 54.266C146.653 57.1261 128.83 78.5769 124.678 82.6668C122.602 84.7404 113.398 97.0532 103.649 110.095C93.542 123.609 83.0917 137.595 78.7112 142.672C78.4227 142.926 78.2248 143.268 78.1474 143.644C78.0699 144.021 78.117 144.412 78.2817 144.76C81.9322 152.711 127.355 160.919 132.552 160.919C136.617 160.919 258.528 151.71 268.463 150.909C271.169 144.874 293.63 93.521 281.261 82.1949C276.852 78.1622 268.134 79.8067 255.336 87.0714C238.157 96.853 222.825 98.8408 209.812 93.0061C187.48 82.9958 179.263 53.508 177.774 47.4017L149.015 54.266Z" fill="#444444"/>
<path d="M157.329 50.8693L138.209 64.3793C135.874 67.2134 133.365 70.2532 131 73.0286L165 49.019L157.329 50.8693Z" fill="#BFBFBF"/>
<path d="M178.1 51.02L109.427 98.783L104 106.042L179 53.8835C178.657 52.8383 178.357 51.8791 178.1 51.02Z" fill="#BFBFBF"/>
<path d="M182.743 63.0249L86.7127 129.603C84.599 132.372 82.6567 134.913 81 137.054L184 65.68C183.514 64.7664 183.129 63.8814 182.743 63.0249Z" fill="#BFBFBF"/>
<path d="M188.388 73.0288L80 148.555C80.9209 149.112 81.8733 149.614 82.8523 150.059L190 75.4069C189.43 74.619 188.902 73.8311 188.388 73.0288Z" fill="#BFBFBF"/>
<path d="M195.894 83.0327L93 154.035L96.5392 155.061L198 85.0569C197.269 84.4012 196.567 83.7312 195.894 83.0327Z" fill="#BFBFBF"/>
<path d="M206.129 91.0361L109 158.236C110.3 158.536 111.585 158.807 112.828 159.063L209 92.4902C208.043 92.0483 207.086 91.5493 206.129 91.0361Z" fill="#BFBFBF"/>
<path d="M221.046 95.0376L125 161.475C126.743 161.748 128.168 161.949 129.205 162.064L226 95.1238C224.348 95.1966 222.694 95.1678 221.046 95.0376V95.0376Z" fill="#BFBFBF"/>
<path d="M260.013 82.4697L147 161.064L152.625 160.661L270 79.0312C266.544 79.7663 263.19 80.921 260.013 82.4697V82.4697Z" fill="#BFBFBF"/>
<path d="M281.485 83.0327L171 159.063L176.717 158.652L283 85.5146C282.611 84.6228 282.101 83.7879 281.485 83.0327V83.0327Z" fill="#BFBFBF"/>
<path d="M285 95.0376L195 158.063L200.739 157.642L284.813 98.7202C284.885 97.4879 284.971 96.241 285 95.0376Z" fill="#BFBFBF"/>
<path d="M282 112.044L219 156.062L224.601 155.632L280.92 116.254C281.303 114.822 281.673 113.39 282 112.044Z" fill="#BFBFBF"/>
<path d="M277 131.052L243 154.061L248.734 153.642L275.38 135.598C275.868 134.143 276.441 132.619 277 131.052Z" fill="#BFBFBF"/>
<path d="M269 151.06L267 152.06L268.429 151.98C268.429 151.98 268.643 151.63 269 151.06Z" fill="#BFBFBF"/>
<path d="M132.595 163.064C129.016 163.064 80.7297 155.142 76.3778 145.646C76.0341 144.93 75.9211 144.124 76.0544 143.34C76.1877 142.557 76.5607 141.834 77.1221 141.27C81.4168 136.251 91.8814 122.308 101.974 108.808C112.066 95.3085 121.013 83.339 123.204 81.151C127.498 76.9466 147.383 52.8645 147.54 52.5499C147.696 52.3756 147.9 52.2512 148.127 52.1924L178.333 45.0421C178.613 44.982 178.906 45.0333 179.149 45.1851C179.27 45.2617 179.374 45.362 179.455 45.48C179.537 45.5979 179.593 45.7312 179.621 45.8716C179.693 46.2148 187.266 80.5218 210.7 91.0327C223.054 96.567 237.713 94.6078 254.276 85.198C268.162 77.3042 277.468 75.7883 282.721 80.5933C296.937 93.6211 271.269 149.965 270.167 152.368C270.082 152.539 269.954 152.685 269.796 152.793C269.638 152.9 269.455 152.966 269.265 152.983C263.911 153.412 136.904 163.064 132.595 163.064ZM149.015 54.266C146.653 57.1261 128.83 78.5769 124.678 82.6668C122.602 84.7404 113.398 97.0532 103.649 110.095C93.542 123.609 83.0917 137.595 78.7112 142.672C78.4227 142.926 78.2248 143.268 78.1474 143.644C78.0699 144.021 78.117 144.412 78.2817 144.76C81.9322 152.711 127.355 160.919 132.552 160.919C136.617 160.919 258.528 151.71 268.463 150.909C271.169 144.874 293.63 93.521 281.261 82.1949C276.852 78.1622 268.134 79.8067 255.336 87.0714C238.157 96.853 222.825 98.8408 209.812 93.0061C187.48 82.9958 179.263 53.508 177.774 47.4017L149.015 54.266Z" fill="#444444"/>
<path d="M177.455 45.6771L145 53.0208C145 53.0208 185.05 6.37706 225 13.8068C225 13.8068 186.194 13.0036 177.455 45.6771Z" fill="#0084B2"/>
<path d="M346.91 131.052C346.641 131.054 346.382 130.955 346.182 130.777C345.981 130.598 345.855 130.351 345.826 130.085C338.531 62.2227 287.361 50.2675 286.856 50.1664C286.574 50.1051 286.328 49.9345 286.172 49.6922C286.017 49.4499 285.964 49.1556 286.025 48.8741C286.086 48.5927 286.257 48.3471 286.499 48.1914C286.742 48.0357 287.036 47.9826 287.318 48.0439C287.852 48.1594 340.524 60.4467 347.993 129.854C348.026 130.139 347.943 130.425 347.765 130.65C347.586 130.875 347.325 131.019 347.04 131.052H346.91Z" fill="#444444"/>
<path d="M130 48.9785L146.728 53.0672C146.728 53.0672 223.446 -39.7178 270.111 58.0229C270.111 58.0229 275.094 50.4377 280.665 52.2437C286.236 54.0497 221.78 -54.9605 130 48.9785Z" fill="#00A5EB"/>
<path d="M219.552 5.64358C219.552 5.64358 264.586 17.0294 279.339 52.0207L312 41.4111C312 41.4111 293.275 19.1714 270.637 6.23299C261.872 1.27532 251.78 -0.80596 241.775 0.281313L205 4.03346C205 4.03346 214.119 4.83852 219.552 5.64358Z" fill="#2CC8FF"/>
<path d="M1 128.884L286.756 152.06L430 121.086L154.283 103.041L1 128.884Z" fill="#F9F9F9"/>
<path d="M286.736 153.06H286.65L1.01215 129.95C0.747072 129.935 0.497125 129.821 0.310469 129.632C0.123812 129.443 0.0136463 129.191 0.00118538 128.925C-0.0112755 128.659 0.0748576 128.398 0.242986 128.192C0.411114 127.986 0.649339 127.849 0.911787 127.809L154.146 102.04H154.389L429.992 120.019C430.25 120.039 430.492 120.149 430.676 120.331C430.859 120.512 430.973 120.753 430.996 121.011C431.019 121.271 430.945 121.531 430.789 121.74C430.633 121.95 430.406 122.094 430.15 122.146L286.966 153.032L286.736 153.06ZM9.82857 128.499L286.664 150.89L422.151 121.672L154.375 104.196L9.82857 128.499Z" fill="#444444"/>
<path d="M317.226 201.08C319.292 143.677 326.037 103.587 287.191 54.3082C281.58 47.1904 268.923 53.0859 269.138 62.1019C269.138 64.9059 260.528 173.946 179.966 151.255C146.458 141.779 134.848 88.1575 146.458 54.9984L146.544 54.7396C149.557 46.1982 140.244 41.7981 131.935 47.7655C103.393 68.1844 62.9105 110.129 37.2235 162.571C35.5015 166.08 33.6503 170.609 32 174.219L317.226 201.08Z" fill="#F9F9F9"/>
<path d="M317.233 202.08H317.119L31.9511 175.233C31.7798 175.218 31.6145 175.163 31.4695 175.07C31.3245 174.977 31.2042 174.851 31.1188 174.702C31.0407 174.548 31 174.379 31 174.206C31 174.034 31.0407 173.865 31.1188 173.711C31.7646 172.275 32.439 170.754 33.1278 169.174C34.204 166.734 35.2945 164.207 36.3421 161.996C62.5586 108.459 103.899 66.5657 131.336 46.9686C136.143 43.5373 141.768 43.0491 145.37 45.7626C148.11 47.83 148.943 51.3474 147.594 55.1663L147.493 55.4248C140.146 76.4433 142.385 105.301 152.946 125.616C159.647 138.537 169.104 146.964 180.21 150.108C201.089 155.995 218.954 153.367 233.145 142.327C264.226 118.207 268.015 62.7037 268 62.1868C267.857 56.4441 272.104 52.4242 276.366 50.888C278.353 50.0586 280.554 49.89 282.644 50.407C284.734 50.9239 286.603 52.0992 287.975 53.7594C322.93 98.0504 321.194 135.594 318.998 183.273C318.74 189.016 318.467 194.916 318.238 201.018C318.238 201.163 318.205 201.307 318.143 201.438C318.081 201.57 317.991 201.686 317.879 201.779C317.704 201.95 317.477 202.056 317.233 202.08V202.08ZM33.6587 173.237L316.143 199.812C316.358 194.069 316.616 188.571 316.86 183.187C319.128 134.172 320.749 98.7682 286.296 55.1089C284.201 52.4529 280.771 51.6632 277.112 52.9841C273.683 54.2188 270.052 57.6357 270.167 62.2012C270.167 62.7324 266.364 119.327 234.509 144.035C219.686 155.521 201.232 158.292 179.636 152.205C167.884 148.902 157.983 140.059 150.937 126.635C140.189 105.889 137.865 76.314 145.427 54.7787L145.527 54.5203C146.561 51.6489 146.015 49.0503 144.092 47.5572C141.796 45.8344 137.233 45.4898 132.613 48.7919C105.349 68.2455 64.3379 109.837 38.3079 163.015C37.2748 165.111 36.1842 167.609 35.1367 170.036L33.6587 173.237Z" fill="#444444"/>
<path d="M280 51.1718L311.75 41.0161C311.75 41.0161 370.299 51.6602 430 120.969L316.845 201.08C316.845 201.08 325.366 82.9461 280 51.1718Z" fill="#E8E8E8"/>
<path d="M316.883 202.08C316.697 202.076 316.514 202.027 316.351 201.936C316.174 201.834 316.028 201.685 315.932 201.505C315.835 201.325 315.791 201.121 315.805 200.917C315.891 199.74 323.813 83.2259 279.461 52.1095C279.294 51.9963 279.163 51.8372 279.084 51.6513C279.004 51.4654 278.981 51.2607 279.016 51.0617C279.046 50.8645 279.13 50.6795 279.26 50.5274C279.389 50.3753 279.559 50.2622 279.749 50.2006L311.463 40.0533C311.632 40.0031 311.812 40.0031 311.981 40.0533C312.57 40.1538 371.542 51.5354 430.73 120.284C430.83 120.396 430.906 120.529 430.951 120.672C430.996 120.815 431.01 120.966 430.993 121.116C430.975 121.265 430.926 121.409 430.848 121.537C430.771 121.666 430.667 121.777 430.543 121.863L317.501 201.907C317.317 202.025 317.102 202.085 316.883 202.08ZM282.38 51.6072C323.008 82.8384 319.068 182.043 318.105 198.807L428.329 120.758C371.916 55.7263 316.121 43.0674 311.88 42.1918L282.38 51.6072Z" fill="#444444"/>
<path d="M286.888 153.06C286.643 153.062 286.405 152.979 286.214 152.824C286.023 152.67 285.892 152.453 285.842 152.213C285.782 151.935 285.835 151.644 285.988 151.404C286.141 151.165 286.382 150.996 286.659 150.934L293.668 149.425C293.806 149.396 293.949 149.394 294.088 149.42C294.227 149.446 294.36 149.499 294.478 149.577C294.597 149.654 294.699 149.754 294.779 149.871C294.858 149.988 294.915 150.12 294.944 150.258C294.973 150.397 294.975 150.54 294.949 150.679C294.923 150.819 294.87 150.952 294.792 151.07C294.715 151.189 294.615 151.292 294.499 151.372C294.382 151.452 294.251 151.508 294.112 151.537L287.146 153.046L286.888 153.06ZM279.722 152.529H279.636L272.469 151.954C272.185 151.928 271.922 151.792 271.737 151.574C271.552 151.357 271.46 151.075 271.48 150.79C271.512 150.508 271.65 150.249 271.866 150.065C272.081 149.881 272.358 149.786 272.641 149.798L279.808 150.373C280.093 150.385 280.362 150.509 280.555 150.719C280.749 150.93 280.851 151.208 280.84 151.494C280.828 151.78 280.704 152.05 280.494 152.244C280.285 152.438 280.007 152.54 279.722 152.529V152.529ZM265.388 151.379H265.302L258.135 150.79C257.995 150.781 257.858 150.744 257.733 150.681C257.607 150.618 257.496 150.53 257.405 150.422C257.314 150.315 257.245 150.191 257.203 150.056C257.161 149.922 257.147 149.781 257.161 149.64C257.172 149.499 257.21 149.361 257.275 149.234C257.339 149.107 257.428 148.995 257.535 148.902C257.643 148.81 257.768 148.74 257.903 148.697C258.038 148.653 258.18 148.637 258.322 148.649L265.488 149.224C265.774 149.235 266.042 149.36 266.236 149.57C266.43 149.78 266.532 150.059 266.52 150.345C266.509 150.63 266.385 150.9 266.175 151.094C265.966 151.288 265.688 151.391 265.402 151.379H265.388ZM251.055 150.215H250.969L243.802 149.64C243.661 149.63 243.523 149.591 243.396 149.526C243.27 149.462 243.158 149.373 243.066 149.265C242.974 149.157 242.904 149.031 242.861 148.896C242.817 148.761 242.801 148.618 242.813 148.476C242.838 148.192 242.974 147.928 243.191 147.743C243.409 147.558 243.689 147.465 243.974 147.485L251.141 148.074C251.403 148.113 251.641 148.248 251.81 148.453C251.979 148.658 252.066 148.918 252.056 149.183C252.045 149.449 251.937 149.701 251.752 149.891C251.567 150.082 251.319 150.197 251.055 150.215V150.215ZM300.778 150.043C300.534 150.039 300.298 149.954 300.108 149.8C299.918 149.646 299.786 149.433 299.731 149.195C299.7 149.056 299.696 148.912 299.722 148.772C299.747 148.632 299.799 148.498 299.877 148.379C299.955 148.26 300.055 148.157 300.173 148.078C300.291 147.998 300.423 147.943 300.563 147.916L307.557 146.407C307.836 146.347 308.128 146.399 308.369 146.552C308.611 146.705 308.782 146.947 308.847 147.226C308.877 147.365 308.879 147.508 308.853 147.648C308.827 147.787 308.774 147.92 308.696 148.039C308.619 148.157 308.519 148.26 308.403 148.34C308.286 148.42 308.154 148.476 308.016 148.505L301.007 149.942C300.973 149.981 300.935 150.014 300.892 150.043H300.778ZM236.764 149.066H236.678L229.511 148.491C229.227 148.465 228.965 148.329 228.78 148.111C228.595 147.894 228.502 147.612 228.522 147.327C228.532 147.172 228.574 147.021 228.646 146.884C228.718 146.747 228.819 146.627 228.941 146.532C229.063 146.437 229.204 146.369 229.354 146.332C229.504 146.296 229.661 146.292 229.812 146.321L236.979 146.896C237.264 146.907 237.533 147.032 237.727 147.242C237.92 147.452 238.023 147.731 238.011 148.017C238 148.302 237.876 148.572 237.666 148.766C237.456 148.96 237.178 149.063 236.893 149.051L236.764 149.066ZM222.431 147.916H222.345L215.178 147.341C215.037 147.33 214.899 147.291 214.772 147.227C214.646 147.163 214.534 147.074 214.442 146.965C214.35 146.857 214.28 146.732 214.237 146.597C214.193 146.461 214.177 146.319 214.189 146.177C214.218 145.895 214.355 145.635 214.572 145.453C214.789 145.271 215.068 145.18 215.35 145.2L222.517 145.775C222.657 145.786 222.795 145.825 222.92 145.889C223.046 145.954 223.157 146.043 223.248 146.151C223.339 146.26 223.407 146.385 223.449 146.521C223.491 146.656 223.505 146.798 223.491 146.939C223.475 147.172 223.383 147.393 223.231 147.569C223.078 147.745 222.873 147.867 222.646 147.916H222.431ZM314.738 147.025C314.476 147.021 314.225 146.921 314.031 146.744C313.837 146.567 313.714 146.325 313.686 146.063C313.658 145.802 313.726 145.539 313.878 145.325C314.029 145.11 314.254 144.958 314.509 144.898L321.69 143.447C321.97 143.386 322.262 143.439 322.502 143.594C322.743 143.749 322.912 143.993 322.973 144.273C323.034 144.553 322.981 144.846 322.827 145.087C322.672 145.329 322.428 145.498 322.149 145.559L315.14 147.068L314.738 147.025ZM208.312 146.752H208.226L201.059 146.177C200.777 146.152 200.515 146.015 200.333 145.797C200.15 145.579 200.061 145.297 200.085 145.013C200.11 144.728 200.246 144.465 200.463 144.28C200.68 144.094 200.961 144.002 201.246 144.022L208.412 144.597C208.698 144.608 208.966 144.732 209.16 144.943C209.354 145.153 209.456 145.432 209.444 145.717C209.433 146.003 209.309 146.273 209.099 146.467C208.89 146.661 208.612 146.763 208.326 146.752H208.312ZM193.979 145.602L186.812 145.028C186.671 145.017 186.533 144.978 186.406 144.913C186.28 144.849 186.168 144.76 186.076 144.652C185.984 144.544 185.914 144.418 185.871 144.283C185.827 144.148 185.811 144.005 185.823 143.864C185.834 143.722 185.872 143.585 185.937 143.459C186.001 143.333 186.09 143.221 186.198 143.13C186.307 143.039 186.432 142.971 186.567 142.929C186.702 142.887 186.843 142.873 186.984 142.886L194.151 143.461C194.436 143.473 194.705 143.597 194.898 143.807C195.092 144.018 195.194 144.296 195.183 144.582C195.171 144.868 195.047 145.138 194.837 145.332C194.628 145.526 194.35 145.628 194.065 145.617L193.979 145.602ZM179.645 144.438L172.478 143.864C172.193 143.841 171.929 143.705 171.743 143.487C171.558 143.269 171.467 142.985 171.489 142.7C171.512 142.414 171.647 142.149 171.865 141.963C172.083 141.777 172.365 141.685 172.65 141.708L179.817 142.297C180.079 142.337 180.318 142.472 180.486 142.676C180.655 142.881 180.743 143.141 180.732 143.407C180.722 143.672 180.613 143.924 180.429 144.115C180.244 144.305 179.996 144.42 179.731 144.438H179.645ZM328.843 144.007C328.594 144.006 328.354 143.92 328.161 143.764C327.968 143.607 327.834 143.389 327.782 143.145C327.73 142.866 327.788 142.577 327.942 142.339C328.097 142.101 328.337 141.932 328.613 141.866L335.622 140.357C335.761 140.328 335.903 140.326 336.042 140.352C336.181 140.379 336.314 140.432 336.432 140.509C336.551 140.587 336.653 140.687 336.733 140.804C336.813 140.921 336.869 141.052 336.898 141.191C336.927 141.329 336.929 141.473 336.903 141.612C336.877 141.751 336.824 141.884 336.747 142.003C336.669 142.122 336.57 142.224 336.453 142.304C336.336 142.384 336.205 142.44 336.067 142.47L329.072 143.979L328.843 144.007ZM165.441 143.289H165.312L158.145 142.7C157.862 142.678 157.599 142.544 157.414 142.329C157.229 142.114 157.136 141.834 157.156 141.55C157.181 141.265 157.317 141.002 157.534 140.817C157.752 140.631 158.032 140.539 158.317 140.559L165.484 141.133C165.769 141.145 166.038 141.269 166.231 141.479C166.425 141.69 166.527 141.968 166.516 142.254C166.504 142.54 166.38 142.81 166.17 143.004C165.961 143.198 165.683 143.3 165.398 143.289H165.441ZM151.107 142.125H151.021L143.854 141.55C143.588 141.506 143.348 141.363 143.182 141.15C143.016 140.937 142.936 140.67 142.958 140.4C142.979 140.131 143.101 139.879 143.299 139.696C143.497 139.512 143.757 139.41 144.026 139.409L151.193 139.984C151.455 140.023 151.694 140.158 151.862 140.363C152.031 140.567 152.119 140.828 152.108 141.093C152.098 141.358 151.989 141.611 151.805 141.801C151.62 141.991 151.372 142.107 151.107 142.125V142.125ZM342.875 140.975C342.614 140.968 342.364 140.866 342.173 140.687C341.982 140.509 341.862 140.267 341.835 140.007C341.809 139.746 341.878 139.485 342.03 139.272C342.182 139.059 342.406 138.908 342.66 138.848L349.655 137.34C349.797 137.296 349.947 137.281 350.095 137.298C350.242 137.315 350.385 137.363 350.514 137.438C350.642 137.513 350.754 137.614 350.842 137.735C350.929 137.855 350.991 137.993 351.023 138.138C351.055 138.284 351.056 138.435 351.027 138.581C350.997 138.727 350.938 138.866 350.853 138.988C350.767 139.11 350.657 139.213 350.53 139.291C350.403 139.368 350.261 139.418 350.113 139.438L343.104 140.961L342.875 140.975ZM136.817 140.975H136.731L129.564 140.4C129.423 140.389 129.285 140.35 129.159 140.285C129.033 140.221 128.921 140.132 128.829 140.024C128.737 139.916 128.667 139.791 128.624 139.655C128.58 139.52 128.564 139.378 128.575 139.236C128.586 139.095 128.625 138.957 128.69 138.831C128.754 138.704 128.843 138.592 128.951 138.5C129.058 138.408 129.183 138.338 129.318 138.294C129.453 138.25 129.595 138.234 129.736 138.245L136.903 138.82C137.187 138.845 137.449 138.982 137.634 139.199C137.819 139.417 137.912 139.699 137.892 139.984C137.871 140.245 137.757 140.489 137.569 140.672C137.382 140.854 137.135 140.962 136.874 140.975H136.817ZM122.483 139.826H122.397L115.23 139.251C115.089 139.24 114.951 139.201 114.825 139.137C114.699 139.072 114.586 138.983 114.494 138.875C114.402 138.767 114.333 138.642 114.289 138.506C114.246 138.371 114.23 138.228 114.241 138.087C114.252 137.946 114.291 137.808 114.355 137.682C114.42 137.556 114.509 137.445 114.617 137.354C114.725 137.263 114.85 137.194 114.985 137.152C115.12 137.11 115.262 137.096 115.402 137.11L122.569 137.685C122.854 137.696 123.123 137.82 123.317 138.031C123.51 138.241 123.613 138.52 123.601 138.805C123.59 139.091 123.466 139.361 123.256 139.555C123.046 139.749 122.768 139.851 122.483 139.84V139.826ZM108.15 138.662H108.049L100.883 138.087C100.741 138.076 100.604 138.036 100.478 137.972C100.352 137.907 100.239 137.818 100.148 137.71C100.056 137.602 99.9861 137.477 99.9425 137.342C99.8989 137.207 99.8823 137.064 99.8936 136.923C99.9049 136.781 99.9439 136.643 100.008 136.517C100.073 136.391 100.161 136.278 100.269 136.186C100.377 136.094 100.502 136.024 100.637 135.98C100.771 135.937 100.913 135.92 101.055 135.931L108.221 136.506C108.506 136.518 108.775 136.642 108.969 136.852C109.162 137.063 109.265 137.341 109.253 137.627C109.242 137.913 109.118 138.182 108.908 138.376C108.698 138.571 108.42 138.673 108.135 138.662H108.15ZM356.793 137.958C356.531 137.953 356.279 137.853 356.085 137.676C355.891 137.499 355.769 137.257 355.741 136.996C355.713 136.734 355.781 136.472 355.932 136.257C356.084 136.043 356.308 135.891 356.564 135.831L363.573 134.308C363.711 134.277 363.854 134.275 363.993 134.3C364.133 134.325 364.266 134.378 364.385 134.454C364.504 134.531 364.607 134.631 364.687 134.747C364.768 134.864 364.825 134.995 364.855 135.134C364.886 135.273 364.888 135.416 364.863 135.556C364.838 135.695 364.786 135.829 364.709 135.948C364.633 136.067 364.533 136.171 364.417 136.252C364.301 136.333 364.17 136.39 364.031 136.42L357.022 137.857L356.793 137.958ZM93.8592 137.512H93.7732L86.6064 136.923C86.4663 136.914 86.3294 136.877 86.2038 136.814C86.0783 136.751 85.9668 136.663 85.8758 136.555C85.7849 136.448 85.7164 136.324 85.6745 136.189C85.6325 136.055 85.618 135.913 85.6318 135.773C85.6408 135.632 85.6778 135.494 85.7406 135.368C85.8034 135.241 85.8907 135.129 85.9975 135.036C86.1043 134.944 86.2283 134.874 86.3624 134.83C86.4965 134.786 86.6379 134.77 86.7784 134.782L93.9452 135.357C94.2292 135.382 94.4918 135.518 94.6768 135.736C94.8617 135.954 94.9541 136.235 94.9342 136.521C94.9122 136.764 94.8102 136.994 94.6442 137.173C94.4782 137.353 94.2576 137.472 94.0168 137.512H93.8592ZM79.5257 136.348H79.4397L72.2729 135.773C72.1309 135.764 71.9921 135.727 71.8649 135.663C71.7376 135.599 71.6245 135.51 71.5322 135.402C71.4399 135.293 71.3704 135.167 71.3277 135.031C71.2851 134.895 71.2702 134.751 71.2839 134.609C71.2948 134.468 71.3335 134.329 71.3978 134.203C71.4621 134.076 71.5508 133.964 71.6587 133.871C71.7666 133.779 71.8916 133.709 72.0266 133.666C72.1615 133.622 72.3037 133.606 72.4449 133.618L79.6117 134.207C79.8738 134.246 80.1121 134.381 80.281 134.586C80.4499 134.791 80.5374 135.051 80.5267 135.316C80.516 135.582 80.408 135.834 80.2232 136.024C80.0385 136.215 79.79 136.33 79.5257 136.348ZM65.1922 135.198H65.1062L57.9394 134.624C57.7983 134.612 57.6607 134.573 57.5346 134.509C57.4085 134.444 57.2963 134.355 57.2045 134.247C57.1126 134.139 57.0429 134.014 56.9993 133.879C56.9558 133.744 56.9391 133.601 56.9504 133.46C56.9617 133.318 57.0007 133.18 57.0652 133.054C57.1296 132.927 57.2183 132.815 57.3261 132.723C57.4339 132.631 57.5588 132.561 57.6935 132.517C57.8283 132.474 57.9703 132.457 58.1114 132.468L65.2782 133.043C65.5633 133.054 65.8322 133.179 66.0257 133.389C66.2193 133.599 66.3216 133.878 66.3102 134.164C66.2988 134.45 66.1746 134.719 65.9649 134.913C65.7553 135.107 65.4773 135.21 65.1922 135.198V135.198ZM370.725 134.94C370.449 134.957 370.176 134.867 369.964 134.688C369.752 134.509 369.618 134.255 369.588 133.979C369.559 133.703 369.636 133.426 369.806 133.206C369.975 132.986 370.222 132.84 370.496 132.799L377.505 131.29C377.643 131.261 377.786 131.259 377.925 131.285C378.064 131.311 378.196 131.364 378.315 131.442C378.433 131.519 378.535 131.619 378.615 131.736C378.695 131.853 378.751 131.985 378.78 132.123C378.81 132.262 378.811 132.405 378.785 132.544C378.759 132.684 378.706 132.817 378.629 132.935C378.552 133.054 378.452 133.156 378.335 133.237C378.219 133.317 378.087 133.373 377.949 133.402L370.954 134.911L370.725 134.94ZM50.916 134.049H50.8157L43.6489 133.474C43.5003 133.474 43.3531 133.444 43.2168 133.384C43.0804 133.325 42.9579 133.238 42.8569 133.128C42.7559 133.019 42.6787 132.89 42.6301 132.749C42.5815 132.608 42.5625 132.458 42.5745 132.31C42.5864 132.161 42.6289 132.017 42.6994 131.885C42.7699 131.754 42.8668 131.639 42.9839 131.547C43.1011 131.455 43.236 131.389 43.38 131.352C43.5241 131.315 43.6742 131.309 43.8209 131.333L50.9877 131.908C51.1285 131.919 51.2657 131.957 51.3913 132.022C51.5169 132.087 51.6283 132.176 51.7191 132.284C51.8099 132.393 51.8782 132.518 51.9199 132.653C51.9617 132.789 51.9761 132.931 51.9624 133.072C51.9485 133.299 51.8634 133.515 51.7192 133.691C51.575 133.866 51.3792 133.992 51.1597 134.049H50.916ZM36.5825 132.885H36.4965L29.3298 132.31C29.0447 132.287 28.7803 132.152 28.5948 131.933C28.4093 131.715 28.318 131.432 28.3408 131.146C28.3636 130.86 28.4987 130.595 28.7164 130.409C28.9342 130.223 29.2167 130.132 29.5018 130.155L36.6685 130.729C36.9536 130.741 37.2225 130.865 37.4161 131.076C37.6096 131.286 37.7119 131.564 37.7005 131.85C37.6891 132.136 37.5649 132.406 37.3553 132.6C37.1456 132.794 36.8676 132.896 36.5825 132.885V132.885ZM384.973 131.951C384.711 131.944 384.462 131.841 384.271 131.663C384.079 131.485 383.959 131.243 383.933 130.982C383.906 130.722 383.976 130.46 384.127 130.247C384.279 130.034 384.503 129.884 384.758 129.824L391.752 128.315C391.89 128.284 392.032 128.28 392.171 128.304C392.31 128.328 392.443 128.38 392.562 128.456C392.68 128.532 392.783 128.632 392.863 128.748C392.943 128.865 392.999 128.996 393.028 129.134C393.088 129.414 393.036 129.707 392.883 129.949C392.73 130.19 392.489 130.362 392.211 130.428L385.202 131.951H384.973ZM22.5787 131.778H22.4927L15.3259 131.204C15.1728 131.21 15.0201 131.183 14.8781 131.125C14.7362 131.067 14.6082 130.979 14.5029 130.868C14.3975 130.756 14.3171 130.623 14.2672 130.478C14.2173 130.332 14.1989 130.178 14.2134 130.025C14.2278 129.872 14.2747 129.724 14.3509 129.591C14.4271 129.457 14.5309 129.342 14.6553 129.252C14.7797 129.162 14.9217 129.1 15.072 129.07C15.2223 129.04 15.3773 129.042 15.5266 129.077L22.6934 129.652C22.9785 129.663 23.2474 129.788 23.4409 129.998C23.6345 130.208 23.7368 130.487 23.7254 130.772C23.714 131.058 23.5898 131.328 23.3801 131.522C23.1704 131.716 22.8925 131.819 22.6074 131.807L22.5787 131.778ZM8.2452 130.614H8.1592L0.992452 130.04C0.707341 130.017 0.442968 129.881 0.257493 129.663C0.0720171 129.445 -0.0193718 129.162 0.00343703 128.876C0.0262459 128.59 0.161386 128.325 0.379118 128.139C0.596851 127.953 0.879347 127.861 1.16446 127.884L8.33121 128.473C8.59327 128.513 8.83162 128.648 9.0005 128.852C9.16937 129.057 9.25687 129.317 9.24621 129.583C9.23555 129.848 9.12747 130.1 8.94272 130.291C8.75798 130.481 8.50957 130.596 8.2452 130.614V130.614ZM398.948 128.89C398.685 128.886 398.434 128.786 398.24 128.609C398.046 128.432 397.924 128.19 397.896 127.928C397.867 127.667 397.936 127.404 398.087 127.19C398.239 126.975 398.463 126.823 398.718 126.763L405.727 125.326C405.995 125.291 406.265 125.357 406.486 125.512C406.706 125.668 406.861 125.9 406.918 126.164C406.976 126.428 406.933 126.704 406.797 126.937C406.662 127.171 406.443 127.344 406.186 127.424L399.177 128.861C399.103 128.884 399.025 128.894 398.948 128.89V128.89ZM412.966 125.872C412.689 125.89 412.417 125.8 412.205 125.621C411.993 125.442 411.859 125.188 411.829 124.912C411.799 124.636 411.877 124.359 412.046 124.139C412.215 123.919 412.463 123.773 412.736 123.731L419.746 122.222C420.025 122.163 420.316 122.218 420.556 122.374C420.795 122.53 420.962 122.776 421.021 123.056C421.08 123.336 421.026 123.628 420.87 123.868C420.714 124.108 420.469 124.276 420.19 124.335L413.281 125.844L412.966 125.872ZM426.97 122.84C426.707 122.836 426.456 122.736 426.262 122.559C426.068 122.382 425.946 122.14 425.918 121.878C425.889 121.617 425.957 121.354 426.109 121.14C426.261 120.925 426.485 120.774 426.74 120.713L429.607 120.096C429.749 120.051 429.899 120.037 430.047 120.054C430.195 120.071 430.337 120.119 430.466 120.194C430.595 120.269 430.706 120.37 430.794 120.491C430.881 120.611 430.943 120.749 430.975 120.894C431.007 121.04 431.008 121.191 430.979 121.337C430.95 121.483 430.89 121.622 430.805 121.744C430.719 121.866 430.61 121.969 430.482 122.047C430.355 122.124 430.213 122.174 430.066 122.194L427.199 122.826L426.97 122.84Z" fill="#444444"/>
</svg>
