<svg width="434" height="563" viewBox="0 0 434 563" fill="none" xmlns="http://www.w3.org/2000/svg">
<path d="M113 234.706L2.31486 368L1 209.537L111.685 145L113 234.706Z" fill="#CCCCCC"/>
<path d="M2.30198 368.986C2.18879 369.005 2.07319 369.005 1.95999 368.986C1.77265 368.914 1.61103 368.788 1.4961 368.624C1.38117 368.459 1.31824 368.264 1.31549 368.063L0.000155716 209.608C-0.00295104 209.433 0.0404801 209.26 0.125997 209.107C0.211513 208.955 0.336045 208.827 0.486832 208.738L111.211 144.138C111.359 144.05 111.527 144.002 111.698 144C111.87 143.998 112.039 144.041 112.188 144.125C112.338 144.21 112.463 144.332 112.55 144.48C112.637 144.628 112.683 144.797 112.685 144.969L114 234.684C114.004 234.921 113.92 235.152 113.763 235.33L3.05172 368.63C2.95946 368.739 2.84478 368.828 2.71543 368.889C2.58609 368.951 2.44509 368.984 2.30198 368.986V368.986ZM1.97315 210.109L3.28848 365.294L112.053 234.367L110.738 146.709L1.97315 210.109Z" fill="#444444"/>
<path d="M367 458L111 428.491L112.318 145L365.682 160.922L367 458Z" fill="#CCCCCC"/>
<path d="M367.012 459H366.893L110.87 429.49C110.63 429.458 110.41 429.34 110.25 429.158C110.09 428.976 110.001 428.743 110 428.5L111.318 144.98C111.32 144.846 111.349 144.714 111.403 144.591C111.457 144.469 111.536 144.359 111.634 144.268C111.731 144.173 111.847 144.1 111.974 144.055C112.102 144.009 112.238 143.992 112.372 144.004L365.759 159.926C366.01 159.943 366.245 160.055 366.416 160.238C366.588 160.422 366.683 160.664 366.682 160.916L368 458.011C368 458.15 367.971 458.288 367.914 458.415C367.857 458.543 367.774 458.656 367.671 458.749C367.487 458.908 367.254 458.997 367.012 459V459ZM111.99 427.616L366.01 456.903L364.692 161.839L113.295 146.009L111.99 427.616Z" fill="#444444"/>
<path d="M118.415 147L112 150.772V154L123 147.239L118.415 147Z" fill="#BFBFBF"/>
<path d="M136.678 148L111 165.759V169L141 148.239L136.678 148Z" fill="#BFBFBF"/>
<path d="M154.692 149L111 178.822V182L159 149.247L154.692 149Z" fill="#BFBFBF"/>
<path d="M172.717 150L111 192.793V196L177 150.238L172.717 150Z" fill="#BFBFBF"/>
<path d="M190.724 151L111 206.758V210L195 151.239L190.724 151Z" fill="#BFBFBF"/>
<path d="M208.728 152L111 219.788V223L213 152.25L208.728 152Z" fill="#BFBFBF"/>
<path d="M226.731 153L111 233.77V237L231 153.238L226.731 153Z" fill="#BFBFBF"/>
<path d="M244.733 154L111 246.791V250L249 154.25L244.733 154Z" fill="#BFBFBF"/>
<path d="M262.735 155L111 260.777V264L267 155.251L262.735 155Z" fill="#BFBFBF"/>
<path d="M280.736 156L111 274.766V278L285 156.239L280.736 156Z" fill="#BFBFBF"/>
<path d="M298.738 157L111 287.794V291L303 157.251L298.738 157Z" fill="#BFBFBF"/>
<path d="M316.739 158L111 301.772V305L321 158.238L316.739 158Z" fill="#BFBFBF"/>
<path d="M334.739 159L111 315.764V319L339 159.252L334.739 159Z" fill="#BFBFBF"/>
<path d="M352.74 160L111 328.789V332L357 160.251L352.74 160Z" fill="#BFBFBF"/>
<path d="M366 165L111 342.779V346L366 168.208V165Z" fill="#BFBFBF"/>
<path d="M366 178L111 355.779V359L366 181.221V178Z" fill="#BFBFBF"/>
<path d="M366 192L111 369.792V373L366 195.221V192Z" fill="#BFBFBF"/>
<path d="M366 206L111 383.779V387L366 209.221V206Z" fill="#BFBFBF"/>
<path d="M366 219L111 396.779V400L366 222.208V219Z" fill="#BFBFBF"/>
<path d="M366 233L111 410.792V414L366 236.221V233Z" fill="#BFBFBF"/>
<path d="M366 246L111 423.779V427L366 249.221V246Z" fill="#BFBFBF"/>
<path d="M366 260L122 430.406L125.767 431L366 263.208V260Z" fill="#BFBFBF"/>
<path d="M366 274L138 433.419L141.805 434L366 277.25V274Z" fill="#BFBFBF"/>
<path d="M366 287L154 435.405L157.804 436L366 290.253V287Z" fill="#BFBFBF"/>
<path d="M366 301L170 437.422L173.764 438L366 304.207V301Z" fill="#BFBFBF"/>
<path d="M366 314L186 440.403L189.749 441L366 317.221V314Z" fill="#BFBFBF"/>
<path d="M366 328L202 442.421L205.76 443L366 331.212V328Z" fill="#BFBFBF"/>
<path d="M366 342L218 445.407L221.758 446L366 345.215V342Z" fill="#BFBFBF"/>
<path d="M366 355L234 447.419L237.756 448L366 358.206V355Z" fill="#BFBFBF"/>
<path d="M366 369L250 450.419L253.753 451L366 372.225V369Z" fill="#BFBFBF"/>
<path d="M366 383L266 452.425L269.749 453L366 386.186V383Z" fill="#BFBFBF"/>
<path d="M366 396L282 455.416L285.743 456L366 399.228V396Z" fill="#BFBFBF"/>
<path d="M366 410L298 457.412L301.734 458L366 413.188V410Z" fill="#BFBFBF"/>
<path d="M366 423L313 460.409L316.792 461L366 426.276V423Z" fill="#BFBFBF"/>
<path d="M366 437L329 462.411L332.798 463L366 440.181V437Z" fill="#BFBFBF"/>
<path d="M366 451L345 465.422L348.813 466L366 454.205V451Z" fill="#BFBFBF"/>
<path d="M368 458.264V455L363 458.411L366.918 459L368 458.264Z" fill="#BFBFBF"/>
<path d="M367.012 459H366.893L110.87 429.49C110.63 429.458 110.41 429.34 110.25 429.158C110.09 428.976 110.001 428.743 110 428.5L111.318 144.98C111.32 144.846 111.349 144.714 111.403 144.591C111.457 144.469 111.536 144.359 111.634 144.268C111.731 144.173 111.847 144.1 111.974 144.055C112.102 144.009 112.238 143.992 112.372 144.004L365.759 159.926C366.01 159.943 366.245 160.055 366.416 160.238C366.588 160.422 366.683 160.664 366.682 160.916L368 458.011C368 458.15 367.971 458.288 367.914 458.415C367.857 458.543 367.774 458.656 367.671 458.749C367.487 458.908 367.254 458.997 367.012 459V459ZM111.99 427.616L366.01 456.903L364.692 161.839L113.295 146.009L111.99 427.616Z" fill="#444444"/>
<path d="M281.409 82.9906C279.477 82.9893 277.602 82.3337 276.086 81.1298C274.571 79.926 273.505 78.2442 273.059 76.3562C269.571 61.7606 255.038 22.6575 230.054 17.7878C208.334 13.5418 180.153 34.8382 148.59 79.3683C147.937 80.2926 147.108 81.0784 146.152 81.6809C145.196 82.2834 144.131 82.6907 143.018 82.8795C141.905 83.0683 140.766 83.0349 139.666 82.7813C138.566 82.5276 137.526 82.0586 136.607 81.4011C135.687 80.7436 134.906 79.9106 134.307 78.9496C133.709 77.9886 133.305 76.9184 133.118 75.8004C132.932 74.6825 132.966 73.5385 133.22 72.434C133.474 71.3295 133.943 70.2862 134.599 69.3636C170.958 18.1726 204.133 -4.87523 233.37 0.85688C274.327 8.88449 289.164 69.8545 289.772 72.3756C290.068 73.6427 290.076 74.9607 289.794 76.2312C289.512 77.5017 288.948 78.6918 288.144 79.7125C287.34 80.7333 286.316 81.5583 285.15 82.126C283.984 82.6936 282.705 82.9892 281.409 82.9906V82.9906Z" fill="#4FA3E8"/>
<path d="M139.085 62.8125C140.814 61.3918 147.006 56.3594 148.867 54.9652C149.627 54.4005 150.502 54.0107 151.428 53.8232C153.753 53.3634 156.163 53.6466 158.32 54.6332C160.524 55.6423 162.795 56.2797 162.122 59.1743C162.128 59.2094 162.128 59.2454 162.122 59.2805C161.805 60.5154 161.567 61.4847 161.462 61.9362C151.996 102.434 167.996 149.253 196.644 147.301C206.77 146.611 218.229 140.051 229.292 129.92C233.584 125.939 237.619 121.685 241.372 117.186C255.089 100.961 267.089 80.1936 273.571 59.9843C274.608 57.5759 276.416 55.5851 278.707 54.3278C279.43 53.845 280.18 53.4017 280.951 53C283.638 53.4738 286.205 54.4803 288.502 55.961C309.163 69.9694 362.538 149.904 367 162L240.989 155.361L78 146.996C78 146.996 99.4265 95.4899 139.085 62.8125Z" fill="#E8E8E8"/>
<path d="M367.004 163L240.951 156.362L77.9068 147.997C77.7473 147.99 77.5919 147.943 77.4539 147.863C77.3159 147.782 77.1995 147.668 77.1144 147.532C77.0393 147.392 77 147.234 77 147.074C77 146.914 77.0393 146.757 77.1144 146.616C77.3257 146.098 99.0632 94.3716 138.457 61.9227C140.161 60.5951 146.381 55.4702 148.27 54.0628C149.144 53.411 150.149 52.958 151.215 52.7351C153.752 52.2235 156.385 52.5254 158.742 53.5981L159.376 53.8902C161.383 54.7665 163.893 55.8685 163.1 59.2806C162.77 60.6083 162.532 61.5908 162.427 62.0157C156.14 88.8882 161.291 119.903 174.669 135.756C180.876 143.111 188.469 146.709 196.591 146.152C206.007 145.514 217.1 139.593 228.643 129.038C232.926 125.092 236.953 120.874 240.7 116.411C254.672 99.8284 266.386 79.1562 272.593 59.6258C273.695 56.9938 275.65 54.8135 278.14 53.4388C278.813 53.0139 279.579 52.5758 280.477 52.1111C280.672 52.0084 280.895 51.9756 281.111 52.0182C283.932 52.5205 286.625 53.581 289.035 55.1382C309.98 69.3313 363.174 148.754 367.942 161.646C367.996 161.802 368.013 161.969 367.99 162.133C367.967 162.297 367.905 162.453 367.81 162.588C367.717 162.716 367.596 162.819 367.456 162.891C367.316 162.962 367.161 162.999 367.004 163V163ZM79.3859 146.152L241.004 154.436L365.433 160.929C357.971 144.758 307.246 69.9287 287.873 56.8111C285.788 55.4542 283.46 54.5206 281.018 54.0628C280.38 54.3845 279.759 54.739 279.156 55.125C277.065 56.261 275.404 58.0572 274.429 60.2366C268.103 79.9528 256.296 100.917 242.034 117.779C238.229 122.3 234.145 126.574 229.805 130.578C217.919 141.438 206.43 147.546 196.552 148.21C187.756 148.807 179.621 144.97 172.992 137.11C159.019 120.554 153.803 89.5122 160.327 61.6307C160.432 61.1925 160.683 60.2233 160.987 58.9753C161.383 57.2493 160.644 56.758 158.412 55.7755L157.752 55.4834C155.788 54.5891 153.596 54.3293 151.479 54.7399C150.692 54.9044 149.95 55.2348 149.3 55.7091C147.477 57.1165 141.231 62.1352 139.54 63.5293C104.068 92.7916 83.0308 137.933 79.3859 146.152Z" fill="#444444"/>
<path d="M158.44 55.4996C158.014 55.3068 157.576 55.14 157.13 55L123.484 78.5464C120.863 81.3248 118.368 84.1427 116 87L160 56.1832C159.45 55.8808 158.965 55.6705 158.44 55.4996Z" fill="#BFBFBF"/>
<path d="M161 66L99.7786 109.116C98.462 111.108 97.2025 113.07 96 115L160.342 69.7059C160.539 68.4573 160.75 67.222 161 66Z" fill="#BFBFBF"/>
<path d="M159 81L85.6393 131.983C84.676 133.782 83.805 135.463 83 137L158.855 84.3096C158.908 83.1932 158.947 82.0769 159 81Z" fill="#BFBFBF"/>
<path d="M158.686 94L83 147.774L87.2535 148L159 97.0636C158.843 96.1046 158.764 95.0257 158.686 94Z" fill="#BFBFBF"/>
<path d="M160.358 107L101 148.776L105.259 149L161 109.839C160.777 108.875 160.581 107.951 160.358 107Z" fill="#BFBFBF"/>
<path d="M164.056 118L119 149.785L123.321 150L165 120.606C164.668 119.746 164.362 118.873 164.056 118Z" fill="#BFBFBF"/>
<path d="M168.645 129L137 150.788L141.36 151L170 131.289C169.544 130.548 169.088 129.754 168.645 129Z" fill="#BFBFBF"/>
<path d="M289.869 58L269.987 71.5351C269.346 73.0276 268.68 74.5202 268 76L292 59.6456C291.268 59.0461 290.549 58.4975 289.869 58Z" fill="#BFBFBF"/>
<path d="M175.173 138L156 151.772L160.242 152L177 139.908C176.387 139.33 175.773 138.685 175.173 138Z" fill="#BFBFBF"/>
<path d="M298.152 65L259.381 92.3917C258.28 94.2744 257.153 96.1571 256 98L300 66.9225L298.152 65Z" fill="#BFBFBF"/>
<path d="M174 151.79L178.2 152L187 146.134C186.04 145.815 185.103 145.436 184.196 145L174 151.79Z" fill="#BFBFBF"/>
<path d="M306.261 74L239.883 119.969C236.773 123.487 233.474 126.835 230 130L308 75.9748L306.261 74Z" fill="#BFBFBF"/>
<path d="M192 152.801L196.305 153L210 144C207.103 145.31 204.054 146.299 200.914 146.946L192 152.801Z" fill="#BFBFBF"/>
<path d="M313.309 82L210 153.79L214.307 154L315 84.0387C314.432 83.3548 313.877 82.6708 313.309 82Z" fill="#BFBFBF"/>
<path d="M320.358 91L228 154.777L232.317 155L322 93.0569C321.457 92.3625 320.914 91.6813 320.358 91Z" fill="#BFBFBF"/>
<path d="M327.428 100L246 155.83L250.396 156L329 102.093C328.547 101.387 328.001 100.693 327.428 100Z" fill="#BFBFBF"/>
<path d="M333.441 108L265 156.826L269.323 157L335 110.142C334.489 109.433 333.965 108.71 333.441 108Z" fill="#BFBFBF"/>
<path d="M340.447 118L283 157.829L287.38 158L342 120.136L340.447 118Z" fill="#BFBFBF"/>
<path d="M346.504 127L302 157.819L306.28 158L348 129.117L346.504 127Z" fill="#BFBFBF"/>
<path d="M353.515 136L320 158.817L324.413 159L355 138.115C354.519 137.462 354.01 136.731 353.515 136Z" fill="#BFBFBF"/>
<path d="M359.589 145L339 159.825L343.311 160L361 147.264L359.589 145Z" fill="#BFBFBF"/>
<path d="M365.633 155L357 160.827L361.544 161L367 157.333C366.599 156.613 366.144 155.84 365.633 155Z" fill="#BFBFBF"/>
<path d="M367.004 163L240.951 156.362L77.9068 147.997C77.7473 147.99 77.5919 147.943 77.4539 147.863C77.3159 147.782 77.1995 147.668 77.1144 147.532C77.0393 147.392 77 147.234 77 147.074C77 146.914 77.0393 146.757 77.1144 146.616C77.3257 146.098 99.0632 94.3716 138.457 61.9227C140.161 60.5951 146.381 55.4702 148.27 54.0628C149.144 53.411 150.149 52.958 151.215 52.7351C153.752 52.2235 156.385 52.5254 158.742 53.5981L159.376 53.8902C161.383 54.7665 163.893 55.8685 163.1 59.2806C162.77 60.6083 162.532 61.5908 162.427 62.0157C156.14 88.8882 161.291 119.903 174.669 135.756C180.876 143.111 188.469 146.709 196.591 146.152C206.007 145.514 217.1 139.593 228.643 129.038C232.926 125.092 236.953 120.874 240.7 116.411C254.672 99.8284 266.386 79.1562 272.593 59.6258C273.695 56.9938 275.65 54.8135 278.14 53.4388C278.813 53.0139 279.579 52.5758 280.477 52.1111C280.672 52.0084 280.895 51.9756 281.111 52.0182C283.932 52.5205 286.625 53.581 289.035 55.1382C309.98 69.3313 363.174 148.754 367.942 161.646C367.996 161.802 368.013 161.969 367.99 162.133C367.967 162.297 367.905 162.453 367.81 162.588C367.717 162.716 367.596 162.819 367.456 162.891C367.316 162.962 367.161 162.999 367.004 163V163ZM79.3859 146.152L241.004 154.436L365.433 160.929C357.971 144.758 307.246 69.9287 287.873 56.8111C285.788 55.4542 283.46 54.5206 281.018 54.0628C280.38 54.3845 279.759 54.739 279.156 55.125C277.065 56.261 275.404 58.0572 274.429 60.2366C268.103 79.9528 256.296 100.917 242.034 117.779C238.229 122.3 234.145 126.574 229.805 130.578C217.919 141.438 206.43 147.546 196.552 148.21C187.756 148.807 179.621 144.97 172.992 137.11C159.019 120.554 153.803 89.5122 160.327 61.6307C160.432 61.1925 160.683 60.2233 160.987 58.9753C161.383 57.2493 160.644 56.758 158.412 55.7755L157.752 55.4834C155.788 54.5891 153.596 54.3293 151.479 54.7399C150.692 54.9044 149.95 55.2348 149.3 55.7091C147.477 57.1165 141.231 62.1352 139.54 63.5293C104.068 92.7916 83.0308 137.933 79.3859 146.152Z" fill="#444444"/>
<path d="M95.6937 97.9996C94.3076 98.0127 92.9396 97.6846 91.7104 97.0444C89.6719 96.0059 88.1296 94.201 87.4225 92.0266C86.7154 89.8522 86.9013 87.4862 87.9395 85.4487C113.791 34.847 137.24 11.921 159.639 15.3307C192.449 20.3458 203.695 81.0174 204.877 87.9164C205.068 89.0332 205.037 90.1767 204.785 91.2815C204.534 92.3863 204.067 93.4308 203.412 94.3554C202.757 95.28 201.925 96.0666 200.966 96.6703C200.006 97.2739 198.937 97.6828 197.82 97.8736C196.702 98.0644 195.558 98.0333 194.452 97.7822C193.346 97.5311 192.301 97.0648 191.376 96.41C190.45 95.7552 189.663 94.9247 189.059 93.9659C188.455 93.0071 188.046 91.9388 187.855 90.822C184.774 72.8049 173.169 34.847 157.024 32.4456C150.69 31.4904 132.858 35.5104 103.302 93.3561C102.576 94.7477 101.484 95.9154 100.143 96.7335C98.8027 97.5517 97.2644 97.9894 95.6937 97.9996V97.9996Z" fill="#4FA3E8"/>
<path d="M2 208.708L264.08 234L368 159.581L112.292 145L2 208.708Z" fill="#F9F9F9"/>
<path d="M264.1 235H264.007L1.90077 209.715C1.69034 209.695 1.49159 209.609 1.33351 209.468C1.17543 209.328 1.06629 209.14 1.02201 208.933C0.977733 208.725 1.00063 208.509 1.08736 208.316C1.1741 208.123 1.32013 207.962 1.50417 207.858L111.801 144.134C111.965 144.037 112.154 143.991 112.344 144.002L368.065 158.587C368.27 158.598 368.467 158.673 368.628 158.801C368.789 158.929 368.906 159.105 368.964 159.303C369.018 159.5 369.011 159.71 368.945 159.904C368.879 160.098 368.757 160.267 368.593 160.39L264.668 234.828C264.5 234.94 264.302 235 264.1 235V235ZM5.17942 208.017L263.809 232.985L365.143 160.39L112.529 145.991L5.17942 208.017Z" fill="#444444"/>
<path d="M246 135C251.82 128.485 257.877 122.181 263.842 115.878C265.333 114.302 266.97 112.779 268.527 111.229C270.084 109.68 271.813 108.276 273.462 106.793C275.112 105.31 276.893 103.999 278.662 102.661C280.43 101.324 282.238 100.013 284.112 98.8341C291.536 93.922 299.48 89.8536 307.8 86.7038C320.331 81.9278 333.592 79.3651 346.994 79.1289C349.224 79.1289 351.442 79.0362 353.593 79.1289H360.019C368.508 79.0092 376.964 78.0511 385.265 76.2685C393.628 74.4524 401.802 71.8498 409.679 68.495C417.755 65.2506 425.818 61.9929 434 59C426.425 63.3304 418.731 67.3826 411.038 71.4482C407.184 73.4743 403.12 75.421 399.068 77.0498C394.96 78.7014 390.761 80.1163 386.492 81.2875C377.906 83.6405 369.084 85.0176 360.191 85.3927C357.961 85.4854 355.744 85.4987 353.593 85.5119C351.442 85.5252 349.277 85.5119 347.179 85.6311C342.953 85.7792 338.738 86.1461 334.55 86.7303C326.161 87.792 317.908 89.7361 309.925 92.5306C301.9 95.3073 294.162 98.8551 286.817 103.125C279.412 107.473 272.443 112.529 266.006 118.221C259.408 123.876 252.809 129.61 246 135Z" fill="#0084B2"/>
<path d="M254 133C258.779 129.884 263.665 127.028 268.523 124.172C273.534 121.336 278.771 118.905 284.182 116.903C295.101 112.871 306.605 110.579 318.259 110.113C319.711 110.048 321.177 110.048 322.629 110.035H326.814C329.587 110.035 332.346 109.867 335.106 109.659C340.635 109.244 346.136 108.525 351.583 107.504C354.316 107.011 357.023 106.335 359.822 105.751L368.166 103.999C373.751 102.921 379.336 101.818 385 101C379.719 103.207 374.438 105.128 369.038 107.062C363.638 108.997 358.409 110.853 352.785 112.437C347.193 114.015 341.479 115.135 335.7 115.786C332.809 116.124 329.904 116.331 326.999 116.448C325.56 116.448 324.042 116.448 322.669 116.539C321.296 116.63 319.909 116.539 318.536 116.656C307.459 117.112 296.473 118.82 285.793 121.745C280.421 123.246 275.132 125.023 269.949 127.067C264.694 129.08 259.413 131.17 254 133Z" fill="#0084B2"/>
<path d="M133.022 188.095C132.35 194.303 147.036 199.786 171.556 201.487C202.919 203.648 238.236 198.784 250.654 190.665C253.739 188.649 255.123 186.619 254.991 184.668V125L133.009 128.427L133.022 188.095Z" fill="#F9F9F9"/>
<path d="M186.743 203C181.614 203 176.486 202.842 171.475 202.499C151.962 201.181 137.736 197.225 133.437 192.136C132.936 191.59 132.551 190.947 132.306 190.246C132.061 189.546 131.961 188.803 132.013 188.062V128.418C132.012 128.29 132.035 128.163 132.083 128.043C132.13 127.924 132.2 127.816 132.29 127.724C132.379 127.632 132.486 127.559 132.604 127.508C132.721 127.458 132.848 127.431 132.976 127.429L254.974 124.001C255.108 123.994 255.241 124.016 255.366 124.063C255.491 124.111 255.604 124.184 255.699 124.278C255.886 124.468 255.99 124.724 255.989 124.99V184.674C256.148 187.008 254.539 189.328 251.203 191.504C240.616 198.412 213.64 203 186.743 203ZM134.004 129.393V188.221C133.97 188.704 134.039 189.19 134.207 189.645C134.375 190.099 134.639 190.513 134.98 190.857C138.869 195.511 152.911 199.216 171.62 200.508C202.631 202.644 237.847 197.871 250.135 189.842C251.981 188.643 254.17 186.77 254.025 184.74V126.005L134.004 129.393Z" fill="#444444"/>
<path d="M250.643 131.514C238.213 139.735 202.899 144.68 171.552 142.475C147.034 140.764 132.35 135.203 133.022 128.908C133.22 127.077 134.709 125.179 137.649 123.294C150.567 115.007 186.421 110.249 217.438 112.601C240.519 114.339 254.598 119.525 254.993 125.459C255.112 127.411 253.728 129.469 250.643 131.514Z" fill="#CCCCCC"/>
<path d="M186.739 144C181.611 144 176.483 143.826 171.473 143.479C151.962 142.143 137.738 138.135 133.44 132.992C132.933 132.431 132.545 131.77 132.3 131.051C132.055 130.332 131.958 129.569 132.016 128.811C132.254 126.607 133.967 124.469 137.105 122.465C150.13 114.116 186.198 109.24 217.521 111.591C240.803 113.341 255.541 118.631 255.989 125.377C256.148 127.795 254.539 130.147 251.204 132.351C240.605 139.364 213.632 144 186.739 144ZM201.095 113.007C174.848 113.007 148.693 117.415 138.16 124.162C135.589 125.805 134.205 127.488 133.994 129.024C133.962 129.514 134.033 130.005 134.201 130.466C134.369 130.926 134.631 131.345 134.969 131.696C138.858 136.412 152.898 140.153 171.605 141.475C202.611 143.639 237.823 138.803 250.11 130.668C251.955 129.439 254.144 127.542 253.999 125.498C253.709 121.063 242.134 115.438 217.363 113.581C212.024 113.194 206.553 113.007 201.095 113.007Z" fill="#444444"/>
<path d="M152.116 117.664L134 130.786C134.33 131.624 134.829 132.378 135.462 133L159 116C156.559 116.51 154.264 117.064 152.116 117.664Z" fill="#BFBFBF"/>
<path d="M177.693 113.453L143 137.017C143.995 137.353 145.07 137.69 146.197 138L183 113C181.222 113.129 179.458 113.272 177.693 113.453Z" fill="#BFBFBF"/>
<path d="M199.28 112L158 140.462C159.25 140.659 160.553 140.829 161.882 141L204 112H199.28Z" fill="#BFBFBF"/>
<path d="M217.874 113L175 141.821L179.378 142L222 113.333C220.66 113.205 219.281 113.09 217.874 113Z" fill="#BFBFBF"/>
<path d="M234.399 115L194 142C195.654 142 197.308 141.898 198.948 141.808L238 115.716C236.853 115.46 235.653 115.23 234.399 115Z" fill="#BFBFBF"/>
<path d="M248.302 119L216 141C217.99 140.765 219.941 140.491 221.851 140.204L251 120.345C250.127 119.847 249.226 119.398 248.302 119Z" fill="#BFBFBF"/>
<path d="M255 128L246 134C247.845 133.293 249.619 132.424 251.297 131.402C252.794 130.566 254.063 129.4 255 128V128Z" fill="#BFBFBF"/>
<path d="M186.739 144C181.611 144 176.483 143.826 171.473 143.479C151.962 142.143 137.738 138.135 133.44 132.992C132.933 132.431 132.545 131.77 132.3 131.051C132.055 130.332 131.958 129.569 132.016 128.811C132.254 126.607 133.967 124.469 137.105 122.465C150.13 114.116 186.198 109.24 217.521 111.591C240.803 113.341 255.541 118.631 255.989 125.377C256.148 127.795 254.539 130.147 251.204 132.351C240.605 139.364 213.632 144 186.739 144ZM201.095 113.007C174.848 113.007 148.693 117.415 138.16 124.162C135.589 125.805 134.205 127.488 133.994 129.024C133.962 129.514 134.033 130.005 134.201 130.466C134.369 130.926 134.631 131.345 134.969 131.696C138.858 136.412 152.898 140.153 171.605 141.475C202.611 143.639 237.823 138.803 250.11 130.668C251.955 129.439 254.144 127.542 253.999 125.498C253.709 121.063 242.134 115.438 217.363 113.581C212.024 113.194 206.553 113.007 201.095 113.007Z" fill="#444444"/>
<path d="M206.853 88.3489C205.531 86.6673 200.877 80.9074 199.542 79.3582C199.021 78.7459 198.316 78.3187 197.532 78.1401C195.41 77.7471 193.218 78.1881 191.411 79.3715C189.309 80.6956 187.246 81.4768 187.167 84.8003V84.9195C187.167 86.3627 187.167 87.4882 187.167 87.9914C186.175 141.379 155.939 216.8 128.888 208.723C105.659 201.798 96.6418 136.281 103.768 89.1963C103.946 87.7114 103.72 86.2059 103.114 84.8389C102.509 83.472 101.545 82.2942 100.327 81.4302C99.1076 80.5662 97.6783 80.048 96.1896 79.9303C94.7009 79.8127 93.2081 80.1 91.869 80.7618C36.4988 111.15 1 209.637 1 209.637L265 234C265 234 241.903 132.905 206.853 88.3489Z" fill="#F9F9F9"/>
<path d="M265.009 235H264.916L0.904038 210.517C0.752415 210.505 0.60561 210.458 0.474982 210.38C0.344353 210.302 0.233406 210.195 0.150737 210.067C0.0712491 209.938 0.0216821 209.792 0.0056751 209.641C-0.0103319 209.49 0.00762711 209.337 0.058227 209.194C0.415054 208.215 36.3092 110.059 91.353 79.8594C92.836 79.0648 94.5124 78.7042 96.1905 78.8189C97.8686 78.9336 99.4805 79.5189 100.842 80.5079C102.262 81.4561 103.388 82.7857 104.089 84.3444C104.79 85.9031 105.039 87.628 104.807 89.3216C97.6041 137.162 107.45 201.174 129.256 207.672C133.868 208.995 138.811 207.857 143.925 204.112C164.846 188.801 185.423 132.345 186.216 87.9453C186.216 87.4424 186.216 86.3176 186.216 84.8883V84.703C186.295 81.1828 188.45 79.9388 190.353 78.8404L190.947 78.4963C192.982 77.1843 195.444 76.7102 197.82 77.173C198.798 77.4053 199.677 77.9429 200.331 78.7081C201.652 80.3094 206.383 86.1058 207.665 87.7336C242.436 131.988 265.749 232.79 265.973 233.809C266.009 233.961 266.009 234.119 265.972 234.271C265.935 234.423 265.863 234.564 265.762 234.682C265.665 234.784 265.548 234.864 265.418 234.919C265.289 234.974 265.149 235.001 265.009 235V235ZM2.41064 208.665L263.766 232.883C260.885 220.787 238.471 130.069 206.145 88.9246C204.824 87.3101 200.225 81.5534 198.864 79.9653C198.463 79.5211 197.938 79.2076 197.357 79.0654C195.493 78.7569 193.582 79.1633 192.005 80.2035L191.383 80.5608C189.52 81.6328 188.291 82.3474 188.238 84.7957C188.244 84.8484 188.244 84.9017 188.238 84.9545C188.238 86.2779 188.238 87.4689 188.238 87.985C187.405 132.888 166.445 190.097 145.102 205.766C139.472 209.895 133.948 211.192 128.701 209.631C105.375 202.67 95.4895 137.983 102.864 89.0702C103.043 87.7483 102.848 86.4028 102.301 85.1864C101.754 83.9699 100.878 82.9314 99.7715 82.1886C98.7111 81.4153 97.4552 80.9556 96.1468 80.862C94.8383 80.7684 93.53 81.0447 92.3706 81.6592C41.2123 109.636 6.66613 197.323 2.41064 208.665Z" fill="#444444"/>
<path d="M201.281 76.1475C202.604 76.1475 210.321 75.9628 225.104 94.707C230.703 101.83 235.984 109.982 241.278 117.751C255.413 138.54 269.561 156.678 289.851 145.611C316.851 130.876 298.017 87.5707 278.707 55.3191C279.408 54.8706 280.176 54.4485 280.957 54C283.654 54.4693 286.228 55.4741 288.527 56.9548C309.254 70.8711 363.532 147.972 367.939 160.028C368.03 160.316 368.019 160.626 367.908 160.907C367.797 161.188 367.593 161.422 367.33 161.571L264.81 233C259.188 206.602 251.179 180.765 240.881 155.807C236.91 146.455 232.94 137.986 229.088 130.388C211.604 96.1976 196 78.0338 196 78.0338C197.674 77.1879 199.449 76.5542 201.281 76.1475V76.1475Z" fill="#E8E8E8"/>
<path d="M264.768 233.978C264.646 233.981 264.524 233.959 264.411 233.912C264.256 233.855 264.119 233.76 264.012 233.635C263.906 233.51 263.833 233.36 263.802 233.198C258.175 206.834 250.179 181.029 239.912 156.095C236.246 147.341 232.289 138.797 228.159 130.716C210.954 97.0168 195.362 78.6753 195.204 78.4904C195.119 78.3814 195.058 78.2554 195.026 78.121C194.994 77.9866 194.991 77.8469 195.018 77.7113C195.047 77.5619 195.111 77.4216 195.206 77.3021C195.3 77.1826 195.422 77.0875 195.561 77.0247C196.249 76.6946 199.757 75.044 201.265 75.044V76.0343V75.044C207.46 75.044 216.168 81.7784 225.79 94.0061C230.29 99.737 234.645 106.194 238.84 112.493C239.899 114.064 240.945 115.636 242.004 117.181C256.483 138.493 270.023 155.277 289.28 144.752C292.179 143.235 294.726 141.127 296.757 138.566C298.789 136.005 300.259 133.047 301.073 129.884C306.525 109.905 291.398 78.53 277.752 55.7385C277.629 55.5187 277.594 55.261 277.653 55.0165C277.712 54.7719 277.86 54.5583 278.07 54.418C278.745 53.9954 279.512 53.5729 280.412 53.0975C280.615 53.0052 280.842 52.9776 281.061 53.0183C283.891 53.5068 286.592 54.5624 289.002 56.1214C310.099 70.3034 364.443 147.882 368.864 159.779C369.051 160.291 369.045 160.853 368.848 161.361C368.651 161.868 368.275 162.287 367.791 162.539L265.324 233.938C265.146 234.004 264.954 234.018 264.768 233.978V233.978ZM197.546 78.1603C201.014 82.4387 214.871 100.265 229.933 129.752C234.089 137.886 238.059 146.482 241.752 155.29C251.867 179.874 259.79 205.299 265.43 231.271L366.759 160.664C367.077 160.479 367.037 160.347 367.011 160.281C362.617 148.489 308.775 71.6239 287.903 57.5739C285.813 56.2274 283.48 55.2991 281.034 54.8405L279.989 55.3951C293.7 78.4508 308.59 109.826 303.018 130.24C302.144 133.665 300.563 136.869 298.375 139.648C296.186 142.427 293.44 144.719 290.312 146.377C269.626 157.667 254.921 139.484 240.442 118.171C239.383 116.626 238.324 115.055 237.265 113.483C233.083 107.264 228.768 100.846 224.308 95.155C211.39 78.7281 203.952 76.9587 201.345 76.9587C200.027 77.2028 198.75 77.6248 197.546 78.2131V78.1603Z" fill="#444444"/>
<path d="M368 457.872L265 562V232.727L368 160V457.872Z" fill="#CCCCCC"/>
<path d="M264.991 562.997C264.865 562.994 264.74 562.972 264.621 562.931C264.438 562.855 264.281 562.727 264.17 562.563C264.06 562.399 264.001 562.206 264 562.008V233.501C264.001 233.343 264.04 233.188 264.113 233.048C264.187 232.908 264.293 232.787 264.423 232.697L367.441 160.179C367.59 160.075 367.765 160.013 367.947 160.002C368.128 159.99 368.309 160.029 368.47 160.113C368.631 160.198 368.766 160.325 368.859 160.481C368.953 160.636 369.001 160.815 369 160.996V458.188C368.999 458.448 368.9 458.697 368.723 458.887L265.704 562.773C265.504 562.937 265.249 563.018 264.991 562.997V562.997ZM265.981 234.042V559.608L367.085 457.714V162.842L265.981 234.042Z" fill="#444444"/>
<path d="M265 562L2 523.779V209L265 233.415V562Z" fill="#F9F9F9"/>
<path d="M264.944 562.995H264.799L1.84462 524.759C1.60916 524.721 1.39482 524.601 1.24004 524.419C1.08525 524.237 1.00015 524.006 1 523.768V208.982C1.00976 208.84 1.0502 208.701 1.11854 208.576C1.18688 208.45 1.2815 208.341 1.39592 208.256C1.4968 208.163 1.61587 208.093 1.74544 208.05C1.87502 208.007 2.01221 207.991 2.14816 208.005L265.102 232.434C265.35 232.454 265.58 232.568 265.747 232.752C265.914 232.936 266.004 233.177 266 233.425V562.018C266.002 562.161 265.972 562.303 265.913 562.433C265.854 562.563 265.766 562.679 265.657 562.771C265.559 562.854 265.446 562.917 265.323 562.956C265.201 562.995 265.072 563.008 264.944 562.995V562.995ZM2.97958 522.922L264.02 560.868V234.31L2.97958 210.066V522.922Z" fill="#444444"/>
<path d="M214 393V373H220.696V379.515H236V386.485H220.696V393H214Z" fill="#99C6D6"/>
<path d="M214 311.97V318.017V325H236V318.017H221.182V311.97H236V305H221.182H214V311.97Z" fill="#99C6D6"/>
<path d="M222.613 260.086L214 254V261.957L222.613 268.043V268.985H214V276H236V268.985H227.869V267.114L236 263.371V254.942L225.007 261.486L222.613 260.086Z" fill="#99C6D6"/>
<path d="M214 287.281V293.745L236 303V295.593L232.175 294.675V286.777L236 285.394V278L214 287.281ZM226.919 292.84L221.195 290.526L226.946 288.677L226.919 292.84Z" fill="#99C6D6"/>
<path d="M214 358.27V364.743L236 374V366.595L232.175 365.662V357.791L236 356.405V349L214 358.27ZM226.919 363.824L221.168 361.506L226.919 359.655V363.824Z" fill="#99C6D6"/>
<path d="M214 335.322V347H236V339.863H230.731V335.322C230.731 334.228 230.514 333.145 230.093 332.134C229.672 331.124 229.055 330.206 228.278 329.433C227.5 328.66 226.577 328.047 225.561 327.63C224.546 327.212 223.457 326.998 222.359 327V327C221.261 327 220.174 327.215 219.16 327.634C218.146 328.052 217.224 328.665 216.448 329.438C215.672 330.21 215.056 331.128 214.636 332.137C214.216 333.147 214 334.229 214 335.322V335.322ZM225.007 336.72V339.863H219.858V336.72C219.858 336.035 220.131 335.378 220.618 334.894C221.104 334.409 221.764 334.137 222.452 334.137C223.14 334.137 223.8 334.409 224.287 334.894C224.773 335.378 225.047 336.035 225.047 336.72H225.007Z" fill="#99C6D6"/>
</svg>
