<svg width="430" height="452" viewBox="0 0 430 452" fill="none" xmlns="http://www.w3.org/2000/svg">
<path d="M138 153.063L19.4088 275L18 130.039L136.591 71L138 153.063Z" fill="#CCCCCC"/>
<path d="M19.4635 275.987C19.3424 276.004 19.2186 276.004 19.0975 275.987C18.897 275.922 18.7241 275.806 18.6011 275.655C18.4781 275.505 18.4107 275.326 18.4078 275.142L17.0002 130.068C16.9968 129.908 17.0433 129.749 17.1348 129.609C17.2264 129.469 17.3596 129.353 17.521 129.272L136.014 70.1268C136.172 70.0459 136.351 70.0022 136.535 70.0001C136.718 69.998 136.899 70.0375 137.06 70.1147C137.22 70.1919 137.353 70.304 137.446 70.4397C137.539 70.5754 137.589 70.7297 137.59 70.8872L138.998 153.026C139.006 153.133 138.989 153.241 138.948 153.342C138.907 153.444 138.843 153.537 138.759 153.617L20.2658 275.661C20.1671 275.761 20.0444 275.842 19.9059 275.899C19.7675 275.955 19.6166 275.985 19.4635 275.987V275.987ZM19.1116 130.527L20.5192 272.607L136.915 152.736L135.507 72.4805L19.1116 130.527Z" fill="#444444"/>
<path d="M19 402.2L299.276 424L409 356.223L137.756 343L19 402.2Z" fill="#F9F9F9"/>
<path d="M299.252 424.997H299.168L18.9663 403.135C18.7429 403.12 18.5312 403.043 18.3618 402.917C18.1924 402.791 18.0741 402.622 18.0241 402.434C17.9765 402.246 17.9999 402.049 18.0909 401.873C18.1819 401.697 18.3359 401.55 18.5303 401.454L137.263 342.134C137.44 342.041 137.646 341.995 137.853 342.001L409.012 355.301C409.228 355.314 409.435 355.383 409.603 355.5C409.772 355.617 409.894 355.775 409.955 355.954C410.018 356.134 410.015 356.327 409.944 356.505C409.873 356.683 409.739 356.837 409.561 356.946L299.871 424.876C299.684 424.97 299.468 425.013 299.252 424.997V424.997ZM22.4538 401.588L298.957 423.159L405.919 356.921L138.05 343.838L22.4538 401.588Z" fill="#444444"/>
<path d="M289.219 385.667C272.725 395.215 225.888 400.944 184.188 398.393C151.636 396.398 132.116 389.942 133.031 382.636C133.284 380.517 135.268 378.312 139.167 376.131C156.337 366.509 203.905 360.978 245.127 363.688C275.765 365.696 294.455 371.721 294.989 378.608C295.158 380.899 293.315 383.289 289.219 385.667Z" fill="#CCCCCC"/>
<path d="M204.376 399C197.582 399 190.788 398.812 184.135 398.426C158.381 396.926 139.603 392.636 133.893 386.951C133.226 386.352 132.715 385.643 132.393 384.87C132.071 384.098 131.945 383.278 132.022 382.463C132.332 380.118 134.554 377.774 138.647 375.63C155.892 366.429 203.687 361.061 245.18 363.651C275.942 365.573 295.409 371.328 295.986 378.665C296.197 381.255 294.101 383.775 289.754 386.166C275.759 393.878 240.075 399 204.376 399ZM223.435 364.753C188.552 364.753 153.782 369.64 139.772 377.106C136.312 378.958 134.343 380.88 134.146 382.65C134.109 383.231 134.214 383.813 134.456 384.359C134.698 384.905 135.071 385.404 135.553 385.826C140.813 391.065 159.464 395.203 184.318 396.668C225.502 399.012 272.299 393.702 288.629 384.701C291.161 383.318 294.115 381.185 293.932 378.782C293.51 373.614 278.249 367.484 245.068 365.409C237.894 364.964 230.693 364.753 223.435 364.753Z" fill="#444444"/>
<path d="M158.428 369.461L133 384.052C133.368 384.771 133.89 385.431 134.54 386L166 368C163.316 368.452 160.815 368.951 158.428 369.461Z" fill="#BFBFBF"/>
<path d="M187.048 364.572L143 390.929C144.006 391.294 145.083 391.647 146.231 392L193 364C190.973 364.183 188.989 364.365 187.048 364.572Z" fill="#BFBFBF"/>
<path d="M210.779 363.144L158 394.353C159.256 394.581 160.554 394.796 161.881 395L216 363C214.25 363.036 212.514 363.084 210.779 363.144Z" fill="#BFBFBF"/>
<path d="M231.327 363L175 396.628L179.281 397L236 363.144C234.447 363.084 232.894 363.036 231.327 363Z" fill="#BFBFBF"/>
<path d="M250.748 364L194 397.892C195.572 397.892 197.143 397.976 198.729 398L255 364.397L250.748 364Z" fill="#BFBFBF"/>
<path d="M268.219 366L215 398C216.737 398 218.459 397.903 220.182 397.831L272 366.689L268.219 366Z" fill="#BFBFBF"/>
<path d="M282.956 370L238 397C239.997 396.807 241.951 396.615 243.878 396.398L286 371.131C285.051 370.722 284.031 370.361 282.956 370Z" fill="#BFBFBF"/>
<path d="M295 378.25C294.849 377.435 294.468 376.664 293.89 376L265 393C267.809 392.452 270.407 391.869 272.879 391.25L295 378.25Z" fill="#BFBFBF"/>
<path d="M263.707 440.518L267.711 440L269 443.826L263 445L263.707 440.518Z" fill="#0084B2"/>
<path d="M204.376 399C197.582 399 190.788 398.812 184.135 398.426C158.381 396.926 139.603 392.636 133.893 386.951C133.226 386.352 132.715 385.643 132.393 384.87C132.071 384.098 131.945 383.278 132.022 382.463C132.332 380.118 134.554 377.774 138.647 375.63C155.892 366.429 203.687 361.061 245.18 363.651C275.942 365.573 295.409 371.328 295.986 378.665C296.197 381.255 294.101 383.775 289.754 386.166C275.759 393.878 240.075 399 204.376 399ZM223.435 364.753C188.552 364.753 153.782 369.64 139.772 377.106C136.312 378.958 134.343 380.88 134.146 382.65C134.109 383.231 134.214 383.813 134.456 384.359C134.698 384.905 135.071 385.404 135.553 385.826C140.813 391.065 159.464 395.203 184.318 396.668C225.502 399.012 272.299 393.702 288.629 384.701C291.161 383.318 294.115 381.185 293.932 378.782C293.51 373.614 278.249 367.484 245.068 365.409C237.894 364.964 230.693 364.753 223.435 364.753Z" fill="#444444"/>
<path d="M409 357L135 330.004L136.411 71L407.758 85.5465L409 357Z" fill="#CCCCCC"/>
<path d="M408.914 358H408.801L134.931 330.986C134.674 330.957 134.438 330.849 134.267 330.683C134.096 330.517 134.001 330.303 134 330.082L135.411 70.8954C135.413 70.7729 135.444 70.652 135.502 70.5401C135.56 70.4281 135.644 70.3274 135.749 70.2442C135.853 70.1582 135.977 70.0922 136.114 70.0506C136.25 70.009 136.395 69.9928 136.539 70.003L407.743 84.559C408.011 84.5743 408.263 84.6763 408.446 84.8443C408.629 85.0123 408.731 85.2337 408.73 85.4635L410 357.095C410 357.223 409.969 357.349 409.908 357.465C409.847 357.582 409.758 357.686 409.647 357.771C409.445 357.923 409.183 358.005 408.914 358V358ZM136.13 329.274L407.856 356.082L406.615 86.3197L137.541 71.8481L136.13 329.274Z" fill="#444444"/>
<path d="M143.415 73L137 76.2334V79L148 73.2049L143.415 73Z" fill="#BFBFBF"/>
<path d="M162.534 74L136 90.0677V93L167 74.2163L162.534 74Z" fill="#BFBFBF"/>
<path d="M181.512 75L136 102.111V105L186 75.2249L181.512 75Z" fill="#BFBFBF"/>
<path d="M201.457 76L136 114.142V117L206 76.2117L201.457 76Z" fill="#BFBFBF"/>
<path d="M220.469 76L136 127.032V130L225 76.2189L220.469 76Z" fill="#BFBFBF"/>
<path d="M239.477 77L136 139.059V142L244 77.229L239.477 77Z" fill="#BFBFBF"/>
<path d="M258.482 78L136 152.039V155L263 78.2184L258.482 78Z" fill="#BFBFBF"/>
<path d="M278.455 79L136 164.058V167L283 79.2291L278.455 79Z" fill="#BFBFBF"/>
<path d="M297.462 80L136 177.043V180L302 80.2303L297.462 80Z" fill="#BFBFBF"/>
<path d="M316.467 81L136 189.057V192L321 81.2171L316.467 81Z" fill="#BFBFBF"/>
<path d="M336.449 82L136 201.081V204L341 82.2282L336.449 82Z" fill="#BFBFBF"/>
<path d="M355.454 83L136 214.057V217L360 83.2171L355.454 83Z" fill="#BFBFBF"/>
<path d="M374.459 84L136 226.067V229L379 84.2284L374.459 84Z" fill="#BFBFBF"/>
<path d="M393.463 85L136 239.069V242L398 85.2292L393.463 85Z" fill="#BFBFBF"/>
<path d="M408 89L136 251.063V254L408 91.9245V89Z" fill="#BFBFBF"/>
<path d="M408 101L136 263.063V266L408 103.937V101Z" fill="#BFBFBF"/>
<path d="M408 114L136 276.075V279L408 116.937V114Z" fill="#BFBFBF"/>
<path d="M408 126L136 288.064V291L408 128.936V126Z" fill="#BFBFBF"/>
<path d="M408 139L136 301.063V304L408 141.925V139Z" fill="#BFBFBF"/>
<path d="M408 151L136 313.075V316L408 153.937V151Z" fill="#BFBFBF"/>
<path d="M408 163L136 325.064V328L408 165.936V163Z" fill="#BFBFBF"/>
<path d="M408 176L147 331.458L151.03 332L408 178.927V176Z" fill="#BFBFBF"/>
<path d="M408 188L164 333.47L168.072 334L408 190.966V188Z" fill="#BFBFBF"/>
<path d="M408 201L181 335.461L185.073 336L408 203.947V201Z" fill="#BFBFBF"/>
<path d="M408 213L198 337.472L202.032 338L408 215.926V213Z" fill="#BFBFBF"/>
<path d="M408 225L215 340.455L219.02 341L408 227.942V225Z" fill="#BFBFBF"/>
<path d="M408 238L232 342.471L236.036 343L408 240.933V238Z" fill="#BFBFBF"/>
<path d="M408 250L249 344.458L253.038 345L408 252.937V250Z" fill="#BFBFBF"/>
<path d="M408 263L266 347.469L270.041 348L408 265.931V263Z" fill="#BFBFBF"/>
<path d="M408 275L283 349.468L287.044 350L408 277.949V275Z" fill="#BFBFBF"/>
<path d="M408 288L300 351.475L304.049 352L408 290.913V288Z" fill="#BFBFBF"/>
<path d="M408 300L317 353.474L321.055 354L408 302.905V300Z" fill="#BFBFBF"/>
<path d="M408 312L334 356.449L338.064 357L408 314.989V312Z" fill="#BFBFBF"/>
<path d="M408 325L351 358.471L355.079 359L408 327.931V325Z" fill="#BFBFBF"/>
<path d="M408 337L369 360.456L373.004 361L408 339.937V337Z" fill="#BFBFBF"/>
<path d="M408 350L386 362.499L390.006 363L408 352.778V350Z" fill="#BFBFBF"/>
<path d="M409 356.448V354L404 356.559L407.918 357L409 356.448Z" fill="#BFBFBF"/>
<path d="M408.942 357H408.816L134.931 330.276C134.674 330.247 134.438 330.14 134.267 329.974C134.096 329.808 134.001 329.595 134 329.374L135.41 70.893C135.412 70.7708 135.443 70.6502 135.501 70.5386C135.559 70.427 135.643 70.3266 135.748 70.2435C135.852 70.1577 135.976 70.0919 136.113 70.0505C136.249 70.009 136.394 69.9928 136.538 70.003L407.603 84.5194C407.871 84.5347 408.122 84.6364 408.306 84.8039C408.489 84.9715 408.591 85.1922 408.59 85.4214L410 356.086C410.002 356.205 409.976 356.324 409.923 356.435C409.871 356.546 409.794 356.647 409.695 356.732C409.597 356.817 409.48 356.884 409.35 356.93C409.221 356.976 409.083 357 408.942 357V357ZM136.129 328.568L407.871 355.088L406.461 86.2753L137.525 71.8431L136.129 328.568Z" fill="#444444"/>
<path d="M409 356.197L299 451V151.214L409 85V356.197Z" fill="#CCCCCC"/>
<path d="M299.057 451.995C298.922 451.993 298.789 451.972 298.662 451.935C298.467 451.866 298.3 451.749 298.182 451.599C298.064 451.449 298.001 451.273 298 451.092V151.117C298.001 150.973 298.042 150.831 298.121 150.703C298.199 150.575 298.312 150.466 298.451 150.383L408.337 84.1632C408.496 84.0681 408.683 84.0123 408.876 84.0018C409.07 83.9913 409.263 84.0265 409.435 84.1036C409.606 84.1807 409.75 84.2967 409.85 84.4389C409.949 84.581 410.001 84.7439 410 84.9097V356.29C410.002 356.408 409.977 356.525 409.927 356.634C409.876 356.744 409.8 356.844 409.704 356.928L299.817 451.791C299.714 451.867 299.593 451.925 299.462 451.961C299.331 451.996 299.193 452.008 299.057 451.995V451.995ZM300.113 151.611V448.901L407.957 355.856V86.5952L300.113 151.611Z" fill="#444444"/>
<path d="M299 451L19 416.244V130L299 152.202V451Z" fill="#F9F9F9"/>
<path d="M299.872 451.996H299.717L18.902 417.206C18.6505 417.171 18.4216 417.062 18.2563 416.897C18.091 416.731 18.0002 416.521 18 416.304V129.894C18.0122 129.764 18.0562 129.639 18.129 129.525C18.2018 129.411 18.3019 129.311 18.4228 129.233C18.5305 129.149 18.6577 129.085 18.7961 129.046C18.9345 129.006 19.081 128.992 19.2261 129.004L300.041 151.232C300.306 151.25 300.552 151.353 300.73 151.521C300.908 151.688 301.004 151.907 301 152.133V451.106C301.002 451.236 300.971 451.365 300.907 451.484C300.844 451.603 300.75 451.708 300.633 451.791C300.529 451.868 300.408 451.925 300.277 451.96C300.147 451.995 300.009 452.007 299.872 451.996V451.996ZM20.114 415.535L298.886 450.06V152.939L20.114 130.879V415.535Z" fill="#444444"/>
<path d="M246 297V279H253.001V284.863H269V291.137H253.001V297H246Z" fill="#99C6D6"/>
<path d="M246 223.273V228.715V235H269V228.715H253.508V223.273H269V217H253.508H246V223.273Z" fill="#99C6D6"/>
<path d="M255.004 175.809L246 170V177.595L255.004 183.404V184.304H246V191H269V184.304H260.499V182.518L269 178.945V170.899L257.507 177.146L255.004 175.809Z" fill="#99C6D6"/>
<path d="M246 200.539V206.485L269 215V208.186L265.001 207.341V200.075L269 198.802V192L246 200.539ZM259.506 205.653L253.522 203.524L259.534 201.823L259.506 205.653Z" fill="#99C6D6"/>
<path d="M246 265.528V271.484L269 280V273.187L265.001 272.329V265.088L269 263.813V257L246 265.528ZM259.506 270.638L253.494 268.506L259.506 266.803V270.638Z" fill="#99C6D6"/>
<path d="M246 244.49V255H269V248.577H263.491V244.49C263.491 243.505 263.265 242.53 262.825 241.621C262.385 240.711 261.74 239.885 260.927 239.19C260.114 238.494 259.149 237.942 258.087 237.567C257.025 237.191 255.887 236.998 254.739 237V237C253.591 237 252.455 237.194 251.395 237.57C250.334 237.947 249.371 238.498 248.559 239.194C247.748 239.889 247.104 240.715 246.665 241.624C246.226 242.532 246 243.506 246 244.49V244.49ZM257.507 245.748V248.577H252.124V245.748C252.124 245.132 252.41 244.54 252.918 244.104C253.427 243.668 254.117 243.423 254.836 243.423C255.556 243.423 256.246 243.668 256.754 244.104C257.263 244.54 257.549 245.132 257.549 245.748H257.507Z" fill="#99C6D6"/>
<path d="M113.255 14C109.022 21.6034 106.883 29.9506 107.005 38.388C107.005 51.346 118.67 67.9134 125.727 75L136 69.9107C130.989 64.7611 109.956 44.127 109.956 29.244C109.927 24.0278 111.046 18.8544 113.255 14V14Z" fill="#2CC8FF"/>
<path d="M163.995 38.5702C164.119 30.0713 161.947 21.6627 157.647 14C159.889 18.8999 161.026 24.1187 160.997 29.3806C160.997 44.3379 141.09 65.0751 136 70.2503L149.319 71C156.487 63.9627 163.995 51.6413 163.995 38.5702Z" fill="#0084B2"/>
<path d="M157.733 14.4245C157.172 13.4931 156.584 12.6095 155.981 11.7498C150.796 4.51363 143.565 0 135.549 0C131.528 0.0276762 127.614 1.10728 124.337 3.09267C119.605 6.02503 115.817 9.92648 113.322 14.4364C111.092 19.2692 109.964 24.4203 110.001 29.6132C110.001 44.384 129.088 65.8893 134.133 71L136.221 69.9731C131.625 61.1011 120.007 46.4497 120.007 38.6882C120.007 32.0252 122.277 26.1026 125.837 22.2457C128.486 19.356 131.835 17.6246 135.493 17.6246C137.036 17.6682 138.555 17.9725 139.96 18.5198C141.365 19.067 142.628 19.8464 143.677 20.8128C148.063 24.5383 150.992 31.1297 150.992 38.724C150.992 46.4855 140.804 61.1369 136.221 70.0089H136.698C141.743 64.8982 160.998 44.4198 160.998 29.649C161.05 24.4439 159.942 19.2777 157.733 14.4245V14.4245Z" fill="#00A5EB"/>
<path d="M275.474 92C271.088 99.5823 268.874 107.906 269.006 116.318C269.006 129.226 273.76 142.948 281.064 150L299 147.701C293.828 142.576 272.045 122.042 272.045 107.23C272.014 102.019 273.177 96.8497 275.474 92V92Z" fill="#2CC8FF"/>
<path d="M325.995 116.425C326.116 107.975 324.021 99.6156 319.873 92C322.048 96.8754 323.15 102.072 323.118 107.312C323.118 122.203 303.908 142.848 299 148L311.407 145.051C318.319 137.936 325.995 129.402 325.995 116.425Z" fill="#0084B2"/>
<path d="M319.72 91.6358C319.173 90.6916 318.585 89.7957 317.968 88.9241C312.798 81.5881 305.569 77 297.555 77C293.534 77.0316 289.621 78.1304 286.347 80.1475C281.616 83.1154 277.829 87.0668 275.335 91.6358C273.102 96.539 271.97 101.765 272.001 107.034C272.001 122.009 293.184 142.77 298.214 147.952C293.632 138.957 282.004 124.103 282.004 116.223C282.004 109.48 284.288 103.475 287.832 99.5529C290.48 96.6355 293.843 94.8801 297.499 94.8801C299.041 94.9246 300.556 95.2332 301.959 95.7881C303.361 96.343 304.621 97.133 305.667 98.1124C310.052 101.877 312.995 108.572 312.995 116.271C312.995 124.152 302.809 139.005 298.214 148H298.704C303.748 142.819 322.998 122.057 322.998 107.083C323.055 101.8 321.942 96.557 319.72 91.6358V91.6358Z" fill="#00A5EB"/>
<path d="M311 302.515L298.917 313L297 149.244L311 137V302.515Z" fill="#0084B2"/>
<path d="M299 313L281 310.778V147L298.532 147.396L299 313Z" fill="#2CC8FF"/>
<path d="M37.4499 64.3789C44.2169 75.5189 49.0364 96.6161 34.6478 130L20.7915 121.551C20.7915 121.551 34.3115 80.8173 16.9807 64.6806L16 60.9632L16.8546 60.408C18.457 59.3658 20.3034 58.6363 22.2658 58.2702C24.2282 57.9041 26.2595 57.9101 28.2189 58.2879C30.1783 58.6656 32.0188 59.4061 33.6128 60.4579C35.2068 61.5097 36.5161 62.8476 37.4499 64.3789V64.3789Z" fill="#0084B2"/>
<path d="M36 281L17.8342 278.835L17 129L35.1226 130.203L36 281Z" fill="#2CC8FF"/>
<path d="M27.1766 58.112C27.1766 58.112 -5.61722 75.6015 35 130L17.3342 128.794C4.1257 113.11 -1.86749 93.7753 0.5097 74.5159C1.22474 69.245 6.41231 61.0792 11.2494 59.9092C21.9189 57.3279 27.1766 58.112 27.1766 58.112Z" fill="#00A5EB"/>
<path d="M409.826 218.114L396 230V93.7345L410 85L409.826 218.114Z" fill="#0084B2"/>
<path d="M392.394 28.3525C385.578 39.439 381.105 59.8004 395.612 93L409.174 85.165C409.174 85.165 395.555 44.6703 412.998 28.6284L414 24.9329L413.139 24.381C411.522 23.3478 409.661 22.6256 407.684 22.2645C405.706 21.9035 403.66 21.9121 401.687 22.2899C399.714 22.6676 397.861 23.4054 396.256 24.4522C394.652 25.499 393.334 26.8298 392.394 28.3525V28.3525Z" fill="#00A5EB"/>
<path d="M403.311 22.1159C403.311 22.1159 435.964 38.9074 396 93L409.257 85.168C409.257 85.168 433.743 70.0196 429.508 38.3916C428.804 33.1623 423.686 25.0424 418.941 23.879C408.471 21.3243 403.311 22.1159 403.311 22.1159Z" fill="#0084B2"/>
</svg>
