<svg width="80" height="80" viewBox="0 0 80 80" fill="none" xmlns="http://www.w3.org/2000/svg">
<path d="M73.7378 62.1997V59.9609C73.7378 59.319 73.2211 58.7868 72.5636 58.7868C71.9217 58.7868 71.3894 59.319 71.3894 59.9609V61.8239C71.3111 61.8239 71.2329 61.8239 71.1389 61.8239H45.4481V53.229H71.3894V55.2486C71.3894 55.8905 71.9217 56.4228 72.5636 56.4228C73.2055 56.4228 73.7378 55.8905 73.7378 55.2486V53.0098C73.7378 51.8357 72.7828 50.8963 71.6243 50.8963H61.3229V48.5793C61.3229 43.6478 58.4266 40.3914 52.4931 38.638C52.4618 38.6224 52.4149 38.6224 52.3836 38.6067L40.7828 36.3523V33.91C41.1898 33.6282 41.5812 33.3308 41.9726 32.9864C44.0548 31.186 45.3855 28.6341 45.7143 25.8161C47.2798 25.6439 48.4853 24.3132 48.4853 22.7006V20.6341C49.5029 20.1644 50.2074 19.1312 50.2074 17.9413C50.2074 16.5167 49.2055 15.3269 47.8748 15.0294V14.2936C47.8591 6.84155 41.6438 0.782837 34.1918 0.782837H33.0646C28.7123 0.782837 24.7515 2.912 22.2153 6.46581C21.8395 6.9981 21.9648 7.71826 22.4971 8.09399C23.0294 8.46973 23.7495 8.34448 24.1252 7.81219C25.0489 6.51278 26.2231 5.4482 27.5695 4.66542V6.88851C27.5695 7.53039 28.1018 8.06268 28.7436 8.06268C29.3855 8.06268 29.9178 7.54605 29.9178 6.88851V3.63215C30.8102 3.35035 31.7495 3.17814 32.6888 3.14683V9.69086C32.6888 10.3327 33.2055 10.865 33.863 10.865C34.5049 10.865 35.0372 10.3327 35.0372 9.69086V3.14683C35.9452 3.20945 36.8219 3.36601 37.6673 3.63215V6.88851C37.6673 7.53039 38.184 8.06268 38.8415 8.06268C39.4834 8.06268 40.0157 7.54605 40.0157 6.88851V4.66542C43.3033 6.60671 45.5264 10.1918 45.5264 14.2936V14.9668H22.0587V14.2936C22.0587 13.4169 22.1683 12.5402 22.3718 11.6791C22.5284 11.0529 22.137 10.411 21.5108 10.2701C20.8845 10.1136 20.2427 10.505 20.1018 11.1312C19.9922 11.5852 19.9139 12.0549 19.8513 12.5089C19.8513 12.6341 19.8356 12.7594 19.8043 12.8846C19.7573 13.3543 19.726 13.8083 19.726 14.2779V15.0294C18.3953 15.3269 17.3933 16.5167 17.3933 17.9413C17.3933 19.1312 18.0978 20.1644 19.1155 20.6341V22.7006C19.1155 24.3132 20.3366 25.6282 21.8865 25.8161C22.2153 28.6185 23.546 31.186 25.6282 32.9864C26.0196 33.3151 26.411 33.6282 26.818 33.8944V36.3367L15.2172 38.5911C15.1859 38.5911 15.1389 38.6067 15.1076 38.6224C9.15851 40.3758 6.27789 43.6165 6.27789 48.5637V62.1997C2.66145 63.3112 0.0156555 66.6772 0.0156555 70.6693C0.0156555 75.5539 3.99217 79.5147 8.86106 79.5147H71.1546C76.0391 79.5147 80 75.5382 80 70.6693C80 66.6772 77.3542 63.2956 73.7378 62.1997ZM52.6341 41.1273C57.002 42.5989 58.9746 44.9159 58.9746 48.5637V50.8807H52.6341V41.1273ZM19.726 17.9413C19.726 17.5969 20.0078 17.3151 20.3522 17.3151H47.2016C47.546 17.3151 47.8278 17.5969 47.8278 17.9413C47.8278 18.2858 47.546 18.5676 47.2016 18.5676H20.3679C20.0235 18.5676 19.726 18.2858 19.726 17.9413ZM24.1409 24.6263C24.1252 23.9844 23.6086 23.4834 22.9667 23.4834H22.2309C21.7926 23.4834 21.4481 23.139 21.4481 22.7006V20.9159H46.1213V22.7006C46.1213 23.139 45.7769 23.4834 45.3386 23.4834H44.6027C43.9609 23.4834 43.4442 24.0001 43.4286 24.6263C43.3659 27.2095 42.2857 29.6048 40.4227 31.2016C38.4971 32.8611 36.2583 33.7222 33.7847 33.7535C31.3112 33.7222 29.0724 32.8611 27.1468 31.2016C25.2994 29.6048 24.2035 27.2095 24.1409 24.6263ZM38.4344 35.1781V37.3073C38.4344 39.8592 36.3522 41.9413 33.8004 41.9413C31.2485 41.9413 29.1663 39.8592 29.1663 37.3073V35.1781C30.6067 35.7731 32.1566 36.0862 33.7847 36.1018H33.816C35.4286 36.0862 36.9785 35.7731 38.4344 35.1781ZM26.9432 38.7006C27.5851 41.8787 30.4188 44.2897 33.7847 44.2897C37.1507 44.2897 39.9843 41.8944 40.6262 38.7006L44.6027 39.4678V46.0901C44.6027 46.732 44.0861 47.2486 43.4442 47.2486H24.1409C23.499 47.2486 22.9824 46.732 22.9824 46.0901V39.4678L26.9432 38.7006ZM17.2838 40.5793L20.6184 39.9218V46.0901C20.6184 48.0314 22.184 49.5969 24.1252 49.5969H43.4286C45.3542 49.5969 46.9354 48.0314 46.9354 46.0901V39.9218L50.2701 40.5793V50.8807H45.2133C44.0391 50.8807 43.0998 51.8357 43.0998 52.9942V61.8083H17.2838V40.5793ZM8.61057 48.5637C8.61057 44.9159 10.5675 42.5989 14.9511 41.1273V50.8807H8.61057V48.5637ZM8.61057 53.229H14.9511V61.8083H8.8454C8.76712 61.8083 8.68885 61.8083 8.59491 61.8083V53.229H8.61057ZM71.1546 77.1664H8.8454C5.26027 77.1664 2.33268 74.2545 2.33268 70.6537C2.33268 67.0686 5.24462 64.141 8.8454 64.141H71.1389C74.7241 64.141 77.6517 67.0529 77.6517 70.6537C77.6517 74.2545 74.7397 77.1664 71.1546 77.1664Z" fill="#001489"/>
<path d="M71.1546 66.1918H8.8454C6.38747 66.1918 4.3679 68.1957 4.3679 70.6693C4.3679 73.1272 6.37182 75.1468 8.8454 75.1468H71.1389C73.5969 75.1468 75.6164 73.1429 75.6164 70.6693C75.6164 68.1957 73.6125 66.1918 71.1546 66.1918ZM8.8454 72.7828C7.79648 72.7828 6.91976 72.0157 6.74755 70.998C6.74755 70.9824 6.74755 70.9824 6.74755 70.9667C6.74755 70.9511 6.74755 70.9354 6.74755 70.9198C6.74755 70.9041 6.74755 70.9041 6.74755 70.8885C6.74755 70.8571 6.74755 70.8102 6.7319 70.7789C6.7319 70.7319 6.7319 70.6849 6.7319 70.638C6.7319 70.591 6.7319 70.544 6.7319 70.4971C6.7319 70.4657 6.7319 70.4188 6.74755 70.3875C6.74755 70.3718 6.74755 70.3718 6.74755 70.3562C6.74755 70.3405 6.74755 70.3249 6.74755 70.3092C6.74755 70.2935 6.74755 70.2935 6.74755 70.2779C6.91976 69.2759 7.79648 68.5088 8.8454 68.5088C10.0196 68.5088 10.9746 69.4638 10.9746 70.638C10.9746 71.8121 10.0196 72.7828 8.8454 72.7828ZM24.5479 72.7828H12.7906C13.135 72.1566 13.3229 71.4207 13.3229 70.6536C13.3229 69.8865 13.135 69.1663 12.7906 68.5245H24.5479C24.2035 69.1507 24.0156 69.8865 24.0156 70.6536C24.0156 71.4207 24.2035 72.1566 24.5479 72.7828ZM28.4775 72.7828C27.3033 72.7828 26.3483 71.8278 26.3483 70.6536C26.3483 69.4794 27.3033 68.5245 28.4775 68.5245C29.6517 68.5245 30.6066 69.4794 30.6066 70.6536C30.6066 71.8278 29.6517 72.7828 28.4775 72.7828ZM47.5929 72.7828H32.407C32.7515 72.1566 32.9393 71.4207 32.9393 70.6536C32.9393 69.8865 32.7515 69.1663 32.407 68.5245H47.5929C47.2485 69.1507 47.0607 69.8865 47.0607 70.6536C47.0607 71.4207 47.2485 72.1566 47.5929 72.7828ZM51.5225 72.7828C50.3483 72.7828 49.3933 71.8278 49.3933 70.6536C49.3933 69.4794 50.3483 68.5245 51.5225 68.5245C52.6967 68.5245 53.6517 69.4794 53.6517 70.6536C53.6517 71.8278 52.6967 72.7828 51.5225 72.7828ZM55.452 72.7828C55.7965 72.1566 55.9843 71.4207 55.9843 70.6536C55.9843 69.8865 55.7965 69.1663 55.452 68.5245H67.2094C66.865 69.1507 66.6771 69.8865 66.6771 70.6536C66.6771 71.4207 66.865 72.1409 67.2094 72.7828H55.452ZM71.1546 72.7828C69.9804 72.7828 69.0254 71.8278 69.0254 70.6536C69.0254 69.4794 69.9804 68.5245 71.1546 68.5245C72.3288 68.5245 73.2837 69.4794 73.2837 70.6536C73.2837 71.8278 72.3288 72.7828 71.1546 72.7828Z" fill="#FFB100"/>
</svg>
