<svg width="80" height="72" viewBox="0 0 80 72" fill="none" xmlns="http://www.w3.org/2000/svg">
<g clip-path="url(#clip0)">
<path d="M75.8982 15.7032C75.726 13.3546 74.0196 11.284 71.546 10.4225L42.5519 0.291823C40.9237 -0.277938 39.1389 -0.277938 37.5108 0.291823L8.51664 10.4086C6.04306 11.2702 4.3366 13.3407 4.16439 15.6893C4.00784 17.9266 3.44424 29.7527 8.28181 42.2318C10.7084 48.4714 14.09 53.9189 18.3797 58.4075C23.5303 63.8133 29.9961 67.8572 37.589 70.4558C38.3718 70.7199 39.2016 70.8588 40.0313 70.8588C40.8611 70.8588 41.6908 70.7199 42.4736 70.4558C50.0822 67.8572 56.548 63.7994 61.683 58.4075C65.957 53.9189 69.3542 48.4714 71.7808 42.2318C76.6184 29.7527 76.0548 17.9405 75.8982 15.7032ZM69.5577 41.5648C67.2251 47.5681 63.9843 52.7794 59.8982 57.0734C55.0137 62.2013 48.8611 66.0506 41.6282 68.5242C40.5949 68.8716 39.4677 68.8716 38.4344 68.5242C31.2016 66.0506 25.0646 62.2013 20.1644 57.0734C16.0783 52.7794 12.8219 47.5681 10.5049 41.5648C5.80823 29.4608 6.35617 18.01 6.51273 15.8282C6.62232 14.2857 7.74952 12.9238 9.3777 12.3541L38.3718 2.22345C38.9041 2.0428 39.4677 1.94552 40.0313 1.94552C40.5949 1.94552 41.1585 2.0428 41.6908 2.22345L70.7006 12.3541C72.3288 12.9238 73.456 14.2857 73.5656 15.8282C73.7065 18.01 74.2544 29.4608 69.5577 41.5648Z" fill="#001489"/>
<path d="M64.7984 15.453L42.0978 7.53193C40.7671 7.07334 39.2955 7.07334 37.9648 7.53193L15.2642 15.453C13.2446 16.1617 11.8356 17.8571 11.6947 19.7887C11.6008 21.1784 11.4442 24.9305 12.1487 29.8777C12.227 30.4475 13.3385 33.8382 13.9804 33.7687C14.6223 33.6993 14.5597 30.1973 14.4814 29.6276C13.8082 24.8471 13.9491 21.2479 14.043 19.9277C14.1213 18.8021 14.9354 17.8154 16.1252 17.3985L38.8258 9.47746C39.6086 9.21342 40.454 9.21342 41.2368 9.47746L63.9374 17.3985C65.1115 17.8154 65.9413 18.8021 66.0195 19.9277C66.1761 22.1651 67.1781 42.1067 53.2289 54.4191C52.7749 54.8221 52.7593 55.4892 53.2289 55.8922C53.4638 56.1006 53.7612 56.1979 54.0587 56.1979C54.3561 56.1979 54.6536 56.1006 54.8884 55.8922C69.5734 42.9405 68.5401 22.1234 68.3679 19.7887C68.227 17.871 66.818 16.1617 64.7984 15.453Z" fill="#001489"/>
<path d="M49.1898 57.4487C46.7789 58.9912 44.0861 60.2836 41.1898 61.2702C40.4384 61.5204 39.6243 61.5204 38.8728 61.2702C23.5303 56.0312 17.6282 43.7327 15.3738 34.3525C15.2955 34.0468 14.5597 31.4342 14.4814 29.7249C14.4344 28.2797 13.3386 27.9878 13.0411 28.0434C12.7436 28.099 11.9765 28.5298 12.1487 29.975C12.3679 31.7816 12.9941 34.4914 13.0568 34.7833C15.4208 44.6777 21.6673 57.6432 38.0117 63.2157C38.6536 63.4381 39.3425 63.5493 40.0157 63.5493C40.6889 63.5493 41.3777 63.4381 42.0196 63.2157C45.1037 62.1596 47.9687 60.7977 50.5519 59.144C50.8337 58.9634 54.9354 56.0034 55.0607 55.7255C55.1546 55.4892 56.2505 53.4186 56.0783 53.1824C55.8591 52.9184 53.6047 54.0857 53.3542 54.2941C52.9785 54.586 49.409 57.3097 49.1898 57.4487Z" fill="#001489"/>
<path d="M40.0313 19.8444C30.3875 19.8444 22.544 26.8066 22.544 35.3669C22.544 43.9272 30.3875 50.8894 40.0313 50.8894C49.6752 50.8894 57.5186 43.9272 57.5186 35.3669C57.5186 26.8066 49.6752 19.8444 40.0313 19.8444ZM40.0313 48.8049C31.6869 48.8049 24.8924 42.7738 24.8924 35.3669C24.8924 27.96 31.6869 21.9289 40.0313 21.9289C48.3757 21.9289 55.1703 27.96 55.1703 35.3669C55.1703 42.7738 48.3757 48.8049 40.0313 48.8049Z" fill="#FFB100"/>
<path d="M51.1938 31.323C51.1625 30.2946 50.6302 29.308 49.7534 28.627L49.4716 28.4047C47.7808 27.0984 45.2446 27.2096 43.6947 28.6409L37.4638 34.408L35.8983 33.1573C34.1762 31.7816 31.5304 31.9066 29.9805 33.4214C29.2133 34.1718 28.8376 35.1445 28.9002 36.1729C28.9785 37.1873 29.4951 38.1045 30.3718 38.7716L35.1155 42.343C35.9139 42.9405 36.8689 43.2324 37.8239 43.2324C38.8885 43.2324 39.9531 42.8711 40.7671 42.1484L49.9413 34.0884C50.7711 33.3658 51.2251 32.3513 51.1938 31.323ZM48.2818 32.6154L39.1077 40.6754C38.4188 41.2729 37.3542 41.3146 36.6184 40.7588L31.8748 37.1873C31.4834 36.8955 31.2642 36.4925 31.2329 36.0478C31.2016 35.6031 31.3738 35.1723 31.7026 34.8388C32.0626 34.4775 32.5636 34.2968 33.0646 34.2968C33.503 34.2968 33.9413 34.4358 34.3014 34.7137L36.0235 36.0895C36.8846 36.7843 38.1996 36.7427 38.9981 35.9922L45.3699 30.0862C46.0431 29.4608 47.1703 29.4052 47.9061 29.975L48.1879 30.1973C48.5793 30.5031 48.7985 30.92 48.8298 31.3786C48.8454 31.851 48.6576 32.2818 48.2818 32.6154Z" fill="#001489"/>
</g>
<defs>
<clipPath id="clip0">
<rect width="80" height="71.0117" fill="white"/>
</clipPath>
</defs>
</svg>
