<svg width="366" height="490" viewBox="0 0 366 490" fill="none" xmlns="http://www.w3.org/2000/svg">
<path d="M141.303 173.412L79.7032 247.393L78.9714 159.443L140.571 123.623L141.303 173.412Z" fill="#CCCCCC"/>
<path d="M79.7104 247.942C79.6474 247.952 79.5831 247.952 79.5201 247.942C79.4159 247.902 79.326 247.832 79.262 247.741C79.1981 247.649 79.1631 247.541 79.1615 247.43L78.4298 159.479C78.428 159.382 78.4522 159.286 78.4998 159.201C78.5474 159.116 78.6166 159.046 78.7005 158.996L140.3 123.14C140.382 123.091 140.475 123.065 140.571 123.064C140.666 123.062 140.76 123.086 140.843 123.133C140.927 123.18 140.996 123.248 141.045 123.33C141.093 123.412 141.119 123.506 141.12 123.601L141.851 173.398C141.855 173.463 141.847 173.528 141.825 173.589C141.804 173.651 141.77 173.708 141.727 173.756L80.1275 247.744C80.0761 247.805 80.0123 247.854 79.9404 247.888C79.8684 247.922 79.79 247.941 79.7104 247.942V247.942ZM79.5274 159.758L80.2592 245.893L140.768 173.222L140.037 124.567L79.5274 159.758Z" fill="#444444"/>
<path d="M281.983 297.321L139.839 280.951L140.571 123.689L281.251 132.522L281.983 297.321Z" fill="#CCCCCC"/>
<path d="M281.983 297.869H281.917L139.766 281.5C139.633 281.482 139.51 281.417 139.422 281.316C139.333 281.215 139.284 281.086 139.283 280.951L140.015 123.682C140.016 123.607 140.032 123.534 140.062 123.466C140.092 123.398 140.136 123.337 140.19 123.287C140.244 123.234 140.309 123.194 140.379 123.169C140.45 123.144 140.525 123.134 140.6 123.14L281.288 131.973C281.427 131.982 281.557 132.044 281.653 132.146C281.748 132.248 281.801 132.382 281.8 132.521L282.532 297.321C282.532 297.398 282.516 297.474 282.484 297.545C282.453 297.616 282.407 297.679 282.349 297.73C282.247 297.818 282.118 297.868 281.983 297.869V297.869ZM140.388 280.461L281.427 296.706L280.695 133.041L141.112 124.26L140.388 280.461Z" fill="#444444"/>
<path d="M144.091 124.582L140.783 126.66V128.438L146.454 124.713L144.091 124.582Z" fill="#BFBFBF"/>
<path d="M154.094 125.153L140.051 134.936V136.722L156.457 125.284L154.094 125.153Z" fill="#BFBFBF"/>
<path d="M164.097 125.723L140.051 142.481V144.266L166.468 125.862L164.097 125.723Z" fill="#BFBFBF"/>
<path d="M174.107 126.302L140.051 150.032V151.811L176.471 126.433L174.107 126.302Z" fill="#BFBFBF"/>
<path d="M184.118 126.872L140.051 157.577V159.362L186.481 127.004L184.118 126.872Z" fill="#BFBFBF"/>
<path d="M194.121 127.443L140.051 165.121V166.907L196.484 127.582L194.121 127.443Z" fill="#BFBFBF"/>
<path d="M204.131 128.021L140.051 172.666V174.451L206.495 128.153L204.131 128.021Z" fill="#BFBFBF"/>
<path d="M214.134 128.592L140.051 180.217V182.003L216.498 128.731L214.134 128.592Z" fill="#BFBFBF"/>
<path d="M224.145 129.163L140.051 187.762V189.547L226.509 129.302L224.145 129.163Z" fill="#BFBFBF"/>
<path d="M234.148 129.741L140.051 195.306V197.092L236.512 129.872L234.148 129.741Z" fill="#BFBFBF"/>
<path d="M244.159 130.312L140.051 202.858V204.636L246.522 130.451L244.159 130.312Z" fill="#BFBFBF"/>
<path d="M254.162 130.89L140.051 210.403V212.188L256.525 131.021L254.162 130.89Z" fill="#BFBFBF"/>
<path d="M264.172 131.46L140.051 217.947V219.732L266.536 131.599L264.172 131.46Z" fill="#BFBFBF"/>
<path d="M274.175 132.031L140.051 225.499V227.277L276.539 132.17L274.175 132.031Z" fill="#BFBFBF"/>
<path d="M281.464 134.504L140.051 233.043V234.828L281.464 136.283V134.504Z" fill="#BFBFBF"/>
<path d="M281.464 142.049L140.051 240.587V242.373L281.464 143.834V142.049Z" fill="#BFBFBF"/>
<path d="M281.464 149.593L140.051 248.139V249.917L281.464 151.379V149.593Z" fill="#BFBFBF"/>
<path d="M281.464 157.138L140.051 255.684V257.469L281.464 158.923V157.138Z" fill="#BFBFBF"/>
<path d="M281.464 164.689L140.051 263.228V265.014L281.464 166.468V164.689Z" fill="#BFBFBF"/>
<path d="M281.464 172.234L140.051 270.78V272.558L281.464 174.019V172.234Z" fill="#BFBFBF"/>
<path d="M281.464 179.778L140.051 278.324V280.11L281.464 181.564V179.778Z" fill="#BFBFBF"/>
<path d="M281.464 187.33L145.913 281.785L148.005 282.115L281.464 189.108V187.33Z" fill="#BFBFBF"/>
<path d="M281.463 194.86L154.752 283.161L156.867 283.483L281.463 196.66V194.86Z" fill="#BFBFBF"/>
<path d="M281.463 202.404L163.614 284.53L165.729 284.859L281.463 204.204V202.404Z" fill="#BFBFBF"/>
<path d="M281.463 209.949L172.475 285.905L174.568 286.227L281.463 211.734V209.949Z" fill="#BFBFBF"/>
<path d="M281.463 217.5L181.337 287.274L183.422 287.603L281.463 219.279V217.5Z" fill="#BFBFBF"/>
<path d="M281.464 225.045L190.191 288.649L192.284 288.971L281.464 226.83V225.045Z" fill="#BFBFBF"/>
<path d="M281.464 232.589L199.053 290.018L201.146 290.347L281.464 234.375V232.589Z" fill="#BFBFBF"/>
<path d="M281.464 240.141L207.915 291.393L210.007 291.715L281.464 241.919V240.141Z" fill="#BFBFBF"/>
<path d="M281.464 247.686L216.776 292.769L218.869 293.091L281.464 249.471V247.686Z" fill="#BFBFBF"/>
<path d="M281.464 255.23L225.638 294.138L227.731 294.46L281.464 257.015V255.23Z" fill="#BFBFBF"/>
<path d="M281.464 262.782L234.492 295.513L236.585 295.835L281.464 264.56V262.782Z" fill="#BFBFBF"/>
<path d="M281.463 270.326L243.354 296.882L245.446 297.211L281.463 272.112V270.326Z" fill="#BFBFBF"/>
<path d="M281.463 277.871L252.215 298.257L254.308 298.579L281.463 279.656V277.871Z" fill="#BFBFBF"/>
<path d="M281.463 285.422L261.077 299.626L263.17 299.955L281.463 287.201V285.422Z" fill="#BFBFBF"/>
<path d="M281.463 292.967L269.938 301.001L272.031 301.323L281.463 294.752V292.967Z" fill="#BFBFBF"/>
<path d="M282.195 297.174V295.389L279.524 297.255L281.617 297.577L282.195 297.174Z" fill="#BFBFBF"/>
<path d="M281.983 297.869H281.917L139.766 281.5C139.633 281.482 139.51 281.417 139.422 281.316C139.333 281.215 139.284 281.086 139.283 280.951L140.015 123.682C140.016 123.607 140.032 123.534 140.062 123.466C140.092 123.398 140.136 123.337 140.19 123.287C140.244 123.234 140.309 123.194 140.379 123.169C140.45 123.144 140.525 123.134 140.6 123.14L281.288 131.973C281.427 131.982 281.557 132.044 281.653 132.146C281.748 132.248 281.801 132.382 281.8 132.521L282.532 297.321C282.532 297.398 282.516 297.474 282.484 297.545C282.453 297.616 282.407 297.679 282.349 297.73C282.247 297.818 282.118 297.868 281.983 297.869V297.869ZM140.388 280.461L281.427 296.706L280.695 133.041L141.112 124.26L140.388 280.461Z" fill="#444444"/>
<path d="M282.239 297.057L225.162 354.712V172.395L282.239 132.126V297.057Z" fill="#CCCCCC"/>
<path d="M225.162 355.261C225.092 355.26 225.023 355.248 224.957 355.225C224.856 355.183 224.769 355.112 224.708 355.021C224.646 354.93 224.614 354.822 224.613 354.713V172.395C224.614 172.307 224.635 172.221 224.676 172.143C224.717 172.066 224.776 171.999 224.847 171.949L281.925 131.702C282.007 131.644 282.104 131.61 282.204 131.604C282.305 131.598 282.405 131.619 282.495 131.666C282.584 131.713 282.658 131.783 282.71 131.87C282.762 131.956 282.789 132.055 282.788 132.156V297.094C282.788 297.238 282.733 297.377 282.634 297.482L225.557 355.137C225.503 355.184 225.441 355.219 225.373 355.24C225.305 355.262 225.233 355.269 225.162 355.261V355.261ZM225.711 172.695V353.381L281.727 296.831V133.18L225.711 172.695Z" fill="#444444"/>
<path d="M225.162 354.713L79.3591 333.543V159.194L225.162 172.717V354.713Z" fill="#F9F9F9"/>
<path d="M225.162 355.261H225.082L79.2787 334.084C79.1475 334.065 79.0277 333.998 78.9416 333.898C78.8555 333.797 78.8089 333.668 78.8103 333.535V159.194C78.8167 159.115 78.8395 159.039 78.8773 158.969C78.9151 158.9 78.9671 158.839 79.0299 158.791C79.0858 158.74 79.1518 158.702 79.2237 158.678C79.2955 158.654 79.3716 158.645 79.447 158.652L225.25 172.183C225.387 172.194 225.515 172.257 225.607 172.359C225.7 172.461 225.75 172.594 225.747 172.731V354.72C225.749 354.799 225.732 354.878 225.699 354.95C225.666 355.022 225.618 355.086 225.557 355.137C225.503 355.183 225.44 355.218 225.372 355.24C225.304 355.261 225.233 355.268 225.162 355.261V355.261ZM79.908 333.067L224.65 354.083V173.222L79.908 159.794V333.067Z" fill="#444444"/>
<path d="M197.165 261.282V250.027H200.831V253.693H209.21V257.615H200.831V261.282H197.165Z" fill="#99C6D6"/>
<path d="M197.297 216.125V219.528V223.457H209.334V219.528H201.226V216.125H209.334V212.203H201.226H197.297V216.125Z" fill="#99C6D6"/>
<path d="M202.009 187.33L197.297 183.927V188.377L202.009 191.779V192.306H197.297V196.228H209.334V192.306H204.885V191.26L209.334 189.167V184.454L203.319 188.113L202.009 187.33Z" fill="#99C6D6"/>
<path d="M197.297 202.251V205.909L209.334 211.149V206.956L207.241 206.436V201.965L209.334 201.182V196.997L197.297 202.251ZM204.365 205.397L201.233 204.087L204.38 203.041L204.365 205.397Z" fill="#99C6D6"/>
<path d="M197.297 241.78V245.439L209.334 250.671V246.485L207.241 245.959V241.509L209.334 240.726V236.541L197.297 241.78ZM204.365 244.919L201.219 243.61L204.365 242.563V244.919Z" fill="#99C6D6"/>
<path d="M197.297 229.077V235.494H209.334V231.572H206.451V229.077C206.451 228.476 206.332 227.88 206.102 227.325C205.872 226.77 205.534 226.265 205.109 225.84C204.683 225.416 204.178 225.079 203.623 224.849C203.067 224.62 202.471 224.502 201.87 224.503V224.503C201.27 224.503 200.675 224.622 200.12 224.852C199.565 225.081 199.061 225.418 198.636 225.843C198.211 226.268 197.875 226.772 197.645 227.327C197.415 227.882 197.297 228.476 197.297 229.077V229.077ZM203.319 229.845V231.572H200.502V229.845C200.502 229.469 200.651 229.108 200.918 228.841C201.184 228.575 201.545 228.426 201.921 228.426C202.298 228.426 202.659 228.575 202.925 228.841C203.191 229.108 203.341 229.469 203.341 229.845H203.319Z" fill="#99C6D6"/>
<path d="M138.427 97.4776L153.867 93.8188C153.867 93.8188 161.916 131.87 192.833 114.308C223.75 96.7459 200.151 147.969 200.151 147.969C200.151 147.969 132.514 153.091 130.312 153.091C128.109 153.091 97.9605 147.969 102.373 142.847C106.785 137.724 123.696 114.308 125.899 112.113C128.102 109.918 138.427 97.4776 138.427 97.4776Z" fill="#CCCCCC"/>
<path d="M130.341 153.669C128.511 153.669 103.829 149.615 101.605 144.756C101.431 144.389 101.375 143.977 101.443 143.577C101.511 143.176 101.7 142.807 101.985 142.517C104.18 139.949 109.53 132.814 114.688 125.906C119.847 118.999 124.421 112.874 125.54 111.754C127.736 109.603 137.9 97.2799 137.98 97.1189C138.06 97.0297 138.165 96.9661 138.28 96.936L153.72 93.2772C153.864 93.2464 154.013 93.2727 154.138 93.3504C154.199 93.3896 154.253 93.4409 154.294 93.5012C154.336 93.5616 154.365 93.6298 154.379 93.7016C154.416 93.8773 158.287 111.432 170.266 116.811C176.581 119.642 184.074 118.64 192.54 113.825C199.638 109.786 204.395 109.01 207.08 111.469C214.347 118.135 201.226 146.966 200.663 148.196C200.619 148.283 200.554 148.358 200.473 148.413C200.393 148.468 200.299 148.502 200.202 148.51C197.465 148.73 132.543 153.669 130.341 153.669ZM138.734 97.9971C137.527 99.4606 128.416 110.437 126.294 112.53C125.233 113.591 120.528 119.891 115.545 126.565C110.378 133.48 105.037 140.637 102.797 143.234C102.65 143.365 102.549 143.539 102.509 143.732C102.47 143.925 102.494 144.125 102.578 144.303C104.444 148.371 127.663 152.572 130.319 152.572C132.397 152.572 194.714 147.859 199.792 147.449C201.175 144.361 212.656 118.084 206.334 112.288C204.087 110.225 199.624 111.066 193.082 114.784C184.301 119.789 176.464 120.806 169.812 117.82C158.396 112.698 154.196 97.6092 153.435 94.4846L138.734 97.9971Z" fill="#444444"/>
<path d="M143 96.2702L133.297 103.002C132.112 104.415 130.839 105.929 129.638 107.312L146.893 95.3481L143 96.2702Z" fill="#BFBFBF"/>
<path d="M153.977 96.2043L118.786 120.616L116.006 124.326L154.438 97.6679C154.262 97.1337 154.108 96.6434 153.977 96.2043Z" fill="#BFBFBF"/>
<path d="M156.201 102.212L106.998 136.341C105.915 137.761 104.92 139.063 104.071 140.161L156.845 103.573C156.596 103.105 156.399 102.651 156.201 102.212Z" fill="#BFBFBF"/>
<path d="M159.143 107.715L103.529 146.293C104.002 146.577 104.49 146.834 104.993 147.062L159.97 108.93C159.677 108.527 159.406 108.125 159.143 107.715Z" fill="#BFBFBF"/>
<path d="M162.97 112.61L110.422 149.059L112.23 149.586L164.046 113.649C163.672 113.313 163.314 112.969 162.97 112.61Z" fill="#BFBFBF"/>
<path d="M168.107 116.598L118.347 151.093C119.013 151.247 119.672 151.386 120.308 151.518L169.578 117.345C169.08 117.118 168.59 116.862 168.107 116.598Z" fill="#BFBFBF"/>
<path d="M175.695 118.874L126.894 152.725C127.78 152.864 128.504 152.967 129.031 153.025L178.212 118.918C177.373 118.955 176.533 118.94 175.695 118.874V118.874Z" fill="#BFBFBF"/>
<path d="M195.65 112.581L138.017 152.557L140.885 152.352L200.743 110.832C198.981 111.206 197.27 111.793 195.65 112.581V112.581Z" fill="#BFBFBF"/>
<path d="M206.707 112.442L150.142 151.671L153.069 151.459L207.483 113.722C207.284 113.262 207.023 112.832 206.707 112.442V112.442Z" fill="#BFBFBF"/>
<path d="M208.229 118.933L162.326 150.742L165.253 150.53L208.134 120.791C208.171 120.169 208.214 119.54 208.229 118.933Z" fill="#BFBFBF"/>
<path d="M206.949 127.37L174.517 149.864L177.4 149.645L206.392 129.521C206.59 128.789 206.78 128.058 206.949 127.37Z" fill="#BFBFBF"/>
<path d="M204.073 136.912L186.716 148.949L189.643 148.73L203.246 139.29C203.495 138.529 203.788 137.731 204.073 136.912Z" fill="#BFBFBF"/>
<path d="M199.953 147.318L198.928 148.049L199.66 147.991C199.66 147.991 199.77 147.735 199.953 147.318Z" fill="#BFBFBF"/>
<path d="M130.341 153.669C128.511 153.669 103.829 149.615 101.605 144.756C101.431 144.389 101.375 143.977 101.443 143.577C101.511 143.176 101.7 142.807 101.985 142.517C104.18 139.949 109.53 132.814 114.688 125.906C119.847 118.999 124.421 112.874 125.54 111.754C127.736 109.603 137.9 97.2799 137.98 97.1189C138.06 97.0297 138.165 96.9661 138.28 96.936L153.72 93.2772C153.864 93.2464 154.013 93.2727 154.138 93.3504C154.199 93.3896 154.253 93.4409 154.294 93.5012C154.336 93.5616 154.365 93.6298 154.379 93.7016C154.416 93.8773 158.287 111.432 170.266 116.811C176.581 119.642 184.074 118.64 192.54 113.825C199.638 109.786 204.395 109.01 207.08 111.469C214.347 118.135 201.226 146.966 200.663 148.196C200.619 148.283 200.554 148.358 200.473 148.413C200.393 148.468 200.299 148.502 200.202 148.51C197.465 148.73 132.543 153.669 130.341 153.669ZM138.734 97.9971C137.527 99.4606 128.416 110.437 126.294 112.53C125.233 113.591 120.528 119.891 115.545 126.565C110.378 133.48 105.037 140.637 102.797 143.234C102.65 143.365 102.549 143.539 102.509 143.732C102.47 143.925 102.494 144.125 102.578 144.303C104.444 148.371 127.663 152.572 130.319 152.572C132.397 152.572 194.714 147.859 199.792 147.449C201.175 144.361 212.656 118.084 206.334 112.288C204.087 110.225 199.624 111.066 193.082 114.784C184.301 119.789 176.464 120.806 169.812 117.82C158.396 112.698 154.196 97.6092 153.435 94.4846L138.734 97.9971Z" fill="#444444"/>
<path d="M153.589 93.504L136.985 97.2506C136.985 97.2506 157.474 73.4538 177.912 77.2443C177.912 77.2443 158.06 76.8345 153.589 93.504Z" fill="#0084B2"/>
<path d="M239.636 137.029C239.5 137.03 239.369 136.98 239.268 136.89C239.166 136.799 239.102 136.674 239.087 136.539C235.392 102.146 209.48 96.0873 209.217 96.036C209.074 96.005 208.95 95.9185 208.871 95.7957C208.792 95.6729 208.765 95.5238 208.796 95.3811C208.827 95.2385 208.914 95.114 209.037 95.0351C209.159 94.9562 209.309 94.9293 209.451 94.9604C209.722 95.0189 236.402 101.246 240.185 136.422C240.202 136.566 240.16 136.712 240.069 136.825C239.979 136.939 239.847 137.013 239.702 137.029H239.636Z" fill="#444444"/>
<path d="M249.12 106.837C252.325 103.244 255.633 99.7679 258.94 96.2847C259.76 95.4139 260.66 94.5797 261.523 93.7163C262.387 92.8528 263.331 92.0917 264.238 91.2722C265.145 90.4526 266.133 89.7282 267.106 88.9891C268.08 88.25 269.075 87.5256 270.107 86.8743C274.205 84.1635 278.593 81.9201 283.191 80.186C287.8 78.4429 292.588 77.2158 297.467 76.5272C299.909 76.2078 302.366 76.0197 304.829 75.9638C306.058 75.9638 307.287 75.9126 308.487 75.9638H312.036C316.724 75.8979 321.393 75.3684 325.976 74.3832C330.591 73.3786 335.102 71.9429 339.448 70.0951C343.905 68.3023 348.354 66.4948 352.869 64.8411C348.69 67.2339 344.446 69.4731 340.202 71.7196C338.06 72.861 335.862 73.8941 333.616 74.8149C331.348 75.7275 329.029 76.5093 326.672 77.1566C321.931 78.457 317.058 79.218 312.146 79.425C310.91 79.4762 309.695 79.4835 308.487 79.4909C307.28 79.4982 306.109 79.4909 304.946 79.5567C302.615 79.6407 300.289 79.8459 297.979 80.1714C293.335 80.7679 288.768 81.857 284.354 83.4204C279.927 84.9523 275.66 86.9129 271.614 89.2745C267.544 91.6668 263.711 94.4431 260.169 97.5653C256.518 100.726 252.874 103.851 249.12 106.837Z" fill="#0084B2"/>
<path d="M253.24 106.032C255.867 104.276 258.559 102.673 261.289 101.063C264.051 99.4621 266.938 98.0892 269.924 96.9579C275.945 94.6842 282.292 93.3921 288.722 93.1308C289.52 93.1308 290.325 93.1308 291.13 93.0869H293.442C294.964 93.0869 296.486 92.9918 298.008 92.8747C301.061 92.6405 304.097 92.235 307.104 91.66C308.604 91.3819 310.097 91.0014 311.641 90.6721L316.244 89.6843C319.325 89.0769 322.405 88.4549 325.53 87.9939C322.603 89.2379 319.676 90.3209 316.749 91.4112C313.822 92.5015 310.895 93.5479 307.785 94.4407C304.701 95.3299 301.548 95.9614 298.36 96.3286C296.764 96.5189 295.162 96.636 293.552 96.7018C292.762 96.7018 291.92 96.7018 291.167 96.753C290.413 96.8043 289.644 96.753 288.883 96.8189C282.775 97.0755 276.717 98.0406 270.831 99.6947C267.865 100.538 264.946 101.539 262.086 102.695C259.137 103.822 256.225 105 253.24 106.032Z" fill="#0084B2"/>
<path d="M226.289 169.336L114.579 153.369L134.087 130.341C144.551 119.73 162.999 105.519 162.999 90.577L162.86 89.8452L256.847 96.592C256.847 111.374 257.52 128.058 266.236 139.985L243.895 155.499L226.289 169.336Z" fill="#CCCCCC"/>
<path d="M226.289 169.885H226.216L114.498 153.918C114.401 153.905 114.309 153.865 114.233 153.803C114.157 153.741 114.099 153.659 114.067 153.567C114.032 153.476 114.022 153.377 114.037 153.281C114.052 153.184 114.093 153.094 114.154 153.018L133.67 129.982C135.566 128.058 137.68 126.053 139.92 123.938C149.945 114.425 162.414 102.658 162.458 90.6356L162.319 89.9843C162.302 89.9008 162.305 89.8146 162.326 89.7322C162.348 89.6498 162.388 89.5734 162.443 89.5086C162.499 89.4447 162.569 89.3948 162.648 89.363C162.727 89.3312 162.812 89.3185 162.897 89.3257L256.847 96.0432C256.985 96.0543 257.114 96.117 257.207 96.2187C257.301 96.3205 257.353 96.4538 257.352 96.5921C257.352 111.293 258.084 127.963 266.638 139.663C266.712 139.78 266.74 139.919 266.715 140.055C266.691 140.19 266.616 140.312 266.506 140.395L244.166 155.916L226.604 169.731C226.517 169.814 226.407 169.868 226.289 169.885V169.885ZM115.618 152.937L226.113 168.729L243.522 155.038L265.431 139.824C257.074 128.021 256.284 111.637 256.262 97.075L163.519 90.4453C163.523 90.4793 163.523 90.5137 163.519 90.5477C163.519 103.061 150.83 115.062 140.637 124.706C138.405 126.814 136.297 128.811 134.439 130.692L115.618 152.937Z" fill="#444444"/>
<path d="M162.86 89.8745L162.75 90.5331C162.75 90.899 162.75 91.2649 162.707 91.6234L164.558 90.3282L162.86 89.8745Z" fill="#BFBFBF"/>
<path d="M172.044 90.8479L161.067 98.546C160.709 99.4314 160.292 100.317 159.838 101.195L174.378 91.0089L172.044 90.8479Z" fill="#BFBFBF"/>
<path d="M181.849 91.5283L151.013 113.123C149.22 115.076 147.354 116.972 145.43 118.816L184.169 91.6893L181.849 91.5283Z" fill="#BFBFBF"/>
<path d="M191.655 92.209L133.824 132.712V134.497L193.975 92.3627L191.655 92.209Z" fill="#BFBFBF"/>
<path d="M201.46 92.8821L133.824 140.256V142.042L203.78 93.0431L201.46 92.8821Z" fill="#BFBFBF"/>
<path d="M133.824 147.808V149.586L213.586 93.7235L211.266 93.5625L133.824 147.808Z" fill="#BFBFBF"/>
<path d="M133.824 157.138L134.9 156.377L133.824 156.223V157.138Z" fill="#BFBFBF"/>
<path d="M221.072 94.2432L133.824 155.352V156.223L134.9 156.377L223.391 94.4042L221.072 94.2432Z" fill="#BFBFBF"/>
<path d="M230.877 94.9236L141.734 157.357L143.849 157.657L233.197 95.0846L230.877 94.9236Z" fill="#BFBFBF"/>
<path d="M240.683 95.6042L150.684 158.638L152.798 158.938L242.995 95.7652L240.683 95.6042Z" fill="#BFBFBF"/>
<path d="M250.488 96.2847L159.633 159.911L161.748 160.218L252.801 96.4457L250.488 96.2847Z" fill="#BFBFBF"/>
<path d="M257.22 100.895C257.22 100.302 257.22 99.7094 257.22 99.1167L256.759 99.4387C256.759 100.031 256.759 100.624 256.759 101.217L257.22 100.895Z" fill="#BFBFBF"/>
<path d="M256.752 99.4387L168.583 161.192L170.697 161.492L256.759 101.217C256.759 100.624 256.752 100.031 256.752 99.4387Z" fill="#BFBFBF"/>
<path d="M257.367 108.337C257.367 107.759 257.323 107.181 257.308 106.595L256.862 106.917C256.862 107.495 256.898 108.073 256.92 108.651L257.367 108.337Z" fill="#BFBFBF"/>
<path d="M256.847 106.917L177.532 162.45L179.647 162.75L256.92 108.6C256.898 108.073 256.847 107.495 256.847 106.917Z" fill="#BFBFBF"/>
<path d="M257.842 115.552C257.791 114.996 257.74 114.432 257.696 113.876L257.264 114.176C257.315 114.732 257.367 115.289 257.425 115.845L257.842 115.552Z" fill="#BFBFBF"/>
<path d="M257.264 114.154L186.481 163.731L188.596 164.031L257.425 115.823C257.367 115.289 257.315 114.732 257.264 114.154Z" fill="#BFBFBF"/>
<path d="M258.816 122.423C258.713 121.896 258.618 121.369 258.53 120.835L258.135 121.113C258.223 121.64 258.325 122.167 258.428 122.694L258.816 122.423Z" fill="#BFBFBF"/>
<path d="M258.135 121.113L195.431 165.019L197.545 165.326L258.428 122.687C258.311 122.204 258.223 121.64 258.135 121.113Z" fill="#BFBFBF"/>
<path d="M260.411 128.848C260.257 128.358 260.111 127.867 259.972 127.385L259.606 127.641C259.752 128.131 259.906 128.621 260.06 129.104L260.411 128.848Z" fill="#BFBFBF"/>
<path d="M259.606 127.626L204.38 166.307L206.495 166.607L260.06 129.097C259.906 128.607 259.774 128.116 259.606 127.626Z" fill="#BFBFBF"/>
<path d="M262.76 134.753C262.54 134.307 262.328 133.86 262.131 133.407L261.816 133.626C262.021 134.08 262.233 134.526 262.453 134.965L262.76 134.753Z" fill="#BFBFBF"/>
<path d="M261.816 133.626L213.33 167.573L215.444 167.873L262.453 134.944C262.233 134.519 262.021 134.08 261.816 133.626Z" fill="#BFBFBF"/>
<path d="M243.156 155.499L236.995 160.343L265.943 140.066C265.658 139.678 265.38 139.276 265.109 138.873L264.845 139.056C265.058 139.363 265.27 139.678 265.497 139.985L243.156 155.499Z" fill="#BFBFBF"/>
<path d="M236.994 160.343L243.156 155.499L265.496 139.985C265.27 139.678 265.057 139.363 264.845 139.056L222.279 168.868L224.394 169.168L236.994 160.343Z" fill="#BFBFBF"/>
<path d="M225.564 169.885H225.484L113.766 153.918C113.67 153.903 113.579 153.862 113.503 153.8C113.428 153.739 113.369 153.658 113.335 153.567C113.299 153.475 113.29 153.376 113.306 153.279C113.323 153.183 113.366 153.092 113.43 153.018L132.939 129.982C134.944 127.948 137.212 125.826 139.612 123.579C149.681 114.154 162.202 102.446 162.202 90.5332C162.198 90.5041 162.198 90.4746 162.202 90.4454L162.304 89.7868C162.329 89.6519 162.402 89.5306 162.51 89.4457C162.617 89.3609 162.752 89.3182 162.889 89.3258L256.847 96.0434C256.985 96.0544 257.114 96.1171 257.207 96.2188C257.301 96.3206 257.352 96.4539 257.352 96.5922V96.8702C257.352 111.447 257.352 127.97 265.906 139.663C265.95 139.721 265.982 139.788 265.999 139.858C266.017 139.928 266.02 140.002 266.009 140.073C265.982 140.217 265.901 140.346 265.782 140.432L243.441 155.952L225.879 169.768C225.789 169.839 225.679 169.879 225.564 169.885ZM114.886 152.938L225.382 168.729L242.783 155.038L264.699 139.824C256.298 127.948 256.254 111.579 256.254 97.0751L163.321 90.4308V90.5479C163.321 102.9 150.596 114.791 140.388 124.348C137.995 126.587 135.734 128.702 133.802 130.692L114.886 152.938Z" fill="#444444"/>
<path d="M162.45 91.6602C162.45 92.2602 162.45 92.8676 162.406 93.4749L162.772 93.2188C162.772 92.6114 162.809 92.0114 162.816 91.4041L162.45 91.6602Z" fill="#BFBFBF"/>
<path d="M163.965 99.6436C163.863 100.324 163.745 100.997 163.621 101.671L163.987 101.414C164.111 100.741 164.236 100.068 164.338 99.3875L163.965 99.6436Z" fill="#BFBFBF"/>
<path d="M161.814 108.703C161.558 109.493 161.287 110.276 160.994 111.059L161.375 110.788C161.667 110.012 161.938 109.229 162.194 108.432L161.814 108.703Z" fill="#BFBFBF"/>
<path d="M157.657 113.086C157.028 114.164 156.365 115.223 155.667 116.262L156.084 115.969C156.772 114.937 156.699 120.469 157.321 119.394L157.657 113.086Z" fill="#BFBFBF"/>
<path d="M254.652 142.81H254.601L136.839 132.214C136.724 132.203 136.615 132.156 136.529 132.08C136.442 132.004 136.382 131.902 136.356 131.79C136.33 131.678 136.34 131.561 136.383 131.455C136.426 131.349 136.501 131.259 136.597 131.197L149.037 123.44C159.172 113.152 162.26 105.468 162.26 90.5698L162.348 89.838C162.363 89.6969 162.432 89.5672 162.542 89.4768C162.651 89.3865 162.792 89.3428 162.933 89.3551L256.847 96.0433C256.985 96.0544 257.114 96.1171 257.207 96.2188C257.301 96.3206 257.353 96.4539 257.352 96.5921C257.352 107.012 260.579 110.876 265.914 117.264C267.648 119.343 269.609 121.699 271.768 124.618C271.812 124.683 271.843 124.756 271.858 124.833C271.873 124.909 271.872 124.988 271.856 125.065C271.839 125.142 271.805 125.215 271.757 125.278C271.709 125.341 271.648 125.393 271.578 125.431L260.682 131.109L255.113 142.503C255.072 142.591 255.007 142.667 254.925 142.721C254.844 142.775 254.75 142.806 254.652 142.81ZM138.551 131.263L254.308 141.683L259.774 130.465C259.824 130.357 259.91 130.27 260.016 130.216L270.502 124.75C268.526 122.094 266.704 119.906 265.08 117.967C259.862 111.71 256.386 107.547 256.298 97.1044L163.365 90.46V90.6356C163.365 105.834 160.189 113.701 149.776 124.253C149.748 124.283 149.716 124.31 149.681 124.333L138.551 131.263Z" fill="#444444"/>
<path d="M161.865 121.165C156.457 129.946 114.074 142.612 114.074 142.612L102.761 115.574L162.86 89.8745C162.86 89.8745 167.265 112.391 161.865 121.165Z" fill="#CCCCCC"/>
<path d="M114.074 143.161C113.966 143.16 113.861 143.128 113.771 143.068C113.682 143.008 113.611 142.924 113.569 142.825L102.256 115.75C102.226 115.683 102.209 115.611 102.207 115.538C102.205 115.465 102.218 115.392 102.245 115.324C102.271 115.255 102.311 115.193 102.362 115.141C102.413 115.088 102.474 115.046 102.541 115.018L162.641 89.3184C162.715 89.2822 162.796 89.2634 162.879 89.2634C162.961 89.2634 163.042 89.2822 163.116 89.3184C163.189 89.3547 163.251 89.4074 163.299 89.4722C163.348 89.537 163.38 89.6121 163.394 89.6916C163.577 90.621 167.785 112.523 162.326 121.377C156.867 130.231 115.969 142.539 114.235 143.059C114.189 143.104 114.134 143.139 114.074 143.161V143.161ZM103.478 115.859L114.389 141.961C119.05 140.542 156.465 128.907 161.397 120.901C166.109 113.24 163.109 94.4554 162.443 90.6722L103.478 115.859Z" fill="#444444"/>
<path d="M282.122 132.06L224.84 172.563L206.224 169.431L209.663 124.333L256.847 96.592L257.791 99.7386C261.801 111.988 271.241 123.47 281.412 131.329L282.122 132.06Z" fill="#CCCCCC"/>
<path d="M224.84 173.112H224.752L206.136 169.973C206.002 169.951 205.881 169.88 205.796 169.772C205.712 169.665 205.672 169.53 205.683 169.395L209.115 124.304C209.121 124.215 209.15 124.13 209.197 124.055C209.244 123.979 209.309 123.917 209.385 123.872L256.554 96.131C256.626 96.0871 256.706 96.0604 256.79 96.0529C256.873 96.0455 256.957 96.0574 257.035 96.0879C257.113 96.1184 257.183 96.1666 257.239 96.2287C257.296 96.2908 257.337 96.365 257.359 96.4457L258.303 99.5849C261.926 110.656 270.685 122.365 281.72 130.904L282.495 131.687C282.553 131.742 282.598 131.81 282.625 131.884C282.653 131.959 282.664 132.039 282.656 132.119C282.65 132.198 282.626 132.275 282.587 132.345C282.547 132.414 282.494 132.474 282.429 132.521L225.14 173.024C225.051 173.083 224.947 173.113 224.84 173.112V173.112ZM206.81 168.97L224.708 171.963L281.281 131.965L280.995 131.716C269.836 123.096 260.938 111.191 257.242 99.9069L256.511 97.4189L210.19 124.662L206.81 168.97Z" fill="#444444"/>
<path d="M78.9788 159.443C78.9788 159.443 102.666 132.251 102.666 117.316V116.079L208.551 124.128H209.715C209.715 138.902 213.066 156.487 221.781 168.392L224.708 172.388L78.9788 159.443Z" fill="#F9F9F9"/>
<path d="M224.708 172.958H224.65L78.9274 159.992C78.8265 159.982 78.7302 159.945 78.649 159.884C78.5677 159.823 78.5046 159.742 78.4664 159.648C78.4272 159.554 78.4154 159.452 78.4323 159.352C78.4491 159.252 78.4939 159.16 78.5615 159.084C78.7957 158.814 102.117 131.878 102.117 117.316V116.079C102.117 116.003 102.133 115.929 102.163 115.86C102.193 115.79 102.237 115.728 102.292 115.676C102.407 115.575 102.557 115.522 102.71 115.53L208.595 123.579H209.715C209.787 123.578 209.859 123.592 209.926 123.619C209.993 123.646 210.054 123.687 210.105 123.738C210.156 123.789 210.196 123.85 210.224 123.917C210.251 123.984 210.264 124.056 210.263 124.128C210.263 141.412 214.734 157.84 222.22 168.034L225.147 172.036C225.21 172.121 225.248 172.222 225.254 172.327C225.261 172.433 225.236 172.538 225.184 172.629C225.145 172.724 225.079 172.805 224.995 172.864C224.91 172.922 224.811 172.955 224.708 172.958V172.958ZM80.0836 158.989L223.545 171.758L221.349 168.736C210.6 154.05 209.239 133.443 209.188 124.699H208.551L103.214 116.65V117.294C103.214 130.985 84.0863 154.277 80.0836 158.989Z" fill="#444444"/>
<path d="M224.65 172.871C225.704 143.659 229.143 123.257 209.334 98.1801C206.473 94.5579 200.019 97.5581 200.129 102.146C200.129 103.573 195.738 159.062 154.657 147.515C137.571 142.693 131.651 115.406 137.571 98.5313L137.615 98.3996C139.151 94.0529 134.402 91.8138 130.165 94.8506C115.611 105.242 94.9676 126.587 81.8692 153.274C80.9911 155.06 80.0471 157.365 79.2056 159.201L224.65 172.871Z" fill="#F9F9F9"/>
<path d="M224.65 173.427H224.591L79.1689 159.743C79.0815 159.736 78.9972 159.707 78.9233 159.66C78.8493 159.613 78.788 159.548 78.7444 159.472C78.7046 159.394 78.6838 159.307 78.6838 159.22C78.6838 159.132 78.7046 159.045 78.7444 158.967C79.0737 158.235 79.4177 157.46 79.7689 156.655C80.3177 155.411 80.8739 154.123 81.408 152.996C94.7773 125.709 115.859 104.356 129.85 94.3676C132.302 92.6187 135.17 92.3699 137.007 93.7529C138.405 94.8067 138.829 96.5995 138.141 98.5459L138.09 98.6777C134.343 109.391 135.485 124.099 140.871 134.453C144.288 141.039 149.11 145.335 154.774 146.937C165.421 149.937 174.532 148.598 181.769 142.971C197.619 130.677 199.55 102.388 199.543 102.124C199.47 99.1972 201.636 97.1483 203.809 96.3653C204.823 95.9426 205.945 95.8566 207.011 96.1201C208.077 96.3836 209.03 96.9826 209.729 97.8288C227.555 120.404 226.669 139.539 225.55 163.841C225.418 166.768 225.279 169.775 225.162 172.885C225.162 172.959 225.145 173.033 225.114 173.1C225.082 173.167 225.036 173.226 224.979 173.273C224.89 173.36 224.774 173.414 224.65 173.427V173.427ZM80.0396 158.726L224.094 172.271C224.203 169.344 224.335 166.541 224.459 163.797C225.616 138.815 226.443 120.769 208.873 98.5167C207.805 97.1629 206.056 96.7605 204.19 97.4337C202.441 98.063 200.59 99.8046 200.648 102.132C200.648 102.402 198.709 131.248 182.464 143.842C174.905 149.696 165.494 151.108 154.481 148.005C148.488 146.322 143.439 141.815 139.846 134.973C134.365 124.399 133.18 109.325 137.036 98.3484L137.088 98.2167C137.614 96.7531 137.336 95.4287 136.356 94.6676C135.185 93.7895 132.858 93.6139 130.502 95.2969C116.598 105.212 95.6846 126.411 82.4106 153.516C81.8837 154.584 81.3275 155.857 80.7934 157.094L80.0396 158.726Z" fill="#444444"/>
<path d="M129.046 95.1797L137.571 97.2506C137.571 97.2506 176.668 50.2571 200.451 99.7605C200.451 99.7605 202.99 95.9188 205.829 96.8335C208.668 97.7482 175.82 42.537 129.046 95.1797Z" fill="#00A5EB"/>
<path d="M174.934 73.2638C174.934 73.2638 197.919 79.0593 205.449 96.8703L222.118 91.4699C222.118 91.4699 212.561 80.1496 201.007 73.5638C196.534 71.0403 191.382 69.9809 186.276 70.5343L167.507 72.4442C167.507 72.4442 172.161 72.854 174.934 73.2638Z" fill="#2CC8FF"/>
<path d="M205.975 96.5922L222.118 91.4187C222.118 91.4187 251.886 96.841 282.239 132.148L224.708 172.959C224.708 172.959 229.04 112.779 205.975 96.5922Z" fill="#E8E8E8"/>
<path d="M224.708 173.485C224.613 173.484 224.52 173.458 224.437 173.412C224.347 173.36 224.273 173.284 224.224 173.192C224.175 173.1 224.152 172.997 224.159 172.893C224.203 172.293 228.235 112.888 205.661 97.0239C205.575 96.9662 205.509 96.8851 205.468 96.7903C205.428 96.6955 205.416 96.5911 205.434 96.4897C205.449 96.3891 205.492 96.2948 205.558 96.2173C205.624 96.1397 205.71 96.082 205.807 96.0507L221.95 90.8771C222.035 90.8515 222.127 90.8515 222.213 90.8771C222.513 90.9284 252.53 96.7312 282.656 131.782C282.707 131.84 282.745 131.907 282.768 131.98C282.791 132.053 282.799 132.13 282.79 132.206C282.781 132.282 282.756 132.356 282.716 132.421C282.677 132.487 282.624 132.544 282.561 132.587L225.023 173.398C224.929 173.458 224.82 173.488 224.708 173.485ZM207.146 96.7678C227.826 112.691 225.821 163.27 225.33 171.817L281.434 132.024C252.72 98.8679 224.32 92.4138 222.162 91.9674L207.146 96.7678Z" fill="#444444"/>
</svg>
