<svg width="366" height="490" viewBox="0 0 366 490" fill="none" xmlns="http://www.w3.org/2000/svg">
<path d="M141.303 173.412L79.7032 247.393L79.2202 159.201L140.571 123.623L141.303 173.412Z" fill="#CCCCCC"/>
<path d="M79.7105 247.942C79.6476 247.952 79.5832 247.952 79.5203 247.942C79.4149 247.902 79.3242 247.831 79.2601 247.738C79.1961 247.645 79.1618 247.535 79.1617 247.422L78.6714 159.231C78.6702 159.135 78.6947 159.04 78.7423 158.956C78.7899 158.873 78.8589 158.803 78.9422 158.755L140.3 123.177C140.382 123.128 140.475 123.101 140.571 123.1C140.666 123.099 140.76 123.123 140.844 123.17C140.927 123.216 140.996 123.284 141.045 123.367C141.093 123.449 141.119 123.543 141.12 123.638L141.851 173.434C141.856 173.499 141.847 173.564 141.825 173.626C141.804 173.687 141.771 173.744 141.727 173.793L80.1276 247.744C80.0763 247.805 80.0125 247.854 79.9405 247.888C79.8686 247.922 79.7901 247.941 79.7105 247.942V247.942ZM79.7617 159.523L80.2374 245.871L140.746 173.207L140.015 124.553L79.7617 159.523Z" fill="#444444"/>
<path d="M210.424 391.03C212.283 387.847 214.273 384.766 216.278 381.678C217.274 380.156 218.32 378.597 219.44 377.104C220.575 375.608 221.797 374.178 223.098 372.824C225.702 370.062 228.654 367.651 231.879 365.652C233.509 364.651 235.206 363.763 236.958 362.996C237.858 362.645 238.743 362.264 239.651 361.979C240.558 361.694 241.48 361.364 242.424 361.167L243.829 360.83C244.297 360.735 244.78 360.669 245.249 360.589C246.2 360.406 247.159 360.325 248.117 360.23C249.076 360.135 250.049 360.164 251.008 360.128H253.744C257.242 360.147 260.723 359.654 264.077 358.664C267.486 357.62 270.752 356.157 273.802 354.31C277 352.503 280.183 350.688 283.461 349.012C280.629 351.368 277.71 353.586 274.79 355.81C273.304 356.949 271.747 357.993 270.128 358.935C268.488 359.879 266.775 360.691 265.006 361.364C261.426 362.751 257.634 363.513 253.796 363.618C252.844 363.655 251.944 363.618 251.037 363.669C250.13 363.721 249.303 363.706 248.439 363.823C247.576 363.94 246.72 363.991 245.863 364.167C245.439 364.247 245.015 364.306 244.59 364.394L243.324 364.708C236.555 366.348 230.394 370.116 225.103 374.851C222.436 377.28 219.956 379.908 217.683 382.71C215.305 385.534 212.942 388.33 210.424 391.03Z" fill="#0084B2"/>
<path d="M213.33 390.203C214.961 388.556 216.688 387.049 218.452 385.527C220.23 383.98 222.162 382.619 224.218 381.466C228.393 379.104 233.038 377.692 237.822 377.331C239 377.243 240.295 377.265 241.312 377.243C242.329 377.221 243.507 377.156 244.554 377.046C246.73 376.819 248.884 376.413 250.993 375.831C252.047 375.553 253.101 375.202 254.213 374.851C255.325 374.499 256.408 374.177 257.506 373.863C259.701 373.241 261.896 372.611 264.194 372.143C262.226 373.365 260.199 374.441 258.172 375.524C257.152 376.06 256.13 376.58 255.106 377.082C254.096 377.587 253.035 378.114 251.923 378.546C249.706 379.448 247.393 380.094 245.029 380.47C243.842 380.661 242.645 380.785 241.444 380.844C240.185 380.888 239.19 380.844 238.092 380.968C233.741 381.293 229.473 382.326 225.455 384.027C223.397 384.874 221.395 385.851 219.462 386.954C217.435 388.095 215.43 389.215 213.33 390.203Z" fill="#0084B2"/>
<path d="M147.244 391.191C146.871 394.637 155.03 397.681 168.641 398.625C186.042 399.826 205.653 397.162 212.547 392.618C214.259 391.498 215.027 390.371 214.961 389.288V320.269L147.244 322.171V391.191Z" fill="#F9F9F9"/>
<path d="M177.085 399.452C174.239 399.452 171.4 399.365 168.612 399.167C157.782 398.435 149.893 396.24 147.508 393.423C147.227 393.121 147.011 392.764 146.874 392.375C146.737 391.986 146.681 391.573 146.71 391.162V322.171C146.71 322.028 146.766 321.891 146.866 321.788C146.965 321.686 147.101 321.626 147.244 321.623L214.954 319.72C215.028 319.714 215.103 319.725 215.172 319.752C215.242 319.778 215.305 319.82 215.356 319.874C215.409 319.925 215.451 319.986 215.48 320.054C215.509 320.122 215.524 320.195 215.525 320.269V389.296C215.613 390.591 214.713 391.871 212.861 393.086C206.978 396.913 192.021 399.452 177.085 399.452ZM147.815 322.706V391.257C147.8 391.525 147.84 391.793 147.933 392.045C148.026 392.297 148.17 392.527 148.357 392.72C150.515 395.303 158.316 397.36 168.7 398.077C185.91 399.262 205.448 396.613 212.268 392.157C213.3 391.483 214.508 390.452 214.464 389.325V320.832L147.815 322.706Z" fill="#444444"/>
<path d="M79.6592 325.742L224.73 338.965L281.807 297.123L140.71 289.835L79.6592 325.742Z" fill="#F9F9F9"/>
<path d="M224.73 339.536H224.65L79.6081 326.284C79.4932 326.272 79.385 326.225 79.2986 326.148C79.2123 326.072 79.1523 325.97 79.1272 325.857C79.1021 325.745 79.1131 325.627 79.1587 325.521C79.2043 325.415 79.2822 325.326 79.3812 325.267L140.432 289.367C140.523 289.307 140.631 289.281 140.739 289.293L281.837 296.611C281.95 296.619 282.058 296.661 282.147 296.732C282.235 296.802 282.301 296.898 282.334 297.006C282.367 297.115 282.364 297.231 282.327 297.339C282.291 297.446 282.222 297.54 282.13 297.606L225.052 339.448C224.956 339.509 224.844 339.54 224.73 339.536V339.536ZM81.4082 325.347L224.569 338.402L280.264 297.592L140.871 290.398L81.4082 325.347Z" fill="#444444"/>
<path d="M211.207 314.773C204.314 319.281 184.703 321.981 167.302 320.781C153.691 319.837 145.539 316.793 145.913 313.346C146.022 312.344 146.857 311.312 148.481 310.28C155.66 305.743 175.556 303.131 192.782 304.426C205.588 305.377 213.41 308.217 213.622 311.458C213.674 312.527 212.942 313.654 211.207 314.773Z" fill="#CCCCCC"/>
<path d="M175.724 321.615C172.885 321.615 170.039 321.52 167.258 321.33C156.428 320.598 148.532 318.403 146.154 315.578C145.869 315.273 145.652 314.912 145.515 314.517C145.379 314.122 145.328 313.704 145.364 313.288C145.495 312.088 146.439 310.917 148.181 309.819C155.411 305.246 175.432 302.575 192.818 303.863C205.741 304.821 213.922 307.712 214.171 311.407C214.259 312.739 213.366 314.027 211.515 315.234C205.624 319.047 190.682 321.615 175.724 321.615ZM183.671 304.631C169.102 304.631 154.584 307.046 148.737 310.741C147.318 311.641 146.542 312.563 146.425 313.405C146.409 313.673 146.449 313.941 146.542 314.193C146.636 314.445 146.78 314.675 146.966 314.868C149.162 317.452 156.918 319.508 167.309 320.225C184.52 321.418 204.058 318.761 210.878 314.312C211.903 313.639 213.117 312.6 213.073 311.473C212.905 309.051 206.488 305.97 192.73 304.953C189.774 304.741 186.73 304.631 183.671 304.631Z" fill="#444444"/>
<path d="M156.552 307.214L146.308 314.378C146.493 314.833 146.775 315.243 147.135 315.578L160.445 306.307C159.055 306.607 157.767 306.892 156.552 307.214Z" fill="#BFBFBF"/>
<path d="M170.909 304.755L151.774 318.095C152.323 318.286 152.915 318.469 153.537 318.644L173.836 304.499C172.849 304.572 171.875 304.66 170.909 304.755Z" fill="#BFBFBF"/>
<path d="M182.647 304.126L159.896 319.983C160.584 320.086 161.294 320.188 162.026 320.276L185.208 304.126H182.647Z" fill="#BFBFBF"/>
<path d="M193.023 304.411L169.373 320.891C170.178 320.934 170.983 320.971 171.788 320.993L195.306 304.609C194.56 304.555 193.799 304.489 193.023 304.411Z" fill="#BFBFBF"/>
<path d="M202.207 305.59L180.012 321.037C180.92 321.037 181.827 320.971 182.727 320.927L204.16 305.992C203.553 305.875 202.895 305.721 202.207 305.59Z" fill="#BFBFBF"/>
<path d="M209.898 307.778L192.204 320.108C193.294 319.969 194.362 319.822 195.409 319.654L211.383 308.524C210.902 308.247 210.406 307.998 209.898 307.778Z" fill="#BFBFBF"/>
<path d="M213.52 312.797L208.397 316.346C209.471 315.93 210.502 315.413 211.478 314.802C212.309 314.306 213.009 313.619 213.52 312.797V312.797Z" fill="#BFBFBF"/>
<path d="M175.724 321.615C172.885 321.615 170.039 321.52 167.258 321.33C156.428 320.598 148.532 318.403 146.154 315.578C145.869 315.273 145.652 314.912 145.515 314.517C145.379 314.122 145.328 313.704 145.364 313.288C145.495 312.088 146.439 310.917 148.181 309.819C155.411 305.246 175.432 302.575 192.818 303.863C205.741 304.821 213.922 307.712 214.171 311.407C214.259 312.739 213.366 314.027 211.515 315.234C205.624 319.047 190.682 321.615 175.724 321.615ZM183.671 304.631C169.102 304.631 154.584 307.046 148.737 310.741C147.318 311.641 146.542 312.563 146.425 313.405C146.409 313.673 146.449 313.941 146.542 314.193C146.636 314.445 146.78 314.675 146.966 314.868C149.162 317.452 156.918 319.508 167.309 320.225C184.52 321.418 204.058 318.761 210.878 314.312C211.903 313.639 213.117 312.6 213.073 311.473C212.905 309.051 206.488 305.97 192.73 304.953C189.774 304.741 186.73 304.631 183.671 304.631Z" fill="#444444"/>
<path d="M282.166 297.27L139.839 280.951L140.571 123.689L281.251 132.522L282.166 297.27Z" fill="#CCCCCC"/>
<path d="M282.166 297.826H282.108L139.766 281.5C139.631 281.484 139.507 281.419 139.417 281.318C139.327 281.217 139.276 281.087 139.276 280.951L140.007 123.682C140.008 123.607 140.024 123.534 140.055 123.466C140.085 123.398 140.129 123.337 140.183 123.287C140.237 123.234 140.301 123.194 140.372 123.168C140.443 123.143 140.518 123.134 140.593 123.14L281.288 131.973C281.427 131.982 281.557 132.044 281.653 132.146C281.748 132.248 281.8 132.382 281.8 132.521L282.715 297.269C282.715 297.347 282.699 297.423 282.667 297.494C282.636 297.565 282.59 297.628 282.532 297.679C282.433 297.773 282.302 297.825 282.166 297.826V297.826ZM140.388 280.461L281.617 296.655L280.703 133.041L141.12 124.26L140.388 280.461Z" fill="#444444"/>
<path d="M144.091 124.582L140.783 126.66V128.438L146.454 124.713L144.091 124.582Z" fill="#BFBFBF"/>
<path d="M154.094 125.153L140.051 134.936V136.722L156.457 125.284L154.094 125.153Z" fill="#BFBFBF"/>
<path d="M164.097 125.723L140.051 142.481V144.266L166.468 125.862L164.097 125.723Z" fill="#BFBFBF"/>
<path d="M174.107 126.302L140.051 150.032V151.811L176.471 126.433L174.107 126.302Z" fill="#BFBFBF"/>
<path d="M184.118 126.872L140.051 157.577V159.362L186.481 127.004L184.118 126.872Z" fill="#BFBFBF"/>
<path d="M194.121 127.443L140.051 165.121V166.907L196.484 127.582L194.121 127.443Z" fill="#BFBFBF"/>
<path d="M204.131 128.021L140.051 172.666V174.451L206.495 128.153L204.131 128.021Z" fill="#BFBFBF"/>
<path d="M214.134 128.592L140.051 180.217V182.003L216.498 128.731L214.134 128.592Z" fill="#BFBFBF"/>
<path d="M224.145 129.163L140.051 187.762V189.547L226.509 129.302L224.145 129.163Z" fill="#BFBFBF"/>
<path d="M234.148 129.741L140.051 195.306V197.092L236.512 129.872L234.148 129.741Z" fill="#BFBFBF"/>
<path d="M244.159 130.312L140.051 202.858V204.636L246.522 130.451L244.159 130.312Z" fill="#BFBFBF"/>
<path d="M254.162 130.89L140.051 210.403V212.188L256.525 131.021L254.162 130.89Z" fill="#BFBFBF"/>
<path d="M264.172 131.46L140.051 217.947V219.732L266.536 131.599L264.172 131.46Z" fill="#BFBFBF"/>
<path d="M274.175 132.031L140.051 225.499V227.277L276.539 132.17L274.175 132.031Z" fill="#BFBFBF"/>
<path d="M281.464 134.504L140.051 233.043V234.828L281.464 136.283V134.504Z" fill="#BFBFBF"/>
<path d="M281.464 142.049L140.051 240.587V242.373L281.464 143.834V142.049Z" fill="#BFBFBF"/>
<path d="M281.464 149.593L140.051 248.139V249.917L281.464 151.379V149.593Z" fill="#BFBFBF"/>
<path d="M281.464 157.138L140.051 255.684V257.469L281.464 158.923V157.138Z" fill="#BFBFBF"/>
<path d="M281.464 164.689L140.051 263.228V265.014L281.464 166.468V164.689Z" fill="#BFBFBF"/>
<path d="M281.464 172.234L140.051 270.78V272.558L281.464 174.019V172.234Z" fill="#BFBFBF"/>
<path d="M281.464 179.778L140.051 278.324V280.11L281.464 181.564V179.778Z" fill="#BFBFBF"/>
<path d="M281.464 187.33L145.913 281.785L148.005 282.115L281.464 189.108V187.33Z" fill="#BFBFBF"/>
<path d="M281.463 194.86L154.752 283.161L156.867 283.483L281.463 196.66V194.86Z" fill="#BFBFBF"/>
<path d="M281.463 202.404L163.614 284.53L165.729 284.859L281.463 204.204V202.404Z" fill="#BFBFBF"/>
<path d="M281.463 209.949L172.475 285.905L174.568 286.227L281.463 211.734V209.949Z" fill="#BFBFBF"/>
<path d="M281.463 217.5L181.337 287.274L183.43 287.603L281.463 219.279V217.5Z" fill="#BFBFBF"/>
<path d="M281.464 225.045L190.191 288.649L192.284 288.971L281.464 226.83V225.045Z" fill="#BFBFBF"/>
<path d="M281.464 232.589L199.053 290.018L201.146 290.347L281.464 234.375V232.589Z" fill="#BFBFBF"/>
<path d="M281.464 240.141L207.915 291.393L210.007 291.715L281.464 241.919V240.141Z" fill="#BFBFBF"/>
<path d="M281.464 247.686L216.776 292.769L218.869 293.091L281.464 249.471V247.686Z" fill="#BFBFBF"/>
<path d="M281.464 255.23L225.638 294.138L227.731 294.46L281.464 257.015V255.23Z" fill="#BFBFBF"/>
<path d="M281.464 262.782L234.492 295.513L236.585 295.835L281.464 264.56V262.782Z" fill="#BFBFBF"/>
<path d="M281.463 270.326L243.354 296.882L245.446 297.211L281.463 272.112V270.326Z" fill="#BFBFBF"/>
<path d="M281.463 277.871L252.215 298.257L254.308 298.579L281.463 279.656V277.871Z" fill="#BFBFBF"/>
<path d="M281.463 285.422L261.077 299.626L263.17 299.955L281.463 287.201V285.422Z" fill="#BFBFBF"/>
<path d="M281.463 292.967L269.938 301.001L272.031 301.323L281.463 294.752V292.967Z" fill="#BFBFBF"/>
<path d="M282.166 297.27L282.195 295.389L279.524 297.255L281.617 297.577L282.166 297.27Z" fill="#BFBFBF"/>
<path d="M282.166 297.826H282.108L139.766 281.5C139.631 281.484 139.507 281.419 139.417 281.318C139.327 281.217 139.276 281.087 139.276 280.951L140.007 123.682C140.008 123.607 140.024 123.534 140.055 123.466C140.085 123.398 140.129 123.337 140.183 123.287C140.237 123.234 140.301 123.194 140.372 123.168C140.443 123.143 140.518 123.134 140.593 123.14L281.288 131.973C281.427 131.982 281.557 132.044 281.653 132.146C281.748 132.248 281.8 132.382 281.8 132.521L282.715 297.269C282.715 297.347 282.699 297.423 282.667 297.494C282.636 297.565 282.59 297.628 282.532 297.679C282.433 297.773 282.302 297.825 282.166 297.826V297.826ZM140.388 280.461L281.617 296.655L280.703 133.041L141.12 124.26L140.388 280.461Z" fill="#444444"/>
<path d="M282.166 297.269L225.162 354.712V172.395L282.239 132.126L282.166 297.269Z" fill="#CCCCCC"/>
<path d="M225.162 355.261C225.092 355.261 225.023 355.248 224.957 355.225C224.856 355.183 224.769 355.112 224.708 355.021C224.646 354.93 224.614 354.822 224.613 354.713V172.395C224.614 172.307 224.635 172.221 224.676 172.143C224.717 172.066 224.776 171.999 224.847 171.949L281.925 131.702C282.007 131.644 282.104 131.61 282.204 131.604C282.305 131.598 282.405 131.619 282.495 131.666C282.584 131.713 282.658 131.783 282.71 131.87C282.762 131.956 282.789 132.055 282.788 132.156L282.715 297.299C282.715 297.444 282.657 297.584 282.554 297.687L225.55 355.13C225.498 355.177 225.436 355.213 225.37 355.235C225.303 355.258 225.232 355.267 225.162 355.261V355.261ZM225.711 172.695V353.381L281.617 297.035L281.727 133.18L225.711 172.695Z" fill="#444444"/>
<path d="M225.162 354.713L79.3592 333.543L79.2202 159.201L225.162 172.717V354.713Z" fill="#F9F9F9"/>
<path d="M225.162 355.261H225.082L79.2787 334.084C79.1494 334.064 79.0315 333.998 78.9459 333.899C78.8602 333.8 78.8122 333.674 78.8104 333.543L78.6714 159.201C78.6736 159.047 78.7367 158.9 78.847 158.792C78.9045 158.741 78.9719 158.702 79.0449 158.678C79.1178 158.654 79.1949 158.646 79.2714 158.652L225.213 172.175C225.35 172.187 225.478 172.249 225.571 172.351C225.663 172.453 225.713 172.587 225.711 172.724V354.712C225.712 354.792 225.696 354.87 225.663 354.942C225.63 355.015 225.581 355.079 225.521 355.13C225.422 355.217 225.294 355.264 225.162 355.261ZM79.9081 333.067L224.65 354.083V173.222L79.7617 159.801L79.9081 333.067Z" fill="#444444"/>
<path d="M197.165 261.282V250.027H200.831V253.693H209.21V257.615H200.831V261.282H197.165Z" fill="#99C6D6"/>
<path d="M197.297 216.125V219.528V223.457H209.334V219.528H201.226V216.125H209.334V212.203H201.226H197.297V216.125Z" fill="#99C6D6"/>
<path d="M202.009 187.33L197.297 183.927V188.377L202.009 191.779V192.306H197.297V196.228H209.334V192.306H204.885V191.26L209.334 189.167V184.454L203.319 188.113L202.009 187.33Z" fill="#99C6D6"/>
<path d="M197.297 202.251V205.909L209.334 211.149V206.956L207.241 206.436V201.965L209.334 201.182V196.997L197.297 202.251ZM204.365 205.397L201.233 204.087L204.38 203.041L204.365 205.397Z" fill="#99C6D6"/>
<path d="M197.297 241.78V245.439L209.334 250.671V246.485L207.241 245.959V241.509L209.334 240.726V236.541L197.297 241.78ZM204.365 244.919L201.219 243.61L204.365 242.563V244.919Z" fill="#99C6D6"/>
<path d="M197.297 229.077V235.494H209.334V231.572H206.451V229.077C206.451 228.476 206.332 227.88 206.102 227.325C205.872 226.77 205.534 226.265 205.109 225.84C204.683 225.416 204.178 225.079 203.623 224.849C203.067 224.62 202.471 224.502 201.87 224.503V224.503C201.27 224.503 200.675 224.622 200.12 224.852C199.565 225.081 199.061 225.418 198.636 225.843C198.211 226.268 197.875 226.772 197.645 227.327C197.415 227.882 197.297 228.476 197.297 229.077V229.077ZM203.319 229.845V231.572H200.502V229.845C200.502 229.469 200.651 229.108 200.918 228.841C201.184 228.575 201.545 228.426 201.921 228.426C202.298 228.426 202.659 228.575 202.925 228.841C203.191 229.108 203.341 229.469 203.341 229.845H203.319Z" fill="#99C6D6"/>
<path d="M257.974 125.365C257.87 125.364 257.768 125.334 257.68 125.279C257.592 125.223 257.522 125.144 257.476 125.05C243.778 96.6798 217.061 93.665 216.791 93.665C216.716 93.6618 216.643 93.6434 216.575 93.6109C216.508 93.5784 216.448 93.5325 216.399 93.476C216.35 93.4195 216.314 93.3536 216.291 93.2824C216.268 93.2112 216.261 93.1361 216.268 93.0617C216.276 92.9874 216.298 92.9153 216.335 92.85C216.371 92.7847 216.42 92.7275 216.479 92.6819C216.538 92.6363 216.606 92.6033 216.679 92.5848C216.751 92.5664 216.827 92.5629 216.9 92.5747C217.171 92.5747 244.51 95.6847 258.464 124.604C258.496 124.668 258.515 124.739 258.52 124.811C258.524 124.883 258.514 124.955 258.49 125.024C258.467 125.092 258.429 125.155 258.381 125.208C258.332 125.262 258.274 125.305 258.208 125.336C258.133 125.363 258.053 125.373 257.974 125.365V125.365Z" fill="#444444"/>
<path d="M138.427 97.4776L153.867 93.8188C153.867 93.8188 161.916 131.87 192.833 114.308C223.75 96.7459 200.151 147.969 200.151 147.969C200.151 147.969 132.514 153.091 130.312 153.091C128.109 153.091 97.9605 147.969 102.373 142.847C106.785 137.724 123.696 114.308 125.899 112.113C128.102 109.918 138.427 97.4776 138.427 97.4776Z" fill="#CCCCCC"/>
<path d="M130.341 153.669C128.511 153.669 103.829 149.615 101.605 144.756C101.431 144.389 101.375 143.977 101.443 143.577C101.511 143.176 101.7 142.807 101.985 142.517C104.18 139.949 109.53 132.814 114.688 125.906C119.847 118.999 124.421 112.874 125.54 111.754C127.736 109.603 137.9 97.2799 137.98 97.1189C138.06 97.0297 138.165 96.9661 138.28 96.936L153.72 93.2772C153.864 93.2464 154.013 93.2727 154.138 93.3504C154.199 93.3896 154.253 93.4409 154.294 93.5012C154.336 93.5616 154.365 93.6298 154.379 93.7016C154.416 93.8773 158.287 111.432 170.266 116.811C176.581 119.642 184.074 118.64 192.54 113.825C199.638 109.786 204.395 109.01 207.08 111.469C214.347 118.135 201.226 146.966 200.663 148.196C200.619 148.283 200.554 148.358 200.473 148.413C200.393 148.468 200.299 148.502 200.202 148.51C197.465 148.73 132.543 153.669 130.341 153.669ZM138.734 97.9971C137.527 99.4606 128.416 110.437 126.294 112.53C125.233 113.591 120.528 119.891 115.545 126.565C110.378 133.48 105.037 140.637 102.797 143.234C102.65 143.365 102.549 143.539 102.509 143.732C102.47 143.925 102.494 144.125 102.578 144.303C104.444 148.371 127.663 152.572 130.319 152.572C132.397 152.572 194.714 147.859 199.792 147.449C201.175 144.361 212.656 118.084 206.334 112.288C204.087 110.225 199.624 111.066 193.082 114.784C184.301 119.789 176.464 120.806 169.812 117.82C158.396 112.698 154.196 97.6092 153.435 94.4846L138.734 97.9971Z" fill="#444444"/>
<path d="M143 96.2702L133.297 103.002C132.112 104.415 130.839 105.929 129.638 107.312L146.893 95.3481L143 96.2702Z" fill="#BFBFBF"/>
<path d="M153.977 96.2043L118.786 120.616L116.006 124.326L154.438 97.6679C154.262 97.1337 154.108 96.6434 153.977 96.2043Z" fill="#BFBFBF"/>
<path d="M156.201 102.212L106.998 136.341C105.915 137.761 104.92 139.063 104.071 140.161L156.845 103.573C156.596 103.105 156.399 102.651 156.201 102.212Z" fill="#BFBFBF"/>
<path d="M159.143 107.715L103.529 146.293C104.002 146.577 104.49 146.834 104.993 147.062L159.97 108.93C159.677 108.527 159.406 108.125 159.143 107.715Z" fill="#BFBFBF"/>
<path d="M162.97 112.61L110.422 149.059L112.23 149.586L164.046 113.649C163.672 113.313 163.314 112.969 162.97 112.61Z" fill="#BFBFBF"/>
<path d="M168.107 116.598L118.347 151.093C119.013 151.247 119.672 151.386 120.308 151.518L169.578 117.345C169.08 117.118 168.59 116.862 168.107 116.598Z" fill="#BFBFBF"/>
<path d="M175.695 118.874L126.894 152.725C127.78 152.864 128.504 152.967 129.031 153.025L178.212 118.918C177.373 118.955 176.533 118.94 175.695 118.874V118.874Z" fill="#BFBFBF"/>
<path d="M195.65 112.581L138.017 152.557L140.885 152.352L200.743 110.832C198.981 111.206 197.27 111.793 195.65 112.581V112.581Z" fill="#BFBFBF"/>
<path d="M206.707 112.442L150.142 151.671L153.069 151.459L207.483 113.722C207.284 113.262 207.023 112.832 206.707 112.442V112.442Z" fill="#BFBFBF"/>
<path d="M208.229 118.933L162.326 150.742L165.253 150.53L208.134 120.791C208.171 120.169 208.214 119.54 208.229 118.933Z" fill="#BFBFBF"/>
<path d="M206.949 127.37L174.517 149.864L177.4 149.645L206.392 129.521C206.59 128.789 206.78 128.058 206.949 127.37Z" fill="#BFBFBF"/>
<path d="M204.073 136.912L186.716 148.949L189.643 148.73L203.246 139.29C203.495 138.529 203.788 137.731 204.073 136.912Z" fill="#BFBFBF"/>
<path d="M199.953 147.318L198.928 148.049L199.66 147.991C199.66 147.991 199.77 147.735 199.953 147.318Z" fill="#BFBFBF"/>
<path d="M130.341 153.669C128.511 153.669 103.829 149.615 101.605 144.756C101.431 144.389 101.375 143.977 101.443 143.577C101.511 143.176 101.7 142.807 101.985 142.517C104.18 139.949 109.53 132.814 114.688 125.906C119.847 118.999 124.421 112.874 125.54 111.754C127.736 109.603 137.9 97.2799 137.98 97.1189C138.06 97.0297 138.165 96.9661 138.28 96.936L153.72 93.2772C153.864 93.2464 154.013 93.2727 154.138 93.3504C154.199 93.3896 154.253 93.4409 154.294 93.5012C154.336 93.5616 154.365 93.6298 154.379 93.7016C154.416 93.8773 158.287 111.432 170.266 116.811C176.581 119.642 184.074 118.64 192.54 113.825C199.638 109.786 204.395 109.01 207.08 111.469C214.347 118.135 201.226 146.966 200.663 148.196C200.619 148.283 200.554 148.358 200.473 148.413C200.393 148.468 200.299 148.502 200.202 148.51C197.465 148.73 132.543 153.669 130.341 153.669ZM138.734 97.9971C137.527 99.4606 128.416 110.437 126.294 112.53C125.233 113.591 120.528 119.891 115.545 126.565C110.378 133.48 105.037 140.637 102.797 143.234C102.65 143.365 102.549 143.539 102.509 143.732C102.47 143.925 102.494 144.125 102.578 144.303C104.444 148.371 127.663 152.572 130.319 152.572C132.397 152.572 194.714 147.859 199.792 147.449C201.175 144.361 212.656 118.084 206.334 112.288C204.087 110.225 199.624 111.066 193.082 114.784C184.301 119.789 176.464 120.806 169.812 117.82C158.396 112.698 154.196 97.6092 153.435 94.4846L138.734 97.9971Z" fill="#444444"/>
<path d="M153.589 93.504L136.985 97.2506C136.985 97.2506 157.474 73.4538 177.912 77.2443C177.912 77.2443 158.06 76.8345 153.589 93.504Z" fill="#0084B2"/>
<path d="M239.636 137.029C239.5 137.03 239.369 136.98 239.268 136.89C239.166 136.799 239.102 136.674 239.087 136.539C235.392 102.146 209.48 96.0873 209.217 96.036C209.074 96.005 208.95 95.9185 208.871 95.7957C208.792 95.6729 208.765 95.5238 208.796 95.3811C208.827 95.2385 208.914 95.114 209.037 95.0351C209.159 94.9562 209.309 94.9293 209.451 94.9604C209.722 95.0189 236.402 101.246 240.185 136.422C240.198 136.567 240.154 136.711 240.062 136.824C239.971 136.937 239.839 137.011 239.695 137.029H239.636Z" fill="#444444"/>
<path d="M129.046 95.1797L137.571 97.2506C137.571 97.2506 176.668 50.2571 200.451 99.7605C200.451 99.7605 202.99 95.9188 205.829 96.8335C208.668 97.7482 175.82 42.537 129.046 95.1797Z" fill="#00A5EB"/>
<path d="M174.934 73.2638C174.934 73.2638 197.919 79.0593 205.449 96.8703L222.118 91.4699C222.118 91.4699 212.561 80.1496 201.007 73.5638C196.534 71.0403 191.382 69.9809 186.276 70.5343L167.507 72.4442C167.507 72.4442 172.161 72.854 174.934 73.2638Z" fill="#2CC8FF"/>
<path d="M63.2751 136.027L209.078 147.793L282.166 132.068L141.485 122.906L63.2751 136.027Z" fill="#F9F9F9"/>
<path d="M209.078 148.342H209.034L63.2312 136.575C63.0959 136.568 62.9684 136.51 62.8731 136.413C62.7778 136.317 62.7216 136.189 62.7152 136.053C62.7088 135.918 62.7528 135.785 62.8386 135.68C62.9245 135.575 63.0461 135.506 63.18 135.485L141.398 122.365H141.522L282.203 131.519C282.334 131.529 282.458 131.585 282.551 131.678C282.645 131.77 282.703 131.893 282.715 132.024C282.725 132.156 282.687 132.288 282.607 132.394C282.528 132.5 282.413 132.574 282.283 132.602L209.195 148.328L209.078 148.342ZM67.7316 135.836L209.041 147.237L278.2 132.361L141.515 123.462L67.7316 135.836Z" fill="#444444"/>
<path d="M224.65 172.871C225.704 143.659 229.143 123.257 209.334 98.1801C206.473 94.5579 200.019 97.5581 200.129 102.146C200.129 103.573 195.738 159.062 154.657 147.515C137.571 142.693 131.651 115.406 137.571 98.5313L137.615 98.3996C139.151 94.0529 134.402 91.8138 130.165 94.8506C115.611 105.242 94.9676 126.587 81.8692 153.274C80.9911 155.06 80.0471 157.365 79.2056 159.201L224.65 172.871Z" fill="#F9F9F9"/>
<path d="M224.65 173.427H224.591L79.1689 159.743C79.0815 159.736 78.9972 159.707 78.9233 159.66C78.8493 159.613 78.788 159.548 78.7444 159.472C78.7046 159.394 78.6838 159.307 78.6838 159.22C78.6838 159.132 78.7046 159.045 78.7444 158.967C79.0737 158.236 79.425 157.453 79.7762 156.64C80.3177 155.404 80.8739 154.123 81.4154 153.033C94.7773 125.745 115.859 104.393 129.85 94.4042C132.302 92.6553 135.17 92.4065 137.007 93.7896C138.405 94.8433 138.829 96.6361 138.141 98.5826L138.09 98.7143C134.343 109.427 135.485 124.136 140.871 134.49C144.288 141.076 149.11 145.371 154.774 146.974C165.421 149.974 174.532 148.635 181.769 143.008C197.619 130.714 199.55 102.424 199.543 102.161C199.47 99.2338 201.636 97.1849 203.809 96.4019C204.823 95.9792 205.945 95.8933 207.011 96.1568C208.077 96.4203 209.03 97.0193 209.729 97.8655C227.555 120.44 226.669 139.576 225.55 163.877C225.418 166.804 225.279 169.812 225.162 172.922C225.162 172.996 225.145 173.069 225.114 173.136C225.082 173.203 225.036 173.262 224.979 173.31C224.885 173.384 224.769 173.425 224.65 173.427V173.427ZM80.0396 158.726L224.094 172.271C224.203 169.344 224.335 166.541 224.459 163.797C225.616 138.815 226.443 120.769 208.873 98.5167C207.805 97.163 206.056 96.7605 204.19 97.4337C202.441 98.063 200.59 99.8046 200.648 102.132C200.648 102.402 198.709 131.248 182.464 143.842C174.905 149.696 165.494 151.108 154.481 148.006C148.488 146.322 143.439 141.815 139.846 134.973C134.365 124.399 133.18 109.325 137.036 98.3484L137.088 98.2167C137.614 96.7532 137.336 95.4287 136.356 94.6677C135.185 93.7896 132.858 93.6139 130.502 95.297C116.598 105.212 95.6846 126.411 82.4106 153.516C81.891 154.584 81.3349 155.85 80.8007 157.079L80.0396 158.726Z" fill="#444444"/>
<path d="M205.975 96.5922L222.118 91.4187C222.118 91.4187 251.886 96.841 282.239 132.148L224.708 172.959C224.708 172.959 229.04 112.779 205.975 96.5922Z" fill="#E8E8E8"/>
<path d="M224.708 173.485C224.613 173.484 224.52 173.458 224.437 173.412C224.347 173.36 224.273 173.284 224.224 173.192C224.175 173.1 224.152 172.997 224.159 172.893C224.203 172.293 228.235 112.888 205.661 97.0239C205.575 96.9662 205.509 96.8851 205.468 96.7903C205.428 96.6955 205.416 96.5911 205.434 96.4897C205.449 96.3891 205.492 96.2948 205.558 96.2173C205.624 96.1397 205.71 96.082 205.807 96.0507L221.95 90.8771C222.035 90.8515 222.127 90.8515 222.213 90.8771C222.513 90.9284 252.53 96.7312 282.656 131.782C282.707 131.84 282.745 131.907 282.768 131.98C282.791 132.053 282.799 132.13 282.79 132.206C282.781 132.282 282.756 132.356 282.716 132.421C282.677 132.487 282.624 132.544 282.561 132.587L225.023 173.398C224.929 173.458 224.82 173.488 224.708 173.485ZM207.146 96.7678C227.826 112.691 225.821 163.27 225.33 171.817L281.434 132.024C252.72 98.8679 224.32 92.4138 222.162 91.9674L207.146 96.7678Z" fill="#444444"/>
<path d="M209.151 148.32C209.026 148.321 208.904 148.278 208.807 148.2C208.709 148.121 208.642 148.011 208.617 147.888C208.586 147.747 208.613 147.599 208.691 147.477C208.769 147.355 208.893 147.269 209.034 147.237L212.612 146.469C212.683 146.454 212.756 146.453 212.827 146.466C212.898 146.48 212.965 146.507 213.026 146.546C213.086 146.585 213.138 146.636 213.179 146.696C213.22 146.756 213.249 146.823 213.264 146.893C213.278 146.964 213.279 147.037 213.266 147.108C213.253 147.179 213.226 147.246 213.186 147.307C213.147 147.367 213.096 147.419 213.036 147.46C212.977 147.501 212.91 147.53 212.839 147.544L209.283 148.313L209.151 148.32ZM205.492 148.049H205.448L201.79 147.757C201.644 147.745 201.509 147.676 201.414 147.565C201.32 147.454 201.273 147.309 201.285 147.164C201.296 147.018 201.365 146.883 201.476 146.789C201.588 146.694 201.732 146.647 201.877 146.659L205.536 146.952C205.682 146.958 205.819 147.021 205.918 147.128C206.017 147.235 206.069 147.377 206.063 147.522C206.057 147.668 205.994 147.805 205.887 147.904C205.78 148.003 205.638 148.055 205.492 148.049V148.049ZM198.175 147.464H198.131L194.472 147.164C194.4 147.159 194.331 147.14 194.266 147.108C194.202 147.076 194.145 147.031 194.099 146.977C194.053 146.922 194.018 146.859 193.996 146.79C193.975 146.722 193.967 146.65 193.974 146.578C193.979 146.506 193.998 146.435 194.031 146.37C194.063 146.305 194.108 146.247 194.164 146.2C194.219 146.153 194.283 146.118 194.353 146.096C194.422 146.074 194.495 146.067 194.567 146.074L198.226 146.366C198.371 146.372 198.509 146.436 198.608 146.543C198.706 146.65 198.759 146.792 198.753 146.937C198.747 147.083 198.684 147.22 198.577 147.319C198.469 147.418 198.328 147.47 198.182 147.464H198.175ZM190.857 146.871H190.813L187.154 146.578C187.082 146.573 187.012 146.553 186.948 146.52C186.883 146.487 186.826 146.442 186.779 146.387C186.732 146.332 186.697 146.268 186.674 146.199C186.652 146.13 186.644 146.058 186.65 145.986C186.655 145.914 186.675 145.843 186.708 145.779C186.741 145.715 186.786 145.657 186.841 145.611C186.896 145.564 186.96 145.528 187.029 145.506C187.098 145.484 187.17 145.475 187.242 145.481L190.901 145.781C191.035 145.801 191.157 145.87 191.243 145.974C191.329 146.078 191.374 146.211 191.368 146.346C191.363 146.481 191.308 146.609 191.213 146.706C191.119 146.803 190.992 146.862 190.857 146.871V146.871ZM216.242 146.783C216.117 146.782 215.997 146.738 215.9 146.66C215.803 146.582 215.735 146.473 215.708 146.352C215.692 146.281 215.69 146.208 215.703 146.136C215.715 146.065 215.742 145.997 215.782 145.936C215.822 145.875 215.873 145.823 215.933 145.783C215.993 145.742 216.061 145.714 216.132 145.7L219.703 144.932C219.846 144.901 219.994 144.928 220.118 145.006C220.241 145.084 220.328 145.207 220.362 145.349C220.377 145.42 220.378 145.493 220.364 145.564C220.351 145.635 220.324 145.702 220.285 145.763C220.245 145.823 220.194 145.875 220.135 145.916C220.075 145.957 220.008 145.986 219.937 146L216.359 146.732C216.342 146.752 216.322 146.769 216.3 146.783H216.242ZM183.561 146.286H183.518L179.859 145.993C179.714 145.98 179.58 145.911 179.485 145.8C179.391 145.689 179.344 145.546 179.354 145.4C179.358 145.321 179.378 145.244 179.415 145.173C179.451 145.103 179.503 145.041 179.565 144.993C179.628 144.944 179.7 144.909 179.777 144.891C179.855 144.873 179.935 144.872 180.012 144.888L183.671 145.181C183.817 145.187 183.954 145.25 184.053 145.357C184.152 145.464 184.204 145.606 184.198 145.752C184.192 145.897 184.129 146.034 184.022 146.133C183.915 146.232 183.773 146.284 183.627 146.278L183.561 146.286ZM176.244 145.7H176.2L172.541 145.408C172.465 145.408 172.39 145.392 172.321 145.362C172.251 145.332 172.188 145.287 172.137 145.232C172.085 145.176 172.046 145.11 172.021 145.038C171.996 144.967 171.987 144.89 171.993 144.815C171.999 144.739 172.02 144.666 172.056 144.599C172.092 144.532 172.142 144.473 172.202 144.426C172.262 144.38 172.33 144.346 172.404 144.327C172.477 144.308 172.554 144.305 172.629 144.317L176.288 144.61C176.36 144.616 176.43 144.635 176.494 144.668C176.558 144.701 176.615 144.747 176.661 144.802C176.708 144.857 176.742 144.921 176.764 144.99C176.785 145.059 176.792 145.131 176.785 145.203C176.777 145.321 176.73 145.434 176.652 145.524C176.575 145.613 176.47 145.675 176.354 145.7H176.244ZM223.369 145.247C223.235 145.245 223.107 145.194 223.008 145.103C222.909 145.013 222.846 144.89 222.832 144.757C222.818 144.624 222.852 144.49 222.93 144.381C223.007 144.272 223.122 144.194 223.252 144.164L226.918 143.425C227.061 143.394 227.21 143.42 227.333 143.499C227.456 143.578 227.542 143.703 227.573 143.845C227.604 143.988 227.577 144.137 227.498 144.26C227.419 144.383 227.295 144.469 227.152 144.5L223.574 145.269L223.369 145.247ZM169.036 145.108H168.992L165.333 144.815C165.189 144.802 165.056 144.732 164.962 144.621C164.869 144.51 164.824 144.367 164.836 144.222C164.849 144.077 164.918 143.943 165.029 143.849C165.14 143.754 165.283 143.707 165.429 143.717L169.087 144.01C169.233 144.016 169.37 144.079 169.469 144.186C169.568 144.293 169.62 144.435 169.614 144.581C169.608 144.726 169.545 144.864 169.438 144.962C169.331 145.061 169.189 145.113 169.043 145.108H169.036ZM161.718 144.522L158.06 144.23C157.984 144.23 157.909 144.214 157.839 144.184C157.769 144.154 157.707 144.109 157.655 144.053C157.604 143.998 157.564 143.932 157.54 143.86C157.515 143.788 157.505 143.712 157.511 143.637C157.517 143.561 157.539 143.487 157.575 143.421C157.611 143.354 157.66 143.295 157.72 143.248C157.78 143.202 157.849 143.168 157.922 143.149C157.996 143.13 158.073 143.127 158.148 143.139L161.806 143.432C161.952 143.438 162.089 143.501 162.188 143.608C162.287 143.715 162.339 143.857 162.333 144.003C162.327 144.148 162.264 144.286 162.157 144.384C162.05 144.483 161.908 144.535 161.762 144.53L161.718 144.522ZM154.401 143.93L150.742 143.637C150.597 143.624 150.463 143.554 150.369 143.444C150.274 143.333 150.227 143.189 150.237 143.044C150.252 142.9 150.322 142.767 150.432 142.673C150.543 142.579 150.685 142.531 150.83 142.539L154.489 142.839C154.623 142.859 154.744 142.928 154.83 143.032C154.917 143.136 154.961 143.269 154.956 143.404C154.95 143.539 154.895 143.668 154.801 143.765C154.707 143.862 154.58 143.92 154.445 143.93H154.401ZM230.57 143.71C230.429 143.719 230.289 143.673 230.181 143.582C230.073 143.491 230.004 143.361 229.989 143.221C229.974 143.08 230.014 142.939 230.1 142.827C230.187 142.715 230.313 142.641 230.453 142.62L234.031 141.851C234.174 141.821 234.322 141.849 234.444 141.929C234.567 142.008 234.652 142.133 234.682 142.276C234.712 142.418 234.684 142.567 234.605 142.689C234.525 142.811 234.4 142.897 234.258 142.927L230.687 143.695L230.57 143.71ZM147.149 143.344H147.083L143.425 143.044C143.28 143.033 143.146 142.965 143.052 142.855C142.957 142.746 142.91 142.603 142.92 142.459C142.933 142.314 143.002 142.18 143.113 142.085C143.224 141.991 143.367 141.944 143.512 141.954L147.171 142.246C147.317 142.252 147.454 142.316 147.553 142.423C147.652 142.53 147.704 142.672 147.698 142.817C147.692 142.963 147.629 143.1 147.522 143.199C147.415 143.298 147.273 143.35 147.127 143.344H147.149ZM139.832 142.751H139.788L136.129 142.459C135.993 142.436 135.871 142.364 135.786 142.255C135.701 142.147 135.66 142.01 135.671 141.873C135.682 141.736 135.744 141.608 135.846 141.514C135.947 141.421 136.079 141.369 136.217 141.368L139.876 141.661C140.009 141.681 140.131 141.75 140.217 141.854C140.303 141.958 140.348 142.091 140.343 142.226C140.337 142.361 140.282 142.49 140.188 142.586C140.093 142.683 139.967 142.742 139.832 142.751V142.751ZM237.734 142.166C237.609 142.164 237.489 142.121 237.392 142.042C237.295 141.964 237.227 141.856 237.199 141.734C237.183 141.664 237.182 141.59 237.194 141.519C237.207 141.448 237.234 141.38 237.274 141.319C237.313 141.258 237.365 141.206 237.425 141.165C237.485 141.125 237.553 141.097 237.624 141.083L241.195 140.315C241.267 140.292 241.344 140.285 241.419 140.294C241.495 140.302 241.568 140.326 241.633 140.365C241.699 140.403 241.756 140.454 241.801 140.516C241.845 140.577 241.877 140.647 241.893 140.721C241.909 140.796 241.91 140.872 241.895 140.947C241.88 141.021 241.85 141.092 241.806 141.154C241.763 141.216 241.707 141.269 241.642 141.308C241.577 141.348 241.504 141.373 241.429 141.383L237.851 142.159L237.734 142.166ZM132.536 142.166H132.492L128.833 141.873C128.761 141.868 128.691 141.848 128.627 141.815C128.562 141.782 128.505 141.737 128.458 141.681C128.411 141.626 128.376 141.563 128.353 141.494C128.331 141.425 128.323 141.353 128.328 141.281C128.334 141.208 128.354 141.138 128.387 141.074C128.42 141.01 128.465 140.952 128.52 140.905C128.575 140.858 128.639 140.823 128.708 140.801C128.777 140.778 128.849 140.77 128.921 140.776L132.58 141.068C132.725 141.081 132.859 141.151 132.953 141.262C133.048 141.372 133.095 141.516 133.085 141.661C133.074 141.794 133.016 141.919 132.92 142.011C132.825 142.104 132.698 142.159 132.565 142.166H132.536ZM125.218 141.581H125.174L121.516 141.288C121.44 141.288 121.365 141.273 121.295 141.242C121.225 141.212 121.163 141.168 121.111 141.112C121.06 141.056 121.02 140.99 120.996 140.919C120.971 140.847 120.961 140.771 120.967 140.695C120.973 140.619 120.995 140.546 121.031 140.479C121.067 140.412 121.116 140.353 121.176 140.307C121.236 140.26 121.305 140.226 121.378 140.207C121.452 140.189 121.529 140.185 121.604 140.198L125.262 140.49C125.408 140.496 125.545 140.559 125.644 140.667C125.743 140.774 125.795 140.915 125.789 141.061C125.783 141.207 125.72 141.344 125.613 141.443C125.506 141.541 125.364 141.594 125.218 141.588V141.581ZM117.901 140.988H117.85L114.191 140.695C114.119 140.689 114.048 140.669 113.984 140.637C113.92 140.604 113.862 140.558 113.816 140.503C113.769 140.448 113.733 140.385 113.711 140.316C113.689 140.247 113.68 140.175 113.686 140.102C113.692 140.03 113.712 139.96 113.744 139.896C113.777 139.831 113.823 139.774 113.878 139.727C113.933 139.68 113.996 139.645 114.065 139.622C114.134 139.6 114.207 139.592 114.279 139.598L117.937 139.89C118.083 139.896 118.22 139.959 118.319 140.066C118.418 140.174 118.47 140.315 118.464 140.461C118.458 140.607 118.395 140.744 118.288 140.843C118.181 140.941 118.039 140.994 117.893 140.988H117.901ZM244.839 140.629C244.705 140.627 244.577 140.576 244.478 140.486C244.379 140.396 244.316 140.273 244.302 140.14C244.287 140.006 244.322 139.873 244.4 139.763C244.477 139.654 244.592 139.577 244.722 139.546L248.3 138.771C248.443 138.742 248.591 138.771 248.712 138.85C248.834 138.929 248.92 139.053 248.951 139.195C248.982 139.337 248.955 139.485 248.877 139.607C248.799 139.729 248.676 139.815 248.534 139.846L244.956 140.578L244.839 140.629ZM110.605 140.402H110.561L106.902 140.102C106.831 140.098 106.761 140.079 106.697 140.047C106.633 140.015 106.576 139.97 106.529 139.915C106.483 139.861 106.448 139.797 106.427 139.729C106.405 139.66 106.398 139.588 106.405 139.517C106.416 139.373 106.484 139.239 106.594 139.144C106.703 139.049 106.846 139.002 106.99 139.012L110.649 139.305C110.794 139.318 110.928 139.387 111.023 139.498C111.117 139.609 111.164 139.752 111.154 139.898C111.143 140.022 111.091 140.139 111.006 140.23C110.921 140.321 110.809 140.382 110.686 140.402H110.605ZM103.288 139.81H103.244L99.5849 139.517C99.5124 139.512 99.4415 139.493 99.3766 139.461C99.3116 139.428 99.2539 139.383 99.2067 139.328C99.1596 139.272 99.1241 139.208 99.1024 139.139C99.0806 139.07 99.073 138.997 99.08 138.924C99.093 138.779 99.1624 138.645 99.2732 138.551C99.3841 138.456 99.5275 138.409 99.6727 138.419L103.332 138.719C103.465 138.739 103.587 138.808 103.673 138.912C103.759 139.017 103.804 139.149 103.799 139.284C103.793 139.419 103.738 139.548 103.644 139.645C103.549 139.742 103.423 139.801 103.288 139.81ZM95.97 139.224H95.9261L92.2673 138.932C92.1952 138.926 92.125 138.906 92.0606 138.873C91.9963 138.84 91.939 138.795 91.8921 138.74C91.8452 138.685 91.8096 138.621 91.7874 138.552C91.7651 138.483 91.7566 138.411 91.7624 138.339C91.7682 138.267 91.7881 138.197 91.821 138.132C91.8539 138.068 91.8991 138.011 91.9542 137.964C92.0092 137.917 92.073 137.881 92.1418 137.859C92.2105 137.837 92.283 137.828 92.3551 137.834L96.0139 138.127C96.1595 138.133 96.2967 138.196 96.3956 138.303C96.4944 138.41 96.5466 138.552 96.5408 138.697C96.535 138.843 96.4716 138.98 96.3645 139.079C96.2575 139.178 96.1156 139.23 95.97 139.224V139.224ZM251.952 139.093C251.811 139.102 251.671 139.056 251.563 138.965C251.455 138.873 251.386 138.744 251.371 138.603C251.356 138.463 251.396 138.322 251.482 138.21C251.569 138.098 251.695 138.024 251.835 138.002L255.413 137.234C255.483 137.219 255.556 137.218 255.627 137.231C255.698 137.245 255.766 137.272 255.826 137.311C255.887 137.351 255.939 137.402 255.98 137.461C256.021 137.521 256.049 137.588 256.064 137.658C256.079 137.729 256.08 137.802 256.067 137.873C256.053 137.944 256.026 138.011 255.987 138.072C255.947 138.132 255.896 138.184 255.837 138.225C255.777 138.266 255.71 138.295 255.64 138.31L252.069 139.078L251.952 139.093ZM88.6817 138.639H88.6305L84.9717 138.346C84.8958 138.346 84.8206 138.331 84.751 138.301C84.6814 138.27 84.6189 138.226 84.5673 138.17C84.5158 138.114 84.4764 138.049 84.4515 137.977C84.4267 137.905 84.417 137.829 84.4231 137.753C84.4292 137.678 84.4509 137.604 84.4869 137.537C84.5229 137.47 84.5724 137.412 84.6322 137.365C84.692 137.318 84.7608 137.284 84.8344 137.266C84.9079 137.247 84.9846 137.244 85.0595 137.256L88.7183 137.549C88.7902 137.554 88.8602 137.574 88.9243 137.607C88.9884 137.64 89.0453 137.685 89.0917 137.74C89.138 137.796 89.1729 137.859 89.1942 137.928C89.2155 137.997 89.2229 138.07 89.2159 138.141C89.2088 138.257 89.1653 138.367 89.0917 138.457C89.0181 138.546 88.9182 138.61 88.8061 138.639H88.6817ZM81.3641 138.046H81.3202L77.6614 137.753C77.5159 137.742 77.3809 137.673 77.2862 137.562C77.1915 137.451 77.1449 137.306 77.1565 137.161C77.1681 137.015 77.2371 136.88 77.3483 136.786C77.4594 136.691 77.6037 136.644 77.7492 136.656L81.408 136.949C81.5536 136.954 81.6909 137.018 81.7897 137.125C81.8885 137.232 81.9407 137.374 81.9349 137.519C81.9291 137.665 81.8657 137.802 81.7586 137.901C81.6516 138 81.5097 138.052 81.3641 138.046V138.046ZM259.225 137.571C259.092 137.567 258.965 137.515 258.867 137.424C258.769 137.333 258.708 137.21 258.695 137.077C258.681 136.945 258.716 136.812 258.794 136.703C258.871 136.595 258.986 136.518 259.116 136.488L262.687 135.719C262.823 135.701 262.961 135.735 263.074 135.814C263.186 135.893 263.265 136.011 263.294 136.146C263.324 136.28 263.302 136.421 263.233 136.54C263.163 136.658 263.052 136.747 262.921 136.788L259.342 137.571H259.225ZM74.2148 137.483H74.1709L70.5121 137.19C70.4396 137.185 70.3688 137.166 70.3038 137.134C70.2388 137.101 70.1811 137.056 70.134 137.001C70.0869 136.945 70.0514 136.881 70.0296 136.812C70.0078 136.743 70.0002 136.67 70.0072 136.597C70.0202 136.453 70.0899 136.319 70.201 136.226C70.312 136.133 70.4555 136.088 70.5999 136.1L74.2587 136.392C74.3308 136.395 74.4016 136.412 74.4671 136.443C74.5326 136.473 74.5915 136.516 74.6404 136.569C74.6893 136.622 74.7273 136.684 74.7522 136.751C74.7771 136.819 74.7885 136.891 74.7856 136.963C74.7827 137.035 74.7657 137.106 74.7354 137.172C74.7052 137.237 74.6623 137.296 74.6093 137.345C74.5563 137.394 74.4942 137.432 74.4265 137.457C74.3588 137.482 74.2869 137.493 74.2148 137.49V137.483ZM66.8972 136.89H66.8533L63.1945 136.597C63.1224 136.592 63.052 136.572 62.9876 136.539C62.9231 136.506 62.8657 136.461 62.8188 136.406C62.7718 136.351 62.7363 136.287 62.7141 136.218C62.692 136.149 62.6836 136.077 62.6896 136.005C62.7027 135.86 62.7721 135.725 62.8829 135.631C62.9937 135.537 63.1371 135.49 63.2824 135.5L66.9412 135.8C67.0749 135.82 67.1966 135.888 67.2828 135.993C67.3691 136.097 67.4137 136.229 67.4083 136.365C67.4028 136.5 67.3477 136.628 67.2533 136.725C67.159 136.822 67.0322 136.881 66.8972 136.89V136.89ZM266.36 136.012C266.226 136.01 266.098 135.959 265.999 135.869C265.9 135.778 265.837 135.655 265.823 135.522C265.808 135.389 265.843 135.255 265.921 135.146C265.998 135.037 266.113 134.96 266.243 134.929L269.821 134.197C269.958 134.179 270.096 134.213 270.208 134.292C270.321 134.371 270.4 134.489 270.429 134.624C270.459 134.758 270.436 134.899 270.367 135.017C270.298 135.136 270.187 135.225 270.055 135.266L266.477 135.997L266.36 136.012ZM273.517 134.475C273.375 134.484 273.236 134.438 273.128 134.347C273.02 134.256 272.951 134.127 272.936 133.986C272.921 133.845 272.961 133.704 273.047 133.592C273.133 133.48 273.26 133.406 273.399 133.385L276.978 132.617C277.12 132.586 277.269 132.614 277.391 132.694C277.513 132.773 277.599 132.898 277.629 133.041C277.659 133.184 277.631 133.332 277.552 133.454C277.472 133.577 277.347 133.662 277.205 133.692L273.678 134.461L273.517 134.475ZM280.666 132.931C280.532 132.929 280.403 132.878 280.305 132.788C280.206 132.698 280.143 132.575 280.129 132.441C280.114 132.308 280.149 132.175 280.226 132.065C280.304 131.956 280.418 131.879 280.549 131.848L282.012 131.534C282.149 131.516 282.287 131.549 282.399 131.628C282.512 131.707 282.591 131.826 282.62 131.96C282.65 132.094 282.628 132.235 282.558 132.354C282.489 132.473 282.378 132.561 282.246 132.602L280.783 132.924L280.666 132.931Z" fill="#444444"/>
</svg>
