<svg width="366" height="490" viewBox="0 0 366 490" fill="none" xmlns="http://www.w3.org/2000/svg">
<path d="M141.302 173.412L79.7029 247.393L78.9712 159.443L140.571 123.623L141.302 173.412Z" fill="#CCCCCC"/>
<path d="M79.7104 247.942C79.6474 247.952 79.5831 247.952 79.5201 247.942C79.4159 247.902 79.326 247.832 79.262 247.741C79.1981 247.649 79.1631 247.541 79.1615 247.43L78.4298 159.479C78.428 159.382 78.4522 159.286 78.4998 159.201C78.5474 159.116 78.6166 159.046 78.7005 158.997L140.3 123.14C140.382 123.092 140.475 123.067 140.571 123.067C140.666 123.067 140.759 123.092 140.841 123.14C140.925 123.187 140.996 123.255 141.046 123.337C141.096 123.419 141.124 123.513 141.127 123.609L141.859 173.405C141.861 173.537 141.814 173.665 141.727 173.763L80.1275 247.744C80.0761 247.805 80.0123 247.854 79.9404 247.888C79.8684 247.922 79.79 247.941 79.7104 247.942V247.942ZM79.5274 159.758L80.2592 245.893L140.768 173.222L140.037 124.567L79.5274 159.758Z" fill="#444444"/>
<path d="M141.939 289.008L79.6079 333.484V275.039L141.207 240.683L141.939 289.008Z" fill="#CCCCCC"/>
<path d="M79.6079 334.033C79.5214 334.035 79.4359 334.014 79.3591 333.974C79.2692 333.928 79.1937 333.858 79.1408 333.771C79.088 333.685 79.0597 333.586 79.0591 333.484V275.039C79.0593 274.941 79.086 274.845 79.1362 274.762C79.1865 274.678 79.2584 274.609 79.3445 274.563L140.944 240.17C141.027 240.125 141.121 240.102 141.215 240.103C141.31 240.104 141.403 240.13 141.485 240.178C141.566 240.226 141.634 240.294 141.682 240.376C141.73 240.458 141.755 240.551 141.756 240.646L142.488 288.942C142.491 289.031 142.472 289.119 142.433 289.198C142.393 289.277 142.334 289.345 142.261 289.396L79.9299 333.872C79.8456 333.963 79.7312 334.02 79.6079 334.033V334.033ZM80.1567 275.361V332.438L141.39 288.745L140.658 241.619L80.1567 275.361Z" fill="#444444"/>
<path d="M275.617 404.926C274.468 406.909 273.187 408.782 271.958 410.663C271.314 411.599 270.663 412.521 270.004 413.443L269.053 414.79C268.767 415.236 268.467 415.683 268.204 416.151C266.029 419.78 264.722 423.862 264.384 428.079C264.34 428.598 264.318 429.125 264.311 429.652L264.245 431.423C264.194 432.023 264.121 432.623 264.055 433.223C263.989 433.823 263.865 434.416 263.74 435.001C263.225 437.347 262.375 439.607 261.216 441.711C258.965 445.859 255.462 449.188 251.205 451.224C254.401 448.215 256.929 444.567 258.625 440.519C259.418 438.551 259.99 436.502 260.33 434.408L260.535 432.842C260.535 432.323 260.615 431.796 260.637 431.276L260.674 429.667C260.674 429.059 260.674 428.459 260.74 427.859C261.098 423.028 262.855 418.405 265.796 414.556C266.517 413.624 267.299 412.741 268.138 411.914C268.936 411.109 269.741 410.319 270.56 409.529C272.214 407.948 273.853 406.382 275.617 404.926Z" fill="#0084B2"/>
<path d="M161.828 383.31C160.68 385.293 159.399 387.166 158.133 389.047C157.489 389.983 156.838 390.91 156.179 391.827L155.228 393.174C154.943 393.627 154.643 394.066 154.379 394.535C152.214 398.176 150.919 402.268 150.596 406.492C150.552 407.019 150.53 407.538 150.523 408.065L150.457 409.836C150.406 410.436 150.333 411.036 150.267 411.636C150.201 412.236 150.076 412.829 149.952 413.414C149.438 415.761 148.588 418.021 147.427 420.124C145.177 424.272 141.674 427.601 137.417 429.637C140.621 426.606 143.149 422.933 144.837 418.858C145.631 416.891 146.203 414.842 146.542 412.748L146.747 411.19C146.747 410.663 146.827 410.136 146.849 409.616V408.006C146.849 407.406 146.849 406.799 146.915 406.199C147.295 401.384 149.065 396.783 152.008 392.954C152.729 392.022 153.511 391.14 154.35 390.313C155.147 389.515 155.952 388.717 156.772 387.934C158.418 386.368 160.065 384.773 161.828 383.31Z" fill="#0084B2"/>
<path d="M282.305 419.034L140.893 397.132V240.595L282.305 248.703V419.034Z" fill="#CCCCCC"/>
<path d="M282.305 419.583H282.224L140.812 397.674C140.682 397.655 140.563 397.59 140.477 397.49C140.392 397.391 140.344 397.264 140.344 397.133V240.595C140.345 240.52 140.361 240.445 140.391 240.376C140.421 240.307 140.465 240.244 140.519 240.192C140.574 240.142 140.639 240.103 140.709 240.078C140.78 240.052 140.855 240.042 140.929 240.046L282.341 248.154C282.481 248.163 282.611 248.225 282.706 248.327C282.801 248.429 282.854 248.563 282.854 248.703V419.034C282.855 419.114 282.838 419.192 282.806 419.264C282.773 419.336 282.724 419.4 282.663 419.451C282.565 419.539 282.437 419.586 282.305 419.583V419.583ZM141.441 396.657L281.727 418.398V249.215L141.412 241.166L141.441 396.657Z" fill="#444444"/>
<path d="M145.144 241.488L141.112 244.298V246.083L147.508 241.619L145.144 241.488Z" fill="#BFBFBF"/>
<path d="M155.147 242.058L141.112 251.842V253.627L157.511 242.197L155.147 242.058Z" fill="#BFBFBF"/>
<path d="M165.158 242.636L141.112 259.394V261.172L167.521 242.768L165.158 242.636Z" fill="#BFBFBF"/>
<path d="M175.161 243.207L141.112 266.938V268.724L177.532 243.346L175.161 243.207Z" fill="#BFBFBF"/>
<path d="M185.171 243.778L141.112 274.482V276.268L187.535 243.917L185.171 243.778Z" fill="#BFBFBF"/>
<path d="M195.182 244.356L141.112 282.034V283.812L197.546 244.488L195.182 244.356Z" fill="#BFBFBF"/>
<path d="M205.185 244.927L141.112 289.579V291.364L207.549 245.066L205.185 244.927Z" fill="#BFBFBF"/>
<path d="M215.188 245.505L141.112 297.123V298.909L217.559 245.637L215.188 245.505Z" fill="#BFBFBF"/>
<path d="M225.199 246.076L141.112 304.675V306.453L227.562 246.207L225.199 246.076Z" fill="#BFBFBF"/>
<path d="M235.209 246.646L141.112 312.219V314.005L237.573 246.786L235.209 246.646Z" fill="#BFBFBF"/>
<path d="M245.212 247.225L141.112 319.764V321.549L247.576 247.356L245.212 247.225Z" fill="#BFBFBF"/>
<path d="M255.223 247.795L141.112 327.316V329.094L257.586 247.934L255.223 247.795Z" fill="#BFBFBF"/>
<path d="M265.226 248.366L141.112 334.86V336.645L267.589 248.505L265.226 248.366Z" fill="#BFBFBF"/>
<path d="M275.236 248.944L141.112 342.404V344.19L277.6 249.076L275.236 248.944Z" fill="#BFBFBF"/>
<path d="M282.525 251.41L141.112 349.956V351.734L282.525 253.196V251.41Z" fill="#BFBFBF"/>
<path d="M282.525 258.955L141.112 357.5V359.286L282.525 260.74V258.955Z" fill="#BFBFBF"/>
<path d="M282.525 266.506L141.112 365.045V366.83L282.525 268.285V266.506Z" fill="#BFBFBF"/>
<path d="M282.525 274.051L141.112 372.589V374.375L282.525 275.829V274.051Z" fill="#BFBFBF"/>
<path d="M282.525 281.595L141.112 380.141V381.919L282.525 283.381V281.595Z" fill="#BFBFBF"/>
<path d="M282.525 289.14L141.112 387.686V389.471L282.525 290.925V289.14Z" fill="#BFBFBF"/>
<path d="M282.525 296.691L141.112 395.237V397.015L282.525 298.477V296.691Z" fill="#BFBFBF"/>
<path d="M282.525 304.236L146.966 398.699L149.059 399.021L282.525 306.021V304.236Z" fill="#BFBFBF"/>
<path d="M282.525 311.766L155.806 400.067L157.921 400.396L282.525 313.566V311.766Z" fill="#BFBFBF"/>
<path d="M282.524 319.317L164.667 401.443L166.782 401.765L282.524 321.11V319.317Z" fill="#BFBFBF"/>
<path d="M282.525 326.862L173.529 402.811L175.622 403.133L282.525 328.647V326.862Z" fill="#BFBFBF"/>
<path d="M282.524 334.406L182.391 404.187L184.483 404.509L282.524 336.192V334.406Z" fill="#BFBFBF"/>
<path d="M282.525 341.951L191.252 405.555L193.345 405.884L282.525 343.736V341.951Z" fill="#BFBFBF"/>
<path d="M282.524 349.502L200.106 406.931L202.207 407.253L282.524 351.288V349.502Z" fill="#BFBFBF"/>
<path d="M282.525 357.047L208.968 408.307L211.061 408.629L282.525 358.832V357.047Z" fill="#BFBFBF"/>
<path d="M282.524 364.591L217.83 409.675L219.922 409.997L282.524 366.377V364.591Z" fill="#BFBFBF"/>
<path d="M282.525 372.143L226.691 411.051L228.784 411.373L282.525 373.921V372.143Z" fill="#BFBFBF"/>
<path d="M282.525 379.688L235.553 412.419L237.646 412.748L282.525 381.473V379.688Z" fill="#BFBFBF"/>
<path d="M282.525 387.232L244.407 413.795L246.507 414.117L282.525 389.017V387.232Z" fill="#BFBFBF"/>
<path d="M282.525 394.784L253.269 415.163L255.362 415.492L282.525 396.562V394.784Z" fill="#BFBFBF"/>
<path d="M282.525 402.328L262.13 416.539L264.223 416.861L282.525 404.114V402.328Z" fill="#BFBFBF"/>
<path d="M282.525 409.872L270.992 417.914L273.085 418.236L282.525 411.658V409.872Z" fill="#BFBFBF"/>
<path d="M282.524 419.202V417.424L279.854 419.283L281.946 419.605L282.524 419.202Z" fill="#BFBFBF"/>
<path d="M282.305 419.583H282.224L140.812 397.674C140.682 397.655 140.563 397.59 140.477 397.49C140.392 397.391 140.344 397.264 140.344 397.133V240.595C140.345 240.52 140.361 240.445 140.391 240.376C140.421 240.307 140.465 240.244 140.519 240.192C140.574 240.142 140.639 240.103 140.709 240.078C140.78 240.052 140.855 240.042 140.929 240.046L282.341 248.154C282.481 248.163 282.611 248.225 282.706 248.327C282.801 248.429 282.854 248.563 282.854 248.703V419.034C282.855 419.114 282.838 419.192 282.806 419.264C282.773 419.336 282.724 419.4 282.663 419.451C282.565 419.539 282.437 419.586 282.305 419.583V419.583ZM141.441 396.657L281.727 418.398V249.215L141.412 241.166L141.441 396.657Z" fill="#444444"/>
<g opacity="0.5">
<path opacity="0.5" d="M86.2451 314.173L94.2579 361.232L231.938 383.2L237.039 328.816L86.2451 314.173Z" fill="#9AC9EF"/>
<path opacity="0.5" d="M231.967 383.749H231.88L94.1992 361.796C94.0868 361.774 93.9834 361.72 93.9025 361.639C93.8216 361.558 93.7669 361.455 93.7455 361.342L85.7327 314.276C85.7182 314.193 85.7232 314.109 85.7474 314.028C85.7715 313.948 85.8141 313.875 85.8718 313.815C85.9295 313.753 86.0002 313.706 86.0787 313.675C86.1572 313.645 86.2415 313.632 86.3255 313.639L237.09 328.267C237.234 328.282 237.367 328.353 237.459 328.465C237.551 328.578 237.594 328.722 237.58 328.867L232.458 383.251C232.45 383.326 232.427 383.398 232.39 383.463C232.354 383.528 232.305 383.586 232.245 383.632C232.165 383.695 232.069 383.735 231.967 383.749V383.749ZM94.7334 360.757L231.448 382.563L236.438 329.291L86.9035 314.788L94.7334 360.757Z" fill="black"/>
</g>
<g opacity="0.5">
<path opacity="0.5" d="M231.938 383.2L274.19 335.087L279.29 286.981L242.863 303.716L236.446 335.087L231.938 383.2Z" fill="#727F89"/>
<path opacity="0.5" d="M231.967 383.749C231.892 383.748 231.817 383.733 231.748 383.705C231.641 383.659 231.552 383.58 231.493 383.48C231.433 383.38 231.407 383.264 231.418 383.149L235.933 335.036L242.358 303.57C242.376 303.486 242.412 303.407 242.466 303.339C242.519 303.272 242.588 303.218 242.666 303.182L279.085 286.454C279.173 286.411 279.27 286.393 279.367 286.402C279.464 286.411 279.556 286.447 279.634 286.505C279.713 286.562 279.776 286.638 279.816 286.727C279.856 286.816 279.871 286.913 279.861 287.01L274.739 335.116C274.729 335.23 274.683 335.338 274.607 335.423L232.355 383.529C232.31 383.591 232.252 383.643 232.185 383.681C232.118 383.719 232.044 383.742 231.967 383.749V383.749ZM243.375 304.097L237.016 335.196L232.67 381.568L273.678 334.86L278.654 287.881L243.375 304.097Z" fill="black"/>
</g>
<path d="M281.705 297.584L224.76 354.822V286.981L281.705 248.571V297.584Z" fill="#CCCCCC"/>
<path d="M224.76 355.371C224.687 355.371 224.614 355.356 224.548 355.327C224.447 355.286 224.362 355.216 224.302 355.126C224.242 355.036 224.21 354.931 224.211 354.822V286.981C224.21 286.891 224.232 286.803 224.274 286.724C224.317 286.645 224.378 286.577 224.452 286.527L281.398 248.117C281.484 248.065 281.583 248.037 281.683 248.037C281.784 248.037 281.883 248.065 281.969 248.117C282.055 248.165 282.127 248.235 282.178 248.32C282.228 248.405 282.254 248.502 282.254 248.6V297.628C282.255 297.7 282.242 297.771 282.216 297.837C282.19 297.904 282.15 297.965 282.1 298.016L225.148 355.254C225.037 355.339 224.899 355.38 224.76 355.371ZM225.309 287.274V353.491L281.156 297.357V249.603L225.309 287.274Z" fill="#444444"/>
<path d="M224.759 354.822L79.6079 333.645V275.214L224.759 286.981V354.822Z" fill="#F9F9F9"/>
<path d="M224.759 355.371H224.65L79.5347 334.187C79.4041 334.177 79.2815 334.12 79.1889 334.028C79.0963 333.935 79.0399 333.812 79.0298 333.682V275.214C79.0298 275.138 79.0461 275.063 79.0777 274.993C79.1092 274.924 79.1553 274.862 79.2127 274.812C79.3246 274.711 79.4719 274.658 79.6225 274.665L224.774 286.432C224.912 286.443 225.041 286.506 225.134 286.608C225.228 286.709 225.279 286.843 225.279 286.981V354.822C225.278 354.901 225.26 354.979 225.228 355.051C225.195 355.123 225.148 355.187 225.089 355.239C224.995 355.316 224.88 355.362 224.759 355.371V355.371ZM80.1567 333.17L224.211 354.171V287.486L80.1567 275.814V333.17Z" fill="#444444"/>
<path opacity="0.5" d="M242.717 337.341C242.571 337.341 242.432 337.283 242.329 337.18C242.226 337.077 242.168 336.937 242.168 336.792C242.168 336.646 242.226 336.507 242.329 336.404C242.432 336.301 242.571 336.243 242.717 336.243L274.182 334.56C274.328 334.554 274.469 334.605 274.577 334.702C274.685 334.799 274.751 334.935 274.761 335.08C274.764 335.152 274.754 335.224 274.73 335.292C274.706 335.36 274.669 335.423 274.621 335.476C274.572 335.53 274.514 335.574 274.449 335.605C274.384 335.636 274.313 335.654 274.241 335.658L242.775 337.341H242.717Z" fill="black"/>
<path opacity="0.5" d="M94.2578 361.781C94.1666 361.78 94.077 361.757 93.9967 361.714C93.9164 361.67 93.8478 361.608 93.7968 361.533C93.726 361.413 93.7032 361.271 93.733 361.135C93.7629 360.999 93.8433 360.88 93.9578 360.801L125.95 340.012C126.069 339.939 126.212 339.915 126.349 339.945C126.485 339.975 126.604 340.057 126.682 340.173C126.753 340.292 126.776 340.434 126.746 340.57C126.716 340.706 126.636 340.825 126.521 340.904L94.5359 361.686C94.4545 361.744 94.3578 361.777 94.2578 361.781V361.781Z" fill="black"/>
<path d="M160.101 359.235C159.874 359.454 159.648 359.674 159.428 359.901C158.585 360.724 157.801 361.604 157.079 362.535C154.141 366.386 152.384 371.008 152.023 375.838C151.979 376.439 151.964 377.046 151.957 377.646V379.256C151.957 379.775 151.891 380.302 151.854 380.829L151.649 382.388C151.313 384.482 150.741 386.532 149.944 388.498C148.26 392.572 145.734 396.245 142.532 399.277C146.786 397.24 150.288 393.911 152.535 389.764C153.699 387.662 154.549 385.401 155.059 383.054C155.191 382.468 155.272 381.868 155.381 381.275C155.491 380.683 155.52 380.083 155.572 379.475L155.63 377.704C155.63 377.178 155.667 376.658 155.711 376.131C156.028 371.907 157.321 367.814 159.487 364.174C159.757 363.713 160.05 363.267 160.343 362.813L161.287 361.467C161.601 361.042 161.901 360.603 162.201 360.172L160.101 359.235Z" fill="#0084B2"/>
<path d="M213.593 353.388C213.373 353.615 213.147 353.835 212.92 354.054C212.081 354.881 211.299 355.764 210.578 356.696C207.637 360.545 205.88 365.168 205.522 369.999C205.47 370.599 205.456 371.199 205.456 371.807V373.416C205.456 373.936 205.383 374.463 205.353 374.982L205.148 376.548C204.808 378.642 204.236 380.691 203.443 382.658C201.756 386.733 199.227 390.406 196.023 393.437C200.28 391.401 203.784 388.072 206.034 383.924C207.193 381.821 208.044 379.561 208.558 377.214C208.683 376.629 208.771 376.029 208.873 375.436C208.976 374.843 209.012 374.236 209.063 373.636L209.129 371.865C209.129 371.338 209.129 370.811 209.202 370.292C209.508 366.064 210.788 361.964 212.942 358.313C213.205 357.845 213.505 357.398 213.791 356.952L214.742 355.605L215.657 354.303L213.593 353.388Z" fill="#0084B2"/>
<path d="M102.241 337.019L101.561 337.677C100.722 338.505 99.94 339.387 99.2192 340.319C96.278 344.168 94.5211 348.791 94.1627 353.622C94.1188 354.222 94.0969 354.83 94.0969 355.43L94.0603 357.04C94.0603 357.559 93.9871 358.086 93.9578 358.613L93.753 360.171C93.417 362.266 92.845 364.316 92.048 366.282C90.3604 370.357 87.832 374.029 84.6279 377.06C88.8845 375.025 92.3883 371.695 94.6384 367.548C95.799 365.444 96.6493 363.184 97.163 360.837C97.2873 360.252 97.3752 359.652 97.4776 359.059C97.5801 358.466 97.624 357.859 97.6679 357.259L97.7337 355.488C97.7337 354.961 97.7337 354.442 97.8142 353.915C98.1316 349.691 99.4241 345.598 101.59 341.958C101.854 341.49 102.154 341.051 102.439 340.597L103.39 339.25L104.305 337.955L102.241 337.019Z" fill="#0084B2"/>
<path d="M149.711 359.235C149.491 359.454 149.257 359.674 149.037 359.901C148.197 360.724 147.415 361.604 146.696 362.535C143.755 366.385 141.998 371.007 141.639 375.838C141.588 376.439 141.573 377.046 141.573 377.646L141.537 379.256C141.537 379.775 141.464 380.302 141.434 380.829L141.23 382.388C140.891 384.482 140.317 386.532 139.517 388.498C137.835 392.574 135.309 396.248 132.104 399.277C136.361 397.241 139.865 393.911 142.115 389.764C143.276 387.661 144.126 385.4 144.64 383.054C144.764 382.468 144.852 381.868 144.954 381.275C145.057 380.683 145.093 380.083 145.144 379.475L145.21 377.704C145.21 377.178 145.21 376.658 145.283 376.131C145.607 371.907 146.902 367.815 149.067 364.174C149.33 363.713 149.63 363.267 149.915 362.813L150.867 361.467C151.174 361.042 151.474 360.603 151.781 360.172L149.711 359.235Z" fill="#0084B2"/>
<path d="M281.983 297.738L139.839 280.951L140.571 123.689L281.251 132.522L281.983 297.738Z" fill="#CCCCCC"/>
<path d="M281.983 298.287H281.917L139.766 281.5C139.632 281.482 139.51 281.417 139.421 281.316C139.333 281.215 139.283 281.086 139.283 280.951L140.014 123.682C140.015 123.607 140.032 123.534 140.062 123.466C140.092 123.398 140.136 123.337 140.19 123.287C140.244 123.234 140.309 123.194 140.379 123.169C140.45 123.144 140.525 123.134 140.6 123.14L281.288 131.973C281.427 131.982 281.557 132.044 281.652 132.146C281.748 132.248 281.8 132.382 281.8 132.521L282.532 297.738C282.532 297.815 282.516 297.892 282.484 297.962C282.453 298.033 282.406 298.096 282.349 298.148C282.247 298.236 282.117 298.285 281.983 298.287V298.287ZM140.388 280.461L281.434 297.094L280.702 133.019L141.119 124.238L140.388 280.461Z" fill="#444444"/>
<path d="M144.09 124.582L140.783 126.66V128.438L146.454 124.713L144.09 124.582Z" fill="#BFBFBF"/>
<path d="M154.094 125.153L140.051 134.936V136.722L156.457 125.284L154.094 125.153Z" fill="#BFBFBF"/>
<path d="M164.097 125.723L140.051 142.481V144.266L166.468 125.862L164.097 125.723Z" fill="#BFBFBF"/>
<path d="M174.107 126.302L140.051 150.032V151.811L176.471 126.433L174.107 126.302Z" fill="#BFBFBF"/>
<path d="M184.118 126.872L140.051 157.577V159.362L186.481 127.004L184.118 126.872Z" fill="#BFBFBF"/>
<path d="M194.121 127.443L140.051 165.121V166.907L196.484 127.582L194.121 127.443Z" fill="#BFBFBF"/>
<path d="M204.131 128.021L140.051 172.666V174.451L206.495 128.153L204.131 128.021Z" fill="#BFBFBF"/>
<path d="M214.134 128.592L140.051 180.217V182.003L216.498 128.731L214.134 128.592Z" fill="#BFBFBF"/>
<path d="M224.145 129.163L140.051 187.762V189.547L226.508 129.302L224.145 129.163Z" fill="#BFBFBF"/>
<path d="M234.148 129.741L140.051 195.306V197.092L236.512 129.872L234.148 129.741Z" fill="#BFBFBF"/>
<path d="M244.159 130.312L140.051 202.858V204.636L246.522 130.451L244.159 130.312Z" fill="#BFBFBF"/>
<path d="M254.162 130.89L140.051 210.403V212.188L256.525 131.021L254.162 130.89Z" fill="#BFBFBF"/>
<path d="M264.172 131.46L140.051 217.947V219.732L266.536 131.599L264.172 131.46Z" fill="#BFBFBF"/>
<path d="M274.175 132.031L140.051 225.499V227.277L276.539 132.17L274.175 132.031Z" fill="#BFBFBF"/>
<path d="M281.464 134.504L140.051 233.043V234.828L281.464 136.283V134.504Z" fill="#BFBFBF"/>
<path d="M281.464 142.049L140.051 240.587V242.373L281.464 143.834V142.049Z" fill="#BFBFBF"/>
<path d="M281.464 149.593L140.051 248.139V249.917L281.464 151.379V149.593Z" fill="#BFBFBF"/>
<path d="M281.464 157.138L140.051 255.684V257.469L281.464 158.923V157.138Z" fill="#BFBFBF"/>
<path d="M281.464 164.689L140.051 263.228V265.014L281.464 166.468V164.689Z" fill="#BFBFBF"/>
<path d="M281.464 172.234L140.051 270.78V272.558L281.464 174.019V172.234Z" fill="#BFBFBF"/>
<path d="M281.464 179.778L140.051 278.324V280.11L281.464 181.564V179.778Z" fill="#BFBFBF"/>
<path d="M281.464 187.33L145.913 281.785L148.005 282.115L281.464 189.108V187.33Z" fill="#BFBFBF"/>
<path d="M281.464 194.86L154.752 283.161L156.867 283.483L281.464 196.66V194.86Z" fill="#BFBFBF"/>
<path d="M281.463 202.404L163.614 284.53L165.729 284.859L281.463 204.204V202.404Z" fill="#BFBFBF"/>
<path d="M281.464 209.949L172.476 285.905L174.568 286.227L281.464 211.734V209.949Z" fill="#BFBFBF"/>
<path d="M281.463 217.5L181.337 287.274L183.43 287.603L281.463 219.279V217.5Z" fill="#BFBFBF"/>
<path d="M281.464 225.045L190.191 288.649L192.284 288.971L281.464 226.83V225.045Z" fill="#BFBFBF"/>
<path d="M281.463 232.589L199.053 290.018L201.146 290.347L281.463 234.375V232.589Z" fill="#BFBFBF"/>
<path d="M281.464 240.141L207.915 291.393L210.007 291.715L281.464 241.919V240.141Z" fill="#BFBFBF"/>
<path d="M281.463 247.686L216.776 292.769L218.869 293.091L281.463 249.471V247.686Z" fill="#BFBFBF"/>
<path d="M281.464 255.23L225.638 294.138L227.731 294.46L281.464 257.015V255.23Z" fill="#BFBFBF"/>
<path d="M281.463 262.782L234.492 295.513L236.585 295.835L281.463 264.56V262.782Z" fill="#BFBFBF"/>
<path d="M281.464 270.326L243.354 296.882L245.446 297.211L281.464 272.112V270.326Z" fill="#BFBFBF"/>
<path d="M281.464 277.871L252.215 298.257L254.308 298.579L281.464 279.656V277.871Z" fill="#BFBFBF"/>
<path d="M281.463 285.422L261.077 299.626L263.17 299.955L281.463 287.201V285.422Z" fill="#BFBFBF"/>
<path d="M281.464 292.967L269.931 301.002L272.031 301.324L281.464 294.752V292.967Z" fill="#BFBFBF"/>
<path d="M282.195 297.174V295.389L279.524 297.255L281.617 297.577L282.195 297.174Z" fill="#BFBFBF"/>
<path d="M281.983 298.287H281.917L139.766 281.5C139.632 281.482 139.51 281.417 139.421 281.316C139.333 281.215 139.283 281.086 139.283 280.951L140.014 123.682C140.015 123.607 140.032 123.534 140.062 123.466C140.092 123.398 140.136 123.337 140.19 123.287C140.244 123.234 140.309 123.194 140.379 123.169C140.45 123.144 140.525 123.134 140.6 123.14L281.288 131.973C281.427 131.982 281.557 132.044 281.652 132.146C281.748 132.248 281.8 132.382 281.8 132.521L282.532 297.738C282.532 297.815 282.516 297.892 282.484 297.962C282.453 298.033 282.406 298.096 282.349 298.148C282.247 298.236 282.117 298.285 281.983 298.287V298.287ZM140.388 280.461L281.434 297.094L280.702 133.019L141.119 124.238L140.388 280.461Z" fill="#444444"/>
<path d="M282.239 297.057L225.162 354.712V172.395L282.239 132.126V297.057Z" fill="#CCCCCC"/>
<path d="M225.162 355.261C225.092 355.26 225.023 355.247 224.957 355.225C224.856 355.183 224.769 355.112 224.708 355.021C224.646 354.929 224.614 354.822 224.613 354.712V172.395C224.614 172.307 224.635 172.221 224.676 172.143C224.717 172.065 224.776 171.999 224.847 171.948L281.925 131.702C282.007 131.644 282.104 131.61 282.204 131.604C282.305 131.597 282.405 131.619 282.494 131.666C282.584 131.712 282.658 131.783 282.71 131.869C282.762 131.956 282.789 132.055 282.788 132.155V297.094C282.789 297.165 282.776 297.236 282.75 297.303C282.724 297.37 282.684 297.43 282.634 297.482L225.557 355.137C225.503 355.184 225.441 355.219 225.373 355.24C225.305 355.262 225.233 355.269 225.162 355.261V355.261ZM225.711 172.695V353.381L281.727 296.83V133.18L225.711 172.695Z" fill="#444444"/>
<path d="M225.162 354.713L79.3589 333.543V159.194L225.162 172.717V354.713Z" fill="#F9F9F9"/>
<path d="M225.162 355.261H225.082L79.2789 334.084C79.1483 334.063 79.0295 333.997 78.9436 333.896C78.8578 333.795 78.8106 333.668 78.8105 333.535V159.194C78.8169 159.115 78.8397 159.039 78.8775 158.969C78.9153 158.9 78.9673 158.839 79.0301 158.791C79.086 158.74 79.152 158.702 79.2239 158.678C79.2957 158.654 79.3718 158.645 79.4472 158.652L225.25 172.183C225.387 172.194 225.515 172.257 225.607 172.359C225.7 172.461 225.75 172.594 225.748 172.731V354.72C225.749 354.799 225.732 354.878 225.7 354.95C225.667 355.022 225.618 355.086 225.557 355.137C225.503 355.183 225.44 355.218 225.373 355.24C225.305 355.261 225.233 355.268 225.162 355.261V355.261ZM79.9082 333.067L224.65 354.083V173.222L79.9082 159.794V333.067Z" fill="#444444"/>
<path d="M197.165 261.282V250.027H200.831V253.693H209.21V257.615H200.831V261.282H197.165Z" fill="#99C6D6"/>
<path d="M197.297 216.125V219.528V223.457H209.334V219.528H201.226V216.125H209.334V212.203H201.226H197.297V216.125Z" fill="#99C6D6"/>
<path d="M202.009 187.33L197.297 183.927V188.377L202.009 191.779V192.306H197.297V196.228H209.334V192.306H204.885V191.26L209.334 189.167V184.454L203.319 188.113L202.009 187.33Z" fill="#99C6D6"/>
<path d="M197.297 202.251V205.909L209.334 211.149V206.956L207.241 206.436V201.965L209.334 201.182V196.997L197.297 202.251ZM204.366 205.397L201.234 204.087L204.38 203.041L204.366 205.397Z" fill="#99C6D6"/>
<path d="M197.297 241.78V245.439L209.334 250.671V246.485L207.241 245.958V241.509L209.334 240.726V236.541L197.297 241.78ZM204.366 244.919L201.219 243.61L204.366 242.563V244.919Z" fill="#99C6D6"/>
<path d="M197.297 229.077V235.494H209.334V231.572H206.451V229.077C206.451 228.476 206.333 227.88 206.102 227.325C205.872 226.77 205.535 226.265 205.109 225.84C204.684 225.416 204.179 225.079 203.623 224.849C203.067 224.62 202.472 224.502 201.87 224.503V224.503C201.27 224.503 200.675 224.622 200.12 224.852C199.565 225.081 199.061 225.418 198.636 225.843C198.212 226.268 197.875 226.772 197.645 227.327C197.415 227.882 197.297 228.476 197.297 229.077V229.077ZM203.319 229.845V231.572H200.502V229.845C200.502 229.469 200.652 229.108 200.918 228.841C201.184 228.575 201.545 228.426 201.922 228.426C202.298 228.426 202.659 228.575 202.925 228.841C203.192 229.108 203.341 229.469 203.341 229.845H203.319Z" fill="#99C6D6"/>
<path d="M138.427 97.4776L153.867 93.8188C153.867 93.8188 161.916 131.87 192.833 114.308C223.75 96.7459 200.151 147.969 200.151 147.969C200.151 147.969 132.514 153.091 130.312 153.091C128.109 153.091 97.9605 147.969 102.373 142.847C106.785 137.724 123.696 114.308 125.899 112.113C128.102 109.918 138.427 97.4776 138.427 97.4776Z" fill="#CCCCCC"/>
<path d="M130.341 153.669C128.511 153.669 103.829 149.615 101.605 144.756C101.431 144.389 101.375 143.977 101.443 143.577C101.511 143.176 101.7 142.807 101.985 142.517C104.18 139.949 109.53 132.814 114.681 125.906C119.833 118.999 124.421 112.874 125.54 111.754C127.736 109.603 137.9 97.2799 137.98 97.1189C138.06 97.0297 138.165 96.9661 138.28 96.936L153.72 93.2772C153.864 93.2464 154.013 93.2727 154.138 93.3504C154.199 93.3896 154.253 93.4409 154.294 93.5012C154.336 93.5616 154.365 93.6298 154.379 93.7016C154.416 93.8773 158.287 111.432 170.266 116.811C176.581 119.642 184.074 118.64 192.54 113.825C199.646 109.786 204.402 109.017 207.08 111.469C214.347 118.135 201.226 146.966 200.663 148.196C200.619 148.283 200.554 148.358 200.473 148.413C200.393 148.468 200.299 148.502 200.202 148.51C197.465 148.73 132.543 153.669 130.341 153.669ZM138.734 97.9971C137.527 99.4606 128.416 110.437 126.294 112.53C125.233 113.591 120.521 119.891 115.545 126.565C110.378 133.487 105.037 140.637 102.797 143.234C102.65 143.365 102.549 143.539 102.509 143.732C102.47 143.925 102.494 144.125 102.578 144.303C104.444 148.371 127.655 152.572 130.319 152.572C132.397 152.572 194.714 147.859 199.792 147.449C201.175 144.361 212.656 118.084 206.334 112.288C204.087 110.225 199.624 111.066 193.082 114.784C184.301 119.781 176.464 120.806 169.812 117.82C158.396 112.698 154.196 97.6092 153.435 94.4846L138.734 97.9971Z" fill="#444444"/>
<path d="M143 96.2702L133.297 103.002C132.112 104.415 130.838 105.929 129.638 107.312L146.893 95.3481L143 96.2702Z" fill="#BFBFBF"/>
<path d="M153.977 96.2043L118.787 120.616L116.006 124.326L154.438 97.6679C154.262 97.1337 154.108 96.6434 153.977 96.2043Z" fill="#BFBFBF"/>
<path d="M156.201 102.212L106.998 136.341C105.915 137.761 104.92 139.063 104.071 140.161L156.845 103.573C156.596 103.105 156.399 102.651 156.201 102.212Z" fill="#BFBFBF"/>
<path d="M159.143 107.715L103.529 146.293C104.002 146.577 104.49 146.834 104.993 147.061L159.97 108.93C159.677 108.527 159.406 108.125 159.143 107.715Z" fill="#BFBFBF"/>
<path d="M162.97 112.61L110.422 149.059L112.23 149.586L164.046 113.649C163.672 113.313 163.314 112.969 162.97 112.61Z" fill="#BFBFBF"/>
<path d="M168.099 116.598L118.34 151.093C119.006 151.247 119.664 151.386 120.301 151.518L169.57 117.345C169.08 117.118 168.59 116.862 168.099 116.598Z" fill="#BFBFBF"/>
<path d="M175.695 118.874L126.894 152.725C127.779 152.864 128.504 152.967 129.031 153.025L178.212 118.918C177.373 118.955 176.532 118.94 175.695 118.874V118.874Z" fill="#BFBFBF"/>
<path d="M195.65 112.581L138.017 152.557L140.886 152.352L200.743 110.832C198.981 111.206 197.271 111.793 195.65 112.581V112.581Z" fill="#BFBFBF"/>
<path d="M206.707 112.442L150.142 151.671L153.069 151.459L207.483 113.722C207.284 113.262 207.023 112.832 206.707 112.442V112.442Z" fill="#BFBFBF"/>
<path d="M208.229 118.933L162.326 150.742L165.253 150.53L208.134 120.791C208.171 120.169 208.215 119.54 208.229 118.933Z" fill="#BFBFBF"/>
<path d="M206.949 127.37L174.517 149.864L177.4 149.645L206.392 129.521C206.59 128.789 206.78 128.058 206.949 127.37Z" fill="#BFBFBF"/>
<path d="M204.073 136.912L186.715 148.949L189.642 148.73L203.246 139.29C203.495 138.529 203.787 137.731 204.073 136.912Z" fill="#BFBFBF"/>
<path d="M199.953 147.318L198.929 148.049L199.66 147.991C199.66 147.991 199.77 147.735 199.953 147.318Z" fill="#BFBFBF"/>
<path d="M130.341 153.669C128.511 153.669 103.829 149.615 101.605 144.756C101.431 144.389 101.375 143.977 101.443 143.577C101.511 143.176 101.7 142.807 101.985 142.517C104.18 139.949 109.53 132.814 114.681 125.906C119.833 118.999 124.421 112.874 125.54 111.754C127.736 109.603 137.9 97.2799 137.98 97.1189C138.06 97.0297 138.165 96.9661 138.28 96.936L153.72 93.2772C153.864 93.2464 154.013 93.2727 154.138 93.3504C154.199 93.3896 154.253 93.4409 154.294 93.5012C154.336 93.5616 154.365 93.6298 154.379 93.7016C154.416 93.8773 158.287 111.432 170.266 116.811C176.581 119.642 184.074 118.64 192.54 113.825C199.646 109.786 204.402 109.017 207.08 111.469C214.347 118.135 201.226 146.966 200.663 148.196C200.619 148.283 200.554 148.358 200.473 148.413C200.393 148.468 200.299 148.502 200.202 148.51C197.465 148.73 132.543 153.669 130.341 153.669ZM138.734 97.9971C137.527 99.4606 128.416 110.437 126.294 112.53C125.233 113.591 120.521 119.891 115.545 126.565C110.378 133.487 105.037 140.637 102.797 143.234C102.65 143.365 102.549 143.539 102.509 143.732C102.47 143.925 102.494 144.125 102.578 144.303C104.444 148.371 127.655 152.572 130.319 152.572C132.397 152.572 194.714 147.859 199.792 147.449C201.175 144.361 212.656 118.084 206.334 112.288C204.087 110.225 199.624 111.066 193.082 114.784C184.301 119.781 176.464 120.806 169.812 117.82C158.396 112.698 154.196 97.6092 153.435 94.4846L138.734 97.9971Z" fill="#444444"/>
<path d="M153.589 93.504L136.985 97.2506C136.985 97.2506 157.475 73.4538 177.913 77.2443C177.913 77.2443 158.06 76.8345 153.589 93.504Z" fill="#0084B2"/>
<path d="M239.636 137.029C239.5 137.03 239.369 136.98 239.268 136.89C239.166 136.799 239.102 136.674 239.087 136.539C235.429 102.146 209.473 96.0872 209.217 96.036C209.146 96.0204 209.079 95.991 209.02 95.9494C208.961 95.9078 208.91 95.8548 208.871 95.7936C208.833 95.7323 208.806 95.664 208.794 95.5926C208.782 95.5212 208.784 95.448 208.8 95.3774C208.815 95.3069 208.843 95.24 208.884 95.1807C208.925 95.1214 208.977 95.0709 209.038 95.032C209.099 94.9932 209.166 94.9668 209.237 94.9545C209.308 94.9422 209.381 94.9442 209.451 94.9603C209.722 95.0188 236.402 101.246 240.185 136.422C240.202 136.566 240.16 136.711 240.069 136.825C239.979 136.939 239.847 137.013 239.702 137.029H239.636Z" fill="#444444"/>
<path d="M249.12 106.837C252.325 103.244 255.632 99.7679 258.94 96.2847C259.759 95.4139 260.659 94.5797 261.523 93.7163C262.386 92.8528 263.33 92.0917 264.238 91.2722C265.145 90.4526 266.133 89.7282 267.106 88.9891C268.079 88.25 269.075 87.5256 270.106 86.8743C274.204 84.1635 278.593 81.9201 283.19 80.186C287.799 78.4429 292.587 77.2158 297.467 76.5272C299.909 76.2078 302.366 76.0197 304.828 75.9638C306.058 75.9638 307.287 75.9126 308.487 75.9638H312.036C316.724 75.8979 321.393 75.3684 325.976 74.3832C330.591 73.3786 335.101 71.9429 339.448 70.0951C343.904 68.3023 348.353 66.4948 352.868 64.8411C348.69 67.2339 344.446 69.4731 340.202 71.7196C338.06 72.861 335.861 73.8941 333.616 74.8149C331.348 75.7275 329.029 76.5093 326.671 77.1566C321.93 78.457 317.058 79.218 312.146 79.425C310.909 79.4762 309.695 79.4835 308.487 79.4909C307.28 79.4982 306.109 79.4909 304.945 79.5567C302.614 79.6407 300.289 79.8459 297.979 80.1714C293.335 80.7679 288.767 81.857 284.354 83.4204C279.927 84.9523 275.66 86.9129 271.614 89.2745C267.542 91.665 263.71 94.4414 260.169 97.5653C256.518 100.726 252.874 103.851 249.12 106.837Z" fill="#0084B2"/>
<path d="M253.24 106.032C255.867 104.276 258.56 102.673 261.289 101.063C264.051 99.4621 266.939 98.0892 269.924 96.9579C275.945 94.6842 282.292 93.3921 288.723 93.1308C289.52 93.1308 290.325 93.1308 291.13 93.0869H293.443C294.965 93.0869 296.487 92.9918 298.009 92.8747C301.061 92.6405 304.098 92.235 307.104 91.66C308.605 91.3819 310.097 91.0014 311.641 90.6721L316.244 89.6843C319.325 89.0769 322.406 88.4549 325.53 87.9939C322.603 89.2379 319.676 90.3209 316.749 91.4112C313.822 92.5015 310.895 93.5479 307.785 94.4407C304.701 95.3299 301.549 95.9614 298.36 96.3286C296.765 96.5189 295.162 96.636 293.552 96.7018C292.762 96.7018 291.92 96.7018 291.167 96.753C290.413 96.8043 289.645 96.753 288.884 96.8189C282.775 97.0755 276.717 98.0406 270.831 99.6947C267.865 100.538 264.946 101.539 262.087 102.695C259.138 103.822 256.225 105 253.24 106.032Z" fill="#0084B2"/>
<path d="M226.289 169.336L114.579 153.369L134.087 130.341C144.551 119.73 162.999 105.519 162.999 90.577L162.86 89.8452L256.847 96.592C256.847 111.374 257.52 128.058 266.236 139.985L243.895 155.499L226.289 169.336Z" fill="#CCCCCC"/>
<path d="M226.289 169.885H226.216L114.498 153.918C114.401 153.905 114.309 153.865 114.233 153.803C114.157 153.741 114.099 153.659 114.066 153.567C114.032 153.476 114.021 153.377 114.037 153.281C114.052 153.184 114.093 153.094 114.154 153.018L133.67 129.982C135.565 128.058 137.68 126.053 139.919 123.938C149.944 114.425 162.414 102.658 162.45 90.6356L162.318 89.9844C162.302 89.9008 162.305 89.8146 162.326 89.7323C162.348 89.6499 162.388 89.5734 162.443 89.5087C162.501 89.4469 162.571 89.3985 162.649 89.3669C162.728 89.3353 162.812 89.3213 162.897 89.3258L256.847 96.0433C256.985 96.0544 257.113 96.1171 257.207 96.2188C257.301 96.3206 257.352 96.4539 257.352 96.5921C257.352 111.293 258.084 127.963 266.638 139.663C266.712 139.78 266.739 139.919 266.715 140.055C266.69 140.191 266.616 140.312 266.506 140.395L244.166 155.916L226.603 169.731C226.516 169.813 226.407 169.867 226.289 169.885V169.885ZM115.618 152.938L226.113 168.729L243.522 155.038L265.431 139.824C257.074 128.021 256.284 111.637 256.262 97.0751L163.519 90.4454C163.523 90.4794 163.523 90.5138 163.519 90.5478C163.519 103.061 150.837 115.062 140.644 124.706C138.412 126.814 136.304 128.811 134.446 130.692L115.618 152.938Z" fill="#444444"/>
<path d="M162.86 89.8745L162.75 90.5331C162.75 90.899 162.75 91.2649 162.707 91.6234L164.558 90.3282L162.86 89.8745Z" fill="#BFBFBF"/>
<path d="M172.044 90.8479L161.067 98.546C160.709 99.4314 160.292 100.317 159.838 101.195L174.378 91.0089L172.044 90.8479Z" fill="#BFBFBF"/>
<path d="M181.849 91.5283L151.013 113.122C149.22 115.076 147.354 116.972 145.43 118.816L184.169 91.6893L181.849 91.5283Z" fill="#BFBFBF"/>
<path d="M191.655 92.209L133.824 132.712V134.497L193.975 92.3627L191.655 92.209Z" fill="#BFBFBF"/>
<path d="M201.461 92.8821L133.824 140.256V142.042L203.78 93.0431L201.461 92.8821Z" fill="#BFBFBF"/>
<path d="M133.824 147.808V149.586L213.586 93.7235L211.266 93.5625L133.824 147.808Z" fill="#BFBFBF"/>
<path d="M133.824 157.138L134.9 156.377L133.824 156.223V157.138Z" fill="#BFBFBF"/>
<path d="M221.072 94.2432L133.824 155.352V156.223L134.9 156.377L223.384 94.4042L221.072 94.2432Z" fill="#BFBFBF"/>
<path d="M230.877 94.9236L141.734 157.357L143.849 157.657L233.197 95.0846L230.877 94.9236Z" fill="#BFBFBF"/>
<path d="M240.683 95.6042L150.684 158.638L152.798 158.938L242.995 95.7652L240.683 95.6042Z" fill="#BFBFBF"/>
<path d="M250.488 96.2847L159.633 159.911L161.748 160.218L252.801 96.4457L250.488 96.2847Z" fill="#BFBFBF"/>
<path d="M257.22 100.895C257.22 100.302 257.22 99.7094 257.22 99.1167L256.759 99.4387C256.759 100.031 256.759 100.624 256.759 101.217L257.22 100.895Z" fill="#BFBFBF"/>
<path d="M256.752 99.4387L168.583 161.192L170.697 161.492L256.759 101.217C256.759 100.624 256.752 100.031 256.752 99.4387Z" fill="#BFBFBF"/>
<path d="M257.367 108.337C257.367 107.759 257.323 107.181 257.308 106.595L256.862 106.917C256.862 107.495 256.898 108.073 256.92 108.651L257.367 108.337Z" fill="#BFBFBF"/>
<path d="M256.847 106.917L177.532 162.45L179.647 162.75L256.92 108.6C256.898 108.073 256.847 107.495 256.847 106.917Z" fill="#BFBFBF"/>
<path d="M257.842 115.552C257.791 114.996 257.74 114.432 257.696 113.876L257.264 114.176C257.315 114.732 257.367 115.289 257.425 115.845L257.842 115.552Z" fill="#BFBFBF"/>
<path d="M257.264 114.154L186.481 163.731L188.596 164.031L257.425 115.823C257.367 115.289 257.316 114.732 257.264 114.154Z" fill="#BFBFBF"/>
<path d="M258.816 122.423C258.713 121.896 258.618 121.369 258.53 120.835L258.135 121.113C258.223 121.64 258.326 122.167 258.428 122.694L258.816 122.423Z" fill="#BFBFBF"/>
<path d="M258.135 121.113L195.431 165.019L197.545 165.326L258.428 122.687C258.311 122.204 258.223 121.64 258.135 121.113Z" fill="#BFBFBF"/>
<path d="M260.411 128.848C260.257 128.358 260.111 127.867 259.972 127.385L259.606 127.641C259.752 128.131 259.906 128.621 260.06 129.104L260.411 128.848Z" fill="#BFBFBF"/>
<path d="M259.606 127.626L204.38 166.307L206.495 166.607L260.06 129.097C259.906 128.607 259.774 128.116 259.606 127.626Z" fill="#BFBFBF"/>
<path d="M262.753 134.753C262.54 134.307 262.328 133.86 262.131 133.407L261.816 133.626C262.021 134.08 262.233 134.526 262.453 134.965L262.753 134.753Z" fill="#BFBFBF"/>
<path d="M261.816 133.626L213.33 167.573L215.444 167.873L262.453 134.944C262.233 134.519 262.021 134.08 261.816 133.626Z" fill="#BFBFBF"/>
<path d="M243.156 155.499L236.995 160.343L265.943 140.066C265.65 139.678 265.38 139.276 265.109 138.873L264.845 139.056C265.058 139.363 265.27 139.678 265.497 139.985L243.156 155.499Z" fill="#BFBFBF"/>
<path d="M236.994 160.343L243.156 155.499L265.496 139.985C265.27 139.678 265.057 139.363 264.845 139.056L222.279 168.868L224.394 169.168L236.994 160.343Z" fill="#BFBFBF"/>
<path d="M225.564 169.885H225.484L113.774 153.918C113.676 153.904 113.584 153.864 113.507 153.802C113.429 153.74 113.37 153.659 113.335 153.567C113.299 153.475 113.29 153.376 113.306 153.279C113.323 153.183 113.366 153.092 113.43 153.018L132.939 129.982C134.944 127.948 137.212 125.826 139.612 123.579C149.681 114.154 162.202 102.446 162.202 90.5331C162.198 90.504 162.198 90.4745 162.202 90.4453L162.304 89.7867C162.327 89.6511 162.4 89.5288 162.508 89.4437C162.616 89.3585 162.752 89.3165 162.889 89.3257L256.847 96.0433C256.985 96.0543 257.113 96.117 257.207 96.2187C257.301 96.3205 257.352 96.4538 257.352 96.5921V96.8701C257.352 111.447 257.352 127.97 265.906 139.663C265.984 139.778 266.015 139.918 265.992 140.054C265.969 140.191 265.893 140.313 265.782 140.395L243.441 155.916L225.879 169.731C225.794 169.815 225.683 169.869 225.564 169.885V169.885ZM114.886 152.937L225.382 168.729L242.783 155.038L264.692 139.824C256.298 127.948 256.254 111.578 256.254 97.075L163.321 90.4307V90.5477C163.321 102.9 150.596 114.791 140.388 124.348C137.995 126.587 135.734 128.702 133.802 130.692L114.886 152.937Z" fill="#444444"/>
<path d="M162.45 91.6602C162.45 92.2602 162.45 92.8676 162.406 93.4749L162.772 93.2188C162.772 92.6114 162.809 92.0114 162.816 91.4041L162.45 91.6602Z" fill="#BFBFBF"/>
<path d="M163.965 99.6436C163.863 100.324 163.745 100.997 163.621 101.671L163.987 101.414C164.111 100.741 164.236 100.068 164.338 99.3875L163.965 99.6436Z" fill="#BFBFBF"/>
<path d="M161.814 108.703C161.558 109.493 161.287 110.276 160.994 111.059L161.375 110.788C161.667 110.012 161.938 109.229 162.194 108.432L161.814 108.703Z" fill="#BFBFBF"/>
<path d="M157.657 113.086C157.028 114.164 156.365 115.223 155.667 116.262L156.084 115.969C156.772 114.937 156.699 120.469 157.321 119.394L157.657 113.086Z" fill="#BFBFBF"/>
<path d="M254.652 142.81H254.601L136.839 132.214C136.724 132.203 136.615 132.156 136.529 132.08C136.442 132.004 136.382 131.902 136.356 131.79C136.33 131.678 136.34 131.561 136.383 131.455C136.426 131.349 136.501 131.259 136.597 131.197L149.037 123.44C159.172 113.152 162.26 105.468 162.26 90.5698L162.348 89.838C162.363 89.6969 162.432 89.5672 162.542 89.4768C162.651 89.3865 162.792 89.3428 162.933 89.3551L256.847 96.0433C256.985 96.0544 257.114 96.1171 257.207 96.2188C257.301 96.3206 257.353 96.4539 257.352 96.5922C257.352 107.012 260.572 110.876 265.914 117.264C267.648 119.343 269.609 121.699 271.768 124.618C271.815 124.682 271.848 124.755 271.864 124.832C271.881 124.91 271.88 124.99 271.863 125.067C271.846 125.144 271.812 125.216 271.764 125.279C271.716 125.342 271.655 125.394 271.585 125.431L260.689 131.109L255.12 142.503C255.078 142.592 255.012 142.667 254.929 142.722C254.846 142.776 254.751 142.806 254.652 142.81V142.81ZM138.551 131.263L254.308 141.683L259.774 130.465C259.824 130.357 259.91 130.27 260.016 130.216L270.502 124.75C268.526 122.094 266.704 119.913 265.087 117.967C259.679 111.491 256.379 107.539 256.306 97.1044L163.372 90.46V90.6356C163.372 105.834 160.197 113.701 149.784 124.253C149.755 124.283 149.724 124.31 149.689 124.333L138.551 131.263Z" fill="#444444"/>
<path d="M161.865 121.165C156.457 129.946 114.074 142.612 114.074 142.612L102.761 115.574L162.86 89.8745C162.86 89.8745 167.265 112.391 161.865 121.165Z" fill="#CCCCCC"/>
<path d="M114.074 143.161C113.966 143.16 113.861 143.128 113.771 143.068C113.682 143.008 113.611 142.924 113.569 142.825L102.256 115.75C102.226 115.683 102.209 115.611 102.207 115.538C102.205 115.465 102.218 115.392 102.245 115.324C102.271 115.255 102.311 115.193 102.362 115.141C102.413 115.088 102.474 115.046 102.541 115.018L162.641 89.3184C162.715 89.2822 162.796 89.2634 162.879 89.2634C162.961 89.2634 163.042 89.2822 163.116 89.3184C163.189 89.3547 163.251 89.4074 163.299 89.4722C163.348 89.537 163.38 89.6121 163.394 89.6916C163.577 90.621 167.785 112.523 162.326 121.377C156.867 130.231 115.969 142.539 114.235 143.059C114.189 143.104 114.134 143.139 114.074 143.161V143.161ZM103.478 115.859L114.389 141.961C119.05 140.542 156.465 128.907 161.397 120.901C166.109 113.24 163.109 94.4554 162.443 90.6722L103.478 115.859Z" fill="#444444"/>
<path d="M282.122 132.06L224.84 172.563L206.224 169.431L209.663 124.333L256.847 96.592L257.791 99.7386C261.801 111.988 271.241 123.47 281.412 131.329L282.122 132.06Z" fill="#CCCCCC"/>
<path d="M224.84 173.112H224.752L206.136 169.973C206.002 169.951 205.88 169.88 205.796 169.772C205.712 169.665 205.671 169.53 205.682 169.395L209.114 124.304C209.121 124.215 209.149 124.13 209.197 124.055C209.244 123.979 209.308 123.917 209.385 123.872L256.554 96.131C256.626 96.0871 256.706 96.0604 256.79 96.0529C256.873 96.0455 256.957 96.0574 257.035 96.0879C257.113 96.1184 257.183 96.1666 257.239 96.2287C257.295 96.2908 257.337 96.365 257.359 96.4457L258.303 99.5849C261.925 110.656 270.684 122.365 281.719 130.904L282.502 131.687C282.558 131.744 282.6 131.812 282.626 131.886C282.653 131.961 282.663 132.04 282.656 132.119C282.649 132.198 282.626 132.275 282.586 132.345C282.547 132.414 282.494 132.474 282.429 132.521L225.14 173.024C225.051 173.083 224.946 173.113 224.84 173.112V173.112ZM206.809 168.97L224.708 171.963L281.28 131.965L280.995 131.716C269.836 123.096 260.937 111.191 257.242 99.9069L256.51 97.4189L210.19 124.662L206.809 168.97Z" fill="#444444"/>
<path d="M78.9785 159.443C78.9785 159.443 102.666 132.251 102.666 117.316V116.079L208.551 124.128H209.714C209.714 138.902 213.066 156.487 221.781 168.392L224.708 172.388L78.9785 159.443Z" fill="#F9F9F9"/>
<path d="M224.708 172.958H224.65L78.9274 159.992C78.8267 159.981 78.7308 159.944 78.6497 159.883C78.5686 159.822 78.5052 159.741 78.4664 159.648C78.4272 159.554 78.4154 159.452 78.4323 159.352C78.4491 159.253 78.4939 159.16 78.5615 159.084C78.7957 158.814 102.117 131.878 102.117 117.316V116.079C102.117 116.003 102.132 115.928 102.162 115.858C102.193 115.789 102.237 115.726 102.293 115.674C102.348 115.623 102.414 115.583 102.486 115.559C102.558 115.534 102.634 115.524 102.71 115.53L208.595 123.579H209.715C209.787 123.578 209.859 123.592 209.926 123.619C209.993 123.646 210.054 123.687 210.105 123.738C210.156 123.789 210.196 123.85 210.224 123.917C210.251 123.984 210.264 124.056 210.263 124.128C210.263 141.412 214.734 157.84 222.22 168.034L225.147 172.036C225.21 172.121 225.248 172.222 225.254 172.327C225.261 172.433 225.236 172.538 225.184 172.629C225.145 172.724 225.079 172.805 224.995 172.864C224.91 172.922 224.811 172.955 224.708 172.958V172.958ZM80.0836 158.989L223.545 171.758L221.349 168.736C210.6 154.05 209.239 133.444 209.188 124.699H208.551L103.214 116.65V117.294C103.214 130.985 84.0863 154.277 80.0836 158.989Z" fill="#444444"/>
<path d="M224.65 172.871C225.704 143.659 229.143 123.257 209.334 98.1801C206.473 94.5579 200.019 97.5581 200.129 102.146C200.129 103.573 195.738 159.062 154.657 147.515C137.571 142.693 131.651 115.406 137.571 98.5313L137.615 98.3996C139.151 94.0529 134.402 91.8138 130.165 94.8506C115.611 105.242 94.9676 126.587 81.8692 153.274C80.9911 155.06 80.0471 157.365 79.2056 159.201L224.65 172.871Z" fill="#F9F9F9"/>
<path d="M224.65 173.427H224.599L79.1691 159.743C79.0817 159.736 78.9974 159.707 78.9235 159.66C78.8496 159.613 78.7882 159.548 78.7447 159.472C78.7048 159.394 78.6841 159.307 78.6841 159.22C78.6841 159.132 78.7048 159.045 78.7447 158.967C79.074 158.236 79.4252 157.453 79.7765 156.64C80.318 155.404 80.8814 154.123 81.4083 153.033C94.7775 125.745 115.859 104.393 129.851 94.4042C132.302 92.6553 135.178 92.4065 137.007 93.7896C138.405 94.8433 138.829 96.6361 138.142 98.5826L138.098 98.7143C134.344 109.427 135.485 124.136 140.871 134.49C144.288 141.076 149.103 145.371 154.774 146.974C165.421 149.974 174.532 148.635 181.769 143.008C197.619 130.714 199.551 102.424 199.543 102.161C199.47 99.2338 201.636 97.1849 203.809 96.4019C204.823 95.9792 205.945 95.8933 207.011 96.1568C208.077 96.4203 209.03 97.0193 209.729 97.8655C227.555 120.44 226.67 139.576 225.55 163.877C225.418 166.804 225.279 169.812 225.162 172.922C225.161 172.996 225.143 173.068 225.112 173.135C225.08 173.202 225.035 173.262 224.979 173.31C224.885 173.383 224.769 173.424 224.65 173.427V173.427ZM80.0399 158.726L224.094 172.271C224.204 169.344 224.335 166.541 224.46 163.797C225.616 138.815 226.443 120.769 208.873 98.5167C207.805 97.163 206.056 96.7605 204.19 97.4337C202.448 98.063 200.59 99.8046 200.648 102.132C200.648 102.402 198.709 131.248 182.464 143.842C174.905 149.696 165.495 151.108 154.482 148.006C148.489 146.322 143.439 141.815 139.847 134.973C134.366 124.399 133.18 109.325 137.037 98.3484L137.088 98.2167C137.615 96.7532 137.337 95.4287 136.356 94.6677C135.185 93.7896 132.858 93.6139 130.502 95.297C116.599 105.212 95.6849 126.411 82.4108 153.516C81.8912 154.584 81.3351 155.85 80.8009 157.079L80.0399 158.726Z" fill="#444444"/>
<path d="M129.045 95.1797L137.57 97.2506C137.57 97.2506 176.668 50.2571 200.45 99.7605C200.45 99.7605 202.99 95.9188 205.829 96.8335C208.668 97.7482 175.819 42.537 129.045 95.1797Z" fill="#00A5EB"/>
<path d="M174.934 73.2638C174.934 73.2638 197.919 79.0593 205.449 96.8703L222.118 91.4699C222.118 91.4699 212.561 80.1496 201.007 73.5638C196.534 71.0403 191.382 69.9809 186.276 70.5343L167.507 72.4442C167.507 72.4442 172.161 72.854 174.934 73.2638Z" fill="#2CC8FF"/>
<path d="M205.976 96.5922L222.118 91.4187C222.118 91.4187 251.886 96.841 282.239 132.148L224.709 172.959C224.709 172.959 229.041 112.779 205.976 96.5922Z" fill="#E8E8E8"/>
<path d="M224.708 173.485C224.613 173.484 224.52 173.458 224.438 173.412C224.347 173.36 224.273 173.284 224.224 173.192C224.175 173.1 224.153 172.997 224.159 172.893C224.203 172.293 228.235 112.888 205.661 97.0239C205.577 96.9654 205.511 96.8846 205.47 96.7906C205.43 96.6965 205.416 96.593 205.431 96.4918C205.447 96.3906 205.49 96.2956 205.556 96.2176C205.623 96.1397 205.709 96.0818 205.807 96.0507L221.95 90.8771C222.036 90.8515 222.127 90.8515 222.213 90.8771C222.513 90.9284 252.53 96.7312 282.656 131.782C282.707 131.84 282.746 131.907 282.769 131.98C282.792 132.053 282.799 132.13 282.79 132.206C282.781 132.282 282.756 132.356 282.716 132.421C282.677 132.487 282.624 132.544 282.561 132.587L225.023 173.398C224.929 173.458 224.82 173.488 224.708 173.485ZM207.146 96.7678C227.826 112.691 225.821 163.27 225.33 171.817L281.434 132.024C252.72 98.8679 224.32 92.4138 222.162 91.9674L207.146 96.7678Z" fill="#444444"/>
</svg>
