<svg width="366" height="490" viewBox="0 0 366 490" fill="none" xmlns="http://www.w3.org/2000/svg">
<path d="M141.302 173.412L79.7029 247.393L78.9712 159.443L140.571 123.623L141.302 173.412Z" fill="#CCCCCC"/>
<path d="M79.7104 247.942C79.6471 247.949 79.5833 247.949 79.5201 247.942C79.4159 247.902 79.326 247.832 79.262 247.741C79.1981 247.649 79.1631 247.541 79.1615 247.43L78.4298 159.479C78.428 159.382 78.4522 159.286 78.4998 159.201C78.5474 159.116 78.6166 159.046 78.7005 158.996L140.3 123.14C140.382 123.091 140.476 123.064 140.573 123.064C140.669 123.063 140.763 123.087 140.847 123.135C140.93 123.183 140.999 123.252 141.047 123.335C141.095 123.418 141.12 123.513 141.12 123.609L141.851 173.368C141.854 173.5 141.807 173.628 141.72 173.727L80.1275 247.744C80.0761 247.805 80.0123 247.854 79.9404 247.888C79.8684 247.922 79.79 247.941 79.7104 247.942V247.942ZM79.5274 159.758L80.2592 245.893L140.768 173.222L140.037 124.567L79.5274 159.758Z" fill="#444444"/>
<path d="M281.983 297.321L139.839 280.951L140.571 123.689L281.251 132.522L281.983 297.321Z" fill="#CCCCCC"/>
<path d="M281.983 297.869H281.917L139.766 281.5C139.632 281.482 139.51 281.417 139.421 281.316C139.333 281.215 139.283 281.086 139.283 280.951L140.014 123.682C140.015 123.607 140.032 123.534 140.062 123.466C140.092 123.398 140.136 123.337 140.19 123.287C140.244 123.234 140.308 123.194 140.379 123.168C140.45 123.143 140.525 123.134 140.6 123.14L281.288 131.973C281.427 131.982 281.557 132.044 281.652 132.146C281.748 132.248 281.8 132.382 281.8 132.521L282.532 297.321C282.532 297.398 282.516 297.475 282.484 297.545C282.453 297.616 282.406 297.679 282.349 297.73C282.247 297.818 282.117 297.868 281.983 297.869V297.869ZM140.388 280.461L281.427 296.706L280.695 133.041L141.112 124.26L140.388 280.461Z" fill="#444444"/>
<path d="M144.09 124.582L140.783 126.66V128.438L146.454 124.713L144.09 124.582Z" fill="#BFBFBF"/>
<path d="M154.094 125.153L140.051 134.936V136.722L156.457 125.284L154.094 125.153Z" fill="#BFBFBF"/>
<path d="M164.097 125.723L140.051 142.481V144.266L166.468 125.862L164.097 125.723Z" fill="#BFBFBF"/>
<path d="M174.107 126.302L140.051 150.032V151.811L176.471 126.433L174.107 126.302Z" fill="#BFBFBF"/>
<path d="M184.118 126.872L140.051 157.577V159.362L186.481 127.004L184.118 126.872Z" fill="#BFBFBF"/>
<path d="M194.121 127.443L140.051 165.121V166.907L196.484 127.582L194.121 127.443Z" fill="#BFBFBF"/>
<path d="M204.131 128.021L140.051 172.666V174.451L206.495 128.153L204.131 128.021Z" fill="#BFBFBF"/>
<path d="M214.134 128.592L140.051 180.217V182.003L216.498 128.731L214.134 128.592Z" fill="#BFBFBF"/>
<path d="M224.145 129.163L140.051 187.762V189.547L226.508 129.302L224.145 129.163Z" fill="#BFBFBF"/>
<path d="M234.148 129.741L140.051 195.306V197.092L236.512 129.872L234.148 129.741Z" fill="#BFBFBF"/>
<path d="M244.159 130.312L140.051 202.858V204.636L246.522 130.451L244.159 130.312Z" fill="#BFBFBF"/>
<path d="M254.162 130.89L140.051 210.403V212.188L256.525 131.021L254.162 130.89Z" fill="#BFBFBF"/>
<path d="M264.172 131.46L140.051 217.947V219.732L266.536 131.599L264.172 131.46Z" fill="#BFBFBF"/>
<path d="M274.175 132.031L140.051 225.499V227.277L276.539 132.17L274.175 132.031Z" fill="#BFBFBF"/>
<path d="M281.464 134.504L140.051 233.043V234.828L281.464 136.283V134.504Z" fill="#BFBFBF"/>
<path d="M281.464 142.049L140.051 240.587V242.373L281.464 143.834V142.049Z" fill="#BFBFBF"/>
<path d="M281.464 149.593L140.051 248.139V249.917L281.464 151.379V149.593Z" fill="#BFBFBF"/>
<path d="M281.464 157.138L140.051 255.684V257.469L281.464 158.923V157.138Z" fill="#BFBFBF"/>
<path d="M281.464 164.689L140.051 263.228V265.014L281.464 166.468V164.689Z" fill="#BFBFBF"/>
<path d="M281.464 172.234L140.051 270.78V272.558L281.464 174.019V172.234Z" fill="#BFBFBF"/>
<path d="M281.464 179.778L140.051 278.324V280.11L281.464 181.564V179.778Z" fill="#BFBFBF"/>
<path d="M281.464 187.33L145.913 281.785L148.005 282.115L281.464 189.108V187.33Z" fill="#BFBFBF"/>
<path d="M281.464 194.86L154.752 283.161L156.867 283.483L281.464 196.66V194.86Z" fill="#BFBFBF"/>
<path d="M281.463 202.404L163.614 284.53L165.729 284.859L281.463 204.204V202.404Z" fill="#BFBFBF"/>
<path d="M281.464 209.949L172.476 285.905L174.568 286.227L281.464 211.734V209.949Z" fill="#BFBFBF"/>
<path d="M281.463 217.5L181.337 287.274L183.422 287.603L281.463 219.279V217.5Z" fill="#BFBFBF"/>
<path d="M281.464 225.045L190.191 288.649L192.284 288.971L281.464 226.83V225.045Z" fill="#BFBFBF"/>
<path d="M281.463 232.589L199.053 290.018L201.146 290.347L281.463 234.375V232.589Z" fill="#BFBFBF"/>
<path d="M281.464 240.141L207.915 291.393L210.007 291.715L281.464 241.919V240.141Z" fill="#BFBFBF"/>
<path d="M281.463 247.686L216.776 292.769L218.869 293.091L281.463 249.471V247.686Z" fill="#BFBFBF"/>
<path d="M281.464 255.23L225.638 294.138L227.731 294.46L281.464 257.015V255.23Z" fill="#BFBFBF"/>
<path d="M281.463 262.782L234.492 295.513L236.585 295.835L281.463 264.56V262.782Z" fill="#BFBFBF"/>
<path d="M281.463 270.326L243.354 296.882L245.446 297.211L281.463 272.112V270.326Z" fill="#BFBFBF"/>
<path d="M281.464 277.871L252.215 298.257L254.308 298.579L281.464 279.656V277.871Z" fill="#BFBFBF"/>
<path d="M281.463 285.422L261.077 299.626L263.17 299.955L281.463 287.201V285.422Z" fill="#BFBFBF"/>
<path d="M281.464 292.967L269.938 301.001L272.031 301.323L281.464 294.752V292.967Z" fill="#BFBFBF"/>
<path d="M282.195 297.174V295.389L279.524 297.255L281.617 297.577L282.195 297.174Z" fill="#BFBFBF"/>
<path d="M281.983 297.869H281.917L139.766 281.5C139.632 281.482 139.51 281.417 139.421 281.316C139.333 281.215 139.283 281.086 139.283 280.951L140.014 123.682C140.015 123.607 140.032 123.534 140.062 123.466C140.092 123.398 140.136 123.337 140.19 123.287C140.244 123.234 140.308 123.194 140.379 123.168C140.45 123.143 140.525 123.134 140.6 123.14L281.288 131.973C281.427 131.982 281.557 132.044 281.652 132.146C281.748 132.248 281.8 132.382 281.8 132.521L282.532 297.321C282.532 297.398 282.516 297.475 282.484 297.545C282.453 297.616 282.406 297.679 282.349 297.73C282.247 297.818 282.117 297.868 281.983 297.869V297.869ZM140.388 280.461L281.427 296.706L280.695 133.041L141.112 124.26L140.388 280.461Z" fill="#444444"/>
<path d="M282.239 297.057L225.162 354.712V172.395L282.239 132.126V297.057Z" fill="#CCCCCC"/>
<path d="M225.162 355.261C225.092 355.264 225.022 355.251 224.957 355.225C224.856 355.183 224.769 355.112 224.708 355.021C224.646 354.93 224.614 354.822 224.613 354.713V172.395C224.614 172.307 224.635 172.221 224.676 172.143C224.717 172.066 224.776 171.999 224.847 171.949L281.925 131.702C282.007 131.644 282.104 131.61 282.204 131.604C282.305 131.598 282.405 131.619 282.495 131.666C282.584 131.713 282.658 131.783 282.71 131.87C282.762 131.956 282.789 132.055 282.788 132.156V297.094C282.788 297.238 282.733 297.377 282.634 297.482L225.557 355.137C225.447 355.229 225.305 355.273 225.162 355.261V355.261ZM225.711 172.695V353.381L281.727 296.831V133.18L225.711 172.695Z" fill="#444444"/>
<path d="M225.162 354.713L79.3594 333.543V159.194L225.162 172.717V354.713Z" fill="#F9F9F9"/>
<path d="M225.162 355.261H225.082L79.2789 334.084C79.1495 334.064 79.0317 333.998 78.946 333.899C78.8603 333.8 78.8124 333.674 78.8105 333.543V159.194C78.8169 159.115 78.8397 159.039 78.8775 158.97C78.9153 158.9 78.9673 158.84 79.0301 158.792C79.0863 158.741 79.1523 158.702 79.2241 158.679C79.2959 158.655 79.3718 158.646 79.4472 158.653L225.25 172.183C225.387 172.194 225.515 172.257 225.607 172.359C225.7 172.461 225.75 172.594 225.748 172.732V354.72C225.749 354.799 225.732 354.878 225.7 354.95C225.667 355.022 225.618 355.086 225.557 355.137C225.503 355.183 225.44 355.218 225.373 355.24C225.305 355.261 225.233 355.268 225.162 355.261V355.261ZM79.9082 333.067L224.65 354.083V173.222L79.9082 159.794V333.067Z" fill="#444444"/>
<path d="M197.165 261.282V250.027H200.831V253.693H209.21V257.615H200.831V261.282H197.165Z" fill="#99C6D6"/>
<path d="M197.297 216.125V219.528V223.457H209.334V219.528H201.226V216.125H209.334V212.203H201.226H197.297V216.125Z" fill="#99C6D6"/>
<path d="M202.009 187.33L197.297 183.927V188.377L202.009 191.779V192.306H197.297V196.236H209.334V192.306H204.885V191.26L209.334 189.167V184.454L203.319 188.113L202.009 187.33Z" fill="#99C6D6"/>
<path d="M197.297 202.251V205.909L209.334 211.149V206.956L207.241 206.436V201.965L209.334 201.182V196.997L197.297 202.251ZM204.366 205.397L201.234 204.087L204.38 203.041L204.366 205.397Z" fill="#99C6D6"/>
<path d="M197.297 241.78V245.439L209.334 250.671V246.485L207.241 245.959V241.509L209.334 240.726V236.541L197.297 241.78ZM204.366 244.919L201.219 243.61L204.366 242.563V244.919Z" fill="#99C6D6"/>
<path d="M197.297 229.077V235.494H209.334V231.572H206.451V229.077C206.451 228.476 206.333 227.88 206.102 227.325C205.872 226.77 205.535 226.265 205.109 225.84C204.684 225.416 204.179 225.079 203.623 224.849C203.067 224.62 202.472 224.502 201.87 224.503V224.503C201.27 224.503 200.675 224.622 200.12 224.852C199.565 225.081 199.061 225.418 198.636 225.843C198.212 226.268 197.875 226.772 197.645 227.327C197.415 227.882 197.297 228.476 197.297 229.077V229.077ZM203.319 229.845V231.572H200.502V229.845C200.502 229.469 200.652 229.108 200.918 228.841C201.184 228.575 201.545 228.426 201.922 228.426C202.298 228.426 202.659 228.575 202.925 228.841C203.192 229.108 203.341 229.469 203.341 229.845H203.319Z" fill="#99C6D6"/>
<path d="M138.427 97.4776L153.867 93.8188C153.867 93.8188 161.916 131.87 192.833 114.308C223.75 96.7459 200.151 147.969 200.151 147.969C200.151 147.969 132.514 153.091 130.312 153.091C128.109 153.091 97.9605 147.969 102.373 142.847C106.785 137.724 123.696 114.308 125.899 112.113C128.102 109.918 138.427 97.4776 138.427 97.4776Z" fill="#CCCCCC"/>
<path d="M130.341 153.669C128.511 153.669 103.829 149.615 101.605 144.756C101.431 144.389 101.375 143.977 101.443 143.577C101.511 143.176 101.7 142.807 101.985 142.517C104.18 139.949 109.53 132.807 114.688 125.906C119.847 119.006 124.421 112.874 125.54 111.754C127.736 109.603 137.9 97.2799 137.98 97.1189C138.06 97.0297 138.165 96.9661 138.28 96.936L153.72 93.2772C153.864 93.2464 154.013 93.2727 154.138 93.3504C154.199 93.3896 154.253 93.4409 154.294 93.5012C154.336 93.5616 154.365 93.6298 154.379 93.7016C154.416 93.8773 158.287 111.432 170.266 116.811C176.581 119.642 184.074 118.64 192.54 113.825C199.638 109.786 204.395 109.017 207.08 111.469C214.347 118.135 201.226 146.966 200.663 148.196C200.619 148.283 200.554 148.358 200.473 148.413C200.393 148.468 200.299 148.502 200.202 148.51C197.465 148.73 132.543 153.669 130.341 153.669ZM138.734 97.9971C137.527 99.4606 128.416 110.437 126.294 112.53C125.226 113.591 120.528 119.891 115.545 126.565C110.378 133.48 105.037 140.637 102.797 143.234C102.65 143.365 102.549 143.539 102.509 143.732C102.47 143.925 102.494 144.125 102.578 144.303C104.444 148.371 127.663 152.572 130.319 152.572C132.397 152.572 194.714 147.859 199.792 147.449C201.175 144.361 212.656 118.084 206.334 112.288C204.087 110.225 199.624 111.066 193.082 114.784C184.301 119.781 176.464 120.806 169.812 117.82C158.396 112.698 154.196 97.6092 153.435 94.4846L138.734 97.9971Z" fill="#444444"/>
<path d="M143 96.2702L133.297 103.002C132.112 104.415 130.838 105.929 129.638 107.312L146.893 95.3481L143 96.2702Z" fill="#BFBFBF"/>
<path d="M153.977 96.2043L118.787 120.616L116.006 124.326L154.438 97.6679C154.262 97.1337 154.109 96.6434 153.977 96.2043Z" fill="#BFBFBF"/>
<path d="M156.201 102.212L106.998 136.341C105.915 137.761 104.92 139.063 104.071 140.161L156.845 103.573C156.596 103.105 156.399 102.651 156.201 102.212Z" fill="#BFBFBF"/>
<path d="M159.143 107.715L103.529 146.293C104.002 146.577 104.49 146.834 104.993 147.062L159.97 108.93C159.677 108.527 159.406 108.125 159.143 107.715Z" fill="#BFBFBF"/>
<path d="M162.97 112.61L110.422 149.059L112.23 149.586L164.046 113.649C163.672 113.313 163.314 112.969 162.97 112.61Z" fill="#BFBFBF"/>
<path d="M168.099 116.598L118.34 151.093C119.006 151.247 119.664 151.386 120.301 151.518L169.57 117.345C169.08 117.118 168.59 116.862 168.099 116.598Z" fill="#BFBFBF"/>
<path d="M175.695 118.874L126.894 152.725C127.779 152.864 128.504 152.967 129.031 153.025L178.212 118.918C177.373 118.955 176.532 118.94 175.695 118.874V118.874Z" fill="#BFBFBF"/>
<path d="M195.65 112.581L138.017 152.557L140.886 152.352L200.743 110.832C198.981 111.206 197.271 111.793 195.65 112.581V112.581Z" fill="#BFBFBF"/>
<path d="M206.707 112.442L150.142 151.671L153.069 151.459L207.483 113.722C207.283 113.262 207.023 112.832 206.707 112.442V112.442Z" fill="#BFBFBF"/>
<path d="M208.229 118.933L162.326 150.742L165.253 150.53L208.134 120.791C208.171 120.169 208.215 119.54 208.229 118.933Z" fill="#BFBFBF"/>
<path d="M206.949 127.37L174.517 149.864L177.4 149.645L206.392 129.521C206.59 128.789 206.78 128.058 206.949 127.37Z" fill="#BFBFBF"/>
<path d="M204.073 136.912L186.715 148.949L189.642 148.73L203.246 139.29C203.495 138.529 203.787 137.731 204.073 136.912Z" fill="#BFBFBF"/>
<path d="M199.953 147.318L198.929 148.049L199.66 147.991C199.66 147.991 199.77 147.735 199.953 147.318Z" fill="#BFBFBF"/>
<path d="M130.341 153.669C128.511 153.669 103.829 149.615 101.605 144.756C101.431 144.389 101.375 143.977 101.443 143.577C101.511 143.176 101.7 142.807 101.985 142.517C104.18 139.949 109.53 132.807 114.688 125.906C119.847 119.006 124.421 112.874 125.54 111.754C127.736 109.603 137.9 97.2799 137.98 97.1189C138.06 97.0297 138.165 96.9661 138.28 96.936L153.72 93.2772C153.864 93.2464 154.013 93.2727 154.138 93.3504C154.199 93.3896 154.253 93.4409 154.294 93.5012C154.336 93.5616 154.365 93.6298 154.379 93.7016C154.416 93.8773 158.287 111.432 170.266 116.811C176.581 119.642 184.074 118.64 192.54 113.825C199.638 109.786 204.395 109.017 207.08 111.469C214.347 118.135 201.226 146.966 200.663 148.196C200.619 148.283 200.554 148.358 200.473 148.413C200.393 148.468 200.299 148.502 200.202 148.51C197.465 148.73 132.543 153.669 130.341 153.669ZM138.734 97.9971C137.527 99.4606 128.416 110.437 126.294 112.53C125.226 113.591 120.528 119.891 115.545 126.565C110.378 133.48 105.037 140.637 102.797 143.234C102.65 143.365 102.549 143.539 102.509 143.732C102.47 143.925 102.494 144.125 102.578 144.303C104.444 148.371 127.663 152.572 130.319 152.572C132.397 152.572 194.714 147.859 199.792 147.449C201.175 144.361 212.656 118.084 206.334 112.288C204.087 110.225 199.624 111.066 193.082 114.784C184.301 119.781 176.464 120.806 169.812 117.82C158.396 112.698 154.196 97.6092 153.435 94.4846L138.734 97.9971Z" fill="#444444"/>
<path d="M79.2202 159.201L224.643 172.929L282.239 132.126L140.622 123.799L79.2202 159.201Z" fill="#F9F9F9"/>
<path d="M224.65 173.478H224.599L79.1691 159.743C79.0519 159.735 78.9406 159.689 78.8517 159.612C78.7629 159.535 78.7015 159.432 78.6767 159.317C78.652 159.202 78.6652 159.082 78.7144 158.976C78.7636 158.869 78.8461 158.781 78.9496 158.726L140.344 123.323C140.438 123.271 140.544 123.245 140.651 123.25L282.276 131.577C282.389 131.583 282.497 131.624 282.585 131.695C282.674 131.766 282.737 131.863 282.766 131.973C282.798 132.082 282.796 132.198 282.759 132.305C282.722 132.413 282.653 132.506 282.561 132.573L224.957 173.375C224.868 173.44 224.76 173.476 224.65 173.478V173.478ZM80.9839 158.792L224.489 172.344L280.651 132.558L140.754 124.355L80.9839 158.792Z" fill="#444444"/>
<path d="M215.02 117.864C218.247 114.264 221.606 110.781 224.913 107.298C225.74 106.427 226.648 105.585 227.511 104.729C228.375 103.873 229.333 103.097 230.248 102.278C231.163 101.458 232.15 100.734 233.131 99.9947C234.112 99.2556 235.114 98.5312 236.153 97.8799C240.27 95.1657 244.675 92.9175 249.288 91.177C256.237 88.538 263.59 87.1218 271.021 86.9914C272.258 86.9914 273.488 86.9402 274.68 86.9914H278.244C282.951 86.9252 287.639 86.3958 292.242 85.4108C296.88 84.4073 301.412 82.9691 305.78 81.1154C310.258 79.3226 314.729 77.5224 319.266 75.8687C315.066 78.2615 310.8 80.5007 306.534 82.7472C304.397 83.8668 302.143 84.9425 299.897 85.8425C297.619 86.7551 295.29 87.537 292.923 88.1841C288.162 89.4844 283.27 90.2453 278.339 90.4526C277.102 90.5038 275.873 90.5111 274.68 90.5185C273.488 90.5258 272.287 90.5185 271.124 90.5843C268.781 90.6662 266.443 90.8689 264.121 91.1917C259.47 91.7784 254.893 92.8526 250.466 94.3968C246.017 95.9311 241.726 97.8916 237.653 100.251C233.547 102.654 229.683 105.447 226.113 108.593C222.455 111.717 218.796 114.886 215.02 117.864Z" fill="#0084B2"/>
<path d="M219.162 117.037C221.811 115.281 224.518 113.671 227.211 112.061C229.99 110.461 232.895 109.091 235.897 107.964C241.946 105.69 248.32 104.398 254.776 104.136C255.581 104.1 256.394 104.1 257.198 104.093H259.518C261.055 104.093 262.584 103.997 264.114 103.88C267.178 103.647 270.227 103.241 273.246 102.666C274.761 102.388 276.261 102.007 277.812 101.678L282.437 100.69C285.532 100.083 288.627 99.4605 291.767 98.9995C288.84 100.244 285.913 101.327 282.92 102.417C279.927 103.507 277.029 104.554 273.912 105.446C270.813 106.336 267.646 106.967 264.443 107.334C262.84 107.524 261.23 107.642 259.621 107.707C258.823 107.707 257.981 107.707 257.22 107.759C256.459 107.81 255.691 107.759 254.93 107.825C248.791 108.082 242.702 109.044 236.782 110.693C233.805 111.539 230.874 112.541 228.001 113.693C225.089 114.827 222.162 116.006 219.162 117.037Z" fill="#0084B2"/>
<path d="M152.088 147.596C151.715 151.042 159.867 154.086 173.478 155.03C190.886 156.23 210.49 153.53 217.383 149.023C219.096 147.903 219.864 146.776 219.791 145.693V112.566L152.081 114.469L152.088 147.596Z" fill="#F9F9F9"/>
<path d="M181.908 155.865C179.068 155.865 176.222 155.777 173.441 155.586C162.611 154.855 154.716 152.659 152.33 149.835C152.051 149.531 151.838 149.174 151.702 148.786C151.566 148.397 151.511 147.985 151.54 147.574V114.469C151.539 114.398 151.552 114.327 151.578 114.261C151.604 114.195 151.643 114.135 151.693 114.084C151.743 114.033 151.802 113.992 151.867 113.964C151.933 113.936 152.003 113.921 152.074 113.92L219.783 112.018C219.858 112.012 219.932 112.023 220.002 112.049C220.072 112.076 220.134 112.118 220.186 112.171C220.289 112.277 220.347 112.419 220.347 112.566V145.693C220.435 146.988 219.542 148.276 217.691 149.484C211.815 153.318 196.843 155.865 181.908 155.865ZM152.637 115.01V147.662C152.618 147.93 152.656 148.199 152.75 148.452C152.843 148.704 152.989 148.934 153.179 149.125C155.338 151.708 163.131 153.764 173.514 154.481C190.725 155.667 210.271 153.018 217.091 148.562C218.115 147.896 219.33 146.857 219.249 145.73V113.13L152.637 115.01Z" fill="#444444"/>
<path d="M217.391 115.896C210.491 120.396 190.887 123.104 173.486 121.896C159.875 120.96 151.723 117.915 152.096 114.469C152.206 113.466 153.033 112.427 154.665 111.396C161.843 106.859 181.74 104.254 198.958 105.541C211.771 106.493 219.586 109.332 219.806 112.581C219.872 113.649 219.103 114.776 217.391 115.896Z" fill="#CCCCCC"/>
<path d="M181.908 122.73C179.069 122.73 176.222 122.635 173.441 122.445C162.611 121.713 154.716 119.518 152.33 116.701C152.049 116.393 151.833 116.032 151.697 115.638C151.561 115.244 151.508 114.826 151.54 114.41C151.672 113.203 152.623 112.032 154.364 110.935C161.594 106.361 181.608 103.69 199.002 104.978C211.924 105.937 220.106 108.834 220.354 112.53C220.442 113.854 219.549 115.142 217.698 116.357C211.815 120.191 196.843 122.73 181.908 122.73ZM189.884 105.754C175.315 105.754 160.797 108.168 154.95 111.864C153.523 112.764 152.755 113.686 152.637 114.527C152.619 114.796 152.657 115.065 152.751 115.318C152.844 115.57 152.99 115.799 153.179 115.991C155.338 118.574 163.131 120.623 173.514 121.347C190.725 122.533 210.271 119.884 217.091 115.428C218.115 114.754 219.33 113.715 219.249 112.596C219.088 110.166 212.664 107.085 198.914 106.068C195.95 105.856 192.913 105.754 189.884 105.754Z" fill="#444444"/>
<path d="M162.736 108.337L152.491 115.493C152.678 115.95 152.96 116.362 153.318 116.701L166.629 107.429C165.248 107.708 163.951 108.01 162.736 108.337Z" fill="#BFBFBF"/>
<path d="M177.086 105.878L157.95 119.211C158.499 119.401 159.092 119.591 159.714 119.767L180.013 105.622C179.032 105.695 178.059 105.776 177.086 105.878Z" fill="#BFBFBF"/>
<path d="M188.83 105.241L166.109 121.099C166.797 121.208 167.514 121.304 168.246 121.399L191.428 105.241H188.83Z" fill="#BFBFBF"/>
<path d="M199.207 105.563L175.556 122.043L177.971 122.145L201.482 105.754C200.743 105.681 199.982 105.615 199.207 105.563Z" fill="#BFBFBF"/>
<path d="M208.39 106.705L186.225 122.152C187.132 122.152 188.04 122.094 188.94 122.043L210.366 107.115C209.737 106.969 209.078 106.837 208.39 106.705Z" fill="#BFBFBF"/>
<path d="M216.081 108.893L198.387 121.223C199.478 121.091 200.546 120.938 201.592 120.777L217.559 109.647C217.081 109.367 216.588 109.116 216.081 108.893Z" fill="#BFBFBF"/>
<path d="M219.703 113.913L214.581 117.462C215.631 117.044 216.64 116.529 217.595 115.925C218.447 115.431 219.17 114.741 219.703 113.913V113.913Z" fill="#BFBFBF"/>
<path d="M181.908 122.73C179.069 122.73 176.222 122.635 173.441 122.445C162.611 121.713 154.716 119.518 152.33 116.701C152.049 116.393 151.833 116.032 151.697 115.638C151.561 115.244 151.508 114.826 151.54 114.41C151.672 113.203 152.623 112.032 154.364 110.935C161.594 106.361 181.608 103.69 199.002 104.978C211.924 105.937 220.106 108.834 220.354 112.53C220.442 113.854 219.549 115.142 217.698 116.357C211.815 120.191 196.843 122.73 181.908 122.73ZM189.884 105.754C175.315 105.754 160.797 108.168 154.95 111.864C153.523 112.764 152.755 113.686 152.637 114.527C152.619 114.796 152.657 115.065 152.751 115.318C152.844 115.57 152.99 115.799 153.179 115.991C155.338 118.574 163.131 120.623 173.514 121.347C190.725 122.533 210.271 119.884 217.091 115.428C218.115 114.754 219.33 113.715 219.249 112.596C219.088 110.166 212.664 107.085 198.914 106.068C195.95 105.856 192.913 105.754 189.884 105.754Z" fill="#444444"/>
<path d="M174.934 73.2638C174.934 73.2638 197.919 79.0593 205.449 96.8703L222.118 91.4699C222.118 91.4699 212.561 80.1496 201.007 73.5638C196.534 71.0403 191.382 69.9809 186.276 70.5343L167.507 72.4442C167.507 72.4442 172.161 72.854 174.934 73.2638Z" fill="#2CC8FF"/>
<path d="M153.589 93.504L136.985 97.2506C136.985 97.2506 157.475 73.4538 177.913 77.2443C177.913 77.2443 158.06 76.8345 153.589 93.504Z" fill="#0084B2"/>
<path d="M129.045 95.1797L137.57 97.2506C137.57 97.2506 176.668 50.2571 200.45 99.7605C200.45 99.7605 202.99 95.9188 205.829 96.8335C208.668 97.7482 175.819 42.537 129.045 95.1797Z" fill="#00A5EB"/>
<path d="M224.65 172.871C225.704 143.659 229.143 123.257 209.334 98.1801C206.473 94.5579 200.019 97.5581 200.129 102.146C200.129 103.573 195.738 159.062 154.657 147.515C137.571 142.693 131.651 115.406 137.571 98.5313L137.615 98.3996C139.151 94.0529 134.402 91.8138 130.165 94.8506C115.611 105.242 94.9676 126.587 81.8692 153.274C80.9911 155.06 80.0471 157.365 79.2056 159.201L224.65 172.871Z" fill="#F9F9F9"/>
<path d="M224.65 173.427H224.599L79.1691 159.743C79.0817 159.736 78.9974 159.707 78.9235 159.66C78.8496 159.613 78.7882 159.548 78.7447 159.472C78.7048 159.394 78.6841 159.307 78.6841 159.22C78.6841 159.132 78.7048 159.045 78.7447 158.967C79.074 158.236 79.4252 157.445 79.7765 156.633C80.318 155.396 80.8814 154.123 81.4083 153.033C94.7775 125.745 115.859 104.393 129.851 94.4042C132.302 92.6553 135.178 92.4065 137.007 93.7896C138.405 94.8433 138.829 96.6361 138.142 98.5826L138.098 98.7143C134.344 109.427 135.485 124.136 140.871 134.49C144.288 141.076 149.111 145.371 154.774 146.974C165.421 149.974 174.532 148.635 181.769 143.008C197.619 130.714 199.551 102.424 199.543 102.161C199.47 99.2338 201.636 97.1849 203.809 96.4019C204.823 95.9792 205.945 95.8933 207.011 96.1568C208.077 96.4203 209.03 97.0193 209.729 97.8655C227.555 120.44 226.67 139.576 225.55 163.877C225.418 166.804 225.279 169.812 225.162 172.922C225.162 172.996 225.146 173.069 225.114 173.136C225.082 173.203 225.036 173.262 224.979 173.31C224.885 173.383 224.769 173.424 224.65 173.427V173.427ZM80.0399 158.726L224.094 172.271C224.204 169.344 224.335 166.541 224.46 163.797C225.616 138.815 226.443 120.769 208.873 98.5167C207.805 97.163 206.056 96.7605 204.19 97.4337C202.448 98.063 200.59 99.8046 200.648 102.132C200.648 102.402 198.709 131.248 182.464 143.842C174.905 149.696 165.495 151.108 154.482 148.006C148.489 146.322 143.439 141.815 139.847 134.973C134.366 124.399 133.18 109.325 137.037 98.3484L137.08 98.224C137.615 96.7605 137.337 95.4287 136.349 94.6677C135.178 93.7896 132.851 93.6139 130.495 95.297C116.591 105.212 95.6776 126.411 82.4035 153.516C81.8839 154.584 81.3278 155.85 80.7936 157.072L80.0399 158.726Z" fill="#444444"/>
<path d="M205.976 96.5922L222.118 91.4187C222.118 91.4187 251.886 96.841 282.239 132.148L224.709 172.959C224.709 172.959 229.041 112.779 205.976 96.5922Z" fill="#E8E8E8"/>
<path d="M224.708 173.485C224.613 173.484 224.52 173.458 224.437 173.412C224.347 173.36 224.273 173.284 224.224 173.192C224.175 173.1 224.152 172.997 224.159 172.893C224.203 172.293 228.235 112.888 205.661 97.0239C205.575 96.9662 205.509 96.885 205.468 96.7903C205.428 96.6955 205.416 96.5911 205.434 96.4897C205.449 96.3891 205.492 96.2948 205.558 96.2172C205.624 96.1397 205.71 96.082 205.807 96.0506L221.95 90.8771C222.036 90.8554 222.126 90.8554 222.213 90.8771C222.513 90.9356 252.53 96.7312 282.656 131.79C282.707 131.847 282.745 131.914 282.768 131.987C282.791 132.06 282.799 132.138 282.79 132.214C282.781 132.29 282.756 132.363 282.716 132.429C282.677 132.494 282.624 132.551 282.561 132.595L225.023 173.405C224.928 173.462 224.819 173.49 224.708 173.485V173.485ZM207.146 96.7678C227.826 112.691 225.821 163.27 225.33 171.817L281.434 132.024C252.698 98.8459 224.313 92.4138 222.162 91.9674L207.146 96.7678Z" fill="#444444"/>
<path d="M239.636 137.029C239.501 137.028 239.37 136.978 239.269 136.888C239.168 136.797 239.103 136.673 239.087 136.539C235.429 102.146 209.473 96.0873 209.217 96.036C209.146 96.0207 209.08 95.9915 209.02 95.9503C208.961 95.909 208.91 95.8565 208.871 95.7957C208.832 95.7349 208.805 95.667 208.792 95.5958C208.78 95.5247 208.781 95.4517 208.796 95.3811C208.812 95.3105 208.841 95.2436 208.882 95.1842C208.923 95.1248 208.976 95.0742 209.037 95.0351C209.097 94.996 209.165 94.9693 209.236 94.9565C209.308 94.9437 209.381 94.945 209.451 94.9603C209.722 95.0189 236.402 101.246 240.185 136.422C240.198 136.567 240.154 136.711 240.062 136.824C239.971 136.937 239.839 137.011 239.695 137.029H239.636Z" fill="#444444"/>
<path d="M257.974 125.365C257.871 125.364 257.77 125.335 257.682 125.281C257.595 125.227 257.523 125.149 257.477 125.057C243.778 96.6798 217.062 93.665 216.791 93.6357C216.716 93.6325 216.643 93.6141 216.576 93.5816C216.508 93.5491 216.449 93.5032 216.4 93.4467C216.351 93.3902 216.314 93.3243 216.291 93.2531C216.269 93.1819 216.261 93.1068 216.268 93.0324C216.276 92.9581 216.298 92.886 216.335 92.8207C216.371 92.7554 216.42 92.6982 216.48 92.6526C216.539 92.607 216.607 92.574 216.679 92.5555C216.751 92.5371 216.827 92.5336 216.901 92.5454C217.179 92.5454 244.503 95.6554 258.464 124.574C258.528 124.705 258.537 124.854 258.491 124.992C258.444 125.129 258.345 125.242 258.216 125.306C258.142 125.346 258.058 125.366 257.974 125.365V125.365Z" fill="#444444"/>
</svg>
