<svg width="366" height="490" viewBox="0 0 366 490" fill="none" xmlns="http://www.w3.org/2000/svg">
<path d="M210.066 411.036C211.925 407.853 213.915 404.772 215.92 401.684C216.915 400.155 217.962 398.603 219.081 397.103C220.22 395.609 221.442 394.18 222.74 392.822C225.343 390.061 228.295 387.65 231.521 385.651C233.152 384.652 234.849 383.765 236.599 382.995C237.5 382.651 238.385 382.263 239.3 381.978C240.214 381.692 241.122 381.37 242.066 381.165L243.471 380.836C243.939 380.741 244.422 380.668 244.898 380.587C245.847 380.422 246.805 380.305 247.766 380.236C248.725 380.134 249.691 380.163 250.649 380.126H253.386C256.883 380.15 260.365 379.656 263.718 378.663C267.127 377.621 270.394 376.161 273.444 374.316C276.641 372.509 279.824 370.657 283.103 369.011C280.271 371.367 277.351 373.584 274.439 375.816C272.949 376.954 271.39 377.997 269.77 378.941C268.129 379.884 266.416 380.696 264.648 381.37C261.063 382.751 257.27 383.511 253.43 383.617C252.479 383.617 251.579 383.617 250.671 383.668C249.764 383.719 248.937 383.712 248.073 383.829C247.21 383.946 246.354 383.99 245.505 384.166C245.073 384.246 244.649 384.312 244.224 384.4L242.958 384.707C236.19 386.346 230.036 390.115 224.745 394.857C222.077 397.294 219.599 399.931 217.332 402.745C214.947 405.533 212.576 408.321 210.066 411.036Z" fill="#0084B2"/>
<path d="M212.942 410.209C214.574 408.563 216.301 407.048 218.028 405.533C219.806 403.986 221.738 402.625 223.794 401.472C227.988 399.1 232.657 397.69 237.463 397.345C238.641 397.25 239.936 397.279 240.954 397.257C241.971 397.235 243.149 397.169 244.195 397.059C246.367 396.832 248.516 396.425 250.62 395.845C251.681 395.559 252.728 395.208 253.84 394.864C254.952 394.52 256.035 394.191 257.133 393.869C259.328 393.254 261.523 392.625 263.821 392.149C261.853 393.379 259.826 394.454 257.799 395.537C256.782 396.064 255.757 396.591 254.733 397.096C253.708 397.601 252.662 398.121 251.549 398.56C249.332 399.461 247.019 400.109 244.656 400.491C243.469 400.679 242.272 400.801 241.071 400.857C239.812 400.901 238.817 400.894 237.719 400.989C233.368 401.314 229.1 402.347 225.082 404.048C223.025 404.898 221.023 405.875 219.089 406.975C217.076 408.102 215.071 409.221 212.942 410.209Z" fill="#0084B2"/>
<path d="M141.302 173.412L79.7029 247.393L78.9712 159.443L140.571 123.623L141.302 173.412Z" fill="#CCCCCC"/>
<path d="M79.7029 247.942C79.6424 247.952 79.5806 247.952 79.52 247.942C79.4155 247.902 79.3251 247.832 79.2601 247.741C79.195 247.65 79.1582 247.541 79.1541 247.429L78.4224 159.479C78.4236 159.382 78.4498 159.286 78.4984 159.202C78.5471 159.117 78.6167 159.047 78.7004 158.996L140.3 123.14C140.382 123.091 140.475 123.065 140.571 123.064C140.666 123.062 140.76 123.086 140.843 123.133C140.927 123.18 140.996 123.248 141.044 123.33C141.093 123.412 141.119 123.506 141.119 123.601L141.851 173.398C141.855 173.463 141.846 173.528 141.825 173.589C141.804 173.651 141.77 173.708 141.727 173.756L80.1274 247.744C80.0752 247.806 80.0103 247.856 79.937 247.89C79.8637 247.924 79.7838 247.942 79.7029 247.942V247.942ZM79.5273 159.758L80.2591 245.893L140.768 173.222L140.036 124.567L79.5273 159.758Z" fill="#444444"/>
<path d="M147.317 411.197C146.944 414.644 155.103 417.688 168.714 418.624C186.115 419.832 205.726 417.124 212.62 412.624C214.332 411.504 215.108 410.377 215.034 409.294V340.268L147.317 342.17V411.197Z" fill="#F9F9F9"/>
<path d="M177.144 419.458C174.298 419.458 171.458 419.363 168.67 419.173C157.84 418.441 149.952 416.246 147.567 413.429C147.287 413.126 147.072 412.769 146.935 412.38C146.798 411.992 146.741 411.579 146.769 411.168V342.17C146.771 342.028 146.827 341.891 146.927 341.789C147.026 341.687 147.161 341.627 147.303 341.621L215.013 339.719C215.087 339.714 215.161 339.725 215.231 339.751C215.3 339.778 215.363 339.819 215.415 339.872C215.519 339.978 215.579 340.119 215.583 340.268V409.294C215.671 410.582 214.771 411.87 212.92 413.085C207.088 416.912 192.094 419.458 177.144 419.458ZM147.874 342.704V411.248C147.859 411.516 147.899 411.784 147.992 412.036C148.085 412.288 148.229 412.518 148.415 412.712C150.611 415.295 158.375 417.344 168.758 418.061C185.962 419.254 205.507 416.597 212.327 412.148C213.359 411.475 214.566 410.436 214.522 409.316V340.831L147.874 342.704Z" fill="#444444"/>
<path d="M133.677 346.283C133.143 350.622 144.654 354.449 163.958 355.635C188.603 357.157 216.366 353.747 226.157 348.075C228.587 346.67 229.677 345.251 229.574 343.882V300.189L133.714 302.589L133.677 346.283Z" fill="#F9F9F9"/>
<path d="M175.915 356.542C171.89 356.542 167.865 356.425 163.928 356.183C148.247 355.217 137.051 352.451 133.992 348.771C133.679 348.433 133.441 348.035 133.291 347.6C133.141 347.165 133.083 346.704 133.121 346.246V302.589C133.121 302.445 133.178 302.307 133.28 302.204C133.381 302.101 133.519 302.042 133.663 302.041L229.523 299.64C229.67 299.642 229.812 299.7 229.918 299.801C229.972 299.851 230.014 299.911 230.043 299.978C230.072 300.044 230.087 300.116 230.087 300.189V343.882C230.211 345.478 228.967 347.058 226.428 348.551C218.13 353.359 197.033 356.542 175.915 356.542ZM134.204 303.124V346.349C134.177 346.662 134.218 346.979 134.324 347.275C134.43 347.572 134.599 347.842 134.819 348.068C137.651 351.471 148.825 354.156 163.98 355.093C188.391 356.593 216.147 353.234 225.842 347.6C227.986 346.356 229.07 345.083 228.982 343.941V300.753L134.204 303.124Z" fill="#444444"/>
<path d="M153.545 354.647L158.426 340.648L162.765 355.561L153.545 354.647Z" fill="#CCCCCC"/>
<path d="M162.765 356.11H162.706L153.494 355.203C153.411 355.194 153.331 355.168 153.261 355.125C153.19 355.082 153.129 355.023 153.084 354.954C153.04 354.884 153.013 354.804 153.004 354.722C152.995 354.64 153.005 354.556 153.033 354.478L157.906 340.48C157.941 340.367 158.013 340.27 158.11 340.202C158.206 340.135 158.323 340.101 158.44 340.107C158.556 340.111 158.668 340.151 158.76 340.222C158.852 340.293 158.919 340.391 158.953 340.502L163.292 355.415C163.316 355.502 163.318 355.593 163.299 355.681C163.28 355.769 163.24 355.851 163.182 355.92C163.131 355.98 163.067 356.028 162.995 356.061C162.923 356.094 162.844 356.111 162.765 356.11V356.11ZM154.291 354.171L162.011 354.903L158.352 342.426L154.291 354.171Z" fill="#444444"/>
<path d="M205.236 353.922L206.971 340.648L210.717 352.978L205.236 353.922Z" fill="#CCCCCC"/>
<path d="M205.236 354.471C205.166 354.472 205.096 354.459 205.031 354.432C204.965 354.406 204.906 354.367 204.856 354.317C204.793 354.258 204.746 354.184 204.716 354.103C204.687 354.022 204.677 353.935 204.688 353.849L206.429 340.582C206.444 340.458 206.502 340.342 206.593 340.255C206.683 340.168 206.801 340.116 206.927 340.107C207.052 340.096 207.177 340.129 207.281 340.2C207.385 340.27 207.461 340.374 207.497 340.494L211.244 352.817C211.271 352.894 211.28 352.975 211.272 353.055C211.265 353.136 211.239 353.214 211.198 353.283C211.157 353.353 211.101 353.413 211.035 353.459C210.968 353.505 210.892 353.535 210.812 353.549L205.331 354.493L205.236 354.471ZM207.183 343.246L205.873 353.256L210.007 352.525L207.183 343.246Z" fill="#444444"/>
<g opacity="0.3">
<path opacity="0.3" d="M162.765 356.11H162.706L153.494 355.203C153.411 355.194 153.331 355.168 153.261 355.125C153.19 355.082 153.129 355.023 153.084 354.954C153.04 354.884 153.013 354.804 153.004 354.722C152.995 354.64 153.005 354.556 153.033 354.478L157.906 340.48C157.941 340.367 158.013 340.27 158.11 340.202C158.206 340.135 158.323 340.101 158.44 340.107C158.556 340.111 158.668 340.151 158.76 340.222C158.852 340.293 158.919 340.391 158.953 340.502L163.292 355.415C163.316 355.502 163.318 355.593 163.299 355.681C163.28 355.769 163.24 355.851 163.182 355.92C163.131 355.98 163.067 356.028 162.995 356.061C162.923 356.094 162.844 356.111 162.765 356.11V356.11ZM154.291 354.171L162.011 354.903L158.352 342.426L154.291 354.171Z" fill="#444444"/>
</g>
<g opacity="0.3">
<path opacity="0.3" d="M205.236 354.471C205.166 354.472 205.096 354.459 205.031 354.432C204.965 354.406 204.906 354.367 204.856 354.317C204.793 354.258 204.746 354.184 204.716 354.103C204.687 354.022 204.677 353.935 204.688 353.849L206.429 340.582C206.444 340.458 206.502 340.342 206.593 340.255C206.683 340.168 206.801 340.116 206.927 340.107C207.052 340.096 207.177 340.129 207.281 340.2C207.385 340.27 207.461 340.374 207.497 340.494L211.244 352.817C211.271 352.894 211.28 352.975 211.272 353.055C211.265 353.136 211.239 353.214 211.198 353.283C211.157 353.353 211.101 353.413 211.035 353.459C210.968 353.505 210.892 353.535 210.812 353.549L205.331 354.493L205.236 354.471ZM207.183 343.246L205.873 353.256L210.007 352.525L207.183 343.246Z" fill="#444444"/>
</g>
<path d="M158.25 344.263C159.765 347.468 161.126 350.724 162.502 353.981C163.175 355.598 163.819 357.266 164.419 358.971C164.999 360.683 165.487 362.425 165.882 364.189C166.675 367.759 166.997 371.417 166.841 375.07C166.707 378.777 165.978 382.439 164.682 385.915C164.324 386.778 164.002 387.649 163.57 388.476L162.948 389.734L162.216 390.942C161.763 391.761 161.192 392.508 160.672 393.276C160.153 394.044 159.611 394.703 159.084 395.405C157.085 398.091 155.519 401.074 154.445 404.245C153.37 407.497 152.718 410.874 152.506 414.292C152.177 417.812 151.862 421.324 151.379 424.837C151.05 421.31 150.889 417.783 150.713 414.256C150.621 412.451 150.645 410.642 150.786 408.841C150.944 407.018 151.253 405.212 151.708 403.44C152.602 399.833 154.15 396.42 156.274 393.371C156.772 392.639 157.313 391.908 157.782 391.176C158.25 390.444 158.718 389.815 159.099 389.076L159.714 387.993L160.255 386.873C160.643 386.141 160.914 385.351 161.228 384.583C163.599 378.356 163.936 371.411 163.028 364.657C162.515 361.227 161.76 357.838 160.767 354.515C159.911 351.141 159.004 347.724 158.25 344.263Z" fill="#0084B2"/>
<path d="M158.411 343.641C158.762 346.034 158.938 348.405 159.099 350.798C159.232 353.246 159.085 355.701 158.66 358.115C158.23 360.576 157.493 362.973 156.465 365.25C155.435 367.547 154.109 369.7 152.521 371.653L151.101 372.326L152.521 371.653C150.146 374.586 148.254 377.879 146.915 381.407C146.249 383.222 145.54 385.132 144.786 386.969C144.032 388.805 143.257 390.627 142.371 392.479C142.561 390.466 142.869 388.491 143.191 386.515C143.513 384.539 143.871 382.615 144.31 380.617C145.256 376.521 147.092 372.683 149.689 369.377L151.101 368.704L149.689 369.377C151.061 367.616 152.257 365.723 153.26 363.728C154.27 361.709 155.095 359.603 155.726 357.435C156.368 355.225 156.857 352.973 157.189 350.695C157.548 348.368 157.884 345.997 158.411 343.641Z" fill="#0084B2"/>
<path d="M133.246 339.258C132.712 343.597 144.222 347.424 163.526 348.61C188.172 350.132 215.935 346.722 225.725 341.051C228.155 339.646 229.245 338.226 229.143 336.858V313.924L133.282 316.324L133.246 339.258Z" fill="#F9F9F9"/>
<path d="M175.483 349.517C171.458 349.517 167.434 349.4 163.497 349.158C147.815 348.193 136.619 345.426 133.561 341.746C133.248 341.409 133.009 341.01 132.861 340.575C132.712 340.14 132.656 339.679 132.697 339.221V316.31C132.696 316.239 132.709 316.168 132.736 316.102C132.762 316.036 132.801 315.976 132.851 315.925C132.9 315.874 132.959 315.833 133.025 315.805C133.09 315.777 133.16 315.762 133.231 315.761L229.092 313.361C229.239 313.361 229.381 313.418 229.487 313.522C229.54 313.571 229.583 313.631 229.612 313.698C229.641 313.765 229.655 313.837 229.655 313.91V336.858C229.78 338.453 228.536 340.033 225.996 341.526C217.698 346.334 196.602 349.517 175.483 349.517ZM133.773 316.844V339.258C133.773 339.258 133.773 339.302 133.773 339.324C133.746 339.638 133.787 339.954 133.893 340.25C133.999 340.547 134.168 340.818 134.388 341.043C137.219 344.446 148.393 347.131 163.548 348.068C187.967 349.532 215.715 346.209 225.411 340.575C227.555 339.331 228.638 338.058 228.55 336.916V314.473L133.773 316.844Z" fill="#444444"/>
<path d="M79.3154 324.886L225.111 338.109L282.188 296.999L141.09 288.979L79.3154 324.886Z" fill="#F9F9F9"/>
<path d="M225.111 338.658H225.067L79.264 325.427C79.1478 325.418 79.0377 325.372 78.9495 325.295C78.8613 325.219 78.7998 325.117 78.7737 325.003C78.749 324.889 78.7612 324.77 78.8085 324.664C78.8559 324.557 78.936 324.468 79.0372 324.41L140.82 288.51C140.911 288.453 141.019 288.425 141.127 288.43L282.225 296.479C282.337 296.487 282.444 296.529 282.532 296.599C282.62 296.67 282.684 296.766 282.715 296.874C282.748 296.983 282.746 297.1 282.709 297.207C282.673 297.315 282.603 297.408 282.51 297.474L225.433 338.584C225.336 338.642 225.223 338.667 225.111 338.658V338.658ZM81.0788 324.491L224.957 337.545L280.615 297.46L141.229 289.542L81.0788 324.491Z" fill="#444444"/>
<path d="M219.864 314.854C211.288 320.525 186.935 323.927 165.253 322.413C148.328 321.227 138.178 317.393 138.654 313.054C138.785 311.795 139.817 310.485 141.844 309.19C150.772 303.475 175.505 300.189 196.938 301.799C212.869 302.992 222.586 306.57 222.864 310.661C222.952 312.022 221.994 313.441 219.864 314.854Z" fill="#CCCCCC"/>
<path d="M175.746 323.32C172.212 323.32 168.678 323.203 165.216 322.962C151.818 322.025 142.049 319.347 139.078 315.798C138.731 315.423 138.465 314.981 138.298 314.498C138.13 314.016 138.065 313.504 138.105 312.995C138.266 311.532 139.422 310.068 141.544 308.729C150.523 302.985 175.388 299.633 196.975 301.25C212.978 302.45 223.106 306.043 223.406 310.624C223.516 312.241 222.425 313.815 220.164 315.307C212.883 320.122 194.318 323.32 175.746 323.32ZM185.662 301.938C167.514 301.938 149.425 304.99 142.137 309.651C140.329 310.807 139.312 312.007 139.21 313.112C139.19 313.475 139.245 313.838 139.371 314.179C139.497 314.52 139.691 314.832 139.941 315.095C142.678 318.366 152.381 320.949 165.312 321.864C186.737 323.328 211.083 320.013 219.579 314.393C220.896 313.529 222.433 312.197 222.337 310.697C222.118 307.47 214.178 303.643 196.916 302.348C193.184 302.07 189.438 301.938 185.662 301.938Z" fill="#444444"/>
<path d="M152.081 304.953L138.91 314.159C139.1 314.612 139.37 315.029 139.707 315.388L156.004 304.031C154.613 304.316 153.318 304.631 152.081 304.953Z" fill="#BFBFBF"/>
<path d="M166.731 302.282L143.988 318.124C144.508 318.344 145.064 318.556 145.657 318.768L169.805 301.938C168.758 302.048 167.734 302.158 166.731 302.282Z" fill="#BFBFBF"/>
<path d="M178.944 301.316L151.576 320.386C152.227 320.525 152.901 320.656 153.589 320.781L181.651 301.228C180.744 301.25 179.844 301.279 178.944 301.316Z" fill="#BFBFBF"/>
<path d="M189.891 301.228L160.431 321.761L162.67 321.988L192.335 301.316C191.523 301.279 190.711 301.25 189.891 301.228Z" fill="#BFBFBF"/>
<path d="M199.858 301.828L170.266 322.457C171.085 322.457 171.905 322.508 172.732 322.523L202.075 302.07L199.858 301.828Z" fill="#BFBFBF"/>
<path d="M208.851 303.109L181.044 322.471C181.952 322.471 182.852 322.413 183.752 322.369L210.827 303.526L208.851 303.109Z" fill="#BFBFBF"/>
<path d="M216.644 305.231L193.082 321.652C194.128 321.535 195.152 321.417 196.162 321.286L218.239 305.919C217.742 305.67 217.208 305.45 216.644 305.231Z" fill="#BFBFBF"/>
<path d="M222.864 310.266C222.785 309.765 222.587 309.29 222.286 308.883L207.234 319.332C208.697 318.995 210.051 318.637 211.339 318.256L222.864 310.266Z" fill="#BFBFBF"/>
<path d="M206.531 348.346L208.646 348.046L209.327 350.264L206.158 350.944L206.531 348.346Z" fill="#0084B2"/>
<path d="M175.746 323.32C172.212 323.32 168.678 323.203 165.216 322.962C151.818 322.025 142.049 319.347 139.078 315.798C138.731 315.423 138.465 314.981 138.298 314.498C138.13 314.016 138.065 313.504 138.105 312.995C138.266 311.532 139.422 310.068 141.544 308.729C150.523 302.985 175.388 299.633 196.975 301.25C212.978 302.45 223.106 306.043 223.406 310.624C223.516 312.241 222.425 313.815 220.164 315.307C212.883 320.122 194.318 323.32 175.746 323.32ZM185.662 301.938C167.514 301.938 149.425 304.99 142.137 309.651C140.329 310.807 139.312 312.007 139.21 313.112C139.19 313.475 139.245 313.838 139.371 314.179C139.497 314.52 139.691 314.832 139.941 315.095C142.678 318.366 152.381 320.949 165.312 321.864C186.737 323.328 211.083 320.013 219.579 314.393C220.896 313.529 222.433 312.197 222.337 310.697C222.118 307.47 214.178 303.643 196.916 302.348C193.184 302.07 189.438 301.938 185.662 301.938Z" fill="#444444"/>
<path d="M281.895 297.343L139.839 280.951L140.571 123.689L281.251 132.522L281.895 297.343Z" fill="#CCCCCC"/>
<path d="M281.895 297.891H281.837L139.766 281.5C139.632 281.482 139.51 281.417 139.421 281.316C139.333 281.215 139.283 281.086 139.283 280.951L140.014 123.682C140.015 123.607 140.032 123.534 140.062 123.466C140.092 123.398 140.136 123.337 140.19 123.287C140.244 123.234 140.309 123.194 140.379 123.169C140.45 123.144 140.525 123.134 140.6 123.14L281.288 131.973C281.427 131.982 281.557 132.044 281.652 132.146C281.747 132.248 281.8 132.382 281.8 132.521L282.459 297.343C282.459 297.42 282.442 297.496 282.411 297.567C282.379 297.638 282.333 297.701 282.276 297.752C282.171 297.845 282.035 297.895 281.895 297.891V297.891ZM140.388 280.461L281.346 296.728L280.702 133.041L141.119 124.26L140.388 280.461Z" fill="#444444"/>
<path d="M144.09 124.582L140.783 126.66V128.438L146.454 124.713L144.09 124.582Z" fill="#BFBFBF"/>
<path d="M154.094 125.153L140.051 134.936V136.722L156.457 125.284L154.094 125.153Z" fill="#BFBFBF"/>
<path d="M164.097 125.723L140.051 142.481V144.266L166.468 125.862L164.097 125.723Z" fill="#BFBFBF"/>
<path d="M174.107 126.302L140.051 150.032V151.811L176.471 126.433L174.107 126.302Z" fill="#BFBFBF"/>
<path d="M184.118 126.872L140.051 157.577V159.362L186.481 127.004L184.118 126.872Z" fill="#BFBFBF"/>
<path d="M194.121 127.443L140.051 165.121V166.907L196.484 127.582L194.121 127.443Z" fill="#BFBFBF"/>
<path d="M204.131 128.021L140.051 172.666V174.451L206.495 128.153L204.131 128.021Z" fill="#BFBFBF"/>
<path d="M214.134 128.592L140.051 180.217V182.003L216.498 128.731L214.134 128.592Z" fill="#BFBFBF"/>
<path d="M224.145 129.163L140.051 187.762V189.547L226.508 129.302L224.145 129.163Z" fill="#BFBFBF"/>
<path d="M234.148 129.741L140.051 195.306V197.092L236.512 129.872L234.148 129.741Z" fill="#BFBFBF"/>
<path d="M244.159 130.312L140.051 202.858V204.636L246.522 130.451L244.159 130.312Z" fill="#BFBFBF"/>
<path d="M254.162 130.89L140.051 210.403V212.188L256.525 131.021L254.162 130.89Z" fill="#BFBFBF"/>
<path d="M264.172 131.46L140.051 217.947V219.732L266.536 131.599L264.172 131.46Z" fill="#BFBFBF"/>
<path d="M274.175 132.031L140.051 225.499V227.277L276.539 132.17L274.175 132.031Z" fill="#BFBFBF"/>
<path d="M281.464 134.504L140.051 233.043V234.828L281.464 136.283V134.504Z" fill="#BFBFBF"/>
<path d="M281.464 142.049L140.051 240.587V242.373L281.464 143.834V142.049Z" fill="#BFBFBF"/>
<path d="M281.464 149.593L140.051 248.139V249.917L281.464 151.379V149.593Z" fill="#BFBFBF"/>
<path d="M281.464 157.138L140.051 255.684V257.469L281.464 158.923V157.138Z" fill="#BFBFBF"/>
<path d="M281.464 164.689L140.051 263.228V265.014L281.464 166.468V164.689Z" fill="#BFBFBF"/>
<path d="M281.464 172.234L140.051 270.78V272.558L281.464 174.019V172.234Z" fill="#BFBFBF"/>
<path d="M281.464 179.778L140.051 278.324V280.11L281.464 181.564V179.778Z" fill="#BFBFBF"/>
<path d="M281.464 187.33L145.913 281.785L148.005 282.115L281.464 189.108V187.33Z" fill="#BFBFBF"/>
<path d="M281.464 194.86L154.752 283.161L156.867 283.483L281.464 196.66V194.86Z" fill="#BFBFBF"/>
<path d="M281.463 202.404L163.614 284.53L165.729 284.859L281.463 204.204V202.404Z" fill="#BFBFBF"/>
<path d="M281.464 209.949L172.476 285.905L174.568 286.227L281.464 211.734V209.949Z" fill="#BFBFBF"/>
<path d="M281.463 217.5L181.337 287.274L183.43 287.603L281.463 219.279V217.5Z" fill="#BFBFBF"/>
<path d="M281.464 225.045L190.191 288.649L192.284 288.971L281.464 226.83V225.045Z" fill="#BFBFBF"/>
<path d="M281.463 232.589L199.053 290.018L201.146 290.347L281.463 234.375V232.589Z" fill="#BFBFBF"/>
<path d="M281.464 240.141L207.915 291.393L210.007 291.715L281.464 241.919V240.141Z" fill="#BFBFBF"/>
<path d="M281.463 247.686L216.776 292.769L218.869 293.091L281.463 249.471V247.686Z" fill="#BFBFBF"/>
<path d="M281.464 255.23L225.638 294.138L227.731 294.46L281.464 257.015V255.23Z" fill="#BFBFBF"/>
<path d="M281.463 262.782L234.492 295.513L236.585 295.835L281.463 264.56V262.782Z" fill="#BFBFBF"/>
<path d="M281.463 270.326L243.354 296.882L245.446 297.211L281.463 272.112V270.326Z" fill="#BFBFBF"/>
<path d="M281.464 277.871L252.215 298.257L254.308 298.579L281.464 279.656V277.871Z" fill="#BFBFBF"/>
<path d="M281.463 285.422L261.077 299.626L263.17 299.955L281.463 287.201V285.422Z" fill="#BFBFBF"/>
<path d="M281.464 292.967L269.938 301.001L272.031 301.323L281.464 294.752V292.967Z" fill="#BFBFBF"/>
<path d="M282.195 297.174V295.389L279.524 297.255L281.617 297.577L282.195 297.174Z" fill="#BFBFBF"/>
<path d="M281.983 297.76H281.917L139.766 281.5C139.632 281.482 139.51 281.417 139.421 281.316C139.333 281.215 139.283 281.086 139.283 280.951L140.014 123.682C140.015 123.607 140.032 123.534 140.062 123.466C140.092 123.398 140.136 123.337 140.19 123.287C140.244 123.234 140.309 123.194 140.379 123.169C140.45 123.144 140.525 123.134 140.6 123.14L281.288 131.973C281.427 131.982 281.557 132.044 281.652 132.146C281.748 132.248 281.8 132.382 281.8 132.521L282.532 297.204C282.533 297.276 282.519 297.348 282.492 297.416C282.465 297.483 282.425 297.545 282.374 297.596C282.323 297.648 282.262 297.689 282.195 297.717C282.128 297.745 282.056 297.76 281.983 297.76V297.76ZM140.388 280.461L281.427 296.596L280.695 133.041L141.112 124.26L140.388 280.461Z" fill="#444444"/>
<path d="M282.239 297.057L225.162 354.712V172.395L282.239 132.126V297.057Z" fill="#CCCCCC"/>
<path d="M225.162 355.261C225.092 355.26 225.023 355.248 224.957 355.225C224.856 355.183 224.769 355.112 224.708 355.021C224.646 354.93 224.614 354.822 224.613 354.713V172.395C224.614 172.307 224.635 172.221 224.676 172.143C224.717 172.066 224.776 171.999 224.847 171.949L281.925 131.702C282.007 131.644 282.104 131.61 282.204 131.604C282.305 131.598 282.405 131.619 282.495 131.666C282.584 131.713 282.658 131.783 282.71 131.87C282.762 131.956 282.789 132.055 282.788 132.156V297.094C282.789 297.166 282.776 297.237 282.75 297.303C282.724 297.37 282.684 297.431 282.634 297.482L225.557 355.137C225.447 355.229 225.305 355.273 225.162 355.261V355.261ZM225.711 172.695V353.381L281.727 296.831V133.18L225.711 172.695Z" fill="#444444"/>
<path d="M225.162 354.713L79.3594 333.543V159.194L225.162 172.717V354.713Z" fill="#F9F9F9"/>
<path d="M225.162 355.261H225.081L79.2784 334.084C79.1472 334.065 79.0275 333.998 78.9414 333.898C78.8553 333.797 78.8087 333.668 78.8101 333.535V159.194C78.8164 159.115 78.8393 159.039 78.8771 158.969C78.9149 158.9 78.9669 158.839 79.0296 158.791C79.0856 158.74 79.1516 158.702 79.2234 158.678C79.2953 158.654 79.3713 158.645 79.4467 158.652L225.25 172.183C225.387 172.194 225.514 172.257 225.607 172.359C225.699 172.461 225.749 172.594 225.747 172.731V354.72C225.748 354.799 225.732 354.878 225.699 354.95C225.666 355.022 225.618 355.086 225.557 355.137C225.503 355.183 225.44 355.218 225.372 355.24C225.304 355.261 225.233 355.268 225.162 355.261V355.261ZM79.9077 333.067L224.65 354.083V173.222L79.9077 159.794V333.067Z" fill="#444444"/>
<path d="M197.165 261.282V250.027H200.831V253.693H209.21V257.615H200.831V261.282H197.165Z" fill="#99C6D6"/>
<path d="M197.297 216.125V219.528V223.457H209.334V219.528H201.226V216.125H209.334V212.203H201.226H197.297V216.125Z" fill="#99C6D6"/>
<path d="M202.009 187.33L197.297 183.927V188.377L202.009 191.779V192.306H197.297V196.228H209.334V192.306H204.885V191.26L209.334 189.167V184.454L203.319 188.113L202.009 187.33Z" fill="#99C6D6"/>
<path d="M197.297 202.251V205.909L209.334 211.149V206.956L207.241 206.436V201.965L209.334 201.182V196.997L197.297 202.251ZM204.366 205.397L201.234 204.087L204.38 203.041L204.366 205.397Z" fill="#99C6D6"/>
<path d="M197.297 241.78V245.439L209.334 250.671V246.485L207.241 245.959V241.509L209.334 240.726V236.541L197.297 241.78ZM204.366 244.919L201.219 243.61L204.366 242.563V244.919Z" fill="#99C6D6"/>
<path d="M197.297 229.077V235.494H209.334V231.572H206.451V229.077C206.451 228.476 206.333 227.88 206.102 227.325C205.872 226.77 205.535 226.265 205.109 225.84C204.684 225.416 204.179 225.079 203.623 224.849C203.067 224.62 202.472 224.502 201.87 224.503V224.503C201.27 224.503 200.675 224.622 200.12 224.852C199.565 225.081 199.061 225.418 198.636 225.843C198.212 226.268 197.875 226.772 197.645 227.327C197.415 227.882 197.297 228.476 197.297 229.077V229.077ZM203.319 229.845V231.572H200.502V229.845C200.502 229.469 200.652 229.108 200.918 228.841C201.184 228.575 201.545 228.426 201.922 228.426C202.298 228.426 202.659 228.575 202.925 228.841C203.192 229.108 203.341 229.469 203.341 229.845H203.319Z" fill="#99C6D6"/>
<path d="M138.427 97.4776L153.867 93.8188C153.867 93.8188 161.916 131.87 192.833 114.308C223.75 96.7459 200.151 147.969 200.151 147.969C200.151 147.969 132.514 153.091 130.312 153.091C128.109 153.091 97.9605 147.969 102.373 142.847C106.785 137.724 123.696 114.308 125.899 112.113C128.102 109.918 138.427 97.4776 138.427 97.4776Z" fill="#CCCCCC"/>
<path d="M130.341 153.669C128.511 153.669 103.829 149.615 101.605 144.756C101.432 144.389 101.376 143.977 101.444 143.577C101.512 143.177 101.701 142.807 101.985 142.517C104.18 139.949 109.53 132.807 114.688 125.906C119.847 119.006 124.421 112.874 125.54 111.754C127.736 109.603 137.9 97.2799 137.98 97.1189C138.06 97.0297 138.165 96.9661 138.28 96.936L153.72 93.2772C153.864 93.2464 154.013 93.2727 154.138 93.3504C154.199 93.3896 154.253 93.4409 154.294 93.5012C154.336 93.5616 154.365 93.6298 154.379 93.7016C154.416 93.8773 158.287 111.432 170.266 116.811C176.581 119.642 184.074 118.64 192.54 113.825C199.638 109.786 204.395 109.01 207.08 111.469C214.347 118.135 201.226 146.966 200.663 148.196C200.619 148.283 200.554 148.358 200.473 148.413C200.393 148.468 200.299 148.502 200.202 148.51C197.465 148.73 132.543 153.669 130.341 153.669ZM138.734 97.9971C137.527 99.4606 128.416 110.437 126.294 112.53C125.233 113.591 120.528 119.891 115.545 126.565C110.378 133.48 105.037 140.637 102.797 143.234C102.65 143.365 102.549 143.539 102.509 143.732C102.47 143.925 102.494 144.125 102.578 144.303C104.444 148.371 127.663 152.572 130.319 152.572C132.397 152.572 194.714 147.859 199.792 147.449C201.175 144.361 212.656 118.084 206.334 112.288C204.08 110.225 199.624 111.066 193.082 114.784C184.301 119.781 176.464 120.806 169.812 117.82C158.396 112.698 154.196 97.6092 153.435 94.4846L138.734 97.9971Z" fill="#444444"/>
<path d="M143 96.2702L133.297 103.002C132.112 104.415 130.838 105.929 129.638 107.312L146.893 95.3481L143 96.2702Z" fill="#BFBFBF"/>
<path d="M153.977 96.2043L118.787 120.616L116.006 124.326L154.438 97.6679C154.262 97.1337 154.109 96.6434 153.977 96.2043Z" fill="#BFBFBF"/>
<path d="M156.201 102.212L106.998 136.341C105.915 137.761 104.92 139.063 104.071 140.161L156.845 103.573C156.596 103.105 156.399 102.651 156.201 102.212Z" fill="#BFBFBF"/>
<path d="M159.143 107.715L103.529 146.293C104.002 146.577 104.49 146.834 104.993 147.062L159.97 108.93C159.677 108.527 159.406 108.125 159.143 107.715Z" fill="#BFBFBF"/>
<path d="M162.97 112.61L110.422 149.059L112.23 149.586L164.046 113.649C163.672 113.313 163.314 112.969 162.97 112.61Z" fill="#BFBFBF"/>
<path d="M168.107 116.598L118.347 151.093C119.013 151.247 119.672 151.386 120.308 151.518L169.578 117.345C169.08 117.118 168.59 116.862 168.107 116.598Z" fill="#BFBFBF"/>
<path d="M175.695 118.874L126.894 152.725C127.779 152.864 128.504 152.967 129.031 153.025L178.212 118.918C177.373 118.955 176.532 118.94 175.695 118.874V118.874Z" fill="#BFBFBF"/>
<path d="M195.65 112.581L138.017 152.557L140.886 152.352L200.743 110.832C198.981 111.206 197.271 111.793 195.65 112.581V112.581Z" fill="#BFBFBF"/>
<path d="M206.707 112.442L150.142 151.671L153.069 151.459L207.483 113.722C207.283 113.262 207.023 112.832 206.707 112.442V112.442Z" fill="#BFBFBF"/>
<path d="M208.229 118.933L162.326 150.742L165.253 150.53L208.134 120.791C208.171 120.169 208.215 119.54 208.229 118.933Z" fill="#BFBFBF"/>
<path d="M206.949 127.37L174.517 149.864L177.4 149.645L206.392 129.521C206.59 128.789 206.78 128.058 206.949 127.37Z" fill="#BFBFBF"/>
<path d="M204.073 136.912L186.715 148.949L189.642 148.73L203.246 139.29C203.495 138.529 203.787 137.731 204.073 136.912Z" fill="#BFBFBF"/>
<path d="M199.953 147.318L198.929 148.049L199.66 147.991C199.66 147.991 199.77 147.735 199.953 147.318Z" fill="#BFBFBF"/>
<path d="M130.341 153.669C128.511 153.669 103.829 149.615 101.605 144.756C101.432 144.389 101.376 143.977 101.444 143.577C101.512 143.177 101.701 142.807 101.985 142.517C104.18 139.949 109.53 132.807 114.688 125.906C119.847 119.006 124.421 112.874 125.54 111.754C127.736 109.603 137.9 97.2799 137.98 97.1189C138.06 97.0297 138.165 96.9661 138.28 96.936L153.72 93.2772C153.864 93.2464 154.013 93.2727 154.138 93.3504C154.199 93.3896 154.253 93.4409 154.294 93.5012C154.336 93.5616 154.365 93.6298 154.379 93.7016C154.416 93.8773 158.287 111.432 170.266 116.811C176.581 119.642 184.074 118.64 192.54 113.825C199.638 109.786 204.395 109.01 207.08 111.469C214.347 118.135 201.226 146.966 200.663 148.196C200.619 148.283 200.554 148.358 200.473 148.413C200.393 148.468 200.299 148.502 200.202 148.51C197.465 148.73 132.543 153.669 130.341 153.669ZM138.734 97.9971C137.527 99.4606 128.416 110.437 126.294 112.53C125.233 113.591 120.528 119.891 115.545 126.565C110.378 133.48 105.037 140.637 102.797 143.234C102.65 143.365 102.549 143.539 102.509 143.732C102.47 143.925 102.494 144.125 102.578 144.303C104.444 148.371 127.663 152.572 130.319 152.572C132.397 152.572 194.714 147.859 199.792 147.449C201.175 144.361 212.656 118.084 206.334 112.288C204.08 110.225 199.624 111.066 193.082 114.784C184.301 119.781 176.464 120.806 169.812 117.82C158.396 112.698 154.196 97.6092 153.435 94.4846L138.734 97.9971Z" fill="#444444"/>
<path d="M153.589 93.504L136.985 97.2506C136.985 97.2506 157.475 73.4538 177.913 77.2443C177.913 77.2443 158.06 76.8345 153.589 93.504Z" fill="#0084B2"/>
<path d="M239.636 137.029C239.5 137.03 239.369 136.98 239.268 136.89C239.166 136.799 239.102 136.674 239.087 136.539C235.392 102.146 209.473 96.0873 209.217 96.036C209.074 96.005 208.95 95.9185 208.871 95.7957C208.792 95.6729 208.765 95.5238 208.796 95.3811C208.827 95.2385 208.914 95.114 209.037 95.0351C209.159 94.9562 209.309 94.9293 209.451 94.9604C209.722 95.0189 236.402 101.246 240.185 136.422C240.202 136.566 240.16 136.712 240.069 136.825C239.979 136.939 239.847 137.013 239.702 137.029H239.636Z" fill="#444444"/>
<path d="M129.045 95.1797L137.57 97.2506C137.57 97.2506 176.668 50.2571 200.45 99.7605C200.45 99.7605 202.99 95.9188 205.829 96.8335C208.668 97.7482 175.819 42.537 129.045 95.1797Z" fill="#00A5EB"/>
<path d="M174.934 73.2638C174.934 73.2638 197.919 79.0593 205.449 96.8703L222.118 91.4699C222.118 91.4699 212.561 80.1496 201.007 73.5638C196.534 71.0403 191.382 69.9809 186.276 70.5343L167.507 72.4442C167.507 72.4442 172.161 72.854 174.934 73.2638Z" fill="#2CC8FF"/>
<path d="M63.2749 136.027L209.078 147.793L282.166 132.068L141.485 122.906L63.2749 136.027Z" fill="#F9F9F9"/>
<path d="M209.078 148.342H209.034L63.231 136.575C63.0957 136.568 62.9681 136.51 62.8728 136.413C62.7776 136.317 62.7213 136.189 62.715 136.053C62.7086 135.918 62.7526 135.785 62.8384 135.68C62.9242 135.575 63.0458 135.506 63.1798 135.485L141.397 122.365H141.522L282.202 131.519C282.334 131.529 282.457 131.585 282.551 131.678C282.645 131.77 282.703 131.893 282.715 132.024C282.726 132.157 282.689 132.289 282.609 132.395C282.529 132.502 282.413 132.576 282.283 132.602L209.195 148.328L209.078 148.342ZM67.7313 135.836L209.041 147.237L278.2 132.361L141.515 123.462L67.7313 135.836Z" fill="#444444"/>
<path d="M224.65 172.871C225.704 143.659 229.143 123.257 209.334 98.1801C206.473 94.5579 200.019 97.5581 200.129 102.146C200.129 103.573 195.738 159.062 154.657 147.515C137.571 142.693 131.651 115.406 137.571 98.5313L137.615 98.3996C139.151 94.0529 134.402 91.8138 130.165 94.8506C115.611 105.242 94.9676 126.587 81.8692 153.274C80.9911 155.06 80.0471 157.365 79.2056 159.201L224.65 172.871Z" fill="#F9F9F9"/>
<path d="M224.65 173.427H224.599L79.1691 159.743C79.0817 159.736 78.9974 159.707 78.9235 159.66C78.8496 159.613 78.7882 159.548 78.7447 159.472C78.7048 159.394 78.6841 159.307 78.6841 159.22C78.6841 159.132 78.7048 159.045 78.7447 158.967C79.074 158.235 79.4179 157.46 79.7691 156.655C80.318 155.411 80.8741 154.123 81.4083 152.996C94.7775 125.709 115.859 104.356 129.851 94.3676C132.302 92.6187 135.178 92.3699 137.007 93.7529C138.405 94.8067 138.829 96.5995 138.142 98.5459L138.098 98.6703C134.344 109.391 135.485 124.099 140.871 134.453C144.288 141.039 149.103 145.335 154.774 146.937C165.421 149.937 174.532 148.598 181.769 142.971C197.619 130.677 199.551 102.388 199.543 102.124C199.47 99.1972 201.636 97.1483 203.809 96.3653C204.823 95.9426 205.945 95.8566 207.011 96.1201C208.077 96.3836 209.03 96.9826 209.729 97.8288C227.555 120.404 226.67 139.539 225.55 163.841C225.418 166.768 225.279 169.775 225.162 172.885C225.162 172.959 225.146 173.033 225.114 173.1C225.082 173.167 225.036 173.226 224.979 173.273C224.89 173.36 224.774 173.414 224.65 173.427ZM80.0399 158.726L224.094 172.271C224.204 169.344 224.335 166.541 224.46 163.797C225.616 138.815 226.443 120.769 208.873 98.5167C207.805 97.1629 206.056 96.7605 204.19 97.4337C202.448 98.063 200.59 99.8046 200.648 102.132C200.648 102.402 198.709 131.248 182.464 143.842C174.905 149.696 165.495 151.108 154.482 148.005C148.489 146.322 143.439 141.815 139.847 134.973C134.366 124.399 133.18 109.325 137.037 98.3484L137.088 98.2167C137.615 96.7531 137.337 95.4287 136.356 94.6676C135.185 93.7895 132.858 93.6139 130.502 95.2969C116.599 105.212 95.6849 126.411 82.4108 153.516C81.8839 154.584 81.3278 155.857 80.7936 157.094L80.0399 158.726Z" fill="#444444"/>
<path d="M205.976 96.5922L222.118 91.4187C222.118 91.4187 251.886 96.841 282.239 132.148L224.709 172.959C224.709 172.959 229.041 112.779 205.976 96.5922Z" fill="#E8E8E8"/>
<path d="M224.708 173.485C224.613 173.484 224.52 173.458 224.437 173.412C224.347 173.36 224.273 173.284 224.224 173.192C224.175 173.1 224.152 172.997 224.159 172.893C224.203 172.293 228.235 112.888 205.661 97.0239C205.575 96.9662 205.509 96.8851 205.468 96.7903C205.428 96.6955 205.416 96.5911 205.434 96.4897C205.449 96.3891 205.492 96.2948 205.558 96.2173C205.624 96.1397 205.71 96.082 205.807 96.0507L221.95 90.8771C222.035 90.8515 222.127 90.8515 222.213 90.8771C222.513 90.9284 252.53 96.7312 282.656 131.782C282.707 131.84 282.745 131.907 282.768 131.98C282.791 132.053 282.799 132.13 282.79 132.206C282.781 132.282 282.756 132.356 282.716 132.421C282.677 132.487 282.624 132.544 282.561 132.587L225.023 173.398C224.929 173.458 224.82 173.488 224.708 173.485ZM207.146 96.7678C227.826 112.691 225.821 163.27 225.33 171.817L281.434 132.024C252.72 98.8679 224.32 92.4138 222.162 91.9674L207.146 96.7678Z" fill="#444444"/>
<path d="M209.151 148.32C209.026 148.321 208.904 148.278 208.807 148.2C208.71 148.121 208.643 148.011 208.617 147.888C208.587 147.747 208.613 147.599 208.691 147.477C208.77 147.355 208.893 147.269 209.034 147.237L212.613 146.469C212.683 146.454 212.756 146.453 212.827 146.466C212.898 146.48 212.966 146.507 213.026 146.546C213.087 146.585 213.139 146.636 213.179 146.696C213.22 146.756 213.249 146.823 213.264 146.893C213.279 146.964 213.28 147.037 213.266 147.108C213.253 147.179 213.226 147.246 213.186 147.307C213.147 147.367 213.096 147.419 213.037 147.46C212.977 147.501 212.91 147.53 212.839 147.544L209.283 148.313L209.151 148.32ZM205.493 148.049H205.449L201.79 147.757C201.718 147.751 201.648 147.731 201.583 147.698C201.519 147.665 201.462 147.62 201.415 147.565C201.368 147.51 201.332 147.446 201.31 147.377C201.288 147.309 201.279 147.236 201.285 147.164C201.291 147.092 201.311 147.022 201.344 146.957C201.376 146.893 201.422 146.836 201.477 146.789C201.532 146.742 201.595 146.706 201.664 146.684C201.733 146.662 201.806 146.653 201.878 146.659L205.536 146.952C205.682 146.958 205.819 147.021 205.918 147.128C206.017 147.235 206.069 147.377 206.063 147.522C206.057 147.668 205.994 147.805 205.887 147.904C205.78 148.003 205.638 148.055 205.493 148.049V148.049ZM198.175 147.464H198.131L194.472 147.164C194.401 147.159 194.331 147.14 194.267 147.108C194.203 147.076 194.146 147.031 194.099 146.977C194.053 146.922 194.018 146.859 193.996 146.79C193.975 146.722 193.968 146.65 193.975 146.579C193.979 146.506 193.998 146.435 194.031 146.37C194.063 146.305 194.109 146.247 194.164 146.2C194.219 146.153 194.283 146.118 194.353 146.096C194.422 146.074 194.495 146.067 194.567 146.074L198.226 146.366C198.372 146.372 198.509 146.436 198.608 146.543C198.707 146.65 198.759 146.792 198.753 146.937C198.747 147.083 198.684 147.22 198.577 147.319C198.47 147.418 198.328 147.47 198.182 147.464H198.175ZM190.857 146.871H190.813L187.155 146.579C187.083 146.573 187.012 146.553 186.948 146.52C186.883 146.488 186.826 146.442 186.779 146.387C186.732 146.332 186.696 146.268 186.674 146.199C186.652 146.131 186.644 146.058 186.65 145.986C186.663 145.841 186.732 145.707 186.843 145.612C186.954 145.518 187.097 145.471 187.242 145.481L190.901 145.781C191.035 145.801 191.157 145.87 191.243 145.974C191.329 146.078 191.374 146.211 191.368 146.346C191.363 146.481 191.308 146.609 191.213 146.706C191.119 146.803 190.992 146.862 190.857 146.871V146.871ZM216.242 146.783C216.118 146.782 215.997 146.738 215.9 146.66C215.803 146.582 215.736 146.473 215.708 146.352C215.692 146.281 215.69 146.208 215.703 146.136C215.716 146.065 215.743 145.997 215.782 145.936C215.822 145.876 215.873 145.823 215.933 145.783C215.994 145.742 216.061 145.714 216.132 145.7L219.703 144.932C219.846 144.901 219.995 144.928 220.118 145.006C220.241 145.084 220.329 145.207 220.362 145.349C220.377 145.42 220.378 145.493 220.365 145.564C220.351 145.635 220.324 145.702 220.285 145.763C220.245 145.823 220.194 145.876 220.135 145.916C220.075 145.957 220.008 145.986 219.937 146L216.359 146.732C216.342 146.752 216.322 146.769 216.301 146.783H216.242ZM183.562 146.286H183.518L179.859 145.993C179.714 145.98 179.58 145.911 179.486 145.8C179.391 145.689 179.344 145.546 179.354 145.4C179.359 145.322 179.381 145.245 179.417 145.175C179.454 145.105 179.505 145.044 179.568 144.996C179.63 144.947 179.702 144.913 179.779 144.894C179.855 144.875 179.935 144.873 180.013 144.888L183.671 145.181C183.817 145.187 183.954 145.25 184.053 145.357C184.152 145.464 184.204 145.606 184.198 145.752C184.193 145.897 184.129 146.034 184.022 146.133C183.915 146.232 183.773 146.284 183.628 146.279L183.562 146.286ZM176.244 145.7H176.2L172.541 145.408C172.466 145.408 172.39 145.392 172.321 145.362C172.251 145.332 172.189 145.287 172.137 145.232C172.086 145.176 172.046 145.11 172.021 145.038C171.996 144.967 171.987 144.891 171.993 144.815C171.999 144.739 172.021 144.666 172.057 144.599C172.093 144.532 172.142 144.473 172.202 144.427C172.262 144.38 172.331 144.346 172.404 144.327C172.478 144.308 172.554 144.305 172.629 144.317L176.288 144.61C176.36 144.616 176.43 144.635 176.494 144.668C176.558 144.701 176.615 144.747 176.661 144.802C176.708 144.857 176.743 144.921 176.764 144.99C176.785 145.059 176.793 145.131 176.786 145.203C176.777 145.321 176.731 145.434 176.653 145.524C176.575 145.613 176.47 145.675 176.354 145.7H176.244ZM223.369 145.247C223.236 145.245 223.107 145.194 223.008 145.104C222.909 145.013 222.847 144.89 222.832 144.757C222.818 144.624 222.853 144.49 222.93 144.381C223.007 144.272 223.122 144.194 223.252 144.164L226.918 143.425C227.061 143.394 227.21 143.42 227.333 143.499C227.456 143.578 227.542 143.703 227.573 143.845C227.604 143.988 227.578 144.137 227.499 144.26C227.42 144.383 227.295 144.469 227.153 144.5L223.574 145.269L223.369 145.247ZM169.036 145.108H168.992L165.334 144.815C165.189 144.802 165.056 144.732 164.963 144.621C164.869 144.51 164.824 144.367 164.836 144.222C164.849 144.077 164.918 143.943 165.029 143.849C165.14 143.754 165.284 143.707 165.429 143.717L169.088 144.01C169.233 144.016 169.37 144.079 169.469 144.186C169.568 144.293 169.62 144.435 169.614 144.581C169.609 144.726 169.545 144.864 169.438 144.962C169.331 145.061 169.189 145.114 169.044 145.108H169.036ZM161.719 144.522L158.06 144.23C157.984 144.23 157.909 144.214 157.839 144.184C157.77 144.154 157.707 144.109 157.656 144.053C157.604 143.998 157.565 143.932 157.54 143.86C157.515 143.788 157.505 143.712 157.511 143.637C157.517 143.561 157.539 143.487 157.575 143.421C157.611 143.354 157.661 143.295 157.72 143.248C157.78 143.202 157.849 143.168 157.923 143.149C157.996 143.13 158.073 143.127 158.148 143.139L161.807 143.432C161.952 143.438 162.089 143.501 162.188 143.608C162.287 143.715 162.339 143.857 162.333 144.003C162.328 144.148 162.264 144.286 162.157 144.384C162.05 144.483 161.908 144.535 161.763 144.53L161.719 144.522ZM154.401 143.93L150.742 143.637C150.597 143.624 150.463 143.554 150.369 143.444C150.274 143.333 150.227 143.189 150.237 143.044C150.252 142.9 150.322 142.767 150.433 142.673C150.543 142.579 150.685 142.531 150.83 142.539L154.489 142.839C154.623 142.859 154.744 142.928 154.831 143.032C154.917 143.137 154.962 143.269 154.956 143.404C154.951 143.539 154.895 143.668 154.801 143.765C154.707 143.862 154.58 143.92 154.445 143.93H154.401ZM230.57 143.71C230.443 143.71 230.32 143.666 230.222 143.586C230.123 143.506 230.055 143.395 230.028 143.271C230.002 143.129 230.031 142.982 230.11 142.86C230.189 142.739 230.312 142.653 230.453 142.62L234.031 141.851C234.102 141.836 234.175 141.836 234.246 141.849C234.317 141.862 234.384 141.889 234.445 141.929C234.505 141.968 234.557 142.019 234.598 142.079C234.639 142.138 234.667 142.205 234.682 142.276C234.697 142.346 234.698 142.419 234.685 142.49C234.672 142.561 234.644 142.629 234.605 142.689C234.566 142.75 234.515 142.802 234.455 142.843C234.396 142.884 234.329 142.912 234.258 142.927L230.687 143.695L230.57 143.71ZM147.149 143.344H147.084L143.425 143.044C143.28 143.033 143.146 142.965 143.052 142.855C142.957 142.746 142.91 142.603 142.92 142.459C142.933 142.314 143.002 142.18 143.113 142.085C143.224 141.991 143.367 141.944 143.513 141.954L147.171 142.247C147.317 142.252 147.454 142.316 147.553 142.423C147.652 142.53 147.704 142.672 147.698 142.817C147.692 142.963 147.629 143.1 147.522 143.199C147.415 143.298 147.273 143.35 147.127 143.344H147.149ZM139.832 142.751H139.788L136.129 142.459C136.057 142.453 135.987 142.433 135.923 142.401C135.859 142.368 135.802 142.322 135.756 142.267C135.709 142.212 135.675 142.148 135.653 142.079C135.632 142.01 135.625 141.938 135.632 141.866C135.645 141.723 135.713 141.591 135.823 141.498C135.932 141.405 136.074 141.358 136.217 141.368L139.876 141.661C140.01 141.681 140.131 141.75 140.217 141.854C140.304 141.958 140.348 142.091 140.343 142.226C140.337 142.361 140.282 142.49 140.188 142.587C140.094 142.683 139.967 142.742 139.832 142.751V142.751ZM237.734 142.166C237.601 142.162 237.473 142.11 237.375 142.019C237.278 141.929 237.216 141.805 237.203 141.673C237.19 141.54 237.225 141.407 237.302 141.299C237.38 141.19 237.494 141.113 237.624 141.083L241.195 140.315C241.268 140.292 241.344 140.285 241.42 140.294C241.495 140.302 241.568 140.326 241.634 140.365C241.699 140.403 241.756 140.454 241.801 140.516C241.846 140.577 241.877 140.647 241.893 140.721C241.91 140.796 241.91 140.872 241.895 140.947C241.88 141.021 241.85 141.092 241.807 141.154C241.763 141.216 241.707 141.269 241.642 141.308C241.577 141.348 241.505 141.373 241.429 141.383L237.851 142.159L237.734 142.166ZM132.536 142.166H132.492L128.834 141.873C128.761 141.868 128.691 141.848 128.627 141.815C128.562 141.782 128.505 141.737 128.458 141.682C128.411 141.626 128.376 141.563 128.354 141.494C128.331 141.425 128.323 141.353 128.329 141.281C128.334 141.209 128.354 141.138 128.387 141.074C128.42 141.01 128.465 140.952 128.52 140.905C128.575 140.859 128.639 140.823 128.708 140.801C128.777 140.778 128.849 140.77 128.921 140.776L132.58 141.068C132.725 141.081 132.859 141.151 132.954 141.262C133.048 141.372 133.095 141.516 133.085 141.661C133.075 141.794 133.016 141.919 132.92 142.011C132.825 142.104 132.699 142.159 132.565 142.166H132.536ZM125.219 141.581H125.175L121.516 141.288C121.44 141.288 121.365 141.273 121.295 141.242C121.226 141.212 121.163 141.168 121.112 141.112C121.06 141.056 121.021 140.99 120.996 140.919C120.971 140.847 120.961 140.771 120.967 140.695C120.973 140.619 120.995 140.546 121.031 140.479C121.067 140.412 121.117 140.353 121.176 140.307C121.236 140.26 121.305 140.226 121.379 140.207C121.452 140.189 121.529 140.185 121.604 140.198L125.263 140.49C125.408 140.496 125.545 140.56 125.644 140.667C125.743 140.774 125.795 140.916 125.789 141.061C125.784 141.207 125.72 141.344 125.613 141.443C125.506 141.542 125.364 141.594 125.219 141.588V141.581ZM117.901 140.988H117.85L114.191 140.695C114.119 140.689 114.049 140.67 113.984 140.637C113.92 140.604 113.863 140.558 113.816 140.503C113.769 140.448 113.733 140.385 113.711 140.316C113.689 140.247 113.68 140.175 113.686 140.102C113.692 140.03 113.712 139.96 113.745 139.896C113.778 139.831 113.823 139.774 113.878 139.727C113.933 139.68 113.997 139.645 114.065 139.623C114.134 139.6 114.207 139.592 114.279 139.598L117.938 139.89C118.083 139.896 118.22 139.959 118.319 140.067C118.418 140.174 118.47 140.315 118.465 140.461C118.459 140.607 118.395 140.744 118.288 140.843C118.181 140.941 118.039 140.994 117.894 140.988H117.901ZM244.839 140.629C244.705 140.627 244.577 140.576 244.478 140.486C244.379 140.396 244.316 140.273 244.302 140.14C244.288 140.006 244.322 139.873 244.4 139.763C244.477 139.654 244.592 139.577 244.722 139.546L248.3 138.771C248.371 138.755 248.444 138.754 248.515 138.767C248.586 138.78 248.654 138.806 248.715 138.845C248.776 138.884 248.828 138.935 248.87 138.995C248.911 139.054 248.94 139.121 248.955 139.191C248.971 139.262 248.972 139.335 248.959 139.406C248.946 139.477 248.92 139.545 248.881 139.606C248.842 139.667 248.791 139.719 248.731 139.761C248.672 139.802 248.605 139.831 248.535 139.846L244.956 140.578L244.839 140.629ZM110.605 140.402H110.562L106.903 140.102C106.831 140.098 106.761 140.079 106.697 140.047C106.633 140.015 106.576 139.97 106.53 139.915C106.483 139.861 106.448 139.797 106.427 139.729C106.406 139.66 106.398 139.588 106.405 139.517C106.416 139.373 106.484 139.239 106.594 139.144C106.703 139.049 106.846 139.002 106.991 139.012L110.649 139.305C110.794 139.318 110.928 139.387 111.023 139.498C111.117 139.609 111.164 139.752 111.154 139.898C111.143 140.022 111.091 140.139 111.006 140.23C110.921 140.321 110.809 140.382 110.686 140.402H110.605ZM103.288 139.81H103.244L99.5851 139.517C99.5126 139.512 99.4418 139.493 99.3768 139.461C99.3118 139.428 99.2541 139.383 99.207 139.328C99.1599 139.272 99.1244 139.208 99.1026 139.139C99.0808 139.07 99.0732 138.997 99.0802 138.924C99.0933 138.779 99.1627 138.645 99.2735 138.551C99.3843 138.456 99.5277 138.409 99.673 138.419L103.332 138.719C103.466 138.739 103.587 138.808 103.673 138.912C103.76 139.017 103.804 139.149 103.799 139.284C103.793 139.419 103.738 139.548 103.644 139.645C103.55 139.742 103.423 139.801 103.288 139.81ZM95.9702 139.224H95.9263L92.2676 138.932C92.1955 138.926 92.1253 138.906 92.0609 138.873C91.9965 138.84 91.9392 138.795 91.8923 138.74C91.8455 138.685 91.8099 138.621 91.7876 138.552C91.7654 138.484 91.7569 138.411 91.7626 138.339C91.7684 138.267 91.7883 138.197 91.8212 138.132C91.8541 138.068 91.8994 138.011 91.9544 137.964C92.0095 137.917 92.0732 137.881 92.142 137.859C92.2108 137.837 92.2833 137.828 92.3554 137.834L96.0142 138.127C96.1597 138.133 96.297 138.196 96.3958 138.303C96.4946 138.41 96.5468 138.552 96.541 138.697C96.5352 138.843 96.4718 138.98 96.3648 139.079C96.2577 139.178 96.1158 139.23 95.9702 139.224V139.224ZM251.952 139.093C251.811 139.102 251.672 139.056 251.564 138.965C251.455 138.873 251.387 138.744 251.371 138.604C251.356 138.463 251.396 138.322 251.482 138.21C251.569 138.098 251.695 138.024 251.835 138.002L255.413 137.234C255.484 137.219 255.557 137.218 255.628 137.232C255.699 137.245 255.766 137.272 255.827 137.311C255.887 137.351 255.939 137.402 255.98 137.461C256.021 137.521 256.049 137.588 256.064 137.658C256.079 137.729 256.08 137.802 256.067 137.873C256.054 137.944 256.026 138.011 255.987 138.072C255.948 138.132 255.897 138.185 255.837 138.225C255.778 138.266 255.711 138.295 255.64 138.31L252.062 139.078L251.952 139.093ZM88.6819 138.639H88.6307L84.9719 138.346C84.896 138.346 84.8209 138.331 84.7513 138.301C84.6817 138.27 84.6191 138.226 84.5676 138.17C84.516 138.114 84.4766 138.049 84.4518 137.977C84.427 137.905 84.4173 137.829 84.4234 137.753C84.4295 137.678 84.4512 137.604 84.4872 137.537C84.5232 137.47 84.5726 137.412 84.6324 137.365C84.6922 137.318 84.7611 137.284 84.8346 137.266C84.9082 137.247 84.9848 137.244 85.0597 137.256L88.7185 137.549C88.7904 137.554 88.8604 137.574 88.9246 137.607C88.9887 137.64 89.0456 137.685 89.0919 137.74C89.1383 137.796 89.1731 137.859 89.1945 137.928C89.2158 137.997 89.2231 138.07 89.2161 138.141C89.209 138.257 89.1656 138.367 89.092 138.457C89.0184 138.546 88.9184 138.61 88.8063 138.639H88.6819ZM81.3644 138.046H81.3204L77.6617 137.754C77.5172 137.741 77.3838 137.671 77.2906 137.56C77.1974 137.449 77.1519 137.305 77.1641 137.161C77.1771 137.017 77.2455 136.884 77.3547 136.79C77.4639 136.696 77.6055 136.648 77.7495 136.656L81.4083 136.949C81.5538 136.954 81.6911 137.018 81.7899 137.125C81.8887 137.232 81.9409 137.374 81.9351 137.519C81.9293 137.665 81.8659 137.802 81.7589 137.901C81.6518 138 81.5099 138.052 81.3644 138.046V138.046ZM259.226 137.571C259.092 137.569 258.963 137.518 258.864 137.427C258.765 137.337 258.703 137.214 258.688 137.081C258.674 136.948 258.709 136.814 258.786 136.705C258.864 136.595 258.978 136.518 259.108 136.488L262.687 135.719C262.757 135.703 262.83 135.701 262.901 135.713C262.972 135.726 263.039 135.752 263.1 135.791C263.161 135.83 263.213 135.88 263.254 135.94C263.295 135.999 263.323 136.066 263.338 136.136C263.369 136.279 263.342 136.428 263.264 136.551C263.186 136.674 263.063 136.762 262.921 136.795L259.343 137.571H259.226ZM74.2151 137.483H74.1712L70.5124 137.19C70.4399 137.185 70.369 137.166 70.3041 137.134C70.2391 137.101 70.1813 137.056 70.1342 137.001C70.0871 136.945 70.0516 136.881 70.0298 136.812C70.0081 136.743 70.0004 136.67 70.0075 136.597C70.0205 136.453 70.0901 136.32 70.2012 136.226C70.3123 136.133 70.4557 136.088 70.6002 136.1L74.259 136.392C74.3311 136.395 74.4019 136.412 74.4673 136.443C74.5328 136.473 74.5917 136.516 74.6406 136.569C74.6895 136.622 74.7276 136.684 74.7525 136.752C74.7774 136.819 74.7887 136.891 74.7858 136.963C74.783 137.035 74.7659 137.106 74.7357 137.172C74.7054 137.237 74.6626 137.296 74.6096 137.345C74.5566 137.394 74.4945 137.432 74.4268 137.457C74.3591 137.482 74.2871 137.493 74.2151 137.49V137.483ZM66.8975 136.89H66.8536L63.1948 136.597C63.1226 136.592 63.0523 136.572 62.9878 136.539C62.9233 136.506 62.8659 136.461 62.819 136.406C62.7721 136.351 62.7365 136.287 62.7144 136.218C62.6922 136.149 62.6839 136.077 62.6899 136.005C62.7029 135.86 62.7723 135.726 62.8831 135.631C62.994 135.537 63.1374 135.49 63.2826 135.5L66.9414 135.8C67.0752 135.82 67.1969 135.888 67.2831 135.993C67.3693 136.097 67.414 136.229 67.4085 136.365C67.4031 136.5 67.3479 136.628 67.2536 136.725C67.1593 136.822 67.0325 136.881 66.8975 136.89V136.89ZM266.36 136.012C266.226 136.01 266.098 135.959 265.999 135.869C265.9 135.779 265.837 135.655 265.823 135.522C265.809 135.389 265.843 135.255 265.921 135.146C265.998 135.037 266.113 134.96 266.243 134.929L269.821 134.197C269.958 134.179 270.096 134.213 270.209 134.292C270.321 134.371 270.4 134.489 270.429 134.624C270.459 134.758 270.437 134.899 270.368 135.017C270.298 135.136 270.187 135.225 270.056 135.266L266.477 135.997C266.439 136.009 266.4 136.014 266.36 136.012V136.012ZM273.509 134.475C273.369 134.481 273.233 134.434 273.127 134.342C273.021 134.25 272.954 134.121 272.94 133.982C272.926 133.842 272.966 133.703 273.051 133.592C273.137 133.481 273.261 133.407 273.4 133.385L276.978 132.617C277.121 132.586 277.269 132.614 277.392 132.694C277.514 132.774 277.599 132.898 277.629 133.041C277.659 133.184 277.632 133.332 277.552 133.455C277.472 133.577 277.348 133.662 277.205 133.692L273.678 134.461L273.509 134.475ZM280.666 132.931C280.532 132.929 280.404 132.878 280.305 132.788C280.206 132.698 280.143 132.575 280.129 132.441C280.115 132.308 280.149 132.175 280.227 132.065C280.304 131.956 280.419 131.879 280.549 131.848L282.013 131.534C282.085 131.511 282.162 131.504 282.237 131.513C282.313 131.521 282.385 131.545 282.451 131.584C282.517 131.622 282.574 131.673 282.618 131.735C282.663 131.796 282.695 131.866 282.711 131.94C282.727 132.015 282.728 132.091 282.713 132.166C282.698 132.24 282.668 132.311 282.624 132.373C282.58 132.435 282.524 132.488 282.459 132.527C282.394 132.567 282.322 132.592 282.247 132.602L280.783 132.924L280.666 132.931Z" fill="#444444"/>
</svg>
